<svg width="42" height="43" viewBox="0 0 42 43" fill="none" xmlns="http://www.w3.org/2000/svg">
<path d="M20.5136 5.31308C16.2147 9.14764 11.9261 12.9533 7.67595 16.8063C7.35078 17.1004 7.14339 17.7071 7.14083 18.172C7.10499 24.1235 7.10755 30.0749 7.12547 36.029C7.13059 37.5733 7.73739 38.1512 9.23008 38.1853C12.0542 38.251 12.6456 38.6239 14.1895 41.3291C12.1745 41.3291 10.1723 41.4998 8.20594 41.2871C5.64046 41.0113 4.05304 38.989 4.0428 36.3205C4.02232 31.5063 4.03768 26.6921 4.03512 21.8779C4.03512 21.3999 4.03512 20.9192 4.03512 20.0893C3.27213 20.7144 2.7063 21.1793 2.015 21.7466C1.36211 20.9744 0.714339 20.2101 0 19.3697C6.92576 13.2002 13.7414 7.12531 20.6416 0.979492C27.5238 7.10955 34.3395 13.1792 41.2601 19.346C40.5868 20.1655 39.9672 20.9219 39.2912 21.7466C38.6588 21.2292 38.0827 20.759 37.3172 20.1339C37.2865 20.8089 37.2506 21.2633 37.2481 21.715C37.2429 26.4846 37.2506 31.2568 37.2429 36.0264C37.2378 39.3304 35.3047 41.3554 32.0966 41.4105C30.4452 41.4394 28.7912 41.4158 26.8658 41.4158C27.7799 40.2969 28.5044 39.3567 29.2981 38.4821C29.4876 38.272 29.9024 38.2194 30.2224 38.1984C30.86 38.1564 31.5026 38.1984 32.1427 38.18C33.4997 38.1433 34.1449 37.5707 34.1526 36.1945C34.1807 30.1117 34.1756 24.0289 34.1449 17.9435C34.1423 17.5627 33.9273 17.0715 33.6482 16.8194C29.4159 13.0111 25.1555 9.23694 20.8976 5.45753C20.8362 5.40763 20.7389 5.39712 20.5136 5.31308Z" fill="#444444"/>
<path d="M29.8666 28.2128C29.9486 30.1721 29.329 31.9265 28.4098 33.5785C26.5894 36.8511 24.0828 39.5195 21.2459 41.8649C20.9899 42.075 20.2679 42.054 20.0016 41.836C17.1621 39.4906 14.6632 36.8143 12.8428 33.547C10.3132 29.006 11.1607 23.6271 14.9218 20.6566C17.9251 18.2876 21.269 17.9146 24.6589 19.585C28.1205 21.2896 29.7822 24.2942 29.8666 28.2128ZM20.6494 38.2352C22.9306 36.0395 24.9943 33.7939 26.2386 30.9049C27.4548 28.0762 26.6739 24.9508 24.3824 23.1097C22.2317 21.3815 19.213 21.3421 17.006 23.0177C14.694 24.7722 13.8311 27.9134 14.9986 30.7683C16.2123 33.7256 18.322 35.9948 20.6494 38.2352Z" fill="#444444"/>
<path d="M22.9588 28.018C22.9819 29.4072 22.0294 30.4365 20.6955 30.4628C19.3487 30.489 18.3528 29.5096 18.3246 28.1336C18.299 26.755 19.2566 25.7125 20.5879 25.6784C21.9116 25.639 22.9358 26.6499 22.9588 28.018Z" fill="#444444"/>
</svg>
