<svg width="73" height="80" viewBox="0 0 73 80" fill="none" xmlns="http://www.w3.org/2000/svg">
<path d="M65.8727 55.224C66.0752 55.6632 66.4302 56.0805 66.4209 56.4886C66.4084 57.0741 66.1281 57.6503 65.963 58.2327C65.3931 58.0272 64.5615 57.9929 64.303 57.588C63.2752 55.9715 62.537 54.1713 61.475 52.586C60.8801 51.6983 59.98 50.8013 59.0144 50.4183C56.7221 49.5057 54.5014 51.0318 54.0218 53.6169C53.2961 57.5413 52.5735 61.4688 51.8665 65.3993C51.7014 66.315 51.499 67.2837 50.3061 67.0874C49.0883 66.8881 49.2503 65.8603 49.3998 64.9726C49.7206 63.0821 50.1223 61.204 50.384 59.3041C50.4681 58.6968 50.4276 57.8558 50.0725 57.4416C48.4342 55.5199 46.6963 53.6792 44.9148 51.8883C44.5691 51.5426 43.8807 51.4492 43.3357 51.4025C39.3584 51.0443 35.3748 50.7266 31.3944 50.3964C31.1889 50.3778 30.9802 50.3591 30.7746 50.331C29.9088 50.2127 29.1208 49.8109 29.4509 48.8641C29.6098 48.4031 30.5068 47.8923 31.0394 47.9204C34.5588 48.1104 38.0721 48.4436 41.5853 48.7302C42.7751 48.8267 43.9617 48.9544 45.1515 48.998C46.9392 49.0603 48.4716 47.9764 48.9668 46.3724C49.4807 44.7124 48.8983 43.018 47.4345 41.9871C47.0109 41.6912 46.5624 41.4203 46.0983 41.1929C45.1951 40.7537 44.8681 40.1215 44.9584 39.0719C45.1328 37.0131 44.4196 35.9542 42.6287 35.2098C41.9777 36.1379 41.3953 37.1221 40.6572 37.9724C39.9221 38.8196 39.0345 39.5297 38.0565 40.4485C39.4954 40.7288 40.7537 40.9655 42.012 41.2209C42.8934 41.4016 43.9181 41.5822 43.6845 42.8C43.4603 43.9711 42.5321 43.8652 41.5822 43.6783C38.4801 43.0679 35.353 42.582 32.2665 41.9061C29.8402 41.3735 27.6414 41.6912 25.5764 43.0492C25.1435 43.3326 24.7074 43.7624 24.2434 43.8091C23.717 43.859 22.8947 43.7032 22.6892 43.3513C22.4805 42.9931 22.6767 42.0401 23.0224 41.7753C25.5297 39.863 28.3016 38.7386 31.5657 39.2307C35.3593 39.8007 39.1435 37.3246 40.355 33.5342C39.0189 33.067 37.6547 32.6527 36.3497 32.1077C35.5088 31.7557 34.7114 31.1484 35.3437 30.077C35.9137 29.1115 36.6985 29.5382 37.5114 29.887C38.5174 30.3199 39.5982 30.5784 41.0745 31.0487C40.4173 29.0087 40.5575 27.5635 41.5043 26.1028C42.093 25.1902 41.3642 24.259 40.4111 23.879C39.2836 23.4274 39.0064 22.6581 39.0936 21.5555C39.159 20.7302 38.9379 19.8581 39.1372 19.0794C39.2681 18.5718 39.9221 18.1949 40.3426 17.762C40.7444 18.1606 41.2583 18.5001 41.5168 18.9798C41.7161 19.3504 41.5043 19.9266 41.6476 20.3533C41.875 21.0198 42.1023 21.7922 42.5851 22.2501C43.8776 23.471 44.7154 25.0127 43.9711 26.5544C42.9869 28.5944 43.5942 30.5878 43.3575 32.6029C45.9208 33.7927 47.4095 35.6708 47.5466 38.5206C47.5622 38.8507 47.8705 39.2587 48.1602 39.4705C52.9161 42.9495 52.9286 47.4033 48.0667 51.0817C49.0821 52.1655 50.0881 53.2369 51.281 54.5108C51.7762 50.7266 53.483 48.0979 57.3326 47.7117C61.0794 47.3348 63.1039 49.7112 64.4805 52.8383C65.2623 52.6545 65.9444 52.4053 66.6451 52.3431C70.638 51.9818 73.4536 55.8314 72.0116 59.8461C70.9869 62.7052 69.0216 64.9353 66.4832 66.5922C65.0661 67.5204 63.9822 67.4207 61.176 66.4365C61.0732 67.5951 60.9579 68.7257 60.8707 69.8563C60.3973 75.9359 55.7441 80.2216 49.6552 79.9911C42.3359 79.7139 36.1223 76.6149 30.7372 71.8714C28.3421 69.7629 26.3332 67.212 24.1748 64.8356C23.527 64.1224 23.1564 63.2721 24.1717 62.5807C25.1404 61.9235 25.6761 62.7052 26.19 63.3811C30.7559 69.3767 36.303 74.0797 43.6035 76.3782C45.3695 76.9357 47.2351 77.2752 49.079 77.4559C54.1993 77.9542 58.0209 74.5967 58.4009 69.4576C58.6625 65.8883 58.9958 62.3253 59.2698 58.7591C59.3384 57.8621 59.4941 56.9838 60.5966 57.0398C61.7989 57.1021 61.8207 58.0552 61.7771 59.002C61.7086 60.5188 61.0825 62.0668 62.1384 63.5213C62.9949 64.7017 64.1877 65.1159 65.3557 64.3155C67.4113 62.9077 68.9686 61.0452 69.7628 58.647C70.1522 57.4696 69.903 56.3609 68.9188 55.5448C68.0249 54.7973 67.0314 54.4734 65.8727 55.224Z" fill="#444444"/>
<path d="M0 21.4556C0.146385 10.7602 6.94861 2.50659 16.5758 0.450968C25.9942 -1.56105 35.6681 3.30703 39.7388 12.1088C39.935 12.5324 40.1032 12.9653 40.2776 13.3982C40.6078 14.2174 40.8258 15.077 39.7824 15.5068C38.7453 15.9335 38.3778 15.1424 37.9261 14.3731C36.699 12.2895 35.6619 9.99713 34.0485 8.25297C26.8943 0.528832 14.5606 0.637842 7.43137 8.32149C0.211791 16.1017 1.01535 28.37 9.26585 35.0134C11.8478 37.0908 14.6136 38.944 17.3264 40.8532C18.158 41.4387 18.541 42.0928 18.6127 43.1455C18.9677 48.4403 20.4378 53.4361 22.917 58.1266C23.3531 58.952 23.8078 59.8241 22.7582 60.4189C21.5715 61.0917 21.1168 60.0857 20.6745 59.2447C18.3386 54.794 16.7969 50.0848 16.3172 45.0734C16.1771 43.6096 15.6507 42.641 14.4049 41.8249C12.1095 40.3175 9.85762 38.7228 7.73037 36.9911C2.53215 32.7678 0.0685206 27.2051 0 21.4556Z" fill="#444444"/>
<path d="M18.2317 22.7607C19.1318 23.1002 20.1223 23.3089 20.9009 23.8322C21.2933 24.0969 21.3058 24.9285 21.4927 25.5047C20.9071 25.6542 20.2437 26.0622 19.7547 25.9096C17.7801 25.2867 16.7648 25.405 15.8896 26.6384C14.9272 27.9932 15.0424 29.9461 16.1574 31.248C17.3503 32.6371 18.9636 32.7461 20.3652 31.4473C21.0566 30.8088 21.7263 30.3728 22.4831 31.1794C23.2649 32.0141 22.642 32.7056 22.0564 33.3191C20.5147 34.9294 18.0853 35.3187 16.0453 34.3033C13.7935 33.1821 12.3857 30.4724 12.7563 27.959C13.1955 24.9534 15.3227 22.9819 18.2317 22.7607Z" fill="#444444"/>
<path d="M32.4554 26.2645C31.4868 25.7381 30.5213 25.3644 29.78 24.7353C29.4779 24.4767 29.4561 23.5424 29.6866 23.1281C29.8454 22.8385 30.811 22.6609 31.1442 22.8696C32.091 23.4583 32.8666 23.5206 33.8601 22.9599C34.2152 22.7606 35.1714 23.0067 35.3863 23.3462C35.6105 23.7012 35.4641 24.6605 35.1371 24.9159C34.4083 25.4859 33.4646 25.7818 32.4554 26.2645Z" fill="#444444"/>
</svg>
