<svg width="82" height="80" viewBox="0 0 82 80" fill="none" xmlns="http://www.w3.org/2000/svg">
<path d="M0 41.9058C0.845997 40.9624 1.84784 40.9151 3.01665 41.2267C6.74015 42.223 10.0824 43.9762 13.2215 46.1636C13.9172 46.6478 14.5489 47.196 13.9423 48.0866C13.3495 48.9576 12.6399 48.5875 11.8857 48.1645C9.50634 46.8315 7.09914 45.5486 4.6836 44.2851C4.16042 44.0124 3.55096 43.9039 2.61313 43.6033C2.97212 44.658 3.19754 45.4706 3.51757 46.2443C5.56856 51.2117 8.72991 55.4111 12.5675 59.1207C12.8792 59.4213 13.5248 59.4964 14.0063 59.4769C14.7243 59.4463 15.4367 59.2348 16.4135 59.0539C14.5294 57.1838 12.7957 55.464 11.0675 53.7442C10.7058 53.3852 10.2021 53.0679 10.0462 52.631C9.87368 52.1496 9.81802 51.3286 10.0991 51.0642C10.3913 50.786 11.2289 50.8166 11.6742 51.0336C12.228 51.3036 12.6232 51.8991 13.0823 52.3583C15.214 54.4872 17.2873 56.6857 19.508 58.7172C20.3206 59.4602 21.4783 59.8387 22.508 60.3257C22.6722 60.4036 22.9811 60.1726 23.5989 59.9472C21.7232 57.7181 19.9923 55.6421 18.2335 53.5883C17.7826 53.0624 17.2455 52.6115 16.7446 52.1273C16.1407 51.5401 15.7929 50.7776 16.5665 50.2461C16.9561 49.9789 17.9274 50.1041 18.3476 50.4242C19.291 51.1422 20.0563 52.0967 21.1861 53.2544C21.1861 52.4139 21.1945 51.9436 21.1861 51.4733C21.0692 45.2452 21.7844 39.1618 24.3809 33.418C24.8373 32.4078 25.3716 31.4226 25.9671 30.4904C26.8938 29.0377 28.2268 29.0433 29.1646 30.5043C31.2462 33.7519 32.4039 37.353 33.1247 41.1154C33.2388 41.7054 33.3445 42.2981 33.4753 42.9911C33.7536 42.8436 33.9957 42.7518 34.1989 42.6043C36.9122 40.5867 39.8871 39.1591 43.2127 38.455C45.6839 37.9318 46.2655 37.1498 46.2683 34.6146C46.2738 29.0488 46.2711 23.4831 46.2711 17.9173C46.2711 17.5054 46.2711 17.0935 46.2711 16.5175C43.1654 16.6232 41.5485 14.6557 40.1125 12.3877C39.5671 11.525 39.0968 10.704 39.6255 9.68829C40.1682 8.64749 41.1505 8.61131 42.1496 8.61966C43.3908 8.63079 44.6319 8.62244 46.0651 8.62244C45.4946 6.68555 44.9881 4.96016 44.4789 3.23756C43.8444 1.09195 44.6069 0.0288878 46.8694 0.0177562C51.4138 -0.00450687 55.9611 -0.00728976 60.5055 0.0177562C62.6539 0.0288878 63.447 1.12256 62.8626 3.16242C62.3673 4.89337 61.8636 6.62433 61.3348 8.46103C63.6112 9.01204 65.2392 10.1697 65.1474 12.691C65.0611 15.0704 63.4971 16.1696 61.3515 16.5676C61.3515 19.6371 61.3515 22.5925 61.3515 25.4728C63.1548 25.4728 64.9164 25.2947 66.6195 25.5313C67.9581 25.7177 69.2438 26.3717 70.5211 26.9004C71.3142 27.226 71.7595 27.9718 71.1695 28.6648C70.8634 29.0238 69.8504 29.1796 69.408 28.9486C67.4878 27.9468 65.5036 27.5015 63.3663 27.7659C61.2374 28.0303 61.179 28.1221 61.3849 30.4431C64.6047 29.3995 67.6353 29.5998 70.0035 32.2686C72.33 34.8901 72.4024 37.8594 70.8467 41.0292C71.4089 41.4076 71.9348 41.7611 72.5471 42.1701C74.2919 39.3566 74.4756 36.4875 73.3207 33.4931C73.1871 33.148 72.8866 32.7723 72.9506 32.4718C73.0508 31.9931 73.407 31.1777 73.624 31.1889C74.1639 31.2139 75.0461 31.5228 75.1518 31.8985C75.6917 33.8382 76.3541 35.8335 76.3401 37.8066C76.3262 39.4847 75.4246 41.1516 74.9793 42.838C74.8652 43.2777 74.7984 43.979 75.0461 44.2295C78.6917 47.9112 80.9486 52.2637 81.6193 57.4204C81.6471 57.6374 81.7528 57.8434 81.8224 58.0549C81.8224 59.5381 81.8224 61.0242 81.8224 62.5075C81.7417 62.7162 81.6248 62.9193 81.5887 63.1364C80.1249 72.4507 72.7001 79.3773 63.2967 79.8059C57.3275 80.0786 51.3303 80.0369 45.3555 79.8476C42.8119 79.7669 40.2934 78.9265 37.7582 78.4729C37.3129 78.3922 36.7564 78.3866 36.3723 78.5842C32.5737 80.535 28.8585 80.2985 25.2463 78.1612C24.4866 77.7132 24.0024 77.7549 23.2761 78.1946C20.2594 80.0313 16.9784 80.3625 13.6278 79.4219C6.84034 77.5184 3.64558 70.3385 7.09358 64.6364C7.97854 63.1726 9.34772 62.001 10.5471 60.6346C10.5638 60.6652 10.5165 60.5316 10.4275 60.4398C5.58804 55.5447 1.82557 50.0123 0 43.2972C0 42.8325 0 42.3677 0 41.9058ZM38.8213 76.5944C41.0086 76.9395 42.8648 77.4516 44.7293 77.485C50.6624 77.5935 56.5983 77.5768 62.5315 77.5128C69.753 77.4349 76.3318 72.498 78.5442 65.616C81.8753 55.2608 75.2353 43.6701 64.4489 41.0152C59.9851 39.916 58.9193 38.5552 58.9193 33.9411C58.9193 28.6564 58.9193 23.369 58.9193 18.0843C58.9193 17.5945 58.9193 17.1047 58.9193 16.6149C55.3961 16.6149 52.0901 16.6149 48.6866 16.6149C48.6866 17.2355 48.6866 17.7364 48.6866 18.2401C48.6866 23.7112 48.6894 29.1824 48.6838 34.6536C48.681 38.2602 47.2645 40.0329 43.747 40.787C40.3685 41.5106 37.4048 43.0328 34.7388 45.223C33.7481 46.0384 33.6924 46.8899 34.1043 48.0392C34.6302 47.5439 35.0532 47.1153 35.5041 46.7257C38.838 43.851 42.567 42.0783 47.1087 42.1868C51.834 42.3009 56.5677 42.2202 61.2959 42.2369C61.9415 42.2397 62.6094 42.223 63.23 42.3705C70.4404 44.0875 75.0878 48.529 77.2084 55.6226C77.4561 56.4463 77.5062 57.2589 76.4515 57.5122C75.4162 57.7599 75.1268 57.0029 74.8569 56.1959C74.4923 55.1022 74.1778 53.9584 73.6073 52.9705C70.6018 47.761 66.3579 44.5495 60.0408 44.6497C55.36 44.7248 50.6764 44.6497 45.9928 44.6525C45.3917 44.6525 44.7572 44.6135 44.1978 44.786C36.659 47.1265 33.1442 50.7832 33.2416 58.7701C39.0856 61.6114 41.8602 66.128 40.8695 72.9322C42.3138 73.1437 43.7136 73.511 45.1162 73.5277C50.8183 73.5945 56.5232 73.6362 62.2226 73.5305C68.5007 73.4136 73.5461 69.32 75.0461 63.3284C75.1797 62.7885 75.1491 62.1624 75.4246 61.7199C75.6695 61.3275 76.2706 60.8767 76.6518 60.9296C77.0303 60.9797 77.4449 61.5752 77.6286 62.0205C77.7678 62.3572 77.6036 62.8386 77.5201 63.2449C75.9728 70.678 69.767 75.818 62.1864 75.9043C58.2931 75.9488 54.3971 75.9488 50.5038 75.9071C46.9529 75.8681 43.3629 76.2939 39.8788 75.0277C39.5866 75.4701 39.3305 75.8431 38.8213 76.5944ZM29.1702 60.5316C25.3131 60.5539 22.3327 63.1364 21.7872 66.9295C20.9774 72.5565 26.4708 78.1696 32.1145 77.485C35.6432 77.0564 38.3482 74.3681 38.6766 70.9563C39.2081 65.4879 34.6581 60.5038 29.1702 60.5316ZM20.8744 62.4546C16.3328 59.9138 9.63992 62.719 8.34309 67.6586C7.51379 70.8144 8.81618 74.0091 11.7187 75.9321C14.9524 78.0749 19.5303 78.0554 22.3132 75.8347C19.0795 71.6854 18.2891 67.2328 20.8744 62.4546ZM27.6702 32.5497C27.3836 32.892 27.2806 32.9838 27.2166 33.1007C27.0385 33.4235 26.8604 33.7491 26.7101 34.0858C23.5349 41.1544 23.098 48.5624 24.0163 56.1263C24.0831 56.6829 24.4365 57.2534 24.79 57.7126C25.0822 58.091 25.5775 58.3137 25.981 58.6031C26.1146 58.155 26.3595 57.707 26.3651 57.2589C26.3957 53.0902 26.3845 48.9214 26.3818 44.7527C26.3818 43.8816 26.3873 42.9521 27.5812 42.9744C28.7695 42.9939 28.7416 43.9401 28.7416 44.8C28.7416 46.6979 28.7416 48.5986 28.7416 50.4965C28.7416 52.9872 28.7416 55.4807 28.7416 58.0771C29.4986 58.1133 30.1164 58.1439 30.8344 58.1801C32.1423 49.3027 31.8 40.8093 27.6702 32.5497ZM46.7525 2.44165C47.3258 4.35906 47.8323 6.17628 48.4417 7.96011C48.5419 8.25788 49.0929 8.5807 49.4408 8.58626C52.2598 8.63636 55.0817 8.63636 57.9007 8.58626C58.2569 8.5807 58.8247 8.25788 58.9248 7.96011C59.5204 6.17072 60.0046 4.34793 60.5556 2.44165C55.9305 2.44165 51.4556 2.44165 46.7525 2.44165ZM42.144 11.0269C43.1431 12.4962 43.7692 14.0129 45.5085 14.0352C50.7431 14.1019 55.9805 14.0769 61.2152 14.0574C62.2031 14.0546 62.7903 13.448 62.7569 12.4656C62.7235 11.55 62.1279 11.0324 61.2012 11.0296C54.9537 11.0213 48.7061 11.0269 42.144 11.0269ZM68.6455 39.7574C69.8171 37.7314 69.7725 35.7611 68.4562 34.1387C67.19 32.5775 65.5314 31.8595 63.5389 32.3744C62.5175 32.6387 61.3042 32.8085 61.268 34.3502C61.2179 36.5598 61.7912 37.7509 63.3969 38.2546C65.1112 38.7973 66.8477 39.2481 68.6455 39.7574Z" fill="#444444"/>
<path d="M27.9063 63.9294C27.9508 64.7531 25.9805 66.7346 25.154 66.6984C24.2384 66.6566 23.693 65.6604 24.2607 64.8951C24.7755 64.1993 25.4128 63.5648 26.1002 63.0389C26.8543 62.4628 27.8562 63.0055 27.9063 63.9294Z" fill="#444444"/>
<path d="M12.223 69.5788C12.223 69.9907 12.3705 70.4944 12.1868 70.7922C11.9391 71.1985 11.4605 71.6493 11.0347 71.6994C10.7063 71.7384 10.0523 71.2347 9.99387 70.8951C9.84081 70.0074 9.83803 69.0612 9.98552 68.1735C10.044 67.8228 10.684 67.2997 11.0152 67.3303C11.4382 67.372 11.9419 67.8173 12.1784 68.2263C12.3816 68.5798 12.2591 69.1197 12.2786 69.5761C12.2619 69.5761 12.2424 69.576 12.223 69.5788Z" fill="#444444"/>
</svg>
