<svg width="81" height="80" viewBox="0 0 81 80" fill="none" xmlns="http://www.w3.org/2000/svg">
<path d="M31.9304 0C32.1349 1.02596 32.5941 2.07704 32.4936 3.07071C32.1241 6.74409 33.0245 9.95471 35.1984 12.9537C36.7697 15.1204 38.0575 17.4988 39.3955 19.8305C39.765 20.4726 40.0305 21.269 40.0448 22.0008C40.1094 25.6419 40.0807 29.2866 40.07 32.9313C40.0664 33.8424 40.0951 34.8756 38.8108 34.8863C37.4871 34.8971 37.5876 33.8353 37.584 32.9384C37.5768 29.6525 37.6019 26.3665 37.5624 23.0842C37.5553 22.3918 37.5015 21.599 37.1714 21.0287C35.324 17.8252 33.3833 14.6792 31.2955 11.2174C30.456 12.5842 29.8318 13.8433 28.9852 14.9267C25.7101 19.113 24.7953 23.7658 24.8993 29.0857C25.1971 44.4321 25.0034 59.7857 25.0034 75.1392C25.0034 75.8459 25.0034 76.5526 25.0034 77.4889C26.0724 77.4889 27.0051 77.4746 27.9413 77.4925C29.9897 77.5248 30.3699 78.1812 29.4157 80C19.6296 80 9.8435 80 0 80C0 60.1516 0 40.2995 0 20.4511C0.265459 20.1534 0.498632 19.8233 0.796377 19.565C1.38469 19.0556 2.00529 18.5821 2.61154 18.0943C3.07789 18.6862 3.54782 19.2816 4.13972 20.035C7.02031 20.035 10.1269 19.9776 13.2263 20.0852C13.8146 20.1067 14.3778 20.7883 14.9518 21.1686C14.3814 21.6277 13.8541 22.3846 13.2263 22.4815C11.8847 22.686 10.4892 22.5461 9.11529 22.5461C6.93781 22.5461 4.76032 22.5461 2.65459 22.5461C2.65459 26.0401 2.65459 29.2292 2.65459 32.4003C9.33411 32.4003 15.8737 32.4003 22.4169 32.4003C22.4169 29.0642 22.4169 25.8679 22.4169 22.5246C21.165 22.5246 20.0099 22.6645 18.9157 22.4636C18.4028 22.3667 18.0082 21.6098 17.5633 21.1542C18.0189 20.7847 18.4279 20.2072 18.9409 20.0888C19.7372 19.9058 20.6125 20.1067 21.4376 20.0099C22.0941 19.9309 23.0411 19.852 23.3138 19.4251C25.2401 16.4333 27.023 13.3519 28.8992 10.2166C28.5297 10.1161 28.3718 10.0336 28.2104 10.0336C22.295 10.0265 16.3795 9.99417 10.4677 10.0659C9.91525 10.0731 9.39509 10.769 8.81037 11.0417C8.19694 11.3286 7.52253 11.4865 6.87323 11.6981C6.81225 11.056 6.62212 10.3959 6.71898 9.77893C6.89117 8.69557 7.37904 7.65167 7.4759 6.56832C7.61221 5.02578 7.44002 3.45814 7.54406 1.91202C7.59069 1.26272 8.00682 0.638536 8.25434 0C16.1464 0 24.0384 0 31.9304 0ZM22.442 35.1303C15.7697 35.1303 9.20138 35.1303 2.65818 35.1303C2.65818 45.1531 2.65818 55.0218 2.65818 64.8258C9.3377 64.8258 15.8737 64.8258 22.442 64.8258C22.442 54.8675 22.442 45.0455 22.442 35.1303ZM2.65818 67.5414C2.65818 70.9349 2.65818 74.1778 2.65818 77.3454C9.34487 77.3454 15.8881 77.3454 22.4169 77.3454C22.4169 74.0092 22.4169 70.8094 22.4169 67.5414C15.7876 67.5414 9.28748 67.5414 2.65818 67.5414ZM29.9215 2.62948C23.2205 2.62948 16.6809 2.62948 10.1161 2.62948C10.1161 4.27245 10.1161 5.80064 10.1161 7.41491C16.7454 7.41491 23.2779 7.41491 29.9215 7.41491C29.9215 5.80064 29.9215 4.27604 29.9215 2.62948Z" fill="#444444"/>
<path d="M40.8989 79.9965C38.42 79.1822 35.848 78.5616 33.4875 77.4854C31.6724 76.6604 30.1083 75.2757 28.4438 74.1206C27.5147 73.4749 27.364 72.6354 27.8232 71.6131C28.2393 70.6875 28.4833 69.6759 28.9819 68.8042C29.2976 68.2518 29.8644 67.7137 30.4455 67.4733C32.3181 66.6985 32.8275 65.3604 31.9952 63.4663C31.719 62.8386 31.6257 61.9489 31.8445 61.3211C32.9315 58.2253 34.1655 55.1797 35.3206 52.109C35.7762 50.9001 36.4183 50.3154 37.7528 51.0077C39.2487 51.7826 40.1455 50.9467 40.7374 49.684C41.3975 48.2742 40.9778 46.8967 39.5895 46.4267C38.0757 45.9173 38.0075 45.0923 38.5097 43.826C39.8083 40.5508 41.0926 37.272 42.3122 33.9681C42.6746 32.9816 43.227 32.5153 44.2745 32.526C46.904 32.5511 49.537 32.465 52.1593 32.5978C52.7405 32.6265 53.4866 33.2686 53.8095 33.8282C54.3942 34.8542 54.6776 36.0451 55.1619 37.1357C55.7825 38.5347 56.1053 39.7006 54.5449 40.8844C53.9996 41.3005 53.8561 42.8287 54.161 43.6C54.4121 44.2385 55.5529 44.7371 56.3744 44.8806C57.2533 45.0349 58.3223 44.712 58.4335 45.9711C58.5555 47.3343 57.4147 47.3845 56.4533 47.4635C54.5521 47.6213 53.0454 46.8967 52.0732 45.2501C50.9791 43.3955 50.8069 41.3579 52.2024 39.7078C53.5333 38.1329 52.3889 36.9886 51.8652 35.8407C51.6284 35.3241 50.441 35.1017 49.6518 35.0156C48.4214 34.8829 47.1694 34.9797 45.5946 34.9797C46.556 37.5016 47.4205 39.758 48.2815 42.0144C48.7299 43.1874 49.3039 44.3282 49.5693 45.5407C49.6949 46.1075 49.2213 46.8034 49.0205 47.4419C48.4465 47.0868 47.5676 46.8644 47.3452 46.355C46.2654 43.8977 45.3686 41.3615 44.3965 38.8576C44.253 38.4881 44.0557 38.1401 43.7077 37.4119C42.7535 39.8764 41.9284 42 41.1284 44.0699C43.5463 46.3263 44.0592 48.0625 43.1086 50.4983C42.1723 52.8982 40.6549 53.813 37.3726 53.8237C36.3896 56.3994 35.3565 59.0504 34.3843 61.7229C34.2624 62.0529 34.4059 62.5229 34.5278 62.8924C35.4856 65.8232 34.6319 68.119 32.0239 69.5719C30.1191 70.6337 29.9433 72.3054 31.6724 73.5179C36.8416 77.1446 42.5024 78.35 48.6833 76.8648C49.2034 76.7393 49.7523 76.4093 50.2294 76.4953C50.832 76.6066 51.3737 77.0514 51.9405 77.3527C51.6069 77.8549 51.3809 78.6334 50.9253 78.8056C49.5478 79.3293 48.077 79.6163 46.6457 79.9965C44.7265 79.9965 42.8109 79.9965 40.8989 79.9965Z" fill="#444444"/>
<path d="M64.5748 0C64.7039 2.71916 64.8869 5.43832 64.9299 8.16107C64.9479 9.29465 65.0878 10.091 66.1676 10.8192C67.7352 11.8739 67.7244 14.2343 66.3649 15.9347C65.9559 16.4441 65.425 16.8566 65.0124 17.3624C63.8609 18.7687 63.9183 19.6332 65.2707 20.8744C68.1262 23.4967 69.823 26.693 69.9163 30.5959C69.9306 31.2094 69.1952 31.8371 68.8042 32.4613C68.3558 31.8766 67.5774 31.3242 67.52 30.7036C67.2258 27.5073 65.9595 24.8635 63.5811 22.729C61.1633 20.5587 61.0557 17.9723 63.269 15.5473C63.7103 15.063 64.2627 14.6505 64.5856 14.1016C65.077 13.2658 64.9443 12.5411 63.7712 12.5447C58.5769 12.5483 53.3861 12.5806 48.1917 12.6093C48.0876 12.6093 47.9836 12.7169 47.5424 12.9573C47.9011 13.6173 48.145 14.3886 48.6437 14.9159C51.5996 18.044 51.4633 20.0314 48.5504 23.1667C47.1801 24.6446 46.4375 26.693 45.3219 28.4256C44.938 29.0211 44.2206 29.8964 43.7506 29.8426C42.5381 29.6955 42.7282 28.6552 42.9794 27.7297C43.6825 25.1253 45.0205 22.912 46.9971 21.0789C48.7298 19.4718 48.7334 18.6754 47.1227 16.9356C46.5236 16.2899 45.8958 15.6083 45.5156 14.8298C44.7192 13.1869 45.2142 11.6945 46.563 10.5179C47.015 10.1233 47.3953 9.40227 47.424 8.81395C47.5244 6.66876 47.4097 4.5128 47.4922 2.36761C47.5209 1.57123 47.8724 0.789202 48.0733 0.00358728C53.5726 0 59.0755 0 64.5748 0ZM62.3937 2.63307C58.1858 2.63307 54.1573 2.63307 50.0822 2.63307C50.0822 5.11547 50.0822 7.47231 50.0822 9.86862C54.2578 9.86862 58.3258 9.86862 62.3686 9.86862C62.3686 9.0256 62.3686 8.33685 62.3686 7.50818C59.7033 7.50818 57.1455 7.50101 54.5878 7.51177C53.6551 7.51536 52.604 7.51894 52.5753 6.30286C52.5431 4.94328 53.6659 4.98991 54.6524 4.9935C57.2065 5.00067 59.7571 4.99709 62.3937 4.99709C62.3937 4.11103 62.3937 3.41868 62.3937 2.63307Z" fill="#444444"/>
<path d="M79.9997 52.0158C79.2141 52.2382 78.4285 52.4606 77.4205 52.744C77.2339 54.4982 77.0115 56.3779 76.8393 58.2612C76.7568 59.1616 76.5739 60.1446 75.4869 59.8612C74.9919 59.732 74.4359 58.6809 74.4323 58.046C74.4215 56.2739 74.687 54.5018 74.852 52.6005C68.2729 52.6005 61.8588 52.6005 55.1363 52.6005C55.886 60.8835 56.6322 69.102 57.3819 77.3958C62.4579 77.3958 67.3976 77.3958 72.5776 77.3958C72.7821 75.3116 72.9794 73.2023 73.1947 71.0894C73.2843 70.1997 73.3023 69.2814 73.557 68.4384C73.6753 68.0438 74.3569 67.4877 74.6583 67.5559C75.1139 67.6599 75.8205 68.2698 75.7954 68.6213C75.5443 72.1871 75.1784 75.7421 74.8053 79.3006C74.7802 79.5482 74.4502 79.7634 74.2601 79.993C68.0433 79.993 61.823 79.993 55.6062 79.993C55.2618 78.0882 54.7883 76.1941 54.5982 74.2713C53.9274 67.5021 53.3462 60.7257 52.7543 53.9493C52.6826 53.1135 52.6288 52.4965 51.5059 52.4104C50.9894 52.3709 50.523 51.6499 50.0352 51.2373C50.5804 50.814 51.1113 50.0571 51.6745 50.0284C54.3542 49.8993 57.0447 49.9674 59.7316 49.9674C65.6434 49.9674 71.5517 49.9423 77.4635 49.9961C78.3101 50.0033 79.1567 50.3764 80.0033 50.5773C79.9997 51.058 79.9997 51.5387 79.9997 52.0158Z" fill="#444444"/>
<path d="M48.7561 58.688C48.7991 60.722 47.1131 62.4439 45.0576 62.4654C42.9913 62.4906 41.2874 60.8404 41.2658 58.7921C41.2443 56.7473 42.9196 55.0075 44.95 54.9716C46.9481 54.9322 48.713 56.6576 48.7561 58.688ZM44.8926 60.5391C45.5383 59.6781 46.1948 59.1795 46.1409 58.7741C46.08 58.3078 45.4522 57.7195 44.9571 57.5796C44.6881 57.5042 43.9061 58.2289 43.8702 58.6378C43.8272 59.1006 44.3617 59.6171 44.8926 60.5391Z" fill="#444444"/>
<path d="M38.6632 74.9636C36.5683 74.9205 34.954 73.2166 35.0257 71.118C35.0903 69.1307 36.7656 67.4949 38.7458 67.4841C40.7762 67.4697 42.5016 69.2275 42.4765 71.2866C42.4442 73.3888 40.769 75.0066 38.6632 74.9636ZM36.97 71.1216C37.8131 71.7637 38.2973 72.413 38.7099 72.3736C39.1547 72.3269 39.761 71.6848 39.8614 71.2077C39.9296 70.8956 39.248 70.1208 38.8641 70.0921C38.3978 70.0526 37.8848 70.5871 36.97 71.1216Z" fill="#444444"/>
<path d="M44.9805 67.4913C44.9841 65.6008 46.6127 63.7892 48.4063 63.8609C48.9229 63.8825 49.4144 64.4206 49.9202 64.7219C49.6009 65.2134 49.3283 65.7479 48.948 66.1891C48.5283 66.677 48.0081 67.0787 47.5346 67.5164C48.0189 67.9505 48.5498 68.3451 48.9731 68.8329C49.3462 69.267 49.6009 69.8051 49.9094 70.2965C49.4036 70.605 48.905 71.1611 48.392 71.1718C46.6235 71.2113 44.9769 69.3423 44.9805 67.4913Z" fill="#444444"/>
<path d="M69.9659 43.7147C69.9659 44.5506 70.0915 45.4151 69.9193 46.2151C69.8224 46.6671 69.1767 47.3774 68.8861 47.3307C68.3803 47.2446 67.6055 46.6958 67.5696 46.2797C67.4154 44.6223 67.4118 42.9327 67.5589 41.2718C67.5983 40.8377 68.3768 40.4683 68.8144 40.0701C69.2018 40.5077 69.7937 40.8951 69.93 41.401C70.1238 42.1256 69.9803 42.9435 69.9803 43.7183C69.9695 43.7148 69.9659 43.7147 69.9659 43.7147Z" fill="#444444"/>
<path d="M70.5838 36.3321C69.6296 36.8666 69.1166 37.3832 68.6539 37.3437C68.2485 37.3114 67.5239 36.5366 67.5992 36.2926C67.7499 35.8048 68.3167 35.1842 68.7758 35.1232C69.1848 35.073 69.687 35.7007 70.5838 36.3321Z" fill="#444444"/>
<path d="M76.5802 63.6744C75.9417 64.2305 75.4968 64.8977 75.1561 64.851C74.6754 64.7829 74.27 64.1802 73.8359 63.8071C74.2341 63.3838 74.5749 62.7381 75.0556 62.609C75.3713 62.5193 75.8914 63.165 76.5802 63.6744Z" fill="#444444"/>
<path d="M5.02872 16.6129C4.48704 15.9277 3.85209 15.4578 3.91666 15.1206C4.00634 14.6327 4.60542 14.2381 4.98567 13.8041C5.37669 14.2274 5.98294 14.604 6.09055 15.0883C6.1623 15.4255 5.54529 15.9134 5.02872 16.6129Z" fill="#444444"/>
<path d="M12.1469 43.3918C10.7227 45.9101 9.10844 48.3422 7.92464 50.9717C6.65833 53.777 8.60981 56.8728 11.6733 57.4073C11.9675 57.4575 12.3693 57.3535 12.5451 57.5149C12.9791 57.9095 13.5172 58.383 13.6069 58.896C13.6571 59.1722 12.9038 59.8359 12.4554 59.9005C11.7236 60.0045 10.8949 59.8933 10.1882 59.6458C5.85836 58.1248 3.79209 53.655 5.83684 49.5368C7.33991 46.5127 9.37031 43.7469 11.2142 40.8986C11.9101 39.826 12.9253 39.6108 13.6679 40.7551C15.6732 43.8474 17.5637 47.0185 19.4829 50.1682C19.6335 50.4157 19.6945 50.7242 19.7627 51.0148C20.0138 52.0658 20.4622 53.3357 18.9555 53.6693C17.6067 53.9707 17.7574 52.6039 17.3556 51.7932C15.9458 48.9413 14.4069 46.1504 12.9181 43.338C12.6634 43.3523 12.4052 43.3703 12.1469 43.3918Z" fill="#444444"/>
<path d="M19.2847 57.5472C18.3771 58.1175 17.8247 58.7274 17.4229 58.6413C16.9709 58.5444 16.44 57.8557 16.3539 57.3534C16.3036 57.0736 17.0857 56.3669 17.4946 56.3669C17.9574 56.3669 18.4201 56.9409 19.2847 57.5472Z" fill="#444444"/>
</svg>
