<svg width="18" height="20" viewBox="0 0 18 20" fill="none" xmlns="http://www.w3.org/2000/svg">
<g clip-path="url(#clip0_1676_12263)">
<path d="M9.35156 4.72607C9.15752 4.72607 9 4.8904 9 5.09284C9 5.29528 9.15752 5.45961 9.35156 5.45961C9.54561 5.45961 9.70312 5.29528 9.70312 5.09284C9.70312 4.8904 9.54561 4.72607 9.35156 4.72607Z" fill="white" stroke="white" stroke-width="0.3"/>
<path d="M3.16406 11.7316C3.35811 11.7316 3.51562 11.5673 3.51562 11.3648C3.51562 11.1624 3.35811 10.998 3.16406 10.998C2.97002 10.998 2.8125 11.1624 2.8125 11.3648C2.8125 11.5673 2.97002 11.7316 3.16406 11.7316Z" fill="white" stroke="white" stroke-width="0.3"/>
<path d="M11.8125 1.58984C8.64748 1.58984 6.04976 3.87232 5.84885 6.74732C2.83461 6.90547 0 9.1789 0 12.2538C0 13.5389 0.486145 14.784 1.37109 15.7705C1.54619 16.5255 1.3336 17.3257 0.806122 17.8774C0.705597 17.9826 0.675522 18.1407 0.729904 18.2782C0.784286 18.4155 0.912415 18.5052 1.05469 18.5052C2.05733 18.5052 3.02357 18.0939 3.74153 17.3692C4.44095 17.6186 5.3535 17.7697 6.1875 17.7697C9.35211 17.7697 11.9496 15.4878 12.151 12.6134C12.8871 12.5792 13.6527 12.437 14.2585 12.2211C14.9764 12.9458 15.9427 13.357 16.9453 13.357C17.0876 13.357 17.2157 13.2674 17.2701 13.1301C17.3245 12.9926 17.2944 12.8345 17.1939 12.7293C16.6664 12.1776 16.4538 11.3773 16.6289 10.6224C17.5139 9.63582 18 8.39073 18 7.10571C18 3.91067 14.947 1.58984 11.8125 1.58984ZM6.1875 17.0343C5.35776 17.0343 4.41225 16.8639 3.77888 16.6003C3.6432 16.5437 3.48816 16.5809 3.38942 16.6937C2.96494 17.1791 2.41301 17.5175 1.81165 17.673C2.14302 17.009 2.22762 16.2261 2.02602 15.4844C2.01009 15.4259 1.98056 15.3725 1.94005 15.3289C1.14244 14.4697 0.703125 13.3776 0.703125 12.2538C0.703125 9.66254 3.2146 7.47343 6.1875 7.47343C8.99478 7.47343 11.4609 9.51531 11.4609 12.2538C11.4609 14.8898 9.09531 17.0343 6.1875 17.0343V17.0343ZM16.06 10.1808C16.0194 10.2245 15.9899 10.2779 15.974 10.3362C15.7724 11.078 15.857 11.8608 16.1884 12.5249C15.587 12.3695 15.0351 12.0309 14.6106 11.5455C14.5118 11.4329 14.3568 11.3956 14.2211 11.4522C13.6722 11.6806 12.8892 11.8387 12.1499 11.8769C12.0472 10.4863 11.384 9.17933 10.2502 8.20888H14.8359C15.0301 8.20888 15.1875 8.04427 15.1875 7.84116C15.1875 7.63805 15.0301 7.47343 14.8359 7.47343H9.17015C8.37213 7.04854 7.47606 6.80076 6.55376 6.74876C6.75577 4.27897 9.03722 2.32529 11.8125 2.32529C14.7854 2.32529 17.2969 4.5144 17.2969 7.10571C17.2969 8.22942 16.8576 9.32154 16.06 10.1808V10.1808Z" fill="white" stroke="white" stroke-width="0.3"/>
<path d="M9 10.998H4.57031C4.37613 10.998 4.21875 11.1622 4.21875 11.3648C4.21875 11.5674 4.37613 11.7316 4.57031 11.7316H9C9.19418 11.7316 9.35156 11.5674 9.35156 11.3648C9.35156 11.1622 9.19418 10.998 9 10.998Z" fill="white" stroke="white" stroke-width="0.3"/>
<path d="M9.1875 13.0889H3.35156C3.15738 13.0889 3 13.2531 3 13.4556C3 13.6582 3.15738 13.8224 3.35156 13.8224H9.1875C9.38168 13.8224 9.53906 13.6582 9.53906 13.4556C9.53906 13.2531 9.38168 13.0889 9.1875 13.0889Z" fill="white" stroke="white" stroke-width="0.3"/>
<path d="M14.7812 4.72607H10.3516C10.1574 4.72607 10 4.89026 10 5.09284C10 5.29543 10.1574 5.45961 10.3516 5.45961H14.7812C14.9754 5.45961 15.1328 5.29543 15.1328 5.09284C15.1328 4.89026 14.9754 4.72607 14.7812 4.72607Z" fill="white" stroke="white" stroke-width="0.3"/>
</g>
<defs>
<clipPath id="clip0_1676_12263">
<rect width="18" height="18.8275" fill="white" transform="translate(0 0.544434)"/>
</clipPath>
</defs>
</svg>
