<svg width="74" height="80" viewBox="0 0 74 80" fill="none" xmlns="http://www.w3.org/2000/svg">
<path d="M30.5526 80.0003C27.1464 79.2101 24.1452 77.6788 21.598 75.2444C18.1133 71.9144 15.6544 67.8997 13.5931 63.5929C13.2593 62.8935 12.7342 62.2113 12.1354 61.723C9.37465 59.4751 7.0679 56.8665 5.3771 53.723C4.98201 52.9892 4.65563 52.2015 5.55133 51.6862C6.50594 51.1365 7.00164 51.8187 7.44581 52.6113C11.5268 59.9095 18.1059 63.6469 25.971 65.5119C27.1808 65.799 28.3219 65.5217 29.2961 64.6825C30.5624 63.5905 30.5403 62.9917 29.1955 62.069C28.69 61.723 28.1526 61.3941 27.7354 60.9573C27.1734 60.3684 26.6139 60.1941 25.7894 60.3414C25.3084 60.4273 24.6605 60.1794 24.236 59.8751C22.2777 58.4665 21.0213 56.5254 20.2974 54.2481C19.3747 51.3426 19.2569 48.3586 19.8679 45.399C20.1256 44.1524 20.798 42.977 21.3648 41.8113C21.7182 41.0849 22.3906 40.8224 23.1072 41.2935C23.7722 41.7303 23.7428 42.361 23.3452 43.0162C23.0556 43.4923 22.8127 43.9978 22.501 44.5794C23.3967 44.869 24.1599 45.1684 24.9477 45.3426C25.225 45.404 25.701 45.2641 25.8654 45.0481C28.7931 41.188 32.8593 39.723 37.4998 39.426C37.6986 39.4138 37.8974 39.3622 38.2409 39.3058C37.9391 38.1082 37.647 36.9475 37.3256 35.6714C34.3759 38.0763 30.8986 38.5009 27.3624 38.707C25.0041 38.8444 23.7256 37.6493 23.7182 35.3156C23.7035 31.1046 23.7035 26.8911 23.7182 22.68C23.7256 20.4003 24.8912 19.2469 27.1366 19.3426C28.5231 19.4015 29.9194 19.4825 31.2839 19.723C34.901 20.361 37.9759 21.8408 39.463 25.6273C40.052 24.9181 40.528 24.3095 41.0409 23.7352C41.5661 23.1463 42.2188 22.9082 42.8618 23.4947C43.5096 24.0886 43.2986 24.7168 42.7636 25.3156C39.0335 29.4947 38.6998 34.2579 40.901 39.1266C41.5955 40.6604 43.2716 41.9021 44.7538 42.9009C48.4201 45.3671 52.6139 45.7328 56.8937 45.3107C61.674 44.8395 66.1133 43.2174 70.4127 41.1487C71.2127 40.7635 71.5366 40.2653 71.5268 39.3573C71.4434 31.5929 68.344 25.188 62.7882 19.9046C61.5489 18.7266 60.1526 17.7131 58.8176 16.6383C58.2139 16.1524 57.8041 15.5978 58.3244 14.8665C58.8299 14.1573 59.5145 14.253 60.155 14.7168C68.6213 20.842 73.7845 28.7757 73.8262 39.5561C73.8336 41.3401 73.1317 42.442 71.5366 43.2125C65.9145 45.9217 60.0937 47.8874 53.7771 47.799C48.5599 47.7279 43.9121 46.069 40.155 42.2874C39.9121 42.0444 39.5587 41.7573 39.2544 41.7524C35.0704 41.7009 31.2102 42.55 28.2556 45.8383C27.7501 46.4003 27.6299 46.8763 27.8974 47.6714C28.1722 48.4813 27.998 49.4383 28.0348 50.3291C28.0642 51.0236 28.1084 51.7156 28.1722 52.4076C28.1894 52.5941 28.3047 52.7733 28.3808 52.9696C28.5452 52.9156 28.6851 52.9107 28.7685 52.8395C31.3869 50.599 34.474 49.7696 37.8532 49.75C38.452 49.7475 39.0483 49.4947 39.6495 49.3794C40.9501 49.1316 41.9587 49.8432 42.0446 51.1659C42.1992 53.5193 41.9023 55.8187 40.9992 58.015C40.6875 58.7733 40.2875 59.5217 39.2986 59.134C38.3219 58.7512 38.5697 57.9635 38.7882 57.161C39.1513 55.8285 39.4237 54.469 39.6937 53.1144C39.7697 52.7365 39.7059 52.3291 39.7059 51.9119C38.1378 52.0493 36.7194 52.1794 35.3035 52.2923C32.9207 52.4837 31.2421 54.0984 29.3256 55.2346C29.2912 55.2543 29.2323 55.2714 29.225 55.3009C29.1759 55.4874 29.0335 55.7598 29.1072 55.8506C30.0274 56.9892 28.1722 58.5696 29.755 59.6199C30.9599 60.4199 32.3931 61.053 32.6016 62.9328C33.6029 62.4101 34.4814 61.9929 35.3182 61.5021C36.0201 61.0898 36.6704 61.0236 37.1342 61.75C37.6078 62.496 37.2397 63.1193 36.5526 63.4849C35.1955 64.2064 33.8041 64.8641 32.3415 65.588C33.6888 67.8948 33.6937 70.4739 33.6151 73.1193C33.5832 74.1917 34.0348 75.3647 34.5501 76.3438C35.5072 78.1671 35.4311 78.8739 33.7354 79.9929C32.6777 80.0003 31.6151 80.0003 30.5526 80.0003ZM26.0912 31.6788C26.0912 33.0653 26.101 34.2481 26.0863 35.4285C26.0789 36.1058 26.3881 36.3806 27.0581 36.361C29.5685 36.2874 32.0372 36.0199 34.317 34.8616C36.6581 33.6714 37.5612 31.6273 37.5906 29.1217C37.6176 26.6334 36.8937 24.3904 34.5059 23.3033C32.8299 22.5426 30.9575 22.0862 29.1268 21.8285C25.8311 21.3696 25.5955 21.7303 26.2581 25.2616C27.0728 25.2616 27.9219 25.2763 28.7685 25.2567C29.6372 25.2395 30.3857 25.426 30.3587 26.4763C30.3342 27.4579 29.5832 27.6052 28.7857 27.6027C27.9072 27.6027 27.0311 27.6027 26.1722 27.6027C26.1722 28.3046 26.1722 28.7757 26.1722 29.3696C26.6949 29.3696 27.1366 29.3696 27.5783 29.3696C29.2544 29.372 30.9354 29.3009 32.6016 29.4309C33.0213 29.4628 33.3894 30.1352 33.782 30.5131C33.3918 30.896 33.0434 31.3426 32.5943 31.6371C32.3636 31.7892 31.9563 31.6739 31.6299 31.6739C29.8458 31.6788 28.0544 31.6788 26.0912 31.6788ZM30.5158 66.7365C28.2704 68.2334 26.209 68.2211 24.1084 67.4825C22.074 66.7684 20.052 66.015 18.025 65.2788C17.7084 65.1635 17.3967 65.0432 16.9747 64.8862C20.3268 71.8776 26.5305 77.9537 32.4569 77.507C30.9182 75.1954 31.3845 72.6359 31.2716 70.1377C31.2201 69.08 30.8151 68.0346 30.5158 66.7365ZM21.7329 46.8174C21.944 49.0236 21.998 50.9401 22.3464 52.7978C22.6875 54.6211 23.5734 56.2678 25.0385 57.4751C25.3943 57.7696 26.0421 57.7082 26.555 57.8113C26.6434 57.3475 26.9207 56.8224 26.7931 56.4297C26.0078 54.0052 25.4581 51.5708 25.6937 48.9892C25.7256 48.6408 25.355 48.0592 25.0262 47.9095C24.1084 47.5021 23.1145 47.2616 21.7329 46.8174Z" fill="#444444"/>
<path d="M29.3255 0C30.3587 0.768098 31.4875 1.43804 32.4053 2.32638C34.1673 4.02945 35.7673 5.89939 37.5268 7.60491C37.9857 8.04908 38.7783 8.36319 39.4213 8.37055C44.5427 8.42209 49.5145 9.1681 54.2262 11.2761C54.263 11.2933 54.3022 11.3055 54.3415 11.3202C55.1366 11.6491 55.9562 12.054 55.5292 13.092C55.0973 14.1448 54.2605 13.7693 53.4458 13.4994C51.2814 12.7804 49.139 11.8552 46.9108 11.4871C34.3096 9.39878 22.8887 12.2037 13.193 20.611C5.31572 27.443 3.00406 36.2847 5.13903 46.3828C5.19793 46.6626 5.38934 46.9988 5.29609 47.2098C5.07523 47.7031 4.72185 48.1374 4.42001 48.5963C3.96603 48.2847 3.19793 48.0417 3.11449 47.6515C2.68259 45.6196 2.21388 43.5583 2.15989 41.4945C2.08627 38.7902 1.7378 36.2307 0.905902 33.6147C-1.18735 27.0258 0.471546 21.0331 4.59915 15.6515C8.16725 10.9988 12.7562 7.52884 17.8311 4.71902C20.9255 3.00123 24.1771 1.56319 27.3624 0C28.0151 0 28.6703 0 29.3255 0ZM2.95989 32.3632C6.08382 22.3779 12.9942 16.3804 21.4581 12.4172C21.5636 11.4773 21.4335 10.6675 21.7673 10.1669C22.209 9.5043 23.0188 9.77424 23.4433 10.3436C24.4298 11.6638 25.355 10.9055 26.4495 10.4221C25.8311 9.8773 25.3231 9.41105 24.7955 8.96687C24.2188 8.48098 23.9587 7.89448 24.4642 7.26381C24.9967 6.59878 25.6789 6.67485 26.3022 7.18037C27.0949 7.82332 27.8458 8.51779 28.6507 9.14356C28.9476 9.37424 29.3771 9.65399 29.6985 9.60246C31.4581 9.32516 33.2053 8.9546 35.1906 8.56933C33.2225 6.54479 31.4433 4.58896 29.4998 2.80736C29.0728 2.41472 27.966 2.38037 27.355 2.62822C21.539 4.99877 16.0789 8.00982 11.2617 12.0785C8.01511 14.8221 5.23474 17.9607 3.60774 21.9607C2.28504 25.2147 1.93903 28.5522 2.95989 32.3632Z" fill="#444444"/>
<path d="M57.8879 30.6924C55.483 30.7145 53.5935 28.8617 53.5763 26.4691C53.5591 24.101 55.4511 22.155 57.7971 22.1255C60.126 22.0985 62.099 24.0323 62.1309 26.3783C62.1652 28.7415 60.2659 30.6703 57.8879 30.6924ZM59.7702 26.3856C59.7505 25.3083 58.8597 24.4838 57.7603 24.5231C56.7419 24.5599 55.883 25.4237 55.8781 26.42C55.8732 27.4286 56.8401 28.3832 57.8585 28.3734C58.9113 28.3636 59.7898 27.4482 59.7702 26.3856Z" fill="#444444"/>
</svg>
