<svg width="40" height="42" viewBox="0 0 40 42" fill="none" xmlns="http://www.w3.org/2000/svg">
<path d="M39.3652 19.462C38.9945 17.8418 38.1985 16.4142 37.099 15.3977C35.9994 14.3812 34.6569 13.8318 33.2768 13.8335H24.8522V7.23762C24.8522 5.54367 24.3 3.9191 23.3172 2.7213C22.3344 1.5235 21.0015 0.850586 19.6116 0.850586H17.3747C16.9959 0.85349 16.6334 1.03893 16.3664 1.36641C16.0994 1.69389 15.9495 2.13682 15.9495 2.5985V8.79865C15.9008 11.8087 14.988 14.7028 13.3698 16.9776L10.3121 20.7482L12.3506 23.1997L15.4444 19.3631C15.4731 19.3356 15.4975 19.3021 15.5166 19.2641C17.5916 16.3575 18.7576 12.651 18.8088 8.79865V4.37939H19.6116C20.2431 4.37939 20.8488 4.68516 21.2954 5.22943C21.742 5.77369 21.9929 6.51188 21.9929 7.28159V15.5814C21.9952 16.0431 22.1474 16.4849 22.4161 16.8103C22.6848 17.1357 23.0482 17.3184 23.427 17.3183H33.2768C34.0379 17.3214 34.7772 17.6284 35.3815 18.1922C35.9859 18.7561 36.422 19.5458 36.6231 20.4404C36.7279 20.9231 36.7279 21.4308 36.6231 21.9135L34.5666 34.4347C34.5035 34.8744 34.314 36.2376 32.023 36.2376H11.1148V39.7114H32.041C35.0266 39.7114 36.9839 38.0075 37.3898 35.0613L39.4283 22.639C39.6345 21.5914 39.6128 20.4963 39.3652 19.462Z" fill="#444444"/>
<path d="M11.1845 14.9429H1.42512C1.04716 14.9429 0.684671 15.1259 0.417408 15.4516C0.150146 15.7773 0 16.2191 0 16.6798V40.2382C0 40.6988 0.150146 41.1406 0.417408 41.4663C0.684671 41.7921 1.04716 41.9751 1.42512 41.9751H11.1845C11.5633 41.9751 11.9267 41.7924 12.1954 41.467C12.4641 41.1416 12.6163 40.6998 12.6187 40.2382V16.6798C12.6163 16.2181 12.4641 15.7764 12.1954 15.4509C11.9267 15.1255 11.5633 14.9429 11.1845 14.9429ZM9.75939 38.4902H2.85926V18.4167H9.75939V38.4902Z" fill="#444444"/>
</svg>
