<svg width="27" height="30" viewBox="0 0 27 30" fill="none" xmlns="http://www.w3.org/2000/svg">
<path d="M24.8462 16.6718C26.0151 15.4381 26.6754 13.7199 26.6709 11.9238C26.605 10.5671 26.1511 9.26979 25.376 8.22249C24.2608 6.89334 23.0359 5.68455 21.7175 4.61218C21.6768 4.57678 21.6405 4.54644 21.5998 4.5161C21.5455 4.47059 21.4911 4.43014 21.4323 4.38463C17.6516 1.52268 13.16 -0.666769 8.88573 0.415314C4.00929 1.64909 0.907745 7.61571 0.468549 14.0222C0.267613 16.4301 0.525308 18.8581 1.22469 21.1468C1.51753 22.0482 1.91157 22.9046 2.39739 23.6953H2.39286C3.00865 24.8987 5.01446 27.0072 6.08755 28.0893C6.68452 28.7202 7.42814 29.1512 8.23373 29.3332C9.57823 29.6204 10.9679 29.2361 12.0371 28.2815C12.8086 27.5157 13.4739 26.6262 14.0112 25.642C15.3175 28.165 17.8035 29.6282 20.4056 29.4057C23.0077 29.1832 25.2651 27.3143 26.2122 24.5985C27.1592 21.8827 26.6282 18.8011 24.8462 16.6718V16.6718Z" fill="#F3D55B"/>
<path d="M26.6752 21.8391C26.6752 26.028 23.6345 29.4238 19.8835 29.4238C16.1326 29.4238 13.0918 26.028 13.0918 21.8391C13.0918 21.7026 13.0963 21.5711 13.1009 21.4396C13.2885 17.5196 16.1217 14.406 19.6345 14.2595C19.716 14.2544 19.802 14.2544 19.8835 14.2544C20.7016 14.2538 21.513 14.4182 22.2787 14.7398C24.9176 15.8635 26.6651 18.6851 26.6752 21.8391Z" fill="#81CCB8"/>
<path d="M24.191 22.4166L22.8404 23.1624L20.7884 21.8396L22.8404 20.5169L24.191 21.2627C24.4149 21.3843 24.6847 21.2812 24.795 21.032C24.9053 20.7827 24.8147 20.4808 24.5922 20.3561L23.7831 19.9091L24.3106 19.5688C24.4518 19.4791 24.5392 19.3118 24.5396 19.1303C24.5399 18.9489 24.4532 18.7811 24.3123 18.6907C24.1714 18.6004 23.998 18.6012 23.8578 18.693L23.3303 19.0333L23.3883 18.0266C23.3986 17.8459 23.3219 17.6728 23.187 17.5725C23.052 17.4721 22.8794 17.4598 22.7342 17.5401C22.5889 17.6204 22.493 17.7812 22.4827 17.9618L22.3853 19.6411L20.3356 20.9638V18.3178L21.5894 17.3844C21.7974 17.2294 21.8536 16.9154 21.7148 16.6831C21.576 16.4507 21.2948 16.388 21.0868 16.543L20.3356 17.1022V16.4221C20.3356 16.1429 20.1329 15.9165 19.8828 15.9165C19.6328 15.9165 19.43 16.1429 19.43 16.4221V17.1022L18.6789 16.543C18.5443 16.4427 18.372 16.4303 18.227 16.5103C18.0819 16.5903 17.9862 16.7507 17.9757 16.931C17.9652 17.1113 18.0417 17.2841 18.1763 17.3844L19.43 18.3178V20.9638L17.3785 19.6411L17.2811 17.9618C17.2651 17.6826 17.0495 17.4707 16.7994 17.4886C16.5493 17.5064 16.3596 17.7473 16.3756 18.0266L16.4335 19.0333L15.9061 18.693C15.7659 18.6012 15.5924 18.6004 15.4515 18.6907C15.3107 18.7811 15.2239 18.9489 15.2243 19.1303C15.2246 19.3118 15.312 19.4791 15.4533 19.5688L15.9808 19.9091L15.1716 20.3561C14.9491 20.4808 14.8585 20.7827 14.9688 21.032C15.0791 21.2812 15.3489 21.3843 15.5728 21.2627L16.9235 20.5169L18.9773 21.8396L16.9253 23.1624L15.5746 22.4166C15.3507 22.2949 15.0809 22.398 14.9706 22.6473C14.8603 22.8965 14.9509 23.1985 15.1735 23.3232L15.9826 23.7702L15.4551 24.1105C15.3138 24.2001 15.2265 24.3675 15.2261 24.5489C15.2257 24.7304 15.3125 24.8981 15.4534 24.9885C15.5942 25.0789 15.7677 25.078 15.9079 24.9862L16.4354 24.6459L16.3774 25.6527C16.3614 25.9312 16.5505 26.1715 16.7998 26.1897H16.8297C17.0689 26.1902 17.2672 25.9829 17.2825 25.7164L17.3799 24.0371L19.43 22.7154V25.3614L18.1763 26.2948C17.9682 26.4498 17.9121 26.7638 18.0509 26.9962C18.1897 27.2285 18.4708 27.2912 18.6789 27.1362L19.43 26.577V27.2571C19.43 27.5363 19.6328 27.7627 19.8828 27.7627C20.1329 27.7627 20.3356 27.5363 20.3356 27.2571V26.577L21.0868 27.1362C21.2214 27.2365 21.3936 27.249 21.5387 27.1689C21.6837 27.0889 21.7795 26.9285 21.79 26.7482C21.8004 26.5679 21.7239 26.3951 21.5894 26.2948L20.3356 25.3614V22.7154L22.3872 24.0382L22.4845 25.7174C22.4998 25.9839 22.6981 26.1912 22.9373 26.1907H22.9672C23.2166 26.1726 23.4056 25.9322 23.3896 25.6537L23.3317 24.6469L23.8591 24.9872C23.9993 25.079 24.1728 25.0799 24.3137 24.9895C24.4545 24.8991 24.5413 24.7314 24.5409 24.5499C24.5406 24.3685 24.4532 24.2012 24.3119 24.1115L23.7844 23.7712L24.5936 23.3242C24.8161 23.1995 24.9067 22.8975 24.7964 22.6483C24.6861 22.399 24.4163 22.296 24.1924 22.4176L24.191 22.4166Z" fill="white"/>
<path d="M22.5967 9.82398C22.6465 11.3713 21.7183 12.7112 20.8399 13.4495C20.4611 13.7591 20.058 14.0299 19.6355 14.2585C17.6071 14.3419 15.7185 15.4345 14.4874 17.2368C13.3781 18.1128 12.3896 19.1657 11.5534 20.3617C11.2002 20.8673 10.8833 21.3881 10.5754 21.8938C10.1186 22.7376 9.55938 23.5067 8.9137 24.1793C8.42184 24.619 7.80956 24.8564 7.17955 24.8518C6.67178 24.8474 6.17215 24.7088 5.72159 24.4473C4.98049 23.984 4.35001 23.3284 3.88331 22.5359C3.48506 21.8883 3.16248 21.1865 2.92341 20.4476C2.31603 18.4315 2.09542 16.2952 2.27594 14.1776C2.68797 8.17557 5.56765 3.32642 9.28497 2.38592C9.90785 2.2312 10.544 2.1532 11.1821 2.15332C13.8897 2.15332 16.9958 3.468 20.4188 6.06197C20.5592 6.1631 20.6996 6.28445 20.8535 6.42098L21.0437 6.5929C21.2891 6.8452 21.5176 7.1173 21.7274 7.40699C22.2409 8.08825 22.5456 8.93529 22.5967 9.82398V9.82398Z" fill="#E64C3C"/>
<path d="M24.407 9.7546C24.4027 11.6887 23.6217 13.5186 22.279 14.7403C21.5133 14.4187 20.7018 14.2542 19.8838 14.2548C19.8023 14.2548 19.7162 14.2548 19.6347 14.2599C20.0572 14.0313 20.4603 13.7605 20.8391 13.4509C21.7175 12.7126 22.6457 11.3727 22.5959 9.82539C22.5448 8.9367 22.2401 8.08966 21.7266 7.4084C21.5168 7.11871 21.2883 6.84661 21.0429 6.59431L20.8527 6.42239C20.6988 6.28586 20.5584 6.16451 20.418 6.06338C16.995 3.46942 13.889 2.15474 11.1813 2.15474C10.5432 2.15462 9.90705 2.23261 9.28418 2.38733C5.56685 3.32784 2.68717 8.17698 2.27514 14.179C2.09462 16.2966 2.31523 18.4329 2.92262 20.449C3.16169 21.1879 3.48426 21.8897 3.88251 22.5373C4.34921 23.3298 4.9797 23.9853 5.7208 24.4487C6.17136 24.7102 6.67098 24.8488 7.17875 24.8532C7.80877 24.8578 8.42105 24.6204 8.9129 24.1807C9.55859 23.5081 10.1178 22.739 10.5746 21.8952C10.8825 21.3895 11.1994 20.8687 11.5526 20.3631C12.3888 19.167 13.3773 18.1142 14.4866 17.2382C13.6544 18.4498 13.1712 19.9151 13.1011 21.4401C13.0604 21.4957 13.0196 21.5564 12.9789 21.612C12.0054 23.0025 11.2311 24.6964 10.0449 25.7583C8.56584 27.0528 6.53986 27.2435 4.88768 26.2437C3.88517 25.6318 3.03062 24.7573 2.39739 23.6953C1.91157 22.9046 1.51753 22.0482 1.22469 21.1468C0.525308 18.8581 0.267613 16.4301 0.468549 14.0223C0.907746 7.61571 4.00929 1.64909 8.88573 0.415314C13.16 -0.666769 17.6516 1.52268 21.4323 4.38464C21.4911 4.43014 21.5455 4.4706 21.5998 4.5161C21.6406 4.54644 21.6768 4.57678 21.7175 4.61218C21.8126 4.68802 21.9032 4.76893 21.9937 4.84983L22.2246 5.0622C22.5531 5.3919 22.8574 5.75037 23.1347 6.13417C23.8967 7.15659 24.3429 8.42631 24.407 9.7546V9.7546Z" fill="#F9EAB0"/>
<path d="M11.7941 11.4597C13.8058 10.1866 14.7478 7.79696 13.898 6.12227C13.0482 4.44757 10.7285 4.122 8.71678 5.39508C6.70505 6.66816 5.7631 9.05781 6.61288 10.7325C7.46265 12.4072 9.78236 12.7328 11.7941 11.4597Z" fill="#F9EAB0"/>
<path d="M10.5488 9.55008C11.9764 8.90505 12.4505 7.67007 12.3961 7.45489C12.3183 7.15486 11.2864 6.69723 9.96108 7.29427C9.30789 7.57508 8.74506 8.06767 8.34511 8.70857C8.20709 8.90365 8.12617 9.14135 8.11328 9.38945C8.19116 9.68797 9.2235 10.1481 10.5488 9.55008Z" fill="#E64C3C"/>
</svg>
