<svg width="81" height="80" viewBox="0 0 81 80" fill="none" xmlns="http://www.w3.org/2000/svg">
<path d="M0.00549483 62.9284C0.733559 60.6811 1.50009 58.4474 2.16221 56.1808C2.29958 55.711 2.08803 55.112 1.95341 54.5955C-0.225288 46.1692 -0.285731 37.8528 3.27492 29.7369C4.71731 26.451 6.83831 23.6542 9.72584 21.5084C10.5253 20.915 10.6902 20.3078 10.2891 19.5468C9.33022 17.739 8.27246 15.9834 7.30262 14.1811C6.96744 13.5574 6.58555 12.8596 6.56357 12.1865C6.50587 10.4006 8.3329 9.18903 10.0033 9.83468C11.2287 10.3072 12.4183 10.8759 13.7426 11.4556C13.9651 8.87583 13.2782 6.69988 12.0419 4.66404C11.7809 4.23545 11.4622 3.83982 11.1957 3.41397C10.6517 2.55128 10.6242 1.66936 11.2726 0.864372C11.9485 0.0209162 12.8304 -0.226351 13.8497 0.215982C17.0559 1.60343 20.2182 3.05681 22.1167 6.41964C23.9245 3.07329 27.0483 1.70508 30.1419 0.29291C31.1776 -0.179645 32.12 -0.0917278 32.8701 0.801181C33.6228 1.69409 33.5761 2.65019 32.8975 3.57332C31.3645 5.65311 30.4084 7.93347 30.4029 10.5572C30.4029 10.7798 30.4249 11.0023 30.4496 11.4804C31.6392 10.9501 32.6915 10.4748 33.7492 10.0133C35.1916 9.38135 36.2164 9.57367 37.0791 10.6259C37.9006 11.6287 37.8374 12.7359 37.0434 14.0382C35.9554 15.8268 34.9169 17.6456 33.9278 19.4891C33.5184 20.2501 33.73 20.8683 34.513 21.4535C37.6368 23.7751 39.854 26.8164 41.2634 30.4458C41.5739 31.2425 41.931 32.1189 40.8925 32.575C39.7386 33.0805 39.4061 32.1162 39.0627 31.2947C35.2823 22.2392 26.2708 17.772 16.8581 20.3957C11.5611 21.8738 8.04717 25.5087 5.80528 30.3716C2.45344 37.6412 2.2309 45.2186 3.93155 52.9306C3.96726 53.0954 4.09639 53.2411 4.18706 53.3977C8.37961 50.4112 8.58017 50.348 14.5118 50.2629C13.9981 48.5155 12.9486 47.194 11.6353 46.0538C11.3935 45.845 11.0006 45.7186 10.8935 45.4631C10.6764 44.9411 10.6078 44.3587 10.4759 43.8009C11.0858 43.7405 11.8551 43.4108 12.2754 43.6608C14.2069 44.823 15.5201 46.5841 16.4652 48.6172C16.773 49.2765 17.0175 49.9661 17.3307 50.7409C18.1 50.6338 18.8637 50.414 19.6138 50.4497C21.5122 50.5376 23.4437 50.5623 25.2817 50.9744C26.2021 51.1805 26.6581 51.0706 27.2516 50.4717C32.2876 45.4082 37.3456 40.3667 42.3953 35.3169C50.5524 27.1599 58.7067 19 66.8638 10.8457C68.1029 9.60664 68.5068 9.62587 69.7651 10.9721C75.8039 17.4368 79.381 25.0334 80.2794 33.8636C80.3069 34.1246 80.425 34.3773 80.4992 34.6328C80.4992 36.7401 80.4992 38.8446 80.4992 40.9519C80.4168 41.3035 80.2959 41.6525 80.2602 42.0096C78.6035 58.354 66.3143 72.2257 50.3409 75.8193C49.5716 75.9924 48.7941 76.3605 48.1512 76.8194C44.5163 79.4267 40.4969 80.6328 36.1065 79.6712C33.6613 79.1354 31.3507 77.998 28.7599 77.0501C25.9878 79.5393 22.4766 80.5394 18.3912 79.619C17.2428 79.3607 15.9432 79.3497 14.7921 79.5942C11.8221 80.2262 9.07196 79.8607 6.46466 78.3332C5.79155 77.9376 5.18162 77.454 5.64593 76.5886C6.12948 75.6874 6.84106 75.8166 7.62132 76.2891C9.86321 77.6408 12.2232 77.7947 14.7591 77.1628C15.9075 76.8771 17.251 76.8606 18.3967 77.1545C22.8502 78.2947 26.7186 76.9677 28.9797 72.973C31.9057 67.8078 31.9057 62.4421 29.0429 57.2605C26.6746 52.9773 22.5645 51.6173 17.828 53.2328C17.828 53.5213 17.8335 53.8345 17.828 54.1477C17.8032 55.1093 18.1989 56.439 16.6933 56.4775C15.3141 56.5132 15.6081 55.2082 15.424 54.3043C15.3278 53.829 15.0119 53.1037 14.6657 53.0158C11.1133 52.1174 7.8109 52.6669 5.5223 55.7027C4.29421 57.332 3.3436 59.3293 2.82709 61.3075C1.89846 64.8791 2.21991 68.481 3.76121 71.9042C4.09365 72.6433 4.22827 73.3768 3.36833 73.7862C2.42597 74.2368 1.93418 73.6131 1.60174 72.8191C1.45888 72.4812 1.2748 72.157 1.17864 71.8081C0.772023 70.319 0.390133 68.8189 0 67.3243C0.00549483 65.8599 0.00549483 64.3928 0.00549483 62.9284ZM65.6439 15.4806C65.9379 15.8378 66.1934 16.151 66.4544 16.4587C71.5839 22.525 74.2186 29.5281 74.3505 37.4709C74.3642 38.3254 74.367 39.2705 73.2186 39.2979C72.0894 39.3282 72.0811 38.427 71.9795 37.5533C71.6718 34.9268 71.4877 32.2563 70.864 29.6985C69.7101 24.9537 67.3034 20.8298 64.1494 17.4395C52.7943 28.7863 41.4997 40.0727 30.5979 50.9635C35.4938 48.0649 41.0299 47.6721 46.489 50.8838C51.8876 54.0598 54.4043 59.0299 54.4098 65.3764C54.7147 65.2582 54.8851 65.206 55.0417 65.1291C55.5719 64.8599 56.1132 64.6071 56.6242 64.3049C64.2977 59.7552 69.2321 53.1779 71.2679 44.4658C71.463 43.6334 71.6883 42.724 72.8037 42.963C73.9219 43.202 73.7433 44.1361 73.595 44.9713C73.562 45.1499 73.496 45.323 73.4521 45.5016C70.7569 55.906 64.5065 63.3378 54.7807 67.882C54.3686 68.0743 53.9262 68.4315 53.7367 68.8244C53.1267 70.0964 52.6294 71.4207 52.0992 72.6982C60.9651 72.0169 73.1416 60.0437 76.5979 48.4551C80.7108 34.6713 76.1803 20.6952 68.2265 12.9887C67.3776 13.8074 66.5314 14.6234 65.6439 15.4806ZM30.804 74.8742C35.8977 79.1519 44.2498 78.2782 48.7446 73.0307C53.5141 67.4644 52.9701 59.2606 47.511 54.417C42.5272 49.9936 34.1998 49.9826 30.1584 54.4087C34.3674 61.0657 34.469 67.8628 30.804 74.8742ZM30.4029 2.97439C26.1636 4.2382 23.8475 7.01858 23.2761 11.0628C23.2047 11.5601 22.6662 12.1095 22.1991 12.3788C21.9958 12.4969 21.3117 12.0518 21.0479 11.7084C20.8336 11.4309 20.9188 10.9199 20.8803 10.5133C20.5726 7.13122 17.1439 3.46342 13.8992 3.15571C15.9377 6.15314 16.218 9.50773 16.2152 12.9283C16.2152 13.7442 16.0284 14.4448 15.1053 14.519C14.6932 14.552 14.2371 14.2992 13.8277 14.1151C12.226 13.4036 10.6352 12.6673 8.83843 11.8485C10.3413 14.53 11.6738 16.901 13.053 19.3627C19.0148 16.5658 25.2103 16.5439 31.1667 19.305C32.5486 16.8406 33.8646 14.4998 35.3565 11.843C33.4113 12.7387 31.7656 13.497 30.1144 14.2525C28.7242 14.8872 28.0511 14.4586 28.0154 12.9145C27.9384 9.48575 28.2901 6.1504 30.4029 2.97439Z" fill="#444444"/>
<path d="M27.3967 38.905C28.0726 38.0972 28.4517 37.4076 29.0314 37.0257C29.4518 36.751 30.1414 36.8883 30.7101 36.8416C30.6908 37.4488 30.8996 38.2208 30.6057 38.6302C29.9463 39.5424 29.1056 40.3638 28.1962 41.0287C27.8198 41.3034 26.9077 41.3117 26.5395 41.0369C25.5971 40.3391 24.7345 39.4792 24.0284 38.545C23.7509 38.1769 23.9734 37.4323 23.9679 36.8581C24.5394 36.8883 25.229 36.7317 25.6576 36.9982C26.251 37.3609 26.6467 38.045 27.3967 38.905Z" fill="#444444"/>
<path d="M22.0319 31.531C22.8231 30.6133 23.2105 29.9265 23.8012 29.5583C24.2243 29.2946 24.9139 29.4594 25.4854 29.4347C25.4772 30.0034 25.6942 30.7425 25.4167 31.1079C24.7079 32.042 23.8452 32.8964 22.9056 33.5943C22.5402 33.8663 21.6308 33.8553 21.2626 33.5805C20.323 32.88 19.4603 32.0255 18.757 31.0886C18.485 30.726 18.7295 29.9787 18.7377 29.4045C19.2762 29.421 19.9576 29.2396 20.3175 29.5006C20.9247 29.9375 21.3258 30.6573 22.0319 31.531Z" fill="#444444"/>
<path d="M32.6111 31.5832C33.4628 30.5997 33.8529 29.9073 34.4463 29.5419C34.8667 29.2836 35.559 29.465 36.1278 29.4512C36.1085 30.0199 36.3036 30.748 36.0261 31.1244C35.353 32.0283 34.4683 32.7811 33.6468 33.5696C33.0067 34.185 32.3501 34.1438 31.7264 33.5202C30.9544 32.7454 30.0889 32.0366 29.4488 31.1656C29.1631 30.7755 29.3197 30.0584 29.2757 29.4897C29.8774 29.5117 30.6137 29.3249 31.0478 29.6078C31.622 29.9815 31.9599 30.7205 32.6111 31.5832Z" fill="#444444"/>
<path d="M16.8902 38.927C17.5221 38.1138 17.8985 37.3665 18.5029 36.9489C18.8903 36.6824 19.6156 36.9049 20.1871 36.9077C20.1733 37.4489 20.3739 38.155 20.1074 38.4957C19.3519 39.4545 18.4644 40.3392 17.5001 41.0892C17.1677 41.3475 16.2885 41.331 15.9451 41.0672C15.0137 40.3502 14.151 39.5012 13.4422 38.5644C13.1592 38.1907 13.346 37.4571 13.3185 36.8884C13.89 36.8994 14.5769 36.7153 15.0082 36.9654C15.6126 37.3143 16.0247 37.9901 16.8902 38.927Z" fill="#444444"/>
<path d="M58.4731 53.8345C58.3385 54.0021 58.1489 54.4637 57.8384 54.5708C57.4703 54.6972 56.8796 54.6697 56.5884 54.4444C55.8768 53.8922 55.2201 53.2356 54.6707 52.524C54.4509 52.2383 54.4234 51.6366 54.569 51.2849C54.6899 50.9909 55.1734 50.7244 55.5279 50.6777C56.2559 50.5816 58.4923 52.8839 58.4731 53.8345Z" fill="#444444"/>
<path d="M59.9731 44.0126C61.0749 44.5291 62.0722 44.8862 62.9266 45.4577C63.2178 45.6528 63.3635 46.5045 63.1821 46.8424C63.0008 47.1748 62.2617 47.4743 61.8716 47.3754C61.0062 47.1556 60.1407 46.7682 59.4044 46.2627C59.0692 46.0347 58.8549 45.3231 58.9346 44.8972C59.0033 44.5538 59.5967 44.312 59.9731 44.0126Z" fill="#444444"/>
<path d="M60.4019 30.9924C60.0668 30.6874 59.4898 30.4044 59.4513 30.0583C59.4019 29.6214 59.6629 28.9126 60.0118 28.7175C60.7921 28.2779 61.6932 27.973 62.5806 27.8438C62.9818 27.7834 63.6988 28.1763 63.8417 28.5362C63.9818 28.8851 63.7098 29.7011 63.3801 29.8797C62.5175 30.355 61.5256 30.5968 60.4019 30.9924Z" fill="#444444"/>
<path d="M62.9733 38.8143C62.5173 38.7896 61.9788 38.9077 61.6244 38.7044C61.182 38.4489 60.6023 37.9159 60.6216 37.5313C60.6408 37.1521 61.2919 36.5917 61.7453 36.4955C62.4843 36.3444 63.325 36.3719 64.0476 36.5834C64.5449 36.729 64.9103 37.3142 65.3361 37.7016C64.8663 38.089 64.4322 38.5313 63.913 38.8391C63.6849 38.9737 63.292 38.8308 62.9733 38.8143Z" fill="#444444"/>
<path d="M41.2996 54.436C41.8766 55.1614 42.5195 55.6367 42.4508 55.9691C42.3574 56.4362 41.7392 56.7988 41.3436 57.2082C40.9645 56.829 40.3326 56.4856 40.2749 56.0625C40.2227 55.6751 40.7859 55.2026 41.2996 54.436Z" fill="#444444"/>
</svg>
