<svg width="75" height="64" viewBox="0 0 75 64" fill="none" xmlns="http://www.w3.org/2000/svg">
<g filter="url(#filter0_d_1676_12228)">
<path d="M15.9462 46.3202H7.74971V37.3402H4.46094V55.1394H7.74971V49.5944H15.9462V55.1375H19.235V37.3384H15.9462V46.3202Z" fill="white"/>
<path d="M30.2562 37.1011C27.7515 37.1011 25.5841 38 23.8106 39.7717C22.0428 41.5396 21.14 43.7038 21.1268 46.2137C21.1268 48.7161 22.0258 50.884 23.7993 52.6557C25.5709 54.4274 27.7402 55.3263 30.2449 55.3263C32.4707 55.3263 34.4308 54.6161 36.0837 53.2145V55.1413H39.3611V46.2193C39.3725 43.7187 38.4772 41.549 36.7 39.7717C34.9284 38 32.7591 37.1011 30.2562 37.1011ZM34.378 50.3439C33.219 51.4914 31.8676 52.0483 30.2449 52.0483C28.6203 52.0483 27.2671 51.4895 26.1137 50.3458C24.964 49.1871 24.4043 47.834 24.4043 46.2118C24.4043 44.5896 24.964 43.2366 26.108 42.0835C27.2671 40.9341 28.6203 40.3753 30.2449 40.3753C31.8695 40.3753 33.2208 40.9341 34.3743 42.0779C35.5239 43.2366 36.0837 44.5896 36.0837 46.2118C36.0837 47.8359 35.5258 49.1871 34.378 50.3439Z" fill="white"/>
<path d="M41.6488 34.0024H44.9376V55.1393H41.6488V34.0024Z" fill="white"/>
<path d="M55.9617 37.1011C53.4569 37.1011 51.2896 38 49.5161 39.7717C47.7482 41.5396 46.8455 43.7038 46.8323 46.2137C46.8323 48.7161 47.7313 50.884 49.5048 52.6557C51.2764 54.4274 53.4456 55.3263 55.9504 55.3263C58.1762 55.3263 60.1362 54.6161 61.7891 53.2145V55.1413H65.0666V46.2193C65.0779 43.7187 64.1827 41.549 62.4054 39.7717C60.6338 38 58.4645 37.1011 55.9617 37.1011ZM60.0835 50.3439C58.9244 51.4914 57.5731 52.0483 55.9504 52.0483C54.3258 52.0483 52.9726 51.4895 51.8191 50.3458C50.6695 49.1871 50.1097 47.834 50.1097 46.2118C50.1097 44.5896 50.6695 43.2366 51.8135 42.0835C52.9726 40.9341 54.3258 40.3753 55.9504 40.3753C57.575 40.3753 58.9263 40.9341 60.0797 42.0779C61.2294 43.2366 61.7891 44.5896 61.7891 46.2118C61.7891 47.8359 61.2312 49.1871 60.0835 50.3439Z" fill="white"/>
<path d="M67.3538 34.0024H70.6425V55.1393H67.3538V34.0024Z" fill="white"/>
<path d="M36.2934 15.6525L24.9457 15.6451H24.9212L19.3444 21.9768L26.2801 21.9693C25.6958 22.5823 25.0324 23.0888 24.2691 23.4999L24.2314 23.5205C23.6491 23.8457 22.9988 24.1092 22.3015 24.3035C21.6343 24.4717 20.9276 24.5577 20.1982 24.5577C18.6452 24.5577 17.2845 24.2045 16.0368 23.4756L16.0236 23.4681C14.7326 22.7243 13.7469 21.7787 13.0138 20.5751L13.0006 20.5527C12.601 19.9117 12.2844 19.1959 12.0545 18.4203L12.0488 18.4016C11.8283 17.6728 11.7171 16.8897 11.7171 16.0786C11.7171 14.5499 12.0714 13.2006 12.7989 11.954L12.8065 11.9391C13.5547 10.6384 14.5102 9.63851 15.7221 8.88349C16.3478 8.49476 17.0489 8.19388 17.8028 7.9883L17.8744 7.96774C18.6075 7.74722 19.3878 7.63508 20.2001 7.63508C21.3742 7.63508 22.441 7.85374 23.4606 8.30227L23.4964 8.31722C24.5405 8.76014 25.4244 9.35071 26.1971 10.1225L28.1365 12.0587L33.2609 6.93613L31.3216 4.99811C29.9062 3.58525 28.2401 2.44897 26.363 1.62293L26.3197 1.60424C24.3954 0.795024 22.3354 0.385742 20.1982 0.385742C17.39 0.385742 14.7703 1.08096 12.4163 2.45084C10.0925 3.77961 8.20971 5.5812 6.82258 7.79955C6.06682 9.00497 5.48257 10.3225 5.09055 11.713C4.67404 13.1109 4.46295 14.5798 4.46295 16.0786C4.46295 18.8875 5.15652 21.504 6.52857 23.855C7.85916 26.178 9.66092 28.0618 11.8811 29.4467C13.0873 30.2035 14.4028 30.7848 15.7975 31.1772C17.1959 31.594 18.6773 31.8052 20.1982 31.8052C22.9856 31.8052 25.5903 31.11 27.9443 29.7419C28.9695 29.1551 29.9119 28.4748 30.7637 27.7067L30.8033 33.2648L36.3745 26.9405L36.3876 26.9237L36.2934 15.6525Z" fill="white"/>
<path d="M70.643 15.9472C70.643 16.336 70.6223 16.7209 70.5921 17.1003C70.5469 17.6498 70.4715 18.1974 70.3641 18.7281L64.1786 17.3638C64.1936 17.2872 64.2087 17.2087 64.22 17.1321C64.2822 16.7471 64.3143 16.3528 64.3143 15.9491C64.3143 15.5193 64.2766 15.0969 64.2068 14.6876L69.4594 10.35C69.7233 10.9517 69.9495 11.5722 70.1285 12.2151H70.1304C70.1323 12.2263 70.1379 12.2413 70.1398 12.2525C70.1417 12.2637 70.1474 12.2786 70.1492 12.2936C70.4564 13.4392 70.643 14.7119 70.643 15.9472ZM42.8722 15.9491C42.8722 23.6133 49.0879 29.8254 56.7567 29.8254C59.8004 29.8254 62.6162 28.8443 64.9042 27.1829L60.5562 22.4733C59.4386 23.1274 58.1419 23.5031 56.7548 23.5031C52.5877 23.5031 49.1991 20.1167 49.1991 15.951C49.2047 12.2824 51.832 9.22118 55.3017 8.53904C55.7729 8.44559 56.261 8.397 56.7604 8.397C56.8321 8.397 56.9037 8.39887 56.9753 8.40261L57.8196 2.11761C57.4691 2.09144 57.1166 2.07275 56.7604 2.07275C56.5607 2.07275 56.3646 2.08023 56.1668 2.08771C48.7713 2.3942 42.8722 8.48297 42.8722 15.9491ZM67.3166 24.9608C68.47 23.6115 69.3671 22.0397 69.94 20.3185L63.6961 18.9412C63.4944 19.4028 63.2475 19.8382 62.9629 20.2494C62.6482 20.7016 62.2882 21.1184 61.8849 21.4903L66.1782 26.1438C66.5815 25.77 66.9603 25.3757 67.3166 24.9608ZM66.3836 5.95626C64.499 4.14533 62.1111 2.85768 59.4442 2.3344L58.598 8.62688C59.6534 8.89039 60.6165 9.37816 61.4439 10.0341L66.3836 5.95626Z" fill="url(#paint0_linear_1676_12228)"/>
<path d="M56.7581 30.9445C48.4712 30.9445 41.7542 24.2297 41.7542 15.9487C41.7542 7.66589 48.4731 0.952914 56.7581 0.952914C58.5524 0.952914 60.2731 1.26875 61.8675 1.84623C59.7077 0.773502 57.3235 0.233398 54.7359 0.233398C50.3709 0.233398 46.6279 1.81259 43.6068 4.92613C40.5932 8.03032 39.0666 11.8148 39.0666 16.1749C39.0666 20.5032 40.6422 24.2315 43.75 27.2554C46.8522 30.2736 50.631 31.8023 54.9846 31.8023C58.0473 31.8023 60.8046 31.0249 63.2207 29.4831C61.2682 30.4194 59.0744 30.9445 56.7581 30.9445Z" fill="white"/>
<path d="M54.4626 11.8622V21.2102L69.1293 9.09996L67.2163 6.79004L57.4631 14.8449V11.864H54.4626V11.8622Z" fill="white"/>
</g>
<defs>
<filter id="filter0_d_1676_12228" x="0.460938" y="0.233398" width="74.1821" height="63.0928" filterUnits="userSpaceOnUse" color-interpolation-filters="sRGB">
<feFlood flood-opacity="0" result="BackgroundImageFix"/>
<feColorMatrix in="SourceAlpha" type="matrix" values="0 0 0 0 0 0 0 0 0 0 0 0 0 0 0 0 0 0 127 0" result="hardAlpha"/>
<feOffset dy="4"/>
<feGaussianBlur stdDeviation="2"/>
<feComposite in2="hardAlpha" operator="out"/>
<feColorMatrix type="matrix" values="0 0 0 0 0 0 0 0 0 0 0 0 0 0 0 0 0 0 0.25 0"/>
<feBlend mode="normal" in2="BackgroundImageFix" result="effect1_dropShadow_1676_12228"/>
<feBlend mode="normal" in="SourceGraphic" in2="effect1_dropShadow_1676_12228" result="shape"/>
</filter>
<linearGradient id="paint0_linear_1676_12228" x1="66.892" y1="6.82432" x2="39.1354" y2="31.8602" gradientUnits="userSpaceOnUse">
<stop stop-color="#A4D233"/>
<stop offset="0.1107" stop-color="#A4D233"/>
<stop offset="1" stop-color="#025F1D"/>
</linearGradient>
</defs>
</svg>
