<svg width="36" height="31" viewBox="0 0 36 31" fill="none" xmlns="http://www.w3.org/2000/svg">
<path d="M24.4653 16.9996C24.4653 16.9996 30.4642 18.7124 29.7007 24.9056C29.7007 24.9056 29.6036 26.3989 28.4403 26.6333C27.2963 26.8633 26.3927 25.534 26.5871 24.1528C26.7622 22.9069 26.4485 20.7267 24.4653 16.9996Z" fill="#88C057"/>
<path d="M24.4658 16.9998C24.4658 16.9998 30.4647 15.4166 29.7012 9.69149C29.7012 9.69149 29.6029 7.63046 28.414 6.99729C27.3084 6.40808 26.1485 7.65567 26.4692 8.97551C26.8205 10.4221 26.7692 12.9984 24.4658 16.9998Z" fill="#88C057"/>
<path d="M29.4288 25.0349C29.4288 25.0349 29.423 25.0871 29.4135 25.1576C29.5621 25.1668 29.7138 25.1672 29.8713 25.1454C31.322 24.9457 31.4428 23.6725 31.4428 23.6725C32.395 18.3932 24.9151 16.9329 24.9151 16.9329C25.1119 17.1855 25.2907 17.4274 25.4619 17.6636C27.1766 18.5547 29.964 20.6927 29.4288 25.0349Z" fill="#88C057"/>
<path d="M29.7024 9.69177C30.2917 14.1079 26.858 16.0585 25.2568 16.72C25.233 16.7486 25.2126 16.7755 25.1888 16.8042C25.1888 16.8042 32.6686 15.4543 31.7165 10.5744C31.7165 10.5744 31.5938 8.81733 30.1117 8.27788C29.8572 8.18519 29.6005 8.14668 29.3536 8.15111C29.664 8.90253 29.7024 9.69177 29.7024 9.69177Z" fill="#A4E869"/>
<path d="M34.3664 16.6907C33.9747 14.6435 31.4744 14.2821 31.4744 14.2821C30.9595 14.3339 30.4449 14.4337 29.9385 14.5611C28.3258 15.9273 25.8691 16.6072 24.7203 16.8641C24.5974 16.9407 24.4906 17.0088 24.4144 17.0586C25.3042 17.2537 27.8219 17.905 29.5963 19.3272C30.2253 19.4695 30.8613 19.5646 31.4741 19.5813C34.7581 19.6712 34.3664 16.6907 34.3664 16.6907Z" fill="#659C35"/>
<path d="M24.4653 16.9996C24.4653 16.9996 30.4642 18.7124 29.7007 24.9056C29.7007 24.9056 29.6036 26.3989 28.4403 26.6333C27.2963 26.8633 26.3927 25.534 26.5871 24.1528C26.7622 22.9069 26.4485 20.7267 24.4653 16.9996Z" fill="#A4E869"/>
<path d="M25.0145 16.8571C24.7618 16.9478 24.609 16.9883 24.609 16.9883C24.609 16.9883 24.836 17.0538 25.1933 17.2027C25.1357 17.0892 25.0771 16.9754 25.0145 16.8571Z" fill="#F2681C"/>
<path d="M24.973 21.284C25.4593 21.0281 25.8061 20.6234 26.06 20.1608C25.7273 19.2518 25.2599 18.2015 24.611 16.9832C25.3698 15.6654 25.8809 14.5058 26.2169 13.4868C25.9575 12.8885 25.5716 12.3482 24.9733 12.0334C23.0956 11.0458 8.28219 14.0203 4.09918 16.1533C3.7057 16.354 3.706 16.8558 4.09918 17.0561C8.28219 19.1891 23.0956 22.2713 24.973 21.284Z" fill="#ED8F20"/>
<path d="M9.054 16.1805C8.94668 15.8413 8.86679 15.4845 8.81649 15.1198C8.78051 14.8563 8.56007 14.6768 8.32499 14.7174C8.08992 14.7579 7.92832 15.0037 7.9646 15.2662C8.02284 15.6901 8.11583 16.1059 8.24115 16.5012C8.2634 16.571 8.29847 16.632 8.34268 16.6813C8.4564 16.8083 8.62958 16.8587 8.79148 16.7951C9.01558 16.7062 9.13358 16.4307 9.054 16.1805Z" fill="#DD7017"/>
<path d="M24.2994 20.2336C23.9132 19.2708 23.7616 18.1462 23.8494 16.8918C23.868 16.6264 23.6905 16.3947 23.4528 16.374C23.2152 16.3532 23.0077 16.5515 22.9891 16.8169C22.8899 18.2338 23.0657 19.5161 23.5117 20.6281C23.534 20.683 23.5639 20.7313 23.6002 20.7719C23.7231 20.9092 23.9138 20.9545 24.0822 20.8707C24.2994 20.7617 24.3967 20.4765 24.2994 20.2336Z" fill="#DD7017"/>
<path d="M21.6888 11.9436C21.7767 12.1104 21.7721 12.328 21.6564 12.4891C21.2131 13.1058 20.825 14.1131 20.9586 14.974C20.9992 15.2359 20.8417 15.4852 20.6065 15.5304C20.4631 15.5584 20.3236 15.5029 20.2278 15.3959C20.1671 15.3282 20.1238 15.2396 20.1079 15.1375C19.9279 13.9756 20.3981 12.7731 20.89 12.028" fill="#DD7017"/>
<path d="M20.1079 15.1375C20.1235 15.2393 20.1668 15.3278 20.2278 15.3959C20.3236 15.5029 20.4631 15.5584 20.6065 15.5304C20.8414 15.4848 20.9989 15.2362 20.9586 14.974C20.8256 14.1131 21.2134 13.1055 21.6564 12.4891C21.7718 12.3284 21.7767 12.1104 21.6888 11.9436C21.4319 11.9681 21.167 11.9953 20.8903 12.0277C20.3981 12.7731 19.9279 13.9756 20.1079 15.1375Z" fill="#DD7017"/>
<path d="M18.3297 20.8918C17.8463 20.1435 17.3938 18.9595 17.5708 17.8153C17.6114 17.5532 17.8347 17.3774 18.0697 17.4224C18.304 17.4674 18.4618 17.7171 18.4215 17.9795C18.2885 18.8402 18.676 19.8488 19.1193 20.4659C19.2383 20.6315 19.2386 20.8546 19.1419 21.024" fill="#DD7017"/>
<path d="M19.1194 20.4663C18.6758 19.8489 18.2879 18.8406 18.4216 17.9799C18.4622 17.7179 18.3044 17.4674 18.0698 17.4228C17.8348 17.3771 17.6115 17.5529 17.5709 17.8156C17.3939 18.9599 17.8464 20.1439 18.3297 20.8922C18.605 20.9385 18.8756 20.9832 19.1417 21.0248C19.2387 20.8551 19.2381 20.6315 19.1194 20.4663Z" fill="#DD7017"/>
<path d="M16.0637 12.7941C16.1568 12.962 16.154 13.1836 16.0369 13.3471C15.7583 13.7343 15.5139 14.3632 15.5957 14.8945C15.6362 15.1563 15.4788 15.4056 15.2435 15.4509C15.0998 15.4785 14.9607 15.4233 14.8649 15.3164C14.8042 15.2486 14.7608 15.1601 14.745 15.0579C14.6257 14.2866 14.9036 13.4915 15.2228 12.9589" fill="#DD7017"/>
<path d="M14.7459 15.0589C14.7615 15.1608 14.8048 15.2493 14.8659 15.3174C14.9617 15.4243 15.1008 15.4795 15.2445 15.4519C15.4792 15.4066 15.6369 15.1577 15.5966 14.8955C15.5146 14.3639 15.759 13.7356 16.0379 13.3481C16.1556 13.1846 16.1584 12.9629 16.0647 12.7951C15.7858 12.8482 15.5057 12.9033 15.2238 12.9599C14.9046 13.4925 14.6266 14.2876 14.7459 15.0589Z" fill="#DD7017"/>
<path d="M11.9854 19.5789C11.6253 19.0563 11.2665 18.1711 11.3996 17.3132C11.4404 17.0508 11.6632 16.875 11.8981 16.92C12.1337 16.965 12.2905 17.2151 12.2502 17.4767C12.1682 18.0086 12.4126 18.6372 12.6911 19.0246C12.8403 19.2321 12.8104 19.5353 12.6246 19.7019C12.6142 19.7115 12.6011 19.7145 12.5901 19.7227" fill="#DD7017"/>
<path d="M12.6892 19.0249C12.4106 18.6375 12.1662 18.0082 12.2483 17.477C12.2889 17.215 12.1321 16.9656 11.8962 16.9203C11.6616 16.8749 11.4382 17.0508 11.3977 17.3135C11.2649 18.1718 11.6234 19.0566 11.9835 19.5793C12.1839 19.628 12.3859 19.6757 12.5879 19.7234C12.5989 19.7152 12.612 19.7122 12.6224 19.7026C12.8085 19.5364 12.8384 19.2324 12.6892 19.0249Z" fill="#DD7017"/>
<path d="M8.39394 5.6066C5.46261 5.89541 3.30136 3.48121 3.55934 0.208492C6.49067 -0.0803195 8.65192 2.33389 8.39394 5.6066Z" fill="#7FB241"/>
<path d="M8.5063 7.88561C8.25347 7.81503 8.05482 7.57591 8.02451 7.26981C7.88584 5.86753 8.24509 4.48974 9.03452 3.38924C9.82459 2.28873 10.9513 1.59732 12.2064 1.44319C12.5586 1.40069 12.8746 1.68374 12.9127 2.07627C12.9514 2.46879 12.6979 2.8217 12.3464 2.86563C11.4312 2.97799 10.6102 3.48143 10.0342 4.28376C9.45826 5.08609 9.19705 6.09008 9.29766 7.11209C9.33636 7.50533 9.08289 7.85824 8.73074 7.90217C8.65335 7.91226 8.57789 7.90577 8.5063 7.88561Z" fill="#8E6D53"/>
<path d="M13.2548 5.59756C12.5557 5.38942 11.8327 5.43263 11.1232 5.68759C9.30059 6.34371 7.36249 6.34371 5.53983 5.68759C4.83038 5.43263 4.10738 5.38942 3.40825 5.59756C0.616867 6.42798 -0.729805 10.9373 0.399516 15.6699C1.52884 20.4025 4.70655 23.565 7.49793 22.7346C7.50115 22.7339 7.50373 22.7331 7.50696 22.7317C8.04937 22.5682 8.61435 22.5682 9.15676 22.7317C9.15998 22.7324 9.16256 22.7331 9.16579 22.7346C11.9565 23.565 15.1349 20.4018 16.2642 15.6699C17.3929 10.9373 16.0456 6.42798 13.2548 5.59756Z" fill="#E14B4B"/>
<path d="M16.2642 15.6698C15.1355 20.4017 11.9559 23.5635 9.16322 22.7352H9.15677C8.61501 22.5696 8.04744 22.5696 7.50568 22.7352H7.49923C6.44794 23.0449 5.34506 22.7928 4.31958 22.1086C9.79528 19.7463 13.8972 13.7827 14.755 6.51562C16.49 8.25138 17.1672 11.8885 16.2642 15.6698Z" fill="#D03F3F"/>
</svg>
