<svg width="27" height="27" viewBox="0 0 27 27" fill="none" xmlns="http://www.w3.org/2000/svg">
<path d="M10.0943 26.4878C9.16209 26.3828 8.22228 26.3099 7.30012 26.163C6.56314 26.0462 5.82238 25.8886 5.12194 25.6624C2.53307 24.8273 1.19139 23.1754 1.02888 20.8556C0.780699 17.302 2.15639 14.1107 4.22371 11.1038C5.47594 9.28251 7.06202 7.70134 9.1835 6.50929C8.70352 5.87575 8.57377 5.26151 9.24272 4.66012C9.3246 4.58616 9.27799 4.36104 9.22004 4.22919C8.93407 3.57742 8.57125 2.9471 8.347 2.28139C8.25378 2.0059 8.31803 1.55888 8.53093 1.37771C8.7451 1.19655 9.23264 1.24693 9.60176 1.20512C9.65593 1.19869 9.72144 1.23728 9.77435 1.26516C10.8855 1.85367 11.9286 1.99518 12.9163 1.04647C13.2211 0.75382 13.6822 0.803132 14.0728 1.03468C14.1068 1.05505 14.1496 1.07006 14.1748 1.09578C15.039 1.96516 16.0065 1.88905 17.0333 1.32733C17.1542 1.26087 17.3079 1.18369 17.4389 1.19333C17.7904 1.22013 18.2464 1.19655 18.4543 1.37128C18.6622 1.54602 18.7516 1.96838 18.6634 2.22672C18.4367 2.89135 18.0978 3.53025 17.7753 4.16916C17.6455 4.42643 17.6531 4.59688 17.8811 4.83271C18.3951 5.36442 18.2792 5.92506 17.808 6.44926C18.4631 6.9145 19.1384 7.33579 19.733 7.82783C22.3861 10.019 24.0654 12.7086 25.1589 15.6812C25.746 17.2741 26.0786 18.9046 25.9841 20.5844C25.8253 23.4198 24.0944 25.2615 20.8504 25.9411C19.7783 26.1662 18.6622 26.2434 17.5674 26.3892C17.3419 26.4192 17.1177 26.4546 16.8934 26.4868C14.6296 26.4878 12.362 26.4878 10.0943 26.4878ZM13.4567 25.791C13.4605 25.7342 13.4643 25.6763 13.4681 25.6195C14.622 25.6195 15.7836 25.6849 16.9287 25.6024C18.2603 25.5059 19.6045 25.3633 20.8983 25.0889C23.045 24.6333 24.5 23.4884 24.8868 21.5749C25.0455 20.7924 25.0745 19.9723 25.0077 19.178C24.8037 16.7564 23.8916 14.5009 22.5524 12.372C21.2397 10.2848 19.6121 8.41099 17.1844 7.15891C16.7473 6.9338 16.1779 6.82017 15.6601 6.79766C14.4872 6.74513 13.3005 6.85983 12.1365 6.76121C10.7356 6.64222 9.65215 7.09245 8.65313 7.8289C8.4944 7.94575 8.32433 8.05188 8.17441 8.17623C4.29426 11.4029 2.1904 15.3424 1.94223 19.9348C1.77341 23.0575 3.49807 24.8016 7.13634 25.3001C9.22004 25.5852 11.3478 25.6356 13.4567 25.791ZM17.8181 1.92228C17.0509 2.19885 16.4462 2.40146 15.8591 2.63622C15.4976 2.78094 15.204 2.77772 14.8778 2.55475C14.4394 2.2546 13.9632 1.78185 13.5008 1.77971C13.041 1.77756 12.5648 2.25245 12.1226 2.54725C11.8026 2.76057 11.5116 2.79166 11.1412 2.64265C10.5428 2.40146 9.923 2.19671 9.16839 1.92442C9.56396 2.76486 9.89025 3.48952 10.2556 4.20024C10.3072 4.29994 10.5542 4.37819 10.7116 4.37926C12.5597 4.39106 14.4066 4.3932 16.2547 4.37819C16.4248 4.37712 16.6881 4.2785 16.7486 4.16487C17.1114 3.46915 17.4263 2.75628 17.8181 1.92228ZM13.4744 5.99474C14.4822 5.99474 15.49 5.99367 16.4979 5.99474C16.8493 5.99474 17.2336 5.98081 17.2512 5.59918C17.2701 5.21219 16.8972 5.17253 16.5382 5.17253C14.5023 5.1736 12.4653 5.15967 10.4294 5.18968C10.1926 5.1929 9.7882 5.41158 9.76049 5.56916C9.69498 5.94436 10.0906 5.99474 10.4509 5.99367C11.4587 5.99367 12.4665 5.99474 13.4744 5.99474Z" fill="#444444" stroke="#444444" stroke-width="0.3"/>
<path d="M13.4768 7.60361C13.6444 7.60254 13.8132 7.60254 13.9808 7.60254C14.845 7.60468 14.8261 7.60897 14.918 8.3347C14.9395 8.50408 15.1196 8.70775 15.296 8.80423C16.2963 9.35309 16.8846 10.1131 17.0156 11.1176C17.0862 11.6578 16.9299 11.7972 16.3038 11.8069C15.9687 11.8122 15.6311 11.7929 15.296 11.8111C14.7102 11.8444 14.2277 11.8154 14.0929 11.1744C14.0626 11.0275 13.6079 10.8581 13.3521 10.8635C13.1682 10.8667 12.8558 11.139 12.8495 11.2987C12.8419 11.4767 13.0712 11.7372 13.279 11.8294C13.7956 12.0598 14.3612 12.2121 14.9042 12.4029C16.135 12.836 16.8783 13.6131 17.008 14.7409C17.1441 15.9211 16.6011 16.8784 15.4333 17.5334C15.068 17.7381 14.8349 17.9247 14.8941 18.3256C14.947 18.6793 14.7026 18.8541 14.2932 18.8562C13.7678 18.8594 13.2438 18.8562 12.7184 18.8584C12.2699 18.8605 12.0394 18.6686 12.0961 18.2923C12.1528 17.9107 11.9323 17.7371 11.5758 17.5462C10.5932 17.0188 10.0653 16.2352 9.96326 15.2436C9.91917 14.8073 10.1396 14.6101 10.6486 14.6197C11.0051 14.6262 11.3629 14.6337 11.7194 14.6176C12.2813 14.5919 12.7499 14.6154 12.8822 15.2372C12.9162 15.3969 13.3572 15.6006 13.5965 15.5888C13.8019 15.5781 14.1118 15.3026 14.1433 15.1161C14.1697 14.9617 13.8989 14.6958 13.6847 14.6015C13.1858 14.3796 12.6403 14.2338 12.1163 14.0516C10.8867 13.6239 10.1258 12.8606 9.98468 11.7307C9.83602 10.5505 10.3614 9.58785 11.5229 8.92215C11.897 8.70775 12.1805 8.53195 12.0999 8.09672C12.0381 7.76977 12.2674 7.60147 12.6592 7.60468C12.9313 7.60576 13.2047 7.60361 13.4768 7.60361ZM13.9152 18.0083C14.0299 17.3018 14.0337 17.3061 14.7555 16.9545C15.6563 16.5161 16.1136 15.8321 16.0821 14.966C16.0506 14.0816 15.4875 13.4652 14.5174 13.1318C13.9934 12.9517 13.4642 12.7813 12.9414 12.598C12.1515 12.3214 11.8139 11.9194 11.8517 11.318C11.8895 10.7263 12.3506 10.2375 13.0309 10.0702C13.7351 9.89765 14.491 10.0767 14.8349 10.6287C15.1322 11.1058 15.5164 11.0393 16.0065 10.975C15.8881 10.3222 15.4963 9.83655 14.8664 9.55676C14.297 9.30377 13.7704 9.09259 13.9745 8.43118C13.6091 8.43118 13.3294 8.43118 12.9943 8.43118C13.1317 8.99719 12.8432 9.25661 12.2813 9.48065C11.3226 9.86228 10.8665 10.5923 10.9056 11.4853C10.9434 12.3718 11.504 12.9807 12.4816 13.3076C13.0082 13.4834 13.5323 13.6635 14.0538 13.8468C14.8399 14.1234 15.1801 14.5329 15.1347 15.1311C15.0906 15.711 14.6056 16.2191 13.943 16.3799C13.2841 16.5397 12.5018 16.3596 12.1755 15.8429C11.8668 15.3562 11.4725 15.4098 10.9623 15.4805C11.1311 16.1462 11.5204 16.6586 12.1969 16.9213C12.7726 17.1443 13.1518 17.4026 13.017 18.0072C13.3458 18.0083 13.6116 18.0083 13.9152 18.0083Z" fill="#444444" stroke="#444444" stroke-width="0.3"/>
<path d="M14.2 20.4652C13.9972 20.9282 14.2441 20.985 14.6548 21.0172C15.7256 21.1029 16.5042 21.8649 16.4865 22.7556C16.4701 23.6302 15.6752 24.3718 14.6636 24.4565C13.5928 24.5465 12.6706 23.9806 12.435 23.0846C12.3531 22.7706 12.309 22.4287 12.7878 22.3547C13.2325 22.2862 13.3068 22.5938 13.3698 22.9003C13.4681 23.3772 13.9594 23.6966 14.4872 23.6709C15.0302 23.6452 15.4787 23.2733 15.519 22.8145C15.5618 22.3322 15.2381 21.9453 14.6787 21.8231C14.559 21.7963 14.4305 21.791 14.3058 21.7856C13.1707 21.7417 13.1707 21.7428 13.1707 20.7932C13.1707 20.6142 13.1783 20.4363 13.1707 20.2573C13.1531 19.8339 13.3748 19.6249 13.885 19.641C14.2617 19.6517 14.6397 19.6431 15.0176 19.6431C15.3615 19.6431 15.7193 19.7171 15.6475 20.0622C15.6147 20.2219 15.2759 20.3848 15.0403 20.4491C14.7921 20.5166 14.5011 20.4652 14.2 20.4652Z" fill="#444444" stroke="#444444" stroke-width="0.3"/>
<path d="M7.75489 23.6826C8.27519 23.6826 8.80053 23.644 9.31201 23.7008C9.53878 23.7266 9.73783 23.9441 9.94821 24.0738C9.73657 24.2046 9.535 24.4329 9.31201 24.45C8.64557 24.5004 7.97032 24.4597 7.29884 24.4714C6.79617 24.48 6.62736 24.2689 6.66641 23.8702C6.73696 23.1424 7.15396 22.5937 7.84055 22.1789C8.11393 22.0139 8.47298 21.8981 8.64557 21.6773C8.83076 21.4394 8.91895 21.1007 8.89501 20.8145C8.88494 20.6891 8.49943 20.5102 8.27015 20.4919C7.84811 20.4587 7.6982 20.7395 7.56466 21.0557C7.49537 21.2197 7.20687 21.3172 7.0179 21.4447C6.90326 21.2604 6.68531 21.0739 6.69035 20.8906C6.71051 20.1704 7.56592 19.5874 8.42637 19.657C9.3813 19.7342 10.0843 20.4769 9.93814 21.2668C9.83357 21.8317 9.45563 22.2261 8.90509 22.5487C8.44274 22.8198 8.0396 23.1628 7.61001 23.4747C7.65662 23.5422 7.70576 23.6119 7.75489 23.6826Z" fill="#444444" stroke="#444444" stroke-width="0.3"/>
<path d="M20.8391 19.6505C20.6665 20.0707 20.538 20.3902 20.402 20.7086C19.9447 21.7784 19.4874 22.8483 19.0263 23.917C18.9041 24.2 18.8021 24.5656 18.3221 24.4327C17.8359 24.2976 18.0047 23.9599 18.1269 23.6716C18.695 22.3337 19.2518 20.9905 19.8552 19.6645C19.9321 19.4962 20.2533 19.3675 20.4902 19.3161C20.5771 19.2957 20.7471 19.5573 20.8391 19.6505Z" fill="#444444" stroke="#444444" stroke-width="0.3"/>
<path d="M18.8726 20.0502C18.5677 20.2355 18.3876 20.4262 18.2074 20.4272C18.0613 20.4283 17.7778 20.1787 17.7992 20.078C17.8333 19.9216 18.0512 19.7213 18.2339 19.6827C18.3649 19.6549 18.5639 19.8616 18.8726 20.0502Z" fill="#444444" stroke="#444444" stroke-width="0.3"/>
<path d="M20.5909 24.2162C20.3792 23.9783 20.1424 23.8251 20.1651 23.7083C20.1966 23.5508 20.4271 23.4212 20.572 23.2798C20.7294 23.4158 20.9713 23.5348 21.0141 23.6933C21.0444 23.8048 20.8025 23.9697 20.5909 24.2162Z" fill="#444444" stroke="#444444" stroke-width="0.3"/>
<path d="M12.0785 24.0341C11.7283 24.2425 11.5506 24.4294 11.368 24.4326C11.2193 24.4358 10.9547 24.2254 10.9447 24.0972C10.9346 23.97 11.1651 23.7318 11.3125 23.7179C11.4939 23.7018 11.6993 23.8675 12.0785 24.0341Z" fill="#444444" stroke="#444444" stroke-width="0.3"/>
</svg>
