<svg width="47" height="72" viewBox="0 0 47 72" fill="none" xmlns="http://www.w3.org/2000/svg">
<path d="M38.9719 60.1486C36.3211 57.9015 33.5785 55.5764 30.9074 53.2686C29.3679 51.9412 27.6346 50.4402 24.8309 52.5311L21.5174 49L18 52.0973L21.8742 54.9517C20.9057 56.1837 20.2022 57.6066 21.7621 58.9427C26.5947 63.0898 31.3356 67.1415 36.0866 71.1324C36.7799 71.7137 37.5038 72 38.248 72C39.0229 72 39.8181 71.679 40.6032 71.0456C41.429 70.3776 42.2446 69.6748 43.0399 68.9981L43.4884 68.6164C45.5173 66.8812 45.5071 65.6926 43.4375 63.9313C41.9489 62.6733 40.4604 61.4066 38.9719 60.1486Z" fill="#0E7139"/>
<path d="M17.0211 7.08048C19.3042 7.1163 21.6279 7.13062 23.976 7.13062C26.2997 7.13062 28.6558 7.1163 31.0202 7.08048C34.3757 7.03033 36.8457 4.80944 36.8782 1.80051C36.8863 1.01962 36.8375 0.604096 36.545 0.339022C36.2444 0.0667852 35.7488 0.0238004 34.8144 0.0166363C32.1576 0.0166363 29.5008 0.0166363 26.8359 0.0166363H24.041C23.0091 0.0166363 21.9691 0.0166363 20.9373 0.0238004C18.3373 0.0309646 15.648 0.0381287 13.0075 0.00230801C12.3169 -0.0191844 11.8862 0.10977 11.5937 0.374843C11.2931 0.639916 11.1631 1.04827 11.1713 1.66439C11.2119 4.80228 13.6249 7.03033 17.0211 7.08048Z" fill="#0E7139"/>
<path d="M12.0426 56.0972C12.0497 56.0972 12.0568 56.0972 12.0568 56.0972C15.2259 56.0972 18.2312 54.8292 20.503 52.5295C22.7748 50.2298 24.0211 47.2065 23.9997 44.0257C23.957 37.3845 18.6016 31.9971 12.0568 31.9971C12.0497 31.9971 12.0355 31.9971 12.0284 31.9971C5.2771 32.0114 -0.00711439 37.3845 7.18984e-06 44.2191C7.18984e-06 50.6453 5.51211 56.0829 12.0426 56.0972ZM12.1494 34.3612C14.6064 34.3612 16.9351 35.3427 18.7298 37.1266C20.5885 38.9749 21.6211 41.4322 21.6282 44.0471C21.6354 46.6119 20.6455 49.0262 18.8366 50.8531C17.0277 52.6799 14.6135 53.6901 12.0497 53.6972C12.0426 53.6972 12.0426 53.6972 12.0355 53.6972C6.72278 53.6972 2.38574 49.4131 2.36437 44.1474C2.34301 38.7099 6.60171 34.4114 12.064 34.3684C12.0924 34.3612 12.1209 34.3612 12.1494 34.3612Z" fill="#0E7139"/>
<path d="M46.9941 59.3643C46.9859 59.0706 46.9778 58.7339 46.9778 58.347C46.9859 45.1507 46.9859 31.9615 46.9859 18.7652V5.11749C46.9859 5.00286 46.9859 4.88823 46.9778 4.76644C46.9778 4.53719 46.9697 4.30077 46.9859 4.06436C47.0184 3.59869 46.9128 3.25481 46.6609 3.02556C46.4009 2.78198 46.0028 2.67451 45.426 2.68168C43.6548 2.71034 41.7698 2.73183 39.9092 2.66735C39.308 2.65302 38.8855 2.75332 38.6092 3.00406C38.3086 3.26914 38.1705 3.68466 38.1949 4.3151L38.203 4.48704H44.8897V59.8013H40.2586L40.4373 60.0736C41.1361 61.1195 41.9729 61.5566 43.3054 61.5566C43.346 61.5566 43.3785 61.5566 43.4191 61.5566C43.7441 61.5494 44.0366 61.5494 44.2966 61.5422C45.6941 61.5279 46.3278 61.5207 46.6853 61.1912C47.0266 60.876 47.0103 60.3745 46.9941 59.3643Z" fill="#0E7139"/>
<path d="M1.03972 35.5007C1.04784 35.6154 1.06409 35.7372 1.07221 35.8661L1.09659 36.1742L1.38908 36.0022C2.54281 35.3073 3.01404 34.4548 3.00592 33.0506C2.98155 28.4011 2.98155 23.6799 2.98155 19.1092C2.98155 14.6029 2.98155 10.1039 2.95717 5.59763C2.95717 5.08897 3.03842 4.78808 3.21716 4.63047C3.39591 4.48002 3.7209 4.42271 4.24902 4.45137C5.50024 4.51584 6.73521 4.50151 8.03518 4.48719C8.57954 4.48002 9.13203 4.47286 9.69264 4.47286H9.89576V4.29375C9.88763 3.6848 9.73326 3.26212 9.41639 3.00421C9.10765 2.7463 8.65266 2.646 7.95393 2.67466C6.80833 2.72481 5.63836 2.71764 4.50901 2.70332C3.99715 2.68899 3.49341 2.68899 2.98155 2.68899C1.16971 2.68899 0.990967 2.86093 0.990967 4.50151C0.990967 14.6029 0.990967 24.7044 0.990967 34.8058C0.990967 35.0351 1.01534 35.2572 1.03972 35.5007Z" fill="#0E7139"/>
<path d="M22.7653 59.7364C17.6629 59.765 12.4874 59.7579 7.46626 59.7507H4.57383C4.20009 59.7507 3.81822 59.7221 3.42011 59.7006C3.27386 59.6934 3.12762 59.6791 2.97324 59.6719C2.97324 59.2206 2.96512 58.7764 2.95699 58.3394C2.94075 57.2218 2.91637 56.1687 3.00574 55.1084C3.11137 53.7687 2.5995 52.823 1.30766 51.9418L0.982666 51.7197V54.4349V59.6003C0.982666 61.3555 1.16954 61.5203 3.16012 61.5203C6.19067 61.5203 9.22935 61.5203 12.2599 61.5203C15.9648 61.5203 19.6697 61.5203 23.3746 61.5131C23.6509 61.5131 23.919 61.4844 24.179 61.4558C24.2927 61.4415 24.4065 61.4343 24.5202 61.42L24.7071 61.4056V61.2409C24.6909 59.9083 23.7646 59.7436 22.7653 59.7364Z" fill="#0E7139"/>
<path d="M12.5042 20.3767L19.9059 11.8299L17.9722 10.5547L12.3905 16.9523L10.213 14.8102L8.39307 16.1714L12.5042 20.3767Z" fill="#0E7139"/>
<path d="M38.6987 27.1328H24.1553V29.1316H38.6987V27.1328Z" fill="#0E7139"/>
<path d="M38.6992 12.7188H33.8081C31.1513 12.7188 28.4944 12.7188 25.8458 12.7188C24.9602 12.7188 24.5133 12.7188 24.2695 12.9695C24.0095 13.2274 24.0745 13.6429 24.2127 14.5599L24.237 14.7175H38.7073V12.7188H38.6992Z" fill="#0E7139"/>
<path d="M38.6901 41.4902H28.656L28.8429 43.4675H38.6901V41.4902Z" fill="#0E7139"/>
<path d="M31.451 31.4102H24.1387V33.409H31.451V31.4102Z" fill="#0E7139"/>
<path d="M13.3079 30.2921L13.6085 30.8079L13.7466 30.7864C13.9822 30.7577 14.2585 30.7434 14.5185 30.7362C15.1522 30.7147 15.8022 30.6932 16.1597 30.3637C17.1103 29.4897 17.9146 28.5297 18.7677 27.5052C19.1009 27.1112 19.434 26.71 19.7752 26.316L19.8971 26.1727L17.9471 24.8975L13.3079 30.2921Z" fill="#0E7139"/>
<path d="M31.4594 17.1025H24.1958V19.0369H31.4594V17.1025Z" fill="#0E7139"/>
<path d="M29.4366 47.8299C29.6073 47.8299 29.7779 47.8299 29.9566 47.8227C30.2654 47.8156 30.566 47.8013 30.8747 47.7869L31.4597 47.7583V45.8741L31.2891 45.8526C30.0297 45.6448 29.3879 45.5732 28.9735 45.8526C28.5673 46.132 28.4942 46.7123 28.421 47.6365L28.4048 47.8299H29.0223C29.1685 47.8299 29.2985 47.8299 29.4366 47.8299Z" fill="#0E7139"/>
<path d="M8.75013 31.1453L11.8701 30.8301L10.1801 29.125L8.53076 30.5077L8.75013 31.1453Z" fill="#0E7139"/>
<path d="M9.96849 51.7134L18.3779 39.7708L16.2343 38.0371L9.86296 47.0639L7.33683 43.9977L5.37793 45.9177L9.96849 51.7134Z" fill="#0E7139"/>
</svg>
