<svg width="71" height="70" viewBox="0 0 71 70" fill="none" xmlns="http://www.w3.org/2000/svg">
<path d="M67.8993 18.7101C67.8995 18.7103 67.8998 18.7106 67.9001 18.7108L66.2811 20.3M67.8993 18.7101L66.281 20.2999M67.8993 18.7101C67.55 18.3542 67.1973 17.999 66.8442 17.6455C66.8441 17.6454 66.844 17.6453 66.8439 17.6452C66.432 17.233 66.0194 16.8229 65.6106 16.4167C65.237 16.0453 64.8665 15.6771 64.5025 15.3132L62.8963 16.9194M67.8993 18.7101L66.116 20.4621M66.2811 20.3C66.2811 20.3 66.2811 20.3 66.281 20.2999M66.2811 20.3L66.116 20.4621M66.2811 20.3C66.9433 21.0568 67.3426 21.7569 67.5108 22.5383C67.5144 22.914 67.515 23.2959 67.5151 23.6901L66.116 20.4621M66.281 20.2999L66.116 20.4621M66.281 20.2999C66.0017 19.9807 65.6757 19.6515 65.3005 19.3018L65.2975 19.299C64.5559 18.6056 63.8066 17.8442 63.103 17.1293C63.0336 17.0588 62.9647 16.9888 62.8963 16.9194M62.8963 16.9194L64.5025 15.3131C64.2726 15.0832 64.0505 14.9431 63.9492 14.8817C63.916 14.8616 63.8832 14.8426 63.8648 14.8321L62.427 16.7334C62.4848 16.6959 62.5422 16.6576 62.5992 16.6183C62.6371 16.6566 62.6753 16.6952 62.7136 16.734C62.7741 16.7953 62.835 16.8571 62.8963 16.9194ZM16.5553 29.5712C16.5558 29.5711 16.5562 29.5711 16.5567 29.5711L16.6542 31.8138M16.5553 29.5712L16.6541 31.8138M16.5553 29.5712C16.3316 29.581 16.097 29.6127 15.8594 29.6672C15.8593 29.6673 15.8591 29.6673 15.8589 29.6674C15.4351 29.7647 15.0021 29.9346 14.6054 30.1821M16.6542 31.8138C16.6541 31.8138 16.6541 31.8138 16.6541 31.8138M16.6542 31.8138L16.6653 32.0687L16.6541 31.8138M16.6542 31.8138C17.1081 31.8164 17.5654 31.8146 18.0237 31.8129C18.3174 31.8117 18.6115 31.8106 18.9054 31.8106H20.0085H20.0086L16.0044 31.8067C16.22 31.8104 16.4367 31.8126 16.6541 31.8138M60.3775 31.827C60.3776 31.8269 60.3796 31.825 60.3836 31.8218C60.3795 31.8255 60.3775 31.8272 60.3775 31.827ZM63.2925 16.0828C63.2925 16.0832 63.2869 16.0871 63.2761 16.0934C63.2872 16.0856 63.2926 16.0824 63.2925 16.0828ZM62.0196 16.042C62.0179 16.0408 62.0163 16.0396 62.0149 16.0386C62.0089 16.0342 62.0059 16.0316 62.0059 16.0314C62.0059 16.0311 62.0087 16.0331 62.0143 16.0376C62.0159 16.0389 62.0176 16.0403 62.0196 16.042ZM55.365 6.35469L54.3686 7.35116L55.365 6.35469ZM53.82 7.39819C53.811 7.20829 53.8384 7.05108 53.8706 6.93732L53.4188 7.43254C53.5674 7.5792 53.713 7.7235 53.8546 7.8651L53.9014 7.81826C53.8637 7.71307 53.8281 7.57106 53.82 7.39819Z" fill="#115C07" stroke="#115C07" stroke-width="5"/>
<path d="M40.1792 19.4411C40.1722 18.6291 40.6132 18.09 41.2852 17.957C41.9363 17.824 42.6013 18.202 42.8113 18.9161C43.2173 20.2672 43.5813 21.6252 43.9594 22.9833C45.0234 26.7915 46.0875 30.6067 47.1515 34.4149C47.1865 34.5479 47.2215 34.6809 47.2565 34.8139C47.4456 35.626 47.0745 36.312 46.3255 36.536C45.5975 36.76 44.8694 36.368 44.6314 35.563C44.2534 34.2959 43.9244 33.0218 43.5673 31.7548C42.4823 27.8556 41.3972 23.9564 40.3192 20.0571C40.2562 19.8121 40.2072 19.5671 40.1792 19.4411Z" fill="#115C07"/>
<path d="M55.8055 25.9788C55.8055 28.268 53.9714 30.0951 51.6823 30.0811C49.4491 30.0671 47.608 28.219 47.608 25.9858C47.608 23.7247 49.4771 21.8696 51.7453 21.8836C53.9994 21.8906 55.8055 23.7177 55.8055 25.9788ZM51.6823 24.6138C50.9612 24.6348 50.3452 25.2578 50.3452 25.9788C50.3452 26.7209 50.9962 27.3579 51.7453 27.3439C52.5083 27.3229 53.0963 26.6859 53.0613 25.9158C53.0403 25.1738 52.4173 24.5928 51.6823 24.6138Z" fill="#115C07"/>
<path d="M39.9634 26.4537C39.9634 28.7288 38.1643 30.5419 35.8961 30.5559C33.628 30.5699 31.7449 28.6868 31.7659 26.4257C31.7939 24.1716 33.635 22.3585 35.8821 22.3655C38.1643 22.3725 39.9634 24.1786 39.9634 26.4537ZM37.2262 26.4607C37.2262 25.7047 36.6522 25.1166 35.8961 25.1026C35.1471 25.0956 34.5311 25.6767 34.5101 26.4117C34.4821 27.1678 35.1191 27.8118 35.8891 27.8048C36.6382 27.8048 37.2262 27.2168 37.2262 26.4607Z" fill="#115C07"/>
<path d="M26.3044 45.1867C26.0244 45.6627 25.8844 46.0408 25.6324 46.2998C24.1553 47.8118 22.6642 49.3099 21.1521 50.787C20.5081 51.417 19.7101 51.417 19.15 50.85C18.59 50.283 18.604 49.4919 19.234 48.8479C20.7181 47.3428 22.2162 45.8517 23.7143 44.3607C24.1763 43.9056 24.7503 43.6746 25.3174 44.0456C25.7164 44.3117 25.9684 44.7807 26.3044 45.1867Z" fill="#115C07"/>
<path d="M15.8109 47.2009C15.3909 46.8439 14.9289 46.5919 14.6629 46.1999C14.3199 45.7028 14.4809 45.1358 14.8869 44.7018C15.4119 44.1418 15.9719 43.6027 16.518 43.0567C17.463 42.1046 18.4081 41.1596 19.3601 40.2145C20.0672 39.5145 20.8722 39.4515 21.4602 40.0395C22.0623 40.6346 22.0133 41.4186 21.2992 42.1396C19.8782 43.5747 18.4501 45.0098 17.001 46.4239C16.707 46.7039 16.308 46.8789 15.8109 47.2009Z" fill="#115C07"/>
<path d="M24.2604 55.6515C23.8964 55.3434 23.4274 55.0914 23.1614 54.7064C22.8044 54.1744 23.0004 53.6074 23.4414 53.1593C24.7015 51.8853 25.9755 50.6182 27.2426 49.3511C27.5296 49.0641 27.8096 48.7631 28.1246 48.4971C28.7197 48 29.4477 48.028 29.9727 48.5461C30.4838 49.0571 30.5608 49.8481 30.0357 50.3942C28.4677 52.0113 26.8716 53.5933 25.2615 55.1684C25.0515 55.3714 24.7085 55.4414 24.2604 55.6515Z" fill="#115C07"/>
<path d="M36.8266 46.0327C36.6306 46.2777 36.3996 46.8027 36.0216 46.9707C35.6366 47.1387 35.0275 47.0827 34.6425 46.8727C34.1665 46.6137 33.7885 46.1377 33.4315 45.6967C32.9834 45.1436 33.0884 44.3806 33.5855 43.9116C34.0615 43.4705 34.8245 43.3935 35.3286 43.8346C35.9376 44.3876 36.6866 44.8636 36.8266 46.0327Z" fill="#115C07"/>
<path d="M30.3436 42.1242C29.3915 41.9842 27.9915 40.6611 28.0895 39.8351C28.1385 39.4221 28.4395 38.96 28.7615 38.673C29.1605 38.316 29.7276 38.358 30.1546 38.694C30.5956 39.044 31.0786 39.4221 31.3307 39.8981C31.5267 40.2761 31.5407 40.8851 31.3727 41.2772C31.2116 41.6482 30.7006 41.8512 30.3436 42.1242Z" fill="#115C07"/>
<path d="M26.41 35.6443C26.2349 35.8683 26.0179 36.4004 25.6329 36.5684C25.2479 36.7364 24.6599 36.6664 24.2468 36.4844C23.8618 36.3164 23.5538 35.9033 23.2808 35.5533C22.8538 35.0003 22.9378 34.2933 23.4138 33.8172C23.9038 33.3202 24.6599 33.2502 25.2059 33.7122C25.7309 34.1602 26.326 34.5873 26.41 35.6443Z" fill="#115C07"/>
<path d="M58.0378 37.1367C58.0238 37.8858 57.4288 38.4668 56.6797 38.4598C55.9027 38.4528 55.3077 37.8298 55.3427 37.0457C55.3707 36.2967 55.9797 35.7367 56.7357 35.7577C57.4778 35.7857 58.0518 36.3877 58.0378 37.1367Z" fill="#115C07"/>
</svg>
