<svg width="14" height="13" viewBox="0 0 14 13" fill="none" xmlns="http://www.w3.org/2000/svg">
<path d="M10.1208 4.35132C8.86935 4.35132 8.02974 5.03799 7.68677 5.68903H7.65065V4.55928H5.18271V12.8444H7.75269V8.74184C7.75269 7.66154 7.95751 6.61711 9.29522 6.61711C10.6133 6.61711 10.6329 7.84987 10.6329 8.81116V12.8449H13.2002V12.8444H13.2032V8.29295C13.2032 6.06642 12.7237 4.35132 10.1208 4.35132Z" fill="#F7F7F7"/>
<path d="M3.57057 4.55957H0.997681V12.8447H3.57057V4.55957Z" fill="#F7F7F7"/>
<path d="M2.28314 0.434814C1.46049 0.434814 0.792969 1.10234 0.792969 1.92498C0.792969 2.74763 1.46049 3.42921 2.28314 3.42921C3.10579 3.42921 3.77331 2.74763 3.77331 1.92498C3.77282 1.10234 3.1053 0.434814 2.28314 0.434814Z" fill="#F7F7F7"/>
</svg>
