<svg width="35" height="35" viewBox="0 0 35 35" fill="none" xmlns="http://www.w3.org/2000/svg">
<path d="M26.3073 11.0457C22.778 11.0457 20.41 12.9823 19.4427 14.8184H19.3409V11.6322H12.3806V34.9986H19.6287V23.4282C19.6287 20.3814 20.2063 17.4358 23.979 17.4358C27.6963 17.4358 27.7517 20.9126 27.7517 23.6237V35H34.9923V34.9986H35.0005V22.1622C35.0005 15.8827 33.6483 11.0457 26.3073 11.0457Z" fill="#115C07"/>
<path d="M7.83341 11.6331H0.577148V34.9995H7.83341V11.6331Z" fill="#115C07"/>
<path d="M4.20268 0C1.88259 0 0 1.8826 0 4.2027C0 6.5228 1.88259 8.44505 4.20268 8.44505C6.52277 8.44505 8.40537 6.5228 8.40537 4.2027C8.404 1.8826 6.52141 0 4.20268 0Z" fill="#115C07"/>
</svg>
