<svg width="24" height="20" viewBox="0 0 24 20" fill="none" xmlns="http://www.w3.org/2000/svg">
<path d="M0 17.9482C0 12.7985 0 7.649 0 2.49934C0.0143778 2.48222 0.0345067 2.46753 0.0414686 2.44747C0.049944 2.423 0.0391985 2.38858 0.0511547 2.36786C0.108969 2.2672 0.166631 2.16574 0.233526 2.0721C0.325241 1.94355 0.455701 1.86361 0.59176 1.80847C0.688924 1.76916 0.799709 1.75953 0.905045 1.75447C1.07879 1.74615 1.25299 1.75268 1.42704 1.7517C1.45867 1.75154 1.4903 1.74534 1.52844 1.74126C1.52844 1.51059 1.52299 1.28775 1.53101 1.0654C1.53449 0.969472 1.5522 0.868329 1.58776 0.781052C1.63392 0.667674 1.69522 0.558048 1.76665 0.461146C1.83642 0.366365 1.91997 0.278925 2.01062 0.208125C2.08009 0.153964 2.1706 0.131778 2.25111 0.0937675C2.38097 0.0324291 2.51642 0.00273864 2.65808 0.00290177C3.17008 0.00339117 3.68208 0.00224923 4.19408 0.00388058C4.27944 0.00420684 4.36132 0.00241236 4.44819 0.0412383C4.61724 0.116769 4.71138 0.298175 4.65099 0.486432C4.58698 0.685619 4.50313 0.752667 4.30986 0.752993C3.77259 0.753972 3.23546 0.755114 2.69818 0.752177C2.58362 0.751525 2.47783 0.776321 2.38884 0.850873C2.29757 0.927383 2.22114 1.01972 2.22311 1.15806C2.22372 1.20422 2.22175 1.25039 2.22175 1.29672C2.2216 5.45632 2.2216 9.61575 2.22175 13.7753C2.22175 13.8324 2.21418 13.8923 2.2278 13.9457C2.24158 13.9995 2.26897 14.0558 2.30499 14.0951C2.37673 14.1734 2.4689 14.2 2.57348 14.1998C5.07037 14.1975 7.56742 14.1975 10.0643 14.1975C10.1778 14.1975 10.2913 14.2 10.4047 14.2029C10.4398 14.2039 10.476 14.2055 10.5097 14.215C10.6671 14.2594 10.8251 14.3021 10.9804 14.3545C11.0635 14.3825 11.1448 14.422 11.2204 14.4683C11.3063 14.521 11.384 14.5889 11.4679 14.6455C11.477 14.6515 11.5103 14.632 11.5203 14.6157C11.5298 14.6003 11.5239 14.5736 11.5239 14.5519C11.5239 10.4712 11.5239 6.39042 11.524 2.30978C11.524 2.12283 11.5183 1.93457 11.4538 1.75986C11.3818 1.56459 11.2825 1.38807 11.1467 1.22886C10.9683 1.01972 10.7495 0.893615 10.509 0.810579C10.379 0.765718 10.2343 0.756092 10.0961 0.755603C8.66346 0.751851 7.23083 0.753319 5.79834 0.753156C5.75037 0.753156 5.70209 0.755603 5.65472 0.749241C5.6252 0.745326 5.59721 0.727381 5.56875 0.714983C5.49701 0.683498 5.44798 0.629827 5.41241 0.554132C5.38562 0.497199 5.36565 0.268647 5.39985 0.217586C5.48657 0.088221 5.59372 0.00143356 5.75324 0.0015967C7.21615 0.00339117 8.67905 0.00110729 10.1418 0.00502251C10.2954 0.00534878 10.4489 0.0378125 10.6023 0.0552679C10.6073 0.0559204 10.6126 0.0559204 10.6172 0.057878C10.7271 0.103066 10.8383 0.144992 10.9465 0.194585C11.054 0.243851 11.1681 0.286103 11.2621 0.357719C11.3998 0.46294 11.5256 0.587575 11.6497 0.71172C11.7173 0.779258 11.7786 0.857888 11.8284 0.94125C11.8535 0.983175 11.8684 1.00373 11.9141 0.984317C11.921 0.9605 11.9216 0.928525 11.9368 0.910744C12.0146 0.81841 12.0902 0.721997 12.1777 0.641246C12.3071 0.521832 12.4415 0.406985 12.5824 0.304048C12.6699 0.240099 12.7713 0.19589 12.8704 0.153475C12.9418 0.122969 13.0195 0.10796 13.0952 0.0901786C13.225 0.0598356 13.355 0.0285138 13.4862 0.00600132C13.5503 -0.00492867 13.6171 0.00241237 13.6827 0.00241237C16.1417 0.00224923 18.601 0.0025755 21.06 0.0015967C21.2171 0.0015967 21.3656 0.0322659 21.5133 0.0911574C21.6362 0.140261 21.7494 0.202904 21.8459 0.295728C22.0696 0.510902 22.2192 0.769796 22.2316 1.10292C22.2351 1.19525 22.234 1.28775 22.2343 1.38024C22.2348 1.49901 22.2344 1.61793 22.2344 1.74289C22.2747 1.74615 22.3068 1.75089 22.3387 1.75105C22.4825 1.75186 22.6263 1.7535 22.7701 1.75089C22.9642 1.7473 23.1465 1.78335 23.3184 1.89069C23.4211 1.9548 23.5054 2.03555 23.5757 2.13409C23.6454 2.23197 23.7078 2.33572 23.721 2.46443C23.7222 2.47716 23.7468 2.48711 23.7608 2.4982C23.7608 7.64786 23.7608 12.7974 23.7608 17.947C23.7462 17.9641 23.7207 17.9801 23.7188 17.9987C23.7078 18.1095 23.6527 18.1999 23.5966 18.2844C23.4991 18.4309 23.3776 18.5478 23.2123 18.609C23.0983 18.6513 22.9872 18.6963 22.865 18.6961C22.353 18.6961 21.841 18.6978 21.3288 18.695C21.2183 18.6943 21.1083 18.7115 20.997 18.6573C20.9311 18.6252 20.8746 18.5832 20.8431 18.5271C20.7726 18.4015 20.7581 18.2655 20.8321 18.1271C20.8904 18.0181 20.9671 17.95 21.0868 17.9475C21.1272 17.9467 21.1675 17.9459 21.2079 17.9459C21.7501 17.9457 22.2924 17.9455 22.8348 17.946C22.9143 17.946 22.9862 17.9222 23.0251 17.8455C23.0491 17.7981 23.0631 17.738 23.0631 17.6837C23.0647 12.7111 23.0646 7.7384 23.0646 2.76574C23.0646 2.73312 23.0668 2.7 23.0623 2.66803C23.0593 2.64617 23.0499 2.62251 23.037 2.60538C22.9807 2.5305 22.909 2.49608 22.8171 2.49902C22.6709 2.50375 22.5246 2.50032 22.3782 2.50032C22.2346 2.50032 22.2346 2.50032 22.2346 2.65514C22.2346 6.75503 22.2346 10.8551 22.2343 14.955C22.2343 15.0827 22.237 15.2111 22.2267 15.338C22.2193 15.4299 22.2002 15.523 22.1718 15.61C22.1394 15.7086 22.0979 15.8059 22.0474 15.8951C21.97 16.0317 21.896 16.1762 21.794 16.2897C21.6498 16.4503 21.4758 16.5733 21.281 16.6631C21.0988 16.7473 20.9152 16.8085 20.7154 16.8046C20.6347 16.803 20.5539 16.8062 20.4732 16.8062C14.8535 16.8064 9.23373 16.8072 3.61398 16.8038C3.31734 16.8036 3.01571 16.8545 2.72376 16.7524C2.61661 16.7149 2.50749 16.6796 2.40669 16.6269C2.31982 16.5816 2.24037 16.5171 2.16303 16.4537C2.07585 16.3822 1.98172 16.3137 1.91361 16.2237C1.78618 16.0555 1.6766 15.8746 1.61395 15.6613C1.57066 15.5142 1.52284 15.3716 1.52677 15.2147C1.52904 15.1223 1.52526 15.0298 1.52526 14.9374C1.52511 10.8482 1.52511 6.75927 1.52511 2.67015C1.52511 2.64029 1.52344 2.61028 1.52541 2.58042C1.52934 2.52006 1.50331 2.49886 1.44898 2.49951C1.26237 2.5013 1.07531 2.49396 0.889154 2.5044C0.837848 2.50734 0.788055 2.55807 0.739322 2.58988C0.669855 2.63507 0.696945 2.71093 0.696945 2.7739C0.696037 7.74232 0.696189 12.7096 0.696189 17.6769C0.696189 17.7095 0.693313 17.7428 0.698307 17.7746C0.702242 17.7989 0.712837 17.8243 0.726609 17.8442C0.781245 17.9235 0.858128 17.9475 0.946968 17.9475C3.72915 17.9469 6.51118 17.9472 9.29336 17.9467C9.42972 17.9467 9.55685 17.9597 9.68232 18.0398C9.79598 18.1124 9.8718 18.2131 9.9219 18.3299C9.96201 18.4234 9.96564 18.5371 9.97578 18.6428C9.98834 18.7735 10.0316 18.8896 10.1037 18.9919C10.2311 19.1728 10.4083 19.2488 10.6142 19.2492C11.4541 19.2505 12.2941 19.2493 13.1339 19.2501C13.256 19.2503 13.3674 19.2186 13.4761 19.1563C13.6762 19.0415 13.7708 18.8557 13.7812 18.6237C13.7888 18.4563 13.8299 18.3074 13.926 18.181C14.0314 18.0424 14.1682 17.956 14.3401 17.9493C14.3855 17.9475 14.4309 17.947 14.4763 17.947C16.1991 17.9469 17.9219 17.9469 19.6446 17.947C19.7002 17.947 19.7557 17.9465 19.811 17.9513C19.8371 17.9535 19.865 17.963 19.8878 17.9772C19.9718 18.0294 20.0322 18.0976 20.0636 18.2048C20.0958 18.3149 20.0605 18.5302 19.9705 18.5922C19.8778 18.656 19.7799 18.6994 19.6629 18.6992C17.973 18.6965 16.2831 18.6973 14.593 18.6973C14.5582 18.6973 14.5236 18.6973 14.4884 18.6973C14.466 18.8098 14.4571 18.9193 14.4215 19.0173C14.3769 19.1405 14.3077 19.2531 14.2542 19.3728C14.1927 19.51 14.0868 19.6035 13.9826 19.6963C13.8731 19.7939 13.7469 19.8609 13.6097 19.9113C13.4873 19.9565 13.3632 19.9958 13.2371 19.9965C12.3316 20.0015 11.4261 20.0007 10.5206 19.9968C10.418 19.9963 10.3154 19.965 10.2129 19.9475C10.2058 19.9464 10.1992 19.941 10.1924 19.9377C10.1351 19.9103 10.0754 19.8878 10.0213 19.8545C9.92856 19.7973 9.8326 19.7421 9.75012 19.6699C9.65038 19.5824 9.55307 19.4886 9.49677 19.3571C9.44289 19.2314 9.37766 19.1107 9.33105 18.9819C9.29926 18.894 9.29094 18.7963 9.27081 18.6973C9.23403 18.6973 9.19907 18.6973 9.16411 18.6973C6.45261 18.6973 3.74111 18.6969 1.0296 18.6981C0.823773 18.6982 0.628386 18.6726 0.444501 18.5576C0.339316 18.4917 0.252595 18.4118 0.182371 18.3088C0.115931 18.2115 0.0490359 18.1129 0.0393498 17.9847C0.0384417 17.9715 0.0137724 17.9602 0 17.9482ZM21.5387 7.5291C21.5387 5.46023 21.5387 3.39136 21.5386 1.32233C21.5386 1.25708 21.5431 1.19068 21.5333 1.12706C21.5243 1.06849 21.5121 1.00047 21.4782 0.958053C21.3725 0.825914 21.2403 0.752014 21.0694 0.752177C18.5976 0.754624 16.1258 0.753972 13.6541 0.753319C13.4943 0.753319 13.3425 0.789861 13.1905 0.840922C13.0812 0.877628 12.9842 0.933093 12.8851 0.992474C12.7396 1.07975 12.6263 1.19982 12.5287 1.33897C12.473 1.41825 12.4236 1.50488 12.3849 1.59493C12.334 1.71336 12.2829 1.83539 12.257 1.96182C12.2329 2.0796 12.2375 2.20521 12.2375 2.3274C12.2367 6.39727 12.2367 10.4671 12.2369 14.537C12.2369 14.5643 12.2313 14.5948 12.241 14.6173C12.2479 14.6333 12.2802 14.6511 12.2942 14.646C12.3257 14.6347 12.3528 14.6095 12.3819 14.5902C12.4727 14.53 12.5594 14.46 12.6555 14.4125C12.7578 14.362 12.87 14.3347 12.9765 14.2935C13.1375 14.231 13.3031 14.2003 13.474 14.1995C13.5622 14.199 13.6506 14.1977 13.7388 14.1977C16.2106 14.198 18.6824 14.1985 21.1541 14.1982C21.2275 14.1982 21.2969 14.1972 21.3704 14.1577C21.4742 14.1021 21.5245 14.023 21.5357 13.9068C21.5407 13.8556 21.5386 13.8036 21.5386 13.752C21.5389 11.6778 21.5387 9.60351 21.5387 7.5291ZM11.51 16.0569C11.5056 16.0113 11.5088 15.9768 11.4982 15.9485C11.457 15.8382 11.4179 15.7259 11.3659 15.6215C11.2923 15.4736 11.1826 15.356 11.0594 15.2546C10.9442 15.16 10.8186 15.0881 10.6792 15.0385C10.5417 14.9896 10.4059 14.9468 10.2594 14.9471C9.49541 14.9481 8.73127 14.9465 7.96727 14.9466C6.17186 14.9468 4.37645 14.9476 2.58104 14.9466C2.48721 14.9466 2.39005 14.9659 2.30136 14.9072C2.2838 14.8956 2.25399 14.9055 2.2222 14.9055C2.2222 14.9762 2.2275 15.0414 2.22114 15.1054C2.20828 15.2346 2.23477 15.3602 2.28274 15.4708C2.34146 15.6062 2.42062 15.733 2.53443 15.83C2.69486 15.9669 2.86815 16.0599 3.07776 16.056C3.11802 16.0551 3.15843 16.0571 3.19884 16.0571C5.93228 16.0571 8.66588 16.0571 11.3993 16.0571C11.4316 16.0569 11.4638 16.0569 11.51 16.0569ZM21.5302 14.9047C21.5042 14.9047 21.4779 14.8962 21.4603 14.906C21.3436 14.9711 21.2185 14.9463 21.0971 14.9463C18.6155 14.9475 16.134 14.9467 13.6524 14.9465C13.5642 14.9465 13.475 14.9414 13.3879 14.9525C13.2974 14.9641 13.2043 14.9807 13.1201 15.0165C13.0006 15.0672 12.879 15.1238 12.7749 15.2031C12.6555 15.2941 12.5356 15.3979 12.45 15.5232C12.3651 15.6473 12.3207 15.8044 12.2626 15.9488C12.251 15.9777 12.2572 16.015 12.2544 16.0568C12.3 16.0568 12.3348 16.0568 12.3698 16.0568C15.0934 16.0568 17.8171 16.0568 20.5407 16.0566C20.624 16.0566 20.7072 16.0543 20.7903 16.0517C20.8127 16.0511 20.8378 16.0517 20.8571 16.0414C20.9692 15.9816 21.086 15.9284 21.19 15.8547C21.3712 15.7263 21.4761 15.5294 21.5249 15.3096C21.5531 15.1845 21.5302 15.046 21.5302 14.9047Z" fill="black"/>
<path d="M6.68209 4.10198C7.50435 4.10198 8.32646 4.09757 9.14872 4.10443C9.42901 4.10671 9.66057 4.23657 9.84445 4.47213C9.98278 4.64929 10.0377 4.84979 10.0377 5.0741C10.038 6.00657 10.0385 6.93905 10.0374 7.87152C10.0373 8.00921 10.0302 8.15065 9.96765 8.27234C9.91528 8.37447 9.84112 8.46403 9.77271 8.55587C9.68826 8.66941 9.56749 8.73026 9.44868 8.78589C9.37286 8.82145 9.28478 8.82863 9.20138 8.84266C9.15704 8.85017 9.11073 8.8456 9.06533 8.8456C7.47393 8.84576 5.88253 8.84462 4.29114 8.84707C4.12632 8.84739 3.96756 8.81477 3.82227 8.74282C3.68591 8.67512 3.56332 8.57512 3.47932 8.43124C3.41015 8.3128 3.34447 8.19534 3.33615 8.04983C3.32919 7.92976 3.30436 7.81018 3.30391 7.69044C3.30103 6.83676 3.30073 5.98324 3.30436 5.12956C3.30482 5.0126 3.31223 4.88731 3.35128 4.78062C3.42135 4.58926 3.51368 4.40867 3.68681 4.29105C3.78943 4.22123 3.89552 4.17588 4.011 4.13673C4.11406 4.10182 4.21289 4.10296 4.31399 4.10263C5.10326 4.10116 5.89267 4.10198 6.68209 4.10198ZM6.6771 4.8524C5.86498 4.8524 5.05286 4.8524 4.24074 4.8524C4.10211 4.8524 3.99859 4.96447 3.99843 5.11586C3.99813 6.01848 3.99995 6.92094 3.99632 7.82356C3.99586 7.95195 4.11875 8.09877 4.24588 8.09844C5.86755 8.09387 7.48937 8.09518 9.11103 8.09567C9.22106 8.09567 9.35167 8.01704 9.34183 7.85847C9.33971 7.82324 9.34229 7.78784 9.34229 7.75244C9.34229 7.06189 9.34229 6.37134 9.34229 5.68096C9.34229 5.48797 9.33714 5.29482 9.34335 5.10199C9.34834 4.94897 9.23453 4.84865 9.10573 4.84962C8.29634 4.85517 7.48664 4.8524 6.6771 4.8524Z" fill="black"/>
<path d="M6.67783 10.1481C7.67868 10.1481 8.67968 10.1489 9.68053 10.1468C9.77618 10.1467 9.85669 10.169 9.92994 10.238C10.0164 10.3193 10.0318 10.4225 10.0366 10.5369C10.0427 10.6772 9.96142 10.7631 9.87697 10.8414C9.83883 10.8768 9.77557 10.8827 9.72245 10.8966C9.69627 10.9034 9.66721 10.8985 9.63951 10.8985C7.66536 10.8985 5.69137 10.8977 3.71722 10.9007C3.60098 10.9008 3.50775 10.8543 3.41982 10.7868C3.3328 10.7199 3.30041 10.5344 3.33007 10.4157C3.34945 10.3385 3.37835 10.2739 3.43662 10.23C3.48127 10.1964 3.53258 10.1667 3.58479 10.1529C3.63488 10.1396 3.68997 10.1483 3.74295 10.1483C4.72139 10.1481 5.69969 10.1481 6.67783 10.1481Z" fill="black"/>
<path d="M6.68235 11.9478C7.67609 11.9478 8.66982 11.9487 9.66355 11.9463C9.77055 11.946 9.86272 11.9711 9.93915 12.053C9.99076 12.1084 10.0235 12.1717 10.0312 12.2531C10.0499 12.4514 10.0041 12.5711 9.81762 12.6587C9.77192 12.6802 9.71955 12.6962 9.67036 12.6962C7.67533 12.698 5.68029 12.697 3.68526 12.6996C3.57463 12.6998 3.48896 12.6447 3.40709 12.5848C3.33051 12.5288 3.29736 12.322 3.33172 12.2236C3.40845 12.0039 3.48231 11.9478 3.70115 11.9478C4.69488 11.9476 5.68862 11.9478 6.68235 11.9478Z" fill="black"/>
<path d="M5.79646 2.39992C6.51005 2.39992 7.2238 2.40139 7.93739 2.39878C8.09176 2.39812 8.18499 2.49666 8.25537 2.61933C8.31772 2.72815 8.25279 2.96469 8.15336 3.05344C8.08238 3.11706 8.00353 3.15115 7.90758 3.15115C6.49794 3.14936 5.08831 3.14887 3.67868 3.15164C3.52749 3.15197 3.37115 3.03957 3.33407 2.87872C3.29941 2.72782 3.33044 2.55 3.44576 2.46811C3.50282 2.42749 3.5732 2.39633 3.65553 2.39698C4.36912 2.4022 5.08287 2.39992 5.79646 2.39992Z" fill="black"/>
<path d="M14.3916 3.98989C14.3916 3.88939 14.3816 3.78744 14.3945 3.6889C14.4066 3.59575 14.4415 3.50587 14.4689 3.41549C14.4837 3.36655 14.5051 3.32006 14.5216 3.27177C14.6094 3.01663 14.7722 2.82168 14.9582 2.64696C15.0306 2.5791 15.1064 2.51222 15.1896 2.46197C15.2707 2.41287 15.3628 2.38448 15.4508 2.34924C15.5208 2.32119 15.5917 2.29541 15.6627 2.27029C15.6839 2.26278 15.7066 2.25658 15.7287 2.25642C15.9052 2.25512 16.0821 2.24598 16.2577 2.25887C16.348 2.26556 16.4359 2.31172 16.5245 2.34125C16.58 2.35985 16.6354 2.3791 16.6898 2.40128C16.7229 2.41482 16.7556 2.43146 16.7853 2.45218C16.8431 2.49264 16.8992 2.53603 16.9551 2.57975C17.0327 2.64044 17.0789 2.56556 17.1347 2.53261C17.1816 2.50487 17.2282 2.47616 17.2752 2.44827C17.3033 2.43163 17.3304 2.4114 17.3602 2.39998C17.4805 2.35381 17.6016 2.31026 17.7225 2.26588C17.7296 2.26327 17.7366 2.25822 17.7436 2.25822C17.9426 2.25822 18.1452 2.23391 18.3396 2.26654C18.5082 2.29492 18.6757 2.37094 18.8287 2.45691C19.0052 2.55594 19.1636 2.69411 19.2877 2.86459C19.3683 2.97519 19.4247 3.10586 19.4952 3.22544C19.5475 3.31402 19.5644 3.41386 19.593 3.51141C19.6519 3.71256 19.6871 3.91615 19.6676 4.1248C19.6566 4.24356 19.6172 4.35938 19.5886 4.47603C19.5759 4.52774 19.5571 4.57749 19.5431 4.62872C19.4775 4.86738 19.3353 5.05548 19.1892 5.23835C19.0781 5.37751 18.9587 5.5103 18.8323 5.6333C18.698 5.76413 18.5508 5.87996 18.4095 6.00247C18.3185 6.08143 18.2314 6.1661 18.1362 6.23853C18.0133 6.332 17.8836 6.41504 17.7579 6.50444C17.6841 6.55697 17.6143 6.61651 17.5391 6.66692C17.4153 6.74979 17.2848 6.82206 17.1644 6.90999C17.0892 6.96496 17.0095 6.96317 16.9357 6.94441C16.8621 6.92581 16.7936 6.87704 16.7277 6.83299C16.5944 6.74375 16.463 6.65093 16.3332 6.55582C16.2047 6.4617 16.0791 6.36333 15.9524 6.26626C15.8387 6.17915 15.7221 6.09595 15.6129 6.00264C15.3393 5.76903 15.0681 5.53183 14.8465 5.2377C14.7584 5.1209 14.6672 5.0054 14.5926 4.87897C14.5405 4.79071 14.5187 4.68239 14.4753 4.58745C14.3885 4.39739 14.3828 4.19429 14.3916 3.98989ZM17.0052 6.13249C17.0404 6.11585 17.0743 6.10623 17.1013 6.08616C17.2699 5.96022 17.4374 5.83249 17.6045 5.7041C17.7661 5.57995 17.9288 5.45728 18.0867 5.32775C18.1646 5.26364 18.2308 5.18305 18.3054 5.11388C18.5413 4.89544 18.7824 4.68141 18.8933 4.35237C18.9271 4.25237 18.9618 4.14878 18.9711 4.04421C18.9789 3.9571 18.941 3.86623 18.9398 3.77683C18.9383 3.65481 18.8838 3.55008 18.8293 3.46133C18.7656 3.35758 18.6924 3.25497 18.5823 3.17992C18.4773 3.10847 18.3697 3.03734 18.2562 3.01483C18.0681 2.97764 17.8695 2.97225 17.6874 3.05823C17.5374 3.12903 17.4164 3.24404 17.306 3.3783C17.1426 3.57732 16.9364 3.60538 16.7451 3.39265C16.6796 3.31973 16.6197 3.24501 16.5408 3.18188C16.4369 3.09868 16.3235 3.03261 16.208 3.01483C16.0036 2.98318 15.7965 2.97747 15.5952 3.08889C15.4468 3.17111 15.3261 3.28237 15.2328 3.41728C15.128 3.56851 15.0746 3.75008 15.0746 3.94894C15.0747 4.13768 15.0961 4.31991 15.1854 4.48092C15.2432 4.58516 15.3278 4.67211 15.4007 4.76657C15.6244 5.05678 15.8879 5.29822 16.1755 5.5116C16.2897 5.59627 16.3961 5.69317 16.5089 5.78045C16.5909 5.84374 16.6775 5.90019 16.7619 5.95989C16.8438 6.01781 16.9254 6.07588 17.0052 6.13249Z" fill="black"/>
<path d="M16.9346 10.1958C17.9283 10.1958 18.9221 10.196 19.916 10.1957C20.0027 10.1957 20.095 10.1869 20.1616 10.2551C20.2108 10.3053 20.2589 10.3715 20.2759 10.4399C20.2954 10.5184 20.2936 10.6105 20.2753 10.6898C20.2616 10.7494 20.2155 10.8089 20.1692 10.8489C20.0914 10.9159 19.9947 10.9458 19.8943 10.9458C17.922 10.9464 15.9495 10.9459 13.9772 10.9468C13.8233 10.9468 13.6952 10.8818 13.6176 10.7458C13.575 10.6714 13.5431 10.58 13.5805 10.4704C13.6164 10.3652 13.6642 10.2861 13.7499 10.2304C13.7724 10.2157 13.7992 10.2038 13.8249 10.2014C13.88 10.1958 13.9357 10.1962 13.9911 10.1962C14.9724 10.1957 15.9536 10.1957 16.9346 10.1958Z" fill="black"/>
<path d="M16.9353 8.39065C17.906 8.39065 18.8767 8.39049 19.8474 8.39098C19.9128 8.39098 19.9785 8.39489 20.0437 8.40044C20.1574 8.41006 20.2755 8.54025 20.2823 8.66178C20.2847 8.70517 20.286 8.74873 20.2847 8.79212C20.2795 8.96472 20.1916 9.0781 20.0313 9.10746C19.9333 9.12541 19.8332 9.13944 19.7341 9.1396C17.8255 9.14139 15.9167 9.14156 14.0081 9.13976C13.8599 9.1396 13.7146 9.11121 13.6306 8.95526C13.5842 8.86896 13.5501 8.78446 13.5801 8.67075C13.6097 8.55803 13.6733 8.48886 13.749 8.42214C13.7646 8.40843 13.7902 8.40419 13.8116 8.4024C13.8794 8.39669 13.9474 8.3913 14.0154 8.39114C14.9888 8.39049 15.9621 8.39065 16.9353 8.39065Z" fill="black"/>
<path d="M17.7762 11.947C18.4797 11.947 19.1831 11.9484 19.8866 11.9453C19.9844 11.9448 20.0659 11.9755 20.139 12.039C20.2173 12.1067 20.2341 12.1992 20.2433 12.3039C20.2566 12.4532 20.192 12.5541 20.0936 12.6339C20.0491 12.67 19.9847 12.6788 19.9281 12.6952C19.9045 12.7021 19.878 12.6972 19.8527 12.6972C18.4659 12.6972 17.0791 12.6961 15.6924 12.6993C15.5757 12.6997 15.479 12.6587 15.3928 12.5863C15.3568 12.5559 15.3378 12.5001 15.316 12.4532C15.3017 12.4225 15.2957 12.3872 15.2872 12.3538C15.2827 12.336 15.273 12.3133 15.279 12.3C15.3184 12.213 15.3223 12.1085 15.4033 12.0417C15.4691 11.9874 15.5344 11.9466 15.6203 11.9468C16.1951 11.9478 16.7701 11.9469 17.3449 11.9466C17.4887 11.9469 17.6325 11.947 17.7762 11.947Z" fill="black"/>
</svg>
