<svg width="35" height="27" viewBox="0 0 35 27" fill="none" xmlns="http://www.w3.org/2000/svg">
<path d="M35 11.3006C34.3583 12.891 33.7679 13.2041 31.9 12.9077C31.8274 13.203 31.8 13.5256 31.669 13.7994C31.3071 14.5625 30.9202 15.3149 30.5048 16.0506C30.3369 16.3482 29.9869 16.441 29.7583 16.1601C29.6333 16.0053 29.6048 15.597 29.7202 15.4518C30.6536 14.2803 30.931 12.9458 30.8643 11.4899C30.8262 10.6613 30.8571 9.82914 30.8571 9.13033C30.0321 9.05533 29.2667 8.97319 28.5 8.92676C28.3476 8.91724 28.1702 9.022 28.0333 9.11485C26.681 10.0315 25.1774 10.022 23.8036 9.09819C23.6571 8.99938 23.4488 8.93628 23.2726 8.94581C22.5393 8.98271 21.8071 9.05414 20.9857 9.11962C21.0631 10.6113 20.7274 12.278 21.2857 13.8922C22.1595 16.4196 24.8964 17.7696 27.4369 16.9518C27.5881 16.903 27.7381 16.8518 27.8821 16.7863C28.219 16.6327 28.5286 16.6422 28.669 17.0244C28.806 17.3934 28.5881 17.603 28.2476 17.747C27.3131 18.1446 26.344 18.2803 25.3381 18.197C24.6298 18.1387 24.4155 18.3315 24.4119 19.0851C24.406 20.6922 24.3905 22.2982 24.4179 23.9053C24.4321 24.7851 24.2202 25.5268 23.3976 25.9577C22.5798 26.3863 21.8238 26.2006 21.125 25.622C20.4179 26.2029 19.6452 26.397 18.8131 25.9387C18.1714 25.5863 17.8488 25.016 17.844 24.2791C17.8393 23.466 17.8429 22.6541 17.8429 21.7387C16.8179 22.2946 15.8226 22.7315 14.6881 22.7518C13.5452 22.772 12.5095 22.4458 11.4298 21.8458C11.4298 22.6196 11.4107 23.3018 11.4345 23.9839C11.4643 24.8494 11.1952 25.5553 10.4 25.966C9.60476 26.3768 8.8631 26.2065 8.16072 25.6315C8.05595 25.7006 7.94762 25.7756 7.83691 25.8458C7.2 26.253 6.53571 26.3137 5.86429 25.9565C5.21667 25.6113 4.87024 25.0529 4.86429 24.3172C4.85238 22.7113 4.87024 21.1041 4.84762 19.4982C4.84405 19.2196 4.71786 18.9375 4.62381 18.666C4.35476 17.8851 4.18333 17.0422 3.76667 16.347C3.35119 15.6518 2.60476 15.1613 2.14881 14.4827C1.41905 13.3946 1.175 12.147 1.40119 10.8422C1.47262 10.4303 1.32976 10.1827 1.09167 9.85057C0.654762 9.23628 0.357143 8.52081 0 7.84819C0 7.41128 0 6.97557 0 6.53866C0.178571 6.10414 0.311905 5.64224 0.544048 5.23866C1.42381 3.70533 3.16071 3.03866 4.95714 3.46843C5.17738 3.52081 5.50476 3.45295 5.67857 3.31247C6.97976 2.26366 8.43333 1.76605 10.1036 2.00771C10.4893 2.06366 10.7583 1.94581 11.0714 1.72319C11.5667 1.37081 12.1119 1.06962 12.675 0.843426C12.8583 0.769617 13.1631 0.996998 13.4119 1.08628C13.2821 1.31485 13.2048 1.61605 13.0119 1.76009C12.4464 2.18271 11.8464 2.56366 11.2357 2.91843C11.0226 3.04224 10.7155 3.13985 10.4881 3.08747C7.4381 2.38628 4.95714 4.68747 4.81905 7.14938C4.80595 7.37914 4.60238 7.66128 4.40476 7.80771C1.65119 9.8339 1.65833 13.4172 4.42024 15.4529C4.61667 15.5982 4.81071 15.8875 4.82381 16.1196C4.96071 18.5018 7.35 20.8375 10.456 20.1589C10.7107 20.1029 11.094 20.222 11.294 20.3994C13.3155 22.1899 15.7619 22.1827 17.7905 20.3875C17.9952 20.2065 18.4012 20.1387 18.6869 20.1851C20.575 20.491 22.1345 19.9637 23.3357 18.4553C23.4798 18.2744 23.5881 18.066 23.7381 17.8315C21.5917 16.8434 20.3369 15.2232 19.9821 12.9065C19.7226 12.9422 19.4952 12.9791 19.2655 13.0065C17.9131 13.1613 16.9536 12.347 16.8881 10.9791C16.8119 9.40176 17.5238 8.14224 18.5583 7.04462C18.8798 6.70414 19.0298 6.40652 19.0095 5.91843C18.9631 4.73985 19.5464 3.84105 20.4976 3.16128C20.4869 3.09938 20.4762 3.03628 20.4643 2.97438C19.881 3.01009 19.2857 2.99105 18.7155 3.10057C18.269 3.18628 18.006 3.0339 17.6524 2.79819C16.9726 2.34343 16.2226 1.98628 15.4786 1.63985C15.1607 1.49224 14.7869 1.42795 14.8881 0.980331C14.9964 0.500569 15.4048 0.494617 15.7452 0.643426C16.5369 0.989855 17.3 1.39938 18.0798 1.772C18.2976 1.87557 18.5476 2.03985 18.7595 2.0089C20.0417 1.82557 21.244 2.03986 22.4262 2.64819C22.5012 2.49105 22.5726 2.3589 22.631 2.222C23.2095 0.854141 24.4786 -0.0256213 25.9298 0.00056913C27.4655 0.0291406 28.5738 0.773188 29.1881 2.17557C29.3667 2.58271 29.5583 2.71366 29.9976 2.73747C31.6262 2.82676 32.9131 4.31962 32.8512 6.02676C32.8369 6.41843 32.9274 6.68509 33.2131 6.95414C34.1298 7.81962 34.6512 8.91962 34.9964 10.1137C35 10.5077 35 10.9041 35 11.3006ZM29.4821 8.09581C30.8655 8.09462 31.8536 7.10057 31.8452 5.89462C31.8369 4.66485 30.7905 3.66247 29.5738 3.71843C28.619 3.76247 28.619 3.76247 28.356 2.86128C28.019 1.70771 27.0071 0.973188 25.8202 1.02081C24.6464 1.06843 23.6571 1.90533 23.4619 3.07557C23.3667 3.64343 23.1345 3.85652 22.5405 3.75771C21.5298 3.58866 20.6024 4.12081 20.2179 5.01724C19.8524 5.87081 20.0131 6.7839 20.644 7.43866C21.2798 8.09819 22.2286 8.30414 23.106 7.89105C23.556 7.67914 23.8488 7.73271 24.2095 8.07081C25.2262 9.02319 26.6321 9.03152 27.6405 8.08033C28.025 7.71843 28.3417 7.6589 28.7952 7.90771C29.0452 8.04581 29.3595 8.06486 29.4821 8.09581ZM4.54167 4.46843C3.25595 4.15652 2.00119 4.68747 1.38452 5.822C0.770238 6.95176 0.963095 8.3089 1.77381 9.05652C2.41548 8.38986 3.05476 7.72914 3.68929 7.06128C3.75238 6.99462 3.79524 6.89938 3.82262 6.8089C4.06071 6.04224 4.29405 5.27438 4.54167 4.46843ZM5.87143 20.1803C5.87143 21.5791 5.85476 22.9172 5.87976 24.2541C5.89048 24.8268 6.26786 25.1541 6.78095 25.1399C7.29524 25.1256 7.61071 24.7887 7.61905 24.1982C7.63214 23.2708 7.63452 22.3422 7.6131 21.4149C7.60952 21.2553 7.50238 21.0315 7.37381 20.9541C6.91905 20.6839 6.43452 20.4649 5.87143 20.1803ZM23.3774 20.022C22.8131 20.3375 22.3262 20.5887 21.8655 20.8803C21.75 20.9541 21.6595 21.1577 21.6571 21.3041C21.6405 22.291 21.6369 23.2791 21.6548 24.2672C21.6643 24.8113 21.9976 25.1315 22.4964 25.141C22.9976 25.1506 23.3583 24.8482 23.369 24.2982C23.394 22.8982 23.3774 21.4982 23.3774 20.022ZM19.4476 7.65652C18.7619 8.20414 18.1107 9.25771 17.9798 10.1446C17.9226 10.5268 17.9155 10.9375 17.9917 11.3137C18.0988 11.841 18.5857 12.0672 19.2036 11.9922C19.7536 11.9256 20.0429 11.7137 19.9821 11.0791C19.9155 10.3744 19.9393 9.65652 19.9762 8.947C20.006 8.41486 19.8845 7.98033 19.4476 7.65652ZM32.356 7.51485C32.1738 7.92438 31.9345 8.22795 31.9167 8.54462C31.8643 9.49104 31.8917 10.4422 31.9048 11.3922C31.9071 11.5303 31.9798 11.7756 32.05 11.7863C32.4845 11.8577 32.9738 12.0053 33.3524 11.8696C33.625 11.772 33.9 11.2827 33.9226 10.9506C34.0167 9.59938 33.3393 8.55771 32.356 7.51485ZM18.8821 21.2958C18.8821 22.3672 18.8583 23.3899 18.8929 24.4113C18.9083 24.8613 19.2321 25.1113 19.6857 25.1375C20.1393 25.1637 20.5333 24.9458 20.5583 24.5137C20.619 23.4434 20.5786 22.3672 20.5786 21.297C19.9893 21.2958 19.4786 21.2958 18.8821 21.2958ZM8.66667 21.2982C8.66667 22.3482 8.65476 23.3149 8.67143 24.2815C8.67976 24.7863 8.95833 25.1006 9.47262 25.1339C9.94762 25.1649 10.3345 24.9399 10.3571 24.4565C10.4048 23.3994 10.3714 22.3387 10.3714 21.2982C9.78452 21.2982 9.25952 21.2982 8.66667 21.2982Z" fill="black"/>
<path d="M16.6894 17.3291C15.6989 16.6803 14.7584 17.0874 13.8061 17.1315C13.2561 17.1565 12.6644 16.7838 12.137 16.5041C12.0001 16.4315 11.9227 15.9838 12.012 15.8029C12.1703 15.4791 12.5001 15.5172 12.7715 15.7386C13.4537 16.2946 14.118 16.2779 14.8382 15.7743C15.0168 15.6493 15.4322 15.6505 15.612 15.7755C16.3334 16.2767 16.9977 16.2922 17.6811 15.741C17.9513 15.5219 18.2799 15.4743 18.4394 15.8017C18.5275 15.9838 18.4584 16.4124 18.3156 16.5053C17.8156 16.8291 17.2525 17.0541 16.6894 17.3291Z" fill="black"/>
<path d="M13.2559 7.76965C12.3809 7.30655 11.5666 7.56727 10.738 7.61846C10.244 7.64822 9.70232 7.31846 9.23328 7.05774C9.09994 6.98393 9.14518 6.5875 9.10828 6.33869C9.3559 6.32084 9.68089 6.19465 9.83685 6.30536C10.4642 6.74941 11.0154 6.74465 11.638 6.29584C11.794 6.18274 12.1845 6.23036 12.3702 6.35179C12.944 6.72679 13.4476 6.72798 14.0238 6.3506C14.2095 6.22917 14.6392 6.21727 14.7833 6.34822C15.0607 6.59941 14.9428 6.96369 14.6226 7.14227C14.1845 7.38512 13.7107 7.56489 13.2559 7.76965Z" fill="black"/>
<path d="M7.43313 13.2969C6.89027 13.0219 6.38194 12.8184 5.94503 12.5124C5.80932 12.4172 5.86765 12.0446 5.83789 11.7993C6.07122 11.7743 6.3867 11.6386 6.5248 11.7422C7.15813 12.2124 7.7236 12.2303 8.36646 11.7541C8.5117 11.6458 8.8486 11.7958 9.09741 11.8255C9.0498 12.0708 9.08551 12.4398 8.93908 12.5386C8.49741 12.8374 7.98432 13.0303 7.43313 13.2969Z" fill="black"/>
<path d="M22.8463 11.4375C23.1904 11.1339 23.3737 10.8351 23.5987 10.8006C24.0296 10.7351 24.138 11.097 24.1368 11.4637C24.1356 11.8268 24.0368 12.203 23.6046 12.1268C23.3713 12.0851 23.1868 11.7613 22.8463 11.4375Z" fill="black"/>
<path d="M27.9476 11.6065C28.0524 11.116 28.1119 10.778 28.5774 10.7815C29.0036 10.7851 29.0714 11.0946 29.0691 11.4458C29.0667 11.8089 29.0214 12.197 28.5607 12.128C28.3345 12.0934 28.15 11.7887 27.9476 11.6065Z" fill="black"/>
</svg>
