<svg width="156" height="105" viewBox="0 0 156 105" fill="none" xmlns="http://www.w3.org/2000/svg">
<path d="M156 6.01909C156 36.7836 156 67.5547 156 98.3192C153.758 102.811 150.098 104.189 145.171 104.176C100.289 104.052 55.4061 104.059 10.517 104.169C5.67451 104.182 2.158 102.694 0 98.3192C0 67.5547 0 36.7836 0 6.01909C1.9955 1.50159 5.44701 -0.0129172 10.348 8.28655e-05C55.4451 0.123583 100.549 0.123583 145.652 8.28655e-05C150.553 -0.0129172 153.992 1.52759 156 6.01909ZM145.522 97.9682C144.625 96.7592 144.138 96.0572 143.598 95.3942C135.22 85.0462 126.841 74.7047 118.463 64.3567C116.214 61.5812 113.776 58.9227 111.865 55.9327C111.261 54.9837 112.093 53.1182 112.268 51.6752C113.62 51.8637 115.018 51.8962 116.305 52.2992C116.909 52.4942 117.299 53.3977 117.774 53.9827C127.589 66.0922 137.397 78.2082 147.212 90.3177C147.914 91.1822 148.662 92.0077 149.741 93.2687C149.741 65.2082 149.741 37.8561 149.741 10.1336C148.571 10.9461 147.765 11.4726 146.991 12.0511C127.251 26.8581 107.51 41.6651 87.7761 56.4722C81.0031 61.5552 74.9841 61.5552 68.1916 56.4592C48.5421 41.7106 28.886 26.9621 9.23001 12.2266C8.32651 11.5506 7.37751 10.9461 6.14901 10.1011C6.14901 37.9601 6.14901 65.2667 6.14901 93.4442C7.38401 91.9817 8.12501 91.1237 8.83351 90.2462C18.2325 78.6372 27.6315 67.0217 37.0306 55.4127C37.9861 54.2362 38.7791 52.7672 40.0076 52.0392C40.9826 51.4542 42.9326 51.2657 43.6736 51.8637C44.4406 52.4812 44.5381 54.2882 44.4146 55.5232C44.3301 56.3552 43.3746 57.1157 42.7636 57.8762C32.6885 70.3302 22.6005 82.7777 12.5255 95.2317C11.9015 95.9987 11.362 96.8372 10.5495 97.9747C55.7506 97.9682 100.315 97.9682 145.522 97.9682ZM144.71 6.25309C99.9377 6.25309 55.9846 6.25309 11.57 6.25309C12.324 6.92909 12.688 7.30609 13.0975 7.61159C33.007 22.5551 52.9166 37.5116 72.8521 52.4227C76.2646 54.9772 79.7941 54.8862 83.3301 52.2667C90.1161 47.2422 96.8632 42.1656 103.617 37.1021C117.117 26.9751 130.611 16.8351 144.71 6.25309Z" fill="#115C07"/>
</svg>
