<svg width="39" height="39" viewBox="0 0 39 39" fill="none" xmlns="http://www.w3.org/2000/svg">
<g filter="url(#filter0_d_2488_11403)">
<path d="M4.5 30.5V0.5H34.5V30.5H4.5Z" fill="#115C07" stroke="white"/>
<path d="M11.4238 19.4318H8.34061V16.1389H7.10352V22.6657H8.34061V20.6324H11.4238V22.665H12.6609V16.1382H11.4238V19.4318Z" fill="white"/>
<path d="M16.8071 16.0518C15.865 16.0518 15.0497 16.3814 14.3826 17.0311C13.7176 17.6794 13.378 18.4729 13.373 19.3933C13.373 20.3109 13.7112 21.1059 14.3783 21.7556C15.0447 22.4052 15.8607 22.7349 16.8029 22.7349C17.6401 22.7349 18.3774 22.4744 18.9992 21.9605V22.667H20.232V19.3954C20.2363 18.4784 19.8995 17.6828 19.231 17.0311C18.5646 16.3814 17.7486 16.0518 16.8071 16.0518ZM18.3576 20.9078C17.9216 21.3286 17.4133 21.5328 16.8029 21.5328C16.1918 21.5328 15.6828 21.3279 15.2489 20.9085C14.8164 20.4836 14.6059 19.9875 14.6059 19.3926C14.6059 18.7978 14.8164 18.3016 15.2468 17.8788C15.6828 17.4573 16.1918 17.2524 16.8029 17.2524C17.414 17.2524 17.9223 17.4573 18.3562 17.8767C18.7886 18.3016 18.9992 18.7978 18.9992 19.3926C18.9992 19.9882 18.7893 20.4836 18.3576 20.9078Z" fill="white"/>
<path d="M21.0918 14.915H22.3289V22.6658H21.0918V14.915Z" fill="white"/>
<path d="M26.4751 16.0518C25.5329 16.0518 24.7176 16.3814 24.0505 17.0311C23.3856 17.6794 23.046 18.4729 23.041 19.3933C23.041 20.3109 23.3792 21.1059 24.0463 21.7556C24.7127 22.4052 25.5287 22.7349 26.4708 22.7349C27.3081 22.7349 28.0454 22.4744 28.6671 21.9605V22.667H29.9V19.3954C29.9042 18.4784 29.5675 17.6828 28.899 17.0311C28.2326 16.3814 27.4166 16.0518 26.4751 16.0518ZM28.0255 20.9078C27.5895 21.3286 27.0812 21.5328 26.4708 21.5328C25.8597 21.5328 25.3507 21.3279 24.9169 20.9085C24.4844 20.4836 24.2739 19.9875 24.2739 19.3926C24.2739 18.7978 24.4844 18.3016 24.9147 17.8788C25.3507 17.4573 25.8597 17.2524 26.4708 17.2524C27.0819 17.2524 27.5903 17.4573 28.0241 17.8767C28.4566 18.3016 28.6671 18.7978 28.6671 19.3926C28.6671 19.9882 28.4573 20.4836 28.0255 20.9078Z" fill="white"/>
<path d="M30.7607 14.915H31.9978V22.6658H30.7607V14.915Z" fill="white"/>
<path d="M19.0777 8.18615L14.8092 8.18341H14.8L12.7023 10.5052L15.3111 10.5025C15.0914 10.7273 14.8418 10.913 14.5547 11.0637L14.5405 11.0713C14.3215 11.1905 14.0769 11.2872 13.8146 11.3584C13.5636 11.4201 13.2978 11.4516 13.0234 11.4516C12.4392 11.4516 11.9274 11.3221 11.4581 11.0548L11.4531 11.0521C10.9675 10.7793 10.5967 10.4326 10.3209 9.99124L10.316 9.98302C10.1657 9.74796 10.0466 9.48549 9.96009 9.20109L9.95796 9.19423C9.87502 8.92696 9.83319 8.63982 9.83319 8.3424C9.83319 7.78182 9.96647 7.28703 10.2401 6.82993L10.243 6.82445C10.5244 6.34748 10.8838 5.98084 11.3397 5.70397C11.575 5.56143 11.8388 5.4511 12.1223 5.37571L12.1493 5.36817C12.4251 5.28731 12.7186 5.24619 13.0241 5.24619C13.4658 5.24619 13.867 5.32637 14.2506 5.49084L14.264 5.49633C14.6568 5.65874 14.9893 5.8753 15.2799 6.15833L16.0094 6.86831L17.937 4.98989L17.2075 4.27922C16.6751 3.76113 16.0484 3.34447 15.3423 3.04156L15.326 3.03471C14.6022 2.73797 13.8273 2.58789 13.0234 2.58789C11.9671 2.58789 10.9817 2.84282 10.0962 3.34515C9.22209 3.83241 8.51386 4.49304 7.99208 5.3065C7.7078 5.74852 7.48803 6.23166 7.34057 6.74153C7.18389 7.25413 7.10449 7.79279 7.10449 8.3424C7.10449 9.37241 7.36538 10.3318 7.88149 11.194C8.382 12.0458 9.05974 12.7366 9.89487 13.2444C10.3486 13.5219 10.8434 13.7351 11.368 13.879C11.8941 14.0318 12.4513 14.1092 13.0234 14.1092C14.0719 14.1092 15.0517 13.8543 15.9371 13.3527C16.3228 13.1375 16.6773 12.888 16.9977 12.6064L17.0126 14.6445L19.1082 12.3254L19.1132 12.3192L19.0777 8.18615Z" fill="white"/>
<path d="M31.9979 8.29425C31.9979 8.43679 31.9901 8.57797 31.9788 8.71708C31.9618 8.91856 31.9334 9.11936 31.893 9.31398L29.5663 8.81371C29.572 8.78561 29.5776 8.75683 29.5819 8.72873C29.6053 8.58756 29.6173 8.44296 29.6173 8.29493C29.6173 8.13731 29.6031 7.98244 29.5769 7.83235L31.5527 6.24176C31.652 6.46243 31.7371 6.68995 31.8044 6.92569H31.8051C31.8058 6.92981 31.8079 6.93529 31.8087 6.9394C31.8094 6.94351 31.8115 6.94899 31.8122 6.95448C31.9278 7.37457 31.9979 7.84126 31.9979 8.29425ZM21.5518 8.29493C21.5518 11.1054 23.8898 13.3833 26.7745 13.3833C27.9194 13.3833 28.9786 13.0235 29.8392 12.4143L28.2037 10.6873C27.7833 10.9272 27.2956 11.0649 26.7738 11.0649C25.2063 11.0649 23.9317 9.82317 23.9317 8.29562C23.9338 6.95037 24.922 5.82784 26.2272 5.5777C26.4044 5.54343 26.588 5.52562 26.7759 5.52562C26.8029 5.52562 26.8298 5.5263 26.8567 5.52767L27.1743 3.22299C27.0425 3.2134 26.9099 3.20654 26.7759 3.20654C26.7008 3.20654 26.627 3.20928 26.5526 3.21203C23.7707 3.32442 21.5518 5.55714 21.5518 8.29493ZM30.7467 11.5995C31.1805 11.1047 31.518 10.5283 31.7335 9.89718L29.3848 9.39211C29.3089 9.56138 29.2161 9.72106 29.109 9.87182C28.9906 10.0377 28.8552 10.1905 28.7035 10.3269L30.3185 12.0333C30.4702 11.8962 30.6127 11.7516 30.7467 11.5995ZM30.3957 4.63061C29.6868 3.96655 28.7886 3.49437 27.7854 3.30249L27.4671 5.60991C27.8641 5.70654 28.2264 5.8854 28.5376 6.12594L30.3957 4.63061Z" fill="url(#paint0_linear_2488_11403)"/>
<path d="M26.7749 13.7938C23.6577 13.7938 21.1311 11.3315 21.1311 8.29496C21.1311 5.25769 23.6584 2.79607 26.7749 2.79607C27.4498 2.79607 28.0971 2.91189 28.6968 3.12365C27.8844 2.73028 26.9876 2.53223 26.0142 2.53223C24.3723 2.53223 22.9644 3.11131 21.8279 4.25303C20.6944 5.39132 20.1201 6.77906 20.1201 8.37788C20.1201 9.96505 20.7128 11.3322 21.8818 12.4411C23.0487 13.5478 24.4702 14.1084 26.1078 14.1084C27.2598 14.1084 28.297 13.8233 29.2058 13.2579C28.4714 13.6013 27.6462 13.7938 26.7749 13.7938Z" fill="white"/>
<path d="M25.9121 6.79644V10.2243L31.4291 5.78356L30.7095 4.93652L27.0407 7.89019V6.79713H25.9121V6.79644Z" fill="white"/>
<path d="M11.3058 27.1614C11.0733 27.0908 10.8294 27.0744 10.5862 27.0751C10.5373 27.1882 10.4898 27.3019 10.4466 27.4171C10.3977 27.5473 10.3537 27.6788 10.3154 27.8125C10.2977 27.8755 10.2779 27.9393 10.2665 28.0037C10.263 28.0249 10.2658 28.0592 10.2594 28.0797C10.2594 28.0859 10.2594 28.0921 10.2601 28.0982C10.302 28.1243 10.3388 28.1634 10.3473 28.2079C10.3573 28.2579 10.3282 28.3045 10.2686 28.284C10.0106 28.1942 10.0148 27.9578 10.0716 27.7405C10.1297 27.5157 10.2077 27.2958 10.2963 27.0806C9.96876 27.0908 9.64123 27.1196 9.31795 27.1697C9.23997 27.1813 9.16199 27.195 9.08471 27.2087C8.7189 27.6802 8.40413 28.1873 8.14466 28.7212C8.09362 28.8267 7.88094 28.6533 7.92418 28.5649C8.1397 28.1215 8.39279 27.6953 8.68062 27.293C8.25171 27.3938 7.83131 27.5274 7.42367 27.6932C7.32938 27.7316 7.15286 27.524 7.26204 27.4801C7.78948 27.2656 8.33891 27.1046 8.90039 27.0004C9.01665 26.8517 9.13788 26.7064 9.26407 26.5652C9.53134 26.2664 9.81917 25.9855 10.1268 25.725C10.4423 25.4578 10.7784 25.183 11.1711 25.0281C11.2356 25.0027 11.3285 25.087 11.3498 25.1371C11.4561 25.3824 11.2704 25.6531 11.1654 25.8738C11.0449 26.128 10.9173 26.3781 10.7947 26.631C10.7571 26.7078 10.7202 26.7852 10.6848 26.862C10.8748 26.8716 11.0634 26.8955 11.2456 26.951C11.3037 26.9689 11.3746 27.0257 11.3859 27.0867C11.3944 27.1375 11.3654 27.1793 11.3058 27.1614ZM10.7982 26.0156C10.8634 25.8833 10.9279 25.7504 10.9903 25.6161C11.0244 25.5427 11.0577 25.4687 11.0903 25.394C11.0974 25.3783 11.1059 25.3605 11.1144 25.3413C10.8138 25.5009 10.5465 25.7257 10.2927 25.943C9.99711 26.1958 9.71992 26.4679 9.46187 26.7564C9.4094 26.8154 9.35836 26.8743 9.30732 26.9346C9.62209 26.8921 9.93827 26.8661 10.2559 26.8585C10.3012 26.8578 10.3473 26.8565 10.3927 26.8565C10.5203 26.5721 10.6607 26.2945 10.7982 26.0156Z" fill="white"/>
<path d="M13.1458 27.1678C12.9778 27.3357 12.8048 27.5132 12.6027 27.6434C12.5077 27.7044 12.4063 27.7558 12.2972 27.6934C12.1816 27.6262 12.1497 27.5091 12.1674 27.3878C12.1681 27.3823 12.1696 27.3775 12.1703 27.372C12.0342 27.4919 11.8938 27.6057 11.7371 27.6968C11.5953 27.7791 11.4415 27.814 11.3266 27.6681C11.1749 27.4741 11.3699 27.1356 11.5067 26.9807C11.5755 26.9032 11.7768 27.0917 11.7052 27.1726C11.6442 27.2418 11.6003 27.3254 11.5627 27.4083C11.5471 27.4426 11.5329 27.4782 11.5216 27.5139C11.5925 27.4782 11.6577 27.4302 11.7201 27.3836C11.9285 27.2281 12.115 27.0465 12.3106 26.8758C12.3908 26.8059 12.546 26.9697 12.5205 27.0499C12.4815 27.1698 12.4453 27.2911 12.4156 27.4138C12.4127 27.4255 12.4106 27.4378 12.4085 27.4494C12.5871 27.4104 12.875 27.1705 13.0125 27.0328C13.0876 26.9588 13.2216 27.0931 13.1458 27.1678Z" fill="white"/>
<path d="M15.2703 26.123C15.2647 26.1827 15.2065 26.1861 15.159 26.1621C14.9357 26.0483 14.6869 26.025 14.4388 26.0093C14.1949 25.9942 13.9503 25.9887 13.7057 25.9928C13.7015 25.9928 13.6972 25.9928 13.693 25.9928C13.3179 26.7926 13.0032 27.628 13.0181 28.5154C13.0202 28.6463 12.7919 28.4983 12.7905 28.4037C12.7763 27.5608 13.0507 26.7665 13.3952 26.0031C12.9854 26.0243 12.5778 26.073 12.1744 26.1484C12.0723 26.1676 11.9064 25.9544 12.0128 25.9346C12.5034 25.8427 13.001 25.7879 13.5008 25.7742C13.5909 25.583 13.6845 25.3939 13.778 25.2068C13.8305 25.1012 14.0425 25.2753 13.9985 25.363C13.9319 25.4973 13.8645 25.633 13.7986 25.7694C14.2516 25.7639 14.7542 25.768 15.1541 25.9716C15.2037 25.9976 15.2767 26.0627 15.2703 26.123Z" fill="white"/>
<path d="M15.71 27.1785C15.4512 27.3204 15.1847 27.504 14.8997 27.5952C14.7394 27.6466 14.5544 27.5739 14.5367 27.3923C14.5289 27.3101 14.5615 27.2231 14.5899 27.147C14.6104 27.0922 14.6338 27.0373 14.6501 26.9811C14.3063 27.1669 13.9936 27.4088 13.7299 27.6911C13.698 27.7247 13.6314 27.6939 13.6037 27.6726C13.4173 27.5314 13.4449 27.3546 13.5158 27.16C13.6023 26.9208 13.6987 26.6858 13.8058 26.4548C14.0227 25.9861 14.2822 25.5372 14.5764 25.1103C14.6317 25.0301 14.8373 25.2117 14.7749 25.3022C14.5268 25.6619 14.3056 26.0382 14.1135 26.4288C14.0177 26.6241 13.9291 26.8222 13.8483 27.0236C13.8129 27.112 13.7788 27.2011 13.7462 27.2902C13.9596 27.099 14.1957 26.9332 14.4481 26.7906C14.5743 26.7194 14.6856 26.6666 14.8061 26.7762C14.9011 26.8626 14.906 26.9798 14.8805 27.0956C14.8607 27.1881 14.816 27.2745 14.7869 27.3649C15.0648 27.2834 15.3626 27.158 15.6079 27.023C15.6951 26.975 15.8163 27.1203 15.71 27.1785Z" fill="white"/>
<path d="M16.8581 27.1709C16.5199 27.384 16.1654 27.6293 15.7812 27.7616C15.6401 27.8103 15.4948 27.8192 15.3948 27.6903C15.2403 27.4902 15.4402 27.1969 15.5806 27.0482C15.7075 26.9132 15.9329 26.7624 16.1009 26.9331C16.3427 27.1777 15.7734 27.3908 15.6195 27.4614C15.6188 27.4614 15.6188 27.4614 15.6181 27.4621C15.6047 27.4923 15.5933 27.5231 15.5848 27.5553C15.8393 27.5231 16.4575 27.2291 16.7106 27.04C16.7999 26.9735 16.941 27.1188 16.8581 27.1709Z" fill="white"/>
<path d="M18.5279 27.1765C18.306 27.2773 18.0983 27.402 17.8898 27.5267C17.7608 27.6042 17.6169 27.7145 17.4666 27.7481C17.3184 27.7817 17.1795 27.6446 17.2022 27.5027C17.2157 27.4205 17.249 27.3383 17.2915 27.2581C17.0476 27.3883 16.8314 27.561 16.6499 27.7721C16.5783 27.855 16.4209 27.672 16.4401 27.598C16.4954 27.3869 16.5996 27.1841 16.7102 26.9942C16.7704 26.8907 16.9796 27.0676 16.9307 27.1505C16.9278 27.1553 16.925 27.1608 16.9222 27.1656C17.1143 27.0381 17.3255 26.9387 17.5496 26.8709C17.6438 26.8421 17.7835 26.9887 17.7296 27.0737C17.6552 27.1916 17.5907 27.3102 17.529 27.4308C17.826 27.2869 18.15 27.158 18.4435 27.0244C18.5357 26.9826 18.6364 27.1272 18.5279 27.1765Z" fill="white"/>
<path d="M20.703 26.123C20.6973 26.1827 20.6391 26.1861 20.5916 26.1621C20.3683 26.0483 20.1195 26.025 19.8714 26.0093C19.6275 25.9942 19.3829 25.9887 19.1383 25.9928C19.1341 25.9928 19.1298 25.9928 19.1256 25.9928C18.7505 26.7926 18.4358 27.628 18.4507 28.5154C18.4528 28.6463 18.2245 28.4983 18.2231 28.4037C18.2089 27.5608 18.4833 26.7665 18.8278 26.0031C18.4181 26.0243 18.0104 26.073 17.607 26.1484C17.5049 26.1676 17.3391 25.9544 17.4454 25.9346C17.936 25.8427 18.4337 25.7879 18.9335 25.7742C19.0235 25.583 19.1171 25.3939 19.2106 25.2068C19.2631 25.1012 19.4751 25.2753 19.4311 25.363C19.3645 25.4973 19.2971 25.633 19.2312 25.7694C19.6842 25.7639 20.1868 25.768 20.5867 25.9716C20.6363 25.9976 20.7093 26.0627 20.703 26.123Z" fill="white"/>
<path d="M19.9689 27.1702C19.83 27.284 19.6854 27.3916 19.5351 27.4896C19.4138 27.5691 19.2756 27.6657 19.1296 27.6945C18.963 27.7267 18.8034 27.5766 18.7999 27.417C18.7956 27.234 18.9381 27.0243 19.0303 26.8708C19.092 26.768 19.3004 26.9448 19.2508 27.027C19.1778 27.1483 19.114 27.2682 19.0629 27.3998C19.0558 27.4176 19.0494 27.4355 19.0431 27.4533C19.2168 27.4231 19.6272 27.2107 19.8264 27.0476C19.9101 26.9784 20.049 27.1045 19.9689 27.1702ZM19.2394 26.4589C19.2954 26.2814 19.3692 26.1121 19.4613 25.9497C19.5202 25.8462 19.73 26.0217 19.6825 26.106C19.5904 26.2684 19.5166 26.4377 19.4606 26.6151C19.4273 26.7214 19.2097 26.5542 19.2394 26.4589Z" fill="white"/>
<path d="M21.2452 27.1785C20.99 27.2868 20.7355 27.3951 20.4802 27.5033C20.2824 27.5876 20.0322 27.7274 19.8223 27.6C19.4367 27.3663 19.8358 26.6419 20.2498 26.8783C20.298 26.9058 20.3718 26.9661 20.3654 27.0291C20.3597 27.0867 20.3009 27.0949 20.2541 27.0682C20.0917 26.9757 19.9656 27.2011 19.9223 27.3163C19.8833 27.4211 19.9216 27.4307 19.9372 27.4293C20.1378 27.4122 20.8539 27.1648 21.1608 27.0346C21.2544 26.9949 21.3544 27.1326 21.2452 27.1785Z" fill="white"/>
<path d="M23.6688 27.7172C23.6355 27.748 23.6015 27.7788 23.5653 27.809C23.5724 28.0598 23.7135 28.2976 23.9708 28.384C24.029 28.4038 24.0992 28.4566 24.1112 28.5197C24.1211 28.5704 24.0928 28.6156 24.0325 28.5957C23.7263 28.4922 23.4739 28.2435 23.3782 27.9467C23.2456 28.031 23.0996 28.0934 22.9429 28.1092C22.6657 28.1379 22.4211 27.9673 22.3204 27.7233C22.2148 27.4691 22.2588 27.1758 22.3112 26.9147C22.4225 26.3671 22.6969 25.8572 23.0882 25.4488C23.169 25.3392 23.2633 25.2432 23.3718 25.1767C23.6497 25.0054 23.9957 25.1877 24.1615 25.4234C24.4791 25.8757 24.3728 26.5652 24.1559 27.0353C24.0389 27.2888 23.8737 27.5239 23.6688 27.7172ZM23.9503 26.8461C24.0417 26.6385 24.102 26.4158 24.1183 26.1903C24.1353 25.9669 24.1332 25.6983 24.0148 25.4981C23.9517 25.3919 23.8383 25.3206 23.7085 25.3289C23.5845 25.3364 23.4916 25.4186 23.4129 25.5043C23.4108 25.5139 23.4058 25.5228 23.3973 25.5304C23.3831 25.5441 23.3697 25.5578 23.3555 25.5715C23.2031 25.7572 23.0911 25.9689 23.0152 26.1944C22.9968 26.2499 22.9294 26.2307 22.8727 26.1869C22.7352 26.4206 22.6302 26.6721 22.5629 26.9352C22.5062 27.1573 22.4573 27.406 22.4948 27.6349C22.514 27.7507 22.5565 27.8597 22.6863 27.8878C22.8011 27.9125 22.9273 27.8741 23.0315 27.8302C23.14 27.7843 23.2421 27.722 23.3371 27.6486C23.3378 27.6301 23.3392 27.6109 23.3413 27.5924C23.3484 27.5314 23.398 27.5294 23.4491 27.5541C23.6674 27.3539 23.8397 27.097 23.9503 26.8461Z" fill="white"/>
<path d="M26.1223 27.1678C25.9543 27.3357 25.7813 27.5132 25.5793 27.6434C25.4843 27.7044 25.3829 27.7558 25.2737 27.6934C25.1582 27.6262 25.1263 27.5091 25.144 27.3878C25.1447 27.3823 25.1461 27.3775 25.1468 27.372C25.0107 27.4919 24.8703 27.6057 24.7137 27.6968C24.5719 27.7791 24.418 27.814 24.3032 27.6681C24.1515 27.4741 24.3464 27.1356 24.4833 26.9807C24.552 26.9032 24.7534 27.0917 24.6818 27.1726C24.6208 27.2418 24.5768 27.3254 24.5393 27.4083C24.5237 27.4426 24.5095 27.4782 24.4982 27.5139C24.569 27.4782 24.6343 27.4302 24.6967 27.3836C24.9051 27.2281 25.0915 27.0465 25.2872 26.8758C25.3673 26.8059 25.5226 26.9697 25.497 27.0499C25.4581 27.1698 25.4219 27.2911 25.3921 27.4138C25.3893 27.4255 25.3872 27.4378 25.385 27.4494C25.5637 27.4104 25.8515 27.1705 25.9891 27.0328C26.0642 26.9588 26.1982 27.0931 26.1223 27.1678Z" fill="white"/>
<path d="M27.7601 27.1674C27.5652 27.338 27.3638 27.508 27.137 27.6382C27.0321 27.6985 26.9066 27.7643 26.7804 27.7499C26.6528 27.7355 26.5457 27.6347 26.5089 27.5182C26.4848 27.4408 26.4961 27.3695 26.5188 27.2996C26.2905 27.4456 26.1012 27.6601 25.8418 27.7588C25.751 27.793 25.6319 27.6539 25.6503 27.5737C25.7071 27.3277 25.846 27.0728 26.0587 26.9193C26.2274 26.798 26.4465 26.8274 26.5663 26.9809C26.5897 26.9727 26.6138 26.9652 26.6379 26.9597C26.667 26.9529 26.701 26.9645 26.7336 26.9864C26.7839 27.0186 26.83 27.0707 26.8328 27.1139C26.8364 27.1283 26.8357 27.1413 26.83 27.1516C26.8215 27.2167 26.7988 27.2777 26.7761 27.3407C26.752 27.4052 26.7414 27.4655 26.7286 27.5285C26.7322 27.5278 26.735 27.5271 26.7386 27.5271C26.9952 27.4977 27.4482 27.1701 27.6091 27.0289C27.69 26.9583 27.8388 27.0988 27.7601 27.1674ZM26.4025 27.0584C26.4011 27.0584 26.4004 27.0577 26.399 27.0577C26.3827 27.0604 26.3664 27.0632 26.3501 27.0659C26.3026 27.0769 26.2614 27.1084 26.2246 27.1386C26.1672 27.1852 26.1161 27.2421 26.0707 27.2996C26.0686 27.3017 26.0672 27.3037 26.0658 27.3065C26.175 27.2194 26.2827 27.1283 26.4025 27.0584Z" fill="white"/>
<path d="M28.7423 27.1679C28.5474 27.3715 28.2681 27.5476 27.993 27.6291C27.8625 27.6675 27.7356 27.6901 27.6385 27.5791C27.5379 27.4633 27.5251 27.3228 27.5556 27.1789C27.5967 26.9856 27.6782 26.7951 27.7441 26.608C27.8136 26.4114 27.8852 26.216 27.959 26.0214C28.1121 25.6171 28.2759 25.2162 28.4481 24.8187C28.4942 24.7125 28.7083 24.8845 28.6686 24.975C28.48 25.4094 28.3028 25.8473 28.1369 26.2901C28.0554 26.508 27.9767 26.7259 27.9008 26.9459C27.864 27.0535 27.747 27.2817 27.7619 27.4331C28.0766 27.3893 28.4942 27.1748 28.6126 27.0514C28.6856 26.976 28.8161 27.0912 28.7423 27.1679Z" fill="white"/>
<path d="M29.549 27.1702C29.4101 27.284 29.2654 27.3916 29.1151 27.4896C28.9939 27.5691 28.8557 27.6657 28.7096 27.6945C28.543 27.7267 28.3835 27.5766 28.38 27.417C28.3757 27.234 28.5182 27.0243 28.6104 26.8708C28.6721 26.768 28.8805 26.9448 28.8309 27.027C28.7578 27.1483 28.694 27.2682 28.643 27.3998C28.6359 27.4176 28.6295 27.4355 28.6231 27.4533C28.7968 27.4231 29.2073 27.2107 29.4065 27.0476C29.4902 26.9784 29.6284 27.1045 29.549 27.1702ZM28.8195 26.4589C28.8755 26.2814 28.9493 26.1121 29.0414 25.9497C29.1003 25.8462 29.3101 26.0217 29.2626 26.106C29.1704 26.2684 29.0967 26.4377 29.0407 26.6151C29.0067 26.7214 28.789 26.5542 28.8195 26.4589Z" fill="white"/>
<path d="M31.6766 26.123C31.6709 26.1827 31.6128 26.1861 31.5653 26.1621C31.342 26.0483 31.0931 26.025 30.845 26.0093C30.6011 25.9942 30.3566 25.9887 30.112 25.9928C30.1077 25.9928 30.1035 25.9928 30.0992 25.9928C29.7242 26.7926 29.4094 27.628 29.4243 28.5154C29.4264 28.6463 29.1989 28.4983 29.1967 28.4037C29.1826 27.5608 29.4569 26.7665 29.8015 26.0031C29.3917 26.0243 28.9841 26.073 28.5807 26.1484C28.4786 26.1676 28.3127 25.9544 28.419 25.9346C28.9096 25.8427 29.4073 25.7879 29.9071 25.7742C29.9971 25.583 30.0907 25.3939 30.1843 25.2068C30.2367 25.1012 30.4487 25.2753 30.4048 25.363C30.3381 25.4973 30.2708 25.633 30.2048 25.7694C30.6579 25.7639 31.1605 25.768 31.5603 25.9716C31.61 25.9976 31.683 26.0627 31.6766 26.123Z" fill="white"/>
<path d="M31.9602 27.187C31.5668 27.4131 31.213 27.7133 30.8862 28.0237C30.6622 28.4712 30.3914 28.8968 30.0787 29.2943C30.0192 29.3697 29.8845 29.2182 29.8703 29.1689C29.7951 28.9064 29.9355 28.6679 30.095 28.4637C30.2354 28.2841 30.3949 28.1176 30.5587 27.9572C30.5984 27.9182 30.6388 27.8791 30.6799 27.8407C30.7777 27.6441 30.8663 27.4433 30.945 27.2384C30.8522 27.3096 30.7565 27.3782 30.6579 27.4412C30.4438 27.5796 30.212 27.7325 29.9518 27.6201C29.9022 27.5988 29.8306 27.5282 29.8363 27.47C29.8561 27.2507 29.9362 27.0547 30.0787 26.8827C30.1439 26.8039 30.3467 26.991 30.2772 27.0746C30.1865 27.1835 30.122 27.3069 30.0886 27.4398C30.168 27.4227 30.2467 27.3782 30.3084 27.3432C30.4119 27.2843 30.5112 27.2185 30.6076 27.1506C30.7947 27.0184 30.9691 26.871 31.1329 26.712C31.2102 26.6367 31.3661 26.8087 31.3427 26.8861C31.2882 27.0663 31.2258 27.2445 31.157 27.42C31.3605 27.2555 31.6228 27.141 31.8418 27.0245C31.9269 26.9779 32.0659 27.1267 31.9602 27.187Z" fill="white"/>
</g>
<defs>
<filter id="filter0_d_2488_11403" x="0" y="0" width="39" height="39" filterUnits="userSpaceOnUse" color-interpolation-filters="sRGB">
<feFlood flood-opacity="0" result="BackgroundImageFix"/>
<feColorMatrix in="SourceAlpha" type="matrix" values="0 0 0 0 0 0 0 0 0 0 0 0 0 0 0 0 0 0 127 0" result="hardAlpha"/>
<feOffset dy="4"/>
<feGaussianBlur stdDeviation="2"/>
<feComposite in2="hardAlpha" operator="out"/>
<feColorMatrix type="matrix" values="0 0 0 0 0 0 0 0 0 0 0 0 0 0 0 0 0 0 0.25 0"/>
<feBlend mode="normal" in2="BackgroundImageFix" result="effect1_dropShadow_2488_11403"/>
<feBlend mode="normal" in="SourceGraphic" in2="effect1_dropShadow_2488_11403" result="shape"/>
</filter>
<linearGradient id="paint0_linear_2488_11403" x1="30.5869" y1="4.94892" x2="20.3853" y2="14.388" gradientUnits="userSpaceOnUse">
<stop stop-color="#A4D233"/>
<stop offset="0.1107" stop-color="#A4D233"/>
<stop offset="1" stop-color="#025F1D"/>
</linearGradient>
</defs>
</svg>
