<svg width="33" height="25" viewBox="0 0 33 25" fill="none" xmlns="http://www.w3.org/2000/svg">
<path d="M29.6238 0H2.85454C1.28055 0 0 1.40188 0 3.125V21.875C0 23.5981 1.28055 25 2.85454 25H29.6238C31.1977 25 32.4783 23.5981 32.4783 21.875V3.125C32.4783 1.40188 31.1977 0 29.6238 0ZM9.51513 22.9167H2.85454C2.32987 22.9167 1.90303 22.4494 1.90303 21.875V10.4167H3.96178C4.43652 11.9685 5.89196 12.9032 7.36718 12.5868L5.86887 15.0472C5.57739 15.5259 5.69556 16.1726 6.13282 16.4917C6.57 16.8108 7.16083 16.6815 7.45231 16.2028L9.51513 12.8154V22.9167ZM5.70908 9.37354C5.70908 8.42521 6.67251 7.85771 7.39547 8.38549L8.75125 9.375L7.39547 10.3645C6.67499 10.8903 5.70908 10.329 5.70908 9.37354ZM9.51513 7.42861L8.45108 6.65201C6.80833 5.45306 4.58394 6.30021 3.9621 8.33326H1.90303V3.12493C1.90303 2.55063 2.32987 2.08333 2.85454 2.08333H9.51513V7.42861ZM30.5753 21.8751C30.5753 22.4494 30.1484 22.9167 29.6238 22.9167H11.4182V12.8154L13.481 16.2028C13.7728 16.6821 14.3638 16.8106 14.8005 16.4918C15.2377 16.1726 15.3559 15.5259 15.0644 15.0473L13.5661 12.5869C15.0346 12.9017 16.4943 11.9759 16.9712 10.4167H30.5753V21.8751ZM12.182 9.375L13.5378 8.38549C14.2584 7.85958 15.2242 8.42097 15.2242 9.37639C15.2242 10.3263 14.2594 10.8913 13.5378 10.3644L12.182 9.375ZM30.5753 8.33333H16.9715C16.3495 6.30049 14.1251 5.45299 12.4822 6.65208L11.4182 7.42861V2.08333H29.6238C30.1484 2.08333 30.5753 2.55063 30.5753 3.125V8.33333Z" fill="#444444"/>
</svg>
