<svg width="930" height="104" viewBox="0 0 930 104" fill="none" xmlns="http://www.w3.org/2000/svg">
<path d="M469.632 23.04H456.672V57H446.832V23.04H433.812V14.4H469.632V23.04ZM474.617 57V16.98H484.337V33.18H499.037V16.98H508.697V57H499.037V41.1H484.337V57H474.617ZM517.215 57V16.98H544.635V24.48H526.935V33.18H542.295V40.74H526.935V49.5H544.635V57H517.215ZM569.364 57V16.98H596.784V24.48H579.084V33.18H594.444V40.74H579.084V49.5H596.784V57H569.364ZM640.75 57H628.69L601.39 16.98H613.45L640.75 57ZM620.89 31.8L629.59 16.98H640.33L625.93 39L620.89 31.8ZM622.51 40.26L612.37 57H601.87L617.41 33.6L622.51 40.26ZM655.373 43.86V57H645.653V16.98H663.653C668.333 16.98 672.013 18.04 674.693 20.16C677.373 22.28 678.713 25.56 678.713 30C678.713 34.44 677.373 37.86 674.693 40.26C672.013 42.66 668.333 43.86 663.653 43.86H655.373ZM655.373 36.36H662.453C663.493 36.36 664.373 36.22 665.093 35.94C665.853 35.66 666.453 35.26 666.893 34.74C667.333 34.22 667.653 33.62 667.853 32.94C668.093 32.22 668.213 31.46 668.213 30.66C668.213 29.7 668.093 28.86 667.853 28.14C667.653 27.42 667.333 26.78 666.893 26.22C666.453 25.66 665.853 25.24 665.093 24.96C664.373 24.68 663.493 24.54 662.453 24.54H655.373V36.36ZM685.496 57V16.98H712.916V24.48H695.216V33.18H710.576V40.74H695.216V49.5H712.916V57H685.496ZM721.063 57V16.98H740.563C745.083 16.98 748.623 18.04 751.183 20.16C753.743 22.24 755.023 25.42 755.023 29.7C755.023 31.46 754.663 33.2 753.943 34.92C753.223 36.6 752.163 38.06 750.763 39.3C749.363 40.5 747.603 41.28 745.483 41.64L744.883 38.34L757.063 57H744.703L734.683 39.54L739.003 43.2H730.783V57H721.063ZM730.783 36.06H738.943C740.663 36.06 742.023 35.6 743.023 34.68C744.023 33.76 744.523 32.24 744.523 30.12C744.523 28.28 744.063 26.88 743.143 25.92C742.263 24.96 741.003 24.48 739.363 24.48H730.783V36.06ZM763.602 57V16.98H773.322V57H763.602ZM781.824 57V16.98H809.244V24.48H791.544V33.18H806.904V40.74H791.544V49.5H809.244V57H781.824ZM817.391 57V16.98H825.671L846.251 44.7L843.371 50.7V16.98H852.311V57H844.991L824.051 29.64L826.331 25.26V57H817.391ZM878.509 57.78C872.109 57.78 867.209 56.1 863.809 52.74C860.449 49.34 858.769 44.1 858.769 37.02C858.769 30.14 860.389 24.94 863.629 21.42C866.869 17.86 871.829 16.08 878.509 16.08C880.629 16.08 882.769 16.34 884.929 16.86C887.089 17.38 889.189 18.1 891.229 19.02V27.48C889.149 26.12 887.149 25.14 885.229 24.54C883.309 23.94 881.509 23.64 879.829 23.64C877.469 23.64 875.469 24.06 873.829 24.9C872.229 25.74 870.989 27.14 870.109 29.1C869.269 31.06 868.849 33.7 868.849 37.02C868.849 40.34 869.269 42.96 870.109 44.88C870.989 46.8 872.269 48.18 873.949 49.02C875.669 49.82 877.769 50.22 880.249 50.22C881.729 50.22 883.409 49.94 885.289 49.38C887.169 48.82 889.149 47.86 891.229 46.5V54.96C890.109 55.52 888.829 56.02 887.389 56.46C885.989 56.86 884.509 57.18 882.949 57.42C881.429 57.66 879.949 57.78 878.509 57.78ZM898.602 57V16.98H926.022V24.48H908.322V33.18H923.682V40.74H908.322V49.5H926.022V57H898.602Z" fill="#115C07"/>
<path d="M4.31078 58V17.98H12.5908L33.1708 45.7L30.2908 51.7V17.98H39.2308V58H31.9108L10.9708 30.64L13.2508 26.26V58H4.31078ZM65.5488 58.84C61.5888 58.84 58.1488 58.1 55.2288 56.62C52.3088 55.1 50.0288 52.8 48.3888 49.72C46.7888 46.64 45.9888 42.74 45.9888 38.02C45.9888 31.18 47.7088 26 51.1488 22.48C54.5888 18.96 59.3888 17.2 65.5488 17.2C69.5088 17.2 72.9488 17.96 75.8688 19.48C78.8288 20.96 81.1088 23.22 82.7088 26.26C84.3088 29.3 85.1088 33.2 85.1088 37.96C85.1088 44.84 83.3888 50.04 79.9488 53.56C76.5488 57.08 71.7488 58.84 65.5488 58.84ZM65.5488 50.86C67.5888 50.86 69.3088 50.44 70.7088 49.6C72.1488 48.76 73.2288 47.4 73.9488 45.52C74.7088 43.6 75.0888 41.08 75.0888 37.96C75.0888 34.8 74.7088 32.28 73.9488 30.4C73.2288 28.52 72.1488 27.18 70.7088 26.38C69.3088 25.54 67.5888 25.12 65.5488 25.12C63.5088 25.12 61.7888 25.54 60.3888 26.38C58.9888 27.22 57.9088 28.58 57.1488 30.46C56.4288 32.34 56.0688 34.88 56.0688 38.08C56.0688 41.24 56.4288 43.76 57.1488 45.64C57.9088 47.48 58.9888 48.82 60.3888 49.66C61.7888 50.46 63.5088 50.86 65.5488 50.86ZM98.0833 58L86.8633 17.98H97.4833L104.503 49.06H102.883L111.883 17.98H119.383L128.563 49.48H126.763L133.843 17.98H144.463L133.243 58H123.643L114.823 29.2H116.563L107.683 58H98.0833Z" fill="#115C07"/>
<path d="M4.31078 58V17.98H12.5908L33.1708 45.7L30.2908 51.7V17.98H39.2308V58H31.9108L10.9708 30.64L13.2508 26.26V58H4.31078ZM65.5488 58.84C61.5888 58.84 58.1488 58.1 55.2288 56.62C52.3088 55.1 50.0288 52.8 48.3888 49.72C46.7888 46.64 45.9888 42.74 45.9888 38.02C45.9888 31.18 47.7088 26 51.1488 22.48C54.5888 18.96 59.3888 17.2 65.5488 17.2C69.5088 17.2 72.9488 17.96 75.8688 19.48C78.8288 20.96 81.1088 23.22 82.7088 26.26C84.3088 29.3 85.1088 33.2 85.1088 37.96C85.1088 44.84 83.3888 50.04 79.9488 53.56C76.5488 57.08 71.7488 58.84 65.5488 58.84ZM65.5488 50.86C67.5888 50.86 69.3088 50.44 70.7088 49.6C72.1488 48.76 73.2288 47.4 73.9488 45.52C74.7088 43.6 75.0888 41.08 75.0888 37.96C75.0888 34.8 74.7088 32.28 73.9488 30.4C73.2288 28.52 72.1488 27.18 70.7088 26.38C69.3088 25.54 67.5888 25.12 65.5488 25.12C63.5088 25.12 61.7888 25.54 60.3888 26.38C58.9888 27.22 57.9088 28.58 57.1488 30.46C56.4288 32.34 56.0688 34.88 56.0688 38.08C56.0688 41.24 56.4288 43.76 57.1488 45.64C57.9088 47.48 58.9888 48.82 60.3888 49.66C61.7888 50.46 63.5088 50.86 65.5488 50.86ZM98.0833 58L86.8633 17.98H97.4833L104.503 49.06H102.883L111.883 17.98H119.383L128.563 49.48H126.763L133.843 17.98H144.463L133.243 58H123.643L114.823 29.2H116.563L107.683 58H98.0833Z" fill="#115C07"/>
<path d="M395.46 13.4997H395.157L395.017 13.7687L385.744 31.5698L376.635 13.7719L376.496 13.4997H376.19H368H367.148L367.564 14.2436L381.53 39.2299V52.7497V53.2497H382.03H389.51H390.01V52.7497V39.3398L404.027 14.2435L404.442 13.4997H403.59H395.46Z" fill="#A4D232" stroke="#A4D232"/>
<path d="M346.034 39.2181L346.033 39.219C345.561 40.7135 344.858 42.0507 343.935 43.2436C343.02 44.4256 341.885 45.3699 340.546 46.0776L340.544 46.0789C339.227 46.7842 337.701 47.1397 335.95 47.1397C334.24 47.1397 332.73 46.7944 331.4 46.1059C330.06 45.4071 328.935 44.4909 328.01 43.3463C327.09 42.1959 326.378 40.8703 325.886 39.3552L325.885 39.3543C325.392 37.8466 325.15 36.2792 325.15 34.6497C325.15 33.1028 325.392 31.5836 325.867 30.0804C326.34 28.5846 327.033 27.258 327.944 26.0869C328.849 24.925 329.974 23.9901 331.334 23.2718C332.672 22.5651 334.209 22.2097 335.96 22.2097C337.641 22.2097 339.132 22.5454 340.454 23.2156C341.792 23.8942 342.915 24.7994 343.84 25.9522C344.761 27.1042 345.484 28.432 345.996 29.9496L345.997 29.9505C346.508 31.4558 346.76 33.0202 346.76 34.6465C346.74 36.1991 346.507 37.7289 346.034 39.2181ZM350.015 20.889C348.331 18.9787 346.308 17.4395 343.942 16.2717C341.557 15.0843 338.919 14.4997 336.05 14.4997C333.252 14.4997 330.65 15.0536 328.251 16.1553C325.863 17.252 323.799 18.7403 322.064 20.6094C320.332 22.4746 318.969 24.6165 317.987 27.042C317.003 29.4708 316.5 32.0045 316.5 34.6497C316.5 37.182 316.962 39.6627 317.893 42.0889C318.825 44.5144 320.136 46.668 321.84 48.5455C323.545 50.4351 325.577 51.9434 327.943 53.0803C330.328 54.2264 332.974 54.7897 335.88 54.7897C338.678 54.7897 341.28 54.2358 343.679 53.1341C346.066 52.0377 348.12 50.5595 349.837 48.7097C351.549 46.864 352.891 44.7419 353.864 42.3371C354.838 39.9258 355.32 37.4021 355.32 34.7497C355.32 32.2453 354.848 29.7851 353.927 27.3715C353.006 24.9555 351.695 22.7939 350.015 20.889Z" fill="#A4D232" stroke="#A4D232"/>
<path d="M268.56 54.2497H269.06V53.7497V15.0497V14.5497H268.56H261.03H260.53V15.0497V38.9958L241.232 14.6888L241.081 14.4997H240.84H235H234.5V14.9997V53.7497V54.2497H235H242.53H243.03V53.7497V30.3324L262.06 54.0625L262.21 54.2497H262.45H268.56Z" fill="#A4D232" stroke="#A4D232"/>
<path d="M214.9 45.6397H196.03V36.5397H211.85H212.35V36.0397V29.9297V29.4297H211.85H196.03V21.0997H214.41H214.91V20.5997V13.9997V13.4997H214.41H188H187.5V13.9997V52.7497V53.2497H188H214.9H215.4V52.7497V46.1397V45.6397H214.9Z" fill="#A4D232" stroke="#A4D232"/>
<path d="M292.285 67.5167L292.284 67.5172C290.288 68.5153 287.661 68.99 284.4 68.98C284.399 68.98 284.399 68.98 284.398 68.98L284.4 68.48C281.13 68.48 278.33 67.68 276 66.08L292.285 67.5167ZM292.285 67.5167C294.253 66.5273 295.779 65.1431 296.832 63.3424C297.872 61.5635 298.549 59.436 298.856 56.9622C299.169 54.5172 299.32 51.8158 299.32 48.85V14V13.5H298.82H291.29H290.79V14V48.84C290.79 51.0104 290.72 52.8941 290.572 54.4939C290.425 56.0785 290.124 57.3742 289.68 58.4129L292.285 67.5167Z" fill="#A4D232" stroke="#A4D232"/>
<path d="M256.569 79.7126L256.282 79.3042L255.873 79.5903L249.713 83.9003L249.303 84.1875L249.591 84.5974C257.49 95.8443 270.559 103.22 285.32 103.22C300.081 103.22 313.15 95.8443 321.049 84.5974L321.337 84.1875L320.927 83.9003L314.767 79.5903L314.357 79.3038L314.07 79.7131C307.73 88.7654 297.22 94.69 285.33 94.69C273.43 94.69 262.93 88.7656 256.569 79.7126Z" fill="#115C07" stroke="#115C07"/>
</svg>
