<svg width="24" height="22" viewBox="0 0 24 22" fill="none" xmlns="http://www.w3.org/2000/svg">
<path d="M20.4031 13.3559C19.1189 10.0652 15.7433 12.7339 13.7539 8.04912C11.9917 3.89926 11.456 -0.439206 6.1086 0.325201C0.794679 1.08481 -2.09565 11.7258 3.23863 18.0009C8.79577 24.5382 23.3304 20.8568 20.4031 13.3559V13.3559Z" fill="#FF7B8B"/>
<path d="M19.0366 13.7666C18.3896 12.0999 13.6916 12.832 12.3351 8.51406C11.083 4.52834 9.53627 1.35402 6.63503 1.55731C2.69167 1.83367 -0.355184 11.4657 4.43256 16.9179C9.10288 22.2364 21.3302 19.674 19.0366 13.7666V13.7666Z" fill="#FF4755"/>
<path d="M13.7537 8.0491C15.7431 12.7338 19.1187 10.0652 20.4029 13.3559C22.2685 18.1363 17.0416 21.365 11.5663 21.3863L11.5662 21.3867L13.8421 21.3782L13.8417 21.3764C18.8125 21.3011 23.7929 18.4104 23.2759 13.42C22.9107 9.89624 17.4699 10.0845 16.3608 8.0491C14.3754 4.40553 14.0949 0.209793 9.78257 0.241676L9.78248 0.240827L7.4956 0.240676C11.5674 0.376006 12.1574 4.28984 13.7537 8.0491Z" fill="#994E37"/>
<path d="M15.5311 8.51301C17.1676 11.1785 22.081 10.3601 22.4461 13.884C22.7339 16.661 21.3189 18.7873 19.1509 20.1406C21.7763 18.8364 23.5988 16.5383 23.2758 13.4207C22.9106 9.89691 17.4698 10.0852 16.3607 8.04975C14.3753 4.40616 14.0948 0.210357 9.78257 0.24229L9.78248 0.241441L7.4956 0.24129C13.2436 0.237542 13.3713 4.99526 15.5311 8.51301V8.51301Z" fill="#8C4534"/>
<path d="M8.21728 10.3485C8.21728 9.16132 7.6548 8.19893 6.96094 8.19893C6.26708 8.19893 5.70459 9.16132 5.70459 10.3485C5.70459 11.5357 6.26708 12.498 6.96094 12.498C7.6548 12.498 8.21728 11.5357 8.21728 10.3485Z" fill="#F4E9D3"/>
<path d="M7.38789 10.3485C7.38789 11.2869 7.03634 12.0843 6.54639 12.3776C6.67629 12.4553 6.81577 12.498 6.96121 12.498C7.65504 12.498 8.21753 11.5356 8.21753 10.3484C8.21753 9.16127 7.65508 8.19887 6.96121 8.19887C6.81577 8.19887 6.67629 8.24161 6.54639 8.31936C7.03634 8.61263 7.38789 9.4101 7.38789 10.3485Z" fill="#E5D6BE"/>
</svg>
