<svg width="24" height="29" viewBox="0 0 24 29" fill="none" xmlns="http://www.w3.org/2000/svg">
<path d="M3.72893 28.0001C3.59893 27.9601 3.46893 27.9101 3.33893 27.8801C1.37893 27.3701 0.0289339 25.7001 0.0189339 23.6401C-0.00106609 18.6901 -0.0110661 13.7401 0.0189339 8.8001C0.0389339 6.2801 1.97893 4.4301 4.49893 4.4201C7.91893 4.4101 11.3289 4.4101 14.7489 4.4201C17.2889 4.4301 19.1989 6.3301 19.2089 8.8601C19.2189 13.7601 19.2189 18.6601 19.2089 23.5601C19.2089 25.7901 17.7889 27.4901 15.6089 27.9401C15.5489 27.9501 15.4989 27.9901 15.4389 28.0101C11.5289 28.0001 7.62893 28.0001 3.72893 28.0001ZM2.21893 16.2001C2.21893 18.6201 2.21893 21.0401 2.21893 23.4501C2.21893 24.9001 3.09893 25.8101 4.53893 25.8101C7.92893 25.8201 11.3089 25.8201 14.6989 25.8101C16.1289 25.8101 17.0389 24.8801 17.0389 23.4601C17.0389 18.6401 17.0389 13.8201 17.0389 9.0001C17.0389 7.5301 16.1489 6.6301 14.6889 6.6201C11.3189 6.6101 7.94893 6.6101 4.57893 6.6201C3.09893 6.6201 2.22893 7.5101 2.22893 8.9901C2.20893 11.3901 2.21893 13.8001 2.21893 16.2001Z" fill="#444444"/>
<path d="M19.8388 0C20.3188 0.17 20.8288 0.29 21.2688 0.53C22.7588 1.35 23.5688 2.63 23.5688 4.33C23.5888 9.81 23.5788 15.28 23.5788 20.76C23.5788 21.48 23.1388 21.97 22.5088 21.98C21.8588 21.99 21.4188 21.49 21.4188 20.73C21.4188 15.36 21.4188 9.99 21.4188 4.63C21.4188 3.7 21.1288 2.91 20.2788 2.48C19.8788 2.28 19.3888 2.19 18.9288 2.18C15.1088 2.16 11.2788 2.17 7.45884 2.17C7.28884 2.17 7.11884 2.18 6.94884 2.16C6.45884 2.11 6.14884 1.82 6.01884 1.36C5.88884 0.92 6.03884 0.54 6.39884 0.24C6.49884 0.15 6.61884 0.08 6.72884 0C11.0988 0 15.4688 0 19.8388 0Z" fill="#444444"/>
</svg>
