<svg width="81" height="70" viewBox="0 0 81 70" fill="none" xmlns="http://www.w3.org/2000/svg">
<path d="M77.5015 44.9986C76.1215 44.9986 75.0015 46.1187 75.0015 47.4987V64.999H5.0001V34.9984H32.5006C33.8807 34.9984 35.0007 33.8784 35.0007 32.4984C35.0007 31.1184 33.8807 29.9983 32.5006 29.9983H5.0001V19.9981H32.5006C33.8807 19.9981 35.0007 18.8781 35.0007 17.4981C35.0007 16.1181 33.8807 14.998 32.5006 14.998H5.0001C2.24004 14.998 0 17.2381 0 19.9981V64.999C0 67.7591 2.24004 69.9991 5.0001 69.9991H75.0015C77.7615 69.9991 80.0016 67.7591 80.0016 64.999V47.4987C80.0016 46.1187 78.8815 44.9986 77.5015 44.9986Z" fill="#115C07"/>
<path d="M78.4911 7.6989L60.9908 0.198754C60.3558 -0.0662513 59.6508 -0.0662513 59.0157 0.198754L41.5154 7.6989C40.6004 8.09391 40.0054 8.99893 40.0054 9.99895V19.9991C40.0054 33.7544 45.0905 41.7946 58.7607 49.6697C59.1457 49.8897 59.5758 49.9997 60.0058 49.9997C60.4358 49.9997 60.8658 49.8897 61.2508 49.6697C74.9211 41.8146 80.0062 33.7744 80.0062 19.9991V9.99895C80.0062 8.99893 79.4111 8.09391 78.4911 7.6989ZM75.0061 19.9991C75.0061 31.5444 71.186 37.8995 60.0058 44.5996C48.8255 37.8845 45.0055 31.5294 45.0055 19.9991V11.649L60.0058 5.21885L75.0061 11.649V19.9991Z" fill="#115C07"/>
<path d="M69.068 15.5423C67.993 14.6923 66.423 14.8573 65.553 15.9323L57.6928 25.7625L54.5827 21.1124C53.8077 19.9624 52.2527 19.6574 51.1177 20.4174C49.9727 21.1824 49.6576 22.7375 50.4227 23.8825L55.4228 31.3827C55.8678 32.0477 56.5978 32.4577 57.3978 32.4977C57.4328 32.4977 57.4728 32.4977 57.5028 32.4977C58.2578 32.4977 58.9778 32.1577 59.4578 31.5577L69.458 19.0574C70.3181 17.9774 70.148 16.4074 69.068 15.5423Z" fill="#115C07"/>
</svg>
