<svg width="334" height="332" viewBox="0 0 334 332" fill="none" xmlns="http://www.w3.org/2000/svg">
<path d="M70.8384 189.828C68.4118 180.362 67.3362 170.397 67.8865 160.133C70.7383 105.751 117.342 63.9734 171.952 66.8383C225.46 69.6284 266.811 114.245 265.735 167.233L289.05 195.334L317.718 185.618C318.268 181.532 318.693 177.422 318.918 173.237C323.321 89.5579 258.781 18.1606 174.753 13.7761C90.7008 9.3916 19.006 73.6641 14.6032 157.343C13.6526 175.479 15.9541 193.017 20.9572 209.434L41.7202 182.604L70.8384 189.828Z" fill="#115C07"/>
<path d="M286.554 204.053L264.915 177.97C258.361 228.616 213.633 266.457 161.576 263.742C120.375 261.599 86.3788 234.62 73.3957 198.149L44.6777 191.024L23.8647 217.929C44.3525 273.009 96.1599 313.516 158.799 316.779C235.722 320.79 302.289 267.229 316.348 193.939L286.554 204.053Z" fill="#A4D232"/>
<path d="M36.8751 161.977C35.149 161.752 33.4979 161.204 31.922 160.332C30.346 159.46 28.9701 158.339 27.8194 156.919C26.6687 155.499 25.7931 153.855 25.1928 151.987C24.6174 150.119 24.4673 148.051 24.7675 145.784C25.1177 143.068 25.9933 140.801 27.3941 138.958C28.77 137.115 30.4711 135.844 32.4473 135.097L35.8744 141.524C35.149 141.698 34.5236 141.972 34.0233 142.346C33.523 142.72 33.0977 143.168 32.7725 143.641C32.4473 144.14 32.1721 144.663 31.997 145.211C31.8219 145.759 31.6968 146.307 31.6218 146.83C31.4717 147.926 31.5717 148.923 31.8969 149.77C32.2221 150.642 32.7225 151.364 33.3479 151.962C33.9732 152.56 34.7237 153.058 35.5742 153.432C36.4248 153.805 37.3003 154.03 38.1759 154.154C39.1515 154.279 40.1021 154.254 41.0527 154.079C42.0033 153.905 42.8288 153.581 43.6043 153.133C44.3547 152.684 45.0051 152.062 45.5305 151.314C46.0558 150.567 46.381 149.695 46.5061 148.699C46.5811 148.175 46.5811 147.627 46.5311 147.054C46.4811 146.481 46.356 145.933 46.1559 145.385C45.9557 144.837 45.6555 144.339 45.2553 143.866C44.8801 143.392 44.3797 143.019 43.7794 142.695L48.3822 136.915C49.3579 137.463 50.2084 138.236 50.9088 139.207C51.6093 140.179 52.1596 141.225 52.5849 142.396C52.9851 143.567 53.2603 144.787 53.3854 146.083C53.5104 147.378 53.4854 148.599 53.3353 149.795C53.0602 151.862 52.3847 153.731 51.3341 155.35C50.2834 156.969 48.9826 158.315 47.4317 159.386C45.8807 160.457 44.2046 161.229 42.3535 161.678C40.5023 162.126 38.6762 162.201 36.8751 161.977Z" fill="white"/>
<path d="M56.8605 113.025L63.2145 115.441L56.01 134.299L29.4434 124.235L36.5228 105.726L42.8768 108.142L38.5741 119.402L42.3264 120.822L46.0037 111.206L51.9074 113.448L48.2301 123.064L52.4077 124.659L56.8605 113.025Z" fill="white"/>
<path d="M65.271 111.405L41.7063 95.6113L48.9858 84.8245C49.7613 83.6785 50.7119 82.7817 51.8376 82.134C52.9633 81.4863 54.1391 81.0628 55.3899 80.8884C56.6156 80.714 57.8664 80.7389 59.1172 81.013C60.368 81.287 61.4937 81.7354 62.4943 82.408C63.8701 83.3298 64.9458 84.4757 65.7213 85.8708C66.4968 87.2658 66.9221 88.7356 66.9471 90.3051L78.9546 91.1521L74.0515 98.4263L64.0202 97.7039L62.3942 100.12L69.6237 104.978L65.271 111.405ZM56.7407 96.3088L59.4924 92.2482C59.7676 91.8496 59.7926 91.3265 59.5675 90.7037C59.3673 90.056 58.842 89.483 58.0665 88.9349C57.241 88.3869 56.4905 88.1627 55.7901 88.2623C55.0897 88.362 54.6144 88.6111 54.3392 89.0097L51.7126 92.9208L56.7407 96.3088Z" fill="white"/>
<path d="M82.6798 58.4426L76.701 63.973L91.3852 79.7671L85.6566 85.0484L70.9725 69.2543L64.9437 74.8096L60.3158 69.8522L78.0519 53.4851L82.6798 58.4426Z" fill="white"/>
<path d="M101.095 72.269L85.7102 48.4782L92.2643 44.2681L107.649 68.0589L101.095 72.269Z" fill="white"/>
<path d="M112.876 64.82L101.569 38.8618L119.455 31.1392L122.157 37.3671L111.425 42.0007L113.301 46.3105L122.032 42.5488L124.558 48.3283L115.828 52.09L120.03 61.7558L112.876 64.82Z" fill="white"/>
<path d="M135.011 56.226L128.082 28.7732L135.661 26.8799L142.591 54.3327L135.011 56.226Z" fill="white"/>
<path d="M168.18 44.5917L168.706 51.3428L148.518 52.8873L146.342 24.6871L166.179 23.1675L166.704 29.9186L154.647 30.8403L154.947 34.8262L165.253 34.029L165.729 40.3068L155.422 41.104L155.773 45.5632L168.18 44.5917Z" fill="white"/>
<path d="M173.208 51.3925L177.761 23.4663L188.543 25.2101C190.869 25.5838 192.845 26.2813 194.496 27.3027C196.147 28.3241 197.448 29.5448 198.424 31.0146C199.399 32.4595 200.05 34.0787 200.4 35.8724C200.725 37.6661 200.725 39.5095 200.425 41.4277C200.075 43.5452 199.424 45.4136 198.474 47.0329C197.523 48.6522 196.323 49.9476 194.897 50.969C193.446 51.9904 191.82 52.6879 189.969 53.0865C188.117 53.4851 186.141 53.4851 183.99 53.1612L173.208 51.3925ZM192.595 40.1572C192.77 39.086 192.795 38.0646 192.645 37.1429C192.495 36.1963 192.22 35.3742 191.77 34.6517C191.344 33.9293 190.744 33.3314 190.019 32.8581C189.293 32.3847 188.443 32.0609 187.467 31.9114L184.39 31.4132L182.014 45.9617L185.091 46.4599C186.091 46.6094 187.017 46.5845 187.867 46.3354C188.718 46.0863 189.468 45.6877 190.119 45.1147C190.769 44.5417 191.294 43.8442 191.72 42.9972C192.12 42.1502 192.42 41.2035 192.595 40.1572Z" fill="white"/>
<path d="M248.083 48.2291L234.074 72.8669L227.295 69.0305L232.773 59.3896L224.493 54.7061L219.015 64.347L212.21 60.5106L226.219 35.8728L232.998 39.7092L227.845 48.802L236.125 53.4855L241.304 44.3926L248.083 48.2291Z" fill="white"/>
<path d="M263.492 61.1338L268.62 66.0663L255.912 93.2202L250.208 87.7147L252.835 82.5331L247.407 77.3016L242.328 80.1166L236.6 74.6111L263.492 61.1338ZM255.587 77.9742L259.914 69.9277L251.884 74.3869L255.587 77.9742Z" fill="white"/>
<path d="M257.616 96.0347L281.456 80.6392L285.708 87.1661L267.572 98.8746L274.576 109.637L268.873 113.323L257.616 96.0347Z" fill="white"/>
<path d="M299.689 113.772L302.141 120.424L278.851 139.357L276.125 131.958L280.753 128.445L278.151 121.37L272.347 121.694L269.596 114.246L299.689 113.772ZM285.205 125.506L292.61 120.125L283.429 120.673L285.205 125.506Z" fill="white"/>
<path d="M279.151 142.644L307.343 139.082L308.319 146.78L286.88 149.495L288.506 162.225L281.752 163.072L279.151 142.644Z" fill="white"/>
<path d="M62.9109 258.859L82.348 238.705L91.0785 247.051C92.0791 247.997 92.7796 249.068 93.2298 250.289C93.6801 251.485 93.8803 252.706 93.8552 253.926C93.8302 255.147 93.5801 256.343 93.1048 257.514C92.6295 258.684 91.9791 259.706 91.1786 260.553C90.328 261.45 89.3274 262.147 88.1767 262.695C87.051 263.218 85.8752 263.542 84.6495 263.642C83.4487 263.741 82.223 263.592 81.0222 263.193C79.8215 262.795 78.7208 262.122 77.7452 261.176L74.4431 258.012L68.4644 264.19L62.9109 258.859ZM79.096 253.179L82.0228 255.994C82.3731 256.318 82.8233 256.467 83.4237 256.442C84.0241 256.417 84.6995 255.994 85.5 255.172C86.3005 254.35 86.6757 253.602 86.6257 252.98C86.5757 252.357 86.3756 251.859 86.0253 251.535L83.2236 248.869L79.096 253.179Z" fill="white"/>
<path d="M83.9974 277.916L98.7566 254.15L109.713 260.901C110.889 261.623 111.815 262.52 112.49 263.616C113.191 264.713 113.641 265.858 113.866 267.054C114.091 268.25 114.091 269.496 113.891 270.716C113.666 271.962 113.266 273.083 112.64 274.079C111.79 275.474 110.689 276.571 109.338 277.393C107.987 278.215 106.537 278.688 105.011 278.763L104.635 290.596L97.2307 286.037L97.5559 276.147L95.1044 274.627L90.5765 281.927L83.9974 277.916ZM98.6066 268.972L102.734 271.513C103.134 271.763 103.66 271.763 104.285 271.538C104.91 271.314 105.461 270.791 105.961 269.994C106.486 269.172 106.662 268.424 106.537 267.727C106.411 267.054 106.136 266.581 105.736 266.332L101.759 263.89L98.6066 268.972Z" fill="white"/>
<path d="M122.267 297.447C120.241 296.774 118.54 295.778 117.139 294.457C115.738 293.137 114.687 291.642 113.937 289.998C113.187 288.354 112.761 286.61 112.661 284.767C112.561 282.923 112.786 281.155 113.362 279.436C113.937 277.692 114.838 276.122 116.063 274.752C117.289 273.357 118.715 272.261 120.341 271.439C121.967 270.617 123.743 270.094 125.644 269.919C127.545 269.745 129.497 269.994 131.473 270.642C133.499 271.314 135.2 272.311 136.601 273.631C137.977 274.951 139.053 276.446 139.803 278.115C140.554 279.784 140.979 281.528 141.054 283.347C141.154 285.165 140.904 286.934 140.328 288.628C139.753 290.372 138.853 291.941 137.627 293.311C136.401 294.682 135 295.803 133.374 296.625C131.748 297.447 129.997 297.97 128.096 298.169C126.17 298.344 124.243 298.119 122.267 297.447ZM120.766 282.002C120.466 282.898 120.291 283.795 120.266 284.717C120.241 285.639 120.366 286.511 120.641 287.308C120.916 288.13 121.367 288.852 121.992 289.5C122.617 290.148 123.468 290.646 124.519 290.995C125.569 291.343 126.545 291.443 127.47 291.294C128.371 291.144 129.197 290.82 129.897 290.322C130.597 289.824 131.223 289.201 131.748 288.429C132.273 287.657 132.674 286.834 132.974 285.963C133.274 285.066 133.449 284.169 133.474 283.247C133.499 282.325 133.374 281.478 133.074 280.656C132.774 279.834 132.298 279.137 131.673 278.489C131.048 277.841 130.222 277.368 129.197 277.019C128.146 276.67 127.17 276.571 126.27 276.695C125.369 276.845 124.569 277.144 123.843 277.642C123.118 278.14 122.492 278.763 121.992 279.51C121.492 280.258 121.041 281.13 120.766 282.002Z" fill="white"/>
<path d="M178.681 276.596L178.556 304.547L170.851 304.522L170.901 293.586L161.495 293.536L161.445 304.473L153.74 304.423L153.865 276.472L161.57 276.497L161.52 286.81L170.926 286.86L170.976 276.546L178.681 276.596Z" fill="white"/>
<path d="M188.269 274.504L195.124 272.909L210.934 297.946L203.304 299.714L200.402 294.757L193.147 296.451L192.772 302.156L185.117 303.924L188.269 274.504ZM198.076 290.049L193.673 282.176L193.097 291.194L198.076 290.049Z" fill="white"/>
<path d="M216.584 295.554L204.826 270.169L211.831 266.955L220.761 286.262L232.318 280.956L235.145 287.034L216.584 295.554Z" fill="white"/>
<path d="M229.763 257.015L235.416 252.854L259.907 269.595L253.603 274.229L248.975 270.841L242.971 275.25L244.897 280.631L238.568 285.29L229.763 257.015ZM244.947 267.428L237.793 261.922L240.845 270.442L244.947 267.428Z" fill="white"/>
<path d="M264.158 265.162L243.22 246.552L248.348 240.823L264.258 254.973L272.738 245.531L277.741 249.99L264.158 265.162Z" fill="white"/>
<path d="M266.014 225.577L264.363 228.466L271.343 232.452L270.067 234.669L263.087 230.684L261.436 233.573L259.135 232.278L263.713 224.306L266.014 225.577ZM268.791 215.587L270.642 212.348L279.848 217.58L278.572 219.797L272.368 216.26L275.996 221.217L274.97 223.011L268.841 222.413L275.045 225.95L273.769 228.167L264.563 222.936L266.415 219.722L272.869 220.669L268.791 215.587Z" fill="white"/>
<path d="M166.725 332C74.8175 332 0.0457764 257.538 0.0457764 165.987C0.0457764 74.4363 74.8175 -0.000244141 166.725 -0.000244141C258.632 -0.000244141 333.404 74.4612 333.404 165.987C333.404 257.513 258.657 332 166.725 332ZM166.725 7.47331C78.9701 7.47331 7.55047 78.5966 7.55047 165.987C7.55047 253.378 78.9701 324.501 166.725 324.501C254.48 324.501 325.899 253.378 325.899 165.987C325.899 78.5966 254.505 7.47331 166.725 7.47331Z" fill="#115C07"/>
<path d="M158.467 182.953V157.742H166.747V165.514V116.264C163.82 129.118 156.59 138.46 150.387 147.727C146.784 153.108 143.532 158.464 141.681 164.468L141.781 164.269C140.756 167.109 140.155 170.148 140.155 173.337C140.155 187.96 152.063 199.843 166.747 199.843V176.177L158.467 182.953Z" fill="#02641B"/>
<path d="M184.956 150.567C184.356 149.621 183.73 148.674 183.105 147.727C176.901 138.46 169.672 129.118 166.745 116.264V165.489L184.956 150.567Z" fill="#A4D232"/>
<path d="M191.71 164.269L191.811 164.469C191.11 162.177 190.185 159.96 189.134 157.817L166.745 176.177V199.843C181.429 199.819 193.336 187.96 193.336 173.337C193.336 170.149 192.761 167.109 191.71 164.269Z" fill="#A4D232"/>
<path d="M161.737 148.102C162.012 147.404 160.986 142.945 161.787 142.073C161.812 142.048 161.812 141.998 161.787 141.973C161.386 141.6 161.036 140.902 160.911 140.603C160.886 140.528 160.786 140.528 160.736 140.578C160.461 140.877 160.11 141.276 159.985 141.425C159.96 141.45 159.935 141.5 159.96 141.525C160.11 142.272 161.161 145.884 160.811 148.077C160.411 149.945 155.307 149.746 155.833 147.653C155.908 147.329 156.208 146.557 156.383 146.183C156.408 146.158 156.358 146.109 156.333 146.134C155.708 146.607 154.182 148.425 155.458 149.771C157.284 151.639 161.236 150.468 161.737 148.102Z" fill="white"/>
<path d="M165.137 147.703C165.137 147.753 165.212 147.753 165.237 147.703C166.062 144.539 163.21 143.095 162.26 142.721C162.135 142.671 161.985 142.771 161.96 142.895C161.935 143.07 161.91 143.319 161.885 143.742C161.885 143.867 161.885 143.991 161.91 144.091C162.185 145.561 164.486 144.539 165.137 147.703Z" fill="white"/>
<path d="M178.521 147.702C175.093 148.4 172.092 143.517 170.115 148.3C170.09 148.325 170.14 148.375 170.165 148.35C171.041 147.702 171.891 147.054 174.168 148.2C174.193 148.225 174.193 148.25 174.168 148.275C173.092 148.898 171.366 148.748 170.29 148.699C168.664 148.549 169.09 144.887 168.89 143.268C168.865 143.019 168.815 142.645 168.714 142.421C168.239 141.275 167.814 142.695 167.614 143.791C166.688 149.172 161.66 150.019 160.184 150.418C160.134 150.418 160.159 150.492 160.184 150.492C166.813 151.265 167.364 147.104 168.014 145.286C168.039 145.236 168.089 145.261 168.089 145.286C168.089 145.734 168.089 146.855 168.114 147.453C168.289 150.841 171.816 150.218 174.093 149.521C175.869 148.898 176.294 149.047 177.37 149.047H177.395C177.495 148.948 178.245 148.126 178.546 147.752C178.596 147.727 178.571 147.702 178.521 147.702Z" fill="white"/>
<path d="M159.011 190.128H156.084V186.889H154.908V193.292H156.084V191.299H159.011V193.292H160.186V186.889H159.011V190.128Z" fill="white"/>
<path d="M164.131 186.814C163.23 186.814 162.455 187.138 161.83 187.761C161.204 188.384 160.879 189.181 160.879 190.078C160.879 190.975 161.204 191.747 161.83 192.395C162.455 193.042 163.23 193.341 164.131 193.341C164.932 193.341 165.632 193.092 166.207 192.594V193.291H167.383V190.078C167.383 189.181 167.058 188.409 166.432 187.761C165.807 187.138 165.032 186.814 164.131 186.814ZM165.607 191.573C165.182 191.996 164.706 192.195 164.131 192.195C163.556 192.195 163.055 191.996 162.655 191.573C162.255 191.149 162.055 190.676 162.055 190.078C162.055 189.505 162.255 189.007 162.655 188.583C163.08 188.16 163.556 187.96 164.131 187.96C164.706 187.96 165.207 188.16 165.607 188.583C166.007 189.007 166.207 189.48 166.207 190.078C166.207 190.676 166.007 191.149 165.607 191.573Z" fill="white"/>
<path d="M169.4 185.694H168.224V193.292H169.4V185.694Z" fill="white"/>
<path d="M173.32 186.815C172.42 186.815 171.644 187.139 171.019 187.761C170.393 188.384 170.068 189.181 170.068 190.078C170.068 190.975 170.393 191.747 171.019 192.395C171.644 193.043 172.42 193.342 173.32 193.342C174.121 193.342 174.821 193.092 175.397 192.594V193.292H176.572V190.078C176.572 189.181 176.247 188.409 175.622 187.761C174.996 187.139 174.221 186.815 173.32 186.815ZM174.796 191.573C174.371 191.996 173.896 192.196 173.32 192.196C172.745 192.196 172.245 191.996 171.844 191.573C171.444 191.149 171.244 190.676 171.244 190.078C171.244 189.505 171.444 189.007 171.844 188.583C172.27 188.16 172.745 187.961 173.32 187.961C173.896 187.961 174.396 188.16 174.796 188.583C175.196 189.007 175.397 189.48 175.397 190.078C175.422 190.676 175.221 191.149 174.796 191.573Z" fill="white"/>
<path d="M178.572 185.693H177.396V193.291H178.572V185.693Z" fill="white"/>
<path d="M110.095 209.111H108.594V229.239H110.095V209.111Z" fill="#02641B"/>
<path d="M196.492 102.812C182.558 92.6725 168.85 88.6119 168.249 88.4375C167.899 88.3379 167.549 88.3379 167.199 88.4375C166.598 88.6119 152.414 92.6725 138.005 102.787C129.5 108.766 122.721 115.616 117.818 123.19C111.714 132.556 108.512 143.493 108.562 154.653V205.324H115.016C114.115 204.925 113.24 204.477 112.339 204.078V154.653C112.264 144.24 115.266 134.026 120.945 125.282C125.548 118.157 131.977 111.63 140.057 105.951C148.537 100.046 157.843 95.4377 167.674 92.249C177.18 95.4627 186.16 100.071 194.291 105.951C202.095 111.655 208.299 118.157 212.752 125.282C218.281 134.151 221.082 144.041 221.082 154.678V204.103C220.182 204.502 219.306 204.95 218.406 205.349H224.86V154.653C224.86 143.268 221.858 132.706 215.929 123.214C211.276 115.666 204.722 108.79 196.492 102.812Z" fill="#A4D232"/>
<path d="M121.092 188.084C121.092 187.038 120.242 186.191 119.191 186.191C118.14 186.191 117.29 187.038 117.29 188.084V200.316C117.29 201.063 117.74 201.736 118.44 202.035L118.741 202.159C121.017 203.131 123.268 204.252 125.52 205.298H134.25C129.923 203.106 125.545 200.989 121.067 199.07V188.084H121.092Z" fill="#02641B"/>
<path d="M216.202 200.316V154.678C216.277 145.236 213.626 135.969 208.622 127.947C204.62 121.545 199.041 115.716 192.062 110.634C180.255 102.039 168.597 98.5762 168.097 98.4517C167.747 98.352 167.397 98.352 167.046 98.4517C166.546 98.6012 154.489 102.039 142.281 110.634C135.051 115.716 129.298 121.545 125.145 127.947C119.967 135.919 117.24 145.211 117.29 154.703V175.579C117.29 176.625 118.141 177.472 119.192 177.472C120.242 177.472 121.093 176.625 121.093 175.579V154.703C121.043 145.959 123.544 137.389 128.322 130.04C132.2 124.036 137.603 118.58 144.407 113.772C151.512 108.815 159.342 104.929 167.597 102.238C175.552 104.929 183.056 108.79 189.861 113.698C196.44 118.481 201.693 123.961 205.445 129.965C210.098 137.389 212.525 145.959 212.45 154.703V199.095C207.972 201.039 203.594 203.131 199.267 205.323H207.997C210.248 204.277 212.475 203.156 214.776 202.185L215.076 202.06C215.752 201.761 216.202 201.064 216.202 200.316Z" fill="#02641B"/>
<path d="M147.215 217.231C147.165 217.181 147.064 217.107 146.914 217.007C146.764 216.907 146.614 216.833 146.389 216.733C146.189 216.658 145.964 216.584 145.739 216.509C145.513 216.459 145.263 216.409 145.013 216.409C144.588 216.409 144.263 216.484 144.038 216.658C143.812 216.808 143.712 217.032 143.712 217.331C143.712 217.505 143.762 217.63 143.837 217.754C143.912 217.854 144.038 217.954 144.188 218.053C144.338 218.128 144.538 218.203 144.763 218.278C144.988 218.352 145.263 218.427 145.563 218.502C145.964 218.601 146.314 218.726 146.639 218.851C146.964 218.975 147.24 219.125 147.465 219.299C147.69 219.473 147.865 219.698 147.99 219.947C148.115 220.196 148.165 220.52 148.165 220.893C148.165 221.317 148.09 221.691 147.915 221.989C147.74 222.288 147.54 222.538 147.265 222.737C146.989 222.936 146.664 223.061 146.314 223.16C145.964 223.26 145.563 223.285 145.188 223.285C144.588 223.285 143.988 223.185 143.387 223.011C142.787 222.836 142.261 222.562 141.786 222.239L142.487 220.893C142.562 220.968 142.687 221.043 142.862 221.167C143.037 221.267 143.262 221.392 143.487 221.491C143.737 221.591 143.988 221.691 144.288 221.765C144.588 221.84 144.888 221.89 145.188 221.89C146.064 221.89 146.489 221.616 146.489 221.068C146.489 220.893 146.439 220.744 146.339 220.619C146.239 220.495 146.089 220.395 145.914 220.295C145.739 220.196 145.513 220.121 145.238 220.046C144.988 219.972 144.688 219.897 144.363 219.797C143.962 219.698 143.637 219.573 143.362 219.448C143.087 219.324 142.837 219.174 142.637 219C142.437 218.826 142.311 218.626 142.211 218.402C142.111 218.178 142.061 217.904 142.061 217.605C142.061 217.206 142.136 216.833 142.286 216.509C142.437 216.185 142.662 215.936 142.912 215.712C143.187 215.512 143.487 215.338 143.862 215.238C144.213 215.139 144.613 215.064 145.013 215.064C145.589 215.064 146.114 215.164 146.589 215.338C147.064 215.512 147.49 215.737 147.84 215.961L147.215 217.231Z" fill="#A4D232"/>
<path d="M148.89 219.075C148.89 218.577 148.99 218.104 149.166 217.63C149.341 217.157 149.616 216.709 149.941 216.335C150.291 215.961 150.691 215.662 151.192 215.413C151.692 215.189 152.242 215.064 152.893 215.064C153.643 215.064 154.294 215.239 154.819 215.563C155.369 215.887 155.77 216.31 156.045 216.833L154.844 217.655C154.744 217.431 154.619 217.232 154.444 217.082C154.294 216.933 154.119 216.808 153.944 216.709C153.768 216.609 153.593 216.559 153.393 216.509C153.193 216.46 153.018 216.435 152.843 216.435C152.443 216.435 152.092 216.509 151.817 216.684C151.517 216.833 151.292 217.057 151.092 217.307C150.892 217.556 150.742 217.855 150.641 218.178C150.541 218.502 150.491 218.826 150.491 219.125C150.491 219.474 150.541 219.823 150.666 220.146C150.792 220.47 150.942 220.769 151.142 221.018C151.342 221.267 151.592 221.467 151.892 221.616C152.192 221.766 152.518 221.84 152.868 221.84C153.043 221.84 153.243 221.816 153.443 221.766C153.643 221.716 153.818 221.641 154.019 221.542C154.194 221.442 154.369 221.317 154.519 221.168C154.669 221.018 154.794 220.819 154.894 220.595L156.195 221.342C156.07 221.641 155.87 221.915 155.645 222.139C155.394 222.364 155.144 222.563 154.844 222.737C154.544 222.887 154.219 223.011 153.868 223.111C153.518 223.186 153.193 223.236 152.868 223.236C152.293 223.236 151.767 223.111 151.292 222.862C150.817 222.613 150.391 222.314 150.041 221.915C149.691 221.517 149.416 221.093 149.241 220.595C148.99 220.097 148.89 219.598 148.89 219.075Z" fill="#A4D232"/>
<path d="M159.397 215.114H160.798L163.875 223.161H162.249L161.498 221.143H158.671L157.921 223.161H156.295L159.397 215.114ZM161.223 220.071L160.097 216.908L158.922 220.071H161.223Z" fill="#A4D232"/>
<path d="M166.349 218.004V223.161H164.773V215.115H165.998L170.226 220.396V215.115H171.802V223.161H170.526L166.349 218.004Z" fill="#A4D232"/>
<path d="M182.836 223.16V217.829L180.76 221.79H179.909L177.833 217.829V223.16H176.257V215.114H177.958L180.36 219.698L182.786 215.114H184.462V223.16H182.836Z" fill="#A4D232"/>
<path d="M191.717 221.791V223.161H186.089V215.114H191.617V216.484H187.665V218.428H191.067V219.698H187.665V221.791H191.717Z" fill="#A4D232"/>
<path d="M111.59 209.111H110.84V229.239H111.59V209.111Z" fill="#115C07"/>
<path d="M113.815 209.11H113.065V229.239H113.815V209.11Z" fill="#115C07"/>
<path d="M117.539 209.11H116.788V229.239H117.539V209.11Z" fill="#115C07"/>
<path d="M121.272 209.111H120.522V229.239H121.272V209.111Z" fill="#115C07"/>
<path d="M124.268 209.11H122.767V229.239H124.268V209.11Z" fill="#115C07"/>
<path d="M125.749 209.11H124.998V229.239H125.749V209.11Z" fill="#115C07"/>
<path d="M128.001 209.111H126.5V229.239H128.001V209.111Z" fill="#115C07"/>
<path d="M130.228 209.111H129.477V229.239H130.228V209.111Z" fill="#115C07"/>
<path d="M133.954 209.11H133.203V229.239H133.954V209.11Z" fill="#115C07"/>
<path d="M137.659 209.111H134.682V229.239H137.659V209.111Z" fill="#02641B"/>
<path d="M139.908 209.11H139.158V229.239H139.908V209.11Z" fill="#02641B"/>
<path d="M142.156 224.68H141.406V229.214H142.156V224.68Z" fill="#115C07"/>
<path d="M142.156 209.111H141.406V213.545H142.156V209.111Z" fill="#02641B"/>
<path d="M145.138 209.111H143.637V213.545H145.138V209.111Z" fill="#02641B"/>
<path d="M145.138 224.68H143.637V229.214H145.138V224.68Z" fill="#115C07"/>
<path d="M148.863 224.68H148.112V229.214H148.863V224.68Z" fill="#115C07"/>
<path d="M148.863 209.11H148.112V213.545H148.863V209.11Z" fill="#02641B"/>
<path d="M150.366 224.68H149.615V229.214H150.366V224.68Z" fill="#115C07"/>
<path d="M150.366 209.111H149.615V213.545H150.366V209.111Z" fill="#02641B"/>
<path d="M154.84 209.11H153.339V213.545H154.84V209.11Z" fill="#02641B"/>
<path d="M154.84 224.68H153.339V229.214H154.84V224.68Z" fill="#115C07"/>
<path d="M156.316 224.68H155.565V229.214H156.316V224.68Z" fill="#115C07"/>
<path d="M156.316 209.111H155.565V213.545H156.316V209.111Z" fill="#02641B"/>
<path d="M159.293 209.111H157.792V213.545H159.293V209.111Z" fill="#02641B"/>
<path d="M159.293 224.68H157.792V229.214H159.293V224.68Z" fill="#115C07"/>
<path d="M161.549 209.111H160.048V213.545H161.549V209.111Z" fill="#02641B"/>
<path d="M161.549 224.68H160.048V229.214H161.549V224.68Z" fill="#115C07"/>
<path d="M164.52 224.68H163.019V229.214H164.52V224.68Z" fill="#115C07"/>
<path d="M164.52 209.11H163.019V213.545H164.52V209.11Z" fill="#02641B"/>
<path d="M166.747 224.68H165.997V229.214H166.747V224.68Z" fill="#115C07"/>
<path d="M166.747 209.11H165.997V213.545H166.747V209.11Z" fill="#02641B"/>
<path d="M168.994 209.111H167.493V213.545H168.994V209.111Z" fill="#02641B"/>
<path d="M168.994 224.68H167.493V229.214H168.994V224.68Z" fill="#115C07"/>
<path d="M172.731 209.111H171.981V213.545H172.731V209.111Z" fill="#02641B"/>
<path d="M172.731 224.68H171.981V229.214H172.731V224.68Z" fill="#115C07"/>
<path d="M174.952 209.11H174.201V213.545H174.952V209.11Z" fill="#02641B"/>
<path d="M174.952 224.68H174.201V229.214H174.952V224.68Z" fill="#115C07"/>
<path d="M177.207 224.68H176.457V229.214H177.207V224.68Z" fill="#115C07"/>
<path d="M177.207 209.11H176.457V213.545H177.207V209.11Z" fill="#02641B"/>
<path d="M181.658 224.68H178.681V229.214H181.658V224.68Z" fill="#115C07"/>
<path d="M181.658 209.111H178.681V213.545H181.658V209.111Z" fill="#02641B"/>
<path d="M183.16 209.11H182.41V213.545H183.16V209.11Z" fill="#02641B"/>
<path d="M183.16 224.68H182.41V229.214H183.16V224.68Z" fill="#115C07"/>
<path d="M185.41 224.68H183.909V229.214H185.41V224.68Z" fill="#115C07"/>
<path d="M185.41 209.111H183.909V213.545H185.41V209.111Z" fill="#02641B"/>
<path d="M187.631 209.11H186.88V213.545H187.631V209.11Z" fill="#02641B"/>
<path d="M187.631 224.68H186.88V229.214H187.631V224.68Z" fill="#115C07"/>
<path d="M191.364 209.111H190.614V213.545H191.364V209.111Z" fill="#02641B"/>
<path d="M191.364 224.68H190.614V229.214H191.364V224.68Z" fill="#115C07"/>
<path d="M192.108 213.545H193.233V224.68H192.108V229.214H195.084V209.11H192.108V213.545Z" fill="#02641B"/>
<path d="M197.314 209.111H196.564V229.239H197.314V209.111Z" fill="#115C07"/>
<path d="M199.569 209.111H198.819V229.239H199.569V209.111Z" fill="#115C07"/>
<path d="M202.541 209.11H201.04V229.239H202.541V209.11Z" fill="#115C07"/>
<path d="M206.277 209.11H205.527V229.239H206.277V209.11Z" fill="#115C07"/>
<path d="M207.775 209.111H207.024V229.239H207.775V209.111Z" fill="#115C07"/>
<path d="M210.003 209.11H208.503V229.239H210.003V209.11Z" fill="#115C07"/>
<path d="M212.254 209.11H211.504V229.239H212.254V209.11Z" fill="#115C07"/>
<path d="M216.729 209.11H215.229V229.239H216.729V209.11Z" fill="#115C07"/>
<path d="M221.179 209.111H218.952V229.239H221.179V209.111Z" fill="#115C07"/>
<path d="M222.685 209.111H221.934V229.239H222.685V209.111Z" fill="#115C07"/>
<path d="M224.91 209.11H223.409V229.239H224.91V209.11Z" fill="#115C07"/>
</svg>
