<svg width="25" height="27" viewBox="0 0 25 27" fill="none" xmlns="http://www.w3.org/2000/svg">
<path d="M25 3.18933C24.8384 4.02592 24.7058 4.86877 24.5107 5.69754C24.0046 7.85234 23.0655 9.7507 21.3155 11.1393C21.0366 11.3613 20.7378 11.5693 20.4207 11.7272C19.8963 11.9884 19.3979 11.9118 19.1128 11.3551C18.8308 10.8062 19.0259 10.3543 19.5381 10.0369C22.1387 8.42623 22.7195 5.78041 23.064 2.98605C19.8918 2.38245 15.5945 5.31755 15.8735 7.91489C16.0625 7.79292 16.2271 7.70066 16.375 7.58651C17.2088 6.94695 18.029 6.29019 18.872 5.6647C19.6616 5.07987 20.2424 5.08456 20.5915 5.63343C20.9329 6.16978 20.7104 6.63577 19.9756 7.23155C18.4634 8.4575 16.9573 9.69284 15.5015 10.9876C14.7957 11.6147 14.1951 12.3699 13.5732 13.0908C12.8704 13.9055 12.3841 13.929 11.6296 13.133C11.1509 12.6295 10.6921 12.101 10.1738 11.6444C10.003 11.4942 9.61585 11.4192 9.42226 11.513C6.73628 12.814 4.3872 12.3089 2.47561 9.95398C1.08079 8.23389 0.464939 6.18855 0.170732 4.01497C0.134146 3.73663 0.0579268 3.46455 0 3.18933C0 2.40747 0 1.62561 0 0.84375C0.71189 0.84375 1.42226 0.84375 2.13415 0.84375C2.42988 0.901608 2.72561 0.976666 3.02439 1.01576C5.17378 1.30036 7.20274 1.92584 8.8811 3.39418C10.5823 4.88284 11.4787 6.69832 10.8354 9.06423C10.7851 9.25031 10.8415 9.53491 10.9558 9.68972C11.3963 10.2902 11.8811 10.8578 12.3491 11.438C12.9771 10.7937 13.3735 10.3574 13.811 9.96649C14.1616 9.65375 14.2439 9.36133 14.0915 8.88284C13.6814 7.59433 13.9223 6.36056 14.5884 5.21435C15.5534 3.55368 16.9954 2.44969 18.7439 1.85235C20.0793 1.39731 21.4893 1.17213 22.8659 0.84375C23.5655 0.84375 24.2652 0.84375 25 0.84375C25 1.62561 25 2.40747 25 3.18933ZM1.94512 2.94226C2.00762 3.45516 2.03963 3.92115 2.125 4.37776C2.49543 6.35586 3.125 8.20418 4.72713 9.52552C5.82012 10.4278 7.05335 10.5435 8.24085 9.8367C8.01982 9.63655 7.8247 9.44108 7.60976 9.27064C6.66616 8.52318 5.72256 7.77416 4.76829 7.04077C4.26982 6.65766 4.08232 6.20106 4.41311 5.62873C4.70579 5.12365 5.27896 5.08456 5.875 5.49269C6.06555 5.62248 6.25305 5.7554 6.43598 5.89613C7.29726 6.5654 8.15396 7.2378 9.03963 7.93053C9.57317 5.46142 5.5061 2.6045 1.94512 2.94226Z" fill="#444444"/>
<path d="M3.20125 26.4888C2.65552 26.1855 2.44972 25.7289 2.45582 25.0815C2.48173 22.4794 2.46344 19.879 2.46801 17.2769C2.46954 16.2089 2.77594 15.9055 3.83997 15.9008C4.55034 15.8977 5.2607 15.8868 5.96955 15.904C8.13876 15.954 9.47413 17.9055 8.82626 20.0213C8.74699 20.2808 8.76681 20.7015 8.92382 20.886C10.6875 22.9579 10.0443 25.4896 7.50309 26.3637C7.43449 26.3872 7.37961 26.4482 7.31711 26.4904C5.94516 26.4888 4.5732 26.4888 3.20125 26.4888ZM4.42076 24.4826C5.31863 24.4826 6.17839 24.5373 7.029 24.4654C7.6662 24.4106 8.00766 23.9087 8.03053 23.2754C8.0534 22.6264 7.70431 22.1167 7.07931 22.0525C6.20888 21.965 5.32321 22.0306 4.42076 22.0306C4.42076 22.8688 4.42076 23.6397 4.42076 24.4826ZM4.41314 20.0588C5.03967 20.0588 5.59302 20.1088 6.13571 20.0463C6.76985 19.9728 7.15858 19.5396 7.11589 18.886C7.07778 18.2887 6.7104 17.8821 6.08235 17.8555C5.53814 17.832 4.99089 17.8508 4.41314 17.8508C4.41314 18.6123 4.41314 19.2769 4.41314 20.0588Z" fill="#444444"/>
<path d="M18.5976 26.4889C18.2287 26.3294 17.8415 26.2027 17.4939 26.0041C16.3948 25.3786 15.7439 24.4232 15.7043 23.119C15.6647 21.8196 15.6525 20.5155 15.7073 19.216C15.7851 17.3661 17.3095 15.9181 19.1113 15.9025C20.8872 15.8868 22.433 17.2551 22.558 19.0753C22.6494 20.3966 22.6388 21.7305 22.5839 23.0534C22.5153 24.7031 21.5686 25.8415 20.0046 26.3262C19.8872 26.3622 19.779 26.4326 19.6662 26.4873C19.3095 26.4889 18.9528 26.4889 18.5976 26.4889ZM20.7394 21.18C20.7394 20.6077 20.7622 20.0338 20.7348 19.4631C20.6891 18.5342 20.0458 17.8775 19.1982 17.8509C18.343 17.8243 17.5991 18.4263 17.5488 19.3411C17.4833 20.5592 17.4833 21.7868 17.5488 23.0065C17.5976 23.9291 18.3217 24.5154 19.1936 24.4951C20.0534 24.4748 20.6906 23.8321 20.7348 22.8954C20.7622 22.3262 20.7394 21.7524 20.7394 21.18Z" fill="#444444"/>
<path d="M12.3476 26.4888C11.8902 26.0978 11.7393 25.6084 11.747 24.9923C11.7744 22.4418 11.7576 19.8899 11.7591 17.3394C11.7591 17.1064 11.6875 16.7952 11.8034 16.6545C12.0518 16.3496 12.4055 15.9289 12.7104 15.9336C13.0076 15.9383 13.4405 16.3621 13.5549 16.6952C13.7073 17.1377 13.6159 17.6709 13.6159 18.1651C13.6189 20.4559 13.6021 22.7468 13.6265 25.0376C13.6326 25.66 13.497 26.1588 12.9573 26.4903C12.7546 26.4888 12.5503 26.4888 12.3476 26.4888Z" fill="#444444"/>
</svg>
