<svg width="24" height="22" viewBox="0 0 24 22" fill="none" xmlns="http://www.w3.org/2000/svg">
<path d="M3.09887 18.804C3.05656 18.804 3.02462 18.804 2.99285 18.804C2.13896 18.804 1.28524 18.8026 0.431355 18.8051C0.288852 18.8056 0.166938 18.7736 0.0847428 18.6641C0.0481037 18.6152 0.0263797 18.5556 0.00530413 18.4985C-0.00458517 18.4718 0.00238598 18.4395 0.00238598 18.4099C0.00238598 16.8493 0.000926901 15.2888 0.00465566 13.7282C0.00497989 13.5756 0.0203813 13.4192 0.0602627 13.2718C0.0964154 13.1383 0.177637 13.0154 0.235676 12.8865C0.314467 12.7114 0.44708 12.5708 0.590556 12.4417C0.721225 12.324 0.868916 12.2211 1.03882 12.1521C1.23028 12.0743 1.42337 11.9998 1.61629 11.925C1.73156 11.8804 1.84877 11.8403 1.96339 11.7947C2.09892 11.7409 2.23105 11.6801 2.36739 11.6282C2.50308 11.5765 2.64397 11.5359 2.77934 11.4836C2.90968 11.4332 3.03516 11.372 3.16453 11.3192C3.22176 11.2959 3.2845 11.2843 3.34286 11.2629C3.39636 11.2433 3.44662 11.2161 3.49947 11.1948C3.55378 11.173 3.61004 11.1547 3.66483 11.1337C3.7326 11.1077 3.79972 11.0804 3.86716 11.0536C3.90899 11.037 3.95 11.0188 3.99264 11.0041C4.08845 10.971 4.18637 10.9427 4.28073 10.9066C4.37589 10.8701 4.46749 10.8255 4.56152 10.7864C4.58308 10.7775 4.60837 10.7764 4.64485 10.7691C4.64485 10.7409 4.64485 10.7095 4.64485 10.678C4.64485 10.4154 4.64193 10.1528 4.64695 9.89028C4.64825 9.82652 4.6168 9.79515 4.56752 9.7635C4.39875 9.65529 4.22852 9.54872 4.06397 9.43532C3.84689 9.2855 3.67683 9.09198 3.50579 8.90159C3.40787 8.79264 3.32843 8.66913 3.2477 8.54814C3.1788 8.44499 3.11055 8.34006 3.05915 8.22918C2.9969 8.09482 2.9507 7.95407 2.90125 7.8151C2.86007 7.69961 2.82408 7.58264 2.78128 7.45259C2.39965 7.4673 2.05498 7.3481 1.79365 7.06629C1.6004 6.85791 1.52323 6.61119 1.53523 6.33488C1.54333 6.14597 1.59813 5.97549 1.70237 5.81646C1.80208 5.66456 1.94182 5.54491 2.108 5.46004C2.27612 5.37413 2.46142 5.32345 2.66455 5.31453C2.59906 5.20425 2.53421 5.10169 2.4765 4.99587C2.4204 4.89287 2.37436 4.78526 2.31875 4.68211C2.27903 4.60839 2.22764 4.54002 2.18727 4.46659C2.14707 4.39347 2.11497 4.31663 2.07833 4.24172C2.03488 4.15298 1.98706 4.06603 1.94782 3.97582C1.92237 3.91755 1.90729 3.85528 1.89027 3.79419C1.82964 3.57689 1.82721 3.35484 1.8392 3.13323C1.84634 3.00169 1.85541 2.86599 1.89659 2.74129C1.95334 2.56947 2.02321 2.40122 2.11545 2.23877C2.27222 1.96231 2.48768 1.74011 2.74707 1.54481C2.89314 1.43482 3.04635 1.33955 3.22208 1.27653C3.34821 1.2312 3.48002 1.19746 3.60193 1.14455C3.68526 1.10828 3.75643 1.04824 3.83246 0.997998C4.06267 0.845652 4.28786 0.68632 4.52455 0.542891C4.6703 0.454456 4.82966 0.382073 4.99016 0.317567C5.1372 0.258561 5.29462 0.221403 5.4462 0.171612C5.57509 0.129252 5.71062 0.111416 5.84064 0.0787173C5.96855 0.0466131 6.09922 0.0660837 6.21968 0.0339795C6.40174 -0.0143255 6.58364 0.00202385 6.76505 0.00529373C6.92782 0.00826634 7.09204 0.0234267 7.25189 0.051072C7.41872 0.0799064 7.58165 0.128657 7.74555 0.171612C7.86163 0.202081 7.97803 0.232699 8.09086 0.27164C8.17727 0.301366 8.25752 0.345807 8.34199 0.380586C8.43585 0.419379 8.53183 0.453713 8.62618 0.491614C8.70416 0.522975 8.78117 0.556714 8.8585 0.58971C8.9501 0.628948 9.04202 0.667592 9.13297 0.708168C9.2531 0.761676 9.3721 0.817412 9.49223 0.871068C9.73022 0.977339 9.94162 1.12136 10.1285 1.28931C10.2843 1.42932 10.4236 1.58732 10.5528 1.74903C10.6569 1.87923 10.7404 2.02429 10.8226 2.16772C10.8717 2.25363 10.9049 2.34816 10.9377 2.44105C10.9855 2.57661 11.0264 2.71424 11.0701 2.85113C11.0724 2.85811 11.0727 2.86584 11.0734 2.87312C11.0894 3.06961 11.1209 3.26655 11.1167 3.46274C11.1133 3.62222 11.0667 3.78096 11.041 3.94029C11.0366 3.96705 11.0403 3.99484 11.0403 4.00688C11.3399 3.97344 11.6259 3.92171 11.9132 3.91502C12.1974 3.90834 12.4829 3.94698 12.7833 3.96675C12.7724 3.92944 12.7601 3.88679 12.7471 3.84413C12.7429 3.83016 12.7358 3.81678 12.7317 3.80266C12.6716 3.59547 12.6685 3.38337 12.6797 3.17187C12.6873 3.028 12.7027 2.88278 12.7362 2.74233C12.7625 2.63249 12.8189 2.52815 12.8672 2.42337C12.9167 2.3162 12.9583 2.2028 13.0287 2.10782C13.1292 1.97198 13.2422 1.84059 13.3693 1.7254C13.5052 1.60233 13.6543 1.48655 13.8152 1.39306C13.9614 1.30804 14.1293 1.2526 14.2915 1.19256C14.4192 1.14529 14.5432 1.09818 14.6531 1.01747C14.8221 0.893511 14.9965 0.775052 15.1761 0.664471C15.3503 0.557308 15.5292 0.454753 15.7147 0.365575C15.8452 0.302852 15.9892 0.262722 16.1292 0.218579C16.2406 0.183502 16.3572 0.162248 16.4684 0.126874C16.648 0.0696508 16.8354 0.0608816 17.0204 0.0335336C17.214 0.00484784 17.4055 -0.00228644 17.5981 0.00455058C17.7636 0.0103472 17.9304 0.0237239 18.0932 0.0513693C18.2572 0.0793118 18.4174 0.127171 18.5782 0.169382C18.6966 0.200446 18.8152 0.231956 18.9302 0.271937C19.0189 0.302704 19.1011 0.348928 19.188 0.384599C19.2805 0.4225 19.376 0.454604 19.4688 0.491911C19.5477 0.523569 19.6249 0.559092 19.7029 0.59298C19.7902 0.63088 19.877 0.669673 19.9648 0.706682C20.0786 0.754541 20.197 0.794523 20.3061 0.849962C20.4311 0.913576 20.5512 0.986405 20.6678 1.06221C20.8747 1.19687 21.0664 1.34892 21.2243 1.53188C21.3315 1.65599 21.4338 1.785 21.5241 1.91981C21.5891 2.01686 21.6309 2.12715 21.6825 2.23163C21.7271 2.32185 21.7738 2.41133 21.814 2.50318C21.8355 2.55223 21.8485 2.60485 21.8599 2.65687C21.8817 2.75675 21.9059 2.85677 21.9177 2.95784C21.9378 3.12892 21.9657 3.30133 21.9591 3.47225C21.9526 3.63946 21.9083 3.80563 21.8779 3.9718C21.8621 4.05771 21.8454 4.14406 21.8201 4.22774C21.8017 4.28898 21.7683 4.34635 21.7413 4.40536C21.7216 4.44876 21.701 4.49171 21.6822 4.53541C21.6305 4.65565 21.5823 4.77723 21.527 4.89599C21.4876 4.98071 21.4364 5.06067 21.3952 5.1448C21.3698 5.19711 21.3534 5.253 21.3305 5.31379C21.6791 5.33816 21.9774 5.45588 22.1946 5.69696C22.3859 5.9092 22.4769 6.16039 22.459 6.44502C22.4402 6.74674 22.3073 6.99183 22.0645 7.18728C21.8206 7.38362 21.5293 7.46552 21.2091 7.45036C21.1851 7.54979 21.1668 7.64105 21.14 7.73023C21.1201 7.79681 21.0885 7.86028 21.0635 7.92553C21.0407 7.98528 21.0241 8.04741 20.9964 8.10507C20.9581 8.18474 20.9126 8.26158 20.8691 8.33917C20.8325 8.40456 20.796 8.47026 20.7563 8.53402C20.6397 8.72145 20.4976 8.89118 20.3489 9.05854C20.1419 9.29159 19.8882 9.47381 19.6328 9.65574C19.5566 9.71014 19.4679 9.74967 19.3867 9.79842C19.3721 9.80719 19.3575 9.82756 19.3574 9.84272C19.3558 10.1496 19.3561 10.4566 19.3561 10.7546C19.4775 10.8069 19.5886 10.8589 19.7032 10.9032C19.7995 10.9404 19.9016 10.965 19.9982 11.0017C20.0936 11.038 20.1847 11.0835 20.2787 11.1232C20.3231 11.1419 20.3698 11.156 20.415 11.173C20.5243 11.214 20.6328 11.2568 20.7425 11.2966C20.8427 11.3329 20.9447 11.3648 21.0447 11.4014C21.129 11.4323 21.2111 11.4683 21.295 11.5002C21.4049 11.542 21.5163 11.581 21.6259 11.6232C21.7114 11.656 21.7948 11.693 21.88 11.7268C21.98 11.7664 22.0805 11.8048 22.1812 11.8431C22.2754 11.879 22.37 11.9136 22.4641 11.9497C22.5612 11.987 22.6602 12.0206 22.7539 12.0642C22.912 12.1376 23.0735 12.2077 23.2204 12.2974C23.4079 12.4119 23.5558 12.568 23.6787 12.7415C23.7273 12.8103 23.768 12.8846 23.805 12.9594C23.8539 13.0583 23.8958 13.1603 23.9407 13.2611C23.9426 13.2655 23.9446 13.2703 23.9452 13.2752C23.9627 13.3929 23.9948 13.5108 23.995 13.6285C23.9985 15.2337 23.9959 16.8388 24 18.444C24.0005 18.6335 23.8071 18.8072 23.6031 18.8059C22.7385 18.8005 21.874 18.8037 21.0094 18.8038C20.9774 18.8038 20.9455 18.8038 20.9016 18.8038C20.9016 18.8386 20.9016 18.8671 20.9016 18.8958C20.9016 19.7999 20.8999 20.7041 20.9033 21.6082C20.9038 21.7422 20.8584 21.851 20.745 21.9301C20.6976 21.9631 20.6342 21.9806 20.5752 21.9945C20.5319 22.0046 20.4839 21.9977 20.4379 21.9977C14.8125 21.9977 9.18712 21.9976 3.56173 21.9991C3.46153 21.9991 3.36248 21.997 3.27996 21.9459C3.22646 21.9126 3.1869 21.8582 3.1467 21.8094C3.07277 21.7195 3.0992 21.6129 3.09904 21.5126C3.09758 20.6431 3.09822 19.7736 3.09822 18.9043C3.09887 18.8749 3.09887 18.8453 3.09887 18.804ZM15.9123 9.21862C16.1409 9.24314 16.357 9.19885 16.5684 9.26499C16.6994 9.30601 16.8247 9.35149 16.9347 9.42715C17.1159 9.55214 17.2638 9.70285 17.3325 9.90633C17.3649 10.0025 17.4035 10.1 17.4127 10.199C17.4238 10.3168 17.4166 10.4344 17.3794 10.555C17.3406 10.6801 17.2903 10.8014 17.2093 10.8983C17.0713 11.0631 16.9061 11.2054 16.6772 11.2746C16.5409 11.3158 16.4092 11.3577 16.2636 11.3543C16.1367 11.3515 16.0096 11.3534 15.8827 11.354C15.8509 11.3541 15.8191 11.3573 15.7906 11.3587C15.7667 11.4546 15.7488 11.5454 15.7209 11.6337C15.697 11.7091 15.6612 11.7813 15.6322 11.8553C15.6105 11.9106 15.5957 11.9686 15.5694 12.0219C15.5292 12.1034 15.4838 12.1829 15.4372 12.2614C15.3796 12.358 15.3214 12.4546 15.2577 12.5479C15.21 12.6179 15.1572 12.6857 15.0999 12.7493C14.9714 12.892 14.8467 13.0392 14.7049 13.1704C14.5706 13.2947 14.4197 13.4047 14.2699 13.5139C14.1916 13.571 14.0987 13.6108 14.0152 13.6622C13.9729 13.6882 13.9306 13.7113 13.932 13.7752C13.9376 14.0377 13.9341 14.3003 13.9345 14.5629C13.9345 14.5848 13.9371 14.6066 13.938 14.6219C13.9906 14.6423 14.0348 14.6647 14.0823 14.6766C14.164 14.6971 14.248 14.7104 14.3305 14.7281C14.403 14.7435 14.4758 14.7582 14.5468 14.7781C14.6849 14.8168 14.8206 14.8626 14.9596 14.8982C15.1072 14.936 15.2579 14.9644 15.4065 14.999C15.478 15.0157 15.5484 15.0366 15.6191 15.0562C15.6948 15.0773 15.7698 15.1013 15.8462 15.1201C15.9308 15.1411 16.0177 15.1548 16.1019 15.1772C16.2416 15.2145 16.3791 15.2599 16.5193 15.2955C16.6676 15.3334 16.8183 15.3639 16.9677 15.3979C17.0297 15.4121 17.0921 15.425 17.1532 15.4422C17.2892 15.4804 17.4233 15.5243 17.5601 15.5595C17.7054 15.597 17.8532 15.6261 17.9993 15.6606C18.0758 15.6787 18.1514 15.7001 18.2271 15.7209C18.3026 15.7417 18.377 15.7662 18.4532 15.7845C18.5375 15.8047 18.6238 15.8181 18.7084 15.8373C18.7721 15.8517 18.8347 15.8698 18.8974 15.8875C18.9851 15.9123 19.0716 15.9406 19.1599 15.9632C19.2411 15.984 19.3267 15.9926 19.4054 16.0188C19.5571 16.0695 19.7048 16.1298 19.8552 16.184C20.011 16.2402 20.1375 16.338 20.2599 16.4361C20.4304 16.5729 20.5721 16.7349 20.6667 16.9266C20.7299 17.0552 20.803 17.1818 20.8445 17.3165C20.8824 17.4392 20.887 17.5712 20.8996 17.6998C20.9069 17.7735 20.9012 17.8483 20.9014 17.9226C20.9016 17.9783 20.9014 18.0341 20.9014 18.091C21.6809 18.091 22.4471 18.091 23.2234 18.091C23.2234 18.0602 23.2234 18.0338 23.2234 18.0073C23.2234 16.5879 23.2228 15.1685 23.2241 13.749C23.2243 13.5332 23.1589 13.3401 23.0399 13.1527C22.888 12.9136 22.6465 12.7918 22.3879 12.6853C22.2806 12.641 22.1708 12.6017 22.0615 12.5615C21.9664 12.5264 21.8696 12.4947 21.7747 12.4586C21.6762 12.4209 21.5797 12.3785 21.4815 12.34C21.3926 12.3052 21.3023 12.2733 21.2128 12.24C21.1115 12.2022 21.01 12.1651 20.9093 12.1261C20.821 12.0919 20.7341 12.0548 20.6456 12.0208C20.542 11.9811 20.4369 11.9442 20.3332 11.9045C20.2445 11.8706 20.1569 11.8338 20.0683 11.7999C19.9647 11.7602 19.8599 11.723 19.7564 11.6832C19.6678 11.6492 19.5814 11.6107 19.4924 11.578C19.3939 11.5419 19.2917 11.5135 19.1938 11.4757C19.0597 11.4239 18.9294 11.3637 18.7951 11.3122C18.6888 11.2715 18.5823 11.1487 18.5821 11.0448C18.5808 10.5495 18.5789 10.0539 18.5847 9.55853C18.5854 9.50295 18.6277 9.44409 18.6622 9.39341C18.7391 9.28089 18.8833 9.25236 18.9942 9.18161C19.1456 9.085 19.3071 8.99834 19.4441 8.88657C19.5983 8.76083 19.7364 8.61681 19.8694 8.4713C19.9637 8.368 20.0454 8.25326 20.1182 8.13599C20.1831 8.0318 20.2307 7.91839 20.2808 7.80692C20.3283 7.70139 20.3781 7.59542 20.4099 7.48543C20.441 7.37768 20.4488 7.26442 20.4707 7.15413C20.4844 7.08458 20.4901 7.00833 20.5264 6.94888C20.6002 6.82774 20.7093 6.74035 20.8745 6.73975C21.0069 6.73931 21.14 6.73069 21.2715 6.74109C21.5252 6.76101 21.7799 6.47296 21.6371 6.24006C21.557 6.10941 21.4586 6.03658 21.2994 6.03182C21.2049 6.029 21.1102 6.03346 21.0157 6.03034C20.9212 6.02722 20.8286 6.03896 20.7349 5.99214C20.601 5.92526 20.5253 5.83058 20.5165 5.69651C20.5076 5.56081 20.512 5.42407 20.5156 5.28793C20.5165 5.25374 20.5344 5.21911 20.5481 5.18597C20.5843 5.09946 20.6214 5.01326 20.66 4.9275C20.6971 4.84516 20.7354 4.76341 20.775 4.68211C20.8147 4.60096 20.8599 4.52188 20.897 4.43969C20.9366 4.352 20.97 4.26208 21.0052 4.17275C21.0506 4.05756 21.1021 3.94386 21.1375 3.82614C21.1647 3.73548 21.172 3.63961 21.1862 3.54583C21.2182 3.33566 21.1486 3.13189 21.1379 2.9244C21.1376 2.91965 21.1353 2.91474 21.1336 2.91013C21.106 2.83909 21.0778 2.76804 21.0506 2.69685C21.0141 2.60098 20.9899 2.49932 20.9393 2.41044C20.8688 2.28663 20.7897 2.16401 20.6937 2.05625C20.5879 1.9372 20.4664 1.82691 20.3374 1.72882C20.2087 1.63102 20.0655 1.54778 19.922 1.46827C19.8222 1.41298 19.7113 1.37389 19.6046 1.3293C19.509 1.28931 19.4117 1.25231 19.3157 1.21292C19.1941 1.16298 19.0733 1.1114 18.9518 1.06146C18.8626 1.0249 18.7734 0.988189 18.683 0.95445C18.5789 0.915657 18.4748 0.875527 18.3678 0.84476C18.2767 0.818601 18.1818 0.801954 18.0875 0.786348C17.9275 0.759892 17.7671 0.722883 17.6058 0.717532C17.4217 0.71129 17.2362 0.73626 17.0512 0.745029C16.8283 0.755582 16.6148 0.804927 16.4081 0.877905C16.2366 0.938397 16.0578 0.990567 15.9013 1.07588C15.6739 1.20014 15.4621 1.34921 15.2465 1.4913C15.1366 1.56369 15.0353 1.64677 14.9257 1.71945C14.7764 1.81859 14.5865 1.8278 14.4252 1.90167C14.348 1.93705 14.2582 1.95696 14.1931 2.00542C14.0407 2.11867 13.8832 2.2245 13.768 2.38012C13.6603 2.52548 13.5755 2.67767 13.5096 2.83909C13.4416 3.00526 13.4366 3.18257 13.4512 3.35766C13.4611 3.47716 13.4726 3.60067 13.5146 3.71259C13.5767 3.87802 13.6658 4.03482 13.745 4.19475C13.762 4.22923 13.7769 4.27278 13.8077 4.2918C13.8701 4.33045 13.9418 4.35735 14.0113 4.38544C14.1374 4.43612 14.2667 4.48042 14.3912 4.53407C14.5408 4.59843 14.6872 4.66903 14.8346 4.73799C14.9356 4.78526 15.0427 4.82494 15.1346 4.88425C15.282 4.97922 15.4282 5.0788 15.5578 5.1928C15.6893 5.30859 15.8065 5.43968 15.9178 5.57256C15.9987 5.66917 16.0649 5.77722 16.1283 5.88498C16.2077 6.01978 16.2889 6.15534 16.3481 6.29802C16.4005 6.42436 16.4308 6.55976 16.4574 6.69338C16.4927 6.87144 16.5263 7.05098 16.5397 7.23127C16.5589 7.4884 16.4976 7.74048 16.4425 7.99107C16.4206 8.09036 16.3873 8.18875 16.3468 8.28299C16.2936 8.40679 16.227 8.5257 16.168 8.64743C16.1033 8.78105 16.0398 8.91511 15.978 9.04977C15.9545 9.10194 15.9366 9.15589 15.9123 9.21862ZM8.20516 11.354C8.15409 11.354 8.09783 11.3544 8.04158 11.3538C7.79256 11.3513 7.53949 11.3797 7.30539 11.2678C7.22968 11.2317 7.14068 11.2119 7.07713 11.1633C6.95068 11.0667 6.83136 10.9625 6.74381 10.829C6.66502 10.7091 6.61428 10.5787 6.59353 10.4469C6.57213 10.3118 6.57277 10.1725 6.61995 10.0313C6.66778 9.8885 6.72565 9.75532 6.8252 9.64028C7.04681 9.38404 7.33652 9.24091 7.69594 9.2262C7.79305 9.22218 7.89048 9.22634 7.98776 9.22456C8.0171 9.22397 8.04644 9.21624 8.08065 9.21104C8.06006 9.18324 8.04515 9.16674 8.03477 9.14831C7.98921 9.06731 7.94398 8.98631 7.9007 8.90426C7.84541 8.79963 7.7924 8.6941 7.73777 8.58916C7.70226 8.52109 7.66595 8.45332 7.62931 8.38569C7.57014 8.27645 7.50513 8.16958 7.45276 8.05781C7.40931 7.96536 7.37559 7.86845 7.34641 7.77125C7.31269 7.65874 7.27054 7.54459 7.26438 7.4297C7.25206 7.19902 7.22466 6.96552 7.3015 6.73782C7.35549 6.57819 7.39229 6.41202 7.46443 6.25967C7.54549 6.08815 7.64666 5.92154 7.78965 5.78376C7.92112 5.65698 8.04871 5.52366 8.19802 5.41664C8.34507 5.31126 8.5127 5.22758 8.67985 5.14955C8.78101 5.10229 8.89838 5.08386 9.00846 5.05279C9.02094 5.04923 9.03651 5.05042 9.04624 5.04388C9.10622 5.00375 9.16442 4.96109 9.22424 4.92096C9.32168 4.85556 9.41911 4.78987 9.51833 4.7267C9.67785 4.62518 9.84014 4.52709 9.99853 4.42423C10.042 4.39599 10.0896 4.36151 10.1115 4.31945C10.1566 4.23295 10.1812 4.13767 10.2219 4.04894C10.3009 3.87698 10.321 3.69312 10.3411 3.51209C10.3555 3.38218 10.3244 3.24827 10.3168 3.11599C10.3061 2.92901 10.2407 2.75571 10.1736 2.58077C10.0973 2.38175 9.97502 2.2086 9.83916 2.04391C9.66002 1.82676 9.43257 1.65287 9.17836 1.51434C9.01803 1.42695 8.84359 1.36081 8.6732 1.28976C8.48028 1.20935 8.28038 1.14217 8.09151 1.05478C7.86584 0.950734 7.63255 0.866312 7.39099 0.807305C7.2031 0.761378 7.00742 0.739232 6.81368 0.716938C6.54359 0.686023 6.27658 0.737003 6.00892 0.760784C5.93273 0.767621 5.85685 0.786646 5.78374 0.808048C5.66182 0.84372 5.5404 0.882066 5.42189 0.92621C5.2956 0.973326 5.1659 1.01777 5.05047 1.08272C4.86922 1.18468 4.69721 1.30091 4.52439 1.41506C4.3981 1.49844 4.27992 1.59222 4.15249 1.67397C4.05311 1.73788 3.95713 1.80997 3.82566 1.82037C3.76681 1.82513 3.70747 1.84727 3.65284 1.87046C3.57032 1.90554 3.48942 1.94507 3.41225 1.98922C3.32276 2.04049 3.23132 2.09177 3.15318 2.15583C3.06564 2.22777 2.98863 2.31145 2.91357 2.39483C2.87191 2.4412 2.83851 2.49545 2.81046 2.55C2.77058 2.62759 2.73475 2.70755 2.70541 2.78885C2.67071 2.88487 2.63683 2.98237 2.61738 3.08165C2.60327 3.15374 2.60652 3.23043 2.61349 3.304C2.62629 3.43688 2.64786 3.56901 2.66601 3.70144C2.66699 3.70858 2.67055 3.71556 2.6738 3.7221C2.70136 3.77665 2.72989 3.83075 2.75664 3.8856C2.7949 3.96407 2.82959 4.04419 2.8698 4.12177C2.91146 4.20218 2.95848 4.28036 3.00241 4.35973C3.04051 4.42869 3.0765 4.4984 3.11509 4.56707C3.15707 4.64183 3.20182 4.7154 3.24365 4.79031C3.2858 4.86567 3.32941 4.94058 3.36588 5.01816C3.41841 5.12978 3.49623 5.23323 3.48715 5.36477C3.48067 5.45856 3.47872 5.55353 3.4878 5.64702C3.50823 5.8548 3.28985 6.04862 3.07066 6.03301C2.94713 6.02424 2.82165 6.02543 2.69811 6.0342C2.6271 6.03926 2.54718 6.05397 2.4906 6.08994C2.36415 6.17035 2.2672 6.3603 2.36155 6.52676C2.44407 6.67242 2.55869 6.73737 2.72811 6.7396C2.82262 6.74079 2.9173 6.73946 3.01181 6.74005C3.11006 6.74064 3.20879 6.73158 3.29958 6.78345C3.38112 6.82997 3.45554 6.8866 3.48115 6.96954C3.51228 7.07001 3.5199 7.17673 3.53773 7.28062C3.54146 7.30247 3.54341 7.32491 3.55005 7.34602C3.57648 7.4291 3.60323 7.51219 3.63225 7.59453C3.66678 7.69262 3.69612 7.79325 3.74216 7.88688C3.79226 7.9887 3.85435 8.0862 3.91952 8.18073C4.00691 8.30766 4.09186 8.43786 4.19642 8.5523C4.33925 8.70866 4.49521 8.85373 4.67776 8.9762C4.84361 9.08767 5.01497 9.18696 5.19476 9.27762C5.3131 9.33737 5.41346 9.43264 5.4154 9.56255C5.4227 10.0578 5.42075 10.5533 5.41475 11.0487C5.4141 11.1043 5.37455 11.1643 5.33904 11.2138C5.28279 11.2922 5.19476 11.3329 5.09603 11.3571C5.04366 11.37 4.99357 11.3917 4.9438 11.4124C4.88884 11.4353 4.83631 11.4632 4.78135 11.486C4.71537 11.513 4.64793 11.537 4.58113 11.5622C4.49181 11.596 4.40296 11.6307 4.31315 11.6631C4.21847 11.6973 4.12217 11.7275 4.02798 11.7626C3.92196 11.8021 3.81771 11.8457 3.71233 11.8867C3.6209 11.9222 3.52865 11.9562 3.43705 11.9915C3.29698 12.0453 3.1574 12.1 3.01733 12.1535C2.91843 12.1912 2.81873 12.2272 2.72 12.2654C2.63148 12.2997 2.54491 12.3378 2.45591 12.3711C2.31989 12.4219 2.18176 12.4678 2.04639 12.5197C1.91637 12.5695 1.78862 12.624 1.66006 12.6771C1.55031 12.7224 1.43698 12.7624 1.33209 12.8159C1.08486 12.942 0.926306 13.1419 0.836492 13.381C0.793044 13.4965 0.77975 13.6264 0.779426 13.7498C0.775697 15.169 0.776994 16.5885 0.776994 18.0079C0.776994 18.0344 0.776994 18.0608 0.776994 18.0902C1.55533 18.0902 2.32345 18.0902 3.09904 18.0902C3.09904 18.0012 3.10309 17.9172 3.09822 17.8337C3.08785 17.6607 3.11492 17.4916 3.15075 17.3229C3.15221 17.3156 3.15237 17.3078 3.15545 17.3012C3.21528 17.1736 3.26602 17.0413 3.33832 16.9201C3.41501 16.7915 3.49542 16.6582 3.60534 16.5546C3.73633 16.4312 3.89699 16.333 4.05149 16.2325C4.12169 16.1869 4.20647 16.1586 4.28737 16.1285C4.39875 16.0868 4.5111 16.0464 4.62572 16.0136C4.71115 15.989 4.80129 15.9785 4.88867 15.9593C4.95239 15.9453 5.01545 15.9281 5.07835 15.911C5.17628 15.8846 5.27355 15.8556 5.37179 15.8305C5.44815 15.811 5.52678 15.7988 5.60265 15.7781C5.7411 15.7402 5.87712 15.6949 6.01622 15.6592C6.16148 15.6221 6.30933 15.5938 6.4554 15.5596C6.52446 15.5434 6.59207 15.5226 6.66032 15.5041C6.74884 15.48 6.83703 15.4547 6.9262 15.4323C7.0032 15.4128 7.08183 15.399 7.15851 15.3786C7.30085 15.3409 7.44174 15.2978 7.58456 15.2615C7.72788 15.2251 7.87297 15.1945 8.0171 15.1607C8.08162 15.1456 8.14615 15.1304 8.2097 15.1127C8.34588 15.0748 8.48044 15.0322 8.61743 14.9975C8.76512 14.9601 8.91589 14.9326 9.06358 14.8948C9.20284 14.8592 9.3387 14.812 9.47796 14.7764C9.67105 14.727 9.86608 14.6836 10.0605 14.6377C10.0631 14.6148 10.066 14.6004 10.066 14.586C10.0663 14.311 10.065 14.036 10.0671 13.7611C10.0676 13.7012 10.0178 13.6865 9.97826 13.6609C9.96189 13.6502 9.9426 13.6432 9.9259 13.6328C9.84678 13.5833 9.76362 13.5381 9.69018 13.4825C9.53892 13.3681 9.38507 13.255 9.24678 13.128C9.11027 13.0026 8.98966 12.8623 8.86596 12.7254C8.81019 12.6636 8.7575 12.5977 8.71503 12.5277C8.64175 12.4067 8.57495 12.2822 8.51027 12.157C8.44526 12.0315 8.37668 11.9065 8.32691 11.7757C8.27682 11.6435 8.2478 11.505 8.20516 11.354ZM20.1273 21.2836C20.1273 21.2477 20.1273 21.2162 20.1273 21.1847C20.1273 20.2534 20.1274 19.3221 20.1273 18.3906C20.1273 18.1528 20.1383 17.9144 20.1214 17.6775C20.1124 17.5495 20.0722 17.4175 20.0151 17.3C19.9303 17.1247 19.7957 16.9782 19.6148 16.8746C19.5336 16.8281 19.4566 16.7746 19.3562 16.7607C19.2956 16.7524 19.2368 16.7322 19.1781 16.7142C19.096 16.6889 19.0164 16.6565 18.9333 16.6353C18.8451 16.6127 18.7541 16.5998 18.6645 16.5825C18.6567 16.581 18.6489 16.5788 18.6415 16.5761C18.5672 16.5509 18.4946 16.5204 18.4184 16.5014C18.3279 16.4788 18.2344 16.4661 18.1423 16.4489C18.1319 16.447 18.1222 16.4422 18.112 16.4391C18.0309 16.4147 17.9508 16.3875 17.8686 16.3672C17.7832 16.3459 17.6955 16.3325 17.6094 16.3134C17.5509 16.3003 17.4927 16.285 17.4353 16.2679C17.3521 16.2429 17.2709 16.2117 17.1868 16.19C17.1007 16.168 17.0117 16.156 16.9248 16.1366C16.8559 16.1213 16.7879 16.1026 16.7202 16.0836C16.6375 16.0604 16.5561 16.0327 16.4728 16.0115C16.3914 15.9907 16.3081 15.9764 16.226 15.9577C16.1622 15.9431 16.0983 15.9278 16.0354 15.9097C15.953 15.8859 15.8728 15.8554 15.7898 15.8345C15.7008 15.8119 15.6084 15.8007 15.5197 15.7775C15.3807 15.7414 15.2446 15.6962 15.1055 15.6609C14.9576 15.6233 14.8076 15.5931 14.6588 15.5585C14.5998 15.5448 14.5414 15.5284 14.4831 15.5124C14.3417 15.4733 14.2007 15.4329 14.059 15.3947C13.9523 15.366 13.845 15.3395 13.7377 15.3126C13.6986 15.3028 13.6665 15.2966 13.6318 15.3352C13.578 15.3951 13.5096 15.444 13.4489 15.4992C13.2301 15.6983 13.0114 15.8978 12.7938 16.098C12.6406 16.2389 12.4926 16.3846 12.3355 16.5214C12.2682 16.58 12.1904 16.6415 12.1051 16.6661C11.9887 16.6996 11.8636 16.6823 11.766 16.5993C11.676 16.5229 11.5894 16.4431 11.5024 16.3639C11.314 16.1924 11.1269 16.0198 10.9383 15.8487C10.7493 15.6772 10.5569 15.5085 10.3711 15.3342C10.3333 15.2988 10.3038 15.304 10.2649 15.3152C10.1791 15.3395 10.094 15.3663 10.0074 15.3881C9.92784 15.4082 9.8463 15.4219 9.76621 15.4407C9.69439 15.4577 9.62338 15.477 9.55237 15.4965C9.4718 15.5185 9.39204 15.5432 9.31098 15.5635C9.22927 15.584 9.14562 15.5978 9.06423 15.6194C8.92011 15.6577 8.77744 15.7013 8.63348 15.7402C8.46974 15.7844 8.30567 15.8275 8.1408 15.8676C7.99538 15.9031 7.8485 15.9335 7.70259 15.967C7.62834 15.9841 7.55409 16.0014 7.48081 16.0216C7.39796 16.0446 7.31739 16.0747 7.2339 16.0952C7.14716 16.1164 7.05654 16.1247 6.97078 16.1481C6.83379 16.1852 6.70004 16.2322 6.56353 16.271C6.44924 16.3035 6.333 16.3307 6.21757 16.36C6.10003 16.3899 5.98233 16.4196 5.8648 16.4495C5.7505 16.4786 5.63637 16.5084 5.52208 16.5372C5.40016 16.568 5.27857 16.5999 5.15585 16.6277C5.06749 16.6478 4.97752 16.6619 4.88835 16.6787C4.87781 16.6806 4.8663 16.6803 4.85658 16.6839C4.78589 16.7096 4.71764 16.7441 4.64452 16.7604C4.51126 16.7902 4.40523 16.8582 4.30164 16.9354C4.00269 17.1582 3.87267 17.4486 3.87316 17.7971C3.87478 18.9291 3.87381 20.0611 3.87381 21.1931C3.87381 21.222 3.87381 21.2509 3.87381 21.283C4.65182 21.283 5.41994 21.283 6.19601 21.283C6.19601 20.338 6.19601 19.3979 6.19601 18.4527C6.23005 18.4514 6.25632 18.4493 6.28258 18.4493C6.47988 18.449 6.67718 18.4527 6.87416 18.4474C6.95359 18.4453 6.97208 18.4682 6.97191 18.5387C6.96932 19.423 6.97013 20.3072 6.97013 21.1916C6.97013 21.2223 6.97013 21.2532 6.97013 21.2828C10.3309 21.2828 13.6772 21.2828 17.0313 21.2828C17.0313 21.2463 17.0313 21.2146 17.0313 21.1829C17.0313 20.3111 17.0313 19.4392 17.0313 18.5672C17.0313 18.5474 17.0332 18.5274 17.031 18.5077C17.0256 18.4621 17.0468 18.4471 17.096 18.4481C17.2095 18.4507 17.3229 18.4489 17.4364 18.4489C17.5572 18.4489 17.678 18.4489 17.8064 18.4489C17.8064 19.3985 17.8064 20.3386 17.8064 21.2831C18.58 21.2836 19.3464 21.2836 20.1273 21.2836ZM9.41295 8.38123C9.3674 8.45911 9.32865 8.52079 9.29477 8.58471C9.25505 8.65976 9.22133 8.73765 9.18209 8.813C9.13864 8.89624 9.09195 8.97798 9.0464 9.06017C9.025 9.09882 9.00198 9.13687 8.98106 9.17581C8.94913 9.23511 8.90211 9.28624 8.9026 9.36026C8.90535 9.82577 8.9 10.2914 8.90681 10.7568C8.90908 10.9118 8.93956 11.0664 8.95739 11.2211C8.95821 11.2284 8.96031 11.2358 8.96274 11.2428C8.99079 11.3206 9.02062 11.3978 9.04688 11.4762C9.06812 11.5398 9.07736 11.6076 9.1059 11.6681C9.16556 11.7944 9.22522 11.9221 9.30174 12.0398C9.39204 12.1787 9.49223 12.3139 9.60263 12.4399C9.80625 12.6725 10.0514 12.8682 10.3236 13.0294C10.5006 13.1341 10.6981 13.2104 10.8879 13.2967C10.9362 13.3187 10.9894 13.3333 11.0421 13.3453C11.1287 13.3653 11.2169 13.3795 11.3041 13.3975C11.4268 13.4229 11.5479 13.4648 11.6718 13.473C11.9907 13.4943 12.3099 13.4865 12.6255 13.4314C12.6977 13.4188 12.77 13.4036 12.8392 13.3816C12.9545 13.3449 13.0686 13.3045 13.1811 13.2608C13.2994 13.2149 13.421 13.172 13.5308 13.1118C13.6657 13.0378 13.7965 12.9547 13.9168 12.862C14.0718 12.7425 14.2302 12.6215 14.3586 12.4796C14.5181 12.3031 14.6689 12.1169 14.7658 11.9004C14.8198 11.7798 14.8924 11.6663 14.943 11.5447C14.9863 11.4406 15.0171 11.3311 15.0409 11.2217C15.0662 11.1056 15.0904 10.9869 15.0918 10.869C15.0982 10.3589 15.0977 9.84881 15.094 9.33871C15.0936 9.28654 15.0568 9.23422 15.0348 9.18265C15.0221 9.15292 15.0069 9.12394 14.9902 9.09585C14.9466 9.02198 14.8986 8.95019 14.8577 8.87513C14.8182 8.8026 14.7882 8.72561 14.7481 8.65322C14.6987 8.56375 14.6431 8.4771 14.5791 8.37083C14.5502 8.38212 14.5059 8.39208 14.4709 8.41437C14.3784 8.47338 14.2926 8.54131 14.1989 8.59868C14.1006 8.65887 13.9977 8.71297 13.8944 8.76574C13.8181 8.80483 13.7386 8.83901 13.6592 8.8726C13.5762 8.90783 13.4925 8.94246 13.4071 8.97233C13.287 9.01425 13.1663 9.05572 13.0433 9.08901C12.9493 9.11443 12.8517 9.12944 12.7547 9.14475C12.5814 9.17209 12.4084 9.20806 12.2338 9.21862C11.9709 9.23467 11.7068 9.23021 11.4458 9.1825C11.3255 9.1605 11.2036 9.14608 11.0825 9.12795C11.0747 9.12676 11.0674 9.1226 11.0598 9.12022C10.9375 9.08232 10.8148 9.04576 10.6932 9.00652C10.5896 8.97323 10.4831 8.94454 10.3853 8.9001C10.2511 8.83931 10.1209 8.7696 9.99415 8.69633C9.85181 8.61399 9.7166 8.52169 9.57556 8.43741C9.524 8.40724 9.47812 8.34764 9.41295 8.38123ZM8.55128 8.38346C8.56377 8.34928 8.56977 8.32267 8.58274 8.29948C8.62294 8.2274 8.6685 8.15769 8.70724 8.08501C8.74648 8.01144 8.77663 7.93385 8.81684 7.86102C8.85753 7.7873 8.912 7.71953 8.94945 7.64462C9.00895 7.52556 9.11643 7.47087 9.24645 7.4514C9.38134 7.43133 9.48623 7.49093 9.58739 7.56985C9.69715 7.65561 9.82068 7.72651 9.93741 7.80499C10.0224 7.86221 10.1044 7.9233 10.1906 7.97889C10.2796 8.03626 10.3706 8.09155 10.4638 8.14283C10.5343 8.18162 10.6089 8.21417 10.6833 8.24672C10.7496 8.2757 10.8174 8.30201 10.8856 8.32683C10.9411 8.3469 10.9972 8.36652 11.0547 8.38019C11.1415 8.4007 11.2295 8.4175 11.3177 8.43266C11.4811 8.4609 11.644 8.50028 11.8091 8.51054C12.0411 8.52496 12.2749 8.52287 12.5047 8.47294C12.6077 8.45049 12.7139 8.44053 12.8176 8.42047C12.8765 8.40902 12.9344 8.39119 12.9908 8.37157C13.0559 8.34883 13.1184 8.31999 13.1827 8.29517C13.2688 8.26188 13.3593 8.23661 13.4408 8.19589C13.5415 8.14565 13.6367 8.08531 13.7313 8.02541C13.8777 7.93281 14.0219 7.83694 14.167 7.74242C14.2989 7.65651 14.432 7.57194 14.5625 7.4841C14.6904 7.39804 14.926 7.47042 14.9973 7.57223C15.0536 7.65249 15.0988 7.73929 15.1476 7.82386C15.1685 7.86013 15.1847 7.89863 15.2053 7.93489C15.2494 8.01292 15.2948 8.09051 15.3402 8.16795C15.3757 8.22844 15.4122 8.28848 15.4553 8.36072C15.5033 8.27436 15.5492 8.20912 15.5772 8.13807C15.6306 8.00341 15.6839 7.86756 15.7179 7.72815C15.7489 7.60151 15.7689 7.46968 15.7677 7.34022C15.7661 7.17613 15.7411 7.0119 15.7204 6.84825C15.7124 6.78613 15.694 6.72355 15.67 6.66484C15.6299 6.56719 15.5842 6.47118 15.5359 6.3765C15.4858 6.27855 15.4401 6.17674 15.3736 6.08845C15.2914 5.97891 15.198 5.87398 15.0946 5.78094C14.9805 5.67838 14.8517 5.5889 14.7251 5.49883C14.6572 5.45053 14.5829 5.40787 14.5066 5.37161C14.4259 5.33326 14.339 5.30576 14.255 5.27292C14.2135 5.25671 14.172 5.24022 14.1313 5.22223C14.0403 5.18181 13.9507 5.1387 13.8588 5.09991C13.7753 5.06468 13.6884 5.036 13.605 5.00048C13.5143 4.96183 13.428 4.91382 13.3359 4.8786C13.2361 4.84055 13.1325 4.81082 13.029 4.7811C12.881 4.73859 12.7337 4.69177 12.5826 4.661C12.455 4.63499 12.322 4.61508 12.192 4.61745C11.9454 4.62191 11.699 4.64406 11.4527 4.65922C11.4448 4.65967 11.4369 4.66204 11.4291 4.66398C11.3329 4.68939 11.2368 4.71451 11.141 4.74082C11.0267 4.77218 10.9088 4.79581 10.7999 4.83862C10.6631 4.89242 10.5337 4.96213 10.374 5.03793C10.4225 5.06379 10.4529 5.08311 10.4863 5.09679C10.5052 5.10452 10.5314 5.09753 10.5496 5.10585C10.7044 5.17616 10.8605 5.24482 11.0115 5.32167C11.1014 5.36759 11.1888 5.4211 11.2673 5.48219C11.4411 5.61744 11.6076 5.76028 11.7392 5.93343C11.7903 6.00061 11.849 6.06304 11.8957 6.1326C11.9073 6.14999 11.8957 6.19651 11.8772 6.21152C11.83 6.25001 11.772 6.27721 11.7198 6.3108C11.5962 6.39032 11.4746 6.47222 11.35 6.5498C11.323 6.5666 11.2885 6.57938 11.2624 6.53524C11.2332 6.48589 11.1985 6.43744 11.1574 6.39627C11.0397 6.27885 10.9259 6.15623 10.7944 6.05293C10.6906 5.97133 10.5661 5.90995 10.4447 5.85005C10.3635 5.81007 10.2732 5.78302 10.1838 5.76028C10.0585 5.72817 9.93141 5.68938 9.80317 5.68254C9.65127 5.67437 9.49936 5.67184 9.34324 5.70959C9.21371 5.74095 9.07979 5.7689 8.96291 5.82107C8.8123 5.88839 8.67482 5.98486 8.54269 6.08147C8.42791 6.16529 8.33875 6.27513 8.2713 6.39582C8.21586 6.49496 8.16414 6.59632 8.12021 6.70007C8.08438 6.78494 8.04693 6.87352 8.03801 6.96285C8.02423 7.10033 8.02731 7.24019 8.03688 7.37827C8.04255 7.46002 8.06655 7.54251 8.09605 7.62039C8.13123 7.71343 8.18068 7.80187 8.22429 7.89224C8.25931 7.96462 8.29157 8.03819 8.3308 8.10864C8.38041 8.19797 8.43569 8.28462 8.49406 8.38138C8.50249 8.38138 8.52616 8.38242 8.55128 8.38346ZM10.8558 14.0301C10.8497 14.0524 10.839 14.073 10.8388 14.0939C10.8377 14.3018 10.8377 14.5099 10.8391 14.7178C10.8393 14.7353 10.8471 14.757 10.8599 14.7694C10.9531 14.8593 11.0478 14.9479 11.1433 15.0357C11.3973 15.2698 11.6525 15.5027 11.9062 15.7373C11.9804 15.8059 12.0242 15.8074 12.096 15.7353C12.1332 15.698 12.1659 15.6566 12.205 15.6212C12.5039 15.3505 12.8045 15.0812 13.1033 14.8106C13.1424 14.7752 13.1667 14.7352 13.1649 14.6772C13.1592 14.4916 13.1634 14.3058 13.1621 14.1202C13.162 14.0903 13.1531 14.0604 13.1474 14.0249C13.1227 14.0392 13.1107 14.0505 13.0965 14.0537C12.9618 14.0845 12.8278 14.1206 12.6912 14.1419C12.5389 14.1655 12.3846 14.1841 12.2306 14.189C11.9602 14.1976 11.6891 14.2013 11.4213 14.1499C11.3099 14.1285 11.1958 14.1197 11.0846 14.0976C11.0085 14.0824 10.9359 14.0542 10.8558 14.0301ZM8.12361 9.93279C8.0064 9.93279 7.89389 9.93353 7.78122 9.93264C7.60045 9.93115 7.46978 9.99447 7.39034 10.1526C7.27848 10.3751 7.45049 10.6027 7.66287 10.636C7.81137 10.6593 7.96781 10.6404 8.12361 10.6404C8.12361 10.4032 8.12361 10.1722 8.12361 9.93279ZM15.8765 10.6426C16.001 10.6426 16.1215 10.6428 16.2421 10.6426C16.4118 10.6424 16.5285 10.5756 16.6062 10.4316C16.722 10.217 16.5636 9.98035 16.3381 9.94141C16.1905 9.91584 16.0334 9.93665 15.8765 9.93665C15.8765 10.1727 15.8765 10.4038 15.8765 10.6426Z" fill="black"/>
</svg>
