<svg width="70" height="70" viewBox="0 0 70 70" fill="none" xmlns="http://www.w3.org/2000/svg">
<path d="M58.8169 34.951C58.8169 38.943 58.8161 42.935 58.8177 46.927C58.8177 47.7098 58.7181 48.4753 58.1411 49.0522C57.8004 49.3922 57.3913 49.6869 56.9666 49.9157C54.8183 51.0754 52.6568 52.2121 50.4946 53.348C46.7948 55.2921 43.0925 57.2289 39.391 59.1689C38.2963 59.7426 37.2197 60.3533 36.1028 60.8801C35.3003 61.2587 34.4533 61.2052 33.6598 60.7863C31.2111 59.4948 28.769 58.1911 26.3219 56.8972C23.7794 55.553 21.2369 54.2106 18.6902 52.8747C16.6967 51.8285 14.6925 50.803 12.703 49.7478C11.6709 49.2004 11.1828 48.3032 11.1704 47.141C11.1696 47.0447 11.1671 46.9492 11.1671 46.8529C11.1671 38.8961 11.1721 30.9401 11.1614 22.9832C11.1597 21.7387 11.5524 20.7378 12.6783 20.1098C13.057 19.8983 13.4471 19.7081 13.8307 19.5073C15.681 18.536 17.5321 17.5664 19.38 16.5919C22.3802 15.0099 25.3779 13.4238 28.378 11.8418C30.0687 10.9504 31.7725 10.0853 33.4491 9.16924C34.4763 8.60789 35.4756 8.59883 36.4921 9.13384C39.0741 10.4919 41.6521 11.8583 44.2325 13.2197C46.8837 14.6181 49.5365 16.0141 52.1885 17.4109C53.8808 18.3023 55.578 19.1838 57.2637 20.0868C58.3765 20.6827 58.8259 21.6506 58.821 22.8943C58.8078 26.9118 58.8169 30.9318 58.8169 34.951ZM35.9044 59.0364C36.1102 58.9368 36.2336 58.8808 36.353 58.8183C39.8223 56.9959 43.2925 55.1761 46.7602 53.3504C49.9291 51.682 53.0898 49.9996 56.2645 48.3427C56.8604 48.0316 57.0941 47.5929 57.0933 46.9369C57.0843 39.0796 57.0876 31.2224 57.0859 23.3651C57.0859 23.2244 57.062 23.0828 57.0456 22.9075C56.9106 22.9552 56.8324 22.9742 56.7624 23.0096C54.8413 23.9874 52.9243 24.9743 50.9999 25.9455C48.3726 27.2715 45.7379 28.5811 43.1098 29.9063C40.8224 31.0594 38.5449 32.234 36.2501 33.3731C35.9192 33.5378 35.8419 33.7353 35.8419 34.0637C35.8476 42.209 35.846 50.3544 35.8484 58.4997C35.8501 58.6553 35.8814 58.8117 35.9044 59.0364ZM12.9302 22.8499C12.9154 23.1717 12.8973 23.3849 12.8973 23.5981C12.8956 31.28 12.8956 38.9619 12.8973 46.6439C12.8973 46.8628 12.917 47.0818 12.9261 47.3007C12.9442 47.7592 13.1961 48.0341 13.592 48.2415C17.3379 50.2087 21.0788 52.1858 24.8223 54.1587C27.3673 55.5004 29.9123 56.8404 32.4581 58.1812C32.9808 58.4569 33.5026 58.7335 34.0895 59.0438C34.1027 58.7574 34.1199 58.5565 34.1199 58.3557C34.1216 50.3173 34.1216 42.2782 34.1199 34.2398C34.1199 34.0621 34.1265 33.881 34.0944 33.7073C34.0788 33.6209 34.0006 33.5163 33.9216 33.476C32.0342 32.5122 30.1436 31.5549 28.2529 30.5985C27.848 30.3935 27.4389 30.1976 26.9812 29.9729C26.9812 30.219 26.9812 30.3828 26.9812 30.5466C26.9812 33.5369 26.9821 36.5281 26.9804 39.5184C26.9796 40.3604 26.5755 41.0123 25.8478 41.2847C25.0857 41.5695 24.4008 41.4172 23.8272 40.8246C23.4411 40.4254 23.0246 40.0509 22.6765 39.6212C22.2048 39.0385 21.6904 38.72 20.9373 39.0747C20.8418 39.12 20.7216 39.1084 20.6138 39.1299C19.4886 39.3471 18.4721 38.5636 18.468 37.4211C18.4548 33.6489 18.4573 29.8766 18.4779 26.1044C18.4795 25.7554 18.375 25.59 18.0836 25.4467C17.0959 24.9628 16.1181 24.4599 15.1361 23.9635C14.434 23.6088 13.7327 23.2557 12.9302 22.8499ZM47.3067 16.8298C47.189 16.7524 47.1355 16.7104 47.0771 16.6791C45.6408 15.9178 44.2078 15.1523 42.7632 14.4082C42.6357 14.3424 42.4134 14.3671 42.2743 14.4329C41.5903 14.7589 40.9203 15.1144 40.2438 15.4568C37.1777 17.0051 34.1092 18.5467 31.0465 20.0999C27.694 21.8004 24.3548 23.5256 20.9932 25.2072C20.4055 25.5011 20.1776 25.8838 20.18 26.5159C20.194 29.9853 20.1858 33.4546 20.1874 36.9248C20.1874 37.0705 20.2014 37.217 20.2113 37.4104C20.5084 37.3635 20.771 37.3553 21.0122 37.2787C22.0073 36.9602 22.8222 37.1898 23.507 37.9882C23.9481 38.5027 24.4412 38.9735 24.9136 39.4607C24.991 39.5406 25.0865 39.604 25.2527 39.7389C25.2527 39.4747 25.2527 39.315 25.2527 39.1562C25.2527 36.0572 25.2527 32.9575 25.2527 29.8585C25.2527 28.6445 25.7911 27.7448 26.8668 27.1909C28.2653 26.4715 29.6777 25.7801 31.0811 25.0706C34.1669 23.5108 37.251 21.9453 40.3368 20.3855C42.197 19.4456 44.0596 18.5122 45.9198 17.5706C46.3717 17.3401 46.8162 17.0915 47.3067 16.8298ZM28.1188 28.5054C28.1821 28.5992 28.1961 28.6478 28.2274 28.6634C30.3115 29.7145 32.3964 30.7639 34.4821 31.8109C34.8369 31.9887 35.1883 31.9722 35.5447 31.7928C38.0148 30.5483 40.4899 29.3145 42.9575 28.0658C46.6038 26.2213 50.2452 24.3677 53.8882 22.5182C54.5878 22.1634 55.2883 21.8111 56.0562 21.4235C55.8315 21.3008 55.6809 21.216 55.5286 21.1354C53.5639 20.095 51.5959 19.0595 49.6361 18.0101C49.3529 17.8586 49.1167 17.8529 48.8336 18.0051C48.0911 18.4052 47.3388 18.7863 46.5849 19.1649C44.1617 20.3839 41.7336 21.593 39.312 22.8161C36.7555 24.1076 34.2047 25.4097 31.6515 26.7077C30.4843 27.302 29.3164 27.8963 28.1188 28.5054ZM13.992 21.3955C14.0924 21.4745 14.141 21.5263 14.2011 21.5568C15.8333 22.3922 17.4646 23.2301 19.1042 24.0508C19.2285 24.1133 19.4417 24.1026 19.5685 24.0376C20.7512 23.4351 21.9184 22.8013 23.1012 22.1988C25.7968 20.8251 28.4974 19.462 31.198 18.0965C33.8335 16.7647 36.4707 15.4371 39.1054 14.1037C39.5935 13.8568 40.0742 13.5925 40.6405 13.2929C40.5294 13.2304 40.4833 13.2024 40.4347 13.1769C38.7778 12.3036 37.1316 11.4089 35.4534 10.5784C35.1875 10.4467 34.7381 10.5092 34.4451 10.6409C33.6911 10.9776 32.98 11.4089 32.2466 11.7933C28.9896 13.4987 25.7293 15.1984 22.4723 16.9047C20.5619 17.9056 18.654 18.9114 16.7469 19.9197C15.8374 20.4004 14.9328 20.8909 13.992 21.3955Z" fill="#115C07"/>
<path d="M34.5667 70C32.9197 69.828 30.8916 69.7127 28.8972 69.3868C25.7258 68.8682 22.6795 67.8978 19.7963 66.4525C19.2028 66.1553 18.6061 65.8648 18.0233 65.5479C17.4768 65.2507 17.3344 64.7725 17.6126 64.2853C17.8274 63.9099 18.3764 63.8136 18.8472 64.0334C20.4078 64.7602 21.9429 65.5578 23.5487 66.1685C24.9291 66.6936 26.3851 67.0319 27.8222 67.3949C30.1302 67.9777 32.4875 68.1727 34.8622 68.176C36.6721 68.1785 38.4797 68.0896 40.2617 67.7571C41.5218 67.5225 42.7951 67.3077 44.0166 66.9315C45.5714 66.4525 47.1032 65.8746 48.6021 65.24C50.8829 64.2746 52.9908 62.9905 54.9646 61.4933C58.6726 58.68 61.6761 55.2567 63.9561 51.189C65.1249 49.1033 66.0887 46.932 66.7496 44.6438C67.2098 43.0503 67.5217 41.4098 67.8262 39.776C68.2938 37.268 68.2559 34.728 68.097 32.1969C68.0238 31.0282 67.8361 29.8569 67.5859 28.7111C67.246 27.1563 66.8747 25.5998 66.371 24.0928C65.9076 22.7075 65.3018 21.3626 64.6689 20.0431C63.3857 17.3714 61.7098 14.9523 59.7295 12.7497C57.1079 9.83513 54.0756 7.43663 50.6088 5.59455C48.5519 4.5023 46.4118 3.62406 44.1664 2.98863C42.1227 2.41 40.0584 1.95483 37.9356 1.85112C36.1997 1.76634 34.4572 1.69061 32.7229 1.75235C31.4455 1.79844 30.1615 2.00421 28.9063 2.26431C27.3769 2.58038 25.8616 2.98452 24.3636 3.42981C22.51 3.98046 20.7609 4.79615 19.0629 5.7213C17.0957 6.79297 15.2561 8.04572 13.5391 9.48531C11.3727 11.3019 9.48124 13.3703 7.84164 15.6692C7.42186 16.2586 6.88767 16.2248 6.53703 15.9878C6.14606 15.7235 6.06787 15.1622 6.36418 14.7457C7.91983 12.5579 9.6936 10.5644 11.7011 8.78239C14.4371 6.35344 17.4718 4.37143 20.8276 2.92032C22.3207 2.27419 23.8821 1.77539 25.4361 1.28565C27.4453 0.65187 29.5079 0.216453 31.6159 0.119328C33.6646 0.0230262 35.7223 -0.0395289 37.7726 0.0287879C39.1176 0.074058 40.4683 0.305347 41.7893 0.581907C44.6603 1.18194 47.4374 2.08241 50.0894 3.35903C53.6567 5.076 56.8503 7.3214 59.6529 10.1117C62.3387 12.7851 64.5372 15.8182 66.2385 19.2093C67.1546 21.0358 67.9143 22.9273 68.4921 24.8846C68.8189 25.9916 69.0452 27.1292 69.3004 28.2568C69.814 30.5252 69.9869 32.834 69.9753 35.1486C69.9663 37.0227 69.7901 38.8912 69.479 40.7472C69.1671 42.6083 68.707 44.4289 68.0987 46.2076C66.9933 49.4391 65.4582 52.4582 63.468 55.2419C61.2876 58.2923 58.6965 60.9402 55.6716 63.1486C53.2863 64.8902 50.7281 66.3315 47.9699 67.4188C46.2431 68.0995 44.4841 68.6691 42.6774 69.0666C41.3597 69.3563 40.0139 69.5399 38.6723 69.6963C37.4376 69.8403 36.1906 69.8848 34.5667 70Z" fill="#115C07"/>
<path d="M6.78576 18.2189C5.27621 18.3333 4.2959 17.1373 4.16091 15.8583C4.05391 14.8426 3.81192 13.8425 3.6794 12.8293C3.61356 12.3305 3.3691 11.8416 3.56582 11.314C3.72138 10.8975 4.03251 10.7608 4.43171 10.7831C4.82844 10.8061 5.10912 11.0168 5.1799 11.4185C5.37909 12.5469 5.56264 13.6787 5.74866 14.8096C5.81039 15.1858 5.83755 15.5702 5.9281 15.9389C6.01946 16.3142 6.28285 16.5159 6.68781 16.4591C7.53971 16.3389 8.38997 16.2114 9.24023 16.0846C9.90117 15.9858 10.5605 15.8714 11.2222 15.7842C11.6642 15.7257 12.0363 16.0155 12.1169 16.441C12.2091 16.9307 11.9803 17.353 11.5078 17.4402C10.381 17.6493 9.24846 17.8254 8.11753 18.0123C7.67388 18.0847 7.22941 18.1497 6.78576 18.2189Z" fill="#115C07"/>
<path d="M5.38627 50.4011C5.3978 50.8159 5.19285 51.0801 4.82575 51.2176C4.4677 51.3517 3.98372 51.2093 3.81992 50.8735C3.35652 49.9204 2.91205 48.9582 2.4931 47.9853C2.33012 47.6067 2.63302 47.1375 3.08737 46.9515C3.45035 46.8033 3.96067 47.0494 4.15986 47.4791C4.53684 48.2923 4.91217 49.1063 5.27598 49.9253C5.34182 50.0718 5.35088 50.2422 5.38627 50.4011Z" fill="#115C07"/>
<path d="M7.57759 56.2892C7.29444 56.0801 7.022 55.9608 6.86973 55.7526C6.30344 54.9805 5.76596 54.187 5.23836 53.387C4.96591 52.9738 5.08691 52.4766 5.4787 52.2132C5.87543 51.9466 6.37423 52.0297 6.65819 52.4371C7.20637 53.224 7.73974 54.0208 8.27887 54.8142C8.48382 55.1155 8.51427 55.4579 8.30932 55.7344C8.14882 55.9517 7.86732 56.0777 7.57759 56.2892Z" fill="#115C07"/>
<path d="M12.3249 59.602C12.3109 60.0284 12.0763 60.3107 11.78 60.412C11.5347 60.4959 11.1174 60.4704 10.9462 60.3116C10.1535 59.5749 9.40453 58.7888 8.67362 57.9888C8.4127 57.7032 8.52711 57.1715 8.81848 56.9138C9.14855 56.6216 9.63911 56.6043 9.97082 56.9221C10.4194 57.3525 10.8359 57.8176 11.2697 58.2645C11.5051 58.5073 11.7676 58.7271 11.9825 58.9872C12.1281 59.165 12.2121 59.3946 12.3249 59.602Z" fill="#115C07"/>
<path d="M0.000944777 36.88C-0.0163402 36.2857 0.205072 35.8799 0.540071 35.7787C0.986188 35.6437 1.39773 35.7771 1.61092 36.1351C1.65783 36.2141 1.69816 36.3071 1.70804 36.3968C1.80928 37.3739 1.91299 38.35 1.9953 39.3287C2.03893 39.8456 1.6817 40.2506 1.19937 40.281C0.687405 40.3131 0.335944 40.0045 0.276681 39.4612C0.178733 38.5665 0.0849003 37.671 0.000944777 36.88Z" fill="#115C07"/>
<path d="M3.21447 45.0744C3.20953 45.4711 2.95601 45.8119 2.60373 45.8942C2.17243 45.9954 1.70985 45.8201 1.5905 45.4201C1.28678 44.4027 1.01434 43.3747 0.765762 42.3417C0.67769 41.9771 1.03985 41.5606 1.45387 41.4429C1.77652 41.3515 2.30659 41.5672 2.40536 41.9112C2.69839 42.9311 2.94614 43.964 3.21035 44.9921C3.21611 45.0184 3.21282 45.0472 3.21447 45.0744Z" fill="#115C07"/>
</svg>
