<svg width="71" height="70" viewBox="0 0 71 70" fill="none" xmlns="http://www.w3.org/2000/svg">
<path d="M16.6653 32.0687C16.3433 32.0827 15.9512 32.2367 15.7272 32.4608C11.7794 36.3735 7.85265 40.3073 3.92586 44.2411L3.92459 44.2424L44.4886 3.39409C44.3044 3.53357 44.1292 3.68699 43.962 3.85526L43.9599 3.85738L43.9597 3.85759C36.6564 11.1881 29.3403 18.4983 22.0116 25.801C22.0116 25.8011 22.0115 25.8011 22.0114 25.8012C21.8075 26.0044 21.6035 26.2076 21.3996 26.4108C21.4092 26.7003 21.4137 26.9949 21.4152 27.2886C21.4152 27.2887 21.4152 27.2889 21.4152 27.2891C21.4173 27.695 21.4137 28.0993 21.4103 28.4862C21.4078 28.7726 21.4054 29.0495 21.4054 29.3106V30.4221V30.4222V31.4653C21.3179 31.6079 21.204 31.7223 21.0612 31.8106M16.6653 32.0687C17.3544 32.0384 18.0462 32.0429 18.7374 32.0475C19.1626 32.0503 19.5875 32.0531 20.0115 32.0477C20.4622 32.0423 20.8074 31.9675 21.0612 31.8106M16.6653 32.0687L16.6541 31.8138M16.6653 32.0687L16.6542 31.8138M21.0612 31.8106H20.0086H20.0085H18.9054C18.6115 31.8106 18.3173 31.8117 18.0237 31.8129C17.5654 31.8146 17.1081 31.8164 16.6542 31.8138M21.0612 31.8106L16.0044 31.8067C16.22 31.8104 16.4367 31.8126 16.6541 31.8138M16.5553 29.5712C16.5558 29.5711 16.5562 29.5711 16.5567 29.5711L16.6542 31.8138M16.5553 29.5712L16.6541 31.8138M16.5553 29.5712C16.3316 29.581 16.097 29.6127 15.8594 29.6672C15.8593 29.6673 15.8591 29.6673 15.8589 29.6674C15.4351 29.7647 15.0021 29.9346 14.6054 30.1821M16.6542 31.8138C16.6542 31.8138 16.6541 31.8138 16.6541 31.8138M60.3775 31.827C60.3776 31.8269 60.3796 31.825 60.3836 31.8218C60.3795 31.8255 60.3775 31.8272 60.3775 31.827ZM61.4364 31.6962C61.4367 31.6963 61.4369 31.6964 61.4372 31.6965C61.4373 31.6965 61.4374 31.6966 61.4375 31.6966L61.4364 31.6962Z" fill="#115C07" stroke="#115C07" stroke-width="5"/>
<path d="M40.1792 19.4411C40.1722 18.6291 40.6132 18.09 41.2852 17.957C41.9363 17.824 42.6013 18.202 42.8113 18.9161C43.2173 20.2672 43.5813 21.6252 43.9594 22.9833C45.0234 26.7915 46.0875 30.6067 47.1515 34.4149C47.1865 34.5479 47.2215 34.6809 47.2565 34.8139C47.4456 35.626 47.0745 36.312 46.3255 36.536C45.5975 36.76 44.8694 36.368 44.6314 35.563C44.2534 34.2959 43.9244 33.0218 43.5673 31.7548C42.4823 27.8556 41.3972 23.9564 40.3192 20.0571C40.2562 19.8121 40.2072 19.5671 40.1792 19.4411Z" fill="#115C07"/>
<path d="M55.8055 25.9788C55.8055 28.268 53.9714 30.0951 51.6823 30.0811C49.4491 30.0671 47.608 28.219 47.608 25.9858C47.608 23.7247 49.4771 21.8696 51.7453 21.8836C53.9994 21.8906 55.8055 23.7177 55.8055 25.9788ZM51.6823 24.6138C50.9612 24.6348 50.3452 25.2578 50.3452 25.9788C50.3452 26.7209 50.9962 27.3579 51.7453 27.3439C52.5083 27.3229 53.0963 26.6859 53.0613 25.9158C53.0403 25.1738 52.4173 24.5928 51.6823 24.6138Z" fill="#115C07"/>
<path d="M39.9634 26.4537C39.9634 28.7288 38.1643 30.5419 35.8961 30.5559C33.628 30.5699 31.7449 28.6868 31.7659 26.4257C31.7939 24.1716 33.635 22.3585 35.8821 22.3655C38.1643 22.3725 39.9634 24.1786 39.9634 26.4537ZM37.2262 26.4607C37.2262 25.7047 36.6522 25.1166 35.8961 25.1026C35.1471 25.0956 34.5311 25.6767 34.5101 26.4117C34.4821 27.1678 35.1191 27.8118 35.8891 27.8048C36.6382 27.8048 37.2262 27.2168 37.2262 26.4607Z" fill="#115C07"/>
<path d="M26.3044 45.1867C26.0244 45.6627 25.8844 46.0408 25.6324 46.2998C24.1553 47.8118 22.6642 49.3099 21.1521 50.787C20.5081 51.417 19.7101 51.417 19.15 50.85C18.59 50.283 18.604 49.4919 19.234 48.8479C20.7181 47.3428 22.2162 45.8517 23.7143 44.3607C24.1763 43.9056 24.7503 43.6746 25.3174 44.0456C25.7164 44.3117 25.9684 44.7807 26.3044 45.1867Z" fill="#115C07"/>
<path d="M15.8109 47.2009C15.3909 46.8439 14.9289 46.5919 14.6629 46.1999C14.3199 45.7028 14.4809 45.1358 14.8869 44.7018C15.4119 44.1418 15.9719 43.6027 16.518 43.0567C17.463 42.1046 18.4081 41.1596 19.3601 40.2145C20.0672 39.5145 20.8722 39.4515 21.4602 40.0395C22.0623 40.6346 22.0133 41.4186 21.2992 42.1396C19.8782 43.5747 18.4501 45.0098 17.001 46.4239C16.707 46.7039 16.308 46.8789 15.8109 47.2009Z" fill="#115C07"/>
<path d="M24.2604 55.6515C23.8964 55.3434 23.4274 55.0914 23.1614 54.7064C22.8044 54.1744 23.0004 53.6074 23.4414 53.1593C24.7015 51.8853 25.9755 50.6182 27.2426 49.3511C27.5296 49.0641 27.8096 48.7631 28.1246 48.4971C28.7197 48 29.4477 48.028 29.9727 48.5461C30.4838 49.0571 30.5608 49.8481 30.0357 50.3942C28.4677 52.0113 26.8716 53.5933 25.2615 55.1684C25.0515 55.3714 24.7085 55.4414 24.2604 55.6515Z" fill="#115C07"/>
<path d="M36.8266 46.0327C36.6306 46.2777 36.3996 46.8027 36.0216 46.9707C35.6366 47.1387 35.0275 47.0827 34.6425 46.8727C34.1665 46.6137 33.7885 46.1377 33.4315 45.6967C32.9834 45.1436 33.0884 44.3806 33.5855 43.9116C34.0615 43.4705 34.8245 43.3935 35.3286 43.8346C35.9376 44.3876 36.6866 44.8636 36.8266 46.0327Z" fill="#115C07"/>
<path d="M30.3436 42.1242C29.3915 41.9842 27.9915 40.6611 28.0895 39.8351C28.1385 39.4221 28.4395 38.96 28.7615 38.673C29.1605 38.316 29.7276 38.358 30.1546 38.694C30.5956 39.044 31.0786 39.4221 31.3307 39.8981C31.5267 40.2761 31.5407 40.8851 31.3727 41.2772C31.2116 41.6482 30.7006 41.8512 30.3436 42.1242Z" fill="#115C07"/>
<path d="M26.41 35.6443C26.2349 35.8683 26.0179 36.4004 25.6329 36.5684C25.2479 36.7364 24.6599 36.6664 24.2468 36.4844C23.8618 36.3164 23.5538 35.9033 23.2808 35.5533C22.8538 35.0003 22.9378 34.2933 23.4138 33.8172C23.9038 33.3202 24.6599 33.2502 25.2059 33.7122C25.7309 34.1602 26.326 34.5873 26.41 35.6443Z" fill="#115C07"/>
<path d="M58.0378 37.1367C58.0238 37.8858 57.4288 38.4668 56.6797 38.4598C55.9027 38.4528 55.3077 37.8298 55.3427 37.0457C55.3707 36.2967 55.9797 35.7367 56.7357 35.7577C57.4778 35.7857 58.0518 36.3877 58.0378 37.1367Z" fill="#115C07"/>
</svg>
