<svg width="24" height="22" viewBox="0 0 24 22" fill="none" xmlns="http://www.w3.org/2000/svg">
<path d="M0.000457729 13.7265C0.032041 13.6686 0.0620223 13.6098 0.0954365 13.5529C0.22772 13.3271 0.419051 13.2001 0.674006 13.1996C1.95565 13.1975 3.23729 13.1963 4.5187 13.2015C4.6844 13.2023 4.83476 13.174 4.98352 13.1004C5.41081 12.8887 5.83788 12.6759 6.27112 12.4783C6.52859 12.3609 6.79636 12.2671 7.06207 12.171C7.33145 12.0734 7.60082 11.9734 7.87614 11.8979C8.1343 11.8268 8.39818 11.7718 8.66275 11.7352C9.00101 11.6886 9.34179 11.6515 9.68257 11.6393C10.0977 11.6245 10.5019 11.712 10.9036 11.8254C11.5043 11.995 12.0344 12.3131 12.5635 12.6386C13.1478 12.998 13.7245 13.373 14.3253 13.6995C14.6956 13.9006 15.1014 14.0343 15.4978 14.1783C15.764 14.2752 16.0407 14.3416 16.3148 14.4127C16.4343 14.4435 16.5595 14.4495 16.6815 14.4698C16.8298 14.4947 16.9774 14.5227 17.1255 14.5495C17.1404 14.5521 17.155 14.5578 17.1701 14.5593C17.355 14.5775 17.5404 14.594 17.7251 14.6138C17.7965 14.6215 17.8418 14.5923 17.8892 14.5354C18.2812 14.0654 18.6682 13.5902 19.0747 13.1341C19.4125 12.755 19.8391 12.5013 20.3019 12.3279C20.5209 12.2459 20.7573 12.2083 20.9889 12.1722C21.1901 12.1409 21.3956 12.1289 21.5993 12.1279C21.8593 12.1268 22.1108 12.1906 22.3628 12.2585C22.7837 12.3721 23.1583 12.5754 23.5035 12.845C23.6735 12.9777 23.8445 13.1107 23.907 13.34C23.9081 13.3441 23.928 13.3427 23.9392 13.3439C23.9392 13.4873 23.9392 13.6308 23.9392 13.7743C23.9143 13.8193 23.8932 13.8674 23.8637 13.9088C23.6536 14.2032 23.4463 14.5 23.2297 14.7891C22.7624 15.4133 22.298 16.0402 21.8174 16.6529C21.3494 17.2496 20.8731 17.8396 20.3818 18.4153C19.6737 19.2447 18.9255 20.032 18.0597 20.6871C17.6725 20.9801 17.2646 21.2377 16.8318 21.4455C16.4567 21.6256 16.07 21.7844 15.658 21.853C15.344 21.9054 15.0298 21.9702 14.7135 21.9889C14.177 22.0204 13.6415 21.9882 13.1165 21.8483C12.8386 21.7741 12.5557 21.7172 12.2818 21.6301C11.9907 21.5376 11.7057 21.4228 11.4213 21.3094C11.1315 21.1939 10.8422 21.0758 10.5587 20.9449C10.1939 20.7768 9.83431 20.5965 9.47339 20.419C9.19394 20.2815 8.92022 20.1306 8.63643 20.0041C8.37598 19.8878 8.10707 19.7917 7.83907 19.6955C7.62165 19.6178 7.40125 19.5487 7.17994 19.4839C6.95519 19.4184 6.72862 19.3593 6.50135 19.3043C6.35465 19.2689 6.20543 19.2428 6.05644 19.2179C5.92759 19.1964 5.7976 19.1821 5.65684 19.1632C5.65684 19.3882 5.65295 19.6071 5.65776 19.8254C5.666 20.203 5.31767 20.5295 4.98742 20.5281C3.54946 20.5223 2.1115 20.5252 0.673548 20.5262C0.472376 20.5264 0.306221 20.4463 0.180803 20.2872C0.110313 20.1978 0.0597336 20.0911 0 19.9923C0.000457729 17.904 0.000457729 15.8151 0.000457729 13.7265ZM17.77 19.0644C17.7619 19.0524 17.7539 19.0407 17.7459 19.0288C17.5514 19.0072 17.3571 18.9845 17.1623 18.9644C16.9744 18.9451 16.7861 18.9314 16.5984 18.9094C16.4865 18.8963 16.3755 18.8726 16.2643 18.8525C16.116 18.8257 15.9681 18.7972 15.8198 18.7709C15.6974 18.7492 15.5738 18.7332 15.4518 18.7085C15.2378 18.6652 15.0243 18.6184 14.811 18.5712C14.648 18.5354 14.4848 18.5 14.3233 18.4588C14.096 18.401 13.8692 18.3395 13.6433 18.2759C13.4586 18.224 13.2654 18.1891 13.094 18.1061C12.7988 17.963 12.6498 17.7107 12.6722 17.3584C12.6917 17.0526 12.9189 16.7978 13.175 16.7208C13.3899 16.6565 13.6026 16.7189 13.8115 16.7837C13.9649 16.8313 14.1205 16.8717 14.2761 16.9114C14.4331 16.9516 14.5913 16.9868 14.7489 17.0241C15.0069 17.0851 15.2639 17.1506 15.5227 17.2054C15.7271 17.2487 15.9335 17.2812 16.1398 17.3144C16.4391 17.3627 16.7385 17.4101 17.0387 17.4522C17.2227 17.478 17.4079 17.4993 17.5933 17.5122C18.0334 17.5431 18.4735 17.5816 18.914 17.589C19.1193 17.5923 19.3036 17.4945 19.4306 17.3032C19.5482 17.1257 19.556 16.9299 19.5466 16.7275C19.5391 16.5656 19.4796 16.4279 19.3697 16.314C19.2178 16.1562 19.0239 16.1251 18.8237 16.1311C18.1972 16.15 17.5759 16.0816 16.9541 16.022C16.822 16.0093 16.6899 15.9897 16.5597 15.9629C16.294 15.9084 16.029 15.8488 15.7644 15.7876C15.5534 15.7388 15.3394 15.6982 15.1341 15.6298C14.8432 15.5329 14.5576 15.4184 14.2724 15.3033C13.6776 15.0634 13.1249 14.7363 12.5795 14.395C12.0417 14.0585 11.5274 13.6811 10.9496 13.4144C10.5468 13.2286 10.1261 13.1408 9.69379 13.1152C9.46034 13.1013 9.22393 13.1363 8.98911 13.1549C8.89573 13.1623 8.8019 13.1795 8.71081 13.2035C8.48813 13.2618 8.2659 13.3235 8.04527 13.3902C7.83174 13.4548 7.61386 13.511 7.40926 13.5993C6.86571 13.8337 6.32765 14.0812 5.78981 14.3297C5.73283 14.356 5.65341 14.3651 5.6541 14.482C5.66028 15.5102 5.65845 16.5386 5.65662 17.5668C5.65639 17.6607 5.69461 17.6947 5.77952 17.6949C5.8555 17.6954 5.93217 17.6983 6.00724 17.71C6.15531 17.7337 6.30224 17.7655 6.45009 17.7916C6.56475 17.8117 6.68147 17.8217 6.79476 17.8478C6.96526 17.8872 7.13348 17.9372 7.30261 17.9824C7.50172 18.0355 7.70404 18.0774 7.89903 18.1441C8.19495 18.2453 8.4895 18.3534 8.77764 18.4765C9.18891 18.6521 9.59629 18.8386 10.0009 19.0304C10.4257 19.2318 10.8397 19.4585 11.2686 19.6489C11.6778 19.8307 12.098 19.9861 12.5173 20.1411C12.7626 20.2317 13.013 20.3123 13.2664 20.3724C13.5016 20.4281 13.7442 20.4489 13.9832 20.4881C14.6169 20.5919 15.2305 20.4771 15.8258 20.2671C16.1283 20.1605 16.4231 20.01 16.6964 19.8362C17.0667 19.6008 17.4132 19.3239 17.77 19.0644ZM4.24956 19.0577C4.24956 17.589 4.24956 16.133 4.24956 14.6703C3.30046 14.6703 2.3573 14.6703 1.40889 14.6703C1.40889 16.1361 1.40889 17.595 1.40889 19.0577C2.35822 19.0577 3.29885 19.0577 4.24956 19.0577ZM19.5707 14.7315C19.6361 14.7693 19.6672 14.7934 19.7023 14.8066C20.1193 14.9649 20.4319 15.2552 20.6621 15.6448C20.7029 15.7137 20.7251 15.697 20.7594 15.6539C20.8088 15.5917 20.8548 15.5265 20.9029 15.4631C21.2817 14.9651 21.6609 14.4674 22.0392 13.969C22.0891 13.9033 22.1339 13.8337 22.1902 13.7531C21.8595 13.6347 21.5471 13.5959 21.2203 13.6294C20.8674 13.6655 20.5461 13.7827 20.2788 14.0188C20.033 14.2357 19.8135 14.4847 19.5707 14.7315Z" fill="black"/>
<path d="M15.4813 0.00551691C16.6634 0.00551691 17.8455 0.00551691 19.0276 0.00551691C19.1949 0.00551691 19.3398 0.0691343 19.4563 0.189672C19.9154 0.664172 20.3715 1.14178 20.8285 1.61867C21.3117 2.12283 21.7918 2.63033 22.2791 3.12994C22.5601 3.41813 22.5624 3.89024 22.2967 4.19733C21.6247 4.97389 20.9569 5.75428 20.2864 6.53204C19.6485 7.27201 19.0091 8.01054 18.371 8.75027C17.808 9.40295 17.2457 10.0563 16.6829 10.7095C16.4542 10.975 16.2293 11.2438 15.9958 11.5045C15.7093 11.8242 15.2406 11.8211 14.9593 11.498C14.3977 10.853 13.8386 10.2056 13.2806 9.55673C12.7782 8.97246 12.2804 8.38412 11.7781 7.79984C11.3918 7.35045 11.0006 6.90537 10.6132 6.4567C10.0472 5.80139 9.4828 5.14489 8.91796 4.48863C8.81268 4.36618 8.6994 4.24923 8.60671 4.11697C8.36434 3.77018 8.43117 3.3813 8.70855 3.09192C9.61989 2.14053 10.5326 1.19105 11.4437 0.239897C11.6124 0.0638727 11.8122 -0.00117966 12.0495 1.61561e-05C13.1934 0.00575607 14.3375 0.00264695 15.4816 0.00264695C15.4813 0.0036036 15.4813 0.00456025 15.4813 0.00551691ZM15.4971 8.35446C15.8793 7.02184 16.2519 5.72319 16.6284 4.41042C15.8544 4.41042 15.1055 4.41042 14.3334 4.41042C14.3565 4.49198 14.3759 4.56109 14.3956 4.63021C14.4844 4.94232 14.5725 5.25443 14.6622 5.5663C14.7609 5.90926 14.8632 6.25078 14.9602 6.59422C15.0444 6.8927 15.1218 7.19308 15.2051 7.4918C15.2774 7.75153 15.3529 8.01054 15.4298 8.26908C15.4379 8.29539 15.4655 8.31548 15.4971 8.35446ZM17.0976 7.94549C17.1113 7.95195 17.125 7.95841 17.1388 7.96462C18.1533 6.78675 19.1679 5.60863 20.1985 4.4121C19.4835 4.4121 18.7962 4.4121 18.1098 4.4121C17.7707 5.59595 17.434 6.77072 17.0976 7.94549ZM10.7589 4.41138C11.7932 5.61174 12.8064 6.78794 13.8196 7.96415C13.8331 7.95745 13.8468 7.95099 13.8603 7.9443C13.5227 6.76737 13.1849 5.59045 12.8467 4.41138C12.1594 4.41138 11.4755 4.41138 10.7589 4.41138ZM16.5616 2.93311C16.5396 2.88169 16.5213 2.84558 16.508 2.80731C16.3652 2.3981 16.224 1.98818 16.08 1.57945C16.0558 1.51081 16.0176 1.46824 15.9297 1.47087C15.6363 1.47924 15.3424 1.48044 15.049 1.47087C14.9373 1.46728 14.9 1.52038 14.8675 1.61532C14.7822 1.8631 14.6879 2.10728 14.5995 2.3541C14.5318 2.54352 14.4677 2.73461 14.3993 2.93335C15.1188 2.93311 15.8269 2.93311 16.5616 2.93311ZM17.5738 1.47398C17.5791 1.52348 17.5759 1.56056 17.5874 1.59189C17.7386 2.00516 17.8965 2.4158 18.0414 2.83147C18.0716 2.91781 18.1069 2.94005 18.1863 2.93957C18.7772 2.93718 19.3681 2.93837 19.9588 2.9379C19.9895 2.9379 20.0202 2.93263 20.066 2.92833C20.0399 2.89652 20.0289 2.88074 20.0161 2.86734C19.6609 2.49712 19.288 2.14316 18.9566 1.75093C18.7619 1.52061 18.5557 1.43452 18.2783 1.47206C18.1883 1.48426 18.0957 1.47398 18.0041 1.47398C17.8638 1.47398 17.7238 1.47398 17.5738 1.47398ZM13.3893 1.49287C13.3591 1.48235 13.3486 1.47565 13.338 1.47565C12.9988 1.47493 12.6597 1.47254 12.3207 1.47733C12.2825 1.4778 12.2374 1.50961 12.2079 1.53999C11.9289 1.8265 11.6545 2.11781 11.3748 2.40337C11.2114 2.5703 11.0411 2.72982 10.8738 2.89269C10.9047 2.92642 10.9063 2.93287 10.9079 2.93311C11.5481 2.93503 12.188 2.93718 12.8281 2.93646C12.8526 2.93646 12.8906 2.91589 12.8993 2.89461C12.9373 2.80253 12.9663 2.70662 12.9998 2.61239C13.087 2.36677 13.1758 2.12187 13.262 1.87601C13.3062 1.74925 13.3465 1.62154 13.3893 1.49287Z" fill="black"/>
</svg>
