<svg width="67" height="74" viewBox="0 0 67 74" fill="none" xmlns="http://www.w3.org/2000/svg">
<path d="M11.9462 46.3202H3.74971V37.3402H0.460938V55.1394H3.74971V49.5944H11.9462V55.1375H15.235V37.3384H11.9462V46.3202Z" fill="white"/>
<path d="M26.2562 37.1011C23.7515 37.1011 21.5841 38 19.8106 39.7717C18.0428 41.5396 17.14 43.7038 17.1268 46.2137C17.1268 48.7161 18.0258 50.884 19.7993 52.6557C21.5709 54.4274 23.7402 55.3263 26.2449 55.3263C28.4707 55.3263 30.4308 54.6161 32.0837 53.2145V55.1413H35.3611V46.2193C35.3725 43.7187 34.4772 41.549 32.7 39.7717C30.9284 38 28.7591 37.1011 26.2562 37.1011ZM30.378 50.3439C29.219 51.4914 27.8676 52.0483 26.2449 52.0483C24.6203 52.0483 23.2671 51.4895 22.1137 50.3458C20.964 49.1871 20.4043 47.834 20.4043 46.2118C20.4043 44.5896 20.964 43.2366 22.108 42.0835C23.2671 40.9341 24.6203 40.3753 26.2449 40.3753C27.8695 40.3753 29.2208 40.9341 30.3743 42.0779C31.5239 43.2366 32.0837 44.5896 32.0837 46.2118C32.0837 47.8359 31.5258 49.1871 30.378 50.3439Z" fill="white"/>
<path d="M37.6488 34.0024H40.9376V55.1393H37.6488V34.0024Z" fill="white"/>
<path d="M51.9617 37.1011C49.4569 37.1011 47.2896 38 45.5161 39.7717C43.7482 41.5396 42.8455 43.7038 42.8323 46.2137C42.8323 48.7161 43.7313 50.884 45.5048 52.6557C47.2764 54.4274 49.4456 55.3263 51.9504 55.3263C54.1762 55.3263 56.1362 54.6161 57.7891 53.2145V55.1413H61.0666V46.2193C61.0779 43.7187 60.1827 41.549 58.4054 39.7717C56.6338 38 54.4645 37.1011 51.9617 37.1011ZM56.0835 50.3439C54.9244 51.4914 53.5731 52.0483 51.9504 52.0483C50.3258 52.0483 48.9726 51.4895 47.8191 50.3458C46.6695 49.1871 46.1097 47.834 46.1097 46.2118C46.1097 44.5896 46.6695 43.2366 47.8135 42.0835C48.9726 40.9341 50.3258 40.3753 51.9504 40.3753C53.575 40.3753 54.9263 40.9341 56.0797 42.0779C57.2294 43.2366 57.7891 44.5896 57.7891 46.2118C57.7891 47.8359 57.2312 49.1871 56.0835 50.3439Z" fill="white"/>
<path d="M63.3538 34.0024H66.6425V55.1393H63.3538V34.0024Z" fill="white"/>
<path d="M32.2934 15.6525L20.9457 15.6451H20.9212L15.3444 21.9768L22.2801 21.9693C21.6958 22.5823 21.0324 23.0888 20.2691 23.4999L20.2314 23.5205C19.6491 23.8457 18.9988 24.1092 18.3015 24.3035C17.6343 24.4717 16.9276 24.5577 16.1982 24.5577C14.6452 24.5577 13.2845 24.2045 12.0368 23.4756L12.0236 23.4681C10.7326 22.7243 9.74691 21.7787 9.01377 20.5751L9.00058 20.5527C8.60103 19.9117 8.2844 19.1959 8.05447 18.4203L8.04881 18.4016C7.8283 17.6728 7.71711 16.8897 7.71711 16.0786C7.71711 14.5499 8.07143 13.2006 8.79892 11.954L8.80646 11.9391C9.55468 10.6384 10.5102 9.63851 11.7221 8.88349C12.3478 8.49476 13.0489 8.19388 13.8028 7.9883L13.8744 7.96774C14.6075 7.74722 15.3878 7.63508 16.2001 7.63508C17.3742 7.63508 18.441 7.85374 19.4606 8.30227L19.4964 8.31722C20.5405 8.76014 21.4244 9.35071 22.1971 10.1225L24.1365 12.0587L29.261 6.93613L27.3216 4.99811C25.9062 3.58525 24.2402 2.44897 22.363 1.62293L22.3197 1.60424C20.3954 0.795024 18.3354 0.385742 16.1982 0.385742C13.39 0.385742 10.7703 1.08096 8.41633 2.45084C6.09251 3.77961 4.20971 5.5812 2.82258 7.79955C2.06682 9.00497 1.48257 10.3225 1.09055 11.713C0.674037 13.1109 0.462952 14.5798 0.462952 16.0786C0.462952 18.8875 1.15652 21.504 2.52857 23.855C3.85916 26.178 5.66092 28.0618 7.88108 29.4467C9.08727 30.2035 10.4028 30.7848 11.7975 31.1772C13.1959 31.594 14.6773 31.8052 16.1982 31.8052C18.9856 31.8052 21.5903 31.1099 23.9443 29.7419C24.9695 29.1551 25.9119 28.4748 26.7637 27.7067L26.8033 33.2648L32.3745 26.9405L32.3876 26.9237L32.2934 15.6525Z" fill="white"/>
<path d="M66.643 15.9472C66.643 16.336 66.6223 16.7209 66.5921 17.1003C66.5469 17.6498 66.4715 18.1973 66.3641 18.7281L60.1786 17.3638C60.1936 17.2872 60.2087 17.2087 60.22 17.1321C60.2822 16.7471 60.3143 16.3528 60.3143 15.9491C60.3143 15.5193 60.2766 15.0969 60.2068 14.6876L65.4594 10.35C65.7233 10.9517 65.9495 11.5722 66.1285 12.2151H66.1304C66.1323 12.2263 66.1379 12.2413 66.1398 12.2525C66.1417 12.2637 66.1474 12.2786 66.1492 12.2936C66.4564 13.4392 66.643 14.7119 66.643 15.9472ZM38.8722 15.9491C38.8722 23.6133 45.0879 29.8254 52.7567 29.8254C55.8004 29.8254 58.6162 28.8443 60.9042 27.1829L56.5562 22.4733C55.4386 23.1274 54.1419 23.5031 52.7548 23.5031C48.5877 23.5031 45.1991 20.1167 45.1991 15.951C45.2047 12.2824 47.832 9.22118 51.3017 8.53904C51.7729 8.44559 52.261 8.397 52.7604 8.397C52.8321 8.397 52.9037 8.39887 52.9753 8.40261L53.8196 2.11761C53.4691 2.09144 53.1166 2.07275 52.7604 2.07275C52.5607 2.07275 52.3646 2.08023 52.1668 2.08771C44.7713 2.3942 38.8722 8.48297 38.8722 15.9491ZM63.3166 24.9608C64.47 23.6115 65.3671 22.0397 65.94 20.3185L59.6961 18.9412C59.4944 19.4028 59.2475 19.8382 58.9629 20.2494C58.6482 20.7016 58.2882 21.1184 57.8849 21.4903L62.1782 26.1438C62.5815 25.77 62.9603 25.3757 63.3166 24.9608ZM62.3836 5.95626C60.499 4.14533 58.1111 2.85768 55.4442 2.3344L54.598 8.62688C55.6534 8.89039 56.6165 9.37816 57.4439 10.0341L62.3836 5.95626Z" fill="url(#paint0_linear_1676_12196)"/>
<path d="M52.7581 30.9445C44.4712 30.9445 37.7542 24.2297 37.7542 15.9487C37.7542 7.66589 44.4731 0.952914 52.7581 0.952914C54.5524 0.952914 56.2731 1.26875 57.8675 1.84623C55.7077 0.773502 53.3235 0.233398 50.7359 0.233398C46.3709 0.233398 42.6279 1.81259 39.6068 4.92613C36.5932 8.03032 35.0666 11.8148 35.0666 16.1749C35.0666 20.5032 36.6422 24.2315 39.75 27.2554C42.8522 30.2736 46.631 31.8023 50.9846 31.8023C54.0473 31.8023 56.8046 31.0249 59.2207 29.4831C57.2682 30.4194 55.0744 30.9445 52.7581 30.9445Z" fill="white"/>
<path d="M50.4626 11.8622V21.2102L65.1293 9.09996L63.2163 6.79004L53.4631 14.8449V11.864H50.4626V11.8622Z" fill="white"/>
<path d="M11.6339 67.3988C11.0158 67.2063 10.3674 67.1615 9.72099 67.1634C9.59095 67.4717 9.46467 67.782 9.34971 68.0959C9.21966 68.451 9.10281 68.8098 9.00104 69.1743C8.95392 69.3462 8.90115 69.52 8.871 69.6957C8.86158 69.7536 8.86911 69.8471 8.85215 69.9031C8.85215 69.9199 8.85215 69.9368 8.85404 69.9536C8.96523 70.0246 9.06324 70.1311 9.08585 70.2526C9.11224 70.389 9.03497 70.5161 8.87665 70.46C8.19063 70.2152 8.20194 69.5705 8.35271 68.978C8.50725 68.365 8.71457 67.7651 8.95016 67.1783C8.07943 67.2063 7.2087 67.2848 6.34929 67.4213C6.14197 67.453 5.93466 67.4904 5.72923 67.5278C4.75673 68.8136 3.91993 70.1965 3.23013 71.6524C3.09444 71.9402 2.52903 71.4674 2.644 71.2263C3.21694 70.0171 3.88977 68.8547 4.65496 67.7577C3.51472 68.0324 2.3971 68.3968 1.31341 68.8491C1.06274 68.9537 0.593458 68.3875 0.883699 68.2679C2.28591 67.6829 3.74654 67.2437 5.23921 66.9597C5.5483 66.5541 5.87058 66.1579 6.20605 65.7729C6.91658 64.9581 7.68176 64.1919 8.49972 63.4817C9.3384 62.7528 10.2317 62.0034 11.2759 61.581C11.4474 61.5119 11.6943 61.7418 11.7508 61.8782C12.0335 62.5472 11.5397 63.2855 11.2608 63.8872C10.9404 64.5806 10.6011 65.2627 10.2751 65.9523C10.1752 66.1616 10.0772 66.3728 9.98296 66.5821C10.4881 66.6083 10.9894 66.6737 11.4737 66.8251C11.6283 66.8737 11.8168 67.0288 11.8469 67.1951C11.8695 67.3334 11.7923 67.4474 11.6339 67.3988ZM10.2845 64.2741C10.4579 63.9134 10.6294 63.5508 10.7953 63.1845C10.8857 62.9846 10.9743 62.7827 11.061 62.579C11.0798 62.536 11.1025 62.4874 11.1251 62.4351C10.326 62.8706 9.61545 63.4835 8.94073 64.076C8.15482 64.7656 7.4179 65.5075 6.73188 66.2943C6.59241 66.4551 6.45671 66.6158 6.32102 66.7802C7.15782 66.6644 7.99839 66.5934 8.84273 66.5728C8.96335 66.5709 9.08585 66.5672 9.20647 66.5672C9.54572 65.7916 9.91888 65.0347 10.2845 64.2741Z" fill="white"/>
<path d="M16.5262 67.417C16.0795 67.8748 15.6196 68.3588 15.0825 68.7139C14.83 68.8802 14.5605 69.0204 14.2702 68.8503C13.963 68.6672 13.8782 68.3476 13.9253 68.0169C13.9272 68.0019 13.931 67.9888 13.9329 67.9739C13.571 68.3009 13.1978 68.6111 12.7813 68.8596C12.4044 69.0839 11.9954 69.1792 11.6901 68.7812C11.2867 68.2523 11.805 67.3292 12.1688 66.9068C12.3516 66.6957 12.8869 67.2096 12.6965 67.4301C12.5344 67.6188 12.4176 67.8468 12.3177 68.0729C12.2762 68.1664 12.2385 68.2635 12.2084 68.3607C12.3968 68.2635 12.5702 68.1327 12.7361 68.0056C13.2902 67.5814 13.7858 67.0862 14.306 66.6209C14.519 66.4303 14.9317 66.8769 14.8639 67.0956C14.7602 67.4226 14.6641 67.7534 14.585 68.0879C14.5774 68.1196 14.5718 68.1533 14.5661 68.185C15.0411 68.0785 15.8062 67.4245 16.1719 67.0489C16.3716 66.847 16.7278 67.2133 16.5262 67.417Z" fill="white"/>
<path d="M22.1722 64.567C22.1571 64.7296 22.0026 64.739 21.8763 64.6736C21.2826 64.3633 20.6211 64.2998 19.9615 64.2568C19.3131 64.2157 18.6629 64.2008 18.0127 64.212C18.0014 64.212 17.9901 64.212 17.9788 64.212C16.9818 66.3929 16.145 68.6711 16.1845 71.0912C16.1902 71.4482 15.5833 71.0445 15.5796 70.7866C15.5419 68.4879 16.2712 66.3219 17.1872 64.24C16.0978 64.2979 15.0142 64.4306 13.9418 64.6362C13.6704 64.6885 13.2293 64.1073 13.5121 64.0531C14.8163 63.8027 16.1393 63.6532 17.468 63.6158C17.7074 63.0944 17.9561 62.5786 18.2049 62.0684C18.3444 61.7806 18.9079 62.2553 18.7911 62.4945C18.6139 62.8608 18.4349 63.2308 18.2596 63.6027C19.4639 63.5878 20.8001 63.599 21.8631 64.154C21.995 64.225 22.1892 64.4026 22.1722 64.567Z" fill="white"/>
<path d="M23.3424 67.4461C22.6545 67.8329 21.9458 68.3338 21.1882 68.5824C20.7622 68.7225 20.2703 68.5244 20.2232 68.0292C20.2025 67.8049 20.2892 67.5676 20.3646 67.3601C20.4192 67.2106 20.4814 67.0611 20.5248 66.9078C19.6107 67.4143 18.7796 68.074 18.0785 68.844C17.9936 68.9356 17.8165 68.8515 17.743 68.7935C17.2473 68.4085 17.3208 67.9264 17.5093 67.3956C17.7392 66.7434 17.9955 66.1024 18.2801 65.4726C18.8568 64.1942 19.5466 62.9701 20.3288 61.8058C20.4758 61.5872 21.0223 62.0824 20.8565 62.3291C20.1968 63.3103 19.6088 64.3363 19.0981 65.4015C18.8436 65.9342 18.6081 66.4743 18.3932 67.0237C18.299 67.2648 18.2085 67.5078 18.1218 67.7507C18.6891 67.2293 19.3167 66.777 19.9876 66.3883C20.3231 66.1939 20.619 66.05 20.9394 66.3491C21.192 66.5845 21.2052 66.9041 21.1373 67.2199C21.0845 67.4722 20.9658 67.7077 20.8885 67.9544C21.6273 67.732 22.4189 67.39 23.071 67.0218C23.3028 66.891 23.6251 67.2872 23.3424 67.4461Z" fill="white"/>
<path d="M26.3942 67.425C25.4952 68.006 24.5529 68.6747 23.5314 69.0352C23.1563 69.1678 22.7699 69.1921 22.5042 68.8409C22.0933 68.2955 22.6248 67.496 22.998 67.0907C23.3353 66.7227 23.9347 66.3117 24.3814 66.7768C25.024 67.4437 23.5106 68.0246 23.1016 68.217C23.0998 68.217 23.0998 68.217 23.0979 68.2189C23.0621 68.3011 23.0319 68.3852 23.0093 68.473C23.6859 68.3852 25.3293 67.5838 26.0022 67.0682C26.2396 66.8871 26.6147 67.2831 26.3942 67.425Z" fill="white"/>
<path d="M30.8353 67.4397C30.2454 67.7144 29.6932 68.0545 29.1391 68.3946C28.796 68.6058 28.4135 68.9066 28.0139 68.9982C27.62 69.0898 27.2506 68.716 27.3109 68.3292C27.3467 68.105 27.4353 67.8807 27.5484 67.6621C26.9001 68.0171 26.3252 68.4881 25.8428 69.0636C25.6524 69.2897 25.234 68.7908 25.2849 68.589C25.4319 68.0134 25.7089 67.4602 26.003 66.9426C26.1632 66.6604 26.7191 67.1426 26.5891 67.3687C26.5816 67.3818 26.574 67.3967 26.5665 67.4098C27.0772 67.0622 27.6389 66.7912 28.2344 66.6062C28.4851 66.5278 28.8564 66.9277 28.7131 67.1594C28.5152 67.4808 28.3437 67.8041 28.1798 68.133C28.9694 67.7406 29.8307 67.3892 30.611 67.0248C30.856 66.9108 31.1236 67.3051 30.8353 67.4397Z" fill="white"/>
<path d="M36.614 64.567C36.5989 64.7296 36.4444 64.739 36.3181 64.6736C35.7244 64.3633 35.0629 64.2998 34.4033 64.2568C33.7549 64.2157 33.1047 64.2008 32.4545 64.212C32.4432 64.212 32.4319 64.212 32.4206 64.212C31.4236 66.3929 30.5868 68.6711 30.6264 71.0912C30.632 71.4482 30.0251 71.0445 30.0214 70.7866C29.9837 68.4879 30.7131 66.3219 31.629 64.24C30.5397 64.2979 29.456 64.4306 28.3836 64.6362C28.1122 64.6885 27.6712 64.1073 27.9539 64.0531C29.2581 63.8027 30.5811 63.6532 31.9098 63.6158C32.1492 63.0944 32.398 62.5786 32.6467 62.0684C32.7862 61.7806 33.3497 62.2553 33.2329 62.4945C33.0557 62.8608 32.8767 63.2308 32.7014 63.6027C33.9057 63.5878 35.2419 63.599 36.3049 64.154C36.4368 64.225 36.6309 64.4026 36.614 64.567Z" fill="white"/>
<path d="M34.6653 67.4221C34.2959 67.7323 33.9115 68.0257 33.5119 68.2929C33.1896 68.5096 32.8221 68.7731 32.4339 68.8515C31.991 68.9394 31.5669 68.5302 31.5575 68.0948C31.5462 67.5959 31.925 67.0242 32.17 66.6056C32.334 66.3253 32.8881 66.8074 32.7562 67.0316C32.562 67.3624 32.3924 67.6893 32.2567 68.0481C32.2379 68.0967 32.2209 68.1453 32.2039 68.1938C32.6657 68.1116 33.7569 67.5324 34.2865 67.0877C34.5089 66.899 34.8783 67.2428 34.6653 67.4221ZM32.726 65.4827C32.8749 64.9987 33.0709 64.5372 33.3159 64.0944C33.4723 63.8122 34.0302 64.2906 33.9039 64.5204C33.6589 64.9632 33.4629 65.4247 33.314 65.9087C33.2254 66.1983 32.6468 65.7424 32.726 65.4827Z" fill="white"/>
<path d="M38.0577 67.4461C37.3792 67.7414 36.7026 68.0366 36.0241 68.3319C35.4983 68.5617 34.833 68.9429 34.2752 68.5954C33.2499 67.9581 34.311 65.9829 35.4116 66.6276C35.5398 66.7024 35.7358 66.8668 35.7188 67.0387C35.7038 67.1957 35.5473 67.2181 35.4229 67.1453C34.9913 66.893 34.6559 67.5078 34.5409 67.8217C34.4372 68.1076 34.539 68.1338 34.5805 68.1301C35.1138 68.0833 37.0174 67.4087 37.8335 67.0537C38.0822 66.9453 38.348 67.3209 38.0577 67.4461Z" fill="white"/>
<path d="M44.5017 68.9129C44.4131 68.997 44.3227 69.0811 44.2266 69.1633C44.2454 69.8473 44.6204 70.4958 45.3046 70.7313C45.4591 70.7855 45.6457 70.9294 45.6778 71.1013C45.7041 71.2396 45.6287 71.3629 45.4685 71.3088C44.6544 71.0266 43.9834 70.3482 43.729 69.5389C43.3766 69.7688 42.9883 69.9389 42.5718 69.9819C41.8349 70.0603 41.1847 69.595 40.9171 68.9297C40.6362 68.2363 40.7531 67.4365 40.8926 66.7244C41.1885 65.2312 41.9178 63.8408 42.9582 62.7269C43.173 62.4279 43.4237 62.1662 43.712 61.985C44.4508 61.5177 45.3705 62.0149 45.8116 62.6578C46.6559 63.8912 46.3732 65.7713 45.7965 67.0533C45.4855 67.7448 45.0464 68.3858 44.5017 68.9129ZM45.2499 66.5375C45.4931 65.9713 45.6533 65.3639 45.6966 64.749C45.7418 64.1398 45.7362 63.4072 45.4214 62.8615C45.2537 62.5718 44.9522 62.3774 44.6073 62.3999C44.2774 62.4204 44.0305 62.6447 43.8213 62.8783C43.8157 62.9044 43.8025 62.9287 43.7799 62.9493C43.7422 62.9867 43.7064 63.0241 43.6687 63.0614C43.2635 63.5679 42.9657 64.1454 42.764 64.7602C42.715 64.9116 42.536 64.8593 42.3852 64.7397C42.0196 65.377 41.7407 66.0628 41.5616 66.7805C41.4108 67.386 41.2808 68.0644 41.3807 68.6886C41.4316 69.0044 41.5447 69.3016 41.8896 69.3782C42.1949 69.4455 42.5303 69.3408 42.8074 69.2212C43.0957 69.096 43.3671 68.9259 43.6197 68.726C43.6216 68.6755 43.6253 68.6232 43.631 68.5727C43.6498 68.4064 43.7818 68.4008 43.9175 68.4681C44.4979 67.9224 44.9559 67.2215 45.2499 66.5375Z" fill="white"/>
<path d="M51.0247 67.417C50.578 67.8748 50.1182 68.3588 49.581 68.7139C49.3285 68.8802 49.059 69.0204 48.7687 68.8503C48.4615 68.6672 48.3767 68.3476 48.4238 68.0169C48.4257 68.0019 48.4295 67.9888 48.4314 67.9739C48.0695 68.3009 47.6964 68.6111 47.2798 68.8596C46.9029 69.0839 46.4939 69.1792 46.1886 68.7812C45.7853 68.2523 46.3036 67.3292 46.6673 66.9068C46.8501 66.6957 47.3854 67.2096 47.195 67.4301C47.0329 67.6188 46.9161 67.8468 46.8162 68.0729C46.7747 68.1664 46.737 68.2635 46.7069 68.3607C46.8954 68.2635 47.0688 68.1327 47.2346 68.0056C47.7887 67.5814 48.2844 67.0862 48.8045 66.6209C49.0175 66.4303 49.4303 66.8769 49.3624 67.0956C49.2588 67.4226 49.1626 67.7534 49.0835 68.0879C49.0759 68.1196 49.0703 68.1533 49.0646 68.185C49.5396 68.0785 50.3048 67.4245 50.6704 67.0489C50.8702 66.847 51.2264 67.2133 51.0247 67.417Z" fill="white"/>
<path d="M55.3771 67.4153C54.8588 67.8806 54.3236 68.344 53.7205 68.6991C53.4416 68.8635 53.108 69.0429 52.7725 69.0037C52.4333 68.9644 52.1487 68.6897 52.0507 68.372C51.9866 68.1609 52.0167 67.9665 52.077 67.7759C51.4702 68.1739 50.967 68.7589 50.2772 69.0279C50.0359 69.1214 49.7193 68.742 49.7683 68.5234C49.9191 67.8525 50.2885 67.1574 50.8539 66.7388C51.3024 66.408 51.8848 66.4884 52.2033 66.907C52.2655 66.8845 52.3296 66.864 52.3937 66.849C52.471 66.8303 52.5614 66.8621 52.6481 66.9219C52.7819 67.0097 52.9044 67.1518 52.912 67.2695C52.9214 67.3087 52.9195 67.3442 52.9044 67.3723C52.8818 67.5498 52.8215 67.7161 52.7612 67.888C52.6971 68.0637 52.6688 68.2281 52.6349 68.4001C52.6443 68.3982 52.6519 68.3963 52.6613 68.3963C53.3436 68.316 54.5479 67.4227 54.9757 67.0378C55.1905 66.8453 55.5863 67.2284 55.3771 67.4153ZM51.768 67.1181C51.7642 67.1181 51.7623 67.1163 51.7585 67.1163C51.7152 67.1237 51.6718 67.1312 51.6285 67.1387C51.5022 67.1686 51.3929 67.2545 51.2949 67.3368C51.1422 67.4638 51.0066 67.6189 50.8859 67.7759C50.8803 67.7815 50.8765 67.7871 50.8727 67.7946C51.163 67.5573 51.4495 67.3087 51.768 67.1181Z" fill="white"/>
<path d="M57.9899 67.4164C57.4716 67.9715 56.7291 68.4518 55.9978 68.6742C55.651 68.7788 55.3137 68.8405 55.0555 68.5378C54.7878 68.2219 54.7539 67.8388 54.835 67.4463C54.9443 66.9193 55.161 66.3998 55.3363 65.8896C55.521 65.3532 55.7113 64.8206 55.9073 64.2898C56.3144 63.1872 56.7498 62.0939 57.2078 61.0099C57.3303 60.7203 57.8995 61.1893 57.7939 61.436C57.2926 62.6209 56.8214 63.8151 56.3804 65.0224C56.1637 65.6167 55.9545 66.211 55.7528 66.8109C55.6548 67.1043 55.3438 67.7267 55.3834 68.1397C56.2202 68.0201 57.3303 67.4351 57.645 67.0987C57.8391 66.8932 58.1859 67.2071 57.9899 67.4164Z" fill="white"/>
<path d="M60.1324 67.4221C59.763 67.7323 59.3785 68.0257 58.979 68.2929C58.6567 68.5096 58.2892 68.7731 57.9009 68.8515C57.458 68.9394 57.034 68.5302 57.0245 68.0948C57.0132 67.5959 57.3921 67.0242 57.6371 66.6056C57.801 66.3253 58.3551 66.8074 58.2232 67.0316C58.0291 67.3624 57.8595 67.6893 57.7238 68.0481C57.7049 68.0967 57.688 68.1453 57.671 68.1938C58.1327 68.1116 59.224 67.5324 59.7536 67.0877C59.976 66.899 60.3435 67.2428 60.1324 67.4221ZM58.1931 65.4827C58.3419 64.9987 58.538 64.5372 58.783 64.0944C58.9394 63.8122 59.4973 64.2906 59.371 64.5204C59.126 64.9632 58.93 65.4247 58.7811 65.9087C58.6906 66.1983 58.112 65.7424 58.1931 65.4827Z" fill="white"/>
<path d="M65.7882 64.567C65.7731 64.7296 65.6185 64.739 65.4923 64.6736C64.8986 64.3633 64.2371 64.2998 63.5774 64.2568C62.9291 64.2157 62.2789 64.2008 61.6287 64.212C61.6173 64.212 61.606 64.212 61.5947 64.212C60.5977 66.3929 59.7609 68.6711 59.8005 71.0912C59.8062 71.4482 59.2012 71.0445 59.1955 70.7866C59.1578 68.4879 59.8872 66.3219 60.8032 64.24C59.7138 64.2979 58.6301 64.4306 57.5577 64.6362C57.2863 64.6885 56.8453 64.1073 57.128 64.0531C58.4322 63.8027 59.7553 63.6532 61.084 63.6158C61.3233 63.0944 61.5721 62.5786 61.8209 62.0684C61.9604 61.7806 62.5239 62.2553 62.407 62.4945C62.2299 62.8608 62.0508 63.2308 61.8755 63.6027C63.0799 63.5878 64.4161 63.599 65.4791 64.154C65.611 64.225 65.8051 64.4026 65.7882 64.567Z" fill="white"/>
<path d="M66.5439 67.4677C65.4979 68.0844 64.5574 68.903 63.6886 69.7495C63.093 70.9699 62.3731 72.1305 61.5419 73.2144C61.3836 73.42 61.0255 73.007 60.9878 72.8724C60.7881 72.1567 61.1612 71.5063 61.5853 70.9494C61.9585 70.4597 62.3825 70.0056 62.8179 69.5683C62.9234 69.4617 63.0308 69.3552 63.1402 69.2506C63.4002 68.7142 63.6358 68.1666 63.845 67.6078C63.5981 67.8022 63.3437 67.9891 63.0817 68.161C62.5126 68.5385 61.8963 68.9553 61.2046 68.6488C61.0727 68.5908 60.8823 68.3984 60.8974 68.2395C60.9502 67.6415 61.1631 67.107 61.5419 66.6379C61.7153 66.423 62.2544 66.9332 62.0697 67.1612C61.8284 67.4583 61.6569 67.7947 61.5683 68.1573C61.7794 68.1105 61.9886 67.9891 62.1526 67.8938C62.4278 67.733 62.6916 67.5536 62.9479 67.3686C63.4455 67.0079 63.9091 66.6061 64.3445 66.1725C64.5499 65.967 64.9645 66.436 64.9023 66.6472C64.7572 67.1387 64.5914 67.6246 64.4086 68.1031C64.9495 67.6545 65.6468 67.3424 66.2292 67.0247C66.4553 66.8976 66.8247 67.3032 66.5439 67.4677Z" fill="white"/>
<defs>
<linearGradient id="paint0_linear_1676_12196" x1="62.892" y1="6.82432" x2="35.1354" y2="31.8602" gradientUnits="userSpaceOnUse">
<stop stop-color="#A4D233"/>
<stop offset="0.1107" stop-color="#A4D233"/>
<stop offset="1" stop-color="#025F1D"/>
</linearGradient>
</defs>
</svg>
