<svg width="35" height="35" viewBox="0 0 35 35" fill="none" xmlns="http://www.w3.org/2000/svg">
<path d="M6.03963 0.91787C4.8872 1.36613 3.9126 1.96381 2.93801 2.93861C1.96341 3.90628 1.36585 4.88819 0.917683 6.03375C0.48374 7.14373 0.192073 8.41736 0.106707 10.2816C0.0213415 12.1458 0 12.7434 0 17.4964C0 22.2494 0.0213415 22.8471 0.106707 24.7113C0.192073 26.5755 0.490854 27.8492 0.917683 28.9591C1.36585 30.1118 1.96341 31.0866 2.93801 32.0614C3.9126 33.0362 4.8872 33.6339 6.03963 34.0821C7.14939 34.5162 8.42276 34.8079 10.2866 34.8933C12.1504 34.9787 12.748 35 17.5 35C22.252 35 22.8496 34.9787 24.7134 34.8933C26.5772 34.8079 27.8506 34.509 28.9604 34.0821C30.1128 33.6339 31.0874 33.0362 32.062 32.0614C33.0366 31.0866 33.6341 30.1118 34.0823 28.9591C34.5163 27.8492 34.8079 26.5755 34.8933 24.7113C34.9787 22.8471 35 22.2494 35 17.4964C35 12.7434 34.9787 12.1458 34.8933 10.2816C34.8079 8.41736 34.5091 7.14373 34.0823 6.03375C33.6341 4.88819 33.0366 3.90628 32.0691 2.93861C31.0945 1.96381 30.1199 1.36613 28.9675 0.91787C27.8577 0.483838 26.5843 0.192112 24.7205 0.106729C22.8567 0.0213458 22.2591 0 17.5071 0C12.7551 0 12.1575 0.0213458 10.2937 0.106729C8.42276 0.184997 7.14939 0.483838 6.03963 0.91787ZM24.5711 3.25168C26.2785 3.32995 27.2033 3.61456 27.8222 3.85647C28.6402 4.17666 29.2236 4.55377 29.8354 5.16568C30.4472 5.7776 30.8242 6.36105 31.1443 7.1793C31.3862 7.79833 31.6707 8.72332 31.749 10.431C31.8343 12.2738 31.8486 12.8288 31.8486 17.5036C31.8486 22.1783 31.8272 22.7333 31.749 24.5761C31.6707 26.2838 31.3862 27.2088 31.1443 27.8278C30.8242 28.6461 30.4472 29.2295 29.8354 29.8414C29.2236 30.4533 28.6402 30.8305 27.8222 31.1506C27.2033 31.3926 26.2785 31.6772 24.5711 31.7554C22.7287 31.8408 22.1738 31.8551 17.5 31.8551C12.8262 31.8551 12.2713 31.8337 10.4289 31.7554C8.72155 31.6772 7.79675 31.3926 7.17785 31.1506C6.35976 30.8305 5.77642 30.4533 5.16463 29.8414C4.55285 29.2295 4.17581 28.6461 3.85569 27.8278C3.61382 27.2088 3.32927 26.2838 3.25102 24.5761C3.16565 22.7333 3.15142 22.1783 3.15142 17.5036C3.15142 12.8288 3.17276 12.2738 3.25102 10.431C3.32927 8.72332 3.61382 7.79833 3.85569 7.1793C4.17581 6.36105 4.55285 5.7776 5.16463 5.16568C5.77642 4.55377 6.35976 4.17666 7.17785 3.85647C7.79675 3.61456 8.72155 3.32995 10.4289 3.25168C12.2713 3.16629 12.8262 3.15206 17.5 3.15206C22.1738 3.15206 22.7287 3.16629 24.5711 3.25168Z" fill="#115C07"/>
<path d="M8.51538 17.5032C8.51538 22.4696 12.5418 26.4897 17.5 26.4897C22.4583 26.4897 26.4847 22.4625 26.4847 17.5032C26.4847 12.5438 22.4654 8.5166 17.5 8.5166C12.5346 8.5166 8.51538 12.5367 8.51538 17.5032ZM23.3333 17.5032C23.3333 20.7264 20.7226 23.3377 17.5 23.3377C14.2775 23.3377 11.6668 20.7264 11.6668 17.5032C11.6668 14.28 14.2775 11.6687 17.5 11.6687C20.7226 11.6687 23.3333 14.28 23.3333 17.5032Z" fill="#115C07"/>
<path d="M26.8469 10.2598C28.0059 10.2598 28.9454 9.32002 28.9454 8.16077C28.9454 7.00152 28.0059 6.06177 26.8469 6.06177C25.6879 6.06177 24.7483 7.00152 24.7483 8.16077C24.7483 9.32002 25.6879 10.2598 26.8469 10.2598Z" fill="#115C07"/>
</svg>
