<svg width="70" height="62" viewBox="0 0 70 62" fill="none" xmlns="http://www.w3.org/2000/svg">
<path d="M67.9 46.9433C69.27 43.8138 69.96 40.4843 69.96 37.0248C69.96 23.7167 59.44 12.8183 46.23 12.2084C41.77 4.64948 33.69 0.000152588 24.86 0.000152588C11.15 0.000152588 0 11.1485 0 24.8565C0 28.356 0.71 31.7255 2.12 34.8851L0.03 47.3733C-0.08 48.0132 0.13 48.6531 0.58 49.113C0.96 49.493 1.47 49.7029 2 49.7029C2.11 49.7029 2.21 49.6929 2.32 49.6729L14.94 47.6432C17.71 48.853 20.66 49.5329 23.74 49.6729C28.21 57.2218 36.28 61.8712 45.11 61.8712C48.61 61.8712 51.98 61.1613 55.14 59.7515L67.63 61.8412C67.74 61.8611 67.85 61.8712 67.96 61.8712C68.48 61.8712 68.99 61.6612 69.37 61.2912C69.83 60.8413 70.04 60.1914 69.93 59.5515L67.9 46.9433ZM15.21 43.5738C15.1 43.5738 15 43.5838 14.89 43.6038L4.43 45.2836L6.16 34.9351C6.23 34.5351 6.17 34.1152 5.99 33.7452C4.67 30.9656 3.99 27.9761 3.99 24.8565C4 13.3582 13.36 3.99957 24.86 3.99957C32.61 3.99957 39.67 8.25895 43.29 15.108C44.89 18.1375 45.71 21.417 45.71 24.8565C45.71 25.4964 45.67 26.1364 45.61 26.7663C45.59 26.9962 45.56 27.2162 45.53 27.4462C45.48 27.8261 45.43 28.196 45.36 28.566C45.29 28.9359 45.21 29.2959 45.13 29.6558C45.04 30.0258 44.96 30.3857 44.85 30.7457C44.77 31.0156 44.68 31.2856 44.59 31.5556C44.45 31.9655 44.31 32.3754 44.14 32.7754C44.05 32.9953 43.94 33.2153 43.84 33.4353C43.65 33.8452 43.47 34.2552 43.25 34.6551C43.12 34.8851 42.98 35.115 42.85 35.345C40.61 39.1645 37.21 42.224 33.11 43.9938C33.03 44.0237 32.96 44.0637 32.88 44.0937C32.36 44.3137 31.83 44.5037 31.29 44.6836C31.05 44.7136 30.82 44.7736 30.61 44.8836C30.21 44.9936 29.81 45.1036 29.4 45.1936C29.24 45.2336 29.08 45.2636 28.92 45.3036C28.37 45.4135 27.81 45.5035 27.24 45.5635C27.07 45.5835 26.9 45.5935 26.73 45.6135C26.15 45.6635 25.57 45.7035 24.98 45.7035C24.94 45.7035 24.9 45.7035 24.86 45.7035C21.77 45.7035 18.81 45.0536 16.06 43.7638C15.79 43.6338 15.5 43.5738 15.21 43.5738ZM63.86 46.9833L65.55 57.4418L55.2 55.712C54.8 55.6421 54.38 55.702 54.01 55.882C51.23 57.2018 48.24 57.8817 45.12 57.8817C38.45 57.8817 32.28 54.7222 28.38 49.463C28.47 49.453 28.56 49.423 28.64 49.413C29.22 49.323 29.8 49.213 30.37 49.083C30.49 49.053 30.61 49.033 30.73 49.003C31.15 48.903 31.57 48.7831 31.99 48.6631H56.44C57.54 48.6631 58.44 47.7632 58.44 46.6634C58.44 45.5635 57.54 44.6637 56.44 44.6637H39.86C41.81 43.1839 43.54 41.4141 45.01 39.3844H56.43C57.53 39.3844 58.43 38.4846 58.43 37.3847C58.43 36.2849 57.53 35.385 56.43 35.385H47.37C48.11 33.8152 48.68 32.1755 49.06 30.4757H56.42C57.52 30.4757 58.42 29.5758 58.42 28.476C58.42 27.3762 57.52 26.4763 56.42 26.4763H49.64C49.68 25.9364 49.7 25.3965 49.7 24.8565C49.7 24.2066 49.67 23.5567 49.62 22.9168C49.61 22.7368 49.59 22.5669 49.57 22.3869C49.52 21.857 49.45 21.327 49.36 20.7971C49.34 20.6771 49.33 20.5672 49.31 20.4472C49.2 19.8273 49.06 19.2174 48.9 18.6074C48.86 18.4475 48.81 18.2975 48.77 18.1475C48.63 17.6676 48.48 17.1777 48.32 16.7077C48.29 16.6077 48.26 16.5077 48.22 16.4078C58.24 17.9175 65.94 26.5863 65.94 37.0248C65.94 40.1143 65.29 43.0739 64 45.8235C63.85 46.1834 63.79 46.5834 63.86 46.9833Z" fill="white"/>
<path d="M24.91 15.5979C26.62 15.5979 28.01 16.9877 28.01 18.6974C28.01 20.4072 26.62 21.797 24.91 21.797C23.81 21.797 22.91 22.6969 22.91 23.7967V31.6156C22.91 32.7154 23.81 33.6153 24.91 33.6153C26.01 33.6153 26.91 32.7154 26.91 31.6156V25.4964C29.86 24.6266 32.01 21.907 32.01 18.6874C32.01 14.768 28.82 11.5885 24.91 11.5885C21 11.5885 17.81 14.778 17.81 18.6874C17.81 19.7873 18.71 20.6871 19.81 20.6871C20.91 20.6871 21.81 19.7873 21.81 18.6874C21.81 16.9877 23.2 15.5979 24.91 15.5979Z" fill="white"/>
<path d="M24.91 38.9051C26.1637 38.9051 27.18 37.8888 27.18 36.6351C27.18 35.3815 26.1637 34.3651 24.91 34.3651C23.6563 34.3651 22.64 35.3815 22.64 36.6351C22.64 37.8888 23.6563 38.9051 24.91 38.9051Z" fill="white"/>
</svg>
