<svg width="25" height="28" viewBox="0 0 25 28" fill="none" xmlns="http://www.w3.org/2000/svg">
<path d="M12.0568 15.5033C12.0843 15.9646 12.2912 16.3893 12.623 16.6657C12.9364 16.9683 13.0954 17.4244 13.0477 17.8839L12.9894 18.4465L12.9853 18.4512C7.88911 24.7049 2.68055 28.2851 0.961022 26.5601C-0.188109 25.4116 0.490544 22.1615 2.46405 18.1443L2.46821 18.1489C3.16306 18.954 3.95477 19.6472 4.8206 20.2087C5.1021 20.3888 5.43698 20.4335 5.74858 20.3327C6.06017 20.2319 6.32178 19.9942 6.47352 19.674C6.80359 19.0035 6.59711 18.1615 6.00721 17.7723C5.16505 17.2248 4.41422 16.5185 3.78805 15.6846C4.2502 14.8896 4.74982 14.0759 5.29108 13.2575C5.77776 13.9783 6.32573 14.6447 6.92734 15.2476C7.25642 15.5764 7.60111 15.8853 7.95989 16.1728C8.22433 16.3822 8.55352 16.4628 8.87215 16.3962C9.19077 16.3296 9.47156 16.1215 9.65028 15.8195C10.0309 15.1842 9.895 14.3267 9.34218 13.8759C8.36624 13.0932 7.52667 12.1178 6.86489 10.9978C7.05225 10.7374 7.24793 10.4724 7.44778 10.212C7.70592 9.87262 7.96406 9.53785 8.22636 9.21238C8.71326 10.0576 9.29849 10.8268 9.96671 11.5C10.2615 11.7963 10.5731 12.0711 10.8993 12.323C11.1672 12.53 11.4992 12.6058 11.8183 12.533C12.1374 12.4601 12.4161 12.2448 12.5897 11.937C12.9621 11.2961 12.813 10.4409 12.2525 10.0028C11.301 9.25825 10.5183 8.27592 9.96671 7.134C10.4164 6.61789 10.866 6.12968 11.3157 5.66007C11.6808 6.28645 12.1175 6.85696 12.6147 7.35718C12.9547 7.69873 13.3227 8.00385 13.7139 8.2685C13.9913 8.45566 14.3249 8.50887 14.6382 8.41593C14.9514 8.32299 15.2174 8.09189 15.3751 7.77565C15.7175 7.11233 15.5279 6.26536 14.9463 5.86001C14.2185 5.35881 13.6134 4.66388 13.1851 3.83743C16.5576 0.768682 19.4554 -0.612253 20.6545 0.591996C22.1492 2.08917 20.5587 7.1247 17.0447 12.7693C14.1968 13.0297 12.0568 14.1549 12.0568 15.5033V15.5033Z" fill="#F29C1F"/>
<path d="M15.3748 7.7706C15.2171 8.0866 14.9511 8.31752 14.6379 8.41039C14.3246 8.50325 13.991 8.45008 13.7136 8.26308C13.3224 7.99862 12.9544 7.69375 12.6144 7.35246C12.1172 6.85263 11.6805 6.28256 11.3154 5.65668C11.9483 4.99695 12.577 4.38832 13.1848 3.83545C13.6131 4.66126 14.2182 5.35565 14.946 5.85645C15.5276 6.26149 15.7172 7.1078 15.3748 7.7706V7.7706Z" fill="#E57E25"/>
<path d="M12.5893 11.9374C12.4157 12.2451 12.1371 12.4604 11.8179 12.5333C11.4988 12.6061 11.1669 12.5303 10.899 12.3233C10.5727 12.0715 10.2612 11.7966 9.96639 11.5003C9.29818 10.8271 8.71296 10.0579 8.22607 9.21267C8.80063 8.48267 9.38351 7.78988 9.96639 7.13428C10.518 8.2762 11.3006 9.25855 12.2521 10.0031C12.8126 10.4412 12.9617 11.2964 12.5893 11.9374V11.9374Z" fill="#E57E25"/>
<path d="M9.6502 15.8197C9.47149 16.1217 9.19069 16.3298 8.87207 16.3964C8.55345 16.463 8.22426 16.3824 7.95982 16.1731C7.60103 15.8855 7.25635 15.5767 6.92727 15.2478C6.32566 14.6449 5.77769 13.9785 5.29102 13.2578C5.78231 12.5092 6.30691 11.7559 6.86482 10.998C7.5266 12.118 8.36617 13.0934 9.3421 13.8762C9.89492 14.3269 10.0309 15.1844 9.6502 15.8197V15.8197Z" fill="#E57E25"/>
<path d="M6.47331 19.6718C6.32157 19.9917 6.05996 20.2293 5.74837 20.33C5.43678 20.4307 5.1019 20.386 4.8204 20.2061C3.95457 19.645 3.16287 18.9523 2.46803 18.1479L2.46387 18.1433C2.85524 17.3534 3.29657 16.5265 3.78786 15.6855C4.41403 16.5187 5.16485 17.2245 6.007 17.7716C6.5969 18.1604 6.80337 19.0018 6.47331 19.6718Z" fill="#E57E25"/>
<path d="M16.544 10.5219C16.3934 10.5216 16.2548 10.4306 16.1814 10.2841C16.1079 10.1375 16.1111 9.95818 16.1896 9.81497C16.8558 8.59668 17.2176 7.81778 17.2205 7.80849C17.3252 7.57994 17.5762 7.48937 17.7811 7.60622C17.986 7.72306 18.0672 8.00306 17.9624 8.23162C17.947 8.26413 17.5877 9.04814 16.8995 10.2994C16.8239 10.4376 16.6891 10.522 16.544 10.5219Z" fill="white"/>
<path d="M24.3806 25.5658C24.4235 25.9622 24.3122 26.3601 24.075 26.6588C23.8378 26.9575 23.4974 27.1283 23.1399 27.1281H13.4639C13.1064 27.1283 12.7659 26.9575 12.5287 26.6588C12.2915 26.3601 12.1803 25.9622 12.2232 25.5658L12.9851 18.452L12.9893 18.4473L13.0476 17.8847C13.0952 17.4252 12.9362 16.9691 12.6229 16.6665C12.291 16.3901 12.0841 15.9654 12.0566 15.5041C12.0566 14.1557 14.1967 13.0305 17.0445 12.7702C17.4484 12.733 17.8689 12.7144 18.3019 12.7144C21.7493 12.7144 24.5471 13.9651 24.5471 15.5041C24.5197 15.9654 24.3127 16.3901 23.9809 16.6665C23.6675 16.9691 23.5085 17.4252 23.5562 17.8847L24.3806 25.5658Z" fill="#F9EAB0"/>
<path d="M23.1401 27.5932H13.4642C12.9878 27.5934 12.5342 27.3658 12.218 26.9678C11.9017 26.5699 11.7533 26.0398 11.8101 25.5116L12.572 18.3977C12.5741 18.3781 12.5774 18.3586 12.582 18.3396L12.6344 17.8323C12.6659 17.5239 12.5588 17.2181 12.3484 17.0154C11.9255 16.6519 11.6667 16.0995 11.6406 15.5042C11.6406 13.8857 13.799 12.6006 17.0115 12.3072C17.4241 12.269 17.8588 12.2495 18.3022 12.2495C22.0997 12.2495 24.9637 13.6486 24.9637 15.5042C24.9378 16.0999 24.6791 16.6529 24.256 17.0167C24.0464 17.2182 23.9394 17.5221 23.9699 17.829L24.7943 25.5106C24.8514 26.039 24.703 26.5694 24.3868 26.9675C24.0705 27.3657 23.6167 27.5934 23.1401 27.5932ZM13.393 18.5623L12.6374 25.6213C12.6086 25.8856 12.6827 26.1509 12.8408 26.3501C12.9989 26.5493 13.2259 26.6634 13.4642 26.6633H23.1401C23.3785 26.6634 23.6055 26.5493 23.7636 26.3501C23.9217 26.1509 23.9957 25.8856 23.967 25.6213L23.1431 17.9402C23.0797 17.3288 23.2903 16.722 23.706 16.3179C23.9414 16.1231 24.0951 15.829 24.1311 15.5042C24.1311 14.4069 21.6384 13.1794 18.3022 13.1794C17.8813 13.1794 17.4695 13.1976 17.079 13.2338C14.1962 13.4975 12.4733 14.5952 12.4733 15.5042C12.5091 15.8285 12.6624 16.1222 12.8976 16.3165C13.3138 16.7212 13.5246 17.3289 13.4613 17.9411L13.403 18.499C13.4015 18.5204 13.3981 18.5416 13.393 18.5623V18.5623Z" fill="#E4C05C"/>
<path d="M16.6365 15.9672C16.8665 15.9672 17.0529 15.7592 17.0529 15.5027C17.0529 15.2461 16.8665 15.0381 16.6365 15.0381C16.4066 15.0381 16.2202 15.2461 16.2202 15.5027C16.2202 15.7592 16.4066 15.9672 16.6365 15.9672Z" fill="#CB8252"/>
<path d="M14.9715 17.8253C15.2014 17.8253 15.3878 17.6174 15.3878 17.3609C15.3878 17.1044 15.2014 16.8965 14.9715 16.8965C14.7416 16.8965 14.5552 17.1044 14.5552 17.3609C14.5552 17.6174 14.7416 17.8253 14.9715 17.8253Z" fill="#CB8252"/>
<path d="M16.6365 19.685C16.8665 19.685 17.0529 19.477 17.0529 19.2204C17.0529 18.9639 16.8665 18.7559 16.6365 18.7559C16.4066 18.7559 16.2202 18.9639 16.2202 19.2204C16.2202 19.477 16.4066 19.685 16.6365 19.685Z" fill="#CB8252"/>
<path d="M21.6331 16.8969C21.863 16.8969 22.0494 16.6889 22.0494 16.4323C22.0494 16.1758 21.863 15.9678 21.6331 15.9678C21.4032 15.9678 21.2168 16.1758 21.2168 16.4323C21.2168 16.6889 21.4032 16.8969 21.6331 16.8969Z" fill="#CB8252"/>
<path d="M19.1351 15.5023C19.365 15.5023 19.5514 15.2943 19.5514 15.0378C19.5514 14.7812 19.365 14.5732 19.1351 14.5732C18.9051 14.5732 18.7188 14.7812 18.7188 15.0378C18.7188 15.2943 18.9051 15.5023 19.1351 15.5023Z" fill="#CB8252"/>
<path d="M20.3836 19.685C20.6135 19.685 20.7999 19.477 20.7999 19.2204C20.7999 18.9639 20.6135 18.7559 20.3836 18.7559C20.1537 18.7559 19.9673 18.9639 19.9673 19.2204C19.9673 19.477 20.1537 19.685 20.3836 19.685Z" fill="#CB8252"/>
<path d="M18.3021 17.8253C18.532 17.8253 18.7184 17.6174 18.7184 17.3609C18.7184 17.1044 18.532 16.8965 18.3021 16.8965C18.0721 16.8965 17.8857 17.1044 17.8857 17.3609C17.8857 17.6174 18.0721 17.8253 18.3021 17.8253Z" fill="#CB8252"/>
</svg>
