<svg width="35" height="35" viewBox="0 0 35 35" fill="none" xmlns="http://www.w3.org/2000/svg">
<path d="M0 0.829384C0 0.553199 0 0.276185 0 0C0.248815 0 0.49763 0 0.746445 0C0.904858 0.170024 1.07903 0.326777 1.21836 0.5109C1.98637 1.52275 2.75024 2.53791 3.50581 3.55889C4.39325 4.75735 5.58424 5.53531 7.02488 5.7891C8.08732 5.97571 9.19372 5.91682 10.281 5.95415C10.3748 5.95746 10.4826 5.87701 10.5664 5.81232C11.1146 5.38934 11.7391 5.21351 12.4225 5.21351C15.8072 5.21434 19.1919 5.2019 22.5767 5.22761C23.0444 5.23092 23.5852 5.30889 23.9592 5.55355C24.5365 5.93092 25.1154 5.99893 25.7549 5.96576C26.0858 5.94834 26.4184 5.97073 26.7493 5.96161C28.5258 5.91268 30.0262 5.23673 31.1989 3.90557C31.7455 3.28602 32.2025 2.58851 32.7109 1.93495C33.2185 1.28472 33.7393 0.644431 34.2536 0C34.5024 0 34.7512 0 35 0C35 0.276185 35 0.553199 35 0.829384C34.9718 0.88827 34.9303 0.944668 34.9162 1.00687C34.5272 2.81493 34.1267 4.61967 33.7568 6.43187C33.1455 9.4218 30.5868 11.5284 27.5264 11.5359C27.3498 11.5367 27.1739 11.5359 26.9235 11.5359C27.4236 12.6174 27.4186 13.7081 27.2801 14.8559C27.412 14.802 27.4758 14.7813 27.5355 14.7506C29.0956 13.9378 30.7353 13.7346 32.4372 14.1684C33.3902 14.4114 34.2959 14.7755 35 15.5086C35 15.6472 35 15.7848 35 15.9233C34.9411 16.0577 34.8706 16.1887 34.825 16.3281C33.95 19.0086 31.4295 20.9079 28.6005 20.9867C28.0025 21.0033 27.402 20.932 26.7717 20.8996C26.7236 21.4636 26.6838 22.0268 26.6249 22.5883C26.4731 24.0422 25.8195 25.2323 24.7438 26.2127C24.5788 26.3636 24.4502 26.6124 24.4113 26.8347C24.1624 28.2762 23.9509 29.7235 23.7129 31.1666C23.5852 31.9387 23.5454 32.7374 23.1083 33.4283C22.57 34.2809 21.7697 34.7512 20.8175 35C18.6056 35 16.3944 35 14.1825 35C14.1344 34.9768 14.0887 34.9444 14.0382 34.9312C12.5428 34.5455 11.6711 33.5934 11.4306 32.0656C11.1793 30.4707 10.9188 28.8775 10.6775 27.2809C10.6004 26.7667 10.5141 26.284 10.0214 25.9755C9.85225 25.8701 9.73448 25.6802 9.60012 25.5226C8.69028 24.4502 8.3577 23.1763 8.30047 21.8037C8.28803 21.4918 8.24656 21.1808 8.21588 20.8524C8.08152 20.869 8.00189 20.8764 7.92227 20.8889C4.93235 21.3641 2.32891 20.1839 0.763863 17.6004C0.449526 17.0787 0.252133 16.4848 0 15.9242C0 15.7857 0 15.648 0 15.5095C0.151777 15.3735 0.286967 15.2117 0.456991 15.1047C2.71043 13.689 5.03602 13.5662 7.42962 14.7323C7.50675 14.7705 7.59467 14.7879 7.64111 14.8037C7.64111 14.2488 7.5955 13.7072 7.65355 13.1764C7.71244 12.6348 7.87334 12.1049 7.99692 11.5359C7.81445 11.5359 7.62453 11.5367 7.4346 11.5359C4.82287 11.5268 2.40355 9.92192 1.55924 7.45948C1.10142 6.12251 0.898223 4.69846 0.57891 3.31422C0.387322 2.48566 0.193246 1.65794 0 0.829384ZM33.7667 15.9408C33.6921 15.891 33.6381 15.8495 33.5793 15.8172C33.4209 15.7326 33.2658 15.6397 33.1007 15.5717C30.98 14.6983 28.9986 14.943 27.1632 16.3248C26.9135 16.513 26.668 16.7055 26.3412 16.5031C26.0451 16.3198 26.0559 16.0361 26.0874 15.7318C26.1513 15.1271 26.2002 14.5209 26.2384 13.9137C26.2857 13.1681 26.1729 12.4524 25.7814 11.8005C25.7267 11.7084 25.6462 11.5591 25.579 11.5591C25.1784 11.5624 24.7588 11.409 24.3855 11.7084C23.9062 12.0932 23.3438 12.2749 22.7309 12.2724C22.4108 12.2716 22.196 12.0866 22.1686 11.7731C22.1412 11.4613 22.3171 11.2531 22.6347 11.1867C22.7019 11.1726 22.7716 11.1652 22.8396 11.1552C23.8116 11.0109 24.3623 10.3947 24.3839 9.41682C24.3922 9.0577 24.3864 8.69775 24.3855 8.33863C24.3839 6.94443 23.7602 6.32488 22.3519 6.32488C19.1173 6.32405 15.8827 6.32405 12.6481 6.32488C12.4963 6.32488 12.3437 6.32488 12.1928 6.33981C11.2589 6.4327 10.6534 7.06884 10.6186 8.00604C10.6028 8.434 10.612 8.8628 10.6145 9.29159C10.6211 10.4079 11.127 10.9893 12.2409 11.1677C12.6382 11.2307 12.8687 11.4646 12.8397 11.7731C12.8082 12.1082 12.5303 12.294 12.1049 12.2682C11.5351 12.2351 11.0341 12.0269 10.5763 11.6918C10.0695 11.3211 9.30735 11.4836 9.09005 12.0576C8.91754 12.5146 8.784 13.0139 8.77239 13.4982C8.75498 14.2405 8.84621 14.987 8.91256 15.7301C8.93993 16.0353 8.9532 16.3181 8.65877 16.5014C8.35438 16.6914 8.10889 16.5387 7.87085 16.3488C6.65912 15.3826 5.27654 14.9621 3.73472 15.0915C2.83069 15.1669 1.9872 15.4348 1.23412 15.9416C2.27251 19.1903 5.8231 20.4692 8.11967 19.6506C8.08649 19.2591 8.04751 18.8618 8.01931 18.4629C7.98946 18.025 8.17026 17.7613 8.50865 17.7306C8.86114 17.6982 9.08092 17.9097 9.13069 18.3485C9.17547 18.7416 9.20533 19.1364 9.24431 19.5602C9.43258 19.5602 9.5827 19.5602 9.73282 19.5602C10.8384 19.5602 11.9448 19.5569 13.0504 19.5627C13.5463 19.5652 13.7338 19.7468 13.7462 20.232C13.757 20.66 13.7586 21.0896 13.7445 21.5175C13.7313 21.9231 13.514 22.1586 13.1789 22.1421C12.8015 22.123 12.6506 21.88 12.6357 21.5358C12.6241 21.2637 12.6332 20.9909 12.6332 20.7014C11.511 20.7014 10.4444 20.7014 9.33223 20.7014C9.3936 21.3566 9.45 21.9737 9.51054 22.5908C9.61007 23.5968 9.99905 24.51 10.7787 25.1204C11.4795 25.6686 11.7101 26.3371 11.7748 27.1416C11.7806 27.2104 11.8104 27.2784 11.8079 27.3456C11.7938 27.7429 12.0161 27.7976 12.3586 27.7968C15.5377 27.786 18.7175 27.7918 21.8966 27.7877C22.293 27.7868 22.8164 27.9005 23.0519 27.6964C23.2883 27.4916 23.2559 26.9583 23.3065 26.5643C23.3687 26.0775 23.5504 25.7076 23.9592 25.3841C25.4828 24.1807 25.6031 22.4597 25.628 20.6923C24.5348 20.6923 23.4782 20.6923 22.3668 20.6923C22.3668 20.9917 22.3768 21.2646 22.3643 21.5366C22.3486 21.88 22.1985 22.1246 21.8203 22.1412C21.4819 22.1562 21.2696 21.9248 21.2554 21.5167C21.2422 21.1302 21.2488 20.7429 21.2521 20.3556C21.2571 19.7294 21.4197 19.5627 22.0334 19.561C23.1257 19.5585 24.2172 19.561 25.3095 19.5594C25.4563 19.5594 25.6031 19.5469 25.7615 19.5395C25.798 19.1281 25.8254 18.7582 25.8643 18.3883C25.9133 17.9188 26.1306 17.6957 26.4922 17.7306C26.8414 17.7637 27.013 18.035 26.9774 18.5052C26.9475 18.8992 26.9143 19.2931 26.8836 19.6771C29.7027 20.5173 32.8685 18.7963 33.7667 15.9408ZM16.9186 31.8832C16.5114 31.8832 16.1539 31.8832 15.7964 31.8832C14.7871 31.8832 14.6585 31.7472 14.7041 30.7262C14.7066 30.6706 14.7083 30.6159 14.7158 30.5611C14.7564 30.2667 14.9123 30.0652 15.2159 30.0419C15.5368 30.0171 15.7351 30.1871 15.8047 30.5039C15.8222 30.5835 15.8437 30.6615 15.8653 30.7461C16.9642 30.7461 18.0507 30.7461 19.1422 30.7461C19.1613 30.6582 19.177 30.5918 19.1903 30.5246C19.2525 30.2103 19.4424 30.0237 19.7642 30.0411C20.1126 30.0602 20.2652 30.2966 20.2909 30.6242C20.3 30.7345 20.2959 30.8448 20.2967 30.9559C20.2975 31.7447 20.164 31.8815 19.391 31.8832C18.9655 31.884 18.54 31.8832 18.098 31.8832C18.098 32.5707 18.098 33.2094 18.098 33.8488C18.973 33.8488 19.8198 33.9094 20.6541 33.8322C21.5109 33.7526 22.0774 33.2027 22.3552 32.3908C22.4481 32.1195 22.4796 31.8251 22.5261 31.539C22.6637 30.6839 22.7948 29.8288 22.9333 28.9455C19.2848 28.9455 15.6895 28.9455 12.0584 28.9455C12.2434 30.0735 12.3927 31.1691 12.61 32.2506C12.7916 33.1521 13.5729 33.8049 14.4902 33.8554C15.2341 33.8961 15.9822 33.8729 16.7287 33.8737C16.7909 33.8737 16.8539 33.8405 16.9203 33.8214C16.9186 33.1812 16.9186 32.5624 16.9186 31.8832ZM25.4397 10.4187C26.2351 10.4187 27.0495 10.4552 27.8598 10.4121C30.1282 10.291 32.1096 8.60486 32.6097 6.40284C32.8237 5.46066 33.0252 4.516 33.2276 3.57133C33.2541 3.44775 33.2566 3.32002 33.2707 3.19396C33.2417 3.16576 33.2118 3.13839 33.1828 3.11019C31.4038 6.06777 28.7929 7.38152 25.4389 7.05308C25.4397 8.21836 25.4397 9.28744 25.4397 10.4187ZM1.82547 3.12097C1.78318 3.14917 1.74088 3.17654 1.69858 3.20474C1.89597 4.11872 2.06848 5.03934 2.29905 5.94502C2.45415 6.55462 2.61588 7.18329 2.90699 7.734C3.49502 8.84538 4.44384 9.59763 5.59917 10.0836C6.89716 10.6302 8.25652 10.3623 9.56031 10.4278C9.56031 9.28578 9.56031 8.20344 9.56031 7.05059C6.2013 7.37654 3.59953 6.0686 1.82547 3.12097Z" fill="black"/>
<path d="M17.5251 11.1743C18.449 11.1743 19.3721 11.1709 20.2961 11.1759C20.7672 11.1784 21.021 11.375 21.0259 11.7225C21.0309 12.07 20.7713 12.2831 20.3077 12.284C18.4325 12.2881 16.5581 12.2881 14.6828 12.284C14.2225 12.2831 13.9637 12.0625 13.9754 11.7142C13.987 11.3775 14.2308 11.1792 14.6712 11.1767C15.6225 11.1701 16.5738 11.1743 17.5251 11.1743Z" fill="black"/>
</svg>
