<svg width="70" height="69" viewBox="0 0 70 69" fill="none" xmlns="http://www.w3.org/2000/svg">
<path d="M61.7001 56.1209C60.8975 56.1209 60.2116 56.1209 59.4939 56.1209C59.4641 55.5592 59.4556 55.1069 59.411 54.6567C59.2688 53.2472 58.1943 51.7452 56.8459 51.8777C54.4209 52.1175 53.4335 50.849 52.6393 48.9809C52.3994 48.4171 51.9535 47.9101 51.5097 47.4683C50.4989 46.4585 49.4308 45.5055 48.3606 44.5041C48.4306 44.4263 48.5113 44.3148 48.6111 44.2243C51.5288 41.5799 52.8304 38.2792 52.7965 34.3831C52.754 29.5823 52.7943 24.7816 52.7837 19.9809C52.7731 15.0729 51.0743 10.836 47.4008 7.51418C42.6102 3.18259 36.9618 1.94349 30.842 3.90417C24.8454 5.82698 20.9594 10.0218 19.7321 16.1858C19.1715 19.0006 19.3583 21.9668 19.2776 24.8658C19.2564 25.6084 19.1757 26.1427 18.5005 26.6266C17.5046 27.3419 17.0416 28.4274 17.082 29.6539C17.1053 30.3376 17.2752 31.0171 17.3814 31.7134C17.2858 31.7387 17.186 31.7828 17.0841 31.7892C12.9349 32.0374 11.3826 33.3985 10.7052 37.5092C9.50973 44.7671 8.35881 52.0313 7.16543 59.2871C6.77471 61.6601 7.03165 63.8816 8.41615 65.9243C9.37807 67.3423 10.7817 68.1943 12.2341 68.9979C14.1452 68.9979 16.0564 68.9979 17.9675 68.9979C19.6981 68.1396 21.2249 67.0562 22.1995 65.3332C22.293 65.167 22.586 65.0176 22.7877 65.0176C27.1578 64.9987 31.5258 65.005 35.9935 65.005C35.9935 65.7308 35.9935 66.3766 35.9935 67.1824C36.7389 67.1824 37.395 67.1824 38.049 67.1824C40.4485 67.1824 42.8502 67.2097 45.2497 67.1655C46.0481 67.1508 46.6618 67.2897 47.1608 67.9692C47.4602 68.3773 47.9359 68.6613 48.333 69C49.8194 69 51.3058 69 52.7922 69C53.1511 68.676 53.5779 68.3983 53.8561 68.0154C54.3954 67.2665 55.1026 67.1466 55.9626 67.1676C58.0478 67.2139 60.1352 67.1824 62.2225 67.1824C63.1314 67.1824 64.0381 67.1824 65 67.1824C65 64.923 65 62.8066 65 60.583C63.9 60.583 62.8553 60.583 61.6959 60.583C61.7001 59.062 61.7001 57.6483 61.7001 56.1209ZM54.6651 53.9141C54.8753 53.9141 55.0877 53.9141 55.2979 53.9141C57.0689 53.9204 57.364 54.2528 57.1708 56.1167C55.695 56.1167 54.2999 56.1167 52.9111 56.1167C52.6032 54.3117 52.926 53.9183 54.6651 53.9141ZM54.9836 58.3214C56.4233 58.3656 57.863 58.3299 59.375 58.3299C59.375 59.1167 59.375 59.792 59.375 60.5766C58.0372 60.5766 56.7376 60.5935 55.4402 60.5724C53.7478 60.5472 52.0384 61.1152 50.4798 61.071C48.9212 61.0268 47.2627 60.5809 45.6107 60.5788C44.3132 60.5766 43.0158 60.5788 41.6547 60.5788C41.6547 59.8277 41.6547 59.1777 41.6547 58.332C42.3767 58.332 43.0986 58.332 43.8206 58.332C44.6318 58.332 45.4472 58.3635 46.2562 58.3257C47.8934 58.2478 49.4626 58.332 50.5307 60.015C51.7008 58.2794 53.3188 58.271 54.9836 58.3214ZM50.2143 37.3556C49.9043 39.7244 48.4413 41.5905 46.5174 43.0378C46.2732 43.2208 45.8549 43.3534 45.5725 43.284C43.9013 42.8716 42.2471 42.3941 40.5866 41.9376C40.2489 40.8584 40.5526 40.2335 41.6525 39.6508C45.1563 37.7953 47.2882 34.827 48.0187 30.9624C48.2013 29.9947 48.4752 29.4456 49.5094 29.4035C49.8088 29.3909 50.1039 29.2415 50.6348 29.0859C50.5074 31.9322 50.5647 34.6713 50.2143 37.3556ZM31.0713 47.3526C29.9523 47.3841 29.362 46.997 28.9734 46.0588C28.8417 45.7411 28.6633 45.4403 28.4467 45.0153C29.6316 44.7229 30.721 44.4642 31.8039 44.1844C33.2267 43.8183 33.7235 43.1893 33.7618 41.723C33.7745 41.2665 33.7681 40.8121 33.7596 40.3556C33.7384 39.35 33.2904 38.6284 32.3454 38.2055C29.948 37.1326 28.4871 35.376 27.3808 32.9315C25.8965 29.6581 25.9198 26.3742 26.0472 22.9177C28.9649 22.5517 31.4897 21.4051 33.6662 19.2804C36.8047 23.6393 41.4593 22.9409 46.0141 22.9156C46.0014 27.3713 46.8529 31.9112 43.3534 35.517C42.3682 36.531 41.1323 37.3514 39.8986 38.0709C38.4313 38.9271 38.0066 39.756 38.2847 42.1101C38.4313 43.3555 38.9621 43.8625 40.5186 44.2454C41.4084 44.4642 42.2981 44.685 43.4193 44.9606C42.9946 45.7201 42.6973 46.3912 42.262 46.9613C42.0836 47.1948 41.6058 47.2979 41.264 47.3C37.8664 47.3252 34.4668 47.2537 31.0713 47.3526ZM40.4549 49.8329C39.098 51.0257 37.7475 52.2269 36.3736 53.3987C36.2377 53.5144 35.8619 53.5502 35.7408 53.4492C34.2948 52.2669 32.8763 51.0509 31.4514 49.8434C31.5152 49.7466 31.5789 49.652 31.6426 49.5552C34.5071 49.5552 37.3695 49.5552 40.2341 49.5552C40.3063 49.6499 40.3806 49.7403 40.4549 49.8329ZM20.5093 47.4956C20.1207 45.6401 19.7491 44.0476 19.4815 42.4362C19.4348 42.1564 19.7852 41.7798 20.0145 41.4958C20.3415 41.0898 20.7258 40.73 21.1399 40.2924C22.3949 41.3464 23.7921 42.0743 25.4782 41.6515C27.0219 41.2644 28.5954 40.8457 29.1666 39.0933C31.6383 40.1515 31.6383 40.1515 31.496 42.0259C27.3935 42.7181 23.4609 43.934 20.5093 47.4956ZM48.3797 27.2977C48.3797 25.8756 48.3797 24.4576 48.3797 23.0376C49.7429 23.1681 50.4946 23.9191 50.5074 25.1435C50.5201 26.3805 49.779 27.1483 48.3797 27.2977ZM27.4402 8.09481C32.4282 4.51215 37.8579 4.16924 43.1984 7.1881C48.5411 10.2091 50.8195 15.0329 50.4925 21.2011C49.7217 21.0054 49.0804 20.8434 48.3627 20.6604C48.3754 17.7089 47.2882 15.3969 44.2198 14.1788C43.965 14.8962 43.7399 15.5357 43.5021 16.2047C45.4387 17.1303 46.3029 18.5651 45.9717 20.713C44.2113 20.8939 42.5168 20.631 41.4338 19.2488C40.4655 18.0118 39.888 16.4761 39.0725 14.953C38.6139 15.1002 37.9875 15.3001 37.1253 15.5778C37.7879 17.2061 38.4206 18.767 39.0364 20.2838C37.5776 20.3932 36.1889 19.1184 33.8849 15.298C31.2157 20.2334 26.5547 20.9402 21.5582 20.9591C21.1994 15.765 23.0086 11.2778 27.4402 8.09481ZM23.6626 23.0103C23.6626 23.8055 23.6626 24.5923 23.6626 25.4275C22.9406 25.3181 22.3184 25.2234 21.692 25.1287C21.5349 23.9296 22.1401 23.2585 23.6626 23.0103ZM21.6198 27.4975C22.7856 27.1715 23.0829 27.9477 23.4078 28.7682C24.4653 31.4336 25.527 34.097 26.6163 36.7477C27.3744 38.5926 26.714 39.5393 24.5056 39.7265C23.9365 39.3668 23.1317 39.1333 22.8451 38.6179C22.259 37.5702 21.9575 36.3648 21.5221 35.2309C21.2164 34.4336 20.9021 33.6383 20.5666 32.8536C20.1568 31.8964 19.6047 30.9855 19.3201 29.9947C19.0016 28.8965 19.9699 27.9604 21.6198 27.4975ZM18.4304 66.1621C16.3834 67.5611 14.1644 67.5484 12.0197 66.3198C9.94504 65.1333 8.89605 62.693 9.30375 60.1475C10.5375 52.471 11.784 44.7944 13.0389 37.1221C13.3872 35.0016 14.5593 34.0528 16.7507 34.0317C19.2543 34.0086 19.2543 34.0086 19.2543 37.2336C19.6174 38.54 18.9782 39.7076 17.7318 40.5996C17.0204 41.1087 16.9864 41.7272 17.1542 42.5161C18.3922 48.3035 19.5898 54.1014 20.8108 59.8929C21.3608 62.491 20.6303 64.6558 18.4304 66.1621ZM36.0487 60.5198C36.0487 61.294 36.0487 61.9714 36.0487 62.6993C31.6914 62.6993 27.4678 62.6993 23.2549 62.6993C23.24 58.7169 21.8916 55.0228 21.3183 51.1982C21.244 50.708 21.3501 50.0706 21.6262 49.6709C22.7814 47.9984 24.3039 46.7109 26.3084 45.7853C27.7035 48.5412 29.3896 50.9983 31.6511 53.0032C32.8848 54.0971 34.2226 55.0859 35.5731 56.0368C35.8088 56.203 36.431 56.0726 36.7346 55.8706C40.3806 53.4324 43.2515 50.3062 45.1839 46.3638C45.2603 46.206 45.3431 46.0504 45.4387 45.9052C45.4727 45.8526 45.5533 45.8295 45.6659 45.7622C48.4137 47.0244 50.3948 49.0692 51.6732 51.802C51.7645 51.9976 51.8048 52.3006 51.7156 52.4794C50.5668 54.8061 50.5605 54.8019 50.4968 56.7037C46.872 55.6013 43.1602 56.4407 39.3996 56.1062C39.3996 57.644 39.3996 59.0304 39.3996 60.5198C38.2678 60.5198 37.2251 60.5198 36.0487 60.5198ZM62.7534 62.7603C62.7534 63.5345 62.7534 64.1888 62.7534 64.9987C62.4285 64.9987 62.0909 64.9987 61.7532 64.9987C59.2093 64.9987 56.6633 65.0176 54.1194 64.984C53.4823 64.9756 53.0746 65.1081 52.8007 65.7308C52.3824 66.6817 51.5882 67.1613 50.5307 67.1613C49.5157 67.1634 48.7258 66.7196 48.3266 65.8044C48.0166 65.0976 47.5388 64.9756 46.8402 64.984C44.0202 65.0155 41.2003 64.9966 38.3187 64.9966C38.3187 64.2477 38.3187 63.5997 38.3187 62.9749C38.3994 62.9076 38.4525 62.8255 38.5056 62.8255C41.7184 62.8129 44.9354 62.7182 48.1418 62.8571C48.9849 62.8929 49.796 63.6523 50.7261 64.1341C51.6901 62.6867 53.321 62.7161 54.9836 62.7477C57.175 62.7898 59.3665 62.7582 61.5579 62.7582C61.9358 62.7603 62.3159 62.7603 62.7534 62.7603Z" fill="#115C07"/>
<path d="M54 41C59.3733 41 64.6877 41 70 41C70 40.334 70 39.666 70 39C64.6856 39 59.3733 39 54 39C54 39.698 54 40.31 54 41Z" fill="#115C07"/>
<path d="M59 45C62.7052 45 66.3536 45 70 45C70 44.334 70 43.666 70 43C66.3515 43 62.7031 43 59 43C59 43.7 59 44.314 59 45Z" fill="#115C07"/>
<path d="M56 43C55.2704 43 54.6372 43 54 43C54 43.7214 54 44.3597 54 45C54.706 45 55.3392 45 56 45C56 44.3035 56 43.6902 56 43Z" fill="#115C07"/>
<path d="M40 34.4091C39.4227 33.9227 38.8971 33.4808 38.3278 33C36.2595 35.7543 35.1506 35.8043 33.0027 33.4252C32.8474 33.2529 32.5109 33.2084 32.3278 33.3224C31.8839 33.6003 31.4818 34.0061 31 34.4119C32.063 36.8354 33.574 37.9916 35.4851 38C37.3981 38.0083 38.9151 36.8549 40 34.4091Z" fill="#115C07"/>
<path d="M34.8591 31C35.2652 30.7949 35.6096 30.6451 35.9334 30.4538C36.7756 29.955 37.1649 29.0578 36.9347 28.1331C36.6802 27.1098 36.4032 26.0923 36.1168 25C35.6601 25 35.0837 25 34.277 25C34.4567 26.2757 34.6233 27.4666 34.7992 28.7187C34.6326 28.8232 34.3444 29.0046 34 29.2215C34.146 29.5527 34.2676 29.8465 34.4061 30.1324C34.5428 30.4183 34.6962 30.6944 34.8591 31Z" fill="#115C07"/>
<path d="M32 24.8382C31.4908 24.5548 31.0277 24.1077 30.4643 24.0218C29.603 23.8921 28.8853 24.3572 29.0153 24.9859C29.0965 25.3831 29.7926 25.964 30.272 25.9979C30.8056 26.0358 31.4096 25.5448 31.981 25.2853C31.9865 25.1356 31.9919 24.9879 32 24.8382Z" fill="#115C07"/>
<path d="M40.9789 25.9994C41.6359 26.0208 42.0693 25.4761 41.9908 24.7459C41.9359 24.2488 41.4986 23.8135 41.0299 23C40.5396 23.7897 40.1003 24.1988 40.0199 24.6959C39.9003 25.4452 40.3317 25.978 40.9789 25.9994Z" fill="#115C07"/>
<path d="M65.5154 23.0057C62.9217 23.1005 60.3216 23.0101 57.7236 23.0344C55.4921 23.0542 54.0782 24.4744 54.0218 26.7415C53.9871 28.0978 54.0001 29.4563 54.0175 30.8147C54.05 33.2119 55.3468 34.5836 57.6954 34.641C58.3243 34.6564 58.591 34.8505 58.8621 35.4547C59.6905 37.3006 62.1649 37.5718 63.1559 35.8385C63.7978 34.7137 64.5525 34.555 65.6043 34.6586C67.6774 34.8615 69.1586 34.0191 70 32.0607C70 29.9282 70 27.7979 70 25.6653C69.1651 23.6254 67.6211 22.9285 65.5154 23.0057ZM67.6883 30.989C67.6818 31.8843 67.2329 32.332 66.3329 32.3166C65.3939 32.3011 64.4484 32.3805 63.5181 32.2945C62.694 32.2173 62.2538 32.5393 61.9697 33.2847C61.794 33.7434 61.5078 34.1602 61.2714 34.5947C61.163 34.566 61.0524 34.5395 60.944 34.5109C60.944 33.836 60.944 33.1612 60.944 32.3144C59.8423 32.3144 58.8469 32.3232 57.8516 32.3122C56.6892 32.2989 56.3487 31.9703 56.3357 30.8236C56.3184 29.4651 56.3357 28.1066 56.3314 26.7481C56.327 25.8417 56.7564 25.3897 57.652 25.3897C60.5775 25.3919 63.5029 25.3919 66.4262 25.3919C67.2828 25.3919 67.6818 25.8572 67.6861 26.6952C67.697 28.1242 67.6991 29.5577 67.6883 30.989Z" fill="#115C07"/>
<path d="M59 29C61.4022 29 63.6886 29 66 29C66 28.291 66 27.6445 66 27C63.6091 27 61.2955 27 59 27C59 27.7271 59 28.3676 59 29Z" fill="#115C07"/>
<path d="M10.5652 14.8093C11.2508 13.6458 12.0892 13.1499 13.3669 13.1499C13.5622 13.1499 13.7723 13.1603 14.0122 13.1834C14.2456 13.2064 14.477 13.2168 14.6977 13.2168C16.7205 13.2168 18.1298 12.2898 19 10.3856V2.86895C18.1425 0.912372 16.6292 0 14.2371 0C14.1183 0 13.9973 0.0020926 13.8742 0.00627779C12.8405 0.0439445 11.7199 0.0606853 10.3487 0.0606853C9.5231 0.0606853 8.69746 0.0544075 7.87181 0.0481297C7.04828 0.0418519 6.22476 0.0355742 5.40123 0.0355742C5.00008 0.0355742 4.59894 0.0376668 4.19779 0.0397594C1.6508 0.0648705 0.0907752 1.57782 0.0271006 4.09312C-0.0174716 5.79231 0.0016308 7.50405 0.0228557 8.97515C0.0610604 11.6537 1.49374 13.1018 4.17019 13.1645C5.10833 13.1855 5.58589 13.5056 5.99341 14.3866C6.44762 15.3659 7.42396 16 8.48096 16C9.35967 16 10.1195 15.5668 10.5652 14.8093ZM6.94004 11.2059C6.55162 11.208 6.16957 11.208 5.79389 11.208C5.30572 11.208 4.82604 11.2059 4.34636 11.1996C2.66747 11.1787 2.06681 10.6032 2.04558 8.99608C2.03285 8.01674 2.03709 7.02276 2.03922 6.06016C2.04134 5.40309 2.04346 4.74601 2.03922 4.09103C2.03709 3.42767 2.21538 2.9129 2.56984 2.56343C2.92217 2.21397 3.43581 2.03819 4.10227 2.03819C6.53676 2.03819 8.96913 2.03819 11.4015 2.03819H14.9906C16.2641 2.03819 16.9709 2.7413 16.9794 4.01988C16.9921 6.05598 16.9943 7.69867 16.9815 9.19487C16.9709 10.4923 16.2408 11.208 14.9291 11.208H14.8696C14.7635 11.2059 14.6553 11.2059 14.5491 11.2059C14.2371 11.2059 13.923 11.2121 13.611 11.2184C13.2926 11.2247 12.9743 11.231 12.6559 11.231C12.1486 11.231 11.7326 11.2142 11.3463 11.1807C11.2614 11.1724 11.1808 11.1703 11.1044 11.1703C10.4676 11.1703 10.1301 11.4235 9.85845 12.1078C9.69502 12.5221 9.4658 12.8988 9.24506 13.2629C9.15167 13.4198 9.05616 13.5747 8.96701 13.7316L8.80995 14.012L7.76568 13.7546V11.2038C7.48339 11.2038 7.20959 11.2059 6.94004 11.2059Z" fill="#115C07"/>
<path d="M14 5H5V8H14V5Z" fill="#115C07"/>
</svg>
