<svg width="26" height="25" viewBox="0 0 26 25" fill="none" xmlns="http://www.w3.org/2000/svg">
<ellipse cx="13.1255" cy="12.5" rx="12.5011" ry="12.5" transform="rotate(-180 13.1255 12.5)" fill="#115C07"/>
<path d="M8.11815 16.1093C8.26796 16.3014 8.51792 16.3073 8.67653 16.1226L12.8899 11.2131C13.0481 11.0284 13.2985 11.0341 13.4485 11.226L17.4368 16.3194C17.5869 16.5112 17.8369 16.5165 17.9952 16.3313C18.1535 16.1461 18.1601 15.8406 18.01 15.6489L14.022 10.5558C13.7973 10.2683 13.4972 10.1204 13.1938 10.1136C12.8906 10.1068 12.5842 10.241 12.3472 10.5178L8.13406 15.4269C7.97549 15.6117 7.96837 15.9172 8.11815 16.1093Z" fill="white" stroke="white" stroke-width="0.6"/>
</svg>
