<svg width="42" height="41" viewBox="0 0 42 41" fill="none" xmlns="http://www.w3.org/2000/svg">
<path d="M19.52 0C20.7048 0 21.8885 0 23.0732 0C23.1386 0.0294741 23.2011 0.0756503 23.2705 0.08744C24.2341 0.24267 25.2097 0.348777 26.1624 0.555096C28.0312 0.958892 29.788 1.66529 31.4545 2.59962C33.584 3.79332 35.433 5.31714 37.0262 7.15436C38.3199 8.64673 39.3639 10.2875 40.1877 12.0795C41.1801 14.237 41.769 16.5016 41.9346 18.8497C42.0664 20.7223 42.0178 22.6126 41.6233 24.4645C41.1742 26.5729 40.4554 28.585 39.3837 30.4753C38.1643 32.6279 36.6068 34.4887 34.7231 36.094C33.238 37.3595 31.6022 38.3783 29.8207 39.1878C27.6079 40.1929 25.283 40.7755 22.872 40.9386C20.9942 41.0663 19.1017 41.0103 17.2478 40.6222C15.1202 40.1772 13.0888 39.46 11.1853 38.3969C9.03005 37.1924 7.16027 35.6539 5.55024 33.7951C4.26638 32.3125 3.21946 30.6855 2.41345 28.9004C1.58762 27.072 1.02847 25.1748 0.7945 23.1834C0.760792 22.8945 0.684454 22.6106 0.626953 22.3237C0.626953 21.0966 0.626953 19.8695 0.626953 18.6434C0.656695 18.5923 0.707256 18.5432 0.713205 18.4881C0.77368 17.9665 0.788551 17.4359 0.889674 16.9221C1.33283 14.6634 2.06746 12.5088 3.21153 10.4908C4.42996 8.34118 5.99141 6.48628 7.86714 4.87306C9.04294 3.8621 10.3238 3.00538 11.6979 2.29505C13.8572 1.17995 16.1423 0.438182 18.5723 0.165055C18.8905 0.129686 19.2048 0.0560009 19.52 0ZM2.24095 19.6946C2.32224 20.9502 2.32125 22.1626 2.49475 23.3494C2.78126 25.2996 3.37808 27.1673 4.30009 28.9279C4.44384 29.202 4.58957 29.3052 4.90484 29.3042C9.02212 29.2924 13.1394 29.2963 17.2567 29.2963C17.3647 29.2963 17.4728 29.2875 17.5799 29.2993C18.1807 29.3631 18.485 29.6942 18.4592 30.2483C18.4374 30.7209 18.1212 30.9567 17.5055 30.9567C15.1777 30.9567 12.8499 30.9567 10.5221 30.9567C10.3833 30.9567 10.2435 30.9567 10.0522 30.9567C16.6331 38.0236 27.5514 36.7572 32.4836 30.9567C32.319 30.9567 32.1723 30.9567 32.0265 30.9567C29.672 30.9567 27.3174 30.9518 24.9618 30.9616C24.5782 30.9636 24.2996 30.8172 24.1766 30.4763C24.0616 30.155 24.0567 29.7817 24.3838 29.5812C24.6366 29.426 24.9608 29.3101 25.2543 29.3081C29.3983 29.2914 33.5434 29.2963 37.6874 29.2963C37.8956 29.2963 38.084 29.3278 38.2198 29.0664C38.8642 27.8275 39.3926 26.5434 39.7049 25.1866C39.922 24.2444 40.0955 23.2856 40.1838 22.3247C40.2631 21.4611 40.2006 20.5857 40.2006 19.6946C27.6098 19.6946 14.9824 19.6946 2.24095 19.6946ZM6.0499 17.992C16.2157 17.992 26.3785 17.992 36.5671 17.992C35.8563 14.0994 33.9964 10.9133 30.8825 8.46596C27.7576 6.00978 24.1836 4.96836 20.2219 5.19236C13.9325 5.549 7.32286 10.2541 6.0499 17.992ZM4.31496 17.9969C5.63649 9.84436 12.1371 4.18926 19.8442 3.55262C24.711 3.15079 29.0692 4.57832 32.7304 7.8136C35.8038 10.5282 37.6329 13.9619 38.2684 17.9861C38.9058 17.9861 39.5056 17.9861 40.1818 17.9861C39.0704 11.5087 35.7195 6.57273 29.8157 3.71276C22.0293 -0.0579658 14.7197 1.15539 8.27956 6.82916C4.95441 9.75889 3.07372 13.5689 2.4432 17.9969C3.10842 17.9969 3.69632 17.9969 4.31496 17.9969ZM37.0876 30.9567C36.3302 30.9567 35.6848 30.9459 35.0404 30.9655C34.9016 30.9695 34.735 31.054 34.6349 31.1542C33.818 31.9696 33.0685 32.8597 32.1931 33.6064C30.8745 34.7323 29.3587 35.5694 27.7506 36.2404C26.1525 36.9065 24.479 37.3035 22.7649 37.4155C21.2233 37.5157 19.6648 37.5088 18.1321 37.1973C16.7709 36.9213 15.4494 36.5322 14.1853 35.9526C12.8331 35.3326 11.5581 34.581 10.423 33.632C9.6804 33.012 9.03302 32.2791 8.34202 31.5992C8.12094 31.3821 7.91274 31.0186 7.66489 30.9872C6.9838 30.9017 6.28487 30.9577 5.5661 30.9577C7.85821 34.6881 13.8621 39.8412 22.636 39.289C26.1852 39.066 29.4211 37.8743 32.316 35.8356C34.1789 34.5231 35.7819 32.9383 37.0876 30.9567Z" fill="#115C07"/>
<path d="M7.68083 21.6949C9.26211 21.6006 10.5846 23.0036 10.544 24.5687C10.54 24.7101 10.4895 24.8496 10.4706 24.9921C10.4151 25.4155 10.1682 25.8164 10.5123 26.2713C10.6174 26.4098 10.4439 26.8726 10.2664 27.072C10.0651 27.2989 9.71419 27.3805 9.38504 27.2056C9.12133 27.0651 8.89133 27.0573 8.56912 27.1555C6.93926 27.6556 5.19539 26.7036 4.90392 24.944C4.59361 23.0635 6.15903 21.6085 7.68083 21.6949ZM8.85068 24.3722C8.67619 23.5351 8.06946 23.2738 7.45082 23.3602C6.99379 23.4241 6.42175 24.1128 6.52387 24.5382C6.68447 25.2043 6.93232 25.5796 7.63126 25.5718C7.45578 24.7003 7.74725 24.4134 8.85068 24.3722Z" fill="#115C07"/>
<path d="M15.7954 23.9604C15.7954 24.3603 15.7706 24.7621 15.8004 25.16C15.8837 26.3007 15.038 27.0916 14.005 27.2586C12.9888 27.4237 12.0063 27.0228 11.5602 26.0354C11.4501 25.7918 11.3906 25.5069 11.3837 25.2396C11.3619 24.3731 11.3748 23.5065 11.3758 22.639C11.3768 21.9916 11.6454 21.6929 12.2244 21.6939C12.7776 21.6958 13.0493 21.9994 13.0502 22.6204C13.0512 23.4073 13.0502 24.1943 13.0512 24.9803C13.0512 25.4263 13.2188 25.612 13.6193 25.6139C13.9722 25.6159 14.12 25.4243 14.121 24.9645C14.1219 24.2041 14.114 23.4446 14.1229 22.6842C14.1309 22.0181 14.4818 21.6654 15.0816 21.6929C15.4792 21.7106 15.7855 22.0043 15.7934 22.3983C15.8034 22.92 15.7954 23.4407 15.7954 23.9604Z" fill="#115C07"/>
<path d="M16.2488 26.4412C16.4084 25.9883 16.5601 25.5324 16.7296 25.0824C17.0707 24.1786 17.4276 23.2796 17.7676 22.3747C18.0779 21.5495 18.8056 21.518 19.2607 21.8756C19.5224 22.082 19.6543 22.4789 19.7861 22.8119C20.2184 23.9054 20.6288 25.0068 21.0393 26.1081C21.2227 26.5994 21.0224 27.0592 20.5693 27.2321C20.0697 27.4227 19.6394 27.2124 19.452 26.6613C19.3678 26.4137 19.2428 26.2761 18.9633 26.3125C18.8443 26.3282 18.7194 26.3292 18.6014 26.3125C18.2207 26.2604 17.9897 26.3675 17.8807 26.7782C17.7795 27.1604 17.2729 27.3755 16.8615 27.2665C16.5621 27.1879 16.23 26.8597 16.2488 26.4412Z" fill="#115C07"/>
<path d="M35.6244 22.8828C35.8188 22.5998 35.9913 22.3523 36.1608 22.1027C36.4473 21.6793 36.8974 21.5515 37.2969 21.7814C37.7332 22.032 37.865 22.4584 37.6013 22.9191C37.3009 23.4418 36.9499 23.936 36.6456 24.4567C36.5455 24.6277 36.485 24.8409 36.4741 25.0383C36.4493 25.4903 36.4691 25.9442 36.4651 26.3971C36.4612 26.9787 36.1776 27.2754 35.6324 27.2764C35.0821 27.2774 34.7986 26.9827 34.7907 26.405C34.7907 26.3912 34.7887 26.3784 34.7907 26.3647C34.98 25.167 34.5974 24.1522 33.832 23.2326C33.6208 22.9781 33.3918 22.6824 33.5604 22.2638C33.6882 21.9455 33.8826 21.7579 34.1988 21.7019C34.5508 21.639 34.864 21.7294 35.0742 22.0457C35.2556 22.3179 35.4341 22.593 35.6244 22.8828Z" fill="#115C07"/>
<path d="M32.0252 23.3534C32.0252 24.3634 32.0252 25.3331 32.0252 26.3037C32.0252 26.963 31.7843 27.2685 31.2589 27.2764C30.6918 27.2852 30.3567 26.9256 30.3517 26.2752C30.3438 25.3832 30.3498 24.4901 30.3488 23.597C30.3488 23.5322 30.3418 23.4673 30.3418 23.4821C30.0305 23.321 29.744 23.2207 29.52 23.0439C29.2225 22.8091 29.2315 22.4662 29.3663 22.14C29.4962 21.8286 29.744 21.6871 30.092 21.692C30.8177 21.7009 31.5434 21.694 32.2701 21.695C32.8114 21.695 33.1306 21.9465 33.1554 22.3896C33.1842 22.9132 32.8887 23.2797 32.3722 23.3524C32.281 23.3642 32.1858 23.3534 32.0252 23.3534Z" fill="#115C07"/>
<path d="M23.6595 25.5735C23.9668 25.6158 24.2623 25.6266 24.5389 25.7003C24.8868 25.7936 25.1238 26.1925 25.0782 26.5246C25.0207 26.9451 24.7005 27.2624 24.297 27.2732C23.8806 27.284 23.4612 27.2516 23.0458 27.2811C22.1625 27.343 21.988 26.8586 21.9662 26.2839C21.9206 25.0853 21.9325 23.8847 21.9592 22.6851C21.9761 21.906 22.4252 21.6613 22.8733 21.6908C23.3185 21.7193 23.6218 21.9964 23.6248 22.4404C23.6327 23.4671 23.6337 24.4928 23.6377 25.5195C23.6387 25.5313 23.6476 25.5431 23.6595 25.5735Z" fill="#115C07"/>
<path d="M28.0689 24.4526C28.0689 25.106 28.0729 25.7593 28.0679 26.4127C28.064 27.0012 27.7923 27.2763 27.2282 27.2763C26.7107 27.2753 26.3954 26.9481 26.3945 26.396C26.3915 25.1296 26.3925 23.8632 26.3945 22.5967C26.3954 22.0161 26.7038 21.6929 27.2471 21.6958C27.8082 21.6978 28.0679 21.9748 28.0689 22.5742C28.0699 23.2 28.0689 23.8258 28.0689 24.4526Z" fill="#115C07"/>
<path d="M21.3358 30.9561C20.7975 30.9561 20.501 30.6791 20.4981 30.1751C20.4961 29.6819 20.85 29.3184 21.3328 29.3193C21.7532 29.3203 22.1646 29.731 22.1715 30.1574C22.1805 30.6054 21.8126 30.9561 21.3358 30.9561Z" fill="#115C07"/>
<path d="M18.5304 13.3674C18.5661 13.0942 18.5948 12.8191 18.6394 12.547C18.688 12.2493 18.58 12.0106 18.3916 11.7905C18.117 11.4692 17.8414 11.1489 17.5777 10.8188C17.1444 10.2765 17.3367 9.62512 17.999 9.40996C18.3737 9.28715 18.7515 9.14862 19.1391 9.09557C19.609 9.03171 19.8252 8.73303 20.0304 8.37345C20.2049 8.06594 20.3992 7.76825 20.6054 7.4794C20.9425 7.00683 21.6771 7.0196 22.0052 7.50494C22.262 7.88418 22.5198 8.26636 22.7389 8.66819C22.9808 9.11227 23.4557 9.04448 23.8245 9.20266C24.0634 9.30483 24.337 9.32448 24.5859 9.40603C25.2838 9.63494 25.4513 10.3109 24.9705 10.8738C24.6711 11.2236 24.3757 11.5793 24.113 11.9565C24.0108 12.1039 23.9613 12.3161 23.9603 12.4988C23.9593 12.9066 23.988 13.3163 24.0346 13.722C24.1139 14.4206 23.5588 14.8008 22.8479 14.5945C22.3195 14.4412 21.8159 14.0482 21.3004 14.0472C20.7848 14.0462 20.2792 14.4304 19.7518 14.5905C19.0291 14.8086 18.4669 14.4029 18.5581 13.7318C18.574 13.614 18.5601 13.4921 18.5601 13.3723C18.5512 13.3693 18.5403 13.3683 18.5304 13.3674ZM22.2739 12.5755C22.1163 11.7993 22.378 11.1931 22.9719 10.6439C22.1371 10.6164 21.6206 10.2362 21.2865 9.52982C20.9742 10.2735 20.4359 10.6017 19.608 10.6498C20.2485 11.1882 20.4279 11.8317 20.2911 12.656C20.993 12.2012 21.6017 12.2061 22.2739 12.5755Z" fill="#115C07"/>
<path d="M14.5692 15.626C14.4056 15.5837 14.2212 15.5749 14.0805 15.4924C13.4767 15.1367 12.9017 15.2045 12.285 15.4875C11.5673 15.8166 10.8148 15.5189 10.9714 14.5689C11.0894 13.8487 10.8465 13.271 10.334 12.7572C9.7867 12.207 10.0296 11.4731 10.788 11.2884C11.0815 11.2167 11.3749 11.142 11.6604 11.0447C11.7636 11.0094 11.8627 10.92 11.9291 10.8306C12.1016 10.5997 12.2563 10.355 12.4179 10.1153C12.8402 9.48948 13.3736 9.4433 13.8792 9.99152C13.9407 10.0583 14.0001 10.134 14.0348 10.2165C14.3303 10.9219 14.9321 11.1646 15.63 11.2982C16.2695 11.42 16.5322 12.1097 16.1584 12.6334C16.0444 12.7935 15.9235 12.9556 15.7797 13.0893C15.3504 13.4901 15.3118 13.9745 15.4397 14.5011C15.5913 15.1289 15.2265 15.5946 14.5692 15.626ZM12.4665 12.6373C12.5448 12.9114 12.629 13.2052 12.7093 13.4862C13.0236 13.4862 13.3557 13.4862 13.6373 13.4862C13.7434 13.1708 13.8445 12.8702 13.9327 12.6108C13.6928 12.4497 13.4142 12.262 13.1773 12.1019C12.9552 12.2699 12.7103 12.4536 12.4665 12.6373Z" fill="#115C07"/>
<path d="M30.7824 15.6402C30.5722 15.5714 30.3471 15.5311 30.1558 15.4289C29.6026 15.1332 29.0791 15.2 28.5438 15.4751C28.3871 15.5557 28.1899 15.5842 28.0104 15.5881C27.4136 15.6028 26.9893 15.2059 27.141 14.6528C27.362 13.8521 27.0339 13.3009 26.5471 12.7409C25.9999 12.1111 26.2289 11.4922 27.0478 11.2849C27.3273 11.2141 27.6267 11.1709 27.8746 11.0373C28.0639 10.9351 28.1938 10.716 28.3376 10.5382C28.5269 10.3034 28.6816 10.0362 28.8928 9.82198C29.1793 9.53116 29.6304 9.54099 29.9307 9.81313C30.0269 9.90057 30.1171 10.0057 30.1736 10.1206C30.5216 10.8388 31.1105 11.1788 31.8898 11.3026C32.5094 11.4008 32.7513 12.1917 32.3468 12.679C32.2704 12.7704 32.1981 12.8676 32.1089 12.9453C31.5547 13.4237 31.5854 14.0525 31.636 14.6911C31.6806 15.2943 31.397 15.596 30.7824 15.6402ZM30.129 12.6407C29.8911 12.4579 29.6323 12.2595 29.4271 12.1023C29.1644 12.2762 28.8908 12.457 28.6618 12.6083C28.754 12.8883 28.8561 13.1997 28.9503 13.4876C29.2596 13.4876 29.5828 13.4876 29.8822 13.4876C29.9664 13.1997 30.0517 12.906 30.129 12.6407Z" fill="#115C07"/>
</svg>
