<svg width="27" height="30" viewBox="0 0 27 30" fill="none" xmlns="http://www.w3.org/2000/svg">
<path d="M24.8453 16.6713C26.0141 15.4377 26.6744 13.7194 26.67 11.9233C26.604 10.5666 26.1501 9.2693 25.375 8.222C24.2598 6.89285 23.0349 5.68407 21.7165 4.61169C21.6758 4.57629 21.6396 4.54595 21.5988 4.51561C21.5445 4.47011 21.4902 4.42965 21.4313 4.38415C17.6506 1.52219 13.159 -0.667257 8.88475 0.414825C4.00831 1.6486 0.906769 7.61523 0.467572 14.0218C0.266636 16.4296 0.524331 18.8577 1.22371 21.1463C1.51655 22.0478 1.91059 22.9041 2.39642 23.6948H2.39189C3.00767 24.8982 5.01348 27.0068 6.08657 28.0888C6.68354 28.7197 7.42717 29.1507 8.23275 29.3327C9.57725 29.6199 10.967 29.2356 12.0361 28.281C12.8076 27.5152 13.4729 26.6257 14.0102 25.6415C15.3166 28.1645 17.8025 29.6278 20.4046 29.4052C23.0067 29.1827 25.2641 27.3138 26.2112 24.598C27.1583 21.8822 26.6272 18.8006 24.8453 16.6713V16.6713Z" fill="#F3D55B"/>
<path d="M26.6747 21.8386C26.6747 26.0275 23.634 29.4233 19.883 29.4233C16.1321 29.4233 13.0913 26.0275 13.0913 21.8386C13.0913 21.7021 13.0958 21.5706 13.1004 21.4391C13.2881 17.5191 16.1212 14.4056 19.634 14.259C19.7155 14.2539 19.8015 14.2539 19.883 14.2539C20.7011 14.2533 21.5125 14.4177 22.2782 14.7393C24.9172 15.863 26.6646 18.6846 26.6747 21.8386Z" fill="#81CCB8"/>
<path d="M24.191 22.4161L22.8404 23.1619L20.7884 21.8391L22.8404 20.5164L24.191 21.2622C24.4149 21.3838 24.6847 21.2807 24.795 21.0315C24.9053 20.7822 24.8147 20.4803 24.5922 20.3556L23.7831 19.9086L24.3106 19.5683C24.4518 19.4786 24.5392 19.3113 24.5396 19.1298C24.5399 18.9484 24.4532 18.7806 24.3123 18.6903C24.1714 18.5999 23.998 18.6007 23.8578 18.6925L23.3303 19.0328L23.3883 18.0261C23.3986 17.8454 23.3219 17.6723 23.187 17.572C23.052 17.4716 22.8794 17.4593 22.7342 17.5396C22.5889 17.6199 22.493 17.7807 22.4827 17.9613L22.3853 19.6406L20.3356 20.9634V18.3173L21.5894 17.3839C21.7974 17.2289 21.8536 16.9149 21.7148 16.6826C21.576 16.4502 21.2948 16.3875 21.0868 16.5425L20.3356 17.1018V16.4217C20.3356 16.1424 20.1329 15.916 19.8828 15.916C19.6328 15.916 19.43 16.1424 19.43 16.4217V17.1018L18.6789 16.5425C18.5443 16.4422 18.372 16.4298 18.227 16.5098C18.0819 16.5899 17.9862 16.7502 17.9757 16.9305C17.9652 17.1108 18.0417 17.2836 18.1763 17.3839L19.43 18.3173V20.9634L17.3785 19.6406L17.2811 17.9613C17.2651 17.6821 17.0495 17.4702 16.7994 17.4881C16.5493 17.5059 16.3596 17.7468 16.3756 18.0261L16.4335 19.0328L15.9061 18.6925C15.7659 18.6007 15.5924 18.5999 15.4515 18.6903C15.3107 18.7806 15.2239 18.9484 15.2243 19.1298C15.2246 19.3113 15.312 19.4786 15.4533 19.5683L15.9808 19.9086L15.1716 20.3556C14.9491 20.4803 14.8585 20.7822 14.9688 21.0315C15.0791 21.2807 15.3489 21.3838 15.5728 21.2622L16.9235 20.5164L18.9773 21.8391L16.9253 23.1619L15.5746 22.4161C15.3507 22.2944 15.0809 22.3975 14.9706 22.6468C14.8603 22.896 14.9509 23.198 15.1735 23.3227L15.9826 23.7697L15.4551 24.11C15.3138 24.1997 15.2265 24.367 15.2261 24.5484C15.2257 24.7299 15.3125 24.8976 15.4534 24.988C15.5942 25.0784 15.7677 25.0775 15.9079 24.9857L16.4354 24.6454L16.3774 25.6522C16.3614 25.9307 16.5505 26.1711 16.7998 26.1892H16.8297C17.0689 26.1897 17.2672 25.9824 17.2825 25.7159L17.3799 24.0367L19.43 22.7149V25.3609L18.1763 26.2944C17.9682 26.4493 17.9121 26.7633 18.0509 26.9957C18.1897 27.228 18.4708 27.2907 18.6789 27.1357L19.43 26.5765V27.2566C19.43 27.5359 19.6328 27.7622 19.8828 27.7622C20.1329 27.7622 20.3356 27.5359 20.3356 27.2566V26.5765L21.0868 27.1357C21.2214 27.236 21.3936 27.2485 21.5387 27.1684C21.6837 27.0884 21.7795 26.928 21.79 26.7477C21.8004 26.5674 21.7239 26.3946 21.5894 26.2944L20.3356 25.3609V22.7149L22.3872 24.0377L22.4845 25.7169C22.4998 25.9835 22.6981 26.1907 22.9373 26.1902H22.9672C23.2166 26.1721 23.4056 25.9317 23.3896 25.6532L23.3317 24.6465L23.8591 24.9868C23.9993 25.0785 24.1728 25.0794 24.3137 24.989C24.4545 24.8986 24.5413 24.7309 24.5409 24.5494C24.5406 24.368 24.4532 24.2007 24.3119 24.111L23.7844 23.7707L24.5936 23.3237C24.8161 23.199 24.9067 22.897 24.7964 22.6478C24.6861 22.3985 24.4163 22.2955 24.1924 22.4171L24.191 22.4161Z" fill="white"/>
<path d="M22.5952 9.82349C22.6451 11.3708 21.7169 12.7107 20.8385 13.449C20.4596 13.7586 20.0565 14.0294 19.6341 14.258C17.6056 14.3414 15.717 15.434 14.486 17.2363C13.3766 18.1124 12.3881 19.1652 11.5519 20.3612C11.1988 20.8668 10.8818 21.3876 10.5739 21.8933C10.1171 22.7371 9.55792 23.5063 8.91223 24.1788C8.42038 24.6185 7.8081 24.8559 7.17808 24.8513C6.67031 24.847 6.17069 24.7083 5.72013 24.4468C4.97903 23.9835 4.34854 23.3279 3.88184 22.5355C3.48359 21.8878 3.16102 21.186 2.92195 20.4471C2.31456 18.431 2.09395 16.2947 2.27447 14.1771C2.6865 8.17509 5.56618 3.32593 9.28351 2.38543C9.90638 2.23071 10.5426 2.15271 11.1807 2.15283C13.8883 2.15283 16.9944 3.46751 20.4174 6.06148C20.5577 6.16261 20.6981 6.28397 20.852 6.42049L21.0422 6.59241C21.2877 6.84471 21.5162 7.11681 21.7259 7.4065C22.2395 8.08777 22.5441 8.9348 22.5952 9.82349V9.82349Z" fill="#E64C3C"/>
<path d="M24.4061 9.75411C24.4018 11.6882 23.6207 13.5181 22.278 14.7398C21.5123 14.4182 20.7009 14.2538 19.8828 14.2544C19.8013 14.2544 19.7153 14.2544 19.6338 14.2594C20.0562 14.0308 20.4593 13.76 20.8382 13.4504C21.7166 12.7121 22.6448 11.3722 22.5949 9.8249C22.5438 8.93621 22.2392 8.08917 21.7256 7.40791C21.5159 7.11822 21.2874 6.84612 21.0419 6.59382L20.8517 6.4219C20.6978 6.28538 20.5574 6.16402 20.4171 6.06289C16.9941 3.46893 13.888 2.15425 11.1804 2.15425C10.5423 2.15413 9.90608 2.23213 9.2832 2.38685C5.56588 3.32735 2.6862 8.17649 2.27417 14.1785C2.09365 16.2961 2.31425 18.4324 2.92164 20.4485C3.16071 21.1874 3.48329 21.8892 3.88154 22.5368C4.34824 23.3293 4.97872 23.9849 5.71982 24.4482C6.17038 24.7097 6.67 24.8483 7.17778 24.8527C7.80779 24.8573 8.42007 24.6199 8.91192 24.1802C9.55761 23.5076 10.1168 22.7385 10.5736 21.8947C10.8815 21.389 11.1985 20.8682 11.5516 20.3626C12.3878 19.1666 13.3763 18.1138 14.4857 17.2377C13.6534 18.4493 13.1703 19.9146 13.1001 21.4396C13.0594 21.4952 13.0186 21.5559 12.9779 21.6115C12.0044 23.002 11.2302 24.696 10.0439 25.7578C8.56486 27.0523 6.53888 27.243 4.88671 26.2432C3.8842 25.6313 3.02965 24.7568 2.39642 23.6948C1.9106 22.9041 1.51655 22.0478 1.22372 21.1463C0.524331 18.8577 0.266636 16.4296 0.467572 14.0218C0.906769 7.61523 4.00831 1.6486 8.88476 0.414825C13.159 -0.667257 17.6506 1.52219 21.4313 4.38415C21.4902 4.42966 21.5445 4.47011 21.5988 4.51561C21.6396 4.54595 21.6758 4.57629 21.7166 4.61169C21.8116 4.68753 21.9022 4.76844 21.9927 4.84934L22.2237 5.06171C22.5521 5.39142 22.8564 5.74988 23.1338 6.13368C23.8957 7.15611 24.3419 8.42583 24.4061 9.75411V9.75411Z" fill="#F9EAB0"/>
<path d="M11.7926 11.4592C13.8044 10.1861 14.7463 7.79648 13.8965 6.12178C13.0467 4.44708 10.727 4.12151 8.71531 5.39459C6.70358 6.66767 5.76163 9.05732 6.61141 10.732C7.46119 12.4067 9.7809 12.7323 11.7926 11.4592Z" fill="#F9EAB0"/>
<path d="M10.5488 9.54959C11.9764 8.90457 12.4505 7.66958 12.3961 7.4544C12.3183 7.15437 11.2864 6.69674 9.96108 7.29378C9.30789 7.57459 8.74506 8.06718 8.34511 8.70808C8.20709 8.90317 8.12617 9.14086 8.11328 9.38896C8.19116 9.68748 9.2235 10.1476 10.5488 9.54959Z" fill="#E64C3C"/>
</svg>
