<svg width="18" height="21" viewBox="0 0 18 21" fill="none" xmlns="http://www.w3.org/2000/svg">
<path d="M6.33843 1.03906H2.11621C1.56393 1.03906 1.11621 1.48678 1.11621 2.03906V6.26128C1.11621 6.81357 1.56392 7.26128 2.11621 7.26128H6.33843C6.89072 7.26128 7.33843 6.81357 7.33843 6.26129V2.03906C7.33843 1.48678 6.89072 1.03906 6.33843 1.03906Z" fill="white" stroke="white" stroke-linecap="round" stroke-linejoin="round"/>
<path d="M16.1158 1.03906H11.8936C11.3413 1.03906 10.8936 1.48678 10.8936 2.03906V6.26128C10.8936 6.81357 11.3413 7.26128 11.8936 7.26128H16.1158C16.6681 7.26128 17.1158 6.81357 17.1158 6.26129V2.03906C17.1158 1.48678 16.6681 1.03906 16.1158 1.03906Z" fill="white" stroke="white" stroke-linecap="round" stroke-linejoin="round"/>
<path d="M15.879 13.8164H11.6567C11.1045 13.8164 10.6567 14.2641 10.6567 14.8164V19.0386C10.6567 19.5909 11.1045 20.0386 11.6567 20.0386H15.879C16.4312 20.0386 16.879 19.5909 16.879 19.0386V14.8164C16.879 14.2641 16.4312 13.8164 15.879 13.8164Z" fill="white" stroke="white" stroke-linecap="round" stroke-linejoin="round"/>
<path d="M6.10162 13.8164H1.87939C1.32711 13.8164 0.879395 14.2641 0.879395 14.8164V19.0386C0.879395 19.5909 1.32711 20.0386 1.87939 20.0386H6.10162C6.6539 20.0386 7.10162 19.5909 7.10162 19.0386V14.8164C7.10162 14.2641 6.6539 13.8164 6.10162 13.8164Z" fill="white" stroke="white" stroke-linecap="round" stroke-linejoin="round"/>
</svg>
