<svg width="29" height="26" viewBox="0 0 29 26" fill="none" xmlns="http://www.w3.org/2000/svg">
<path d="M1 6.66554C1.70997 4.90316 3.04385 4.23084 4.89587 4.35993C5.87656 4.42806 6.8698 4.32945 7.85049 4.39937C8.14989 4.42089 8.63217 4.72029 8.6752 4.95874C8.77739 5.52349 8.27898 5.58445 7.83435 5.58445C6.669 5.58445 5.50364 5.57728 4.34008 5.58803C2.88787 5.59879 2.2299 6.2227 2.22631 7.64264C2.21376 12.2431 2.21555 16.8436 2.22631 21.444C2.2299 22.8155 2.89325 23.4932 4.2612 23.4968C10.624 23.5094 16.9869 23.5094 23.3497 23.4986C24.7714 23.4968 25.4115 22.8263 25.433 21.3956C25.4437 20.7089 25.381 20.0151 25.4671 19.3374C25.5011 19.0631 25.8418 18.8265 26.0426 18.5737C26.2452 18.8211 26.6019 19.0559 26.6234 19.3177C26.6916 20.2087 26.6916 21.1105 26.6234 22.0034C26.5195 23.3642 25.4563 24.4453 24.1009 24.6389C23.719 24.6945 23.3264 24.6927 22.9391 24.6927C16.9349 24.6963 10.9306 24.6532 4.92635 24.7196C3.07971 24.7375 1.73328 24.1943 1 22.4426C1 17.1842 1 11.9258 1 6.66554Z" fill="white" stroke="white"/>
<path d="M28.2511 8.09986C26.2198 10.1168 24.1975 12.1445 22.1483 14.1418C21.8775 14.4053 21.4652 14.5219 21.1192 14.7083C20.9847 14.3175 20.7606 13.9338 20.7337 13.5376C20.6745 12.6788 20.7158 11.8147 20.7158 10.8591C19.3371 10.7856 18.1412 11.1405 17.0297 11.8093C15.6348 12.6465 14.6613 13.8782 13.8151 15.239C13.6322 15.533 13.2718 15.7159 12.9922 15.949C12.7842 15.6245 12.4507 15.3233 12.3898 14.9737C11.6726 10.8716 14.0213 5.24026 20.0363 4.71316C20.2138 4.69703 20.3913 4.68089 20.7158 4.65221C20.7158 3.71455 20.6907 2.7733 20.7301 1.83384C20.7427 1.54161 20.8861 1.04499 21.0457 1.01272C21.3253 0.955346 21.7467 1.09877 21.9618 1.30854C24.0756 3.3757 26.1589 5.47333 28.2511 7.56201C28.2511 7.74129 28.2511 7.92058 28.2511 8.09986ZM21.9116 3.03326C21.9116 3.46892 21.9134 3.73247 21.9116 3.99602C21.9008 5.82115 21.9008 5.82115 20.0811 5.93947C17.0332 6.13848 14.5197 8.27915 13.7487 11.37C13.5999 11.9688 13.5551 12.5963 13.4637 13.2095C13.9854 12.9047 14.2902 12.5461 14.6201 12.2109C16.3645 10.4431 18.4424 9.51801 20.9632 9.66861C21.6337 9.70805 21.9421 9.98236 21.9152 10.6618C21.8919 11.2589 21.9098 11.8559 21.9098 12.3292C23.518 10.7748 25.0921 9.25446 26.5927 7.80404C25.0885 6.27294 23.5736 4.72751 21.9116 3.03326Z" fill="white" stroke="white"/>
</svg>
