<svg width="14" height="13" viewBox="0 0 14 13" fill="none" xmlns="http://www.w3.org/2000/svg">
<path d="M10.1207 4.3512C8.86926 4.3512 8.02965 5.03787 7.68667 5.68891H7.65056V4.55916H5.18262V12.8443H7.7526V8.74172C7.7526 7.66142 7.95742 6.61699 9.29513 6.61699C10.6132 6.61699 10.6328 7.84975 10.6328 8.81104V12.8448H13.2002V12.8443H13.2031V8.29283C13.2031 6.0663 12.7236 4.3512 10.1207 4.3512Z" fill="#F7F7F7"/>
<path d="M3.57094 4.55963H0.998047V12.8448H3.57094V4.55963Z" fill="#F7F7F7"/>
<path d="M2.28314 0.434753C1.46049 0.434753 0.792969 1.10228 0.792969 1.92492C0.792969 2.74757 1.46049 3.42915 2.28314 3.42915C3.10579 3.42915 3.77331 2.74757 3.77331 1.92492C3.77282 1.10228 3.1053 0.434753 2.28314 0.434753Z" fill="#F7F7F7"/>
</svg>
