<svg width="80" height="60" viewBox="0 0 80 60" fill="none" xmlns="http://www.w3.org/2000/svg">
<path d="M80 25.8917C79.2506 28.2183 77.8759 29.8158 75.2354 29.8158C74.4911 29.8158 73.7468 29.636 73.0506 29.5423C72.4886 31.1246 72.0076 32.7272 71.3392 34.2512C70.9418 35.1601 70.3418 36.0335 69.6506 36.7423C69.3342 37.0664 68.5747 36.9575 68.0177 37.0436C67.9671 36.4791 67.6532 35.7069 67.9089 35.3854C70.1114 32.6056 70.7367 29.4335 70.5975 25.9955C70.524 24.193 70.5848 22.3829 70.5848 20.9069C68.6658 20.7272 66.9038 20.5398 65.1367 20.4208C64.8152 20.398 64.4354 20.6107 64.1468 20.8082C61.043 22.9449 57.5924 22.9474 54.4304 20.8765C54.0177 20.6056 53.3873 20.5879 52.8582 20.598C51.2886 20.6284 49.719 20.7297 47.8456 20.8183C48.0051 23.998 47.7418 27.4791 48.4329 30.7601C49.7924 37.2158 56.4203 40.7297 62.7291 38.7702C62.9291 38.7069 63.1316 38.6411 63.3266 38.5677C64.1241 38.2689 65.0405 37.8107 65.5063 38.9018C66 40.0613 65.0557 40.5727 64.1722 40.7322C62.1165 41.1044 60.0405 41.4512 57.962 41.5575C56.3089 41.6436 55.8278 41.8942 55.8177 43.598C55.7975 46.8031 55.8127 50.0107 55.8127 53.2158C55.8127 53.8056 55.7949 54.398 55.8152 54.9879C55.8835 56.9829 55.1595 58.5651 53.319 59.4436C51.5342 60.2968 49.8709 59.9145 48.3215 58.5854C48.0987 58.7398 47.8684 58.8993 47.6354 59.0588C46.2278 60.0082 44.7468 60.1651 43.2051 59.4183C41.6051 58.6436 40.8228 57.312 40.7797 55.5727C40.7342 53.6791 40.7696 51.7803 40.7696 49.6689C35.9544 52.6664 31.162 52.8132 26.1165 49.955C26.1165 51.6132 26.0608 53.1018 26.1291 54.5854C26.2278 56.6411 25.7165 58.3677 23.7747 59.3753C21.8911 60.3525 20.1823 59.8715 18.6 58.5879C17.1595 59.8056 15.5494 60.2993 13.7772 59.5348C12.0886 58.8056 11.1215 57.4993 11.1215 55.593C11.1165 51.9221 11.1443 48.2512 11.0937 44.5829C11.0861 43.9525 10.8051 43.312 10.5823 42.6993C10.0228 41.1651 9.44304 39.6386 8.82785 38.1272C8.62025 37.6158 8.38228 37.0335 7.97722 36.6942C4.14177 33.4715 2.52405 29.4234 3.24051 24.4487C3.2962 24.0613 3.34177 23.4639 3.12152 23.2765C1.48354 21.874 0.665823 20.0107 0 18.0436C0 17.031 0 16.0183 0 15.0056C0.650633 13.6537 1.08608 12.1322 1.99494 10.9854C4.36962 7.98286 7.57722 7.05121 11.2709 8.0183C12.0278 8.21577 12.481 8.11956 13.0608 7.6183C15.8835 5.17779 19.1772 4.10944 22.8962 4.59805C23.8962 4.72969 24.6 4.49678 25.4051 3.89425C26.4709 3.09425 27.7038 2.50184 28.9114 1.91703C29.557 1.60564 30.2911 1.64615 30.6228 2.44868C30.9747 3.29931 30.4582 3.70691 29.7494 4.11703C28.3747 4.90691 27.1089 5.88918 25.719 6.65121C25.1316 6.97273 24.2987 7.15754 23.6557 7.02589C18.1342 5.88665 12.6278 9.27399 11.3139 14.7069C11.2152 15.1145 11.1342 15.5348 11.1241 15.9525C11.1013 16.8715 10.7165 17.4867 9.93924 18.0284C3.89873 22.2411 3.8481 30.836 9.84051 35.1145C10.6278 35.6765 11.0481 36.274 11.1367 37.2588C11.638 42.8234 17.1468 47.1753 22.6608 46.2563C24.2835 45.9854 25.4101 46.1803 26.719 47.3322C30.4987 50.6639 36.4101 50.4867 40.1291 47.0082C41.1494 46.0537 42.0557 45.9601 43.2911 46.1829C47.6253 46.9651 51.9139 44.9246 54.0228 41.1651C54.081 41.0613 54.1013 40.9373 54.1646 40.7474C49.3924 38.517 46.4633 34.8715 45.6987 29.5145C45.0127 29.6158 44.3696 29.7423 43.719 29.798C41.1443 30.0208 39.0532 28.4259 38.6886 25.8715C38.1215 21.8765 39.9468 18.755 42.5443 15.998C43.1949 15.3069 43.5266 14.717 43.4658 13.7145C43.2987 10.912 44.6354 8.79045 46.9342 7.2107C46.9013 7.08412 46.8684 6.95754 46.8329 6.83096C45.4937 6.90691 44.1367 6.88918 42.8177 7.09425C41.8633 7.24362 41.157 7.18032 40.4329 6.44361C39.0101 5.00311 37.2456 4.09425 35.2557 3.69172C34.443 3.52716 33.8354 3.18792 33.9975 2.29678C34.1722 1.33475 34.9924 1.08159 35.7595 1.4183C37.6709 2.25374 39.524 3.22336 41.4025 4.13729C41.7949 4.32716 42.2278 4.70944 42.5873 4.65374C45.6456 4.1626 48.5342 4.62083 51.319 6.12463C52.2937 3.29931 54.0177 1.28412 56.8481 0.382856C60.8835 -0.905752 65.2253 1.15248 66.7848 5.14488C67.0709 5.87906 67.3797 6.14994 68.1949 6.19805C72.3418 6.43602 75.4329 10.0537 75.1291 14.1677C75.1013 14.5449 75.1266 15.0867 75.3595 15.2968C77.7038 17.4386 79.1089 20.117 79.9975 23.1094C80 24.036 80 24.9651 80 25.8917ZM45.7949 13.4689C45.762 17.1525 49.3696 19.6031 52.7392 18.0993C53.8405 17.6082 54.5266 17.7499 55.4101 18.5474C57.7089 20.6234 60.8304 20.6461 63.0937 18.5829C64.0127 17.7449 64.7215 17.5677 65.8633 18.1272C67.7266 19.0411 69.9316 18.517 71.3215 17.0563C72.7975 15.5044 73.2 13.2689 72.3342 11.4436C71.4101 9.49931 69.557 8.4107 67.4253 8.5626C65.3646 8.70691 65.3646 8.70691 64.8835 6.80564C64.1873 4.05374 61.8228 2.24868 59.0481 2.34994C56.3468 2.44868 54.1291 4.39298 53.6127 7.11956C53.3241 8.64108 53.1316 8.7702 51.4405 8.59805C48.2962 8.27906 45.8228 10.4158 45.7949 13.4689ZM4.02785 20.7677C5.52658 19.2056 6.96962 17.7069 8.4 16.1955C8.56203 16.0234 8.68608 15.7854 8.75696 15.5575C9.30127 13.8082 9.82532 12.0512 10.362 10.2816C8.16962 9.42589 5.12152 10.4512 3.57722 12.6968C1.72911 15.3753 1.95443 18.5474 4.02785 20.7677ZM53.443 45.7803C52.1367 46.512 50.9975 47.1297 49.8861 47.793C49.6785 47.917 49.4532 48.2234 49.4506 48.4461C49.4253 50.8461 49.3949 53.2487 49.4709 55.6461C49.5063 56.7727 50.4405 57.5398 51.4709 57.5322C52.5316 57.5221 53.4101 56.7525 53.4253 55.6234C53.4709 52.3829 53.443 49.1449 53.443 45.7803ZM13.6051 46.2259C13.5696 46.2791 13.4557 46.3727 13.4557 46.4664C13.4456 49.4968 13.4127 52.5272 13.4582 55.5575C13.4759 56.7196 14.3013 57.4892 15.3595 57.5297C16.4481 57.5727 17.3873 56.7677 17.4203 55.5803C17.4835 53.3094 17.4633 51.0335 17.4228 48.7626C17.4177 48.4765 17.1392 48.0816 16.8785 47.9322C15.8228 47.3297 14.7241 46.8006 13.6051 46.2259ZM73.9443 17.2588C73.5291 18.1449 72.9873 18.7905 72.9544 19.4639C72.8405 21.6917 72.8937 23.9272 72.9316 26.1601C72.9367 26.4689 73.2 27.0183 73.3924 27.0411C74.4025 27.1601 75.5013 27.3905 76.4279 27.112C77.5063 26.7879 77.7139 25.5879 77.643 24.5575C77.443 21.7474 76.1671 19.4436 73.9443 17.2588ZM44.3468 17.4892C42.6506 19.2183 41.3797 21.1626 41.0278 23.5854C40.9215 24.3196 40.9392 25.112 41.0962 25.836C41.3747 27.1069 42.4177 27.6259 43.9696 27.4132C45.4759 27.2082 45.6203 27.031 45.6203 25.3702C45.6203 23.6867 45.5595 22.0006 45.6405 20.3221C45.7013 19.1829 45.4329 18.2639 44.3468 17.4892ZM19.8 48.6816C19.8 51.1322 19.7291 53.4436 19.8304 55.7499C19.8785 56.836 20.6582 57.5094 21.7848 57.517C22.8456 57.5246 23.6608 56.9196 23.7063 55.8791C23.8127 53.4942 23.7392 51.1044 23.7392 48.6816C22.4025 48.6816 21.1899 48.6816 19.8 48.6816ZM43.119 48.6942C43.119 51.1018 43.0658 53.3702 43.1418 55.6335C43.1772 56.717 43.8557 57.4461 44.9899 57.517C46.0582 57.5854 46.9392 56.993 46.9975 55.9905C47.1367 53.5753 47.043 51.1449 47.043 48.6942C45.7038 48.6942 44.4911 48.6942 43.119 48.6942Z" fill="#444444"/>
<path d="M27.1562 36.9907C27.1765 35.8565 28.2145 35.3046 29.0145 35.9147C30.736 37.2286 32.3385 37.2793 34.0904 35.9527C34.4297 35.697 35.3259 35.8464 35.774 36.1198C37.5487 37.2033 38.574 37.2666 40.3031 36.0767C40.979 35.6109 41.6398 35.4109 42.1892 36.1324C42.7562 36.8767 42.3107 37.4894 41.7006 37.9679C40.0575 39.2565 38.1993 39.7071 36.2373 38.9603C35.2322 38.578 34.4398 38.5198 33.4094 38.935C31.4119 39.7375 29.5056 39.2666 27.8474 37.9173C27.5183 37.6464 27.3157 37.2109 27.1562 36.9907Z" fill="#444444"/>
<path d="M30.1704 17.861C28.2362 16.5471 26.3906 17.418 24.5299 17.4686C23.4236 17.499 22.2514 16.8028 21.1881 16.2712C20.535 15.9446 20.2995 15.2281 20.8185 14.5446C21.3324 13.8636 21.9248 13.9674 22.5805 14.418C24.2236 15.5395 24.859 15.5497 26.4565 14.4281C27.1198 13.9623 27.6438 14.0079 28.2843 14.4661C29.7755 15.5319 30.5299 15.5269 32.059 14.4535C32.6995 14.0054 33.2995 13.8307 33.8337 14.4914C34.4109 15.2079 34.14 15.9319 33.4539 16.3269C32.4286 16.9167 31.3046 17.3421 30.1704 17.861Z" fill="#444444"/>
<path d="M17.0062 30.3953C15.7911 29.7953 14.6265 29.3422 13.629 28.6536C13.31 28.4333 13.4214 27.5827 13.3379 27.0207C13.8999 26.9726 14.6392 26.6713 14.9911 26.9194C16.3885 27.9042 17.6645 28.0181 19.0214 26.9143C19.6265 26.4207 20.2949 26.3953 20.786 27.0637C21.2797 27.7371 21.0619 28.4131 20.3911 28.7877C19.3505 29.3624 18.2442 29.8131 17.0062 30.3953Z" fill="#444444"/>
<path d="M66.4504 26.178C66.4403 27.102 66.2403 27.8767 65.2479 27.8362C64.2985 27.7957 64.0757 27.0438 64.0884 26.2058C64.1011 25.3628 64.3365 24.6438 65.3162 24.6539C66.3466 24.664 66.4251 25.4818 66.4504 26.178Z" fill="#444444"/>
<path d="M52.813 26.3875C52.813 25.3951 52.9953 24.6306 53.9978 24.6559C54.9725 24.6787 55.1649 25.428 55.1624 26.2584C55.1624 27.1065 54.8991 27.8382 53.9523 27.8306C52.9826 27.823 52.7852 27.0508 52.813 26.3875Z" fill="#444444"/>
</svg>
