<svg width="39" height="35" viewBox="0 0 39 35" fill="none" xmlns="http://www.w3.org/2000/svg">
<path d="M38.677 6.24754C38.1101 8.19942 37.5307 10.1481 36.9808 12.1048C36.0286 15.4923 35.0967 18.8862 34.1554 22.2769C33.9332 23.0767 33.3818 23.3046 32.6192 23.303C26.1233 23.2902 19.6259 23.295 13.13 23.2966C12.8706 23.2966 12.6081 23.2743 12.3549 23.3141C11.7817 23.4034 11.3981 23.7348 11.3515 24.3498C11.3033 24.9951 11.6217 25.4238 12.2275 25.5735C12.5242 25.6468 12.8426 25.6373 13.1517 25.6373C19.5187 25.6405 25.8856 25.6389 32.2526 25.6405C32.5368 25.6405 32.8226 25.6325 33.1053 25.6564C33.75 25.7106 34.0793 26.1233 34.1414 26.7431C34.1989 27.3278 33.7235 27.8616 33.1038 27.9126C32.6238 27.9524 32.1392 27.9206 31.5489 27.9206C33.7639 29.2256 34.4847 30.5512 34.0156 32.3231C33.6071 33.867 32.2153 34.9458 30.6791 34.9075C29.0932 34.8693 27.7744 33.7428 27.4156 32.1223C27.049 30.4636 27.8599 29.0535 29.8729 27.9859C25.0608 27.9859 20.359 27.9859 15.8824 27.9859C16.3966 28.4846 17.1235 29.0296 17.6439 29.7338C18.2124 30.5034 18.2481 31.4642 17.9794 32.4043C17.5507 33.9021 16.1636 34.9458 14.6584 34.9043C13.1098 34.8629 11.7771 33.7491 11.4136 32.194C11.0175 30.4923 11.8128 29.0806 13.9781 27.919C13.2946 27.919 12.8271 27.9365 12.3611 27.9158C10.8389 27.8489 9.61023 26.8674 9.21103 25.4174C8.80407 23.9356 9.29957 22.4442 10.5779 21.5853C11.0097 21.2937 11.0734 21.0308 10.9694 20.5544C9.691 14.7099 8.42196 8.85908 7.17311 3.00503C7.06748 2.51109 6.87643 2.35972 6.40268 2.36609C4.82453 2.39158 3.24483 2.35972 1.66668 2.38202C0.981681 2.39318 0.388323 2.2673 0 1.62676C0 1.36067 0 1.09617 0 0.830079C0.354151 0.226191 0.865184 0.019053 1.55485 0.0318C3.54462 0.0684475 5.53594 0.0413602 7.52726 0.0461403C8.5835 0.0477337 8.89882 0.30586 9.13492 1.36386C9.37568 2.44416 9.59935 3.52766 9.84633 4.67966C10.1943 4.67966 10.4987 4.67966 10.8032 4.67966C19.542 4.67966 28.2808 4.68444 37.0196 4.6701C37.7202 4.66851 38.2856 4.82944 38.677 5.45086C38.677 5.71695 38.677 5.98304 38.677 6.24754ZM10.4335 7.06813C10.4335 7.20516 10.4148 7.31032 10.4366 7.40752C11.3701 11.7319 12.313 16.0532 13.231 20.3823C13.3412 20.9034 13.6162 20.9639 14.0511 20.9623C19.8495 20.9528 25.648 20.948 31.4464 20.9671C31.9761 20.9687 32.206 20.8221 32.3551 20.2772C33.3927 16.4722 34.4707 12.6784 35.5316 8.87979C35.6978 8.28706 35.8407 7.68795 36.0007 7.06813C27.4249 7.06813 18.9409 7.06813 10.4335 7.06813ZM14.747 30.2899C14.1086 30.2804 13.6131 30.7807 13.6146 31.4324C13.6162 32.0474 14.0775 32.5445 14.674 32.5716C15.3108 32.6003 15.8265 32.1159 15.8467 31.4674C15.8669 30.8237 15.3792 30.3011 14.747 30.2899ZM30.8142 30.2915C30.1789 30.2549 29.6601 30.7345 29.6337 31.3814C29.6104 31.9996 30.0469 32.5159 30.6387 32.5684C31.2693 32.6242 31.8114 32.1574 31.8565 31.5216C31.9031 30.8731 31.4402 30.3266 30.8142 30.2915Z" fill="#444444"/>
</svg>
