<svg width="64" height="80" viewBox="0 0 64 80" fill="none" xmlns="http://www.w3.org/2000/svg">
<path d="M2.214 80C1.93488 79.8369 1.64987 79.6855 1.37862 79.5106C-0.0818269 78.5631 -0.394358 76.686 0.716207 75.2118C1.46314 74.2211 2.30048 73.2973 3.08476 72.3322C5.01694 69.9577 5.93685 67.2668 5.92702 64.1769C5.88378 51.8663 5.90736 39.5558 5.90933 27.2452C5.90933 22.8442 4.68672 18.8442 1.93095 15.3828C0.582546 13.6885 -0.0464462 11.8133 0.0223499 9.65504C0.0793524 7.85651 0.114733 6.05012 0.0125219 4.25356C-0.0995174 2.27224 0.52751 0.807862 2.41056 0C21.87 0 41.3295 0 60.7889 0C62.6641 0.811794 63.301 2.26634 63.1909 4.2516C63.0848 6.14447 63.1398 8.04914 63.1752 9.94791C63.2106 11.8939 62.6641 13.6256 61.4435 15.143C58.4872 18.8226 57.2646 23.0506 57.2803 27.7366C57.3196 39.5558 57.3943 51.3769 57.2391 63.1961C57.184 67.4162 58.5757 70.8501 61.3216 73.883C61.6735 74.2722 62.043 74.6457 62.3712 75.0506C63.7216 76.7214 63.2872 78.7499 61.3825 79.7366C61.241 79.8093 61.1172 79.9115 60.9835 80C41.3943 80 21.8052 80 2.214 80ZM60.8007 9.31499C60.8007 7.46732 60.8007 5.73956 60.8007 4.01179C60.7988 2.44717 60.7044 2.35283 59.1162 2.35283C40.7752 2.35283 22.4322 2.35283 4.09115 2.35283C3.928 2.35283 3.76289 2.35872 3.59975 2.35283C2.79385 2.32138 2.37911 2.66143 2.39287 3.51253C2.41449 4.95332 2.39876 6.3941 2.39876 7.83685C2.39876 8.31056 2.39876 8.78428 2.39876 9.31695C5.44545 9.31695 8.32505 9.31302 11.2066 9.32088C11.5978 9.32088 12.0617 9.25405 12.3585 9.43489C12.7241 9.65897 13.1938 10.1287 13.1683 10.4609C13.1388 10.8619 12.6926 11.2963 12.3231 11.5813C12.1088 11.7464 11.6921 11.6658 11.3658 11.6678C8.81056 11.6737 6.25724 11.6678 3.70196 11.6737C3.36191 11.6737 3.01989 11.7091 2.60712 11.7327C2.73685 12.1101 2.78402 12.3754 2.91178 12.5916C3.17714 13.0418 3.46019 13.484 3.78058 13.8968C6.85478 17.8477 8.26608 22.3469 8.26215 27.3278C8.25429 39.5774 8.21694 51.827 8.28377 64.0767C8.3054 68.1671 6.89606 71.6128 4.28181 74.6536C3.72751 75.2983 3.14569 75.9253 2.62874 76.5995C2.21989 77.1342 2.3968 77.5253 3.06903 77.6314C3.32456 77.6727 3.59188 77.6452 3.85331 77.6452C14.0391 77.6452 24.2268 77.6452 34.4125 77.6452C34.7251 77.6452 35.0396 77.6452 35.4405 77.6452C33.6676 75.6973 33.8582 74.5887 36.0597 73.3563C40.3447 70.9602 44.6219 68.5504 48.9147 66.17C50.955 65.0378 52.4135 65.9283 52.3938 68.2673C52.3703 71.0192 52.331 73.769 52.2995 76.5209C52.2956 76.8668 52.2995 77.2128 52.2995 77.6373C54.9845 77.6373 57.5339 77.6609 60.0813 77.6216C60.783 77.6118 60.9619 77.1263 60.5393 76.5484C60.268 76.1808 59.9614 75.8349 59.6469 75.5027C56.3172 71.9705 54.8194 67.8585 54.8882 62.9307C55.0533 51.2727 54.9806 39.6108 54.9236 27.9509C54.898 22.6162 56.2759 17.8084 59.6312 13.6059C60.04 13.0929 60.3015 12.4619 60.7536 11.6658C60.101 11.6658 59.7216 11.6658 59.3423 11.6658C45.5536 11.6658 31.7629 11.6658 17.9742 11.6658C17.6459 11.6658 17.3196 11.6658 16.9914 11.66C16.2386 11.6462 15.6744 11.3199 15.6469 10.5337C15.6174 9.67273 16.2268 9.35626 17.0032 9.31892C17.3295 9.30319 17.6577 9.31302 17.986 9.31302C31.7747 9.31302 45.5653 9.31302 59.354 9.31302C59.8002 9.31499 60.2484 9.31499 60.8007 9.31499ZM49.9093 68.3066C45.5575 70.744 41.3138 73.1184 36.9305 75.5735C38.7054 76.57 40.1049 77.8555 42.273 77.6904C44.7712 77.4998 47.2951 77.6452 49.9093 77.6452C49.9093 74.5199 49.9093 71.4948 49.9093 68.3066Z" fill="#444444"/>
<path d="M32.4485 68.2633C30.7502 68.2732 29.8067 67.0683 30.1173 65.4368C30.6755 62.512 31.2809 59.597 31.8647 56.6761C32.4681 53.6609 33.0716 50.6437 33.673 47.6285C34.1585 45.1911 35.9472 44.5484 37.7969 46.168C42.302 50.1149 46.7993 54.0717 51.2927 58.0304C53.0814 59.6068 52.6843 61.4958 50.4121 62.2663C44.7119 64.2004 39.0116 66.1326 33.3094 68.0589C32.9733 68.1749 32.6155 68.226 32.4485 68.2633ZM32.4308 65.8673C38.3512 63.8624 44.0494 61.9321 49.9148 59.9469C45.2209 55.825 40.7079 51.8604 36.0494 47.768C34.8347 53.8496 33.6573 59.7326 32.4308 65.8673Z" fill="#444444"/>
<path d="M26.7334 55.7014C24.7855 55.2414 22.5565 54.7205 20.3315 54.1878C17.6268 53.5412 14.9261 52.8807 12.2214 52.2399C11.3251 52.0276 10.5251 51.7249 10.2342 50.7264C9.94719 49.7436 10.3855 49.036 11.0342 48.3559C14.356 44.8768 17.6524 41.3721 20.9801 37.8989C22.5015 36.3107 24.1605 36.7215 24.8012 38.8424C26.1909 43.4458 27.559 48.0552 28.9133 52.6684C29.4322 54.4434 28.5673 55.7977 26.7334 55.7014ZM12.7836 49.948C17.503 51.0763 21.9845 52.1495 26.6175 53.2581C25.2474 48.6331 23.9364 44.2144 22.5762 39.6227C19.2622 43.1156 16.0995 46.4493 12.7836 49.948Z" fill="#444444"/>
<path d="M26.572 60.2359C21.9175 61.4644 17.4772 62.6339 12.8993 63.8408C16.3273 67.1548 19.6315 70.3509 22.9435 73.5528C23.1302 72.8904 23.3917 71.9744 23.6452 71.0565C23.9755 69.8595 24.2978 68.6585 24.6221 67.4595C24.8305 66.6889 25.2157 66.1091 26.1278 66.2821C26.8629 66.4216 27.146 67.1292 26.8806 68.114C26.2772 70.3548 25.6718 72.5956 25.0388 74.8305C24.4944 76.7528 22.7705 77.2167 21.3789 75.8192C17.9627 72.3872 14.5504 68.9533 11.1499 65.5076C9.51845 63.8545 9.95481 62.1975 12.1995 61.5941C16.8737 60.3381 21.5519 59.1017 26.2359 57.883C28.1484 57.3857 29.3415 58.5199 28.9425 60.456C28.7322 61.4781 28.4256 62.4826 28.1366 63.487C27.9302 64.2103 27.4526 64.6349 26.6762 64.4462C25.8841 64.2536 25.6934 63.6383 25.8624 62.9111C26.057 62.0894 26.2949 61.2776 26.572 60.2359Z" fill="#444444"/>
<path d="M31.6745 42.115C33.6814 41.4369 35.476 40.8315 37.2706 40.2261C37.705 40.0806 38.1394 39.9352 38.5758 39.7956C39.2794 39.5735 39.8377 39.7878 40.1011 40.4698C40.3704 41.1637 40.0676 41.7494 39.3954 41.9774C36.7635 42.8718 34.1276 43.7642 31.4622 44.5484C30.1532 44.9317 29.0446 43.7052 29.2981 42.1897C29.6598 40.0276 30.1178 37.8831 30.5423 35.7327C31.0632 33.1008 31.5979 30.4708 32.1148 27.8389C32.2976 26.9111 32.5355 26.0168 33.5438 25.657C34.5817 25.2875 35.3443 25.7946 36.0991 26.4629C39.6509 29.6118 43.2283 32.7293 46.7959 35.8585C48.4372 37.2993 48.1129 38.9937 46.049 39.7386C45.4023 39.9725 44.7536 40.2005 44.0991 40.405C43.3502 40.6369 42.6878 40.517 42.4264 39.6914C42.1807 38.9209 42.619 38.4453 43.3148 38.1838C43.8593 37.9794 44.4136 37.8005 45.1409 37.5509C41.5576 34.4 38.0883 31.3514 34.4676 28.1691C33.5242 32.8629 32.62 37.3917 31.6745 42.115Z" fill="#444444"/>
<path d="M24.4441 18.854C24.4441 17.6117 24.4657 16.3675 24.4362 15.1272C24.4165 14.337 24.7723 13.9714 25.5389 13.9616C26.3035 13.9518 26.6593 14.2879 26.6514 15.0957C26.6259 17.7159 26.6396 20.3341 26.6436 22.9542C26.6436 23.5203 26.6947 24.1002 25.932 24.2515C25.2185 24.393 24.6249 24.2436 24.2514 23.5734C23.5183 22.2584 22.7988 20.9375 22.0716 19.6205C22.0087 19.5085 21.934 19.4024 21.6391 19.2943C21.6391 20.1355 21.6391 20.9768 21.6391 21.8181C21.6391 22.2761 21.6195 22.736 21.6431 23.194C21.6844 24.0274 21.1949 24.3065 20.4794 24.2967C19.7856 24.2869 19.416 23.9508 19.4219 23.1901C19.4436 20.5699 19.4298 17.9518 19.4298 15.3316C19.4298 14.7694 19.3689 14.168 20.1197 14.0088C20.847 13.8535 21.5153 13.9596 21.9163 14.6633C22.4175 15.5439 22.8755 16.45 23.3551 17.3424C23.6421 17.8751 23.9369 18.4058 24.2278 18.9365C24.3006 18.909 24.3713 18.8815 24.4441 18.854Z" fill="#444444"/>
<path d="M47.3407 20.3715C46.3461 21.2245 46.8002 22.2427 46.7176 23.141C46.6311 24.0727 46.181 24.5189 45.322 24.2358C44.9859 24.1258 44.5417 23.6501 44.5358 23.3336C44.4749 20.5189 44.4965 17.7022 44.5044 14.8855C44.5063 14.1444 45.0174 13.9656 45.6346 13.9656C46.2832 13.9656 46.7058 14.2309 46.7039 14.9503C46.7019 15.8231 46.7039 16.6978 46.7039 17.5705C46.7864 17.6019 46.869 17.6334 46.9515 17.6648C47.669 16.6486 48.3923 15.6344 49.1039 14.6123C49.4813 14.0717 49.894 13.7376 50.5702 14.1759C51.2758 14.6319 51.3859 15.1115 50.865 15.7995C50.3324 16.5032 49.7977 17.2128 49.208 17.8673C48.8228 18.2958 48.8601 18.6064 49.1746 19.0545C49.9609 20.1808 50.6763 21.3562 51.4469 22.4943C51.8872 23.1449 51.9383 23.7032 51.2051 24.1553C50.5073 24.5857 49.9766 24.3774 49.5501 23.715C48.8424 22.6201 48.1132 21.539 47.3407 20.3715Z" fill="#444444"/>
<path d="M34.1434 24.3047C33.996 24.1317 33.5321 23.8428 33.5046 23.5145C33.3925 22.233 32.6593 21.9774 31.5743 22.1366C31.478 22.1504 31.3758 22.1543 31.2815 22.1366C30.3537 21.9597 29.8839 22.3489 29.7797 23.2806C29.6913 24.0649 29.2864 24.4777 28.4392 24.2281C27.7394 24.0217 27.3915 23.6561 27.6412 22.8561C28.4569 20.2359 29.2451 17.6059 30.0235 14.976C30.2593 14.1819 30.7979 13.9047 31.5665 13.8968C32.3783 13.887 32.9326 14.1799 33.1802 15.0153C33.9429 17.5823 34.7429 20.1396 35.5114 22.7067C35.8023 23.6737 35.3856 24.2556 34.1434 24.3047ZM32.5886 20.3735C32.2839 19.2197 31.995 18.1327 31.708 17.0438C31.6392 17.0418 31.5704 17.0398 31.5036 17.0379C31.2048 18.119 30.906 19.2 30.5797 20.3735C31.2991 20.3735 31.8711 20.3735 32.5886 20.3735Z" fill="#444444"/>
<path d="M15.3831 13.8046C16.0474 13.952 16.7315 14.0424 17.3703 14.2645C17.9777 14.4768 18.2135 14.9721 17.9541 15.609C17.6828 16.2694 17.2209 16.2969 16.5899 16.0906C16.016 15.9038 15.387 15.782 14.7914 15.8095C14.4828 15.8232 14.013 16.1711 13.9423 16.4522C13.8794 16.694 14.2096 17.1598 14.4887 17.3387C15.1157 17.7436 15.8332 18.007 16.4877 18.3707C17.6199 19.0016 18.3256 19.9176 18.3216 21.2797C18.3157 22.9171 17.3526 24.1947 15.7251 24.3146C14.6558 24.3933 13.5334 24.1515 12.4818 23.8783C12.071 23.7721 11.6327 23.2296 11.4971 22.7952C11.3968 22.4768 11.6818 21.9127 11.9688 21.6454C12.1398 21.4861 12.6627 21.6355 13.0007 21.7358C13.671 21.9363 14.3079 22.3078 14.986 22.3903C15.3103 22.4296 15.9 22.0227 15.9904 21.7102C16.0769 21.4114 15.7605 20.8571 15.4597 20.6173C14.986 20.236 14.3747 20.0296 13.8283 19.7368C12.0258 18.7775 11.3477 17.5962 11.727 16.0827C12.075 14.6714 13.4076 13.8714 15.3831 13.8046Z" fill="#444444"/>
<path d="M36.4496 19.1115C36.4496 18.3273 36.3945 17.5371 36.4614 16.7567C36.5911 15.2609 37.511 14.3017 38.9773 14.0226C40.6619 13.7042 42.4171 14.343 43.054 15.5086C43.683 16.6585 43.3685 17.7612 42.3837 17.8103C41.7469 17.8417 41.2122 17.6963 41.1316 16.9002C41.0589 16.1867 40.5911 15.9037 39.909 15.9056C39.2112 15.9076 38.7277 16.2594 38.6982 16.9317C38.6353 18.398 38.6334 19.8722 38.6845 21.3386C38.71 22.0619 39.2093 22.4393 39.9424 22.4373C40.6383 22.4334 41.0687 22.0678 41.1218 21.3798C41.1926 20.4599 41.7823 20.3656 42.5017 20.4187C43.3351 20.4796 43.394 21.0653 43.3272 21.6904C43.2899 22.0422 43.2132 22.4098 43.0619 22.7243C42.4525 23.9744 40.6678 24.6526 38.9577 24.3184C37.5012 24.0334 36.5832 23.0604 36.4614 21.5626C36.3945 20.7508 36.4476 19.9292 36.4496 19.1115Z" fill="#444444"/>
<path d="M40.9318 36.9572C40.574 37.1911 40.2025 37.6235 39.8625 37.6C39.5519 37.5783 39.0133 37.0221 39.0507 36.7724C39.1037 36.4147 39.5578 35.9154 39.8998 35.8624C40.2045 35.8152 40.5897 36.2948 40.9396 36.5425C40.9377 36.682 40.9357 36.8196 40.9318 36.9572Z" fill="#444444"/>
<path d="M36.472 37.9085C36.1044 38.1306 35.7231 38.5414 35.3751 38.5159C35.0705 38.4943 34.5319 37.9242 34.5791 37.6943C34.6518 37.3385 35.1098 36.851 35.4479 36.8156C35.7663 36.7822 36.1398 37.2579 36.4896 37.5095C36.4818 37.6432 36.4759 37.7768 36.472 37.9085Z" fill="#444444"/>
<path d="M21.7564 65.2913C21.5225 64.9336 21.0998 64.568 21.1136 64.2201C21.1254 63.9115 21.664 63.3474 21.892 63.3847C22.2497 63.4417 22.747 63.8781 22.8021 64.2142C22.8532 64.5306 22.405 64.9277 22.177 65.2874C22.0355 65.2874 21.8959 65.2894 21.7564 65.2913Z" fill="#444444"/>
<path d="M22.8249 69.0241C22.4711 69.2757 22.1134 69.7219 21.7655 69.716C21.4608 69.7101 20.9458 69.2069 20.9281 68.9002C20.9124 68.6015 21.3841 68.055 21.6888 68.0196C22.0348 67.9784 22.4318 68.3852 22.8072 68.5975C22.8131 68.741 22.819 68.8825 22.8249 69.0241Z" fill="#444444"/>
<path d="M37.3882 34.0109C37.0206 34.2212 36.6334 34.6241 36.2933 34.5868C35.9867 34.5534 35.4678 33.9814 35.5169 33.7494C35.5936 33.3956 36.0575 32.9258 36.3975 32.8885C36.7061 32.8551 37.0717 33.3347 37.4118 33.5863C37.4059 33.7278 37.396 33.8693 37.3882 34.0109Z" fill="#444444"/>
<path d="M19.3205 66.1248C18.9608 66.3587 18.5893 66.7833 18.2414 66.7676C17.9328 66.7519 17.3805 66.2015 17.4178 65.9636C17.4729 65.6079 17.923 65.1106 18.2611 65.0634C18.5795 65.0182 18.9687 65.4781 19.3264 65.714C19.3264 65.8516 19.3245 65.9872 19.3205 66.1248Z" fill="#444444"/>
<path d="M48.4391 74.7341C48.0932 74.9818 47.7178 75.4574 47.4072 75.4201C47.0612 75.3768 46.5974 74.9031 46.5227 74.5454C46.4735 74.3154 47.0121 73.7474 47.3266 73.7139C47.6667 73.6786 48.0539 74.0894 48.4214 74.3036C48.4273 74.4471 48.4332 74.5906 48.4391 74.7341Z" fill="#444444"/>
<path d="M44.6138 76.1475C44.2501 76.3736 43.8747 76.7883 43.5268 76.7647C43.23 76.7451 42.7091 76.1809 42.7504 75.9352C42.8093 75.5814 43.2653 75.0861 43.5975 75.0487C43.912 75.0134 44.2835 75.491 44.6295 75.7446C44.6236 75.8782 44.6177 76.0119 44.6138 76.1475Z" fill="#444444"/>
<path d="M39.2963 60.0923C38.9523 60.3557 38.5906 60.8452 38.2722 60.8176C37.942 60.7901 37.4761 60.2968 37.4073 59.941C37.3601 59.7032 37.8771 59.1331 38.1798 59.1036C38.5238 59.0702 38.911 59.4732 39.2805 59.6855C39.2845 59.8211 39.2904 59.9567 39.2963 60.0923Z" fill="#444444"/>
<path d="M38.3862 54.8679C38.6083 55.2295 39.0211 55.605 38.9956 55.947C38.972 56.2536 38.4196 56.7922 38.1838 56.749C37.826 56.6861 37.3287 56.2359 37.2875 55.9018C37.2481 55.5853 37.7219 55.2079 37.9676 54.8561C38.1071 54.862 38.2467 54.8659 38.3862 54.8679Z" fill="#444444"/>
<path d="M43.3976 58.0561C43.0478 58.2998 42.6999 58.7303 42.348 58.7322C42.0453 58.7342 41.4733 58.2172 41.4989 57.9853C41.5402 57.6276 41.9549 57.1067 42.2792 57.0477C42.5996 56.9907 43.0085 57.4251 43.378 57.6433C43.3839 57.7809 43.3898 57.9185 43.3976 58.0561Z" fill="#444444"/>
<path d="M19.304 48.5012C18.9384 48.7174 18.5551 49.1224 18.2111 49.0929C17.9025 49.0673 17.3659 48.5052 17.4131 48.2771C17.4858 47.9253 17.9418 47.4536 18.2819 47.4123C18.5964 47.373 18.9738 47.8329 19.3236 48.0727C19.3158 48.2142 19.3099 48.3577 19.304 48.5012Z" fill="#444444"/>
<path d="M22.7729 48.6133C23.0186 48.9632 23.451 49.313 23.453 49.6649C23.453 49.9676 22.9321 50.5376 22.6942 50.5121C22.3365 50.4727 21.8097 50.0521 21.7547 49.7258C21.6996 49.4054 22.1439 49.0005 22.3699 48.6329C22.5055 48.627 22.6392 48.6211 22.7729 48.6133Z" fill="#444444"/>
<path d="M20.8735 46.3627C20.6298 46.0167 20.1934 45.6668 20.2013 45.3248C20.2091 45.0162 20.73 44.4501 20.9698 44.4796C21.3276 44.5209 21.8406 44.9415 21.9094 45.2777C21.9703 45.5823 21.5222 45.9872 21.2981 46.3469C21.1566 46.3528 21.015 46.3587 20.8735 46.3627Z" fill="#444444"/>
</svg>
