<svg width="73" height="80" viewBox="0 0 73 80" fill="none" xmlns="http://www.w3.org/2000/svg">
<path d="M4.60619 20.7713C3.36831 20.4575 2.29594 20.2334 1.2615 19.9093C-0.0453455 19.499 -0.372918 18.6542 0.454634 17.5645C2.08215 15.4129 3.76829 13.2992 5.5096 11.2407C6.38543 10.2028 7.28194 10.351 7.98191 11.551C8.49913 12.4372 8.91981 13.3785 9.37841 14.2923C10.5749 14.0854 11.6887 13.8716 12.8059 13.7026C15.254 13.3337 17.3781 14.0475 19.4883 15.3371C29.7603 21.623 40.3047 21.5506 50.9974 16.437C51.1008 16.3887 51.2043 16.3301 51.2905 16.2577C54.68 13.4164 58.4764 12.9165 62.6486 14.4336C63.1555 13.4371 63.5865 12.5061 64.0969 11.62C64.8382 10.3304 65.7347 10.1924 66.6761 11.3131C68.376 13.3337 70.0242 15.4026 71.6207 17.5094C72.5138 18.6886 72.1896 19.4748 70.7552 19.9438C70.2104 20.1196 69.6415 20.2196 69.0863 20.3679C68.5967 20.4989 68.1105 20.6472 67.4898 20.8265C68.2208 25.8021 65.2589 28.602 61.5901 31.0399C57.4385 33.7984 52.9973 35.8741 48.1837 37.1672C47.7424 37.2844 47.3079 37.4258 46.8148 37.5706C46.8148 38.6878 46.8148 39.7671 46.8148 41.2084C48.5389 40.3291 50.2492 39.7361 51.6215 38.6947C55.0007 36.1293 58.5867 35.6914 62.6245 37.1603C63.1141 36.2121 63.5521 35.2949 64.052 34.4121C64.8382 33.026 65.7347 32.8915 66.7347 34.088C68.3898 36.0707 70.0035 38.0947 71.569 40.1498C72.5241 41.405 72.2069 42.2153 70.6656 42.6808C69.6794 42.9773 68.6691 43.2014 67.5002 43.498C68.2794 48.7771 64.9485 51.5597 61.0832 54.0734C57.1006 56.663 52.8421 58.6008 48.2699 59.8594C47.7803 59.9939 47.2975 60.1456 46.9045 60.2628C46.7389 61.9352 46.6838 63.4903 46.4183 65.004C46.0079 67.3556 44.8252 69.39 42.9184 70.7555C41.5805 71.7141 41.284 72.7726 41.384 74.2381C41.4736 75.5518 41.3943 76.8794 41.3978 78.2C41.4012 79.3827 40.9013 80.0137 39.6392 79.9999C37.2255 79.9689 34.8118 79.9758 32.3982 79.9965C31.2258 80.0068 30.7293 79.4069 30.7189 78.3C30.712 77.669 30.6637 77.0311 30.7189 76.4035C30.9534 73.7588 30.5948 71.5692 28.1914 69.7003C26.0019 67.997 25.2433 65.1867 25.4088 62.38C25.5122 60.6766 24.926 60.0249 23.2985 59.6249C18.3953 58.4181 13.9886 56.1078 9.83011 53.2596C6.39577 50.9046 3.9407 48.0909 4.62688 43.5083C3.44762 43.2049 2.38904 42.967 1.35805 42.6532C-0.0591381 42.2222 -0.397055 41.3774 0.485667 40.2119C2.07871 38.1051 3.73381 36.0431 5.43029 34.0191C6.35784 32.9156 7.29229 33.0536 8.01639 34.3259C8.52327 35.2121 8.94049 36.15 9.44737 37.1603C13.6506 35.5673 17.3712 36.2362 20.8504 38.9292C22.0779 39.8809 23.664 40.374 25.2778 41.1705C25.2778 39.805 25.2778 38.743 25.2778 37.8154C22.0848 36.5603 18.8815 35.4673 15.8333 34.0466C13.6127 33.0122 11.568 31.5778 9.48875 30.2571C6.08889 28.0952 4.05793 25.1642 4.60619 20.7713ZM23.8226 43.5014C22.5468 42.8635 21.4021 42.3428 20.309 41.7256C19.1608 41.0774 18.0953 40.2809 16.9402 39.643C14.0679 38.0603 9.77839 39.1499 8.05777 41.8567C6.32681 44.5807 7.07505 47.7426 9.97838 50.0012C19.9297 57.7422 31.2775 59.8318 43.4908 58.1008C50.5767 57.0974 56.8903 54.17 62.49 49.7253C64.5796 48.0668 65.4244 45.9117 64.6658 43.3118C63.9762 40.9498 62.3418 39.574 59.8832 39.1844C55.8731 38.5465 52.8353 40.0843 51.0215 43.7049C50.5078 44.7324 49.9974 45.76 49.4837 46.7875C49.0526 47.6426 48.3596 48.3495 47.4803 47.6806C47.07 47.3668 47.0562 46.3323 47.1217 45.6462C47.1803 45.0358 47.5941 44.4635 47.8872 43.798C45.0873 43.9773 43.0701 44.9841 41.9633 47.4392C41.7529 47.9012 41.4874 48.4461 41.084 48.6874C40.6185 48.9667 39.7082 49.2357 39.4737 49.0081C39.091 48.6391 38.8772 47.815 38.991 47.2702C39.1324 46.6047 39.6875 46.0255 40.0496 45.4324C36.8118 44.6945 34.2601 45.46 32.4154 48.1357C32.2257 48.4116 31.943 48.7564 31.6568 48.8081C31.0603 48.9184 30.4293 48.8564 29.8121 48.8633C29.8086 48.2426 29.6121 47.5323 29.85 47.0254C30.1534 46.3737 30.8017 45.8806 31.2327 45.4013C28.25 43.96 25.8329 44.4497 24.0261 47.1564C23.964 47.2495 23.864 47.3702 23.7709 47.3806C23.1123 47.4426 22.4503 47.4806 21.7882 47.5254C21.8227 46.8634 21.6503 46.0841 21.9434 45.5669C22.371 44.8117 23.1296 44.2393 23.8226 43.5014ZM24.095 20.9265C24.5088 21.8161 24.9812 22.454 25.0674 23.1367C25.1433 23.7471 24.7916 24.4091 24.6261 25.047C24.0019 24.8022 23.2158 24.716 22.7985 24.2781C22.2675 23.7229 21.9675 22.9092 21.6917 22.1609C20.8228 19.792 19.2746 18.1025 17.0264 16.937C14.123 15.4302 9.8577 16.3956 8.1026 19.0817C6.33026 21.7954 7.0854 24.9574 9.91632 27.2504C24.2881 38.8809 47.7975 38.8878 62.159 27.271C64.9761 24.9918 65.7658 21.7747 64.021 19.1024C62.3073 16.4784 58.073 15.3474 55.2731 16.8715C52.9697 18.1266 50.7457 19.5196 48.3872 20.9092C48.9492 21.4989 49.6906 22.0299 50.0698 22.754C50.3698 23.3264 50.225 24.1332 50.2767 24.8367C49.6147 24.7712 48.8113 24.916 48.3182 24.5953C47.47 24.0401 46.8424 23.1609 46.0666 22.4781C45.708 22.1644 45.2011 21.754 44.8045 21.7989C43.4805 21.9402 42.1736 22.2644 40.7702 22.5333C40.9564 22.8161 41.0426 22.9574 41.1392 23.0885C41.8081 24.0126 43.646 24.7849 42.1909 26.1228C40.7909 27.409 39.8392 25.7297 39.2082 24.8401C37.3635 22.2471 34.8325 22.4092 32.0533 22.654C32.2637 23.0402 32.4154 23.3333 32.5844 23.616C33.1016 24.4919 33.9877 25.4608 32.6981 26.278C31.4223 27.0883 30.9051 25.8642 30.312 25.0505C30.1431 24.8194 29.9534 24.5884 29.8534 24.3229C28.8811 21.7678 26.5639 21.523 24.095 20.9265ZM33.3533 77.3345C34.9739 77.3345 36.398 77.4035 37.8083 77.2862C38.1496 77.2587 38.6772 76.6277 38.7117 76.238C38.822 74.8691 38.8082 73.483 38.7427 72.1072C38.6841 70.9003 39.0358 70.1452 40.1703 69.4762C43.2322 67.6694 44.4804 64.5592 43.8598 60.9317C42.1322 60.6455 41.3392 61.1283 41.2806 63.1248C41.1978 66.004 38.8427 67.9694 36.0221 67.9556C33.2154 67.9418 31.0706 65.9522 30.7637 63.0627C30.6982 62.4455 30.6603 61.8248 30.5982 61.08C29.7569 60.9904 28.9948 60.9076 28.2363 60.8283C27.7121 64.8937 28.9086 67.6246 32.1464 69.6038C33.0636 70.1624 33.4016 70.8038 33.3705 71.8279C33.3154 73.5933 33.3533 75.3587 33.3533 77.3345ZM33.5016 38.6637C33.5016 39.905 33.5016 41.1636 33.5016 42.5153C35.2325 42.5153 36.9049 42.5153 38.6531 42.5153C38.6531 41.1877 38.6531 39.9671 38.6531 38.6637C36.9152 38.6637 35.2808 38.6637 33.5016 38.6637ZM38.6462 61.449C36.8669 61.449 35.1429 61.449 33.4257 61.449C33.2429 62.9834 33.4188 64.3695 34.8429 64.9178C35.6222 65.2178 36.7911 65.1419 37.5393 64.7557C38.7807 64.1075 38.9082 62.7937 38.6462 61.449ZM28.1604 41.9118C28.9811 42.0601 29.7224 42.1946 30.4638 42.3291C31.1948 38.5223 30.9189 38.0568 28.1604 38.3258C28.1604 39.4843 28.1604 40.6533 28.1604 41.9118ZM43.9184 41.9222C43.9184 40.6912 43.9184 39.4809 43.9184 38.2706C41.1771 38.143 40.8254 38.774 41.6874 42.3463C42.3874 42.2118 43.0943 42.0773 43.9184 41.9222ZM68.4139 17.7301C67.4622 16.5508 66.6657 15.5612 65.814 14.5095C64.0658 16.3715 66.3002 16.9784 66.583 18.1921C67.1726 18.0438 67.6588 17.9232 68.4139 17.7301ZM6.7992 14.6923C6.60611 14.6612 6.41301 14.6302 6.21992 14.6026C5.4165 15.5991 4.61653 16.5956 3.87174 17.5197C5.52684 19.0886 5.99234 17.4128 6.58887 16.5646C6.90954 16.1163 6.74748 15.3267 6.7992 14.6923ZM6.23371 37.2603C5.4096 38.312 4.61998 39.3188 3.83036 40.3222C3.92346 40.4981 4.02001 40.6774 4.11311 40.8533C4.75446 40.5912 5.54063 40.4809 6.00613 40.0326C6.7199 39.3533 7.77847 38.5292 6.23371 37.2603ZM65.8968 37.3086C65.7106 37.3327 65.5209 37.3603 65.3347 37.3844C65.3727 38.0223 65.2037 38.7878 65.4968 39.2706C66.0554 40.1912 66.6347 41.5567 68.2726 40.3085C67.4795 39.3085 66.6864 38.3085 65.8968 37.3086Z" fill="#444444"/>
<path d="M33.6094 15.5921C34.13 14.4438 34.4162 13.5715 34.8921 12.8163C35.6472 11.6129 35.7265 10.4578 34.9473 9.27508C33.5301 7.12345 33.5301 5.00974 34.9576 2.84431C35.3196 2.29261 35.2921 1.48575 35.6541 0.937493C35.9472 0.489236 36.5886 -0.0452253 37.0161 0.00304858C37.4368 0.0478743 38.1264 0.803016 38.0954 1.203C38.023 2.19606 37.7885 3.27188 37.2851 4.11323C36.4817 5.458 36.3817 6.63036 37.2437 7.951C38.5678 9.98195 38.5299 12.037 37.223 14.0921C36.923 14.5611 36.8851 15.2059 36.5644 15.6507C36.1541 16.2196 35.5748 16.6713 35.0679 17.1713C34.5955 16.6541 34.1197 16.1438 33.6094 15.5921Z" fill="#444444"/>
<path d="M45.1531 1.36858C44.6566 2.5306 44.3807 3.47539 43.8773 4.28225C43.1256 5.49255 43.0808 6.58561 43.8359 7.80625C45.3979 10.3372 45.1842 13.0129 43.1842 15.237C42.8601 15.599 41.9567 15.8266 41.5636 15.6301C41.174 15.437 40.9326 14.6267 40.9292 14.0853C40.9257 13.6336 41.3257 13.1543 41.6084 12.7302C42.3601 11.613 42.4532 10.4992 41.674 9.3648C40.1706 7.17524 40.1637 5.00636 41.6671 2.79956C41.974 2.34785 41.9429 1.65822 42.2636 1.22376C42.6498 0.706538 43.2601 -0.000329684 43.7463 0.016911C44.2221 0.0341517 44.6669 0.865152 45.1531 1.36858Z" fill="#444444"/>
<path d="M31.8295 1.25113C31.3158 2.45108 31.0192 3.44414 30.4951 4.30273C29.7503 5.52337 29.7193 6.59574 30.4848 7.82672C32.0847 10.3887 31.8502 13.0093 29.802 15.2471C29.4779 15.6023 28.5711 15.8195 28.1849 15.6195C27.7952 15.4161 27.5573 14.6127 27.5573 14.0747C27.5573 13.623 27.9676 13.1472 28.2538 12.7231C29.0469 11.53 29.0159 10.3783 28.2228 9.19563C26.8194 7.10951 26.878 5.02683 28.2331 2.91658C28.5607 2.4097 28.5331 1.6649 28.8883 1.18906C29.271 0.671839 29.8779 0.0753118 30.4365 0.0235898C30.8365 -0.0246841 31.3192 0.768387 31.8295 1.25113Z" fill="#444444"/>
<path d="M52.1699 53.7735C51.6803 53.3562 51.0596 53.0769 50.9458 52.6597C50.8286 52.2287 51.0493 51.408 51.3906 51.2046C52.7526 50.3805 54.1905 49.6598 55.6663 49.0633C56.0146 48.9219 56.8249 49.2943 57.049 49.6564C57.2662 50.0115 57.1938 50.9598 56.918 51.1356C55.4387 52.077 53.8595 52.8597 52.1699 53.7735Z" fill="#444444"/>
<path d="M47.6077 51.9045C48.2697 52.8562 48.9421 53.3838 48.9386 53.9045C48.9317 55.163 47.7594 55.3803 46.8387 55.3389C46.3801 55.3182 45.5181 54.2734 45.5836 54.1665C46.0388 53.4562 46.6939 52.8735 47.6077 51.9045Z" fill="#444444"/>
<path d="M51.4633 31.1016C51.2633 30.5637 50.9185 30.0292 50.9047 29.4878C50.8943 28.9948 51.1012 28.2569 51.4633 28.0396C52.777 27.2465 54.1666 26.5535 55.5907 25.988C55.9631 25.8397 56.7734 26.1362 57.0113 26.4845C57.2527 26.8328 57.232 27.8155 56.9803 27.9776C55.4562 28.9465 53.8356 29.7602 52.246 30.6257C51.9839 30.7809 51.7219 30.9429 51.4633 31.1016Z" fill="#444444"/>
<path d="M46.9526 32.9708C46.2664 32.0226 45.4734 31.1812 45.5871 31.0329C46.0699 30.4019 46.763 29.7675 47.4974 29.564C47.8629 29.464 48.487 30.2847 48.9939 30.6916C48.4215 31.3329 47.8491 31.9708 46.9526 32.9708Z" fill="#444444"/>
</svg>
