<svg width="77" height="68" viewBox="0 0 77 68" fill="none" xmlns="http://www.w3.org/2000/svg">
<path d="M76.558 45.7431C76.2304 45.0389 75.6755 44.6849 75.0609 44.8172C74.3826 44.9631 73.9934 45.4961 73.9915 46.2819C73.9857 50.2403 73.9857 54.2007 73.9877 58.1591V64.6716H2.67049V32.5004C4.82461 32.5004 24.4429 32.5004 30.2213 32.5004L30.6162 32.5023C30.7415 32.5023 30.8898 32.5004 31.0189 32.4868C31.6875 32.4128 32.1885 31.8799 32.2078 31.2205C32.227 30.563 31.7569 29.9872 31.1114 29.8802C30.9785 29.8588 30.8128 29.8549 30.6683 29.8549L30.2964 29.8569C24.3735 29.8549 18.4507 29.8549 12.5278 29.8549H2.68205V17.5615C4.83425 17.5615 24.4101 17.5615 30.2579 17.5615L30.6374 17.5634C30.7646 17.5634 30.911 17.5614 31.0401 17.5459C31.7068 17.4642 32.1981 16.9254 32.2097 16.2621C32.2193 15.6241 31.7588 15.058 31.1365 14.9433C31.0035 14.918 30.8282 14.916 30.674 14.916L30.3426 14.918C24.8649 14.916 19.389 14.916 13.9112 14.916H4.37182C1.51251 14.916 0 16.4488 0 19.3471C0 33.8698 0 48.3944 0 62.919C0 65.8231 1.51058 67.3579 4.36604 67.3579L43.5448 67.3598C52.117 67.3598 62.2325 67.3579 72.2594 67.3345C73.0223 67.3326 73.847 67.1672 74.5811 66.8657C75.5425 66.4728 76.1456 65.6695 76.5984 64.1814L76.6061 45.8423L76.5849 45.8015C76.5772 45.782 76.5676 45.7626 76.558 45.7431Z" fill="#115C07"/>
<path d="M46.1167 38.5617C49.6099 42.452 53.9201 45.222 57.2842 47.2002C57.5405 47.35 57.7794 47.4239 58.0164 47.4239C58.2842 47.4239 58.5713 47.3325 58.8912 47.1438C62.1994 45.1908 64.7774 43.3877 67.0067 41.4697C72.3515 36.8752 75.3534 31.4093 76.1877 24.7607C76.284 23.9865 76.3842 23.2104 76.4844 22.4362L76.6077 21.4675L76.6097 8.51267L76.5943 8.47572C76.3823 7.97386 76.0644 7.65485 75.5692 7.44089C70.4209 5.22728 64.9142 2.84639 58.7351 0.162048C58.2264 -0.0597015 57.8006 -0.0538667 57.2842 0.179554C56.5232 0.521904 55.7582 0.848695 55.0164 1.16576C54.6831 1.30776 54.3498 1.4517 54.0165 1.59564L50.3903 3.16539L50.371 3.17318C47.1861 4.5523 43.8913 5.97811 40.6467 7.37086C39.4636 7.87855 39.4733 8.46016 39.4771 8.77138C39.5022 10.4034 39.481 12.049 39.4617 13.6421C39.4154 17.4138 39.3673 21.3138 39.9164 25.0875C40.6717 30.2889 42.7584 34.8211 46.1167 38.5617ZM43.2054 9.17209C47.9645 7.09075 52.6542 5.06388 57.1417 3.14789C57.3998 3.03701 57.7023 2.97866 58.0164 2.97866C58.3555 2.97866 58.6869 3.04285 58.974 3.16734C61.5443 4.26442 64.2187 5.41985 66.5789 6.43718C68.6425 7.32806 70.7061 8.21701 72.7716 9.10401C73.5981 9.45803 74.0105 10.096 73.997 11.0005C73.9796 12.1657 73.9816 13.3036 73.9835 14.7606V14.8851C73.9854 15.4278 73.9854 16.0055 73.9854 16.6357C74.0297 19.501 73.9835 22.8856 73.2956 26.2585C72.2417 31.4385 69.6232 35.8073 65.5173 39.2445C63.9855 40.5244 62.3362 41.6662 60.7409 42.7711L60.7042 42.7963C60.1821 43.1581 59.6599 43.518 59.1436 43.8837C58.7293 44.1774 58.2495 44.2202 57.9991 44.2202C57.6522 44.2202 57.3305 44.1366 57.0742 43.9771C53.7351 41.923 49.9182 39.3028 46.9356 35.4436C44.2593 31.9812 42.7487 28.1258 42.4462 23.9846C42.2112 20.7653 42.1765 17.4955 42.1437 14.3151C42.1322 13.185 42.1187 12.0179 42.0994 10.8722C42.0879 10.2069 42.583 9.44441 43.2054 9.17209Z" fill="#115C07"/>
<path d="M11.453 44.7962C10.9231 44.7981 10.48 44.9537 10.2025 45.2377C9.98094 45.4653 9.86919 45.7629 9.87112 46.1267C9.8769 46.9437 10.4838 47.4338 11.4935 47.4377C12.085 47.4397 12.6746 47.4416 13.2661 47.4416L16.031 47.4397L22.345 47.4416C22.9538 47.4416 23.5608 47.4416 24.1696 47.4377C25.1792 47.4338 25.7862 46.9437 25.792 46.1267C25.7939 45.7629 25.6841 45.4634 25.4606 45.2377C25.1831 44.9557 24.738 44.7981 24.2101 44.7962C21.1061 44.7884 14.557 44.7884 11.453 44.7962Z" fill="#115C07"/>
<path d="M54.4522 29.3552C54.7509 29.7929 55.1459 30.0341 55.5678 30.0341C55.9435 30.0341 56.3096 29.8337 56.6025 29.4719C59.4926 25.8772 62.3982 22.1931 65.2132 18.6237L66.4598 17.0423C66.7218 16.7096 66.8008 16.377 66.7103 15.9938C66.5716 15.4103 66.2768 15.1029 65.7257 14.9687C65.1958 14.8403 64.7835 14.9823 64.4039 15.4414C63.7354 16.2467 63.0745 17.0909 62.4271 17.9137C62.1593 18.2541 61.8914 18.5964 61.6217 18.9349L55.6969 26.4102L54.6064 24.8229C54.4908 24.6557 54.3867 24.5039 54.2846 24.3522C54.0168 23.9496 53.7509 23.543 53.485 23.1365C52.9281 22.2864 52.352 21.4092 51.7682 20.5669C51.4677 20.1331 51.065 19.8958 50.6372 19.8958C50.3887 19.8958 50.1459 19.9756 49.9147 20.1312C49.2769 20.5611 49.1517 21.3177 49.6026 22.0161C51.5158 24.9805 53.011 27.2447 54.4522 29.3552Z" fill="#115C07"/>
</svg>
