<svg width="83" height="80" viewBox="0 0 83 80" fill="none" xmlns="http://www.w3.org/2000/svg">
<path d="M4.23249 11.1805C1.39434 10.872 1.39434 10.8688 1.39109 8.18323C1.39109 6.07248 1.42032 3.96172 1.38135 1.85097C1.35862 0.548796 1.92365 0 3.23232 0C20.3879 0.0162366 37.5434 0.0162366 54.699 0C56.0109 0 56.5824 0.591011 56.5792 1.85746C56.5727 3.91301 56.5792 5.97181 56.5792 8.02736C56.5792 10.7648 56.5012 10.8558 53.7021 11.1902C54.0495 12.7554 54.4262 14.2979 54.7282 15.8566C55.4036 19.3605 56.0921 22.8611 56.6636 26.3812C56.839 27.4658 57.339 27.6314 58.284 27.6281C63.8597 27.5957 69.432 27.6509 75.0077 27.5859C76.456 27.5697 77.2808 28.0211 77.4497 29.4986C77.4854 29.8168 77.664 30.1221 77.6835 30.4403C77.8328 32.8985 79.1415 34.5157 81.3172 35.5191C82.5057 36.0679 82.824 37.0129 82.8207 38.2891C82.785 51.3855 82.8012 64.4819 82.798 77.5783C82.798 79.7378 82.5252 79.9976 80.3625 79.9976C54.384 80.0008 28.4087 80.0008 2.43023 79.9976C0.205822 79.9976 -0.284522 79.6111 0.137628 77.4354C0.543542 75.3409 1.42032 73.3406 2.00808 71.2753C2.24513 70.4407 2.50167 69.5087 2.36204 68.6839C0.579263 58.1951 -0.313748 47.6478 0.137628 37.0096C0.478596 28.8199 1.98535 20.7958 3.85905 12.8366C3.98245 12.3171 4.0961 11.7942 4.23249 11.1805ZM41.3882 52.0187C41.3882 47.794 41.3525 43.6861 41.4175 39.5783C41.4305 38.7599 41.674 37.8669 42.0637 37.146C43.525 34.4345 45.1292 31.7977 46.6002 29.0894C47.1847 28.0113 47.9056 27.508 49.1688 27.5892C50.7567 27.6898 52.3544 27.6152 54.2671 27.6152C53.111 21.9194 52.0199 16.5386 50.9289 11.1675C50.3086 11.1156 49.9352 11.0571 49.565 11.0571C35.8743 11.0539 22.1836 11.0668 8.49297 11.0279C7.39537 11.0246 7.0544 11.4111 6.79787 12.4177C3.45313 25.5726 1.93989 38.8898 3.1284 52.4538C3.39144 55.4771 3.7324 58.4939 4.04415 61.5723C4.37212 61.4651 4.43707 61.4651 4.46954 61.4327C4.72608 61.1566 4.98587 60.8839 5.22941 60.5949C8.63909 56.526 12.8411 53.5579 17.8128 51.7297C18.9461 51.314 19.5403 50.7977 19.3195 49.5508C19.2546 49.1838 19.3098 48.7941 19.3098 48.4174C19.3098 45.5631 19.9008 45.0143 22.6935 45.8001C24.3528 46.2677 25.8921 47.151 27.454 47.8329C27.454 46.6996 27.454 45.4884 27.454 44.2381C26.9539 44.2122 26.5805 44.1927 26.2071 44.17C22.0505 43.9297 19.3455 41.072 19.3098 36.883C19.2968 35.4769 19.3033 34.0676 19.3098 32.6615C19.3195 30.541 19.8423 30.1286 21.9953 30.4403C24.9374 30.8657 27.178 32.4179 28.9283 34.8826C29.3017 34.4475 29.5778 34.126 29.8538 33.8013C31.5489 31.8172 33.7051 30.7001 36.2835 30.3851C38.0143 30.174 38.5858 30.6546 38.6248 32.3725C38.654 33.6162 38.6345 34.8632 38.6313 36.1069C38.615 41.3967 36.1925 43.9167 30.8702 44.1959C30.7273 44.2024 30.5844 44.2901 30.4448 44.3421C30.4448 45.5955 30.4448 46.8035 30.4448 47.9433C31.8834 47.2387 33.2115 46.3814 34.6631 45.9203C37.9461 44.8714 38.6313 45.4364 38.6313 48.8104C38.6313 51.3173 38.6313 51.3173 41.3882 52.0187ZM44.2459 64.1279C52.5655 57.6918 60.7033 57.7957 68.8995 64.1085C68.8995 55.9674 68.8995 48.0537 68.8995 40.0037C67.5811 40.0037 66.3179 40.1563 65.1261 39.9387C64.5189 39.8283 64.0318 39.0587 63.4895 38.5878C64.0025 38.1429 64.4637 37.4253 65.0384 37.3149C66.136 37.107 67.3018 37.2824 68.4351 37.224C68.8832 37.2012 69.5457 37.1168 69.7275 36.8245C70.9908 34.7852 72.1565 32.6842 73.358 30.5897C73.0301 30.4306 72.9391 30.3494 72.8482 30.3494C65.217 30.3364 57.5858 30.3202 49.9579 30.3396C49.5845 30.3396 49.0422 30.5345 48.8701 30.817C47.6458 32.8336 46.4995 34.8956 45.1584 37.2434C47.2107 37.2434 48.9253 37.2434 50.6366 37.2434C53.452 37.2467 56.2674 37.185 59.0764 37.3149C59.6187 37.3409 60.4597 38.0423 60.5766 38.5651C60.7845 39.5068 60.0408 39.9972 59.0731 40.0037C58.3165 40.0069 57.5566 40.0069 56.8 40.0069C52.6434 40.0069 48.4901 40.0069 44.2426 40.0069C44.2459 48.044 44.2459 55.9187 44.2459 64.1279ZM2.61858 77.2049C11.198 77.2049 19.2838 77.2049 27.4605 77.2049C27.4605 76.2891 27.4605 75.4643 27.4605 74.5648C27.0319 74.5323 26.7169 74.4966 26.4019 74.4836C21.9985 74.3083 19.3325 71.5448 19.3098 67.1252C19.3033 65.6672 19.2935 64.2059 19.313 62.7478C19.3357 61.0268 19.7774 60.452 21.4595 60.8189C23.5053 61.2638 25.4602 62.1406 27.4703 62.8355C27.4703 61.9425 27.4703 60.7442 27.4703 59.3901C23.554 59.5005 20.7483 57.9126 19.4202 54.058C13.9874 55.9999 9.67174 59.2342 6.22634 63.7383C5.03782 65.2905 4.55722 66.8005 5.19694 68.6547C5.62884 69.9017 5.35931 71.0058 4.70985 72.1878C3.89477 73.6653 3.38494 75.3149 2.61858 77.2049ZM68.9872 77.1984C68.9872 74.2758 69.0131 71.4734 68.9579 68.6742C68.9482 68.2618 68.6267 67.7844 68.3215 67.4629C61.5768 60.3773 51.4127 60.387 44.7979 67.4824C44.5219 67.7779 44.2037 68.1968 44.1972 68.5605C44.1485 71.4084 44.1712 74.2563 44.1712 77.1951C52.4876 77.1984 60.6188 77.1984 68.9872 77.1984ZM4.18378 8.13452C20.7256 8.13452 37.1797 8.13452 53.6371 8.13452C53.6371 6.29005 53.6371 4.54949 53.6371 2.82516C37.0823 2.82516 20.6704 2.82516 4.18378 2.82516C4.18378 4.63716 4.18378 6.33876 4.18378 8.13452ZM72.8482 37.107C73.4392 37.1687 73.8062 37.2272 74.1699 37.2434C75.0726 37.2824 75.8325 37.5649 75.8195 38.6106C75.8065 39.7309 75.0207 40.0264 74.04 40.0069C73.3093 39.9939 72.5787 40.0037 71.8903 40.0037C71.8903 52.5545 71.8903 64.8553 71.8903 77.1951C72.8092 77.1951 73.5918 77.1951 74.5108 77.1951C74.5108 76.5132 74.5108 75.9287 74.5108 75.3442C74.5108 66.8005 74.5108 58.2536 74.5108 49.7099C74.5108 49.3299 74.3745 48.8688 74.5401 48.5928C74.9103 47.9823 75.4331 47.4692 75.8942 46.9139C76.3521 47.479 76.8879 47.9985 77.2321 48.622C77.4172 48.9532 77.2711 49.4696 77.2711 49.9015C77.2711 58.338 77.2711 66.7745 77.2711 75.211C77.2711 75.8442 77.2711 76.4742 77.2711 77.1627C78.3102 77.1627 79.1285 77.1627 79.9209 77.1627C79.9728 76.9288 80.015 76.8217 80.015 76.7178C80.0215 64.1182 80.0378 51.5154 79.9858 38.9158C79.9826 38.3735 79.45 37.6883 78.9694 37.3246C77.4432 36.1621 75.4526 35.4444 75.1895 32.9797C74.4394 34.3046 73.686 35.6328 72.8482 37.107ZM30.4188 77.1919C34.0785 77.1919 37.6668 77.1919 41.3882 77.1919C41.3882 76.5035 41.3882 75.9189 41.3882 75.3344C41.3882 69.4925 41.3882 63.6506 41.3882 57.8054C41.3882 54.9575 41.3882 54.9575 38.4657 54.1554C37.1635 57.9028 34.387 59.533 30.4643 59.3544C30.4643 60.7248 30.4643 61.9717 30.4643 63.394C32.4711 61.8029 34.4974 60.754 36.9362 60.7377C38.0045 60.7312 38.5988 61.2183 38.6021 62.2705C38.6085 64.378 38.693 66.5017 38.4916 68.593C38.1799 71.8241 35.4067 74.292 32.1464 74.4674C31.5749 74.4966 31.0033 74.4706 30.4188 74.4706C30.4188 75.5163 30.4188 76.3119 30.4188 77.1919ZM30.4708 71.6617C35.1891 72.204 36.6764 68.7196 35.5788 63.7545C31.9386 64.706 30.0389 67.6058 30.4708 71.6617ZM35.7736 48.5149C31.8476 49.554 29.6525 53.0286 30.6007 56.5162C34.2409 56.8475 36.5692 55.1686 35.7736 48.5149ZM35.699 33.4084C32.0555 34.152 29.9382 37.3279 30.5033 41.2019C34.8027 41.8319 36.6374 39.0749 35.699 33.4084ZM27.4443 41.2214C27.9184 37.2369 25.7589 34.0253 22.2908 33.4571C21.3296 38.7047 22.924 41.8838 27.4443 41.2214ZM22.2518 48.5441C21.3166 54.2788 23.3105 57.2274 27.4573 56.3604C27.9151 52.4896 26.009 49.5702 22.2518 48.5441ZM27.4151 71.639C28.0028 67.6805 25.4764 63.9818 22.2161 63.9104C21.4335 69.5477 23.1189 72.1131 27.4151 71.639Z" fill="#444444"/>
<path d="M18.2677 24.7966C16.9168 24.7966 15.566 24.8258 14.2151 24.7868C12.6044 24.7414 11.9842 23.8646 12.7505 22.478C13.4487 21.2116 13.4779 20.1692 12.7603 18.8962C11.9777 17.5096 12.5914 16.6036 14.1988 16.5809C16.8454 16.5419 19.4952 16.6199 22.1385 16.5322C22.8075 16.5094 23.5998 16.2042 24.0999 15.7626C27.1069 13.0965 30.8738 13.1193 33.8971 15.8275C34.3582 16.2399 35.1018 16.5159 35.7253 16.5354C38.3718 16.6134 41.0184 16.5452 43.665 16.5776C45.3893 16.6004 45.9641 17.4674 45.1263 18.9612C44.4476 20.1692 44.4248 21.1499 45.11 22.3708C45.9933 23.9425 45.399 24.7609 43.5318 24.7868C41.8562 24.8096 40.1806 24.8063 38.5082 24.7901C36.3747 24.7674 34.4296 24.7479 32.5559 26.4138C30.4484 28.2907 27.0322 28.0666 24.9182 26.1605C23.5544 24.9297 22.184 24.6667 20.5311 24.7868C19.7842 24.8421 19.0244 24.7966 18.2677 24.7966ZM28.9546 16.5776C26.6523 16.5841 24.8273 18.3994 24.8305 20.6822C24.8338 22.9554 26.6783 24.7868 28.9644 24.7868C31.2505 24.7868 33.0852 22.9554 33.0852 20.6725C33.082 18.3864 31.2537 16.5744 28.9546 16.5776ZM16.381 19.3638C16.381 20.338 16.381 21.1596 16.381 21.9584C18.2937 21.9584 20.1999 21.9584 22.0736 21.9584C22.0736 21.0297 22.0736 20.2406 22.0736 19.3638C20.1382 19.3638 18.271 19.3638 16.381 19.3638ZM35.9104 21.9844C37.914 21.9844 39.7682 21.9844 41.5445 21.9844C41.5445 21.0427 41.5445 20.2114 41.5445 19.3736C39.7097 19.3736 37.8393 19.3736 35.9104 19.3736C35.9104 20.2698 35.9104 21.0654 35.9104 21.9844Z" fill="#444444"/>
<path d="M56.5881 45.3552C60.4005 45.5533 63.4757 48.0472 63.4627 51.064C63.4464 54.0645 60.329 56.6007 56.5849 56.5357C55.5295 56.5162 54.4157 56.3019 53.4382 55.9122C51.2982 55.0582 49.7818 53.5904 49.7071 51.0997C49.6454 49.0149 51.0222 47.1088 53.3278 46.2093C54.3637 45.8001 55.497 45.6312 56.5881 45.3552ZM56.6011 53.7853C58.8125 53.7723 60.631 52.5578 60.6635 51.077C60.6927 49.58 58.9197 48.3492 56.6758 48.307C56.6206 48.307 56.5686 48.3038 56.5134 48.3038C54.2858 48.3265 52.4738 49.528 52.4446 50.9991C52.4121 52.5188 54.3247 53.7982 56.6011 53.7853Z" fill="#444444"/>
</svg>
