<svg width="42" height="35" viewBox="0 0 42 35" fill="none" xmlns="http://www.w3.org/2000/svg">
<path d="M41.2222 4.14363C39.6892 4.84615 38.0556 5.31226 36.3527 5.53858C38.1047 4.44567 39.4421 2.72764 40.0709 0.657091C38.4373 1.67512 36.6337 2.39363 34.7119 2.79495C33.1604 1.06851 30.9503 0 28.5381 0C23.8594 0 20.0922 3.96863 20.0922 8.83329C20.0922 9.53329 20.1486 10.2064 20.2878 10.8475C13.263 10.4891 7.04576 6.97055 2.86951 1.61034C2.14005 2.93209 1.71253 4.44567 1.71253 6.07452C1.71253 9.13281 3.21974 11.8445 5.46608 13.4136C4.10862 13.3867 2.77611 12.9744 1.64812 12.3257C1.64812 12.3526 1.64812 12.388 1.64812 12.4225C1.64812 16.7142 4.57721 20.279 8.41932 21.1001C7.73173 21.297 6.98134 21.3912 6.20358 21.3912C5.66253 21.3912 5.11665 21.3593 4.60378 21.2406C5.69876 24.7381 8.80579 27.3092 12.5006 27.3925C9.62542 29.7433 5.97412 31.1593 2.0225 31.1593C1.32928 31.1593 0.665043 31.1273 0 31.0381C3.74308 33.5596 8.17939 35 12.9635 35C28.5147 35 37.017 21.5385 37.017 9.86983C37.017 9.47945 37.0041 9.10252 36.9864 8.72812C38.6635 7.48462 40.0733 5.93149 41.2222 4.14363Z" fill="#115C07"/>
</svg>
