<svg width="17" height="12" viewBox="0 0 17 12" fill="none" xmlns="http://www.w3.org/2000/svg">
<path d="M6.82497 8.20012V3.4144L11.066 5.81232L6.82497 8.20012ZM16.1354 2.58176L15.9973 1.93958C15.9447 1.71222 15.8823 1.51165 15.8101 1.33785C15.7247 1.15732 15.626 1.01011 15.5141 0.896249C15.3694 0.729197 15.2214 0.588738 15.0701 0.474872C14.9519 0.401459 14.8007 0.337971 14.6166 0.28441C14.5905 0.28441 14.459 0.261 14.2223 0.21418C14.1236 0.193954 14.0316 0.183841 13.9462 0.183841C13.4137 0.143763 13.1277 0.123724 13.0879 0.123724C12.7724 0.0903887 12.4601 0.073721 12.1512 0.073721C11.8489 0.060237 11.5398 0.0501237 11.2239 0.0433817C10.6978 0.0298976 10.415 0.0231557 10.3756 0.0231557C9.88924 0.0096716 9.63611 0.00292969 9.61622 0.00292969H7.26901C7.24912 0.00292969 7.00262 0.0096716 6.52949 0.0231557C6.47684 0.0231557 6.18763 0.0298976 5.66185 0.0433817C5.34631 0.0501237 5.03721 0.060237 4.73456 0.073721C4.41902 0.073721 4.1068 0.0903887 3.79788 0.123724C3.75849 0.123724 3.4724 0.143763 2.93963 0.183841C2.87372 0.183841 2.78168 0.193954 2.66349 0.21418H2.6436C2.62372 0.220922 2.59905 0.227664 2.5696 0.234406C2.54014 0.241148 2.51216 0.24789 2.48565 0.254632L2.25866 0.284971C2.08782 0.331791 1.93981 0.395279 1.81462 0.475434C1.64378 0.602409 1.49264 0.742868 1.36119 0.896811C1.25589 1.00393 1.16053 1.15114 1.07511 1.33841C0.989689 1.54592 0.923966 1.74649 0.877942 1.94014L0.739871 2.58232L0.670835 3.4453C0.638066 3.6794 0.615054 3.97699 0.601799 4.33806C0.595172 4.47852 0.591858 4.813 0.591858 5.3415V6.64552C0.591858 7.16054 0.595172 7.48828 0.601799 7.62873C0.615054 8.00329 0.638066 8.30762 0.670835 8.54172L0.739871 9.39459L0.877942 10.0469C0.917339 10.2008 0.983061 10.3948 1.07511 10.6289C1.1539 10.8027 1.24926 10.9533 1.36119 11.0807C1.49264 11.2144 1.65041 11.3515 1.8345 11.4919C1.9792 11.5788 2.1436 11.6423 2.3277 11.6824C2.3936 11.6959 2.43963 11.7026 2.46577 11.7026L2.64305 11.7329C2.6957 11.7329 2.7351 11.7397 2.76124 11.7532L3.10642 11.8234L3.69792 11.8537C3.71117 11.8537 3.73253 11.8554 3.76198 11.8588C3.79144 11.8622 3.83249 11.8655 3.88514 11.8689C3.9378 11.8723 3.99045 11.874 4.0431 11.874C4.16792 11.874 4.3093 11.8807 4.46725 11.8942C4.4934 11.8942 4.64454 11.9009 4.92068 11.9144C5.0849 11.9144 5.23291 11.9212 5.36472 11.9346H5.79882C6.04219 11.9346 6.19334 11.938 6.25225 11.9448H7.08068C7.42273 11.9714 7.65616 11.9847 7.78098 11.9847H9.61512C9.81247 11.9712 10.0656 11.9644 10.3745 11.9644C10.4139 11.9644 10.5339 11.9594 10.7346 11.9493C10.9353 11.9391 11.098 11.9307 11.2228 11.924C11.3937 11.924 11.5481 11.9206 11.6862 11.9139H12.1496C12.3996 11.9139 12.7118 11.8938 13.0862 11.8537C13.2965 11.847 13.5826 11.8303 13.9445 11.8037C14.0167 11.7835 14.1087 11.7668 14.2206 11.7537C14.4574 11.7069 14.5888 11.6835 14.615 11.6835C14.7991 11.6299 14.9502 11.5665 15.0684 11.493C15.1866 11.4129 15.3346 11.2758 15.5124 11.0818C15.6373 10.9413 15.7359 10.7907 15.8085 10.6301C15.8611 10.5031 15.9235 10.3091 15.9957 10.048L16.1338 9.39571L16.2127 8.54284C16.2389 8.39564 16.2586 8.09131 16.2718 7.62986C16.2851 7.06802 16.2917 6.74028 16.2917 6.64664V5.34262C16.2917 5.24898 16.2851 4.92125 16.2718 4.35941C16.2652 4.27251 16.2569 4.11707 16.247 3.89308C16.237 3.6691 16.2288 3.52021 16.2221 3.44642L16.1354 2.58176Z" fill="#F7F7F7"/>
</svg>
