<svg width="21" height="21" viewBox="0 0 21 21" fill="none" xmlns="http://www.w3.org/2000/svg">
<path d="M10.4407 2.25008C8.25275 4.24106 6.07 6.21703 3.9068 8.21756C3.7413 8.37029 3.63574 8.6853 3.63444 8.92667C3.6162 12.0168 3.6175 15.1069 3.62662 18.1984C3.62923 19.0002 3.93807 19.3002 4.6978 19.3179C6.13515 19.352 6.43618 19.5457 7.22197 20.9503C6.1964 20.9503 5.17735 21.0389 4.17654 20.9284C2.8708 20.7853 2.06286 19.7352 2.05765 18.3497C2.04722 15.8501 2.05504 13.3505 2.05374 10.8508C2.05374 10.6026 2.05374 10.3531 2.05374 9.92216C1.6654 10.2467 1.37741 10.4881 1.02557 10.7826C0.693267 10.3817 0.363574 9.98489 0 9.54851C3.52498 6.34522 6.99392 3.19102 10.5059 0C14.0087 3.18284 17.4776 6.33431 21 9.53624C20.6573 9.96171 20.3419 10.3544 19.9979 10.7826C19.676 10.514 19.3828 10.2699 18.9932 9.94534C18.9775 10.2958 18.9593 10.5317 18.958 10.7663C18.9554 13.2427 18.9593 15.7205 18.9554 18.197C18.9528 19.9125 17.9689 20.9639 16.3361 20.9925C15.4956 21.0075 14.6537 20.9953 13.6738 20.9953C14.139 20.4143 14.5078 19.9261 14.9118 19.472C15.0082 19.3629 15.2193 19.3357 15.3822 19.3248C15.7067 19.3029 16.0338 19.3248 16.3595 19.3152C17.0502 19.2961 17.3786 18.9988 17.3825 18.2843C17.3968 15.126 17.3942 11.9677 17.3786 8.80803C17.3773 8.6103 17.2678 8.35529 17.1258 8.22438C14.9717 6.24703 12.8033 4.28742 10.6362 2.32508C10.6049 2.29917 10.5554 2.29372 10.4407 2.25008Z" fill="white"/>
</svg>
