<svg width="27" height="23" viewBox="0 0 27 23" fill="none" xmlns="http://www.w3.org/2000/svg">
<path d="M26.7183 2.67797C25.7247 3.132 24.6659 3.43324 23.5621 3.57951C24.6977 2.87318 25.5645 1.76284 25.9721 0.424669C24.9132 1.08261 23.7443 1.54697 22.4986 1.80634C21.493 0.690563 20.0605 0 18.4971 0C15.4646 0 13.0228 2.56487 13.0228 5.70883C13.0228 6.16123 13.0594 6.59623 13.1496 7.01057C8.59647 6.77893 4.56673 4.50497 1.85988 1.04074C1.38708 1.89497 1.10998 2.87317 1.10998 3.92587C1.10998 5.90241 2.08689 7.65491 3.54285 8.66901C2.66301 8.65161 1.79935 8.38517 1.06823 7.96594C1.06823 7.98334 1.06823 8.00617 1.06823 8.02847C1.06823 10.8021 2.96673 13.106 5.45701 13.6367C5.01135 13.7639 4.52498 13.8248 4.02087 13.8248C3.67019 13.8248 3.31637 13.8042 2.98395 13.7275C3.69367 15.9879 5.7075 17.6496 8.10228 17.7034C6.23874 19.2226 3.87214 20.1378 1.31089 20.1378C0.861578 20.1378 0.43105 20.1171 0 20.0595C2.42609 21.6891 5.3015 22.62 8.40234 22.62C18.4819 22.62 23.9927 13.92 23.9927 6.37873C23.9927 6.12643 23.9843 5.88283 23.9728 5.64086C25.0599 4.8372 25.9736 3.83344 26.7183 2.67797Z" fill="#444444"/>
</svg>
