<svg width="13" height="14" viewBox="0 0 13 14" fill="none" xmlns="http://www.w3.org/2000/svg">
<path d="M8.91715 0.787598C9.20942 0.787598 9.44031 0.80541 9.60984 0.841034C9.8085 0.888645 10.0276 0.962891 10.2672 1.06377C10.4485 1.14701 10.6472 1.25704 10.8632 1.39388C11.05 1.52473 11.2196 1.6644 11.3718 1.81289C11.5413 1.99734 11.6845 2.17279 11.8013 2.33926C11.9299 2.54735 12.0381 2.75244 12.1258 2.95454C12.2135 3.16263 12.2837 3.3797 12.3364 3.60577C12.3773 3.79588 12.3978 4.03659 12.3978 4.32792V9.66112C12.3978 9.9288 12.3773 10.1637 12.3364 10.3658C12.2778 10.6035 12.2076 10.8264 12.1258 11.0345C12.044 11.2189 11.9358 11.421 11.8013 11.6408C11.6904 11.8192 11.5472 11.9917 11.3718 12.1582C11.2081 12.3366 11.0386 12.4823 10.8632 12.5952C10.6468 12.732 10.4482 12.842 10.2672 12.9253C10.0626 13.0085 9.84352 13.0799 9.60984 13.1395C9.41118 13.1811 9.18029 13.2019 8.91715 13.2019H3.6746C3.38823 13.2019 3.15161 13.1811 2.96473 13.1395C2.7425 13.0859 2.52912 13.0145 2.32457 12.9253C2.12591 12.836 1.9243 12.726 1.71975 12.5952C1.562 12.4883 1.39542 12.3426 1.21999 12.1582C1.04457 11.9917 0.901385 11.8192 0.790437 11.6408C0.655924 11.4207 0.547758 11.2186 0.465938 11.0345C0.366444 10.7908 0.29346 10.5679 0.246987 10.3658C0.211967 10.1933 0.194458 9.95843 0.194458 9.66112V4.32792C0.194458 4.01295 0.211967 3.77224 0.246987 3.60577C0.293788 3.40967 0.366771 3.19259 0.465938 2.95454C0.553649 2.75244 0.661815 2.54735 0.790437 2.33926C0.895494 2.17879 1.03868 2.00932 1.21999 1.83087C1.39542 1.64642 1.562 1.50076 1.71975 1.39388C1.9243 1.26304 2.12591 1.153 2.32457 1.06377C2.56414 0.962558 2.78325 0.888312 2.98191 0.841034C3.15144 0.80541 3.38234 0.787598 3.6746 0.787598H8.91715ZM9.79394 4.32842C9.91078 4.32842 10.0189 4.30761 10.1184 4.26599C10.212 4.21838 10.3027 4.14996 10.3904 4.06073C10.4781 3.9715 10.5454 3.87928 10.5922 3.78406C10.6331 3.70082 10.6535 3.58496 10.6535 3.43647C10.6535 3.28798 10.6331 3.17211 10.5922 3.08888C10.5454 2.98767 10.484 2.89544 10.4081 2.81221C10.3204 2.74096 10.224 2.67853 10.1189 2.62493C10.0194 2.58331 9.91127 2.5625 9.79443 2.5625C9.64846 2.5625 9.53457 2.58331 9.45275 2.62493C9.35326 2.66655 9.2626 2.72897 9.18078 2.81221C9.09307 2.90143 9.02581 2.99366 8.97901 3.08888C8.9381 3.17211 8.91764 3.28798 8.91764 3.43647C8.91764 3.58496 8.9381 3.70082 8.97901 3.78406C9.01992 3.88527 9.08129 3.9775 9.16311 4.06073C9.25671 4.15595 9.35309 4.22437 9.45226 4.26599C9.53408 4.30761 9.64797 4.32842 9.79394 4.32842ZM6.29612 10.5531C6.51835 10.5531 6.75219 10.5263 6.99765 10.4727C7.249 10.425 7.47106 10.3596 7.66383 10.2764C7.83336 10.2051 8.02629 10.0951 8.24263 9.94628C8.4822 9.76783 8.65746 9.62216 8.7684 9.5093C8.92615 9.35481 9.06934 9.17652 9.19796 8.97443C9.33836 8.76035 9.44359 8.56408 9.51362 8.38562C9.60723 8.16555 9.67448 7.93965 9.71539 7.70792C9.76808 7.45822 9.79443 7.22033 9.79443 6.99427C9.79443 6.7682 9.76808 6.53031 9.71539 6.28061C9.67448 6.04888 9.60723 5.82298 9.51362 5.60291C9.4318 5.40082 9.32658 5.19872 9.19796 4.99663C9.07523 4.81218 8.93204 4.63971 8.7684 4.47924C8.61655 4.31876 8.44129 4.1731 8.24263 4.04225C8.00895 3.88178 7.81602 3.77174 7.66383 3.71214C7.47106 3.62891 7.249 3.56349 6.99765 3.51588C6.75219 3.46227 6.51835 3.43547 6.29612 3.43547C6.06834 3.43547 5.83171 3.46227 5.58625 3.51588C5.34668 3.56349 5.12757 3.62891 4.92891 3.71214C4.77705 3.77174 4.58412 3.88178 4.35011 4.04225C4.15145 4.1731 3.97619 4.31876 3.82433 4.47924C3.66069 4.63971 3.51751 4.81218 3.39478 4.99663C3.24881 5.22269 3.14064 5.42479 3.07028 5.60291C2.98846 5.79901 2.92415 6.02491 2.87734 6.28061C2.82465 6.53031 2.79831 6.7682 2.79831 6.99427C2.79831 7.22033 2.82465 7.45822 2.87734 7.70792C2.92415 7.96362 2.98846 8.18952 3.07028 8.38562C3.12886 8.54011 3.23703 8.73638 3.39478 8.97443C3.5234 9.17652 3.66658 9.35481 3.82433 9.5093C3.93528 9.62216 4.11054 9.76783 4.35011 9.94628C4.56644 10.0948 4.75937 10.2048 4.92891 10.2764C5.12757 10.3596 5.34668 10.425 5.58625 10.4727C5.83171 10.5263 6.06834 10.5531 6.29612 10.5531ZM6.29612 4.32842C6.64664 4.32842 6.98276 4.39683 7.30448 4.53367C7.63765 4.6765 7.92107 4.86678 8.15475 5.1045C8.39432 5.34821 8.58136 5.63354 8.71588 5.96049C8.85039 6.26979 8.91764 6.61455 8.91764 6.99477C8.91764 7.35734 8.85039 7.7021 8.71588 8.02904C8.58136 8.35599 8.39432 8.64132 8.15475 8.88503C7.92107 9.12275 7.63765 9.31303 7.30448 9.45586C6.98309 9.5927 6.64697 9.66112 6.29612 9.66112C5.93971 9.66112 5.60081 9.5927 5.27942 9.45586C4.95803 9.31902 4.67755 9.12875 4.43798 8.88503C4.18663 8.62934 3.99665 8.34401 3.86802 8.02904C3.7394 7.71408 3.67509 7.36932 3.67509 6.99477C3.67509 6.60223 3.7394 6.25747 3.86802 5.96049C3.99665 5.64553 4.18663 5.3602 4.43798 5.1045C4.67755 4.86079 4.95803 4.67051 5.27942 4.53367C5.60081 4.39683 5.93971 4.32842 6.29612 4.32842Z" fill="#F7F7F7"/>
</svg>
