<svg width="35" height="25" viewBox="0 0 35 25" fill="none" xmlns="http://www.w3.org/2000/svg">
<path d="M32.8125 6.3H32.8625V6.25V3.97727C32.8625 3.01163 32.1059 2.22273 31.1719 2.22273H3.82812C2.89413 2.22273 2.1375 3.01163 2.1375 3.97727V6.25V6.3H2.1875H32.8125ZM2.1875 8.47273H2.1375V8.52273V21.0227C2.1375 21.9884 2.89413 22.7773 3.82812 22.7773H31.1719C32.1059 22.7773 32.8625 21.9884 32.8625 21.0227V8.52273V8.47273H32.8125H2.1875ZM3.82812 0.05H31.1719C33.2533 0.05 34.95 1.81003 34.95 3.97727V21.0227C34.95 23.19 33.2533 24.95 31.1719 24.95H3.82812C1.74672 24.95 0.05 23.19 0.05 21.0227V3.97727C0.05 1.81003 1.74672 0.05 3.82812 0.05Z" fill="#444444" stroke="#444444" stroke-width="0.1"/>
</svg>
