<svg width="21" height="21" viewBox="0 0 21 21" fill="none" xmlns="http://www.w3.org/2000/svg">
<path d="M19.8551 20.8189C20.1214 21.0652 20.5405 21.0603 20.8006 20.8041C21.0664 20.5428 21.0664 20.1188 20.8012 19.8575M19.8551 20.8189L19.3987 19.3775C19.5659 19.2134 19.7654 19.1028 19.9762 19.0457L20.7858 19.8424L20.7864 19.8429L20.8012 19.8575M19.8551 20.8189L20.3349 20.3314L20.3355 20.3308L20.8012 19.8575M19.8551 20.8189L19.8396 20.8041M20.8012 19.8575L20.3352 20.3305L20.3346 20.3311L19.8546 20.8184C19.8495 20.8137 19.8445 20.8089 19.8396 20.8041M19.8396 20.8041L19.0375 20.0148M19.8396 20.8041L19.0375 20.0148M19.0375 20.0148C19.0938 19.7813 19.2136 19.5601 19.397 19.3793L19.0375 20.0148Z" fill="white" stroke="white" stroke-width="4"/>
</svg>
