<svg width="31" height="35" viewBox="0 0 31 35" fill="none" xmlns="http://www.w3.org/2000/svg">
<path d="M10.6365 35C9.85983 34.8859 9.0722 34.8229 8.31012 34.6486C3.99227 33.6629 0.623608 29.9137 0.08422 25.532C-0.634964 19.6881 3.32511 14.4138 9.16164 13.4555C10.2915 13.2702 11.4278 13.2428 12.5778 13.4473C12.5778 15.3639 12.5778 17.265 12.5778 19.1998C12.2748 19.1433 11.99 19.0794 11.7016 19.0374C8.88875 18.6276 6.21189 20.5953 5.84226 23.3406C5.44525 26.2867 7.41205 28.8796 10.3034 29.2693C13.213 29.6618 16.1773 27.4011 16.1509 23.9722C16.1189 19.8205 16.1518 15.6687 16.1545 11.5161C16.1563 7.83163 16.1545 4.14717 16.1545 0.462724C16.1545 0.316697 16.1545 0.169757 16.1545 0C18.0647 0 19.9412 0 21.8158 0C21.8989 0.588672 21.95 1.17735 22.0677 1.75233C22.87 5.65582 26.3308 8.58275 30.31 8.71692C30.6569 8.72878 30.7454 8.82096 30.7417 9.16321C30.7235 10.7823 30.7335 12.4023 30.7335 14.0223C30.7335 14.1446 30.7335 14.2669 30.7335 14.4211C27.436 14.4056 24.5228 13.3944 21.8688 11.4266C21.8688 11.611 21.8688 11.7315 21.8688 11.8519C21.8806 15.8896 21.8916 19.9282 21.9043 23.9658C21.9116 26.1663 21.3695 28.2161 20.1283 30.0405C18.1049 33.0159 15.2838 34.6541 11.6888 34.9425C11.5656 34.9525 11.4433 34.9808 11.321 35C11.0929 35 10.8647 35 10.6365 35Z" fill="#115C07"/>
</svg>
