<svg width="24" height="21" viewBox="0 0 24 21" fill="none" xmlns="http://www.w3.org/2000/svg">
<path d="M22.6728 10.5456H20.6552V4.44953C20.6552 3.63838 20.0651 2.97849 19.3397 2.97849H16.3036V1.51699C16.3036 0.730574 15.7314 0.0908203 15.0282 0.0908203H1.27538C0.572156 0.0908203 0 0.730574 0 1.51699V2.14584C0 2.36301 0.157406 2.53897 0.351563 2.53897C0.545719 2.53897 0.703125 2.36301 0.703125 2.14584V1.51699C0.703125 1.16417 0.959859 0.877081 1.27538 0.877081H15.0282C15.3437 0.877081 15.6004 1.16417 15.6004 1.51699V13.8987H0.703125V3.9891C0.703125 3.77194 0.545719 3.59597 0.351563 3.59597C0.157406 3.59597 0 3.77194 0 3.9891V17.3152C0 18.1016 0.572156 18.7413 1.27538 18.7413H2.08331C2.26008 19.819 3.10617 20.6383 4.12022 20.6383C5.13427 20.6383 5.98036 19.819 6.15713 18.7413H11.7496C11.9438 18.7413 12.1012 18.5654 12.1012 18.3482C12.1012 18.131 11.9438 17.9551 11.7496 17.9551H6.16495C6.00703 16.8522 5.15025 16.0069 4.12017 16.0069C3.09009 16.0069 2.23336 16.8523 2.07544 17.9551H1.27538C0.959859 17.9551 0.703125 17.668 0.703125 17.3152V14.6849H15.6004V17.9551H13.3622C13.168 17.9551 13.0106 18.1311 13.0106 18.3483C13.0106 18.5654 13.168 18.7414 13.3622 18.7414H17.9215C18.0983 19.8191 18.9444 20.6383 19.9584 20.6383C20.9724 20.6383 21.8185 19.8191 21.9953 18.7414H22.6845C23.4098 18.7414 24 18.0815 24 17.2704V12.0298C24 11.2114 23.4046 10.5456 22.6728 10.5456ZM4.12017 16.7932C4.87434 16.7932 5.48789 17.4793 5.48789 18.3226C5.48789 19.166 4.87434 19.8521 4.12017 19.8521C3.366 19.8521 2.75245 19.166 2.75245 18.3226C2.75245 17.4793 3.36605 16.7932 4.12017 16.7932ZM19.9584 19.8521C19.2043 19.8521 18.5907 19.1659 18.5907 18.3226C18.5907 17.4792 19.2043 16.7931 19.9584 16.7931C20.7126 16.7931 21.3262 17.4792 21.3262 18.3226C21.3262 19.1659 20.7126 19.8521 19.9584 19.8521ZM23.2969 14.1613H22.3613C22.1675 14.1613 22.0097 13.9849 22.0097 13.7681C22.0097 13.5513 22.1674 13.375 22.3613 13.375H23.2969V14.1613ZM23.2969 12.5887H22.3613C21.7798 12.5887 21.3066 13.1178 21.3066 13.7681C21.3066 14.4184 21.7797 14.9475 22.3613 14.9475H23.2969V17.2703C23.2969 17.6479 23.0221 17.9551 22.6845 17.9551H22.0032C21.8453 16.8522 20.9885 16.0069 19.9584 16.0069C18.9284 16.0069 18.0716 16.8522 17.9137 17.9551H16.3035V3.76475H19.3397C19.6774 3.76475 19.9521 4.07192 19.9521 4.44953V4.54111H17.5983C17.4042 4.54111 17.2468 4.71707 17.2468 4.93424V10.9388C17.2468 11.1559 17.4042 11.3319 17.5983 11.3319H22.6728C23.0169 11.3319 23.2968 11.645 23.2968 12.0297V12.5887H23.2969ZM19.9521 5.32737V10.5456H17.9499V5.32737H19.9521Z" fill="white"/>
</svg>
