<svg width="41" height="41" viewBox="0 0 41 41" fill="none" xmlns="http://www.w3.org/2000/svg">
<path d="M41.0009 18.7312C41.0009 19.9107 41.0009 21.0902 41.0009 22.2698C40.9703 22.2948 40.9155 22.3174 40.9132 22.3453C40.883 22.6614 40.8641 22.9789 40.8349 23.2955C40.8122 23.5409 40.783 23.7853 40.7495 24.0292C40.7259 24.2019 40.6976 24.3746 40.6575 24.5439C40.5881 24.8374 40.5051 25.1271 40.4324 25.4196C40.3451 25.7707 40.2843 26.1302 40.1724 26.4732C40.0111 26.9663 39.82 27.4499 39.6303 27.933C39.4572 28.3742 39.2859 28.8172 39.0835 29.2447C38.8664 29.7028 38.6263 30.1515 38.3724 30.5908C38.0813 31.0942 37.7751 31.5896 37.4552 32.0751C37.2429 32.3978 36.9999 32.7007 36.7626 33.006C36.4507 33.4075 36.1615 33.8317 35.8086 34.1945C35.1466 34.8753 34.4479 35.5208 33.76 36.1757C33.5609 36.3653 33.357 36.5545 33.1353 36.7159C32.7144 37.0221 32.2855 37.3179 31.8486 37.6006C31.3216 37.9412 30.8017 38.3017 30.2435 38.5838C29.4291 38.9957 28.5917 39.3652 27.7476 39.7134C27.2621 39.9139 26.745 40.0375 26.2415 40.1951C25.8981 40.3027 25.5588 40.4253 25.2102 40.5112C24.8129 40.6089 24.41 40.6924 24.0051 40.7476C23.4857 40.8184 22.9615 40.8518 22.4401 40.9089C22.3807 40.9155 22.3264 40.9684 22.2698 41C21.0902 41 19.9107 41 18.7312 41C18.7062 40.9693 18.684 40.9151 18.6557 40.9118C18.1735 40.8556 17.6903 40.8066 17.2081 40.7532C16.9651 40.7263 16.7184 40.7136 16.4806 40.6608C16.0692 40.5692 15.6639 40.4494 15.2553 40.3447C15.0062 40.281 14.75 40.2404 14.507 40.1592C14.1073 40.0257 13.7143 39.8719 13.3218 39.7181C12.7971 39.5119 12.2677 39.3161 11.7558 39.0816C11.2953 38.8702 10.8485 38.6258 10.4097 38.372C9.90675 38.0813 9.41182 37.7751 8.92679 37.4557C8.60406 37.2434 8.30163 37.0004 7.99589 36.7631C7.5939 36.4507 7.16785 36.1615 6.8055 35.8076C6.07559 35.0952 5.38014 34.3474 4.67524 33.6099C4.53322 33.4618 4.40064 33.3023 4.28174 33.1348C3.98072 32.7102 3.68018 32.2841 3.39803 31.8472C3.05785 31.3202 2.69785 30.7998 2.41618 30.2416C2.00475 29.4273 1.63485 28.5898 1.28617 27.7462C1.08565 27.2611 0.962036 26.7445 0.804921 26.242C0.697346 25.8985 0.574674 25.5588 0.488803 25.2102C0.391137 24.8129 0.307625 24.41 0.252422 24.0051C0.18165 23.4857 0.148151 22.9615 0.0910608 22.4396C0.0844553 22.3807 0.0316118 22.3264 0 22.2698C0 21.0902 0 19.9107 0 18.7312C0.0316118 18.6745 0.0858708 18.6198 0.0901171 18.5618C0.102856 18.382 0.0726599 18.1966 0.101441 18.0206C0.194861 17.4426 0.302435 16.8665 0.413784 16.2914C0.491162 15.8899 0.563822 15.4855 0.674699 15.0925C0.806336 14.6245 0.965339 14.1625 1.13283 13.7058C1.35034 13.1123 1.55605 12.5102 1.82641 11.9403C2.143 11.2722 2.49827 10.6192 2.88328 9.98791C3.32773 9.25942 3.80521 8.54933 4.30203 7.85576C4.59975 7.44056 4.94135 7.05131 5.29993 6.6866C6.11051 5.86139 6.91637 5.02863 7.83406 4.31713C7.95956 4.21994 8.07846 4.11283 8.2101 4.02413C8.59746 3.7618 8.98577 3.49947 9.38115 3.24894C9.83409 2.96207 10.2856 2.67002 10.7556 2.41382C11.166 2.18971 11.6001 2.00758 12.0271 1.81414C12.4324 1.63107 12.8353 1.43763 13.2529 1.28523C13.7473 1.105 14.2555 0.963451 14.758 0.805864C15.1015 0.69829 15.4412 0.575617 15.7898 0.489747C16.1876 0.39208 16.591 0.308569 16.9963 0.253366C17.5158 0.182593 18.0399 0.148623 18.5613 0.0920044C18.6203 0.0844553 18.6745 0.0316118 18.7312 0C19.9107 0 21.0902 0 22.2698 0C22.334 0.0316118 22.3967 0.0844553 22.4632 0.090589C22.8185 0.123144 23.178 0.124088 23.5305 0.175044C23.9268 0.232134 24.317 0.330272 24.7096 0.412369C25.1097 0.496352 25.5149 0.56335 25.908 0.673755C26.3765 0.805393 26.8379 0.964395 27.2951 1.13189C27.8887 1.3494 28.485 1.56549 29.0616 1.8231C29.5787 2.05429 30.0803 2.32417 30.5714 2.60774C31.0951 2.9097 31.6038 3.23903 32.1081 3.5726C32.4172 3.77737 32.7092 4.00903 33.0032 4.23551C33.3816 4.52709 33.784 4.79555 34.1237 5.12771C34.8692 5.85761 35.5878 6.6163 36.3045 7.37498C36.5489 7.63354 36.7687 7.91899 36.9754 8.20915C37.2472 8.58991 37.5015 8.98388 37.752 9.37926C38.0389 9.83221 38.3314 10.2833 38.5881 10.7537C38.8122 11.1641 38.9943 11.5982 39.1873 12.0252C39.3703 12.4305 39.5643 12.8334 39.7167 13.2505C39.8974 13.7455 40.0389 14.2546 40.1965 14.758C40.3041 15.1015 40.4267 15.4412 40.5126 15.7898C40.6103 16.1876 40.6938 16.5905 40.749 16.9963C40.8198 17.5153 40.8533 18.0395 40.9104 18.5608C40.9165 18.6203 40.9693 18.6745 41.0009 18.7312ZM38.5013 19.2214C38.1531 14.7301 36.3885 10.8924 33.2433 7.74819C30.0991 4.60494 26.2595 2.85308 21.7923 2.48884C21.7923 3.69622 21.7923 4.8852 21.7923 6.05436C21.9829 6.09871 22.1528 6.13457 22.3203 6.17798C22.8426 6.31245 23.3234 6.54836 23.7253 6.8975C24.0589 7.1872 24.3547 7.52879 24.6275 7.87841C24.9379 8.27615 25.1125 8.74844 25.2172 9.24243C25.2569 9.43022 25.2833 9.62178 25.3045 9.81286C25.3328 10.0709 25.4003 10.3385 25.3611 10.5881C25.297 10.9962 25.1951 11.4067 25.0441 11.7907C24.8964 12.1668 24.7133 12.5475 24.4633 12.8594C24.1877 13.2029 23.8296 13.485 23.4861 13.7686C23.0747 14.1083 22.5802 14.3079 22.0627 14.3848C21.7999 14.4239 21.7697 14.507 21.7706 14.7264C21.7777 16.1263 21.7744 17.5257 21.7744 18.9255C21.7744 19.0171 21.7744 19.1086 21.7744 19.2355C24.191 19.2355 26.5742 19.2355 28.9743 19.2355C28.9743 19.8918 28.9564 20.5132 28.9828 21.1322C28.9941 21.3979 29.0408 21.6932 29.172 21.9159C29.5273 22.5213 30.109 22.9695 31.0163 22.8478C31.4098 22.7949 31.7047 22.6038 31.9741 22.3637C32.3558 22.0235 32.5257 21.5739 32.5191 21.06C32.5158 20.8005 32.5186 20.541 32.5186 20.2815C32.5186 19.9385 32.5186 19.596 32.5186 19.2214C34.5333 19.2214 36.5177 19.2214 38.5013 19.2214ZM6.06616 19.2063C6.21714 18.198 6.70075 17.4167 7.41697 16.7316C8.14735 16.0333 9.04238 15.7077 9.98602 15.6436C11.8837 15.5152 14.0314 16.7476 14.4357 19.2063C16.0243 19.2063 17.6148 19.2063 19.2313 19.2063C19.2313 16.8076 19.2313 14.4282 19.2313 12.0262C19.3426 12.0262 19.428 12.0262 19.513 12.0262C20.0872 12.0262 20.6618 12.046 21.2346 12.0167C21.4738 12.0045 21.7248 11.92 21.9409 11.8105C22.3665 11.5954 22.6392 11.2203 22.8105 10.7867C22.8846 10.5989 22.927 10.3682 22.8916 10.1738C22.8327 9.85249 22.7425 9.54534 22.5387 9.2514C22.1863 8.74372 21.7239 8.51017 21.1436 8.48753C20.5165 8.46299 19.8881 8.48186 19.2289 8.48186C19.2289 6.47853 19.2289 4.49359 19.2289 2.49025C17.169 2.65209 15.2038 3.09465 13.3505 3.92458C9.73076 5.54574 6.8673 8.04638 4.87293 11.493C3.49758 13.8719 2.68936 16.4367 2.50677 19.2063C3.68537 19.2063 4.87482 19.2063 6.06616 19.2063ZM21.7815 38.5017C26.2788 38.1535 30.1128 36.3837 33.2556 33.24C36.3979 30.0968 38.1497 26.259 38.5013 21.7928C37.3038 21.7928 36.1148 21.7928 34.9494 21.7928C34.9022 21.9834 34.8598 22.1504 34.8197 22.3179C34.6932 22.844 34.4516 23.3215 34.1044 23.7244C33.8161 24.0589 33.4726 24.3529 33.124 24.627C32.7267 24.9389 32.2534 25.1115 31.7609 25.2168C31.5429 25.263 31.3197 25.2861 31.098 25.3111C30.8701 25.3371 30.6323 25.3998 30.4134 25.3621C30.0057 25.2918 29.5933 25.1979 29.2116 25.0436C28.8243 24.887 28.4374 24.6879 28.1118 24.4298C27.7179 24.1179 27.3692 23.7466 27.1045 23.3002C26.8615 22.8907 26.6657 22.468 26.6086 21.9985C26.585 21.805 26.5228 21.7706 26.3524 21.7711C24.9058 21.7763 23.4592 21.7739 22.0131 21.7749C21.9386 21.7749 21.8636 21.7843 21.7649 21.7914C21.7649 24.1976 21.7649 26.5761 21.7649 28.9743C21.0874 28.9743 20.4349 28.9554 19.7847 28.9842C19.5384 28.9951 19.2813 29.0838 19.0572 29.1942C18.6288 29.406 18.3594 29.784 18.1881 30.2171C18.114 30.4049 18.0744 30.6361 18.1098 30.8309C18.1683 31.1527 18.2617 31.4584 18.4641 31.7519C18.8104 32.2539 19.2681 32.4856 19.8371 32.5115C20.4707 32.5408 21.1072 32.5181 21.7819 32.5181C21.7815 34.5286 21.7815 36.5177 21.7815 38.5017ZM2.49639 21.7763C2.85355 26.2736 4.61249 30.1048 7.74913 33.2447C10.8919 36.3913 14.733 38.1436 19.2053 38.5017C19.2053 37.3104 19.2053 36.1157 19.2053 34.9471C19.0119 34.8999 18.8439 34.8598 18.6764 34.8187C18.1513 34.6904 17.67 34.4531 17.2709 34.1025C16.683 33.5863 16.1631 33.0168 15.9238 32.2261C15.7752 31.734 15.6554 31.2452 15.6294 30.7366C15.6195 30.5422 15.6681 30.3416 15.7092 30.1482C15.7818 29.8075 15.8295 29.4532 15.9602 29.1347C16.1626 28.6412 16.4155 28.1647 16.8382 27.8113C17.1251 27.5716 17.4115 27.331 17.7097 27.1069C18.0791 26.8294 18.5118 26.6718 18.96 26.6129C19.2006 26.5813 19.2303 26.5039 19.2294 26.2991C19.2223 24.8922 19.2256 23.4847 19.2256 22.0778C19.2256 21.9862 19.2256 21.8947 19.2256 21.7682C16.8109 21.7682 14.4272 21.7682 12.0262 21.7682C12.0262 21.1601 12.0196 20.5868 12.0285 20.014C12.0347 19.6219 11.9233 19.2799 11.7214 18.9416C11.2849 18.2107 10.3111 17.9347 9.5694 18.2537C9.16175 18.4287 8.87111 18.7316 8.65974 19.0926C8.53895 19.2988 8.49838 19.5729 8.48941 19.8187C8.46677 20.4599 8.48186 21.1025 8.48186 21.7758C6.47239 21.7763 4.48793 21.7763 2.49639 21.7763Z" fill="#115C07"/>
</svg>
