<svg width="31" height="35" viewBox="0 0 31 35" fill="none" xmlns="http://www.w3.org/2000/svg">
<path d="M16.2003 35C15.5851 35 14.9699 35 14.3546 35C14.3546 33.6268 14.3546 32.2536 14.3546 30.8856C13.7778 30.8078 13.2446 30.7608 12.7208 30.6626C9.02083 29.9696 5.95746 28.1751 3.55717 25.2775C1.35085 22.6132 0.161393 19.537 0.0152738 16.0814C-0.113755 13.0479 0.572407 10.1905 2.16177 7.60051C5.01665 2.9452 9.19259 0.365467 14.6511 0.0296494C18.2537 -0.191666 21.5555 0.828605 24.4437 3.0033C28.4547 6.02396 30.5679 10.0786 30.7473 15.1004C30.8413 17.7306 30.262 20.2556 29.3229 22.6995C28.0223 26.0859 26.1424 29.092 23.4328 31.5376C21.7964 33.0141 19.955 34.1412 17.7974 34.6864C17.2719 34.8197 16.7327 34.8966 16.2003 35ZM9.23446 21.5801C9.39254 21.5801 9.52755 21.5955 9.65829 21.5775C11.8398 21.2904 13.3215 19.6045 13.3275 17.3956C13.3326 15.4935 13.3292 13.5914 13.3284 11.6893C13.3284 11.5799 13.319 11.4714 13.3138 11.3629C11.2571 11.3629 9.23446 11.3629 7.19733 11.3629C7.19733 13.4102 7.19733 15.4414 7.19733 17.5101C7.88179 17.5101 8.54659 17.5101 9.23531 17.5101C9.23446 18.8876 9.23446 20.2283 9.23446 21.5801ZM19.4936 17.505C19.4936 18.8953 19.4936 20.2351 19.4936 21.5835C19.6414 21.5835 19.7662 21.5963 19.8875 21.5818C22.0246 21.3289 23.5644 19.6327 23.5798 17.4896C23.5935 15.5422 23.5832 13.594 23.5823 11.6466C23.5823 11.5491 23.5695 11.4526 23.5635 11.3663C21.5051 11.3663 19.4816 11.3663 17.4539 11.3663C17.4539 13.4171 17.4539 15.4482 17.4539 17.5041C18.1324 17.505 18.7895 17.505 19.4936 17.505Z" fill="#115C07"/>
</svg>
