<svg width="21" height="21" viewBox="0 0 21 21" fill="none" xmlns="http://www.w3.org/2000/svg">
<mask id="path-1-inside-1_2526_11595" fill="white">
<path d="M19.3867 1.85498C17.2356 -0.618326 13.7461 -0.618326 11.5951 1.85498L10.5 3.11407L9.40495 1.85498C7.25387 -0.618326 3.76439 -0.618326 1.61331 1.85498C-0.53777 4.32828 -0.53777 8.34048 1.61331 10.8138L2.72214 12.0887L10.2176 20.707C10.3095 20.8126 10.4059 20.905 10.5 21C10.5964 20.905 10.6928 20.8099 10.7824 20.707L18.2779 12.0887L19.3867 10.8138C21.5378 8.34048 21.5378 4.32828 19.3867 1.85498Z"/>
</mask>
<path d="M11.5951 1.85498L10.086 0.54249V0.54249L11.5951 1.85498ZM10.5 3.11407L8.9909 4.42656L10.5 6.16171L12.0091 4.42656L10.5 3.11407ZM9.40495 1.85498L7.89585 3.16747V3.16747L9.40495 1.85498ZM1.61331 10.8138L0.104213 12.1263H0.104213L1.61331 10.8138ZM2.72214 12.0887L1.21304 13.4012L2.72214 12.0887ZM10.2176 20.707L11.7267 19.3945L10.2176 20.707ZM10.5 21L9.07906 22.4075L10.483 23.8248L11.9039 22.4245L10.5 21ZM10.7824 20.707L9.27328 19.3945L10.7824 20.707ZM18.2779 12.0887L19.787 13.4012L19.787 13.4012L18.2779 12.0887ZM19.3867 10.8138L17.8776 9.50129V9.5013L19.3867 10.8138ZM20.8958 0.54249C17.9475 -2.8475 13.0343 -2.8475 10.086 0.54249L13.1041 3.16747C14.458 1.61084 16.5238 1.61084 17.8776 3.16747L20.8958 0.54249ZM10.086 0.54249L8.9909 1.80158L12.0091 4.42656L13.1042 3.16747L10.086 0.54249ZM12.0091 1.80158L10.914 0.54249L7.89585 3.16747L8.9909 4.42656L12.0091 1.80158ZM10.914 0.54249C7.96571 -2.8475 3.05255 -2.8475 0.104213 0.54249L3.12241 3.16747C4.47623 1.61084 6.54203 1.61084 7.89585 3.16747L10.914 0.54249ZM0.104213 0.54249C-2.7014 3.76838 -2.7014 8.90038 0.104213 12.1263L3.12241 9.50129C1.62586 7.78057 1.62586 4.88819 3.12241 3.16747L0.104213 0.54249ZM0.104213 12.1263L1.21304 13.4012L4.23123 10.7762L3.12241 9.50129L0.104213 12.1263ZM1.21304 13.4012L8.70853 22.0195L11.7267 19.3945L4.23123 10.7762L1.21304 13.4012ZM8.70853 22.0195C8.85668 22.1898 9.03172 22.3597 9.07906 22.4075L11.9209 19.5925C11.78 19.4503 11.7622 19.4353 11.7267 19.3945L8.70853 22.0195ZM11.9039 22.4245C11.9915 22.3382 12.1432 22.19 12.2915 22.0195L9.27328 19.3945C9.24251 19.4299 9.20139 19.4718 9.09612 19.5755L11.9039 22.4245ZM12.2915 22.0195L19.787 13.4012L16.7688 10.7762L9.27328 19.3945L12.2915 22.0195ZM19.787 13.4012L20.8958 12.1263L17.8776 9.5013L16.7688 10.7762L19.787 13.4012ZM20.8958 12.1263C23.7014 8.90038 23.7014 3.76838 20.8958 0.54249L17.8776 3.16747C19.3741 4.88819 19.3741 7.78057 17.8776 9.50129L20.8958 12.1263Z" fill="white" mask="url(#path-1-inside-1_2526_11595)"/>
</svg>
