<svg width="512" height="266" viewBox="0 0 512 266" fill="none" xmlns="http://www.w3.org/2000/svg">
<path d="M37.1406 141L0.390625 0.929988H46.5906L64.4406 101.94H58.5606L87.1206 0.929988H118.201L146.971 103.2H140.671L158.731 0.929988H204.931L168.181 141H126.811L99.5106 50.07H106.231L78.5106 141H37.1406ZM223.918 141V0.929988H265.918V54.9H307.498V0.929988H349.498V141H307.498V88.5H265.918V141H223.918ZM421.851 141V81.99L368.301 0.929988H420.171L458.181 68.55L437.811 68.97L470.991 0.929988H511.521L457.971 92.49L463.851 71.07V141H421.851Z" fill="#115C07"/>
<path d="M42.0188 265.5C35.5521 265.5 29.8188 264.4 24.8188 262.2C19.8188 259.933 15.8854 256.267 13.0188 251.2C10.1521 246.067 8.71875 239.233 8.71875 230.7C8.71875 222.367 10.1521 215.633 13.0188 210.5C15.8854 205.3 19.8188 201.533 24.8188 199.2C29.8188 196.8 35.5188 195.6 41.9188 195.6C46.3854 195.6 50.7188 196.067 54.9188 197C59.1188 197.867 63.1521 199.067 67.0188 200.6V218.4C62.6188 216 58.6854 214.133 55.2188 212.8C51.8188 211.4 48.2521 210.7 44.5188 210.7C41.4521 210.7 38.7521 211.267 36.4188 212.4C34.1521 213.467 32.3854 215.433 31.1188 218.3C29.8521 221.167 29.2188 225.267 29.2188 230.6C29.2188 235.8 29.8854 239.867 31.2188 242.8C32.5521 245.667 34.2854 247.7 36.4188 248.9C38.6188 250.033 40.9521 250.6 43.4188 250.6C44.8854 250.6 46.1854 250.5 47.3188 250.3C48.5188 250.1 49.4521 249.767 50.1188 249.3V240.6H41.2188V225.6H70.1188V257.5C65.7854 260.033 61.2188 262 56.4188 263.4C51.6854 264.8 46.8854 265.5 42.0188 265.5ZM113.805 265.5C107.205 265.5 101.372 264.267 96.3055 261.8C91.2388 259.333 87.2721 255.533 84.4055 250.4C81.5388 245.267 80.1055 238.7 80.1055 230.7C80.1055 219.233 83.1055 210.567 89.1055 204.7C95.1055 198.767 103.339 195.8 113.805 195.8C120.405 195.8 126.239 197.033 131.305 199.5C136.372 201.967 140.339 205.767 143.205 210.9C146.072 215.967 147.505 222.533 147.505 230.6C147.505 242.067 144.505 250.767 138.505 256.7C132.572 262.567 124.339 265.5 113.805 265.5ZM113.805 249.5C116.405 249.5 118.672 248.933 120.605 247.8C122.539 246.6 124.039 244.633 125.105 241.9C126.239 239.1 126.805 235.3 126.805 230.5C126.805 225.7 126.239 221.933 125.105 219.2C124.039 216.467 122.539 214.567 120.605 213.5C118.672 212.367 116.405 211.8 113.805 211.8C111.205 211.8 108.939 212.4 107.005 213.6C105.072 214.733 103.539 216.667 102.405 219.4C101.339 222.133 100.805 225.933 100.805 230.8C100.805 235.6 101.339 239.367 102.405 242.1C103.539 244.767 105.072 246.667 107.005 247.8C108.939 248.933 111.205 249.5 113.805 249.5ZM184.473 264V197.3H204.473V223H224.273V197.3H244.273V264H224.273V239H204.473V264H184.473ZM251.727 264L276.327 197.3H298.527L320.927 264H300.427L279.927 199.8L290.527 198.9L270.227 264H251.727ZM267.027 252.3L270.427 238.3H299.727L301.627 252.3H267.027ZM328.418 264V197.3H348.518V248.9H375.218V264H328.418ZM379.754 264L404.354 197.3H426.554L448.954 264H428.454L407.954 199.8L418.554 198.9L398.254 264H379.754ZM395.054 252.3L398.454 238.3H427.754L429.654 252.3H395.054ZM456.445 264V197.3H476.545V248.9H503.245V264H456.445Z" fill="#A4D232"/>
</svg>
