<svg width="40" height="35" viewBox="0 0 40 35" fill="none" xmlns="http://www.w3.org/2000/svg">
<path d="M25.0689 24.2689C25.0689 23.3881 24.7119 22.957 24.0232 22.957C23.5642 22.9758 23.1306 23.1257 22.8245 23.3881V29.2538C23.1306 29.5162 23.5642 29.6661 24.0232 29.6849C24.7119 29.6849 25.0689 29.2538 25.0689 28.373V24.2501V24.2689ZM34.0465 24.2689C34.0465 23.3881 33.6384 22.9383 32.8478 22.9383C32.0571 22.9383 31.6491 23.3881 31.6491 24.2689V25.1684H34.0465V24.2876V24.2689ZM8.41457 20.0335V31.1279H5.86414V20.0335H2.95664V18.1595H11.2456V20.0335H8.41457ZM16.0659 31.1279V30.0971C15.4283 30.7531 14.4591 31.2028 13.3624 31.2965C12.6738 31.3715 12.0362 31.0904 11.8067 30.6031C11.6536 30.1346 11.5771 29.6661 11.6026 29.1789V21.4953H13.949V28.5979C13.9235 28.8228 13.9235 29.0477 13.949 29.2726C13.9235 29.4975 14.1531 29.6661 14.4591 29.6849C14.4846 29.6849 14.4846 29.6849 14.5101 29.6849C15.1477 29.5912 15.7088 29.2913 16.0149 28.8603V21.4953H18.4123V31.1279H16.0404H16.0659ZM27.3388 28.2606C27.3643 28.8978 27.2878 29.5162 27.1093 30.1346C26.9307 30.7905 26.1146 31.2403 25.222 31.2028C24.2018 31.1654 23.2581 30.7718 22.6715 30.1346V31.0717H20.4781V18.1407H22.85V22.3761C23.4111 21.7389 24.3803 21.3454 25.4005 21.3266C26.3186 21.2891 27.1093 21.7577 27.2878 22.4136C27.4918 23.032 27.5683 23.6504 27.5173 24.2876V28.1294L27.3388 28.2606ZM36.3163 28.0732C36.3419 28.448 36.3419 28.8228 36.3163 29.1976C36.0868 30.4345 34.6076 31.334 32.8988 31.2778C31.7766 31.3153 30.7054 30.9405 30.0423 30.2846C29.4557 29.6099 29.2006 28.8041 29.2771 28.017V24.6437C29.2006 23.8566 29.4557 23.0507 30.0168 22.3761C31.2665 21.2329 33.5364 21.0455 35.1176 21.9638C35.3217 22.095 35.5257 22.2262 35.6787 22.3761C36.2143 23.0695 36.4694 23.8566 36.3929 24.6437V26.6489H31.6746V28.3543C31.6746 29.2538 32.0826 29.7036 32.8988 29.7036C33.4599 29.7223 33.9189 29.4225 33.9699 29.0102C33.9955 28.6167 33.9955 28.2044 33.9699 27.8108H36.3929V28.0732H36.3163ZM20.2741 10.251C20.2741 11.1693 19.8915 11.6191 19.1264 11.6191C18.3613 11.6191 17.9787 11.1693 17.9787 10.251V6.24057C17.9787 5.34103 18.3613 4.89125 19.1264 4.89125C19.8915 4.89125 20.2741 5.34103 20.2741 6.24057V10.251ZM39.3514 24.981C39.4534 22.6947 39.2238 20.4083 38.6628 18.1595C38.1782 16.6603 36.4949 15.5171 34.4035 15.3109C31.139 15.0486 26.2166 14.9174 19.662 14.9174C13.1074 14.9174 8.18503 15.0486 4.94598 15.3109C3.9258 15.4046 2.98214 15.7232 2.21701 16.2292C1.47739 16.7352 0.941794 17.3724 0.68675 18.1033C0.151159 20.3709 -0.0783813 22.6759 0.0236362 24.981C-0.0783813 27.2673 0.151158 29.5537 0.712254 31.8025C0.941793 32.5334 1.47738 33.1893 2.24252 33.6766C3.00765 34.1826 3.95131 34.5012 4.97148 34.5761C9.86832 34.8947 14.7907 35.0446 19.713 34.9884C24.6353 35.0446 29.5577 34.8947 34.4545 34.5761C35.4747 34.5012 36.4184 34.1826 37.158 33.6766C37.8976 33.1706 38.4332 32.5334 38.6883 31.8025C39.2238 29.5537 39.4534 27.2673 39.3514 24.981ZM11.067 5.13488L9.1797 0H6.34872C6.8333 1.08695 7.4199 2.30507 8.08302 3.65439C8.74613 5.0037 9.30723 6.39049 9.7153 7.79602V13.0808H12.2657V7.79602L15.4793 0.0187404H12.8523L11.067 5.13488ZM22.697 6.50293C22.799 5.69709 22.5185 4.91 21.9574 4.2166C20.7332 3.07343 18.4888 2.88603 16.933 3.78557C16.7035 3.91675 16.4995 4.06668 16.3464 4.2166C15.7853 4.91 15.5048 5.69709 15.6068 6.50293V9.98866C15.5303 10.7945 15.7853 11.6003 16.3464 12.2937C17.5706 13.4369 19.815 13.6243 21.3708 12.7248C21.6003 12.5936 21.8044 12.4437 21.9574 12.2937C22.5185 11.6003 22.799 10.7945 22.697 9.98866V6.50293ZM29.1751 3.3358V10.832C28.8946 11.263 28.3335 11.5816 27.6704 11.6753C27.3643 11.6753 27.1093 11.4879 27.1093 11.263V11.2443C27.0838 11.0194 27.0838 10.7945 27.1093 10.5696V3.3358H24.6609V11.0194C24.6353 11.5066 24.7119 12.0126 24.8649 12.4811C25.0944 12.9684 25.732 13.2682 26.4207 13.212C27.5173 13.1183 28.5375 12.6685 29.1496 11.9939V13.0808H31.5725V3.3358H29.1751Z" fill="#115C07"/>
</svg>
