<svg width="19" height="19" viewBox="0 0 19 19" fill="none" xmlns="http://www.w3.org/2000/svg">
<path d="M18 9.43519C18 4.53299 14.1867 0.544434 9.5 0.544434C4.81325 0.544434 1 4.53299 1 9.43519C1 12.0245 2.06451 14.3584 3.75895 15.9846L3.75091 15.992L4.02662 16.2352C4.04455 16.251 4.06402 16.2639 4.08195 16.2795C4.22845 16.4065 4.38022 16.5271 4.53476 16.6438C4.58484 16.6816 4.63491 16.7195 4.68591 16.7563C4.85096 16.8753 5.02035 16.9881 5.19344 17.0951C5.23115 17.1184 5.26916 17.1411 5.30718 17.1637C5.49665 17.2765 5.69015 17.3829 5.88827 17.4805C5.9028 17.4876 5.91764 17.4941 5.93216 17.5012C6.57785 17.8151 7.26713 18.0456 7.98793 18.1818C8.00678 18.1853 8.02564 18.1889 8.0448 18.1924C8.26858 18.2328 8.49484 18.2652 8.72387 18.2868C8.75169 18.2894 8.77951 18.291 8.80764 18.2936C9.03575 18.3133 9.26633 18.326 9.5 18.326C9.73151 18.326 9.95993 18.3133 10.1868 18.2943C10.2155 18.2917 10.2443 18.2901 10.273 18.2875C10.5002 18.2658 10.7246 18.2345 10.9462 18.1947C10.9654 18.1911 10.9849 18.1876 11.004 18.1837C11.714 18.0505 12.3934 17.8252 13.0307 17.5193C13.0542 17.508 13.078 17.4973 13.1015 17.4857C13.2922 17.3919 13.4786 17.2907 13.6613 17.1831C13.7067 17.1562 13.7519 17.1291 13.797 17.1013C13.9633 16.9988 14.1268 16.8918 14.2857 16.778C14.3428 16.7373 14.3988 16.6943 14.4553 16.6516C14.591 16.5494 14.7243 16.444 14.8538 16.3338C14.8825 16.3095 14.9134 16.2885 14.9415 16.2636L15.2244 16.0166L15.216 16.0092C16.9253 14.3823 18 12.0378 18 9.43519ZM1.61818 9.43519C1.61818 4.88927 5.15387 1.19103 9.5 1.19103C13.8461 1.19103 17.3818 4.88927 17.3818 9.43519C17.3818 11.8848 16.3541 14.0872 14.727 15.5983C14.6362 15.5326 14.5447 15.4738 14.451 15.4247L11.8339 14.0561C11.599 13.9333 11.4531 13.6863 11.4531 13.4118V12.4558C11.5137 12.3775 11.5777 12.289 11.6439 12.1917C11.9826 11.6912 12.2543 11.1345 12.4524 10.5354C12.8441 10.3408 13.0969 9.93275 13.0969 9.47205V8.32595C13.0969 8.04565 12.9986 7.77375 12.8227 7.56005V6.05121C12.8388 5.88342 12.8957 4.93647 12.2407 4.15537C11.6711 3.47515 10.749 3.13084 9.5 3.13084C8.25096 3.13084 7.32895 3.47515 6.75929 4.15505C6.10433 4.93614 6.1612 5.88309 6.17727 6.05088V7.55973C6.00171 7.77343 5.90311 8.04532 5.90311 8.32563V9.47173C5.90311 9.82768 6.0558 10.1597 6.31729 10.3838C6.56765 11.4096 7.08291 12.1862 7.27331 12.4493V13.385C7.27331 13.6488 7.13576 13.8912 6.91415 14.018L4.47016 15.4124C4.39227 15.4567 4.315 15.5084 4.23773 15.5663C2.63076 14.0558 1.61818 11.8671 1.61818 9.43519ZM14.1237 16.1055C14.0155 16.1876 13.9055 16.2672 13.7939 16.3431C13.7426 16.3781 13.6916 16.413 13.6393 16.4469C13.4935 16.5413 13.3451 16.6312 13.1936 16.7153C13.1603 16.7337 13.1266 16.7512 13.0929 16.7693C12.7448 16.9558 12.3847 17.1162 12.0148 17.2465C12.0018 17.251 11.9888 17.2558 11.9755 17.2604C11.7817 17.3276 11.5854 17.3874 11.387 17.4388C11.3864 17.4388 11.3858 17.4391 11.3851 17.4391C11.1849 17.4909 10.9821 17.5339 10.7781 17.5691C10.7725 17.5701 10.767 17.5714 10.7614 17.5723C10.5695 17.605 10.376 17.6286 10.1819 17.6464C10.1475 17.6496 10.1132 17.6519 10.0786 17.6545C9.88667 17.6697 9.6938 17.6793 9.5 17.6793C9.30404 17.6793 9.10869 17.6693 8.91427 17.6541C8.88058 17.6515 8.84689 17.6493 8.81351 17.646C8.61755 17.6279 8.42251 17.6037 8.22933 17.5707C8.22067 17.5691 8.21202 17.5675 8.20336 17.5659C7.79475 17.4944 7.39262 17.3893 7.001 17.2519C6.98895 17.2477 6.97658 17.2432 6.96453 17.239C6.77011 17.1698 6.57785 17.0932 6.389 17.0085C6.38776 17.0079 6.38622 17.0072 6.38498 17.0066C6.20633 16.9261 6.03107 16.8368 5.85798 16.7427C5.83542 16.7305 5.81255 16.7188 5.79029 16.7062C5.63235 16.618 5.4778 16.5226 5.32542 16.423C5.28029 16.3933 5.23547 16.3632 5.19096 16.3328C5.05064 16.2368 4.91216 16.1369 4.7774 16.0312C4.76349 16.0202 4.7502 16.0085 4.73629 15.9975C4.74618 15.9917 4.75607 15.9859 4.76596 15.9801L7.20995 14.5857C7.63031 14.3458 7.89149 13.8857 7.89149 13.385L7.89118 12.2204L7.82009 12.1305C7.81329 12.1225 7.14504 11.2722 6.89251 10.1209L6.86438 9.99289L6.75898 9.92144C6.61031 9.82089 6.52129 9.65277 6.52129 9.4714V8.3253C6.52129 8.17497 6.58218 8.03498 6.69345 7.92991L6.79545 7.83356V6.03278L6.79267 5.99043C6.79175 5.98267 6.70056 5.20513 7.22416 4.58084C7.67111 4.04804 8.43704 3.77744 9.5 3.77744C10.5589 3.77744 11.3224 4.04578 11.7706 4.5747C12.2936 5.19252 12.2079 5.98461 12.2073 5.99107L12.2045 7.83421L12.3065 7.93055C12.4175 8.0353 12.4787 8.17561 12.4787 8.32595V9.47205C12.4787 9.70256 12.3288 9.91174 12.1137 9.98125L11.9601 10.0307L11.9106 10.1907C11.7282 10.7834 11.4686 11.3307 11.1391 11.8176C11.0581 11.9372 10.9793 12.0433 10.9116 12.1244L10.835 12.2159V13.4118C10.835 13.9329 11.1119 14.4017 11.5576 14.6345L14.1747 16.003C14.1914 16.0118 14.2078 16.0208 14.2241 16.0299C14.1911 16.0561 14.1571 16.0803 14.1237 16.1055Z" fill="white" stroke="white" stroke-width="0.3"/>
</svg>
