<svg width="18" height="18" viewBox="0 0 18 18" fill="none" xmlns="http://www.w3.org/2000/svg">
<mask id="path-1-outside-1_1676_12293" maskUnits="userSpaceOnUse" x="0" y="-0.410645" width="18" height="19" fill="black">
<rect fill="white" y="-0.410645" width="18" height="19"/>
<path d="M17 8.95216C17 4.34106 13.4111 0.589355 9 0.589355C4.58894 0.589355 1 4.34106 1 8.95216C1 11.3877 2.00189 13.583 3.59665 15.1127L3.58909 15.1197L3.84858 15.3483C3.86545 15.3632 3.88378 15.3754 3.90065 15.39C4.03855 15.5095 4.18138 15.6229 4.32684 15.7327C4.37396 15.7683 4.42109 15.8039 4.46909 15.8386C4.62444 15.9505 4.78385 16.0566 4.94676 16.1573C4.98225 16.1791 5.01804 16.2004 5.05382 16.2217C5.23215 16.3279 5.41425 16.4279 5.60073 16.5197C5.6144 16.5264 5.62836 16.5325 5.64204 16.5392C6.24975 16.8345 6.89847 17.0513 7.57687 17.1793C7.59462 17.1827 7.61236 17.186 7.6304 17.1894C7.84102 17.2274 8.05396 17.2578 8.26953 17.2782C8.29571 17.2806 8.32189 17.2821 8.34836 17.2846C8.56306 17.3031 8.78007 17.315 9 17.315C9.21789 17.315 9.43287 17.3031 9.6464 17.2852C9.67346 17.2827 9.70051 17.2812 9.72756 17.2788C9.94138 17.2584 10.1526 17.2289 10.3612 17.1915C10.3792 17.1882 10.3975 17.1848 10.4156 17.1812C11.0838 17.0559 11.7232 16.8439 12.3231 16.5562C12.3452 16.5456 12.3676 16.5356 12.3897 16.5246C12.5692 16.4364 12.7446 16.3412 12.9165 16.24C12.9593 16.2147 13.0017 16.1892 13.0442 16.163C13.2007 16.0666 13.3546 15.966 13.5041 15.8589C13.558 15.8206 13.6106 15.7802 13.6639 15.74C13.7916 15.6439 13.9169 15.5448 14.0388 15.4411C14.0659 15.4183 14.095 15.3985 14.1215 15.3751L14.3876 15.1428L14.3798 15.1358C15.9885 13.6055 17 11.4002 17 8.95216ZM1.58182 8.95216C1.58182 4.67618 4.90953 1.19756 9 1.19756C13.0905 1.19756 16.4182 4.67618 16.4182 8.95216C16.4182 11.2563 15.4509 13.3279 13.9196 14.7493C13.834 14.6875 13.7479 14.6322 13.6598 14.586L11.1967 13.2987C10.9756 13.1831 10.8383 12.9508 10.8383 12.6926V11.7934C10.8953 11.7198 10.9555 11.6365 11.0177 11.5449C11.3366 11.0742 11.5923 10.5505 11.7788 9.98702C12.1473 9.80395 12.3853 9.42017 12.3853 8.98683V7.90879C12.3853 7.64513 12.2928 7.38938 12.1273 7.18837V5.76913C12.1424 5.6113 12.1959 4.72058 11.5795 3.98587C11.0433 3.34604 10.1756 3.02217 9 3.02217C7.82444 3.02217 6.95665 3.34604 6.42051 3.98557C5.80407 4.72028 5.8576 5.61099 5.87273 5.76882V7.18807C5.70749 7.38908 5.61469 7.64483 5.61469 7.90848V8.98653C5.61469 9.32134 5.7584 9.63365 6.00451 9.8444C6.24015 10.8093 6.72509 11.5398 6.90429 11.7873V12.6674C6.90429 12.9155 6.77484 13.1436 6.56626 13.2628L4.26604 14.5744C4.19273 14.6161 4.12 14.6647 4.04727 14.7192C2.53484 13.2984 1.58182 11.2396 1.58182 8.95216ZM13.3517 15.2264C13.2499 15.3036 13.1463 15.3784 13.0413 15.4499C12.993 15.4828 12.945 15.5156 12.8959 15.5475C12.7585 15.6363 12.6189 15.7209 12.4764 15.7999C12.4449 15.8173 12.4132 15.8337 12.3815 15.8507C12.054 16.0262 11.7151 16.177 11.3668 16.2996C11.3546 16.3038 11.3424 16.3084 11.3299 16.3126C11.1475 16.3759 10.9628 16.4322 10.776 16.4805L10.7743 16.4808C10.5857 16.5295 10.3949 16.5699 10.2029 16.6031C10.1977 16.604 10.1924 16.6052 10.1872 16.6061C10.0065 16.6368 9.82444 16.659 9.64175 16.6757C9.60945 16.6788 9.57716 16.6809 9.54458 16.6833C9.36393 16.6976 9.1824 16.7068 9 16.7068C8.81556 16.7068 8.63171 16.6973 8.44873 16.683C8.41702 16.6806 8.38531 16.6785 8.35389 16.6754C8.16945 16.6584 7.98589 16.6356 7.80407 16.6046C7.79593 16.6031 7.78778 16.6015 7.77964 16.6C7.39505 16.5328 7.01658 16.434 6.648 16.3047C6.63665 16.3008 6.62502 16.2965 6.61367 16.2926C6.43069 16.2275 6.24975 16.1554 6.072 16.0758C6.07084 16.0751 6.06938 16.0745 6.06822 16.0739C5.90007 15.9982 5.73513 15.9143 5.57222 15.8258C5.55098 15.8142 5.52945 15.8033 5.50851 15.7914C5.35985 15.7084 5.2144 15.6187 5.07098 15.525C5.02851 15.497 4.98633 15.4688 4.94444 15.4402C4.81236 15.3499 4.68204 15.2559 4.5552 15.1565C4.54211 15.1461 4.5296 15.1352 4.51651 15.1248C4.52582 15.1194 4.53513 15.1139 4.54444 15.1084L6.84465 13.7968C7.24029 13.5712 7.48611 13.1384 7.48611 12.6674L7.48582 11.572L7.41891 11.4875C7.41251 11.4799 6.78356 10.6801 6.54589 9.59716L6.51942 9.47674L6.42022 9.40953C6.28029 9.31495 6.19651 9.15682 6.19651 8.98622V7.90818C6.19651 7.76677 6.25382 7.6351 6.35855 7.53626L6.45455 7.44564V5.75179L6.45193 5.71195C6.45105 5.70466 6.36524 4.97329 6.85804 4.38607C7.27869 3.88491 7.99956 3.63038 9 3.63038C9.99665 3.63038 10.7152 3.88278 11.137 4.38029C11.6292 4.96143 11.5487 5.70648 11.5481 5.71256L11.5455 7.44625L11.6415 7.53687C11.7459 7.6354 11.8035 7.76738 11.8035 7.90879V8.98683C11.8035 9.20365 11.6624 9.40041 11.4599 9.46579L11.3153 9.51232L11.2688 9.66285C11.0972 10.2203 10.8528 10.7351 10.5427 11.1931C10.4665 11.3056 10.3923 11.4054 10.3286 11.4817L10.2564 11.5677V12.6926C10.2564 13.1828 10.5171 13.6238 10.9366 13.8427L13.3997 15.13C13.4154 15.1382 13.4308 15.1467 13.4463 15.1552C13.4151 15.1799 13.3831 15.2027 13.3517 15.2264Z"/>
</mask>
<path d="M17 8.95216C17 4.34106 13.4111 0.589355 9 0.589355C4.58894 0.589355 1 4.34106 1 8.95216C1 11.3877 2.00189 13.583 3.59665 15.1127L3.58909 15.1197L3.84858 15.3483C3.86545 15.3632 3.88378 15.3754 3.90065 15.39C4.03855 15.5095 4.18138 15.6229 4.32684 15.7327C4.37396 15.7683 4.42109 15.8039 4.46909 15.8386C4.62444 15.9505 4.78385 16.0566 4.94676 16.1573C4.98225 16.1791 5.01804 16.2004 5.05382 16.2217C5.23215 16.3279 5.41425 16.4279 5.60073 16.5197C5.6144 16.5264 5.62836 16.5325 5.64204 16.5392C6.24975 16.8345 6.89847 17.0513 7.57687 17.1793C7.59462 17.1827 7.61236 17.186 7.6304 17.1894C7.84102 17.2274 8.05396 17.2578 8.26953 17.2782C8.29571 17.2806 8.32189 17.2821 8.34836 17.2846C8.56306 17.3031 8.78007 17.315 9 17.315C9.21789 17.315 9.43287 17.3031 9.6464 17.2852C9.67346 17.2827 9.70051 17.2812 9.72756 17.2788C9.94138 17.2584 10.1526 17.2289 10.3612 17.1915C10.3792 17.1882 10.3975 17.1848 10.4156 17.1812C11.0838 17.0559 11.7232 16.8439 12.3231 16.5562C12.3452 16.5456 12.3676 16.5356 12.3897 16.5246C12.5692 16.4364 12.7446 16.3412 12.9165 16.24C12.9593 16.2147 13.0017 16.1892 13.0442 16.163C13.2007 16.0666 13.3546 15.966 13.5041 15.8589C13.558 15.8206 13.6106 15.7802 13.6639 15.74C13.7916 15.6439 13.9169 15.5448 14.0388 15.4411C14.0659 15.4183 14.095 15.3985 14.1215 15.3751L14.3876 15.1428L14.3798 15.1358C15.9885 13.6055 17 11.4002 17 8.95216ZM1.58182 8.95216C1.58182 4.67618 4.90953 1.19756 9 1.19756C13.0905 1.19756 16.4182 4.67618 16.4182 8.95216C16.4182 11.2563 15.4509 13.3279 13.9196 14.7493C13.834 14.6875 13.7479 14.6322 13.6598 14.586L11.1967 13.2987C10.9756 13.1831 10.8383 12.9508 10.8383 12.6926V11.7934C10.8953 11.7198 10.9555 11.6365 11.0177 11.5449C11.3366 11.0742 11.5923 10.5505 11.7788 9.98702C12.1473 9.80395 12.3853 9.42017 12.3853 8.98683V7.90879C12.3853 7.64513 12.2928 7.38938 12.1273 7.18837V5.76913C12.1424 5.6113 12.1959 4.72058 11.5795 3.98587C11.0433 3.34604 10.1756 3.02217 9 3.02217C7.82444 3.02217 6.95665 3.34604 6.42051 3.98557C5.80407 4.72028 5.8576 5.61099 5.87273 5.76882V7.18807C5.70749 7.38908 5.61469 7.64483 5.61469 7.90848V8.98653C5.61469 9.32134 5.7584 9.63365 6.00451 9.8444C6.24015 10.8093 6.72509 11.5398 6.90429 11.7873V12.6674C6.90429 12.9155 6.77484 13.1436 6.56626 13.2628L4.26604 14.5744C4.19273 14.6161 4.12 14.6647 4.04727 14.7192C2.53484 13.2984 1.58182 11.2396 1.58182 8.95216ZM13.3517 15.2264C13.2499 15.3036 13.1463 15.3784 13.0413 15.4499C12.993 15.4828 12.945 15.5156 12.8959 15.5475C12.7585 15.6363 12.6189 15.7209 12.4764 15.7999C12.4449 15.8173 12.4132 15.8337 12.3815 15.8507C12.054 16.0262 11.7151 16.177 11.3668 16.2996C11.3546 16.3038 11.3424 16.3084 11.3299 16.3126C11.1475 16.3759 10.9628 16.4322 10.776 16.4805L10.7743 16.4808C10.5857 16.5295 10.3949 16.5699 10.2029 16.6031C10.1977 16.604 10.1924 16.6052 10.1872 16.6061C10.0065 16.6368 9.82444 16.659 9.64175 16.6757C9.60945 16.6788 9.57716 16.6809 9.54458 16.6833C9.36393 16.6976 9.1824 16.7068 9 16.7068C8.81556 16.7068 8.63171 16.6973 8.44873 16.683C8.41702 16.6806 8.38531 16.6785 8.35389 16.6754C8.16945 16.6584 7.98589 16.6356 7.80407 16.6046C7.79593 16.6031 7.78778 16.6015 7.77964 16.6C7.39505 16.5328 7.01658 16.434 6.648 16.3047C6.63665 16.3008 6.62502 16.2965 6.61367 16.2926C6.43069 16.2275 6.24975 16.1554 6.072 16.0758C6.07084 16.0751 6.06938 16.0745 6.06822 16.0739C5.90007 15.9982 5.73513 15.9143 5.57222 15.8258C5.55098 15.8142 5.52945 15.8033 5.50851 15.7914C5.35985 15.7084 5.2144 15.6187 5.07098 15.525C5.02851 15.497 4.98633 15.4688 4.94444 15.4402C4.81236 15.3499 4.68204 15.2559 4.5552 15.1565C4.54211 15.1461 4.5296 15.1352 4.51651 15.1248C4.52582 15.1194 4.53513 15.1139 4.54444 15.1084L6.84465 13.7968C7.24029 13.5712 7.48611 13.1384 7.48611 12.6674L7.48582 11.572L7.41891 11.4875C7.41251 11.4799 6.78356 10.6801 6.54589 9.59716L6.51942 9.47674L6.42022 9.40953C6.28029 9.31495 6.19651 9.15682 6.19651 8.98622V7.90818C6.19651 7.76677 6.25382 7.6351 6.35855 7.53626L6.45455 7.44564V5.75179L6.45193 5.71195C6.45105 5.70466 6.36524 4.97329 6.85804 4.38607C7.27869 3.88491 7.99956 3.63038 9 3.63038C9.99665 3.63038 10.7152 3.88278 11.137 4.38029C11.6292 4.96143 11.5487 5.70648 11.5481 5.71256L11.5455 7.44625L11.6415 7.53687C11.7459 7.6354 11.8035 7.76738 11.8035 7.90879V8.98683C11.8035 9.20365 11.6624 9.40041 11.4599 9.46579L11.3153 9.51232L11.2688 9.66285C11.0972 10.2203 10.8528 10.7351 10.5427 11.1931C10.4665 11.3056 10.3923 11.4054 10.3286 11.4817L10.2564 11.5677V12.6926C10.2564 13.1828 10.5171 13.6238 10.9366 13.8427L13.3997 15.13C13.4154 15.1382 13.4308 15.1467 13.4463 15.1552C13.4151 15.1799 13.3831 15.2027 13.3517 15.2264Z" fill="white"/>
<path d="M17 8.95216C17 4.34106 13.4111 0.589355 9 0.589355C4.58894 0.589355 1 4.34106 1 8.95216C1 11.3877 2.00189 13.583 3.59665 15.1127L3.58909 15.1197L3.84858 15.3483C3.86545 15.3632 3.88378 15.3754 3.90065 15.39C4.03855 15.5095 4.18138 15.6229 4.32684 15.7327C4.37396 15.7683 4.42109 15.8039 4.46909 15.8386C4.62444 15.9505 4.78385 16.0566 4.94676 16.1573C4.98225 16.1791 5.01804 16.2004 5.05382 16.2217C5.23215 16.3279 5.41425 16.4279 5.60073 16.5197C5.6144 16.5264 5.62836 16.5325 5.64204 16.5392C6.24975 16.8345 6.89847 17.0513 7.57687 17.1793C7.59462 17.1827 7.61236 17.186 7.6304 17.1894C7.84102 17.2274 8.05396 17.2578 8.26953 17.2782C8.29571 17.2806 8.32189 17.2821 8.34836 17.2846C8.56306 17.3031 8.78007 17.315 9 17.315C9.21789 17.315 9.43287 17.3031 9.6464 17.2852C9.67346 17.2827 9.70051 17.2812 9.72756 17.2788C9.94138 17.2584 10.1526 17.2289 10.3612 17.1915C10.3792 17.1882 10.3975 17.1848 10.4156 17.1812C11.0838 17.0559 11.7232 16.8439 12.3231 16.5562C12.3452 16.5456 12.3676 16.5356 12.3897 16.5246C12.5692 16.4364 12.7446 16.3412 12.9165 16.24C12.9593 16.2147 13.0017 16.1892 13.0442 16.163C13.2007 16.0666 13.3546 15.966 13.5041 15.8589C13.558 15.8206 13.6106 15.7802 13.6639 15.74C13.7916 15.6439 13.9169 15.5448 14.0388 15.4411C14.0659 15.4183 14.095 15.3985 14.1215 15.3751L14.3876 15.1428L14.3798 15.1358C15.9885 13.6055 17 11.4002 17 8.95216ZM1.58182 8.95216C1.58182 4.67618 4.90953 1.19756 9 1.19756C13.0905 1.19756 16.4182 4.67618 16.4182 8.95216C16.4182 11.2563 15.4509 13.3279 13.9196 14.7493C13.834 14.6875 13.7479 14.6322 13.6598 14.586L11.1967 13.2987C10.9756 13.1831 10.8383 12.9508 10.8383 12.6926V11.7934C10.8953 11.7198 10.9555 11.6365 11.0177 11.5449C11.3366 11.0742 11.5923 10.5505 11.7788 9.98702C12.1473 9.80395 12.3853 9.42017 12.3853 8.98683V7.90879C12.3853 7.64513 12.2928 7.38938 12.1273 7.18837V5.76913C12.1424 5.6113 12.1959 4.72058 11.5795 3.98587C11.0433 3.34604 10.1756 3.02217 9 3.02217C7.82444 3.02217 6.95665 3.34604 6.42051 3.98557C5.80407 4.72028 5.8576 5.61099 5.87273 5.76882V7.18807C5.70749 7.38908 5.61469 7.64483 5.61469 7.90848V8.98653C5.61469 9.32134 5.7584 9.63365 6.00451 9.8444C6.24015 10.8093 6.72509 11.5398 6.90429 11.7873V12.6674C6.90429 12.9155 6.77484 13.1436 6.56626 13.2628L4.26604 14.5744C4.19273 14.6161 4.12 14.6647 4.04727 14.7192C2.53484 13.2984 1.58182 11.2396 1.58182 8.95216ZM13.3517 15.2264C13.2499 15.3036 13.1463 15.3784 13.0413 15.4499C12.993 15.4828 12.945 15.5156 12.8959 15.5475C12.7585 15.6363 12.6189 15.7209 12.4764 15.7999C12.4449 15.8173 12.4132 15.8337 12.3815 15.8507C12.054 16.0262 11.7151 16.177 11.3668 16.2996C11.3546 16.3038 11.3424 16.3084 11.3299 16.3126C11.1475 16.3759 10.9628 16.4322 10.776 16.4805L10.7743 16.4808C10.5857 16.5295 10.3949 16.5699 10.2029 16.6031C10.1977 16.604 10.1924 16.6052 10.1872 16.6061C10.0065 16.6368 9.82444 16.659 9.64175 16.6757C9.60945 16.6788 9.57716 16.6809 9.54458 16.6833C9.36393 16.6976 9.1824 16.7068 9 16.7068C8.81556 16.7068 8.63171 16.6973 8.44873 16.683C8.41702 16.6806 8.38531 16.6785 8.35389 16.6754C8.16945 16.6584 7.98589 16.6356 7.80407 16.6046C7.79593 16.6031 7.78778 16.6015 7.77964 16.6C7.39505 16.5328 7.01658 16.434 6.648 16.3047C6.63665 16.3008 6.62502 16.2965 6.61367 16.2926C6.43069 16.2275 6.24975 16.1554 6.072 16.0758C6.07084 16.0751 6.06938 16.0745 6.06822 16.0739C5.90007 15.9982 5.73513 15.9143 5.57222 15.8258C5.55098 15.8142 5.52945 15.8033 5.50851 15.7914C5.35985 15.7084 5.2144 15.6187 5.07098 15.525C5.02851 15.497 4.98633 15.4688 4.94444 15.4402C4.81236 15.3499 4.68204 15.2559 4.5552 15.1565C4.54211 15.1461 4.5296 15.1352 4.51651 15.1248C4.52582 15.1194 4.53513 15.1139 4.54444 15.1084L6.84465 13.7968C7.24029 13.5712 7.48611 13.1384 7.48611 12.6674L7.48582 11.572L7.41891 11.4875C7.41251 11.4799 6.78356 10.6801 6.54589 9.59716L6.51942 9.47674L6.42022 9.40953C6.28029 9.31495 6.19651 9.15682 6.19651 8.98622V7.90818C6.19651 7.76677 6.25382 7.6351 6.35855 7.53626L6.45455 7.44564V5.75179L6.45193 5.71195C6.45105 5.70466 6.36524 4.97329 6.85804 4.38607C7.27869 3.88491 7.99956 3.63038 9 3.63038C9.99665 3.63038 10.7152 3.88278 11.137 4.38029C11.6292 4.96143 11.5487 5.70648 11.5481 5.71256L11.5455 7.44625L11.6415 7.53687C11.7459 7.6354 11.8035 7.76738 11.8035 7.90879V8.98683C11.8035 9.20365 11.6624 9.40041 11.4599 9.46579L11.3153 9.51232L11.2688 9.66285C11.0972 10.2203 10.8528 10.7351 10.5427 11.1931C10.4665 11.3056 10.3923 11.4054 10.3286 11.4817L10.2564 11.5677V12.6926C10.2564 13.1828 10.5171 13.6238 10.9366 13.8427L13.3997 15.13C13.4154 15.1382 13.4308 15.1467 13.4463 15.1552C13.4151 15.1799 13.3831 15.2027 13.3517 15.2264Z" stroke="white" stroke-width="0.6" mask="url(#path-1-outside-1_1676_12293)"/>
</svg>
