<svg width="17" height="19" viewBox="0 0 17 19" fill="none" xmlns="http://www.w3.org/2000/svg">
<path d="M13.9899 2.73904C13.9127 2.73904 13.8395 2.71992 13.7745 2.68551C11.9619 1.80614 10.3932 1.43145 8.51569 1.43145C6.64626 1.43145 4.8703 1.8482 3.2569 2.68551C3.02931 2.80021 2.7489 2.71992 2.61479 2.50964C2.49287 2.29553 2.57821 2.02025 2.80173 1.90555C4.55737 1.00706 6.4837 0.544434 8.51569 0.544434C10.5274 0.544434 12.283 0.96118 14.2093 1.89408C14.445 2.00878 14.5304 2.27641 14.4085 2.49052C14.319 2.64728 14.1606 2.73904 13.9899 2.73904ZM0.473071 7.40354C0.3796 7.40354 0.286128 7.37677 0.200784 7.32324C-0.0146069 7.18178 -0.0633741 6.9065 0.0869931 6.70004C1.02171 5.45745 2.21246 4.47867 3.63078 3.79429C6.59749 2.3567 10.3932 2.34523 13.3681 3.78664C14.7864 4.47102 15.9731 5.43833 16.9119 6.67328C17.0622 6.86827 17.0175 7.15119 16.7981 7.29648C16.5827 7.43795 16.2901 7.39589 16.1356 7.18943C15.2863 6.06918 14.2093 5.18981 12.9332 4.57807C10.2226 3.27049 6.75598 3.27049 4.05344 4.58572C2.76922 5.20893 1.69227 6.09595 0.842894 7.21619C0.765678 7.34236 0.627503 7.40354 0.473071 7.40354ZM6.37803 18.1281C6.25611 18.1281 6.1342 18.0822 6.04885 17.9942C5.22793 17.2219 4.78495 16.7249 4.15097 15.6467C3.50074 14.5532 3.15936 13.2227 3.15936 11.7889C3.15936 9.15081 5.55711 6.99826 8.5035 6.99826C11.4499 6.99826 13.8476 9.14699 13.8476 11.7889C13.8476 12.0374 13.6404 12.2324 13.3762 12.2324C13.112 12.2324 12.9048 12.0374 12.9048 11.7889C12.9048 9.6402 10.9297 7.8891 8.5035 7.8891C6.0773 7.8891 4.10221 9.6402 4.10221 11.7889C4.10221 13.0697 4.40294 14.2512 4.98002 15.2108C5.58556 16.2317 6.00008 16.6675 6.72754 17.3596C6.90635 17.5354 6.90635 17.8145 6.72754 17.9904C6.62187 18.0822 6.49995 18.1281 6.37803 18.1281ZM13.1486 16.484C12.0229 16.484 11.0313 16.2164 10.2226 15.6926C8.81642 14.7941 7.97518 13.3374 7.97518 11.7927C7.97518 11.5442 8.18244 11.3492 8.4466 11.3492C8.71076 11.3492 8.91802 11.5442 8.91802 11.7927C8.91802 13.0468 9.59671 14.2282 10.7509 14.9547C11.4214 15.3829 12.2058 15.5855 13.1486 15.5855C13.3762 15.5855 13.7542 15.5588 14.1321 15.4976C14.3881 15.4517 14.632 15.6123 14.6807 15.8608C14.7295 16.1017 14.5588 16.3311 14.2947 16.377C13.7542 16.4764 13.2827 16.484 13.1486 16.484ZM11.2507 18.3154C11.2142 18.3154 11.1654 18.3078 11.1288 18.2963C9.62515 17.9063 8.64573 17.3825 7.61348 16.4305C6.29269 15.1955 5.56524 13.5515 5.56524 11.7927C5.56524 10.3552 6.86978 9.1814 8.47505 9.1814C10.0803 9.1814 11.3849 10.3552 11.3849 11.7927C11.3849 12.7448 12.2627 13.5171 13.3478 13.5171C14.4328 13.5171 15.3107 12.7448 15.3107 11.7927C15.3107 8.44349 12.2424 5.72508 8.46286 5.72508C5.78063 5.72508 3.32598 7.12825 2.22058 9.30757C1.85076 10.0264 1.66382 10.8713 1.66382 11.7966C1.66382 12.4886 1.72884 13.5821 2.2978 15.0044C2.39127 15.2338 2.26935 15.4938 2.02551 15.574C1.78167 15.662 1.50532 15.5396 1.41998 15.3179C0.956684 14.1556 0.729103 12.9971 0.729103 11.8004C0.729103 10.7337 0.944493 9.76637 1.37121 8.92141C2.62698 6.44387 5.41487 4.83424 8.46286 4.83424C12.7585 4.83424 16.2535 7.9541 16.2535 11.7927C16.2535 13.2303 14.949 14.4041 13.3437 14.4041C11.7384 14.4041 10.4339 13.2303 10.4339 11.7927C10.4339 10.8407 9.55607 10.0684 8.47098 10.0684C7.3859 10.0684 6.50808 10.8407 6.50808 11.7927C6.50808 13.3106 7.12987 14.7329 8.27591 15.7996C9.17405 16.6331 10.0316 17.0957 11.3645 17.4437C11.6206 17.5048 11.7628 17.7534 11.6937 17.9866C11.649 18.1816 11.4499 18.3154 11.2507 18.3154Z" fill="white"/>
</svg>
