<svg width="48" height="72" viewBox="0 0 48 72" fill="none" xmlns="http://www.w3.org/2000/svg">
<path d="M38.9719 60.1486C36.3211 57.9015 33.5785 55.5764 30.9074 53.2686C29.3679 51.9412 27.6346 50.4402 24.8309 52.5311L21.5174 49L18 52.0973L21.8742 54.9517C20.9057 56.1837 20.2022 57.6066 21.7621 58.9427C26.5947 63.0898 31.3356 67.1415 36.0866 71.1324C36.7799 71.7137 37.5038 72 38.248 72C39.0229 72 39.8181 71.679 40.6032 71.0456C41.429 70.3776 42.2446 69.6748 43.0399 68.9981L43.4884 68.6164C45.5173 66.8812 45.5071 65.6926 43.4375 63.9313C41.9489 62.6733 40.4604 61.4066 38.9719 60.1486Z" fill="#115C07"/>
<path d="M17.0221 7.08048C19.3052 7.1163 21.6289 7.13062 23.9769 7.13062C26.3006 7.13062 28.6568 7.1163 31.0211 7.08048C34.3767 7.03033 36.8466 4.80944 36.8791 1.80051C36.8873 1.01962 36.8385 0.604096 36.546 0.339022C36.2454 0.0667852 35.7498 0.0238004 34.8154 0.0166363C32.1586 0.0166363 29.5018 0.0166363 26.8369 0.0166363H24.0419C23.0101 0.0166363 21.9701 0.0166363 20.9383 0.0238004C18.3383 0.0309646 15.649 0.0381287 13.0084 0.00230801C12.3178 -0.0191844 11.8872 0.10977 11.5947 0.374843C11.2941 0.639916 11.1641 1.04827 11.1722 1.66439C11.2129 4.80228 13.6259 7.03033 17.0221 7.08048Z" fill="#115C07"/>
<path d="M12.0426 56.0972C12.0497 56.0972 12.0568 56.0972 12.0568 56.0972C15.2259 56.0972 18.2312 54.8292 20.503 52.5295C22.7748 50.2298 24.0211 47.2065 23.9997 44.0257C23.957 37.3845 18.6016 31.9971 12.0568 31.9971C12.0497 31.9971 12.0355 31.9971 12.0284 31.9971C5.2771 32.0114 -0.00711439 37.3845 7.18984e-06 44.2191C7.18984e-06 50.6453 5.51211 56.0829 12.0426 56.0972ZM12.1494 34.3612C14.6064 34.3612 16.9351 35.3427 18.7298 37.1266C20.5885 38.9749 21.6211 41.4322 21.6282 44.0471C21.6354 46.6119 20.6455 49.0262 18.8366 50.8531C17.0277 52.6799 14.6135 53.6901 12.0497 53.6972C12.0426 53.6972 12.0426 53.6972 12.0355 53.6972C6.72278 53.6972 2.38574 49.4131 2.36437 44.1474C2.34301 38.7099 6.60171 34.4114 12.064 34.3684C12.0924 34.3612 12.1209 34.3612 12.1494 34.3612Z" fill="#115C07"/>
<path d="M46.9933 59.3643C46.9852 59.0706 46.9771 58.7339 46.9771 58.347C46.9852 45.1507 46.9852 31.9615 46.9852 18.7652V5.11749C46.9852 5.00286 46.9852 4.88823 46.9771 4.76644C46.9771 4.53719 46.9689 4.30077 46.9852 4.06436C47.0177 3.59869 46.9121 3.25481 46.6602 3.02556C46.4002 2.78198 46.0021 2.67451 45.4252 2.68168C43.654 2.71034 41.7691 2.73183 39.9085 2.66735C39.3072 2.65302 38.8848 2.75332 38.6085 3.00406C38.3079 3.26914 38.1698 3.68466 38.1941 4.3151L38.2023 4.48704H44.889V59.8013H40.2579L40.4366 60.0736C41.1353 61.1195 41.9722 61.5566 43.3047 61.5566C43.3453 61.5566 43.3778 61.5566 43.4184 61.5566C43.7434 61.5494 44.0359 61.5494 44.2959 61.5422C45.6934 61.5279 46.3271 61.5207 46.6846 61.1912C47.0258 60.876 47.0096 60.3745 46.9933 59.3643Z" fill="#115C07"/>
<path d="M1.03898 35.5007C1.04711 35.6154 1.06336 35.7372 1.07148 35.8661L1.09586 36.1742L1.38835 36.0022C2.54207 35.3073 3.01331 34.4548 3.00519 33.0506C2.98081 28.4011 2.98081 23.6799 2.98081 19.1092C2.98081 14.6029 2.98081 10.1039 2.95644 5.59763C2.95644 5.08897 3.03769 4.78808 3.21643 4.63047C3.39518 4.48002 3.72017 4.42271 4.24828 4.45137C5.4995 4.51584 6.73447 4.50151 8.03444 4.48719C8.57881 4.48002 9.13129 4.47286 9.69191 4.47286H9.89503V4.29375C9.8869 3.6848 9.73253 3.26212 9.41566 3.00421C9.10692 2.7463 8.65193 2.646 7.9532 2.67466C6.8076 2.72481 5.63763 2.71764 4.50828 2.70332C3.99641 2.68899 3.49268 2.68899 2.98081 2.68899C1.16898 2.68899 0.990234 2.86093 0.990234 4.50151C0.990234 14.6029 0.990234 24.7044 0.990234 34.8058C0.990234 35.0351 1.01461 35.2572 1.03898 35.5007Z" fill="#115C07"/>
<path d="M22.765 59.7364C17.6627 59.765 12.4872 59.7579 7.46602 59.7507H4.57359C4.19985 59.7507 3.81798 59.7221 3.41986 59.7006C3.27362 59.6934 3.12737 59.6791 2.973 59.6719C2.973 59.2206 2.96488 58.7764 2.95675 58.3394C2.9405 57.2218 2.91613 56.1687 3.0055 55.1084C3.11112 53.7687 2.59926 52.823 1.30741 51.9418L0.982422 51.7197V54.4349V59.6003C0.982422 61.3555 1.16929 61.5203 3.15987 61.5203C6.19043 61.5203 9.2291 61.5203 12.2597 61.5203C15.9646 61.5203 19.6695 61.5203 23.3744 61.5131C23.6506 61.5131 23.9188 61.4844 24.1788 61.4558C24.2925 61.4415 24.4062 61.4343 24.52 61.42L24.7069 61.4056V61.2409C24.6906 59.9083 23.7644 59.7436 22.765 59.7364Z" fill="#115C07"/>
<path d="M12.5037 20.3767L19.9054 11.8299L17.9717 10.5547L12.39 16.9523L10.2125 14.8102L8.39258 16.1714L12.5037 20.3767Z" fill="#115C07"/>
<path d="M38.6997 27.1328H24.1562V29.1316H38.6997V27.1328Z" fill="#115C07"/>
<path d="M38.6992 12.7188H33.8081C31.1513 12.7188 28.4944 12.7188 25.8458 12.7188C24.9602 12.7188 24.5133 12.7188 24.2695 12.9695C24.0095 13.2274 24.0745 13.6429 24.2127 14.5599L24.237 14.7175H38.7073V12.7188H38.6992Z" fill="#115C07"/>
<path d="M38.6904 41.4902H28.6562L28.8431 43.4675H38.6904V41.4902Z" fill="#115C07"/>
<path d="M31.451 31.4102H24.1387V33.409H31.451V31.4102Z" fill="#115C07"/>
<path d="M13.3086 30.2921L13.6092 30.8079L13.7473 30.7864C13.983 30.7577 14.2592 30.7434 14.5192 30.7362C15.1529 30.7147 15.8029 30.6932 16.1604 30.3637C17.111 29.4897 17.9154 28.5297 18.7685 27.5052C19.1016 27.1112 19.4347 26.71 19.7759 26.316L19.8978 26.1727L17.9479 24.8975L13.3086 30.2921Z" fill="#115C07"/>
<path d="M31.4589 17.1025H24.1953V19.0369H31.4589V17.1025Z" fill="#115C07"/>
<path d="M29.4361 47.8299C29.6068 47.8299 29.7774 47.8299 29.9561 47.8227C30.2649 47.8156 30.5655 47.8013 30.8742 47.7869L31.4592 47.7583V45.8741L31.2886 45.8526C30.0293 45.6448 29.3874 45.5732 28.973 45.8526C28.5668 46.132 28.4937 46.7123 28.4205 47.6365L28.4043 47.8299H29.0218C29.168 47.8299 29.298 47.8299 29.4361 47.8299Z" fill="#115C07"/>
<path d="M8.75062 31.1453L11.8705 30.8301L10.1806 29.125L8.53125 30.5077L8.75062 31.1453Z" fill="#115C07"/>
<path d="M9.96947 51.7134L18.3789 39.7708L16.2353 38.0371L9.86394 47.0639L7.33781 43.9977L5.37891 45.9177L9.96947 51.7134Z" fill="#115C07"/>
</svg>
