<svg width="74" height="81" viewBox="0 0 74 81" fill="none" xmlns="http://www.w3.org/2000/svg">
<path d="M4.89491 80.0031C1.13092 78.5318 -0.202413 75.6874 0.0244072 71.7885C0.180729 69.0912 0.0611889 66.3785 0.0519935 63.672C0.0489283 62.5441 0.291074 61.5387 1.65199 61.5387C3.0405 61.5418 3.21215 62.587 3.20908 63.6966C3.20295 66.8107 3.19069 69.9249 3.21521 73.0391C3.23667 75.7333 4.35851 76.846 7.06808 76.849C14.7769 76.8613 22.4857 76.8705 30.1945 76.8276C31.0282 76.8245 31.957 76.6529 32.6711 76.2544C34.1823 75.4023 34.2742 74.2222 33.0666 72.9931C28.6895 68.5425 26.3447 63.2031 26.075 56.9686C25.9892 54.9732 26.4459 54.541 28.4505 54.5318C30.2742 54.5257 32.098 54.5287 34.0075 54.5287C34.0075 50.0414 34.0075 45.7226 34.0075 41.5142C31.8865 42.1149 29.7961 42.9057 27.6321 43.2674C24.101 43.859 20.76 43.01 17.9922 40.751C13.7164 37.2598 8.98379 37.4161 4.06732 38.6299C3.69644 38.7218 3.26425 39.4697 3.24893 39.9264C3.16923 42.4766 3.20908 45.0299 3.20908 47.5831C3.20908 47.9908 3.21215 48.4015 3.19682 48.8092C3.15391 49.8176 2.67575 50.5134 1.62441 50.5012C0.576131 50.4889 0.0734494 49.7655 0.0703843 48.7755C0.0519935 43.3134 0.0366678 37.8513 0.0918402 32.3893C0.0979705 31.7241 0.481112 31.0284 0.809082 30.4092C3.22441 25.8605 5.56004 21.2598 8.15314 16.8123C9.48035 14.5379 9.66732 12.2483 9.39759 9.67663C9.01445 9.63065 8.62824 9.56015 8.24203 9.54483C7.26425 9.51111 6.66042 9.00536 6.63897 8.05211C6.58686 5.86054 6.58073 3.66284 6.66042 1.47126C6.67881 0.974713 7.10793 0.490421 7.34701 0C14.8045 0 22.265 0 29.7225 0C30.0535 0.69272 30.5991 1.36092 30.6727 2.08123C30.8229 3.54636 30.7187 5.03908 30.7187 6.51954C30.7187 9.30881 30.688 9.34253 27.8681 9.67969C27.8926 11.7517 27.5033 13.7839 28.6742 15.8375C31.3531 20.5303 33.8727 25.3211 36.3493 30.1241C36.8857 31.1632 37.2075 32.4291 37.2229 33.5939C37.3056 39.9234 37.2627 46.2559 37.2627 52.5854C37.2627 53.1801 37.2627 53.7747 37.2627 54.5318C38.0627 54.5318 38.6604 54.5318 39.2612 54.5318C49.8298 54.5318 60.3984 54.5318 70.9669 54.5318C73.5478 54.5318 73.9677 55.01 73.7225 57.6307C72.6098 69.508 64.8305 77.7962 52.9531 79.7671C52.7631 79.7977 52.5884 79.9234 52.4075 80.0031C50.7738 80.0031 49.137 80.0031 47.5033 80.0031C43.7669 79.2889 40.1256 78.2958 37.3731 76.423C35.5738 77.741 34.029 78.872 32.4842 80.0031C23.2857 80.0031 14.0903 80.0031 4.89491 80.0031ZM12.6528 9.61839C12.6528 11.0958 12.7141 12.4659 12.6282 13.8268C12.5823 14.5625 12.4198 15.3563 12.0796 16C9.31483 21.2322 6.43667 26.4061 3.74241 31.6751C3.19989 32.7356 3.29184 34.1241 3.06502 35.528C3.87115 35.3808 4.22364 35.3257 4.57 35.249C10.2344 34.0107 15.3991 34.7096 20.1807 38.4031C23.6995 41.1218 27.7026 40.7448 31.6167 38.8353C34.5286 37.4161 34.9118 34.6544 33.5692 31.764C31.252 26.7739 28.4719 21.9954 25.8144 17.1678C25.0022 15.6935 24.4688 14.2284 24.6282 12.5211C24.7171 11.5801 24.6436 10.6268 24.6436 9.61533C20.5761 9.61839 16.76 9.61839 12.6528 9.61839ZM67.5769 57.7318C67.4206 58.3632 67.2734 58.9487 67.1263 59.5341C64.2451 71.0713 52.2206 76.941 42.0811 71.6628C36.9378 68.9839 33.888 64.5701 32.5884 58.9762C32.3309 57.8636 31.9049 57.5264 30.8658 57.6552C30.3876 57.7134 29.8972 57.6644 29.4129 57.6644C29.4803 66.2529 37.5539 77.272 50.6757 76.7847C63.6934 76.3004 70.6574 64.8153 70.3325 57.7349C69.4374 57.7318 68.5363 57.7318 67.5769 57.7318ZM27.5309 3.25824C21.5416 3.25824 15.6995 3.25824 9.86655 3.25824C9.86655 4.35556 9.86655 5.34253 9.86655 6.28659C15.8313 6.28659 21.6673 6.28659 27.5309 6.28659C27.5309 5.23831 27.5309 4.3249 27.5309 3.25824ZM39.5708 65.787C42.0535 63.1019 44.4321 60.5272 47.0252 57.7226C42.9761 57.7226 39.3286 57.7226 35.5064 57.7226C36.1623 60.7326 37.3455 63.3594 39.5708 65.787ZM60.2635 65.79C62.4121 63.3686 63.6995 60.7939 64.2666 57.7808C60.478 57.7808 56.8121 57.7808 52.8489 57.7808C55.4144 60.5548 57.7869 63.1142 60.2635 65.79ZM48.2574 70.6452C48.2574 67.2552 48.2574 64.3433 48.2574 61.0391C46.0106 63.482 44.0121 65.6521 41.7194 68.141C44.0643 69.0391 46.0597 69.8023 48.2574 70.6452ZM51.5708 61.0513C51.5708 64.4015 51.5708 67.3195 51.5708 70.6759C53.8083 69.787 55.819 68.9931 58.0842 68.095C55.7731 65.5969 53.8083 63.4728 51.5708 61.0513Z" fill="#444444"/>
<path d="M3.40088 56.2542C2.81544 56.668 2.17177 57.471 1.65682 57.3975C1.08058 57.3147 0.31123 56.4902 0.207015 55.8894C0.136517 55.4817 1.04073 54.5469 1.571 54.4978C2.13805 54.4457 2.7756 55.1538 3.38249 55.5277C3.38862 55.7699 3.39475 56.012 3.40088 56.2542Z" fill="#444444"/>
</svg>
