<svg width="80" height="80" viewBox="0 0 80 80" fill="none" xmlns="http://www.w3.org/2000/svg">
<path d="M62.8311 0C63.0517 0.63729 63.4082 1.26344 63.4617 1.9141C63.5619 3.1664 63.4906 4.42984 63.4906 5.76458C65.4114 5.16517 67.2497 4.61924 69.0703 4.01315C69.9928 3.70564 70.688 3.85494 71.3498 4.60364C72.2077 5.57518 73.1748 6.45089 74.0683 7.39123C74.4449 7.78564 74.7435 7.90819 75.3072 7.63857C77.5779 6.5534 79.5254 7.80347 79.5254 10.3237C79.5343 21.835 79.5276 33.3463 79.5365 44.8577C79.5365 45.7245 79.3694 46.5222 78.36 46.5244C77.3394 46.5267 77.1745 45.7111 77.1768 44.8577C77.1812 33.607 77.179 22.3542 77.1768 11.1036C77.1768 10.6289 77.1344 10.1543 77.1032 9.48359C76.613 9.68414 76.2409 9.79556 75.9111 9.9805C66.3027 15.3752 56.701 20.7832 47.086 26.1668C46.4175 26.5411 46.1657 26.9734 46.1679 27.7489C46.1902 43.494 46.1857 59.239 46.1924 74.9841C46.1924 75.4788 46.2682 75.9757 46.3284 76.7177C47.7656 75.9267 48.9934 75.2649 50.21 74.5808C58.7488 69.7811 67.2765 64.9613 75.8353 60.195C76.8292 59.6424 77.2949 59.0519 77.2102 57.8731C77.0988 56.3222 77.1835 54.7557 77.1835 53.1959C77.1835 52.3915 77.4642 51.7587 78.3644 51.7654C79.2491 51.772 79.5454 52.3715 79.5388 53.1959C79.5254 55.0521 79.5053 56.9105 79.5454 58.7666C79.5744 60.1415 78.9951 61.0841 77.8074 61.7503C70.0708 66.0866 62.3453 70.4406 54.6176 74.788C52.5809 75.9334 50.5643 77.1211 48.492 78.2018C47.799 78.5628 46.9389 78.5895 46.2036 78.8859C45.4771 79.18 44.8109 79.6234 44.1179 80C41.2211 80 38.3243 80 35.4276 80C34.436 79.414 33.5291 78.6586 32.2523 78.7143C31.8868 78.7299 31.4857 78.4603 31.1359 78.2619C21.3336 72.7558 11.5403 67.2386 1.73584 61.7392C0.543709 61.0707 -0.0022215 60.1348 6.79274e-06 58.7577C0.0111482 42.6004 6.79356e-06 26.4498 0.00891995 10.2969C0.0111482 7.7901 1.99878 6.53111 4.24267 7.64526C4.82202 7.93271 5.10724 7.76558 5.47268 7.38678C6.39965 6.42638 7.3801 5.51279 8.27141 4.5212C8.88196 3.84157 9.52148 3.71456 10.3593 3.98864C12.2177 4.59473 14.0939 5.1518 16.0459 5.75344C16.0459 4.42761 15.9746 3.16194 16.0749 1.91187C16.1284 1.26121 16.4849 0.63729 16.7055 0C17.0018 0 17.3004 0 17.5968 0C18.575 0.438973 19.5644 0.857891 20.5337 1.31692C27.8937 4.8131 33.8722 9.83121 37.8163 17.0687C38.5227 18.3656 39.1065 19.7315 39.7794 21.1331C39.902 20.9325 39.9755 20.8456 40.0156 20.7454C43.0617 13.0132 48.414 7.29987 55.5245 3.17085C57.5277 2.00769 59.6491 1.05175 61.7169 0C62.089 0 62.4589 0 62.8311 0ZM2.44444 9.44126C2.40879 10.0652 2.36199 10.493 2.36199 10.9208C2.35754 26.6637 2.36422 42.4088 2.34194 58.1516C2.33971 59.0251 2.56477 59.5399 3.37364 59.99C12.9308 65.3245 22.4634 70.7014 32.0071 76.0626C32.3436 76.252 32.7157 76.379 33.2483 76.613C33.2906 75.9178 33.3486 75.4186 33.3486 74.9173C33.353 59.2101 33.3463 43.5051 33.3731 27.7979C33.3753 26.9801 33.1124 26.5211 32.406 26.1267C22.8199 20.7654 13.2494 15.3774 3.67223 10.0006C3.33575 9.81115 2.96809 9.67746 2.44444 9.44126ZM35.3251 17.7082C31.5058 10.8139 25.71 6.19018 18.4213 2.93243C18.4213 4.0332 18.4681 4.88664 18.4079 5.72893C18.3522 6.49992 18.5951 6.92552 19.3438 7.23302C20.6117 7.74999 21.835 8.38505 23.0561 9.00897C23.7224 9.3499 23.9185 9.93594 23.5597 10.6044C23.2321 11.215 22.6951 11.3888 22.0445 11.1058C21.7726 10.9877 21.5186 10.825 21.2445 10.7158C17.735 9.31647 14.2276 7.91711 10.7092 6.54225C10.3994 6.42193 9.87355 6.3328 9.68638 6.49769C8.76387 7.3177 7.9238 8.22684 7.01689 9.14489C7.30879 9.33207 7.42912 9.41897 7.55613 9.49028C16.2242 14.3613 24.9078 19.2078 33.5513 24.1257C34.9151 24.9011 36.232 24.9568 37.8809 24.6627C36.9963 23.5129 36.3189 22.3832 35.4075 21.4941C33.1814 19.3237 30.8618 17.2492 28.5511 15.168C27.6798 14.3814 27.5773 13.3697 28.4976 13.0533C28.921 12.9062 29.6229 13.0645 29.9928 13.3519C31.8066 14.7535 33.5536 16.2464 35.3251 17.7082ZM43.7903 66.9467C43.7903 57.1957 43.7903 47.5584 43.7903 37.9076C41.0607 37.9076 38.4112 37.9076 35.7484 37.9076C35.7484 47.6274 35.7484 57.2581 35.7484 66.9467C38.4514 66.9467 41.0718 66.9467 43.7903 66.9467ZM72.6957 9.07805C71.7197 8.18005 70.9331 7.39792 70.0752 6.70269C69.8257 6.49992 69.3221 6.4041 69.0212 6.50883C66.3317 7.44694 63.5976 8.30037 60.9972 9.44794C54.1675 12.4606 48.0709 16.525 43.3469 22.4233C42.7854 23.1252 42.2862 23.8761 41.7069 24.6738C43.4048 25.0326 44.7797 24.8432 46.1568 24.0455C50.6133 21.4651 55.1212 18.9716 59.6067 16.447C63.8672 14.0494 68.1255 11.6517 72.6957 9.07805ZM61.1086 3.15526C56.1128 4.01538 44.9045 13.7775 44.2538 17.677C46.0275 16.2197 47.7344 14.5195 49.7198 13.2561C53.089 11.1125 56.6409 9.25185 60.1014 7.25085C60.478 7.03248 61.0239 6.70269 61.0618 6.37513C61.1843 5.32115 61.1086 4.24266 61.1086 3.15526ZM35.764 30.2089C38.4759 30.2089 41.1208 30.2089 43.8683 30.2089C43.8683 29.4424 43.8416 28.7449 43.875 28.0497C43.9107 27.3612 43.6054 27.1517 42.948 27.1651C41.3927 27.1963 39.8373 27.174 38.2842 27.174C35.4008 27.174 35.4008 27.174 35.764 30.2089ZM43.7881 72.1631C43.7881 71.1871 43.7881 70.3203 43.7881 69.4268C41.0562 69.4268 38.409 69.4268 35.7462 69.4268C35.7462 70.3827 35.7462 71.2517 35.7462 72.1631C38.4469 72.1631 41.074 72.1631 43.7881 72.1631ZM35.6704 74.612C35.6704 75.4432 35.5925 76.1517 35.7061 76.8314C35.7574 77.1389 36.183 77.6091 36.4503 77.6157C38.6697 77.6781 40.8891 77.6714 43.1085 77.6246C43.3625 77.6202 43.7992 77.2659 43.8238 77.0341C43.9129 76.2476 43.8572 75.4454 43.8572 74.612C41.0674 74.612 38.4491 74.612 35.6704 74.612ZM35.7328 35.354C38.4692 35.354 41.1431 35.354 43.8037 35.354C43.8037 34.4137 43.8037 33.5736 43.8037 32.6667C41.0919 32.6667 38.4447 32.6667 35.7328 32.6667C35.7328 33.5714 35.7328 34.4115 35.7328 35.354Z" fill="#444444"/>
<path d="M73.7921 25.2799C73.7921 26.394 73.8924 27.5193 73.752 28.6156C73.6784 29.1883 73.3241 29.9437 72.8607 30.2133C65.8683 34.2777 58.8425 38.2819 51.8123 42.2839C50.4062 43.0839 49.5973 42.6093 49.584 41.0049C49.5661 38.8145 49.5996 36.6241 49.5706 34.4337C49.5595 33.6315 49.8781 33.1212 50.5644 32.729C57.6571 28.6892 64.7363 24.6292 71.829 20.5916C72.9164 19.9721 73.7408 20.4556 73.7832 21.7146C73.8233 22.9023 73.7921 24.0922 73.7921 25.2799ZM71.4836 23.6978C71.2741 23.6978 71.2318 23.6844 71.205 23.7C64.9591 27.2497 58.7133 30.7971 52.4785 34.3646C52.2356 34.5028 51.9682 34.8481 51.9593 35.1044C51.9081 36.4948 51.9348 37.8898 51.9348 39.376C52.2067 39.2891 52.3515 39.2691 52.4696 39.2022C58.613 35.6993 64.7586 32.1987 70.8864 28.6669C71.1716 28.502 71.439 28.0541 71.4568 27.7243C71.5215 26.4029 71.4836 25.0726 71.4836 23.6978Z" fill="#444444"/>
<path d="M38.5866 52.3647C38.5866 50.2144 38.5933 48.0641 38.5821 45.9116C38.5777 45.0582 38.7381 44.2404 39.7497 44.2292C40.7592 44.2181 40.9508 45.0181 40.9486 45.8804C40.9397 50.2189 40.9419 54.5574 40.9463 58.8958C40.9463 59.7381 40.8193 60.5581 39.7787 60.5693C38.7381 60.5826 38.5799 59.776 38.5821 58.927C38.591 56.7389 38.5866 54.5507 38.5866 52.3647Z" fill="#444444"/>
</svg>
