<svg width="79" height="80" viewBox="0 0 79 80" fill="none" xmlns="http://www.w3.org/2000/svg">
<path d="M0 11.8649C0 10.736 0 9.6038 0 8.47493C0.0813594 8.09526 0.186449 7.71897 0.237298 7.3359C0.681385 4.04424 2.37976 1.93907 5.20022 1.20005C8.04441 0.454256 10.6581 1.54583 12.6412 4.28493C15.3837 8.07153 17.3262 12.2344 18.6313 16.7126C19.7466 20.5365 20.8958 24.3502 22.0314 28.1707C22.4416 27.5673 22.5942 26.991 22.7094 26.4079C23.9705 20.167 25.1638 13.9091 26.4994 7.68168C27.3401 3.77643 30.7877 1.36616 34.4421 1.89161C38.3982 2.46112 40.917 5.44769 40.7136 9.58007C40.5204 13.5226 40.1339 17.455 39.8322 21.3941C39.544 25.1468 39.2525 28.8961 38.961 32.6793C40.3102 32.6082 41.4729 32.5438 42.7306 32.476C42.9578 31.6149 43.0967 30.7132 43.4391 29.8928C43.7781 29.0826 44.1476 28.1029 44.8121 27.6554C45.9647 26.8757 46.1003 25.9333 46.2562 24.6858C46.6325 21.6416 46.7613 18.5194 48.6156 15.8142C49.3072 14.8074 49.7953 13.5362 49.975 12.3259C50.3682 9.65465 50.5411 6.94606 50.7377 4.25103C50.8801 2.27467 51.7649 0.847493 53.5616 0C54.2396 0 54.9176 0 55.5956 0C57.3414 0.861053 58.7076 2.11534 58.2804 4.20018C57.0736 10.092 58.6499 16.516 54.9244 21.923C54.8938 21.967 54.9006 22.0314 54.8803 22.0857C53.7175 25.7197 52.4056 29.3131 51.4462 33.0014C50.8055 35.4693 50.2326 38.1033 50.436 40.5949C50.653 43.2696 51.8124 45.8697 52.5344 48.4054C53.0328 46.9172 53.3718 45.1036 54.226 43.5781C55.1142 41.995 56.4973 40.6899 57.6668 39.2627L57.6262 39.3C58.8025 38.8694 59.9822 38.4389 61.2738 37.9643C61.4738 38.9135 61.6196 39.6118 61.7619 40.2797C57.1346 42.3204 54.9413 45.5816 55.0803 50.0157C56.1447 49.6496 57.2228 49.2767 58.4465 48.8563C58.6059 49.8258 58.7177 50.5208 58.8262 51.1717C54.8193 52.9514 51.7446 56.9821 52.0361 59.6059C53.9175 59.6974 55.799 59.572 57.5787 59.9347C59.3652 60.3009 61.0534 61.1517 62.9077 61.8331C63.1417 61.067 63.3315 60.4907 63.4942 59.9042C67.0842 46.802 70.6504 33.6963 74.2777 20.6043C75.4574 16.3465 76.5727 12.0785 76.3117 7.63083C76.2473 6.50536 75.7557 4.89851 74.932 4.41714C71.8064 2.58655 68.6029 1.70177 66.457 5.55617C65.7926 5.37989 65.0977 5.19344 64.4129 5.01038C64.8773 2.83741 66.2435 1.06106 68.3554 0.749184C70.1182 0.491546 72.0369 0.718674 73.7997 1.1153C77.1829 1.87805 79.0847 4.25103 78.8711 7.72914C78.6542 11.2581 78.3321 14.8515 77.4406 18.255C73.8336 31.9946 69.986 45.6697 66.2367 59.372C66.057 60.033 65.9248 60.711 65.7079 61.6602C68.2605 60.711 70.4708 59.8805 72.6912 59.0635C74.3218 58.4635 74.9693 58.8466 74.9727 60.5246C74.9794 67.0164 74.9455 73.5082 74.9286 80C74.1387 80 73.3455 80 72.5556 80C72.5556 74.037 72.5556 68.0707 72.5556 61.8365C70.8538 62.4569 69.3724 62.9518 67.9283 63.5315C65.1587 64.6366 62.3959 64.6773 59.7347 63.3383C56.6397 61.7789 53.6701 61.6941 50.5106 63.2467C47.9105 64.5248 45.1239 64.4807 42.4967 63.1925C39.8152 61.8806 37.2321 61.8704 34.5404 63.1383C31.7369 64.457 28.8656 64.4434 26.0384 63.1247C23.6959 62.0331 21.3772 62.0162 19.0245 63.1179C16.2075 64.44 13.3667 64.4231 10.5157 63.1722C9.5699 62.7586 8.59697 62.4128 7.46811 61.9687C7.46811 68.1554 7.46811 74.0743 7.46811 79.9966C6.67825 79.9966 5.88499 79.9966 5.09513 79.9966C5.07479 73.6133 5.04767 67.2334 5.04428 60.85C5.04428 58.7211 5.61041 58.3889 7.641 59.2364C9.43769 59.989 11.2378 60.7348 13.3734 61.6229C13.1734 60.7449 13.0819 60.2737 12.9599 59.8093C8.81054 43.7815 2.64079 28.2995 0 11.8649ZM29.1572 61.8941C29.0182 60.9958 29.0012 60.6331 28.9029 60.2975C24.7536 46.2392 20.5738 32.1912 16.4515 18.1296C15.1396 13.6514 13.3192 9.43769 10.553 5.65787C9.14276 3.72897 7.53591 3.09505 5.60702 3.70185C3.78321 4.27476 2.62723 5.75279 2.73571 7.98678C2.90521 11.5225 2.8069 15.1803 3.71202 18.5499C6.93928 30.5776 10.5394 42.5103 14.0074 54.4735C14.6752 56.7821 15.3735 59.0805 16.16 61.7416C20.4687 59.1245 24.696 59.2398 29.1572 61.8941ZM33.5472 60.8839C37.188 59.1178 40.4526 59.4534 43.7612 60.9992C44.8256 61.4975 46.1613 61.4806 47.3817 61.545C48.4088 61.5992 49.0597 61.0195 49.1512 59.9313C49.4089 56.9109 49.8936 53.887 49.8767 50.8666C49.853 46.3511 48.8292 42.0086 46.2053 38.2287C43.1917 33.8896 39.1339 33.815 36.2897 38.266C31.8454 45.2121 31.8454 52.8124 33.5472 60.8839ZM33.3133 38.0219C33.8794 37.2694 34.293 36.4829 34.9167 35.9439C36.0354 34.9778 36.371 33.7879 36.4761 32.3844C37.049 24.8519 37.6762 17.3262 38.2592 9.79363C38.3101 9.13259 38.2728 8.42748 38.1033 7.79016C37.527 5.65109 35.6591 4.31205 33.4455 4.35951C31.1064 4.41036 29.3741 5.95279 28.8487 8.53595C27.4859 15.2142 26.1197 21.8891 24.818 28.5775C24.218 31.6556 22.9705 34.7811 25.0994 37.7677C27.9029 35.5134 30.1945 35.5473 33.3133 38.0219ZM47.8291 36.2998C48.5851 33.9845 49.2462 31.9505 49.914 29.9199C50.6157 27.7842 51.3106 25.6485 52.0395 23.523C52.5615 21.9908 53.1921 20.4924 53.6633 18.9432C54.1684 17.2855 54.7142 15.6142 54.9311 13.9057C55.3244 10.831 55.4566 7.72236 55.7583 4.63409C55.8464 3.72558 55.9719 2.81707 54.8599 2.6035C53.6226 2.3662 53.348 3.3459 53.2565 4.28832C52.9887 7.03759 52.9141 9.81737 52.4734 12.5395C52.2124 14.1396 51.4259 15.6617 50.8123 17.1939C50.4835 18.0143 49.8258 18.7432 49.6563 19.5839C49.2495 21.6213 49.158 23.723 48.7173 25.7502C48.48 26.8418 48.0529 28.1673 47.2495 28.7978C46.0799 29.7165 45.9206 30.9064 45.4223 32.0759C44.6358 33.9269 46.263 34.3608 47.0596 35.3032C47.3003 35.5981 47.5308 35.9134 47.8291 36.2998ZM26.0519 41.7984C27.2859 45.9443 28.53 50.1242 29.7436 54.1989C30.1979 50.297 30.6555 46.3748 31.0895 42.6425C29.5741 42.3848 27.8893 42.1035 26.0519 41.7984ZM30.7776 40.0492C30.825 39.7203 30.8759 39.3881 30.9233 39.0593C29.8555 38.9203 28.7877 38.7813 27.7198 38.6457C27.6757 38.9474 27.6351 39.2457 27.591 39.5474C28.6554 39.7135 29.7165 39.8797 30.7776 40.0492Z" fill="#444444"/>
<path d="M57.6714 39.2696C56.9154 39.1577 56.1594 39.0458 55.2441 38.9102C56.1357 35.0151 56.7832 31.2387 60.5088 28.7064C59.6274 28.3911 59.0375 28.181 58.3019 27.9199C58.7799 23.8892 60.0748 20.2654 63.397 17.611L63.3597 17.6449C64.5022 17.1873 65.648 16.7296 67.0175 16.1838C67.2175 17.0381 67.387 17.7568 67.6006 18.6721C62.5258 19.9603 61.4546 23.9876 60.702 28.3538C61.8919 27.9267 62.9733 27.5436 64.1971 27.1063C64.3835 28.0148 64.5259 28.7132 64.7056 29.5776C59.424 30.7268 58.7155 35.1541 57.6341 39.3136C57.6307 39.3068 57.6714 39.2696 57.6714 39.2696Z" fill="#444444"/>
<path d="M63.3961 17.6075C62.6469 17.4448 61.8943 17.2855 61.1621 17.1261C61.9384 10.4343 65.0301 6.35957 69.9794 5.52563C70.1354 6.20363 70.2913 6.89179 70.4744 7.68844C69.8811 7.94269 69.3184 8.15626 68.7726 8.41728C66.3047 9.60377 64.9318 11.6106 64.3419 14.2413C64.0843 15.3905 63.6876 16.5058 63.3554 17.638C63.3588 17.6414 63.3961 17.6075 63.3961 17.6075Z" fill="#444444"/>
<path d="M59.9561 71.3351C59.9561 72.1283 59.9561 72.7996 59.9561 73.603C46.6741 73.603 33.4363 73.603 20.1035 73.603C20.1035 72.8775 20.1035 72.169 20.1035 71.3351C33.321 71.3351 46.5589 71.3351 59.9561 71.3351Z" fill="#444444"/>
<path d="M49.9198 76.3864C49.9198 77.1694 49.9198 77.8271 49.9198 78.5966C42.4788 78.5966 35.1158 78.5966 27.6172 78.5966C27.6172 77.9254 27.6172 77.2305 27.6172 76.3864C34.9599 76.3864 42.3704 76.3864 49.9198 76.3864Z" fill="#444444"/>
<path d="M64.9888 76.3624C64.9888 77.176 64.9888 77.7896 64.9888 78.5557C60.8835 78.5557 56.8121 78.5557 52.6289 78.5557C52.6289 77.8744 52.6289 77.176 52.6289 76.3624C56.7037 76.3624 60.775 76.3624 64.9888 76.3624Z" fill="#444444"/>
<path d="M24.9501 76.3558C24.9501 77.1118 24.9501 77.7627 24.9501 78.5627C23.3569 78.5627 21.7771 78.5627 20.0957 78.5627C20.0957 77.8576 20.0957 77.1593 20.0957 76.3558C21.6619 76.3558 23.2077 76.3558 24.9501 76.3558Z" fill="#444444"/>
<path d="M17.4232 71.359C17.4232 72.1387 17.4232 72.8336 17.4232 73.6303C16.6265 73.6303 15.9248 73.6303 15.0977 73.6303C15.0977 72.8981 15.0977 72.2031 15.0977 71.359C15.779 71.359 16.5214 71.359 17.4232 71.359Z" fill="#444444"/>
<path d="M62.5684 73.6166C62.5684 72.82 62.5684 72.1217 62.5684 71.3182C63.3311 71.3182 64.0328 71.3182 64.8803 71.3182C64.8803 72.0234 64.8803 72.759 64.8803 73.6166C64.1481 73.6166 63.4023 73.6166 62.5684 73.6166Z" fill="#444444"/>
<path d="M7.56055 26.0282C7.93344 25.3535 8.25888 24.7705 8.57076 24.201C12.1879 25.3569 12.1879 25.3569 14.2693 22.5195C14.8795 22.8314 15.51 23.1568 16.127 23.4755C14.8388 28.035 11.4116 29.0791 7.56055 26.0282Z" fill="#444444"/>
<path d="M13.4988 40.8932C16.9125 42.4322 16.9125 42.4322 19.1804 39.283C19.7804 39.6118 20.4008 39.9474 20.9974 40.2762C19.7906 44.812 16.2955 45.8663 12.4648 42.8289C12.7869 42.2288 13.1191 41.6051 13.4988 40.8932Z" fill="#444444"/>
<path d="M5.07422 17.6754C5.44712 17.0177 5.8234 16.3499 6.1963 15.6922C9.61678 17.2347 9.61678 17.2347 11.7931 14.1091C12.4339 14.4447 13.0915 14.7939 13.7356 15.1329C11.922 19.7772 9.15236 20.5772 5.07422 17.6754Z" fill="#444444"/>
<path d="M10.0312 34.4254C10.3533 33.8253 10.6855 33.2016 11.011 32.5914C14.6179 33.7643 14.6179 33.7643 16.7332 30.8998C17.3366 31.2252 17.957 31.5642 18.5638 31.893C17.2383 36.4831 13.8823 37.4967 10.0312 34.4254Z" fill="#444444"/>
<path d="M14.8984 51.2632C15.2374 50.6428 15.5798 50.0123 15.9154 49.3953C19.4919 50.6293 19.4919 50.6293 21.6241 47.6868C22.2682 48.0461 22.9327 48.4122 23.5802 48.775C21.5292 53.4497 18.8172 54.2159 14.8984 51.2632Z" fill="#444444"/>
<path d="M36.7877 46.2868C36.5436 45.3648 36.364 44.6834 36.1504 43.8867C39.4149 43.0731 42.5066 42.3036 45.8016 41.4799C46.022 42.3104 46.2118 43.0325 46.4356 43.8867C43.1948 44.6936 40.0997 45.4631 36.7877 46.2868Z" fill="#444444"/>
<path d="M45.7214 53.6768C45.935 54.487 46.1146 55.1717 46.3519 56.0735C43.1281 56.8837 40.0059 57.6668 36.7346 58.4905C36.5176 57.66 36.3379 56.9786 36.1074 56.0938C39.3448 55.2802 42.4636 54.4971 45.7214 53.6768Z" fill="#444444"/>
<path d="M45.7948 47.5715C46.0049 48.4428 46.171 49.1309 46.3744 49.9818C43.1438 50.792 40.0182 51.5717 36.7571 52.3887C36.5333 51.5242 36.3571 50.8361 36.1367 49.992C39.3877 49.1784 42.5166 48.3919 45.7948 47.5715Z" fill="#444444"/>
<path d="M30.4582 27.4078C31.9227 27.4994 33.7126 27.8757 34.499 29.6689C34.8279 30.4215 34.6821 31.7673 34.1906 32.4216C33.0041 34.0047 31.1599 33.903 29.387 33.5471C28.953 33.4589 28.5225 33.2759 28.1361 33.0589C26.8716 32.3538 25.9665 31.3707 26.258 29.8012C26.5258 28.3503 28.1089 27.418 30.4582 27.4078ZM32.004 31.286C32.0617 30.9673 32.1193 30.6453 32.1769 30.3266C31.1091 30.1978 30.0412 30.069 28.9734 29.9401C28.9327 30.2317 28.8954 30.5198 28.8547 30.8114C29.9056 30.9707 30.9565 31.13 32.004 31.286Z" fill="#444444"/>
<path d="M33.0962 16.2618C32.8521 16.2144 32.1775 16.1432 31.5402 15.9398C29.5774 15.3126 28.5333 13.9668 28.7536 12.4312C28.9536 11.0413 30.3876 9.97343 32.3063 9.89546C32.9674 9.86834 33.6555 9.98699 34.2996 10.1599C36.4387 10.7294 37.5744 12.1464 37.3065 13.8143C37.0828 15.2381 35.537 16.2347 33.0962 16.2618ZM31.53 12.404C31.4961 12.7329 31.4588 13.0617 31.4249 13.3905C32.4724 13.4854 33.5166 13.5804 34.5641 13.6753C34.5946 13.3804 34.6285 13.0854 34.659 12.7905C33.6149 12.6651 32.5708 12.5329 31.53 12.404Z" fill="#444444"/>
<path d="M31.8582 18.6483C32.048 18.689 32.6684 18.7568 33.2481 18.95C35.3295 19.6484 36.3974 21.0586 36.0685 22.5976C35.7499 24.0791 34.0888 25.1062 32.0684 25.0283C31.5666 25.0079 31.0615 24.9062 30.5734 24.7774C28.4953 24.2282 27.2207 22.7095 27.4885 21.1433C27.7427 19.6619 29.3632 18.6348 31.8582 18.6483ZM33.3226 22.5095C33.3633 22.2146 33.4074 21.9197 33.4481 21.6247C32.3904 21.4722 31.3293 21.3196 30.2717 21.1671C30.2276 21.4722 30.1869 21.7773 30.1428 22.079C31.2005 22.2214 32.2616 22.3637 33.3226 22.5095Z" fill="#444444"/>
</svg>
