<svg width="76" height="80" viewBox="0 0 76 80" fill="none" xmlns="http://www.w3.org/2000/svg">
<path d="M5.89107 0C27.2659 0 48.6406 0 70.0154 0C70.4462 0.197555 70.8737 0.401587 71.3076 0.595903C75.6182 2.51963 76.7452 8.41389 73.1795 11.4776C71.7805 12.6791 71.4339 13.858 71.5732 15.4708C71.6185 16.0052 71.476 16.5752 71.6121 17.0804C71.7448 17.5727 72.0072 18.1815 72.4055 18.4212C74.2807 19.5515 75.2555 21.1351 75.2555 23.3309C75.249 38.9636 75.2749 54.5996 75.2361 70.2324C75.2263 73.9924 73.4095 76.8132 70.1838 78.6884C69.2252 79.2454 68.1338 79.5693 67.1039 80C47.4553 80 27.8099 80 8.16133 80C8.03179 79.9126 7.9152 79.783 7.7727 79.7409C2.50349 78.1378 0.0194816 74.7891 0.0130044 69.2608C0.00976579 65.8635 0.0130044 62.4694 0.0130044 59.0721C0.0130044 47.2674 0.0291974 35.4595 4.99764e-05 23.6548C-0.00642723 21.4752 0.615385 19.3863 2.63627 18.7094C4.85148 17.9678 4.7025 16.6173 4.7446 14.9235C4.77699 13.5989 4.41103 12.8184 3.26456 12.0573C0.955438 10.5255 0.0453904 7.72731 0.725497 5.07489C1.41532 2.33827 3.39411 0.900332 5.89107 0ZM71.9877 30.6534C49.0455 30.6534 26.2004 30.6534 3.29371 30.6534C3.29371 41.0849 3.29371 51.4128 3.29371 61.88C3.98353 61.88 4.56648 61.88 5.14943 61.88C13.2978 61.88 21.4461 61.88 29.5912 61.8832C30.1288 61.8832 30.7797 61.7472 31.1749 61.9934C31.6995 62.3205 32.3926 63.0103 32.344 63.4669C32.2825 64.0337 31.6023 64.6328 31.0485 65.0085C30.7117 65.2384 30.1061 65.083 29.6203 65.083C21.4202 65.0862 13.2168 65.083 5.01665 65.083C4.44341 65.083 3.87342 65.083 3.18684 65.083C3.18684 66.5533 3.1836 67.7905 3.18684 69.0276C3.20303 74.2191 5.76153 76.7873 10.9465 76.7873C23.3018 76.7905 35.6603 76.7905 48.0156 76.7873C53.735 76.7873 59.4543 76.8067 65.1737 76.7776C68.2893 76.7614 70.8931 75.1518 71.5862 72.3148C72.1432 70.0316 72.0428 67.5864 72.2436 65.0797C71.2234 65.0797 70.6372 65.0797 70.0511 65.0797C61.7959 65.0797 53.5407 65.0797 45.2855 65.0765C44.7478 65.0765 44.1001 65.2158 43.6985 64.9729C43.1804 64.6587 42.5488 64.024 42.5424 63.5187C42.5326 63.0038 43.1285 62.3367 43.6338 61.9998C44.0192 61.744 44.6766 61.8768 45.2142 61.8768C53.5763 61.8703 61.9416 61.8735 70.3037 61.8735C70.8704 61.8735 71.4339 61.8735 71.991 61.8735C71.9877 51.3286 71.9877 41.0364 71.9877 30.6534ZM37.9338 3.19974C33.1342 3.19974 28.3378 3.19974 23.5382 3.19974C18.201 3.19974 12.8638 3.18355 7.52657 3.20946C5.2563 3.21917 3.72121 4.67654 3.71473 6.7201C3.70825 8.67622 5.20125 10.1336 7.37111 10.2761C7.69173 10.2988 8.01883 10.2858 8.34269 10.2858C28.0755 10.2858 47.8083 10.289 67.5444 10.2761C68.2374 10.2761 68.9629 10.2405 69.6171 10.0429C71.8582 9.3628 72.7844 6.75249 71.5149 4.80285C70.6534 3.4815 69.358 3.18355 67.865 3.18679C57.8804 3.2127 47.9087 3.19974 37.9338 3.19974ZM72.0784 27.2852C72.0784 26.2716 72.0784 25.3647 72.0784 24.4579C72.0719 21.5335 71.5991 21.0509 68.72 21.0509C47.9929 21.0509 27.2659 21.0509 6.53879 21.0509C6.10806 21.0509 5.67085 21.025 5.24335 21.0704C4.07745 21.1869 3.30019 21.8088 3.23218 23.007C3.15445 24.3964 3.21274 25.7922 3.21274 27.2885C26.2036 27.2852 49.0584 27.2852 72.0784 27.2852ZM68.2893 13.56C48.1484 13.56 28.1047 13.56 8.01883 13.56C8.01883 15.0401 8.01883 16.4003 8.01883 17.7184C28.2018 17.7184 48.2488 17.7184 68.2893 17.7184C68.2893 16.2643 68.2893 14.9364 68.2893 13.56Z" fill="#444444"/>
<path d="M40.8556 57.1126C37.1215 56.9701 34.4335 55.3476 32.351 52.53C31.7389 51.7042 30.9487 50.9528 30.1067 50.3601C28.157 48.9967 26.5798 47.3612 25.7637 45.0942C24.6334 41.9527 24.8763 38.9797 27.3636 36.5831C29.9091 34.1283 32.9599 34.1509 36.1013 35.3103C36.5515 35.4755 37.047 35.6601 37.3806 35.9807C40.4508 38.9149 43.8902 41.5738 46.4422 44.9128C49.8816 49.4112 47.7636 55.3962 42.7405 56.805C42.0701 56.9896 41.3608 57.0317 40.8556 57.1126ZM44.8002 49.2784C44.6027 46.9596 43.1388 45.0812 40.7876 43.7048C39.9229 43.1996 39.1035 42.432 38.5659 41.59C37.1345 39.3586 35.3046 37.8559 32.5745 37.7879C29.718 37.7166 27.8461 40.0128 28.4161 42.8174C28.9019 45.201 30.3593 46.7912 32.4288 47.9992C33.2902 48.5012 33.8991 49.4242 34.6634 50.114C35.9556 51.2767 37.1118 52.7697 38.6274 53.466C41.8045 54.9298 44.8197 52.951 44.8002 49.2784Z" fill="#444444"/>
<path d="M37.5235 61.2032C38.3331 62.2428 39.1914 62.8776 39.1169 63.3731C39.0262 63.9949 38.2392 64.8175 37.6206 64.9536C37.2061 65.0442 36.1665 64.1148 36.1309 63.5933C36.0855 62.9812 36.8304 62.3141 37.5235 61.2032Z" fill="#444444"/>
</svg>
