<svg width="17" height="19" viewBox="0 0 17 19" fill="none" xmlns="http://www.w3.org/2000/svg">
<g clip-path="url(#clip0_1676_12272)">
<path d="M15.2292 15.2305H1.77083C0.779167 15.2305 0 14.4155 0 13.3782V4.48749C0 3.45024 0.779167 2.63525 1.77083 2.63525H15.2292C16.2208 2.63525 17 3.45024 17 4.48749V13.3782C17 14.4155 16.2208 15.2305 15.2292 15.2305ZM1.77083 3.37615C1.20417 3.37615 0.708333 3.89478 0.708333 4.48749V13.3782C0.708333 13.971 1.20417 14.4896 1.77083 14.4896H15.2292C15.7958 14.4896 16.2917 13.971 16.2917 13.3782V4.48749C16.2917 3.89478 15.7958 3.37615 15.2292 3.37615H1.77083Z" fill="white" stroke="white" stroke-width="0.3"/>
<path d="M10.9792 10.8227C10.7667 10.8227 10.6251 10.6747 10.6251 10.4527V8.97246C10.6251 8.75043 10.4834 8.60241 10.2709 8.60241H6.72922C6.51672 8.60241 6.37505 8.75043 6.37505 8.97246V10.4527C6.37505 10.6747 6.23338 10.8227 6.02088 10.8227C5.80838 10.8227 5.66672 10.6747 5.66672 10.4527V8.97246C5.66672 8.38038 6.16255 7.8623 6.72922 7.8623H10.2709C10.8376 7.8623 11.3334 8.38038 11.3334 8.97246V10.4527C11.3334 10.6747 11.1917 10.8227 10.9792 10.8227Z" fill="white" stroke="white" stroke-width="0.3"/>
<path d="M8.49995 11.5912C8.42912 11.5912 8.42912 11.5912 8.35828 11.5912L0.21245 8.62989C0.0707837 8.55586 -0.070883 8.33377 -4.96842e-05 8.11167C0.0707837 7.96361 0.283284 7.81555 0.495784 7.88958L8.49995 10.8508L16.5041 7.88958C16.7166 7.81555 16.8583 7.88958 16.9291 8.11167C16.9999 8.33377 16.9291 8.48183 16.7166 8.55586L8.57078 11.5171C8.57078 11.5912 8.57078 11.5912 8.49995 11.5912Z" fill="white" stroke="white" stroke-width="0.3"/>
</g>
<defs>
<clipPath id="clip0_1676_12272">
<rect width="17" height="17.7815" fill="white" transform="translate(0 0.544434)"/>
</clipPath>
</defs>
</svg>
