<svg width="121" height="104" viewBox="0 0 121 104" fill="none" xmlns="http://www.w3.org/2000/svg">
<path d="M53 84H121V104H53V84Z" fill="#115C07"/>
<path d="M61.88 97.5V92.39L60.59 93.12V91.68L62.07 90.83H63.5V97.5H61.88ZM68.0273 97.63C67.0273 97.63 66.2906 97.3433 65.8173 96.77C65.3506 96.19 65.1173 95.3233 65.1173 94.17C65.1173 93.0167 65.3506 92.1533 65.8173 91.58C66.2906 91 67.0273 90.71 68.0273 90.71C69.0339 90.71 69.7706 91 70.2373 91.58C70.7039 92.1533 70.9373 93.0167 70.9373 94.17C70.9373 95.3233 70.7039 96.19 70.2373 96.77C69.7706 97.3433 69.0339 97.63 68.0273 97.63ZM68.0273 96.32C68.1806 96.32 68.3306 96.2967 68.4773 96.25C68.6306 96.1967 68.7673 96.0967 68.8873 95.95C69.0073 95.8033 69.1039 95.5867 69.1773 95.3C69.2506 95.0133 69.2873 94.6367 69.2873 94.17C69.2873 93.7033 69.2506 93.33 69.1773 93.05C69.1039 92.77 69.0073 92.5567 68.8873 92.41C68.7673 92.2633 68.6306 92.1633 68.4773 92.11C68.3306 92.0567 68.1806 92.03 68.0273 92.03C67.8739 92.03 67.7206 92.0567 67.5673 92.11C67.4206 92.1633 67.2873 92.2633 67.1673 92.41C67.0473 92.5567 66.9506 92.77 66.8773 93.05C66.8106 93.33 66.7773 93.7033 66.7773 94.17C66.7773 94.6367 66.8106 95.0133 66.8773 95.3C66.9506 95.5867 67.0473 95.8033 67.1673 95.95C67.2873 96.0967 67.4206 96.1967 67.5673 96.25C67.7206 96.2967 67.8739 96.32 68.0273 96.32ZM74.6874 97.63C73.6874 97.63 72.9508 97.3433 72.4774 96.77C72.0108 96.19 71.7774 95.3233 71.7774 94.17C71.7774 93.0167 72.0108 92.1533 72.4774 91.58C72.9508 91 73.6874 90.71 74.6874 90.71C75.6941 90.71 76.4308 91 76.8974 91.58C77.3641 92.1533 77.5974 93.0167 77.5974 94.17C77.5974 95.3233 77.3641 96.19 76.8974 96.77C76.4308 97.3433 75.6941 97.63 74.6874 97.63ZM74.6874 96.32C74.8408 96.32 74.9908 96.2967 75.1374 96.25C75.2908 96.1967 75.4274 96.0967 75.5474 95.95C75.6674 95.8033 75.7641 95.5867 75.8374 95.3C75.9108 95.0133 75.9474 94.6367 75.9474 94.17C75.9474 93.7033 75.9108 93.33 75.8374 93.05C75.7641 92.77 75.6674 92.5567 75.5474 92.41C75.4274 92.2633 75.2908 92.1633 75.1374 92.11C74.9908 92.0567 74.8408 92.03 74.6874 92.03C74.5341 92.03 74.3808 92.0567 74.2274 92.11C74.0808 92.1633 73.9474 92.2633 73.8274 92.41C73.7074 92.5567 73.6108 92.77 73.5374 93.05C73.4708 93.33 73.4374 93.7033 73.4374 94.17C73.4374 94.6367 73.4708 95.0133 73.5374 95.3C73.6108 95.5867 73.7074 95.8033 73.8274 95.95C73.9474 96.0967 74.0808 96.1967 74.2274 96.25C74.3808 96.2967 74.5341 96.32 74.6874 96.32ZM79.9176 94.39C79.3376 94.39 78.9176 94.2367 78.6576 93.93C78.3976 93.6167 78.2676 93.1567 78.2676 92.55C78.2676 91.9433 78.3976 91.4867 78.6576 91.18C78.9176 90.8667 79.3376 90.71 79.9176 90.71C80.5042 90.71 80.9242 90.8667 81.1776 91.18C81.4376 91.4867 81.5676 91.9433 81.5676 92.55C81.5676 93.1567 81.4376 93.6167 81.1776 93.93C80.9242 94.2367 80.5042 94.39 79.9176 94.39ZM79.9176 93.54C80.0042 93.54 80.0909 93.5167 80.1776 93.47C80.2642 93.4233 80.3376 93.3267 80.3976 93.18C80.4642 93.0333 80.4976 92.8233 80.4976 92.55C80.4976 92.27 80.4642 92.06 80.3976 91.92C80.3376 91.78 80.2642 91.6867 80.1776 91.64C80.0909 91.5867 80.0042 91.56 79.9176 91.56C79.8376 91.56 79.7509 91.5867 79.6576 91.64C79.5642 91.6867 79.4842 91.78 79.4176 91.92C79.3576 92.06 79.3276 92.27 79.3276 92.55C79.3276 92.8233 79.3576 93.0333 79.4176 93.18C79.4842 93.3267 79.5642 93.4233 79.6576 93.47C79.7509 93.5167 79.8376 93.54 79.9176 93.54ZM84.3376 97.61C83.7576 97.61 83.3376 97.4567 83.0776 97.15C82.8176 96.8367 82.6876 96.3767 82.6876 95.77C82.6876 95.1633 82.8176 94.7067 83.0776 94.4C83.3376 94.0867 83.7576 93.93 84.3376 93.93C84.9242 93.93 85.3442 94.0867 85.5976 94.4C85.8576 94.7067 85.9876 95.1633 85.9876 95.77C85.9876 96.3767 85.8576 96.8367 85.5976 97.15C85.3442 97.4567 84.9242 97.61 84.3376 97.61ZM84.3376 96.76C84.4242 96.76 84.5109 96.7367 84.5976 96.69C84.6842 96.6433 84.7576 96.5467 84.8176 96.4C84.8842 96.2533 84.9176 96.0433 84.9176 95.77C84.9176 95.49 84.8842 95.28 84.8176 95.14C84.7576 95 84.6842 94.9067 84.5976 94.86C84.5109 94.8067 84.4242 94.78 84.3376 94.78C84.2576 94.78 84.1709 94.8067 84.0776 94.86C83.9842 94.9067 83.9042 95 83.8376 95.14C83.7776 95.28 83.7476 95.49 83.7476 95.77C83.7476 96.0433 83.7776 96.2533 83.8376 96.4C83.9042 96.5467 83.9842 96.6433 84.0776 96.69C84.1709 96.7367 84.2576 96.76 84.3376 96.76ZM79.5376 97.72L83.6076 90.65H84.6776L80.6076 97.72H79.5376ZM89.7139 97.5V90.83H91.3339V93.53H93.7839V90.83H95.3939V97.5H93.7839V94.85H91.3339V97.5H89.7139ZM98.7135 97.65C98.4068 97.65 98.1168 97.62 97.8435 97.56C97.5768 97.5067 97.3402 97.4167 97.1335 97.29C96.9335 97.1567 96.7768 96.98 96.6635 96.76C96.5502 96.5333 96.4935 96.2533 96.4935 95.92C96.4935 95.6067 96.5568 95.3333 96.6835 95.1C96.8168 94.8667 97.0168 94.6867 97.2835 94.56C97.5502 94.4333 97.8868 94.37 98.2935 94.37C98.5202 94.37 98.7402 94.3933 98.9535 94.44C99.1668 94.4867 99.3568 94.55 99.5235 94.63C99.6968 94.71 99.8335 94.7967 99.9335 94.89L99.9935 95.61C99.8602 95.53 99.7002 95.4667 99.5135 95.42C99.3268 95.3733 99.1268 95.35 98.9135 95.35C98.5868 95.35 98.3468 95.4 98.1935 95.5C98.0468 95.5933 97.9735 95.7433 97.9735 95.95C97.9735 96.0767 98.0102 96.19 98.0835 96.29C98.1568 96.39 98.2535 96.4667 98.3735 96.52C98.5002 96.5733 98.6302 96.6 98.7635 96.6C99.1035 96.6 99.3402 96.5767 99.4735 96.53C99.6135 96.4833 99.6835 96.39 99.6835 96.25V94.39C99.6835 94.0833 99.5835 93.8633 99.3835 93.73C99.1902 93.59 98.9135 93.52 98.5535 93.52C98.2602 93.52 97.9635 93.5733 97.6635 93.68C97.3702 93.78 97.1302 93.9033 96.9435 94.05V92.73C97.1168 92.6233 97.3835 92.5233 97.7435 92.43C98.1102 92.3367 98.5202 92.29 98.9735 92.29C99.1335 92.29 99.3102 92.3033 99.5035 92.33C99.6968 92.3567 99.8902 92.4067 100.084 92.48C100.277 92.5467 100.454 92.6467 100.614 92.78C100.78 92.9133 100.914 93.0833 101.014 93.29C101.114 93.4967 101.164 93.7533 101.164 94.06L101.154 96.45C101.154 96.7367 101.057 96.97 100.864 97.15C100.67 97.3233 100.39 97.45 100.024 97.53C99.6635 97.61 99.2268 97.65 98.7135 97.65ZM103.966 97.5H102.486V90.53H103.966V97.5ZM107.239 97.65C106.932 97.65 106.642 97.62 106.369 97.56C106.102 97.5067 105.866 97.4167 105.659 97.29C105.459 97.1567 105.302 96.98 105.189 96.76C105.076 96.5333 105.019 96.2533 105.019 95.92C105.019 95.6067 105.082 95.3333 105.209 95.1C105.342 94.8667 105.542 94.6867 105.809 94.56C106.076 94.4333 106.412 94.37 106.819 94.37C107.046 94.37 107.266 94.3933 107.479 94.44C107.692 94.4867 107.882 94.55 108.049 94.63C108.222 94.71 108.359 94.7967 108.459 94.89L108.519 95.61C108.386 95.53 108.226 95.4667 108.039 95.42C107.852 95.3733 107.652 95.35 107.439 95.35C107.112 95.35 106.872 95.4 106.719 95.5C106.572 95.5933 106.499 95.7433 106.499 95.95C106.499 96.0767 106.536 96.19 106.609 96.29C106.682 96.39 106.779 96.4667 106.899 96.52C107.026 96.5733 107.156 96.6 107.289 96.6C107.629 96.6 107.866 96.5767 107.999 96.53C108.139 96.4833 108.209 96.39 108.209 96.25V94.39C108.209 94.0833 108.109 93.8633 107.909 93.73C107.716 93.59 107.439 93.52 107.079 93.52C106.786 93.52 106.489 93.5733 106.189 93.68C105.896 93.78 105.656 93.9033 105.469 94.05V92.73C105.642 92.6233 105.909 92.5233 106.269 92.43C106.636 92.3367 107.046 92.29 107.499 92.29C107.659 92.29 107.836 92.3033 108.029 92.33C108.222 92.3567 108.416 92.4067 108.609 92.48C108.802 92.5467 108.979 92.6467 109.139 92.78C109.306 92.9133 109.439 93.0833 109.539 93.29C109.639 93.4967 109.689 93.7533 109.689 94.06L109.679 96.45C109.679 96.7367 109.582 96.97 109.389 97.15C109.196 97.3233 108.916 97.45 108.549 97.53C108.189 97.61 107.752 97.65 107.239 97.65ZM112.492 97.5H111.012V90.53H112.492V97.5Z" fill="white"/>
<path d="M77.6263 56.7953C78.1486 57.2682 78.6511 57.7412 79.1635 58.2043L79.5675 58.5788C80.2375 59.1995 80.9174 59.8301 81.5677 60.4706C82.2673 61.1604 82.9866 61.2589 83.6961 60.7564L83.903 60.6086V59.3178L83.7256 59.17C80.6415 56.6573 77.6855 53.7407 74.9364 50.4792C74.8575 50.3906 74.7984 50.2132 74.7491 50.0358L73.9806 47.7301C73.1923 45.385 72.3745 42.9512 71.6355 40.547C71.2709 39.3843 70.6107 38.9606 69.4283 39.1182C63.3783 39.9361 58.5698 45.1387 58.2644 51.2281C58.1954 52.4401 58.6683 53.0707 59.8212 53.3367C62.7378 54.0166 65.684 54.7556 68.5415 55.4651L69.0539 55.5932C69.448 55.6917 69.8618 55.8001 70.1279 55.9972L70.522 56.2928C71.9902 57.4161 73.5076 58.5689 74.897 59.8104C76.6706 61.3771 78.4343 63.0424 80.1291 64.6386L81.5382 65.9688C81.7549 66.1757 82.218 66.6093 82.7895 66.6093C83.0851 66.6093 83.4202 66.4911 83.765 66.1659L83.903 66.0181V64.9835L76.237 57.8496L77.3899 56.5785L77.6263 56.7953ZM65.211 47.5823C65.2504 47.5232 65.3096 47.4641 65.3588 47.405C65.4968 47.2473 65.6741 47.0502 65.7431 46.7743C65.8219 46.459 65.8219 46.1536 65.8219 45.8481C65.8219 45.7397 65.8219 45.6313 65.8219 45.5328L65.8515 44.8431L65.1913 45.0401C65.0928 45.0697 64.9745 45.0894 64.8563 45.1091C64.472 45.1781 64.0385 45.2471 63.8315 45.6215C62.9447 47.2177 62.1269 48.883 61.4076 50.361C61.2795 50.627 61.2204 50.9128 61.1613 51.1887C60.8755 51.169 60.639 51.1591 60.5898 51.1493C60.5602 51.0409 60.6292 50.6073 60.6883 50.2625C61.4273 45.9171 64.6592 42.498 68.9258 41.5422C69.4381 41.4239 69.4874 41.4633 69.6451 41.9363C70.0983 43.3848 70.5812 44.8234 71.064 46.262C71.2807 46.9123 71.4975 47.5626 71.7143 48.2129C71.7044 48.1932 71.6946 48.1735 71.6847 48.1538C71.5271 47.7892 71.1921 47.5626 70.9063 47.3754C70.8078 47.3064 70.6994 47.2473 70.6206 47.1685L70.0195 46.6758L69.8323 47.4247C69.8027 47.5331 69.7633 47.6513 69.714 47.7695C69.586 48.1046 69.448 48.4888 69.5465 48.883C69.7338 49.6023 69.9702 50.3117 70.2067 50.9916C70.3644 51.4449 70.5122 51.8981 70.6501 52.3514C70.7092 52.5583 70.6107 52.8638 70.3939 53.0904C70.2067 53.2973 69.9702 53.4057 69.7929 53.3564C68.2065 52.982 66.6201 52.578 65.0238 52.174L63.467 51.7799C63.6936 50.3511 64.2651 48.9618 65.211 47.5823ZM73.8525 52.7061L75.7838 54.8837L74.4338 56.3617L72.138 54.5881L73.8525 52.7061Z" fill="#444444"/>
<path d="M23.2344 73.5654C23.2048 73.9497 23.4807 74.2453 23.6876 74.4818C23.7566 74.5507 23.8157 74.6296 23.8749 74.6985L24.2099 75.1617L24.6237 74.7675C24.6927 74.6985 24.7814 74.6296 24.8799 74.5606C25.1952 74.3241 25.5499 74.0482 25.5105 73.6245L25.4613 72.9643C25.3824 71.8903 25.2938 70.7769 24.8898 69.762C23.8847 67.2494 21.914 65.2984 18.692 63.6134C16.0118 62.2142 13.2134 60.9629 10.5136 59.7509L8.6316 58.9232C5.20261 57.3762 3.21222 55.2676 2.38453 52.3116C2.22688 51.7499 1.96083 51.3952 1.57655 51.2375C1.19227 51.0799 0.758714 51.1587 0.236482 51.4543L0 51.6021V52.6958L0.0197069 52.8436C1.23168 56.6372 3.83298 59.4159 7.75465 61.091C8.24732 61.2979 8.73014 61.5048 9.22281 61.7117C10.3855 62.1945 11.5778 62.6872 12.7011 63.2587L13.5682 63.6923C15.598 64.717 17.7066 65.7713 19.5886 67.0424C22.249 68.8358 23.4315 70.974 23.2344 73.5654Z" fill="#444444"/>
<path d="M69.6235 77.5563C67.6331 74.5018 66.5 71.6147 66.1354 68.7474C65.9482 67.2694 65.8891 65.7421 65.8201 64.2641C65.7807 63.259 65.7413 62.254 65.6624 61.2489C65.6132 60.6183 65.7905 60.2143 66.3029 59.7906C67.1404 59.091 67.9484 58.3323 68.6874 57.5342C68.9436 57.2583 68.9436 56.874 68.9338 56.5587C68.9338 56.4602 68.9338 56.3715 68.9338 56.2828L68.9929 55.7409H68.4411C68.3524 55.7507 68.2539 55.7409 68.1553 55.731C67.909 55.7211 67.6134 55.7014 67.3277 55.7803C67.0419 55.8492 66.8547 56.066 66.7069 56.2335C66.6675 56.2828 66.6281 56.3222 66.5887 56.3616L63.475 59.2585C60.7259 61.8204 57.9768 64.3823 55.2375 66.9639C53.7496 68.3631 52.0943 69.0036 50.2221 69.0233C49.5816 69.0134 48.9412 69.0233 48.3007 69.0233C46.4088 69.0134 44.7732 68.3631 43.2951 66.9639C42.5167 66.2348 41.7482 65.4958 40.9796 64.7666C38.3881 62.2934 35.6982 59.7413 32.9392 57.347C27.7957 52.8932 25.3915 47.4147 25.5885 40.5764C25.7068 36.4478 25.6772 32.2404 25.6477 28.1808C25.6378 26.3579 25.6181 24.535 25.6181 22.7122V21.8648C25.8546 21.7958 26.0615 21.7367 26.2783 21.6973L32.1805 20.4656C35.639 19.7463 39.0976 19.027 42.5561 18.2978C48.5273 17.0366 53.2865 14.7801 57.0998 11.4103C57.425 11.1147 57.7501 10.8191 58.0753 10.5235L58.2822 10.3362C58.8044 10.7304 59.3365 11.1245 59.8489 11.5187C61.2481 12.5631 62.5586 13.5485 63.8593 14.6028C66.6675 16.8888 69.5348 19.3029 72.3923 21.7859C72.6387 21.9929 72.8456 22.5446 72.8456 22.9881C72.8751 27.7965 72.8751 32.5951 72.8751 37.4036V41.749V41.9559C72.8653 42.2614 72.8554 42.5964 72.9835 42.9215C73.1412 43.3058 73.6339 43.7295 74.0674 43.7295C74.5108 43.7197 74.9739 43.2861 75.1217 42.9018C75.24 42.5865 75.2301 42.2515 75.2203 41.9559L75.2104 41.7293V25.5697L75.2991 25.7175C75.6045 26.2397 75.91 26.7718 76.1662 27.3137C79.6543 34.6545 79.743 42.153 76.4224 49.6022L76.3633 49.7303C76.176 50.1244 75.7523 51.0408 76.7673 51.5531C77.0826 51.7108 77.3782 51.7404 77.6541 51.632C78.0778 51.4743 78.3044 51.0802 78.4817 50.6663C82.9552 40.3794 81.891 30.6146 75.3286 21.6184C73.358 18.9186 70.7172 16.9183 68.1553 14.9772C67.6134 14.5732 67.0813 14.1594 66.5492 13.7455C64.953 12.504 63.3469 11.2723 61.7112 10.0209L59.8588 8.59219C59.9967 8.41483 60.1248 8.25717 60.2233 8.06996L60.5682 7.39993C61.5043 5.59675 62.4699 3.73445 63.3666 1.88201C63.5439 1.52728 63.3764 1.143 63.2385 0.837542C63.1991 0.748861 63.1597 0.66018 63.1301 0.571499L62.9823 0L62.4601 0.266043C62.3714 0.305456 62.2827 0.34487 62.194 0.394137C61.9378 0.502525 61.6521 0.63062 61.4156 0.847395C61.1988 1.03461 61.1299 1.2908 61.0707 1.48787C61.0412 1.5667 61.0215 1.65538 60.9919 1.70464C60.6667 2.286 60.3613 2.88705 60.0657 3.48811C59.4055 4.79862 58.7158 6.15839 57.8191 7.29154C54.8237 11.1048 50.7443 13.7061 45.7092 15.0166C40.6544 16.337 35.4321 17.3913 30.3773 18.4161L28.9091 18.7117C25.3225 19.4408 21.5388 20.4656 18.2576 22.9979C10.3354 29.0873 8.5421 40.9607 14.3359 48.9223C15.5873 50.6466 17.0161 52.2626 18.3955 53.8293C18.9572 54.4599 19.509 55.1004 20.0608 55.731L21.1052 56.943C23.5292 59.7512 26.0418 62.658 27.7859 66.018C29.0471 68.4419 29.4117 70.3732 28.9781 72.2749C28.3771 74.8959 25.9531 76.7582 22.8 77.0243C22.396 77.0637 22.0906 77.3297 21.8245 77.5662C21.7358 77.645 21.6472 77.7239 21.5585 77.7928L20.9771 78.2067L21.5782 78.6008C21.6669 78.6599 21.7556 78.7388 21.8442 78.8077C22.1201 79.0442 22.4354 79.3103 22.8394 79.2906C25.5885 79.1625 28.0913 77.9702 29.6876 75.9897C31.1951 74.1372 31.7666 71.7921 31.3429 69.2006C30.8798 66.3629 29.5595 63.6729 27.1749 60.7464C23.9627 56.7952 20.5928 52.8439 17.42 49.1785C14.3458 45.6115 12.9072 41.0789 13.3703 36.4084C13.8334 31.7773 16.1095 27.6586 19.7947 24.7912C20.6323 24.1409 21.5979 23.5793 22.534 23.0472C22.8197 22.8895 23.0956 22.722 23.3814 22.5545V42.2219C23.3814 48.1439 25.4309 53.1494 29.4806 57.0809C32.6534 60.165 35.9642 63.2196 39.1567 66.1756L42.1423 68.9444C43.5809 70.2747 45.3545 71.0531 47.4237 71.2403C51.8676 71.6443 54.9616 70.6786 57.4447 68.0773C58.7453 66.7176 60.1741 65.4366 61.5536 64.1951C62.1448 63.663 62.736 63.1309 63.3173 62.5988C63.3272 62.589 63.337 62.5791 63.3567 62.5693C63.3567 63.1408 63.3567 63.7024 63.3666 64.2739C63.3863 69.6145 64.8545 74.5018 67.7218 78.8176C67.7711 78.8866 67.8105 78.9752 67.8598 79.0541C68.0568 79.4088 68.3032 79.8621 68.7958 79.9704C68.8747 79.9901 68.9436 80 69.0225 80C69.2491 80 69.4856 79.9212 69.7319 79.7635C70.0472 79.5566 70.2344 79.2905 70.2837 78.9949C70.3625 78.4924 70.0571 78.0884 69.8009 77.7633C69.7319 77.7041 69.6728 77.6352 69.6235 77.5563Z" fill="#444444"/>
<path d="M49.0228 61.7416H49.0425C51.6537 61.7121 53.5948 61.0322 55.1517 59.6034C56.5016 58.3619 57.3293 57.5441 57.3293 56.6178C57.3293 55.6916 56.541 54.923 55.1418 53.6322C53.8904 52.4892 51.9394 51.0999 49.4761 52.2823C49.4071 52.2922 49.2396 52.2429 49.1214 52.2134C48.944 52.1641 48.7469 52.1148 48.5499 52.105C48.3429 52.0951 48.136 52.0754 47.9291 52.0557C47.2985 51.9966 46.6481 51.9375 46.0372 52.1345C44.4016 52.6765 43.0221 53.7505 41.8101 55.4256C41.2189 56.2434 41.2189 57.0021 41.8298 57.8298C43.6429 60.3129 46.1358 61.6628 49.0228 61.7416ZM43.8399 56.5981C44.5592 55.5142 45.6037 54.7358 46.9339 54.2727C47.062 54.2333 47.3083 54.2727 47.5547 54.322C47.7419 54.3614 47.9291 54.391 48.1065 54.4008C48.2937 54.4107 48.4907 54.4402 48.678 54.4698C49.2396 54.5486 49.8209 54.6373 50.353 54.4304C51.2004 54.0954 51.9 54.184 52.639 54.7161C53.2401 55.1497 53.8116 55.6423 54.3634 56.1252C54.5013 56.2434 54.6491 56.3715 54.7871 56.4897C53.7131 58.2042 51.8409 59.2783 49.7126 59.3768C47.3674 59.4852 45.18 58.4407 43.8399 56.5981Z" fill="#444444"/>
<path d="M11.0142 23.2638C11.0832 23.6481 11.4182 23.8648 11.6843 24.0422C11.7631 24.0915 11.8419 24.1506 11.9109 24.2097L12.3247 24.5644L12.64 24.121C12.6893 24.0521 12.7484 23.9732 12.7977 23.9043C12.9652 23.6973 13.1426 23.4609 13.2411 23.1652C13.3298 22.8894 13.2707 22.6233 13.2214 22.4164C13.2017 22.3376 13.182 22.2686 13.182 22.1996C13.1524 21.7661 13.113 21.3227 13.0736 20.8891C12.9849 19.9136 12.8962 18.9086 12.9356 17.9331C13.0834 13.6567 14.4531 9.6759 17.0347 6.06955C17.2613 5.74438 17.5766 5.31083 17.4584 4.81816C17.3894 4.53241 17.1923 4.29593 16.8672 4.12842C16.3646 3.86238 15.5074 4.27622 15.2118 4.69007C11.9996 9.09455 10.4821 14.0804 10.5807 19.9333L10.6694 20.6822C10.7383 21.4212 10.8467 22.3573 11.0142 23.2638Z" fill="#444444"/>
<path d="M29.9031 36.3296C29.8834 36.4478 29.8637 36.5661 29.8341 36.6744L29.6469 37.4036L30.3958 37.2755C30.5042 37.2558 30.6224 37.2459 30.7505 37.2459C31.1052 37.2262 31.5092 37.1967 31.8245 36.9503C32.6916 36.2606 33.4996 36.1424 34.5145 36.5463C37.2242 37.6302 39.8846 37.5514 42.4268 36.3L42.545 36.2409C42.8899 36.0832 43.3136 35.8763 43.4811 35.4329C43.5797 35.1669 43.5501 34.8713 43.4023 34.5658C43.2545 34.2505 43.0476 34.0534 42.7815 33.9549C42.3283 33.7972 41.8947 34.0042 41.4513 34.2111C39.6087 35.0683 37.8253 35.2063 36.1403 34.6052C35.086 34.2308 34.0711 33.5706 33.1744 32.9893C31.4304 31.8463 29.1838 31.8167 27.5974 32.9006C27.2821 33.1174 27.1737 33.4721 27.085 33.7874C27.0555 33.8859 27.0259 33.9845 26.9865 34.0731L26.75 34.6052L27.3215 34.7432C27.4102 34.7629 27.4989 34.7924 27.5875 34.822C27.8437 34.9008 28.1393 35.0092 28.4645 34.9698C28.7601 34.9402 29.0261 34.8121 29.2528 34.7038C29.3612 34.6446 29.4794 34.5954 29.5976 34.556C30.1691 34.3687 30.6815 34.3786 31.1545 34.5658C30.849 34.7727 30.5436 34.9895 30.2972 35.2753C30.0213 35.5906 29.9622 35.9748 29.9031 36.3296Z" fill="#444444"/>
<path d="M69.6651 34.812L69.7735 34.8613C70.1184 35.0288 70.5421 35.2259 70.9855 35.0583C71.2614 34.9598 71.4683 34.7332 71.6062 34.408C72.0496 33.3635 71.1037 32.9201 70.6997 32.7329L70.611 32.6935C68.6404 31.7673 66.8175 31.9348 65.1818 33.1862C62.6692 35.1175 60.0383 35.4623 57.1611 34.2602C56.7177 34.073 55.6732 34.0829 55.3678 34.5952C55.1904 34.8908 55.1411 35.1864 55.22 35.4623C55.3678 35.9353 55.8309 36.1619 56.2644 36.3688C58.6391 37.502 61.0335 37.6399 63.3885 36.7827C64.9946 36.2013 65.9996 36.1028 67.0145 37.167C67.182 37.3345 67.3988 37.3837 67.6156 37.3837C67.7535 37.3837 67.8915 37.364 68.0196 37.3443C68.1083 37.3345 68.2068 37.3148 68.2856 37.3148L68.798 37.3049L68.7684 36.7925C68.7684 36.7039 68.7684 36.6152 68.7783 36.5167C68.798 36.2013 68.8177 35.8072 68.5615 35.5215C68.2364 35.1667 67.8619 34.8711 67.4678 34.5755C68.0787 34.3292 68.7881 34.408 69.6651 34.812Z" fill="#444444"/>
<path d="M55.3391 28.1316C55.4277 28.1711 55.5164 28.1908 55.6149 28.1908C55.9894 28.1908 56.4131 27.905 56.9057 27.4912C57.1718 27.2645 57.4181 27.0084 57.6645 26.762C58.0192 26.3974 58.3641 26.0427 58.7483 25.8062C60.049 25.0081 61.6551 24.6534 63.5075 24.7716C64.6604 24.8406 65.8428 25.0081 66.9858 25.1756C67.8135 25.2939 68.6412 25.4121 69.4689 25.4909C69.863 25.5303 70.2079 25.3727 70.5232 25.2249C70.6316 25.1756 70.7498 25.1263 70.8582 25.0869L71.5775 24.8505L71.075 24.2888C70.9961 24.21 70.9272 24.1016 70.8582 24.0031C70.6316 23.6877 70.3852 23.3429 69.9714 23.2542C68.4737 22.9487 66.9957 22.7024 65.5669 22.4758L64.1973 22.2491L64.1283 22.259C63.6652 22.3181 63.2218 22.3674 62.808 22.4167C61.9409 22.5152 61.123 22.6039 60.3249 22.7714C57.8418 23.2739 56.1273 24.3873 55.0632 26.1905C54.8562 26.5354 54.5705 27.0182 54.738 27.501C54.7676 27.6784 54.9351 27.9543 55.3391 28.1316Z" fill="#444444"/>
<path d="M27.8756 25.1557C28.0924 25.2937 28.3289 25.4415 28.6146 25.5203C28.8905 25.5991 29.1369 25.5203 29.3339 25.4513C29.3931 25.4316 29.4522 25.4119 29.5113 25.4021C31.2061 25.1262 32.891 24.8601 34.1424 24.663L34.3198 24.6729C37.6305 24.8897 40.2515 25.0572 41.8281 27.757C41.9365 27.9442 42.1434 28.0822 42.4489 28.1512C42.5178 28.1709 42.6656 28.2004 42.843 28.2004C43.0204 28.2004 43.2174 28.1709 43.3751 28.0625C43.6904 27.8654 43.7889 27.422 43.8086 27.2446C43.8579 26.9293 43.8086 26.683 43.6707 26.5056C43.513 26.3086 43.3652 26.1115 43.2076 25.9046C42.6558 25.1656 42.0941 24.4069 41.2862 24.0029C39.9067 23.3131 38.3006 22.8106 36.4974 22.515C33.7483 22.0617 31.0682 22.6332 28.3388 23.323C27.9643 23.4215 27.7673 23.7664 27.6195 24.0521C27.5702 24.1408 27.5209 24.2295 27.4716 24.2985L27.1465 24.7517L27.6293 25.0178C27.718 25.0572 27.7968 25.1065 27.8756 25.1557Z" fill="#444444"/>
<path d="M39.3255 13.2134C39.3748 13.2529 39.4142 13.2824 39.4437 13.312L39.631 13.4992L40.5079 13.3317C43.8778 12.6518 46.8929 11.2231 49.4548 9.08486C49.5139 9.03559 49.5731 8.98632 49.642 8.94691C49.9376 8.73013 50.3416 8.43453 50.3909 7.95171C50.4303 7.64626 50.3121 7.3408 50.0657 7.0452C49.3464 6.1978 48.5877 6.81857 48.302 7.05505C48.2231 7.12402 48.1443 7.18314 48.0655 7.23241C47.6221 7.50831 47.1787 7.7842 46.7353 8.06995C45.7105 8.73013 44.6463 9.41002 43.5526 9.93225C42.8432 10.2771 42.0647 10.4742 41.2371 10.691C40.7148 10.8289 40.1926 10.9669 39.6802 11.1344C39.2565 11.2822 38.7638 11.8241 38.7441 12.3365C38.754 12.7503 39.089 13.0164 39.3255 13.2134Z" fill="#444444"/>
<path d="M46.0244 48.9614C46.7043 49.3654 47.4138 49.7004 48.1134 50.0256C48.3597 50.1438 48.606 50.262 48.8524 50.3803L49.2958 50.5971L49.4929 50.1832C50.7344 50.1438 51.7887 49.7102 52.6361 48.8924C52.912 48.6264 52.9416 48.2224 52.9613 47.9071C52.9711 47.8085 52.9711 47.7001 52.9908 47.6115L53.0992 47.0498L52.5277 47.0301C52.439 47.0301 52.3405 47.0104 52.2518 47.0006C51.9365 46.9513 51.5325 46.8922 51.2369 47.1286C49.9166 48.1633 48.7144 48.1633 47.335 47.1286C47.0295 46.902 46.6452 46.9513 46.3299 47.0006C46.2314 47.0104 46.1427 47.0301 46.054 47.0301L45.4727 47.04L45.581 47.6115C45.6007 47.7001 45.6106 47.8085 45.6106 47.9169C45.6402 48.3209 45.6697 48.7545 46.0244 48.9614Z" fill="#444444"/>
<path d="M16.8998 18.2581L16.7126 17.7063L16.2002 17.992C16.1214 18.0413 16.0229 18.0709 15.9243 18.1201C15.5992 18.2482 15.205 18.4059 15.0671 18.7902C14.535 20.3175 14.0522 21.8842 13.6482 23.441C13.5497 23.8154 13.7369 24.1504 13.934 24.4953C14.0226 24.6431 14.1113 24.8106 14.2 25.0077L14.535 25.7664L15.0375 25.1062C15.1755 24.919 15.3036 24.7712 15.412 24.653C15.6189 24.4066 15.7963 24.2096 15.8751 23.9435C16.4466 22.1699 16.8604 20.7904 17.2053 19.4799C17.294 19.1252 17.1363 18.7902 17.0082 18.5143C16.9688 18.4256 16.9294 18.3369 16.8998 18.2581Z" fill="#444444"/>
<path d="M50.7463 6.16777L50.9039 6.63088L51.367 6.48308C51.4951 6.44367 51.6035 6.41411 51.6823 6.3944C51.8893 6.34513 52.0962 6.29586 52.244 6.07909L52.313 5.9707C52.8056 5.23169 53.3279 4.47298 53.7713 3.67485C53.8797 3.48764 53.8797 3.25115 53.7811 2.97526C53.722 2.8176 53.5643 2.45303 53.249 2.32493C52.8746 2.17713 52.1849 2.21654 51.8893 2.59097C51.2586 3.40881 50.8054 4.1084 50.4802 4.77844C50.3029 5.14301 50.4802 5.5273 50.6379 5.86231C50.6674 5.98055 50.7167 6.07909 50.7463 6.16777Z" fill="#444444"/>
<path d="M66.5289 45.4832L66.9132 45.9168L67.534 45.1482C67.8591 44.7541 68.135 44.4092 68.3814 44.0249C68.5982 43.6702 68.2927 43.3845 68.1449 43.2465C67.8197 42.9509 67.4256 42.5765 67.0315 42.8425C66.6176 43.1381 66.2136 43.5224 65.7899 44.0151C65.4943 44.3698 65.7604 44.6556 66.1644 45.0891C66.2826 45.2074 66.4008 45.3453 66.5289 45.4832Z" fill="#444444"/>
</svg>
