<svg width="80" height="80" viewBox="0 0 80 80" fill="none" xmlns="http://www.w3.org/2000/svg">
<path d="M47.3916 80C42.4676 80 37.5437 80 32.6197 80C32.4845 79.9549 32.338 79.9099 32.2028 79.8761C29.1268 79.1437 27.1211 77.2732 26.3099 74.2085C26.0394 73.2056 25.9493 72.169 25.7915 71.1437C25.2507 67.7746 24.7211 64.4056 24.2028 61.0366C24.1352 60.5859 23.9099 60.293 23.5944 59.9775C22.8056 59.1887 22.0056 58.3887 21.3408 57.4873C19.8535 55.4704 19.2113 53.138 19.0761 50.6479C19.0197 49.6563 18.8845 48.6761 18.7831 47.6282C18.3775 47.6958 18.0507 47.7521 17.7239 47.7972C17.3859 47.8423 17.0479 47.8986 16.7211 47.9324C12.7099 48.2704 9.08169 47.2563 5.85915 44.8451C3.32394 42.9521 1.5662 40.4958 0.495775 37.5324C0.326761 37.1268 0.157746 36.7211 0 36.3042C0 36.0113 0 35.707 0 35.4141C0.912676 34.7944 1.78028 34.062 2.76056 33.5662C6.90704 31.4817 11.1775 31.3577 15.5042 33.0028C16.1916 33.262 16.8451 33.6 17.6563 33.9606C17.307 31.3239 17.307 28.8338 18.4789 26.3662C18.0845 26.3662 17.8141 26.3775 17.5549 26.3662C16.4958 26.3099 15.4028 26.3775 14.3887 26.1408C8.7324 24.8451 4.8 21.5211 3.17746 15.8986C2.21972 12.5859 1.67887 9.16056 0.935211 5.79155C0.630986 4.4507 0.315493 3.12113 0 1.78028C0 1.19437 0 0.597183 0 0C0.552113 0 1.10423 0 1.65634 0C1.93803 0.247887 2.26479 0.473239 2.49014 0.766197C3.9662 2.70423 5.40845 4.66479 6.87324 6.61408C7.94366 8.0338 8.92394 9.53239 10.3887 10.6028C12.7437 12.338 15.3239 13.5099 18.2873 13.6113C19.9662 13.6676 21.6451 13.6338 23.3127 13.6113C23.5493 13.6113 23.8423 13.5437 24.0113 13.3972C25.2845 12.338 26.7606 11.9099 28.3718 11.8986C36.1239 11.8873 43.8648 11.8873 51.6169 11.8986C52.8789 11.8986 54.1747 12.0676 55.1775 12.8789C56.0563 13.5887 56.9916 13.6789 58.0169 13.6225C58.1634 13.6113 58.3099 13.6225 58.4676 13.6225C60.3493 13.5662 62.2423 13.7915 64.1014 13.2732C67.1775 12.4169 69.8592 10.9408 71.8197 8.33803C73.6789 5.87042 75.5268 3.38028 77.3972 0.912676C77.6563 0.56338 78.0282 0.304225 78.3437 0C78.8958 0 79.4479 0 80 0C80 0.597183 80 1.19437 80 1.78028C79.9549 1.87042 79.8873 1.96056 79.8648 2.06197C79.0085 6.0169 78.0845 9.96056 77.3408 13.938C76.6535 17.5887 75.0761 20.6535 72.1916 23.0197C70.0394 24.7887 67.6169 25.9944 64.8 26.2648C63.7521 26.3662 62.693 26.3775 61.5549 26.4338C62.693 28.8338 62.7042 31.3352 62.3437 33.9718C62.738 33.7916 62.9859 33.6901 63.2225 33.5775C63.4704 33.4535 63.707 33.307 63.9549 33.2056C67.9324 31.5493 71.9437 31.4141 75.9775 32.969C77.4535 33.5437 78.8845 34.2197 80 35.4141C80 35.707 80 36.0113 80 36.3042C79.8986 36.5296 79.7746 36.7549 79.707 36.9916C78.6366 40.462 76.5859 43.2451 73.6113 45.2732C70.8282 47.1775 67.7183 48.1352 64.3155 47.9887C63.3014 47.9437 62.2986 47.7972 61.2169 47.6958C61.1155 48.7549 60.9916 49.8254 60.9239 50.8958C60.7099 54.4789 59.2789 57.4761 56.5746 59.8423C56.0676 60.293 55.8085 60.7662 55.7746 61.3972C55.7634 61.5662 55.7183 61.7352 55.6958 61.9042C55.0873 65.6901 54.4563 69.4761 53.8817 73.2732C53.5324 75.6056 52.507 77.5211 50.4676 78.7268C49.5211 79.2901 48.4169 79.5831 47.3916 80ZM58.6704 47.2451C56.1916 47.2451 53.8366 47.2338 51.4817 47.2676C51.3577 47.2676 51.1437 47.5493 51.1324 47.7183C51.0873 48.2028 51.1211 48.6986 51.1099 49.1831C51.0873 50.107 50.6366 50.6254 49.8479 50.6254C49.0592 50.6254 48.5972 50.107 48.5859 49.1831C48.5746 48.2479 48.5746 47.3127 48.5859 46.3775C48.5972 45.1268 49.0141 44.6986 50.2761 44.6986C52.9127 44.6986 55.538 44.6986 58.1747 44.6986C58.4 44.6986 58.6254 44.6761 58.862 44.6648C58.9296 44.1127 58.9859 43.6282 59.031 43.1549C59.0873 42.6704 59.0535 42.1634 59.1887 41.7014C59.3014 41.3296 59.5268 40.8789 59.831 40.6873C60.7324 40.1352 61.7239 40.8563 61.6676 41.9718C61.6225 42.8394 61.4873 43.707 61.4423 44.5747C61.431 44.7549 61.6225 45.0704 61.769 45.1042C62.4451 45.262 63.1437 45.3972 63.8423 45.4423C67.5042 45.6451 70.738 44.5521 73.4986 42.1183C75.1324 40.6761 76.3042 38.8958 77.0592 36.8563C77.1155 36.6873 77.0254 36.338 76.9014 36.2592C74.7268 34.9746 72.3718 34.3775 69.8479 34.4676C66.8169 34.569 64.1352 35.6169 61.8028 37.5549C61.3408 37.938 60.8225 38.107 60.2704 37.8141C59.6958 37.5099 59.5268 36.9803 59.5831 36.3606C59.6507 35.662 59.707 34.9634 59.7746 34.2648C59.9662 32.1127 60.2592 29.9606 59.369 27.8648C58.8394 26.6141 58.6479 26.4113 57.3296 26.4113C57.2282 26.4113 57.1155 26.4225 57.0141 26.4113C56.507 26.3662 56.1014 26.5014 55.6845 26.8394C54.6479 27.6732 53.3972 28.0225 52.0789 28.1127C51.4141 28.1577 50.907 27.8085 50.7042 27.2C50.4225 26.3549 51.031 25.6 52.1577 25.5324C54.1408 25.431 55.7296 23.7183 55.7408 21.6113C55.7521 20.5521 55.7634 19.493 55.7296 18.4225C55.7183 18.0056 55.6507 17.5662 55.5155 17.1718C54.9183 15.3803 53.5887 14.5014 51.5042 14.5014C46.2423 14.5014 40.969 14.5014 35.707 14.5014C33.262 14.5014 30.8282 14.5465 28.3831 14.4901C25.7803 14.4338 24.1465 16.3831 24.2141 18.6817C24.2366 19.6394 24.2028 20.5972 24.2254 21.5437C24.2479 22.7155 24.631 23.7408 25.5099 24.5521C26.2648 25.2507 27.1887 25.4761 28.1803 25.5775C28.9014 25.6563 29.3972 26.3099 29.3183 26.9296C29.2282 27.6282 28.6197 28.1239 27.8761 28.0789C26.4676 27.9887 25.1718 27.5606 24.0676 26.6592C23.7859 26.4225 21.7127 26.231 21.4197 26.4225C21.3183 26.4901 21.262 26.6141 21.1944 26.7268C20.3606 28.0338 19.9211 29.4648 19.9887 31.0085C20.0676 32.7211 20.2141 34.4338 20.3606 36.1465C20.4169 36.8 20.3493 37.4085 19.7408 37.7577C19.0873 38.1408 18.5352 37.8479 18.0056 37.4085C16.6423 36.293 15.1324 35.4817 13.431 34.9972C9.83662 33.9606 6.4338 34.3775 3.1662 36.169C2.79437 36.3718 2.77183 36.5634 2.90704 36.9239C3.5493 38.5916 4.43944 40.1127 5.69014 41.3634C9.09296 44.7662 13.1718 46.0958 17.9493 45.1718C18.4789 45.0704 18.5916 44.8563 18.5239 44.3606C18.4113 43.5606 18.3437 42.7606 18.2986 41.9493C18.2535 41.1493 18.7155 40.5859 19.4254 40.4958C20.1239 40.4056 20.6648 40.8676 20.8 41.6789C20.8563 42.0169 20.8676 42.3549 20.9127 42.693C20.9803 43.3352 21.0479 43.9887 21.1155 44.6761C21.4085 44.6761 21.6451 44.6761 21.8704 44.6761C24.5296 44.6761 27.1775 44.6761 29.8366 44.6761C30.7718 44.6761 31.3127 45.0141 31.3465 45.7916C31.4141 47.0197 31.4141 48.2592 31.3577 49.4761C31.3239 50.1859 30.7268 50.6254 30.0507 50.5803C29.3521 50.5352 28.9127 50.0845 28.8789 49.3296C28.8563 48.8225 28.8451 48.3042 28.8789 47.7972C28.9014 47.3465 28.7437 47.2 28.293 47.2C26.1521 47.2113 24 47.2113 21.8592 47.2C21.4197 47.2 21.3183 47.369 21.3521 47.7747C21.431 48.5972 21.4873 49.4197 21.5324 50.2535C21.7014 53.5099 22.8958 56.2704 25.5437 58.2873C26.1972 58.7831 26.5014 59.369 26.5916 60.1465C26.7042 61.0479 26.8958 61.9493 26.9972 62.8507C27.0535 63.3127 27.2113 63.493 27.7183 63.493C35.8873 63.4817 44.0676 63.4817 52.2366 63.493C52.7437 63.493 52.8789 63.2901 52.9352 62.8394C53.0704 61.8254 53.2507 60.8225 53.4085 59.8197C53.4986 59.2563 53.7239 58.8056 54.2085 58.4451C55.4592 57.5099 56.462 56.3493 57.2056 54.9521C58.5352 52.5859 58.3887 49.9493 58.6704 47.2451ZM41.2732 72.8789C41.2732 74.3549 41.262 75.707 41.2958 77.0592C41.2958 77.1944 41.6113 77.4197 41.7803 77.4197C43.3465 77.4423 44.9239 77.4423 46.4901 77.431C48.9577 77.4197 50.9972 75.4479 51.2676 73.307C51.4366 71.9775 51.6845 70.6704 51.9099 69.3521C52.0789 68.293 52.2592 67.2338 52.4394 66.1296C44.1127 66.1296 35.8648 66.1296 27.538 66.1296C27.9775 68.7324 28.3268 71.3014 28.8676 73.8254C29.2845 75.7972 30.9408 77.1944 32.9577 77.3521C34.6254 77.4873 36.3042 77.4197 37.9831 77.4423C38.2085 77.4423 38.4338 77.4197 38.6704 77.4084C38.6704 75.8761 38.6704 74.4113 38.6704 72.8789C38.3887 72.8789 38.1521 72.8789 37.9268 72.8789C36.9465 72.8789 35.9775 72.8901 34.9972 72.8676C34.3662 72.8563 33.8028 72.6085 33.7352 71.9437C33.6451 71.1549 33.6563 70.3324 33.7352 69.5437C33.7916 68.9352 34.3099 68.6648 34.8845 68.6535C35.4704 68.6423 35.8986 68.9239 36.0901 69.5099C36.169 69.7465 36.1916 70.0056 36.2366 70.2761C38.7606 70.2761 41.2732 70.2761 43.7859 70.2761C43.8197 70.062 43.8423 69.893 43.8761 69.7352C44.0338 69.0366 44.5296 68.6197 45.1606 68.6423C45.7916 68.6648 46.2761 69.1155 46.3549 69.8141C46.4 70.2535 46.3775 70.7042 46.3775 71.1549C46.3775 72.4507 45.9606 72.8676 44.6648 72.8789C43.5606 72.8901 42.4676 72.8789 41.2732 72.8789ZM57.9831 16.0901C58.4451 18.7718 58.4225 21.262 58.0056 23.8197C59.369 23.8197 60.6761 23.7746 61.9944 23.831C64.9352 23.9662 67.6169 23.2676 69.9831 21.4648C72.1014 19.8535 73.7127 17.8817 74.3887 15.2676C74.9183 13.1944 75.3239 11.0873 75.7747 9.00282C75.9099 8.37183 76.0113 7.72958 76.1352 7.08732C76.0789 7.04225 76.0113 6.98592 75.9549 6.94085C71.8873 13.7915 65.9155 16.8901 57.9831 16.0901ZM4.04507 6.94085C3.98873 6.99718 3.93239 7.05352 3.87606 7.10986C3.88732 7.2338 3.88732 7.35775 3.90986 7.48169C4.29296 9.30704 4.70986 11.1211 5.07042 12.9577C5.50986 15.1775 6.06197 17.3183 7.57183 19.1211C9.80282 21.7915 12.5296 23.5606 16.0563 23.7746C17.938 23.8873 19.831 23.8085 21.7239 23.8197C21.8141 23.8197 21.9155 23.7746 21.8817 23.7859C21.8141 22.4789 21.7127 21.2282 21.7127 19.9887C21.7127 18.7493 21.8141 17.5099 21.8817 16.1239C14.107 16.8901 8.11268 13.8028 4.04507 6.94085Z" fill="#444444"/>
<path d="M40.0002 25.5216C42.1411 25.5216 44.2819 25.5216 46.4228 25.5216C46.9411 25.5216 47.4368 25.5779 47.7861 26.0399C48.3044 26.7272 48.0453 27.685 47.234 27.9667C46.9636 28.0568 46.6481 28.1019 46.3664 28.1019C42.1185 28.1132 37.8819 28.1132 33.634 28.1019C33.3185 28.1019 32.9918 28.0568 32.6988 27.9441C32.158 27.7526 31.8988 27.2906 31.9326 26.7385C31.9664 26.1751 32.2706 25.7244 32.8678 25.6005C33.1495 25.5329 33.4537 25.5216 33.7467 25.5216C35.8425 25.5103 37.9157 25.5216 40.0002 25.5216Z" fill="#444444"/>
</svg>
