<svg width="27" height="32" viewBox="0 0 27 32" fill="none" xmlns="http://www.w3.org/2000/svg">
<path d="M23.8157 31.369C17.1108 31.369 10.4058 31.369 3.70088 31.369C3.66954 31.3518 3.63966 31.3263 3.60614 31.3181C1.88398 30.8636 1.00651 29.7138 1.00651 27.9001C1.00578 19.2182 1.0087 10.5363 0.99995 1.85508C0.999221 1.39082 1.10708 1.02674 1.51448 0.791992C8.94823 0.791992 16.382 0.791992 23.8157 0.791992C23.8842 0.815168 23.9506 0.845072 24.0205 0.860772C25.1684 1.12617 25.7587 1.76313 25.9387 2.9563C25.981 3.2374 25.9999 3.52598 25.9999 3.81081C25.9934 10.9856 25.9825 18.1603 25.9708 25.3351C25.9708 25.5085 25.9693 25.6864 25.9351 25.8546C25.8666 26.1955 25.6472 26.3959 25.3127 26.446C25.1575 26.4692 24.9978 26.4617 24.8404 26.4617C18.0407 26.4624 11.2403 26.4617 4.44061 26.4639C4.2227 26.4639 4.00114 26.4654 3.78834 26.5051C2.93564 26.665 2.35041 27.5562 2.51221 28.4271C2.67619 29.3093 3.32773 29.8177 4.31016 29.8177C10.6369 29.8192 16.9628 29.8184 23.2895 29.8199C23.4586 29.8199 23.6321 29.8229 23.7953 29.8603C24.0963 29.9291 24.2763 30.1421 24.3397 30.4472C24.4039 30.7567 24.2953 31.0109 24.0577 31.2052C23.9819 31.2673 23.8966 31.3151 23.8157 31.369ZM24.4921 24.9485C24.4921 24.7564 24.4921 24.6211 24.4921 24.4865C24.5059 17.6108 24.5198 10.7359 24.5329 3.86016C24.5329 3.71063 24.5372 3.56111 24.5285 3.41159C24.4899 2.74324 24.2319 2.44345 23.5884 2.3343C23.4222 2.30589 23.2502 2.30066 23.0811 2.30066C16.3543 2.29916 9.62747 2.29916 2.90066 2.29916C2.77166 2.29916 2.64266 2.29916 2.50929 2.29916C2.50929 10.0197 2.50929 17.6901 2.50929 25.4061C3.16886 24.9986 3.85028 24.9441 4.55139 24.9448C11.0231 24.9508 17.4949 24.9485 23.9666 24.9485C24.1226 24.9485 24.2785 24.9485 24.4921 24.9485Z" fill="#444444" stroke="#444444" stroke-width="0.1"/>
<path d="M14.4901 27.3341C17.7807 27.3341 21.0712 27.3341 24.361 27.3341C25.0504 27.3341 25.425 27.6197 25.4112 28.1319C25.3981 28.6343 25.049 28.8855 24.361 28.8855C17.7683 28.8855 11.1748 28.8855 4.58211 28.8855C4.46113 28.8855 4.33796 28.8915 4.21844 28.8758C3.81468 28.825 3.53118 28.4915 3.53847 28.087C3.54503 27.6915 3.81322 27.3939 4.21844 27.3453C4.35035 27.3296 4.48518 27.3341 4.61855 27.3341C7.90908 27.3341 11.1996 27.3341 14.4901 27.3341Z" fill="#444444" stroke="#444444" stroke-width="0.1"/>
<path d="M12.8612 22.1839C11.8882 22.1734 10.2499 21.7832 8.69171 21.0176C8.26682 20.809 8.07296 20.507 8.0766 20.0248C8.08754 18.4309 8.07588 16.8363 8.08535 15.2424C8.08681 14.9845 8.0234 14.8574 7.76832 14.7572C5.93102 14.0328 4.95808 12.0277 5.51196 10.1505C6.08771 8.19547 7.93303 7.07781 9.89641 7.51964C10.1806 7.58393 10.349 7.5331 10.5538 7.329C12.2628 5.62596 14.8522 5.64764 16.538 7.37461C16.7034 7.54431 16.8346 7.58917 17.07 7.53235C19.0108 7.06659 20.91 8.15884 21.5229 10.0735C22.1249 11.9522 21.2402 13.9042 19.3905 14.7385C19.1718 14.8372 19.1514 14.9725 19.1522 15.1706C19.1558 16.7772 19.1434 18.3838 19.1602 19.9904C19.1653 20.4943 18.9634 20.7918 18.5283 21.0086C16.9752 21.7809 15.3449 22.1988 12.8612 22.1839ZM9.48027 9.00662C9.27621 8.99391 9.08453 8.95952 8.8965 8.97448C7.99644 9.0455 7.22245 9.67722 6.95498 10.5415C6.6744 11.4468 6.95061 12.4179 7.6539 13.0011C8.39509 13.6156 9.34253 13.6896 10.2098 13.2007C10.685 12.933 11.072 13.013 11.3081 13.4272C11.5377 13.8302 11.4101 14.257 10.9277 14.5045C10.4889 14.7295 10.0189 14.8903 9.52691 15.0936C9.52691 16.5088 9.53493 17.9644 9.52035 19.4207C9.51744 19.7056 9.61145 19.8327 9.86508 19.9358C12.3503 20.9458 14.8282 20.9683 17.3134 19.9328C17.5656 19.8274 17.6588 19.7003 17.6574 19.417C17.645 17.536 17.6508 15.6558 17.6516 13.7748C17.6516 13.6261 17.653 13.475 17.672 13.3278C17.712 13.0078 17.9066 12.8149 18.1952 12.7222C18.4955 12.6258 18.7433 12.7319 18.9459 12.9644C19.0071 13.0355 19.0596 13.1147 19.1143 13.1887C20.1149 12.5346 20.4764 11.3227 19.9976 10.2783C19.5508 9.30417 18.4583 8.75244 17.5728 9.05372C17.5692 9.06494 17.5605 9.0769 17.5619 9.08662C17.5699 9.13521 17.578 9.18306 17.5903 9.23016C18.0677 10.987 17.6078 12.4703 16.3375 13.7113C15.9724 14.0679 15.4848 14.0814 15.1984 13.7644C14.8836 13.4167 14.931 12.954 15.3311 12.5899C15.7326 12.2243 16.0212 11.7847 16.1604 11.2554C16.452 10.1452 16.1881 9.17409 15.3675 8.39882C14.5301 7.60711 13.536 7.43367 12.4902 7.86354C11.4407 8.29491 10.8774 9.14194 10.7797 10.3C10.7258 10.9377 10.4503 11.2689 9.97731 11.2367C9.48756 11.2031 9.21936 10.8054 9.2886 10.1729C9.32722 9.80506 9.40666 9.44023 9.48027 9.00662Z" fill="#444444" stroke="#444444" stroke-width="0.1"/>
</svg>
