<svg width="22" height="29" viewBox="0 0 22 29" fill="none" xmlns="http://www.w3.org/2000/svg">
<path d="M10.9008 18.4363L0.75 27.344V0.75H21.05V27.2389L11.9152 18.4593L11.4185 17.9819L10.9008 18.4363Z" fill="white" stroke="#444444" stroke-width="1.5"/>
<path d="M10.5464 14.3536C10.7417 14.5488 11.0583 14.5488 11.2535 14.3536L14.4355 11.1716C14.6308 10.9763 14.6308 10.6597 14.4355 10.4645C14.2403 10.2692 13.9237 10.2692 13.7284 10.4645L10.9 13.2929L8.07157 10.4645C7.8763 10.2692 7.55972 10.2692 7.36446 10.4645C7.1692 10.6597 7.1692 10.9763 7.36446 11.1716L10.5464 14.3536ZM10.4 4V14H11.4V4H10.4Z" fill="#444444"/>
</svg>
