<svg width="23" height="29" viewBox="0 0 23 29" fill="none" xmlns="http://www.w3.org/2000/svg">
<path d="M14.3987 19.7632C14.3987 19.0747 14.1936 18.7377 13.7981 18.7377C13.5344 18.7524 13.2854 18.8696 13.1096 19.0747V23.6597C13.2854 23.8648 13.5344 23.982 13.7981 23.9967C14.1936 23.9967 14.3987 23.6597 14.3987 22.9712V19.7485V19.7632ZM19.5551 19.7632C19.5551 19.0747 19.3207 18.7231 18.8666 18.7231C18.4125 18.7231 18.1781 19.0747 18.1781 19.7632V20.4663H19.5551V19.7778V19.7632ZM4.83303 16.4525V25.1246H3.36815V16.4525H1.69819V14.9877H6.45905V16.4525H4.83303ZM9.22767 25.1246V24.3189C8.86145 24.8316 8.3048 25.1832 7.6749 25.2565C7.27938 25.3151 6.91316 25.0953 6.78132 24.7145C6.69343 24.3482 6.64948 23.982 6.66413 23.6011V17.5951H8.01182V23.147C7.99717 23.3228 7.99717 23.4986 8.01182 23.6744C7.99717 23.8502 8.12901 23.982 8.3048 23.9967C8.31944 23.9967 8.31945 23.9967 8.33409 23.9967C8.70031 23.9234 9.02259 23.689 9.19837 23.3521V17.5951H10.5754V25.1246H9.21302H9.22767ZM15.7024 22.8834C15.7171 23.3814 15.6731 23.8648 15.5706 24.3482C15.4681 24.8609 14.9993 25.2125 14.4866 25.1832C13.9006 25.1539 13.3586 24.8463 13.0217 24.3482V25.0807H11.7619V14.973H13.1243V18.2836C13.4465 17.7856 14.0032 17.478 14.5891 17.4633C15.1165 17.434 15.5706 17.8002 15.6731 18.3129C15.7903 18.7963 15.8343 19.2798 15.805 19.7778V22.7808L15.7024 22.8834ZM20.8588 22.7369C20.8735 23.0298 20.8735 23.3228 20.8588 23.6158C20.727 24.5826 19.8773 25.2858 18.8959 25.2418C18.2513 25.2711 17.6361 24.9781 17.2552 24.4654C16.9183 23.9381 16.7718 23.3082 16.8158 22.6929V20.0561C16.7718 19.4409 16.9183 18.811 17.2406 18.2836C17.9584 17.3901 19.2621 17.2436 20.1703 17.9614C20.2875 18.0639 20.4047 18.1664 20.4926 18.2836C20.8002 18.8256 20.9467 19.4409 20.9028 20.0561V21.6236H18.1927V22.9566C18.1927 23.6597 18.4271 24.0113 18.8959 24.0113C19.2182 24.026 19.4818 23.7916 19.5111 23.4693C19.5258 23.1617 19.5258 22.8394 19.5111 22.5318H20.9028V22.7369H20.8588ZM11.6447 8.80586C11.6447 9.52365 11.425 9.87522 10.9855 9.87522C10.5461 9.87522 10.3263 9.52365 10.3263 8.80586V5.67102C10.3263 4.96788 10.5461 4.61631 10.9855 4.61631C11.425 4.61631 11.6447 4.96788 11.6447 5.67102V8.80586ZM22.602 20.3198C22.6606 18.5327 22.5288 16.7455 22.2065 14.9877C21.9282 13.8158 20.9614 12.9222 19.7602 12.761C17.8851 12.556 15.0579 12.4534 11.2932 12.4534C7.52841 12.4534 4.70119 12.556 2.84079 12.761C2.25484 12.8343 1.71284 13.0833 1.27337 13.4788C0.848558 13.8743 0.540933 14.3724 0.394445 14.9437C0.0868201 16.7162 -0.0450194 18.518 0.0135758 20.3198C-0.0450194 22.107 0.0868198 23.8941 0.409093 25.652C0.540933 26.2233 0.848557 26.736 1.28802 27.1169C1.72749 27.5124 2.26949 27.7614 2.85544 27.82C5.66801 28.069 8.49523 28.1862 11.3224 28.1423C14.1497 28.1862 16.9769 28.069 19.7895 27.82C20.3754 27.7614 20.9174 27.5124 21.3422 27.1169C21.767 26.7213 22.0747 26.2233 22.2212 25.652C22.5288 23.8941 22.6606 22.107 22.602 20.3198ZM6.35651 4.80674L5.2725 0.792969H3.64648C3.92481 1.6426 4.26173 2.59477 4.6426 3.64948C5.02347 4.7042 5.34574 5.78821 5.58012 6.88687V11.0178H7.045V6.88687L8.89075 0.807618H7.38192L6.35651 4.80674ZM13.0364 5.8761C13.095 5.2462 12.9338 4.63095 12.6115 4.08895C11.9084 3.19537 10.6193 3.04888 9.72573 3.75203C9.59389 3.85457 9.4767 3.97176 9.38881 4.08895C9.06653 4.63095 8.9054 5.2462 8.96399 5.8761V8.60078C8.92004 9.23068 9.06653 9.86058 9.38881 10.4026C10.0919 11.2962 11.381 11.4426 12.2746 10.7395C12.4065 10.637 12.5237 10.5198 12.6115 10.4026C12.9338 9.86058 13.095 9.23068 13.0364 8.60078V5.8761ZM16.7572 3.40045V9.25997C16.596 9.5969 16.2737 9.84593 15.8929 9.91917C15.7171 9.91917 15.5706 9.77268 15.5706 9.5969V9.58225C15.556 9.40646 15.556 9.23068 15.5706 9.05489V3.40045H14.1643V9.40646C14.1497 9.78733 14.1936 10.1828 14.2815 10.5491C14.4133 10.9299 14.7796 11.1643 15.1751 11.1204C15.805 11.0471 16.3909 10.6956 16.7425 10.1682V11.0178H18.1341V3.40045H16.7572Z" fill="#444444"/>
</svg>
