<svg width="28" height="29" viewBox="0 0 28 29" fill="none" xmlns="http://www.w3.org/2000/svg">
<path d="M27.7349 26.5565L20.5056 19.52C22.3987 17.4855 23.5619 14.7948 23.5619 11.8341C23.561 5.50041 18.2869 0.366699 11.7805 0.366699C5.27409 0.366699 0 5.50041 0 11.8341C0 18.1677 5.27409 23.3014 11.7805 23.3014C14.5917 23.3014 17.1701 22.3396 19.1954 20.7406L26.4527 27.8049C26.8064 28.1495 27.3805 28.1495 27.7341 27.8049C28.0885 27.4604 28.0885 26.9011 27.7349 26.5565ZM11.7805 21.5371C6.27537 21.5371 1.8126 17.1929 1.8126 11.8341C1.8126 6.47521 6.27537 2.13102 11.7805 2.13102C17.2857 2.13102 21.7484 6.47521 21.7484 11.8341C21.7484 17.1929 17.2857 21.5371 11.7805 21.5371Z" fill="white"/>
</svg>
