<svg width="27" height="28" viewBox="0 0 27 28" fill="none" xmlns="http://www.w3.org/2000/svg">
<path d="M14.0314 22.3766C13.6605 22.3766 13.3928 22.3766 13.1252 22.3766C9.95557 22.3766 6.78595 22.378 3.61497 22.3752C1.77271 22.3738 1.00102 21.5906 1.00102 19.7273C0.99966 14.3157 0.99966 8.90412 1.00102 3.49255C1.00102 1.75465 1.79716 0.925428 3.48862 0.924034C10.1675 0.919853 16.8478 0.919853 23.5267 0.924034C25.1746 0.925428 25.998 1.77277 25.998 3.44516C26.0007 8.92642 26.0007 14.4077 25.998 19.8889C25.9966 21.5167 25.1665 22.3613 23.5606 22.3752C22.6327 22.3836 21.7021 22.3446 20.7769 22.3947C20.4481 22.4128 20.0677 22.5522 19.815 22.7668C18.2091 24.1256 16.6385 25.5305 15.0368 26.8962C14.8384 27.0649 14.5286 27.0969 14.2705 27.1931C14.1903 26.9436 14.0463 26.6969 14.0423 26.4461C14.0192 25.1221 14.0314 23.8009 14.0314 22.3766ZM14.9118 25.7757C15.2147 25.5305 15.3886 25.3994 15.5544 25.2559C16.8491 24.1312 18.1276 22.9856 19.4468 21.893C19.7334 21.6561 20.1587 21.5056 20.5282 21.4833C21.4983 21.4275 22.4724 21.4652 23.4451 21.4638C24.7059 21.461 25.0904 21.0638 25.0918 19.7482C25.0931 15.3623 25.0931 10.9751 25.0904 6.58925C25.0904 6.36487 25.066 6.14189 25.0524 5.89939C17.3219 5.89939 9.64038 5.89939 1.93574 5.89939C1.91672 6.04573 1.8909 6.15722 1.8909 6.26871C1.88819 10.8636 1.88139 15.4599 1.89498 20.0548C1.8977 21.0108 2.39223 21.461 3.36906 21.4624C6.89872 21.4679 10.4284 21.4638 13.958 21.4652C14.8724 21.4652 14.909 21.5028 14.9104 22.4463C14.9131 23.5041 14.9118 24.5619 14.9118 25.7757ZM25.0918 4.90432C25.0918 4.39424 25.0931 3.95663 25.0918 3.51902C25.0863 2.22432 24.6964 1.82991 23.418 1.82991C16.807 1.82991 10.196 1.82991 3.58644 1.82991C3.38265 1.82991 3.17478 1.8104 2.97643 1.84803C2.41261 1.95534 1.9928 2.28564 1.93846 2.88491C1.87868 3.54272 1.92487 4.20888 1.92487 4.90432C9.65804 4.90432 17.3233 4.90432 25.0918 4.90432Z" fill="#444444" stroke="#444444" stroke-width="0.4"/>
<path d="M17.6044 10.7775C18.7579 10.7775 19.9127 10.7942 21.0661 10.7706C21.6368 10.758 21.8908 10.9629 21.884 11.5761C21.8636 13.5258 21.865 15.4755 21.884 17.4253C21.8895 18.0273 21.6558 18.2489 21.077 18.2447C18.747 18.2266 16.4156 18.228 14.0856 18.2447C13.5163 18.2489 13.2595 18.0482 13.265 17.4364C13.284 15.4867 13.284 13.537 13.265 11.5872C13.2595 10.9824 13.4959 10.7594 14.0747 10.7706C15.2513 10.7956 16.4278 10.7775 17.6044 10.7775ZM14.2255 11.7433C14.2255 13.6192 14.2255 15.4379 14.2255 17.2455C16.5012 17.2455 18.7266 17.2455 20.9439 17.2455C20.9439 15.3836 20.9439 13.5816 20.9439 11.7433C18.6981 11.7433 16.489 11.7433 14.2255 11.7433Z" fill="#444444" stroke="#444444" stroke-width="0.4"/>
<path d="M13.4947 8.62504C15.9592 8.62504 18.4237 8.62504 20.8896 8.62504C21.0703 8.62504 21.2782 8.57488 21.4249 8.64873C21.5934 8.73511 21.7089 8.93296 21.8461 9.08204C21.698 9.22276 21.5676 9.4011 21.3937 9.49166C21.2673 9.55715 21.0839 9.50977 20.9249 9.50977C15.9728 9.50977 11.0207 9.50977 6.06861 9.50977C5.97758 9.50977 5.87025 9.54182 5.80096 9.50281C5.57272 9.37741 5.19367 9.24923 5.17193 9.08064C5.11351 8.6334 5.49935 8.62365 5.82949 8.62365C7.34433 8.62504 8.85918 8.62365 10.374 8.62365C11.4147 8.62504 12.454 8.62504 13.4947 8.62504Z" fill="#444444" stroke="#444444" stroke-width="0.4"/>
<path d="M8.55763 10.7787C9.4611 10.7787 10.3673 10.7466 11.2681 10.8009C11.5099 10.8149 11.7368 11.0934 11.9705 11.2508C11.7327 11.4027 11.4963 11.6812 11.2545 11.6854C9.44752 11.723 7.63921 11.723 5.83225 11.6854C5.59585 11.6798 5.36489 11.3929 5.13257 11.2369C5.37033 11.0837 5.60129 10.8135 5.8472 10.7995C6.74796 10.7466 7.65415 10.7787 8.55763 10.7787Z" fill="#444444" stroke="#444444" stroke-width="0.4"/>
<path d="M8.54947 18.2412C7.64599 18.2412 6.73979 18.2732 5.83903 18.2189C5.59584 18.2036 5.36895 17.925 5.13391 17.7676C5.36895 17.613 5.60127 17.3302 5.83903 17.3261C7.64599 17.2884 9.45566 17.2884 11.2626 17.3261C11.5017 17.3316 11.7341 17.6144 11.9705 17.769C11.7341 17.9264 11.5058 18.205 11.2613 18.2189C10.3605 18.2732 9.4543 18.2412 8.54947 18.2412Z" fill="#444444" stroke="#444444" stroke-width="0.4"/>
<path d="M8.48963 16.0495C7.58616 16.0495 6.68133 16.0787 5.78057 16.0286C5.55912 16.016 5.35126 15.7499 5.1366 15.5995C5.34718 15.4434 5.55505 15.1578 5.76699 15.1536C7.61876 15.1174 9.47054 15.1188 11.321 15.1536C11.5397 15.1578 11.753 15.4364 11.9677 15.5869C11.734 15.7416 11.5057 16.0147 11.2639 16.0272C10.3428 16.0815 9.41484 16.0495 8.48963 16.0495Z" fill="#444444" stroke="#444444" stroke-width="0.4"/>
<path d="M8.5046 13.8709C7.60248 13.8709 6.699 13.8987 5.79824 13.8514C5.57135 13.8388 5.35669 13.5838 5.1366 13.4417C5.36484 13.2843 5.59037 12.9959 5.82134 12.9917C7.64731 12.9541 9.47601 12.9569 11.302 12.9903C11.5248 12.9945 11.9079 13.2327 11.9324 13.4027C11.9935 13.8402 11.609 13.8709 11.2789 13.8722C10.3537 13.8709 9.42982 13.8709 8.5046 13.8709Z" fill="#444444" stroke="#444444" stroke-width="0.4"/>
<path d="M3.56605 2.57129C3.82962 3.00153 4.12171 3.26886 4.08775 3.47771C4.05107 3.6977 3.7155 3.98592 3.48589 4.01237C3.32558 4.03047 2.97642 3.65315 2.97914 3.45682C2.98186 3.22012 3.26988 2.98899 3.56605 2.57129Z" fill="#444444" stroke="#444444" stroke-width="0.4"/>
<path d="M6.17871 3.44158C5.76842 3.73396 5.54018 4.02217 5.31738 4.01799C5.12038 4.01381 4.75493 3.65599 4.77802 3.50284C4.8147 3.26058 5.08914 2.92225 5.30651 2.88326C5.50486 2.84706 5.76163 3.15755 6.17871 3.44158Z" fill="#444444" stroke="#444444" stroke-width="0.4"/>
<path d="M7.13923 2.55615C7.4028 3.00448 7.68404 3.27181 7.64872 3.48066C7.61067 3.70065 7.2846 3.9805 7.055 4.01392C6.90826 4.0348 6.56861 3.65191 6.56861 3.45003C6.56725 3.2189 6.84713 2.98638 7.13923 2.55615Z" fill="#444444" stroke="#444444" stroke-width="0.4"/>
</svg>
