<svg width="25" height="24" viewBox="0 0 25 24" fill="none" xmlns="http://www.w3.org/2000/svg">
<path d="M4.16919 1.11086C3.37365 1.40918 2.70089 1.80695 2.02812 2.45569C1.35535 3.09969 0.942855 3.75316 0.633481 4.51555C0.333928 5.25426 0.132589 6.10188 0.0736605 7.34254C0.0147321 8.58319 0 8.98096 0 12.1442C0 15.3073 0.0147321 15.7051 0.0736605 16.9458C0.132589 18.1864 0.338838 19.034 0.633481 19.7728C0.942855 20.5399 1.35535 21.1886 2.02812 21.8374C2.70089 22.4861 3.37365 22.8839 4.16919 23.1822C4.93526 23.471 5.81427 23.6652 7.10088 23.722C8.38748 23.7788 8.79998 23.793 12.0803 23.793C15.3607 23.793 15.7732 23.7788 17.0598 23.722C18.3464 23.6652 19.2254 23.4663 19.9915 23.1822C20.787 22.8839 21.4598 22.4861 22.1325 21.8374C22.8053 21.1886 23.2178 20.5399 23.5272 19.7728C23.8267 19.034 24.0281 18.1864 24.087 16.9458C24.1459 15.7051 24.1607 15.3073 24.1607 12.1442C24.1607 8.98096 24.1459 8.58319 24.087 7.34254C24.0281 6.10188 23.8218 5.25426 23.5272 4.51555C23.2178 3.75316 22.8053 3.09969 22.1374 2.45569C21.4647 1.80695 20.7919 1.40918 19.9964 1.11086C19.2303 0.822002 18.3513 0.627854 17.0647 0.57103C15.7781 0.514206 15.3656 0.5 12.0852 0.5C8.80489 0.5 8.39239 0.514206 7.10579 0.57103C5.81427 0.623118 4.93526 0.822002 4.16919 1.11086ZM16.9616 2.66404C18.1401 2.71613 18.7785 2.90554 19.2058 3.06654C19.7705 3.27963 20.1732 3.5306 20.5955 3.93784C21.0178 4.34508 21.2781 4.73338 21.4991 5.27794C21.666 5.68991 21.8624 6.3055 21.9165 7.44198C21.9754 8.66843 21.9852 9.03778 21.9852 12.1489C21.9852 15.26 21.9705 15.6293 21.9165 16.8558C21.8624 17.9923 21.666 18.6079 21.4991 19.0198C21.2781 19.5644 21.0178 19.9527 20.5955 20.3599C20.1732 20.7672 19.7705 21.0181 19.2058 21.2312C18.7785 21.3922 18.1401 21.5816 16.9616 21.6337C15.6897 21.6906 15.3067 21.7 12.0803 21.7C8.854 21.7 8.47096 21.6858 7.19909 21.6337C6.02052 21.5816 5.38213 21.3922 4.9549 21.2312C4.39017 21.0181 3.98749 20.7672 3.56517 20.3599C3.14285 19.9527 2.88258 19.5644 2.6616 19.0198C2.49464 18.6079 2.29821 17.9923 2.24419 16.8558C2.18526 15.6293 2.17544 15.26 2.17544 12.1489C2.17544 9.03778 2.19017 8.66843 2.24419 7.44198C2.29821 6.3055 2.49464 5.68991 2.6616 5.27794C2.88258 4.73338 3.14285 4.34508 3.56517 3.93784C3.98749 3.5306 4.39017 3.27963 4.9549 3.06654C5.38213 2.90554 6.02052 2.71613 7.19909 2.66404C8.47096 2.60722 8.854 2.59775 12.0803 2.59775C15.3067 2.59775 15.6897 2.60722 16.9616 2.66404Z" fill="#444444"/>
<path d="M5.87817 12.1487C5.87817 15.4539 8.6576 18.1294 12.0803 18.1294C15.503 18.1294 18.2825 15.4492 18.2825 12.1487C18.2825 8.84815 15.508 6.16797 12.0803 6.16797C8.65269 6.16797 5.87817 8.84342 5.87817 12.1487ZM16.1071 12.1487C16.1071 14.2938 14.3048 16.0316 12.0803 16.0316C9.8558 16.0316 8.05359 14.2938 8.05359 12.1487C8.05359 10.0036 9.8558 8.26571 12.0803 8.26571C14.3048 8.26571 16.1071 10.0036 16.1071 12.1487Z" fill="#444444"/>
<path d="M18.533 7.32802C19.3331 7.32802 19.9817 6.7026 19.9817 5.9311C19.9817 5.1596 19.3331 4.53418 18.533 4.53418C17.7329 4.53418 17.0844 5.1596 17.0844 5.9311C17.0844 6.7026 17.7329 7.32802 18.533 7.32802Z" fill="#444444"/>
</svg>
