<svg width="170" height="180" viewBox="0 0 170 180" fill="none" xmlns="http://www.w3.org/2000/svg">
<path d="M164.664 116.53C162.16 112.097 158.91 108.295 155.283 104.764C159.603 92.6594 160.691 80.2157 158.758 67.5735C155.937 49.0993 147.63 33.3571 133.671 20.802C116.051 4.95803 95.2005 -1.81357 71.5579 0.414567C56.2127 1.85801 42.5123 7.63179 30.3055 17.019C2.1384 38.6707 -7.83307 78.3509 6.51647 110.761C20.2071 141.683 52.9182 161.935 88.67 157.92C89.0751 158.52 89.4802 159.121 89.8853 159.717C100.496 175.314 115.202 182.206 133.998 179.382C162.97 175.037 179.009 141.887 164.664 116.53ZM75.6578 76.7427C65.5399 76.6701 55.4269 76.6798 45.309 76.7379C43.9229 76.7476 43.5568 76.3795 43.6154 75.0184C44.001 66.0671 44.943 57.1884 46.8855 48.4212C47.1247 47.341 47.5786 46.8324 48.7012 46.5854C57.7111 44.6043 66.8284 43.6113 76.0434 43.3304C77.2392 43.2916 77.3026 43.7809 77.2977 44.6915C77.2685 49.7726 77.2831 54.8537 77.2831 59.9349C77.2831 64.953 77.2441 69.976 77.3124 74.9941C77.3319 76.2632 77.1074 76.7524 75.6578 76.7427ZM67.3019 9.63227C70.1571 7.30241 73.4078 5.70397 77.288 5.13725C77.288 6.30944 77.288 7.3896 77.288 8.47461C77.288 17.9151 77.2685 27.3605 77.3173 36.801C77.3222 38.0168 77.0732 38.443 75.7457 38.4576C67.1945 38.569 58.7263 39.5087 50.3411 41.2088C49.8774 41.3009 49.3991 41.3154 48.6816 41.388C52.6009 29.3125 57.1889 17.8812 67.3019 9.63227ZM61.894 6.91491C61.9818 7.34601 62.0501 7.50101 62.0111 7.53491C53.2403 15.8468 48.1399 26.2948 44.7965 37.6002C43.6495 41.4752 41.9315 43.3498 37.8902 44.4832C27.3867 47.4331 17.6398 52.0928 9.52304 59.6103C8.82996 60.2497 8.37605 61.3202 6.95574 61.3153C15.3653 33.1682 33.5756 15.1251 61.894 6.91491ZM5.39877 75.3138C6.42861 71.0658 8.72259 67.5541 11.7243 64.4638C17.8155 58.1863 25.3954 54.2628 33.4585 51.1531C36.1136 50.1311 38.8371 49.2834 41.8485 48.2468C40.3843 55.1831 39.4521 61.7561 39.0226 68.3921C38.8713 70.7462 38.7736 73.1051 38.7346 75.4591C38.7199 76.3892 38.4222 76.7185 37.4607 76.7185C27.0988 76.6943 16.7369 76.6895 6.37493 76.7234C5.14497 76.7282 5.15961 76.2826 5.39877 75.3138ZM5.43781 83.2867C5.12056 82.0612 5.15961 81.635 6.63361 81.6446C16.8149 81.7076 26.9963 81.6786 37.1776 81.6737C37.9683 81.6737 38.7199 81.5042 38.7346 82.7829C38.8322 91.8699 39.8913 100.86 41.829 110.087C31.3109 106.876 21.5005 102.909 13.4326 95.6141C9.67922 92.2186 6.73122 88.2855 5.43781 83.2867ZM7.07776 96.6361C7.16561 96.6264 7.2974 96.578 7.33156 96.6168C16.6978 106.362 28.6509 111.41 41.3702 115.038C42.7076 115.42 43.2981 116.011 43.6788 117.338C46.5683 127.52 50.5656 137.203 57.1889 145.641C58.7605 147.641 60.5371 149.462 62.465 151.322C38.3832 146.232 14.0085 125.955 7.07776 96.6361ZM77.3075 151.821C77.3124 153.037 77.1025 153.366 75.7945 153.032C69.9082 151.531 65.5253 147.893 61.7866 143.393C55.3635 135.667 51.6443 126.609 48.6865 116.878C57.8575 118.821 66.7943 119.785 75.8189 119.978C77.0147 120.002 77.3222 120.375 77.3173 121.538C77.2685 131.632 77.2685 141.727 77.3075 151.821ZM77.3173 113.638C77.3222 114.873 76.9268 115.134 75.7652 115.096C66.6039 114.791 57.5403 113.764 48.584 111.817C47.6323 111.608 47.1491 111.187 46.9343 110.218C44.9478 101.267 43.9522 92.2041 43.6154 83.059C43.5715 81.9062 43.9278 81.6398 45.0406 81.6543C50.1654 81.7076 55.2902 81.6786 60.4102 81.6786C65.535 81.6786 70.6599 81.7125 75.7798 81.6543C76.9366 81.6398 77.3222 81.9062 77.3173 83.1317C77.2636 93.2939 77.2636 103.466 77.3173 113.638ZM143.911 97.6436C143.442 96.9364 142.676 96.7039 141.944 96.4036C135.574 93.8025 128.897 93.6136 122.162 93.9042C121.42 93.9381 120.712 94.1125 120.166 94.6744C120.551 90.8284 120.859 86.9728 120.864 83.1026C120.864 82.2453 120.849 81.6398 122.069 81.6446C132.665 81.6931 143.257 81.6786 153.853 81.6834C154.024 81.6834 154.19 81.7609 154.429 81.819C153.272 88.6633 148.904 93.3569 143.911 97.6436ZM89.6657 114.795C87.5962 114.887 85.5268 114.95 83.4573 115.081C82.5885 115.134 82.3006 114.844 82.3054 113.967C82.3298 103.558 82.3298 93.1535 82.3054 82.7442C82.3006 81.8239 82.6715 81.6592 83.4915 81.6592C93.9168 81.6786 104.342 81.6931 114.768 81.6446C115.973 81.6398 116.007 82.2065 115.959 83.0881C115.719 87.3119 115.578 91.5453 115.046 95.7546C114.436 95.4106 113.855 95.6819 113.284 95.866C103.576 98.9708 95.9521 104.822 90.2318 113.158C89.9 113.643 89.407 114.103 89.6657 114.795ZM82.2957 44.7157C82.2908 43.6113 82.569 43.3013 83.7355 43.3352C92.7162 43.592 101.594 44.5995 110.39 46.4304C111.824 46.7307 112.483 47.3604 112.796 48.8039C114.665 57.4645 115.597 66.2318 115.968 75.0716C116.022 76.3165 115.719 76.7524 114.392 76.7331C109.272 76.6604 104.147 76.704 99.0222 76.704C93.9608 76.704 88.8994 76.6701 83.838 76.7282C82.6569 76.7427 82.2908 76.4279 82.2957 75.2218C82.3396 65.0547 82.3347 54.8876 82.2957 44.7157ZM153.189 76.7282C142.832 76.6895 132.475 76.704 122.113 76.704C121.488 76.704 120.883 76.7524 120.873 75.8273C120.781 66.6822 119.692 57.6437 117.76 48.2759C129.952 52.1848 141.368 56.6944 149.68 66.5369C151.852 69.1138 153.399 72.0346 154.19 75.3381C154.424 76.2971 154.4 76.7282 153.189 76.7282ZM130.986 25.1372C141.71 35.159 148.84 47.2829 152.169 61.606C150.749 60.3078 149.382 58.9467 147.898 57.7212C139.147 50.4992 128.883 46.3287 118.077 43.3013C116.866 42.9623 116.32 42.4537 115.978 41.233C113.157 31.2839 109.296 21.795 102.951 13.4637C101.301 11.2985 99.4419 9.32227 97.5823 7.27819C110.37 10.2135 121.469 16.244 130.986 25.1372ZM83.8819 5.39881C88.1331 6.47413 91.6766 8.75554 94.771 11.749C101.194 17.9587 105.157 25.6748 108.315 33.856C109.243 36.2633 110.004 38.7337 110.956 41.5043C105.143 40.3515 99.7396 39.499 94.2829 39.0291C90.7639 38.724 87.2448 38.3994 83.7111 38.4479C82.5641 38.4624 82.2908 38.0943 82.2957 37.0044C82.3347 26.847 82.3494 16.6896 82.2859 6.53225C82.2762 5.10334 82.857 5.13725 83.8819 5.39881ZM82.3201 149.608C82.3201 140.38 82.3689 131.153 82.2713 121.925C82.2517 120.254 82.8033 119.809 84.3163 119.935C85.2193 120.007 86.1369 119.915 87.0496 119.896C86.4151 120.235 86.1173 120.816 85.8782 121.451C82.1932 131.104 81.8857 140.85 85.0826 150.688C85.2876 151.317 85.4682 151.967 86.0539 152.388C82.3201 153.468 82.3201 153.468 82.3201 149.608ZM126.765 175.091C105.763 175.236 88.5285 158.54 88.382 137.241C88.2356 116.21 105.597 99.0822 126.765 99.15C147.044 99.2179 164.971 115.052 164.942 137.227C164.913 159.586 146.385 175.28 126.765 175.091Z" fill="#0E7139"/>
<path d="M142.793 128.571C139.801 128.232 139.801 128.232 139.782 125.268C139.782 125.025 139.786 124.783 139.777 124.541C139.547 118.825 136.111 113.982 131.069 112.267C125.905 110.514 120.371 111.976 116.783 116.065C114.133 119.082 113.401 122.7 113.611 126.551C113.694 128.077 113.357 128.687 111.649 128.605C108.867 128.465 108.056 129.366 108.056 132.117C108.052 140.647 108.052 149.177 108.056 157.706C108.056 160.433 108.881 161.223 111.693 161.228C116.691 161.233 121.688 161.228 126.691 161.228C131.875 161.228 137.053 161.247 142.237 161.218C144.326 161.208 145.233 160.283 145.311 158.239C145.316 158.118 145.311 157.997 145.311 157.876C145.311 149.225 145.316 140.574 145.307 131.923C145.307 129.782 144.526 128.77 142.793 128.571ZM118.609 127.263C118.721 125.825 118.526 124.338 118.799 122.938C119.619 118.743 123.328 116.137 127.638 116.554C131.596 116.941 134.647 120.332 134.74 124.459C134.832 128.547 134.832 128.547 130.747 128.547C129.41 128.547 128.073 128.547 126.735 128.547C124.485 128.547 122.235 128.508 119.985 128.566C118.984 128.586 118.526 128.334 118.609 127.263ZM140.284 154.689C140.294 155.851 139.982 156.263 138.757 156.244C134.735 156.176 130.708 156.219 126.686 156.219C122.665 156.219 118.638 156.176 114.616 156.244C113.401 156.263 113.074 155.866 113.084 154.698C113.132 148.164 113.132 141.63 113.084 135.096C113.074 133.928 113.396 133.541 114.611 133.551C122.66 133.599 130.708 133.599 138.752 133.551C139.962 133.541 140.294 133.914 140.289 135.091C140.235 141.62 140.235 148.155 140.284 154.689Z" fill="#0E7139"/>
<path d="M128.712 135.532C125.793 134.679 122.694 135.755 121.03 138.205C119.248 140.826 119.126 144.129 121.347 146.188C123.26 147.961 124.588 149.574 124.275 152.344C124.139 153.551 125.247 154.364 126.604 154.398C127.955 154.432 128.824 153.749 129.083 152.466C129.244 151.647 129.234 150.785 129.195 149.947C129.151 148.973 129.366 148.329 130.337 147.767C132.485 146.527 133.427 144.468 133.617 142.318C133.593 139.16 131.47 136.336 128.712 135.532ZM126.638 143.756C125.579 143.718 124.949 142.938 125.007 141.935C125.061 141.025 125.627 140.351 126.604 140.487C127.814 140.424 128.361 141.107 128.356 142.018C128.351 143.006 127.721 143.795 126.638 143.756Z" fill="#0E7139"/>
</svg>
