<svg width="22" height="30" viewBox="0 0 22 30" fill="none" xmlns="http://www.w3.org/2000/svg">
<path d="M15.9312 8.57561C15.8915 8.52006 15.8444 8.476 15.7925 8.44593C15.7406 8.41587 15.6849 8.40039 15.6287 8.40039C15.5725 8.40039 15.5169 8.41587 15.465 8.44593C15.4131 8.476 15.3659 8.52006 15.3262 8.57561L13.9198 10.5366L13.3659 9.78529C13.327 9.72478 13.2798 9.67598 13.227 9.64188C13.1741 9.60778 13.1169 9.5891 13.0587 9.58698C13.0006 9.58487 12.9427 9.59936 12.8887 9.62957C12.8347 9.65978 12.7856 9.70507 12.7446 9.76268C12.7035 9.82028 12.6713 9.88899 12.65 9.96458C12.6286 10.0402 12.6185 10.1211 12.6202 10.2023C12.622 10.2836 12.6356 10.3635 12.6603 10.4371C12.6849 10.5107 12.7201 10.5766 12.7636 10.6306L13.616 11.8215C13.6555 11.8775 13.7026 11.9219 13.7545 11.9523C13.8065 11.9826 13.8622 11.9983 13.9185 11.9983C13.9748 11.9983 14.0305 11.9826 14.0824 11.9523C14.1344 11.9219 14.1815 11.8775 14.221 11.8215L15.9285 9.43591C15.9705 9.38072 16.0039 9.3142 16.0268 9.24039C16.0498 9.16658 16.0617 9.08703 16.062 9.00656C16.0622 8.9261 16.0508 8.8464 16.0283 8.77232C16.0058 8.69823 15.9728 8.63131 15.9312 8.57561Z" fill="#444444"/>
<path d="M15.9312 13.3754C15.8915 13.3199 15.8444 13.2758 15.7925 13.2457C15.7406 13.2157 15.6849 13.2002 15.6287 13.2002C15.5725 13.2002 15.5169 13.2157 15.465 13.2457C15.4131 13.2758 15.3659 13.3199 15.3262 13.3754L13.9198 15.3364L13.3659 14.5851C13.327 14.5246 13.2798 14.4758 13.227 14.4417C13.1741 14.4076 13.1169 14.3889 13.0587 14.3868C13.0006 14.3847 12.9427 14.3992 12.8887 14.4294C12.8347 14.4596 12.7856 14.5049 12.7446 14.5625C12.7035 14.6201 12.6713 14.6888 12.65 14.7644C12.6286 14.84 12.6185 14.9209 12.6202 15.0021C12.622 15.0834 12.6356 15.1633 12.6603 15.2369C12.6849 15.3105 12.7201 15.3764 12.7636 15.4304L13.616 16.6213C13.6555 16.6773 13.7026 16.7217 13.7545 16.7521C13.8065 16.7824 13.8622 16.7981 13.9185 16.7981C13.9748 16.7981 14.0305 16.7824 14.0824 16.7521C14.1344 16.7217 14.1815 16.6773 14.221 16.6213L15.9285 14.2357C15.9705 14.1805 16.0039 14.114 16.0268 14.0402C16.0498 13.9664 16.0617 13.8868 16.062 13.8064C16.0622 13.7259 16.0508 13.6462 16.0283 13.5721C16.0058 13.498 15.9728 13.4311 15.9312 13.3754Z" fill="#444444"/>
<path d="M15.9312 18.1757C15.8915 18.1202 15.8444 18.0761 15.7925 18.046C15.7406 18.016 15.6849 18.0005 15.6287 18.0005C15.5725 18.0005 15.5169 18.016 15.465 18.046C15.4131 18.0761 15.3659 18.1202 15.3262 18.1757L13.9198 20.1367L13.3659 19.3854C13.327 19.3249 13.2798 19.2761 13.227 19.242C13.1741 19.2079 13.1169 19.1892 13.0587 19.1871C13.0006 19.185 12.9427 19.1995 12.8887 19.2297C12.8347 19.2599 12.7856 19.3052 12.7446 19.3628C12.7035 19.4204 12.6713 19.4891 12.65 19.5647C12.6286 19.6403 12.6185 19.7212 12.6202 19.8024C12.622 19.8837 12.6356 19.9636 12.6603 20.0372C12.6849 20.1108 12.7201 20.1767 12.7636 20.2307L13.616 21.4216C13.6555 21.4776 13.7026 21.522 13.7545 21.5524C13.8065 21.5827 13.8622 21.5984 13.9185 21.5984C13.9748 21.5984 14.0305 21.5827 14.0824 21.5524C14.1344 21.522 14.1815 21.4776 14.221 21.4216L15.9285 19.036C15.9705 18.9808 16.0039 18.9143 16.0268 18.8405C16.0498 18.7667 16.0617 18.6871 16.062 18.6067C16.0622 18.5262 16.0508 18.4465 16.0283 18.3724C16.0058 18.2983 15.9728 18.2314 15.9312 18.1757Z" fill="#444444"/>
<path d="M15.9312 22.9628C15.8915 22.9073 15.8444 22.8632 15.7925 22.8331C15.7406 22.8031 15.6849 22.7876 15.6287 22.7876C15.5725 22.7876 15.5169 22.8031 15.465 22.8331C15.4131 22.8632 15.3659 22.9073 15.3262 22.9628L13.9198 24.9239L13.3659 24.1725C13.327 24.112 13.2798 24.0632 13.227 24.0291C13.1741 23.995 13.1169 23.9763 13.0587 23.9742C13.0006 23.9721 12.9427 23.9866 12.8887 24.0168C12.8347 24.047 12.7856 24.0923 12.7446 24.1499C12.7035 24.2075 12.6713 24.2762 12.65 24.3518C12.6286 24.4274 12.6185 24.5083 12.6202 24.5895C12.622 24.6708 12.6356 24.7507 12.6603 24.8243C12.6849 24.8979 12.7201 24.9638 12.7636 25.0178L13.616 26.2087C13.6555 26.2647 13.7026 26.3091 13.7545 26.3395C13.8065 26.3698 13.8622 26.3855 13.9185 26.3855C13.9748 26.3855 14.0305 26.3698 14.0824 26.3395C14.1344 26.3091 14.1815 26.2647 14.221 26.2087L15.9285 23.8231C15.9705 23.7679 16.0039 23.7014 16.0268 23.6276C16.0498 23.5538 16.0617 23.4742 16.062 23.3938C16.0622 23.3133 16.0508 23.2336 16.0283 23.1595C16.0058 23.0854 15.9728 23.0185 15.9312 22.9628Z" fill="#444444"/>
<path d="M7.91105 9.60305H4.27885C4.05083 9.62173 3.83802 9.72829 3.68282 9.9015C3.52763 10.0747 3.44144 10.3018 3.44144 10.5376C3.44144 10.7734 3.52763 11.0005 3.68282 11.1737C3.83802 11.3469 4.05083 11.4535 4.27885 11.4722H7.91105C8.03616 11.4824 8.16198 11.4659 8.28058 11.4236C8.39919 11.3813 8.50801 11.3141 8.60021 11.2263C8.69241 11.1385 8.76598 11.032 8.8163 10.9135C8.86662 10.795 8.8926 10.667 8.8926 10.5376C8.8926 10.4082 8.86662 10.2803 8.8163 10.1617C8.76598 10.0432 8.69241 9.93671 8.60021 9.84893C8.50801 9.76114 8.39919 9.69398 8.28058 9.65166C8.16198 9.60935 8.03616 9.59279 7.91105 9.60305Z" fill="#444444"/>
<path d="M7.91105 14.4033H4.27885C4.05083 14.422 3.83802 14.5286 3.68282 14.7018C3.52763 14.875 3.44144 15.1021 3.44144 15.3379C3.44144 15.5737 3.52763 15.8008 3.68282 15.974C3.83802 16.1472 4.05083 16.2538 4.27885 16.2725H7.91105C8.03616 16.2827 8.16198 16.2662 8.28058 16.2239C8.39919 16.1816 8.50801 16.1144 8.60021 16.0266C8.69241 15.9388 8.76598 15.8323 8.8163 15.7138C8.86662 15.5953 8.8926 15.4673 8.8926 15.3379C8.8926 15.2085 8.86662 15.0806 8.8163 14.962C8.76598 14.8435 8.69241 14.737 8.60021 14.6492C8.50801 14.5614 8.39919 14.4943 8.28058 14.452C8.16198 14.4096 8.03616 14.3931 7.91105 14.4033Z" fill="#444444"/>
<path d="M7.91105 19.2031H4.27885C4.05083 19.2218 3.83802 19.3284 3.68282 19.5016C3.52763 19.6748 3.44144 19.9019 3.44144 20.1377C3.44144 20.3735 3.52763 20.6006 3.68282 20.7738C3.83802 20.9471 4.05083 21.0536 4.27885 21.0723H7.91105C8.03616 21.0826 8.16198 21.066 8.28058 21.0237C8.39919 20.9814 8.50801 20.9142 8.60021 20.8264C8.69241 20.7386 8.76598 20.6321 8.8163 20.5136C8.86662 20.3951 8.8926 20.2671 8.8926 20.1377C8.8926 20.0083 8.86662 19.8804 8.8163 19.7618C8.76598 19.6433 8.69241 19.5368 8.60021 19.449C8.50801 19.3612 8.39919 19.2941 8.28058 19.2518C8.16198 19.2094 8.03616 19.1929 7.91105 19.2031Z" fill="#444444"/>
<path d="M7.91105 23.9912H4.27885C4.05083 24.0099 3.83802 24.1165 3.68282 24.2897C3.52763 24.4629 3.44144 24.69 3.44144 24.9258C3.44144 25.1616 3.52763 25.3887 3.68282 25.5619C3.83802 25.7351 4.05083 25.8417 4.27885 25.8604H7.91105C8.03616 25.8706 8.16198 25.8541 8.28058 25.8118C8.39919 25.7694 8.50801 25.7023 8.60021 25.6145C8.69241 25.5267 8.76598 25.4202 8.8163 25.3017C8.86662 25.1832 8.8926 25.0552 8.8926 24.9258C8.8926 24.7964 8.86662 24.6684 8.8163 24.5499C8.76598 24.4314 8.69241 24.3249 8.60021 24.2371C8.50801 24.1493 8.39919 24.0822 8.28058 24.0398C8.16198 23.9975 8.03616 23.981 7.91105 23.9912Z" fill="#444444"/>
<path d="M19.9801 3.77496H16.3479V2.83098C16.3479 2.58218 16.2521 2.34358 16.0815 2.16765C15.9109 1.99173 15.6796 1.8929 15.4384 1.8929H13.465C13.2803 1.34033 12.933 0.860988 12.4716 0.521677C12.0102 0.182366 11.4576 0 10.891 0C10.3243 0 9.77174 0.182366 9.31033 0.521677C8.84893 0.860988 8.50166 1.34033 8.31694 1.8929H6.35497C6.11475 1.89445 5.88488 1.99397 5.71556 2.16973C5.54623 2.34549 5.45119 2.5832 5.4512 2.83098V3.77496H1.81897C1.33702 3.77652 0.875229 3.97468 0.534432 4.3262C0.193635 4.67771 0.00150849 5.15402 0 5.65113V28.1297C0.00151394 28.6263 0.193823 29.102 0.534783 29.4526C0.875743 29.8031 1.33754 30 1.81897 30H19.9801C20.2187 30.0008 20.4551 29.953 20.6758 29.8593C20.8964 29.7657 21.097 29.628 21.266 29.4543C21.4349 29.2805 21.569 29.0741 21.6605 28.8468C21.752 28.6195 21.7991 28.3758 21.7991 28.1297V5.65113C21.7991 5.40475 21.752 5.16078 21.6606 4.93315C21.5692 4.70552 21.4352 4.4987 21.2663 4.32448C21.0974 4.15026 20.8969 4.01206 20.6762 3.91778C20.4555 3.82349 20.219 3.77496 19.9801 3.77496ZM7.26445 3.77496H9.08343C9.20308 3.77497 9.32154 3.75047 9.43194 3.70289C9.54235 3.65531 9.64249 3.58559 9.72656 3.49777C9.81064 3.40996 9.87697 3.3058 9.92171 3.19133C9.96645 3.07687 9.98871 2.95438 9.98719 2.83098C9.98719 2.58218 10.083 2.34358 10.2536 2.16765C10.4241 1.99173 10.6555 1.8929 10.8967 1.8929C11.1379 1.8929 11.3692 1.99173 11.5398 2.16765C11.7103 2.34358 11.8062 2.58218 11.8062 2.83098C11.8077 3.07875 11.9042 3.31584 12.0746 3.49049C12.245 3.66514 12.4754 3.76317 12.7157 3.76316H14.5289V5.63933H7.26445V3.77496ZM19.9801 28.1297H1.81897V5.65113H5.4512V6.58921C5.44815 6.71388 5.46924 6.83792 5.51322 6.95408C5.55721 7.07024 5.6232 7.1762 5.70735 7.26574C5.79151 7.35528 5.89212 7.42662 6.00332 7.47558C6.11452 7.52455 6.23406 7.55015 6.35497 7.55089H15.4384C15.6786 7.5509 15.9091 7.45288 16.0795 7.27822C16.2499 7.10357 16.3464 6.86648 16.3479 6.61871V5.65113H19.9801V28.1297Z" fill="#444444"/>
</svg>
