<svg width="46" height="41" viewBox="0 0 46 41" fill="none" xmlns="http://www.w3.org/2000/svg">
<path d="M13.6364 29.8171C13.2252 31.7444 12.849 33.4829 12.4825 35.2242C12.1398 36.8579 11.8252 38.4971 11.4531 40.1237C11.3846 40.423 11.13 40.8566 10.9006 40.8986C10.579 40.9573 10.1244 40.7979 9.86145 40.5727C9.19009 39.9992 8.5607 39.3685 7.97746 38.7041C7.56206 38.2313 7.19282 38.1125 6.60958 38.4146C5.95362 38.7544 5.25569 39.0314 4.54797 39.244C4.15775 39.3601 3.56052 39.4552 3.33114 39.251C3.09617 39.0426 3.07939 38.4314 3.1661 38.0397C3.71158 35.5949 4.313 33.1612 4.89344 30.7248C5.29625 29.0324 5.71025 27.3414 6.07809 25.6407C6.12565 25.4211 6.00117 25.0421 5.82634 24.9162C2.49195 22.5105 0.526848 19.2628 0.0890701 15.1998C-0.320735 11.3661 0.677902 7.87782 3.20247 4.88191C5.58017 2.06083 8.63203 0.449582 12.2587 0.0789392C15.968 -0.300095 19.3667 0.684555 22.2857 3.06086C25.1991 5.43298 26.8844 8.53378 27.2593 12.2528C27.518 14.8249 27.1921 17.3635 25.9333 19.7006C25.8131 19.923 25.7138 20.1552 25.5613 20.4727C27.0397 20.4727 28.4355 20.4727 29.8859 20.4727C29.5265 19.8517 29.1293 19.2824 28.8509 18.6586C27.8677 16.4515 27.6775 14.2235 28.8845 12.029C29.4188 11.0584 30.258 10.4024 31.293 10.0178C32.1154 9.71285 32.5238 9.95062 32.6888 10.8052C33.0637 12.7451 33.7364 14.5648 34.8959 16.1732C35.1043 16.4627 35.4652 16.7341 35.805 16.825C38.3436 17.4949 39.945 19.0992 40.7465 21.5748C40.8122 21.7776 41.1451 22.0154 41.3633 22.0252C42.457 22.0713 43.5536 22.0559 44.6487 22.0434C45.2263 22.0364 45.4893 22.2615 45.4879 22.8728C45.4753 27.8603 45.4739 32.8479 45.4893 37.8355C45.4907 38.4817 45.2166 38.7055 44.6067 38.6957C43.5116 38.6775 42.4151 38.6621 41.3213 38.7083C40.987 38.7223 40.6052 38.8705 40.3437 39.0803C39.4597 39.7894 38.5002 40.2048 37.3449 40.2006C32.7308 40.1853 28.1152 40.1951 23.4997 40.1951C21.322 40.1951 21.0227 40.0412 19.7751 38.2439C19.0352 39.002 18.2967 39.7447 17.5778 40.5042C17.2505 40.8496 16.8519 41.1545 16.4267 40.914C16.1484 40.7559 15.9442 40.3223 15.8673 39.9769C15.1497 36.7404 14.4672 33.4955 13.7721 30.2534C13.7567 30.1695 13.7231 30.0912 13.6364 29.8171ZM28.6579 29.3317C29.4524 29.1121 30.1503 28.9695 30.8104 28.7233C32.0175 28.2729 33.0777 27.6422 33.4469 26.2617C33.4917 26.0966 33.7602 25.9162 33.9518 25.8785C34.7071 25.7316 35.0568 26.1987 34.8134 27.0673C34.4553 28.3429 33.5546 29.2086 32.3993 29.7136C31.1405 30.2646 29.802 30.6339 28.4733 31.0912C28.8789 31.9374 28.988 32.8801 28.6034 33.848C28.395 34.3711 28.4971 35.4522 28.588 36.0131C28.7265 36.8775 28.7251 37.7628 28.788 38.7433C28.8635 38.7433 29.1111 38.7433 29.36 38.7433C31.3168 38.7433 33.2735 38.753 35.2302 38.7377C36.0176 38.7321 36.8079 38.6929 37.5939 38.6286C38.9254 38.5209 39.4793 37.9069 39.4793 36.5935C39.4793 32.3542 39.4793 28.1135 39.4793 23.8742C39.4793 20.9258 37.9072 18.9593 35.0456 18.2936C34.7463 18.2236 34.3672 18.0964 34.212 17.8684C33.5238 16.8544 32.8343 15.8305 32.2818 14.7396C31.8287 13.8445 31.5685 12.85 31.1433 11.6794C30.6818 12.3647 30.1922 12.8626 29.9699 13.4612C29.0523 15.9313 30.1111 18.6209 32.1671 20.4615C32.5322 20.7874 32.756 21.1538 32.5476 21.5328C32.4161 21.7748 31.9685 21.9496 31.6524 21.9664C30.6398 22.0196 29.623 21.986 28.5097 21.986C29.0188 23.3511 28.9377 24.5413 28.0957 25.6351C28.0243 25.7274 28.0733 26.0001 28.1628 26.1134C28.8943 27.0351 28.9446 28.0646 28.6579 29.3317ZM13.7105 22.7483C18.7345 22.7231 23.0549 18.4656 22.7095 13.0416C22.4269 8.61211 18.5065 4.35741 13.1329 4.63155C8.80686 4.85254 4.27943 8.69043 4.62909 14.3214C4.90183 18.7327 8.6628 22.7441 13.7105 22.7483ZM21.9528 20.4195C23.3486 20.7398 23.5766 20.6433 24.1864 19.6013C25.3725 17.5761 25.8536 15.3844 25.7347 13.0542C25.5725 9.8695 24.3249 7.15472 22.0311 4.96443C19.5065 2.55455 16.4743 1.43283 12.9623 1.62025C9.81529 1.78669 7.13548 3.0273 4.98155 5.26094C2.66539 7.66382 1.48912 10.5856 1.58423 13.9745C1.68913 17.7117 3.23743 20.7426 6.09907 23.0909C8.85721 25.3554 12.0601 26.133 15.5651 25.6211C16.5316 25.4798 17.4673 25.1288 18.3862 24.8826C18.2995 24.2756 18.238 23.8448 18.1666 23.3483C15.5442 24.4588 12.8951 24.6393 10.1971 23.7315C7.45717 22.8098 5.47108 21.0181 4.15355 18.4796C1.94788 14.2291 3.064 8.77995 6.76204 5.59382C10.3622 2.49161 15.7148 2.23006 19.7765 5.00918C21.6954 6.32112 23.0703 8.11699 23.7473 10.3366C24.8564 13.9578 24.2676 17.3495 21.9528 20.4195ZM7.61242 26.1232C6.74245 29.7877 5.85711 33.5179 4.934 37.4089C5.7578 37.0747 6.35503 36.8257 6.95785 36.5907C7.5243 36.3697 8.02222 36.3977 8.47259 36.8998C8.9719 37.4565 9.53276 37.9586 10.1719 38.5866C10.9818 34.7375 11.7566 31.0591 12.5105 27.4757C10.8321 27.0114 9.25443 26.5764 7.61242 26.1232ZM43.9452 37.1782C43.9452 32.6046 43.9452 28.0841 43.9452 23.5609C42.9256 23.5609 41.9633 23.5609 40.9926 23.5609C40.9926 28.1233 40.9926 32.6297 40.9926 37.1782C41.9815 37.1782 42.927 37.1782 43.9452 37.1782ZM18.5429 26.5596C17.2547 26.8519 16.0645 27.1233 14.8043 27.4086C15.5777 31.0786 16.3526 34.7543 17.1596 38.5824C17.4799 38.2761 17.6897 38.0761 17.8981 37.8733C18.3485 37.4369 18.7289 36.8495 19.266 36.6047C19.8003 36.3599 19.9779 36.0439 20.073 35.5445C19.9191 35.434 19.7793 35.3082 19.6184 35.2228C18.3065 34.5291 17.8198 32.6829 18.4771 31.4605C18.9191 30.6381 18.9611 30.073 18.4701 29.266C17.9708 28.4464 18.1806 27.4757 18.5429 26.5596ZM23.5081 26.6267C23.5081 26.6155 23.5081 26.6058 23.5081 26.5946C22.7402 26.5946 21.9682 26.5442 21.2059 26.6086C20.3387 26.6813 19.8129 27.2715 19.7947 28.052C19.7765 28.8534 20.2492 29.4856 21.136 29.5289C22.7095 29.6059 24.2899 29.5555 25.8676 29.5457C26.0466 29.5443 26.2383 29.4968 26.4005 29.4198C27.0425 29.1121 27.3082 28.5876 27.2369 27.8841C27.1726 27.2589 26.7068 26.7037 26.0173 26.6435C25.1865 26.5722 24.3445 26.6267 23.5081 26.6267ZM23.606 34.2172C24.3794 34.1725 25.2438 34.1753 26.0914 34.055C26.8411 33.9501 27.2453 33.3668 27.2383 32.6214C27.2313 31.8857 26.8061 31.2535 26.0578 31.2199C24.3948 31.1444 22.722 31.1346 21.0604 31.2143C20.2422 31.2535 19.8017 31.8731 19.7947 32.6158C19.7863 33.399 20.2157 33.9515 21.0856 34.0746C21.8857 34.1892 22.7053 34.1725 23.606 34.2172ZM23.364 25.112C24.3095 25.0686 25.1501 25.0812 25.9781 24.9777C26.8061 24.8742 27.2313 24.3357 27.2397 23.5707C27.2495 22.7609 26.8299 22.1692 25.9669 22.1147C24.4172 22.0168 22.8591 22.049 21.3052 22.0322C21.1919 22.0308 21.0786 22.0741 20.9653 22.1007C20.266 22.2643 19.817 22.7902 19.7933 23.47C19.7681 24.2001 20.1723 24.8365 20.8982 24.9484C21.7444 25.0798 22.6116 25.0672 23.364 25.112ZM24.3263 35.6075C23.7067 35.6564 23.0983 35.6564 22.5095 35.7627C21.7234 35.9054 21.294 36.4816 21.3108 37.2341C21.3262 37.932 21.7877 38.5656 22.5248 38.616C23.6955 38.6957 24.8802 38.6929 26.0522 38.616C26.7935 38.567 27.2285 37.9516 27.2397 37.2187C27.2509 36.469 26.8495 35.9026 26.1124 35.7683C25.5221 35.662 24.9137 35.6564 24.3263 35.6075Z" fill="#115C07"/>
<path d="M15.9344 15.9789C16.4729 15.9789 16.9331 15.9887 17.3932 15.9761C17.9443 15.9607 18.21 16.2041 18.2044 16.7664C18.1932 17.744 18.1932 18.7217 18.2044 19.6993C18.21 20.221 17.9862 20.4728 17.4562 20.4714C14.919 20.4658 12.3818 20.4672 9.84469 20.47C9.33978 20.4714 9.13558 20.2126 9.13837 19.7315C9.14397 18.73 9.14397 17.73 9.13837 16.7286C9.13558 16.2013 9.39153 15.9649 9.91183 15.9761C10.3734 15.9859 10.8349 15.9789 11.3468 15.9789C11.3468 14.8264 11.3468 13.7229 11.3468 12.5928C10.8503 12.6921 10.3818 12.8166 9.90623 12.8739C9.38733 12.9369 9.13138 12.6725 9.13697 12.1382C9.14677 11.1368 9.1062 10.134 9.16215 9.13675C9.17614 8.8794 9.41251 8.53534 9.64469 8.40386C10.5328 7.90175 11.4182 7.29614 12.386 7.06117C13.3917 6.8178 14.4924 6.9241 15.5484 6.97165C15.6897 6.97725 15.9162 7.52692 15.9204 7.82622C15.9512 10.2697 15.9372 12.7145 15.9372 15.1593C15.9344 15.4111 15.9344 15.66 15.9344 15.9789ZM10.6573 18.972C12.7175 18.972 14.684 18.972 16.6561 18.972C16.6561 18.4447 16.6561 17.9706 16.6561 17.4531C16.2072 17.4531 15.8127 17.4559 15.4197 17.4531C14.5847 17.4461 14.4546 17.3174 14.4546 16.4782C14.4519 14.0334 14.4533 11.5886 14.4533 9.14375C14.4533 8.89759 14.4533 8.65282 14.4533 8.46261C13.2196 8.07378 12.3804 8.7801 11.4727 9.20948C10.4923 9.67243 10.4251 9.87384 10.7412 11.0123C11.0727 10.9088 11.4 10.7899 11.7357 10.7032C12.5049 10.506 12.884 10.8011 12.8854 11.5984C12.8896 13.2516 12.8686 14.9048 12.8952 16.558C12.9063 17.2335 12.614 17.4853 11.9748 17.4573C11.5427 17.4377 11.1077 17.4531 10.6559 17.4531C10.6573 18.0125 10.6573 18.4685 10.6573 18.972Z" fill="#115C07"/>
</svg>
