<svg width="35" height="43" viewBox="0 0 35 43" fill="none" xmlns="http://www.w3.org/2000/svg">
<path d="M30.7392 0C31.3533 0.284529 31.6657 0.820271 31.8926 1.41454C32.0052 1.70897 32.1745 1.81072 32.4959 1.81252C33.7259 1.82062 34.3318 2.80117 33.8132 3.91047C33.5863 4.39669 33.3513 4.87841 33.0974 5.40965C33.5377 5.59603 33.9456 5.76981 34.3561 5.94089C34.8586 6.15068 35.0657 6.48113 34.9819 6.94484C34.9063 7.35903 34.5749 7.60484 34.0473 7.61835C33.6763 7.62735 33.3054 7.62015 32.9155 7.62015C32.857 8.60609 32.4725 9.35973 31.6756 9.89278C31.6018 9.9423 31.5928 10.1845 31.6396 10.3052C32.3771 12.2122 32.9488 14.1679 33.2874 16.1821C33.688 18.5664 34.0113 20.9687 33.6277 23.3845C33.1793 26.2145 31.6954 28.4133 29.3418 30.0259C29.0437 30.2294 28.8574 30.4572 28.7106 30.793C27.3906 33.8184 25.127 35.7138 21.8855 36.4152C21.7684 36.4404 21.6514 36.4656 21.5352 36.4962C21.51 36.5025 21.4902 36.5322 21.4209 36.5908C21.5136 36.8771 21.6109 37.1868 21.7144 37.4948C21.9854 38.3042 22.2646 39.111 22.5257 39.9241C22.604 40.1672 22.713 40.2788 22.9912 40.2968C23.6494 40.3382 24.1545 40.6579 24.4535 41.2639C24.7875 41.941 24.6786 42.3939 24.0762 42.8585C23.8961 42.8585 23.716 42.8585 23.536 42.8585C23.3487 42.6235 23.1677 42.3831 22.9723 42.1553C22.9048 42.0769 22.8084 41.986 22.7157 41.9743C22.4969 41.9473 22.2691 41.9455 22.0512 41.9743C21.9467 41.9878 21.836 42.0787 21.7612 42.1634C21.5632 42.3867 21.3831 42.6262 21.1949 42.8585C21.0148 42.8585 20.8347 42.8585 20.6546 42.8585C20.434 42.5956 20.2143 42.3327 19.9073 41.9671C19.5282 41.9671 18.9916 41.9581 18.4559 41.9761C18.3694 41.9788 18.2731 42.0895 18.2064 42.1706C18.0246 42.3939 17.8562 42.6289 17.6824 42.8585C17.5023 42.8585 17.3222 42.8585 17.1422 42.8585C16.3993 42.3552 16.3678 41.4214 17.1016 40.7767C17.3529 40.5561 17.6761 40.4175 18.0047 40.2194C17.623 39.0912 17.2412 37.9252 16.8225 36.7726C16.7766 36.6466 16.5326 36.5475 16.366 36.5151C14.0925 36.082 12.4636 34.8152 11.4966 32.7235C11.2481 32.186 11.1202 31.5935 10.9176 30.9659C10.4575 30.9659 9.9506 30.9677 9.44457 30.9659C7.02698 30.9533 5.25048 29.5874 4.58507 27.2562C4.54005 27.0996 4.34377 26.9123 4.18529 26.8736C1.66956 26.2613 0.0614284 24.2876 0.00920481 21.6998C-0.00610212 20.9498 0.00110114 20.1997 0.00650359 19.4497C0.0128064 18.7294 0.294634 18.4575 1.03027 18.4502C3.64055 18.4259 6.25173 18.4475 8.86021 18.3665C11.2544 18.2927 13.59 17.8038 15.8852 17.1248C16.0725 17.0699 16.2571 17.006 16.4461 16.961C16.9162 16.8475 17.3628 17.0888 17.4852 17.5138C17.6131 17.9559 17.397 18.4151 16.9243 18.5448C15.6385 18.896 14.3518 19.2516 13.0489 19.5316C9.56973 20.2799 6.03383 20.1088 2.51054 20.1205C2.24402 20.1214 1.9775 20.1205 1.68396 20.1205C1.63264 21.4783 1.52279 22.7866 2.4259 23.9031C3.1021 24.7387 3.96289 25.2249 5.04158 25.3068C5.89247 25.3717 6.06174 25.5383 6.14368 26.4017C6.30035 28.045 7.57713 29.2416 9.23118 29.2785C9.98122 29.2948 10.7313 29.2821 11.4813 29.2839C12.3133 29.2857 12.5834 29.5424 12.6311 30.3698C12.7545 32.5011 14.2041 34.2677 16.2535 34.7809C16.4128 34.8206 16.5776 34.8692 16.7388 34.8674C18.2956 34.8539 19.8821 35.0141 21.4038 34.7692C24.2167 34.3163 26.1615 32.6137 27.2303 29.9656C27.4482 29.4244 27.7553 29.0471 28.2487 28.7239C30.8184 27.0446 32.1024 24.6387 32.106 21.5738C32.1105 17.5444 31.238 13.6916 29.7118 9.97381C29.3607 9.11752 29.5867 8.72675 30.4961 8.55027C30.9346 8.46473 31.1696 8.182 31.2119 7.7426C31.2569 7.26809 31.3083 6.79357 31.3227 6.31726C31.3263 6.1885 31.2299 6.03723 31.1399 5.92918C30.6159 5.298 29.9342 5.04498 29.1329 5.20255C28.2901 5.36823 27.7544 5.90037 27.5239 6.72244C27.2366 7.74711 26.9773 8.77897 26.6874 9.80274C26.0841 11.934 24.9532 13.7438 23.3298 15.2466C22.8877 15.6563 22.4059 15.6635 22.053 15.2916C21.7207 14.9414 21.7441 14.429 22.1556 14.0545C23.798 12.5589 24.7902 10.6995 25.3026 8.55837C25.4664 7.87316 25.6564 7.19425 25.8563 6.51895C25.9382 6.24072 25.8941 6.04984 25.6744 5.84725C25.3341 5.5321 25.0198 5.18635 24.7164 4.83429C24.0591 4.07254 24.2824 3.06319 25.172 2.61478C25.3043 2.54815 25.4574 2.33386 25.4466 2.2006C25.3431 0.931021 26.6658 0.104447 27.8048 0.92742C28.0794 1.12551 28.3909 1.27228 28.7142 1.45956C29.0473 0.844582 29.331 0.234106 30.0189 0C30.2593 0 30.4997 0 30.7392 0ZM27.1844 2.63639C27.1259 2.8642 27.0998 3.17394 26.9656 3.42425C26.8242 3.68717 26.5784 3.89516 26.365 4.14277C26.5082 4.29854 26.6559 4.45972 26.8044 4.62269C28.3927 3.25137 30.0333 3.11721 31.8008 4.21391C31.9115 3.987 32.0196 3.7682 32.1592 3.48278C31.1147 3.5422 30.6816 2.875 30.3241 2.02952C29.9946 2.70392 29.6326 3.309 28.9105 3.22436C28.3126 3.15233 27.7454 2.83628 27.1844 2.63639ZM20.859 40.2032C20.4701 39.0579 20.0802 37.9044 19.6813 36.7537C19.6588 36.688 19.5589 36.6097 19.4913 36.6061C19.2014 36.5899 18.9106 36.5989 18.5639 36.5989C18.9034 37.6289 19.2113 38.5762 19.5282 39.5216C19.811 40.3635 19.8299 40.3707 20.7258 40.268C20.7528 40.2653 20.778 40.2437 20.859 40.2032Z" fill="black"/>
<path d="M24.7173 22.6714C24.6227 23.7582 24.6497 24.872 24.4111 25.9264C23.7916 28.6627 21.275 30.5932 18.4792 30.6121C17.0791 30.6211 15.8645 29.8143 15.3692 28.5069C15.2675 28.2377 15.1324 28.1495 14.8587 28.1143C12.18 27.7686 10.2945 26.3477 9.21404 23.8743C8.82147 22.9757 9.18433 22.4445 10.1748 22.4544C13.8115 22.4931 17.3465 21.9213 20.7681 20.6878C21.6271 20.378 22.4653 20.0071 23.3072 19.6505C24.0798 19.3237 24.6236 19.664 24.6308 20.5032C24.6371 21.2235 24.6317 21.9439 24.6317 22.6633C24.6596 22.6669 24.6884 22.6687 24.7173 22.6714ZM11.2247 24.1408C11.4056 24.3813 11.5101 24.5424 11.637 24.6838C12.7292 25.9047 14.0988 26.4999 15.7366 26.5008C16.5055 26.5017 16.7198 26.7052 16.8144 27.4588C16.9278 28.3638 17.5842 28.9391 18.4963 28.9346C20.7825 28.922 22.7787 27.0762 22.9227 24.79C22.984 23.8194 22.9471 22.8416 22.9507 21.8673C22.9507 21.8142 22.92 21.7611 22.8921 21.6719C19.1771 23.2017 15.3323 24.0211 11.2247 24.1408Z" fill="black"/>
<path d="M30.4284 21.9925C30.2708 24.357 29.2156 26.1884 27.1788 27.4301C26.6449 27.756 26.147 27.6606 25.8922 27.2122C25.6418 26.7728 25.794 26.3289 26.3126 26.0065C27.837 25.0584 28.6636 23.6952 28.7609 21.8979C28.7942 21.2785 29.1444 20.894 29.6442 20.9255C30.1484 20.9579 30.4518 21.3721 30.4284 21.9925Z" fill="black"/>
<path d="M30.2183 18.4197C30.2255 18.9014 29.8969 19.2598 29.4332 19.2751C28.9596 19.2904 28.5823 18.9239 28.5733 18.4386C28.5643 17.9605 28.9424 17.5724 29.4107 17.5787C29.8618 17.5859 30.2111 17.9488 30.2183 18.4197Z" fill="black"/>
<path d="M19.8467 17.3752C19.3875 17.386 19.0184 17.0285 19.0076 16.5639C18.9968 16.0984 19.3488 15.7247 19.808 15.7157C20.2618 15.7067 20.6472 16.0741 20.6571 16.5261C20.667 16.9754 20.296 17.3644 19.8467 17.3752Z" fill="black"/>
</svg>
