<svg width="41" height="39" viewBox="0 0 41 39" fill="none" xmlns="http://www.w3.org/2000/svg">
<path d="M21.6816 39.0001C21.6906 38.4201 21.7061 37.8394 21.7077 37.2594C21.711 35.6708 21.7094 34.0821 21.7094 32.4926C21.7094 32.3523 21.7094 32.2128 21.7094 32.0461C24.8956 31.7413 27.6246 30.5155 29.8515 28.395C32.0702 26.2829 33.3548 23.6987 33.689 20.6501C33.8455 20.6501 34.0028 20.6501 34.1593 20.6501C36.2778 20.6501 38.3963 20.6509 40.5147 20.6493C40.6769 20.6493 40.8383 20.633 41.0005 20.6245C41.0005 26.7497 41.0005 32.8749 41.0005 39.0001C34.5604 39.0001 28.121 39.0001 21.6816 39.0001ZM37.3317 35.4917C37.3317 34.8784 37.3122 34.3007 37.3391 33.7239C37.3546 33.3804 37.2625 33.2595 36.8728 33.2618C33.9841 33.2781 31.0953 33.2703 28.2066 33.2711C28.0754 33.2711 27.9441 33.2819 27.8056 33.2881C27.8056 34.0426 27.8056 34.7574 27.8056 35.4917C30.9747 35.4917 34.1169 35.4917 37.3317 35.4917ZM37.3301 30.9272C37.3301 30.2318 37.3399 29.5766 37.3171 28.923C37.3146 28.8447 37.1386 28.7082 37.0416 28.7067C36.0528 28.6904 35.0633 28.6927 34.0737 28.7036C33.98 28.7043 33.8072 28.7966 33.8064 28.8493C33.7885 29.5378 33.7942 30.2263 33.7942 30.928C34.9956 30.9272 36.1303 30.9272 37.3301 30.9272Z" fill="#115C07"/>
<path d="M19.3181 0C19.3091 0.579958 19.2936 1.16069 19.292 1.74065C19.2887 3.32933 19.2904 4.91801 19.2904 6.50746C19.2904 6.6478 19.2904 6.78736 19.2904 6.95251C16.1049 7.2611 13.3768 8.48614 11.1474 10.6044C8.92544 12.7156 7.64572 15.3014 7.30827 18.3501C7.15421 18.3501 6.99771 18.3501 6.84121 18.3501C4.72274 18.3501 2.60427 18.3493 0.485805 18.3508C0.323598 18.3508 0.162207 18.3671 0 18.3757C0 12.2566 0 6.1384 0 0C6.43936 0 12.8787 0 19.3181 0ZM3.66799 3.50843C3.66799 4.12406 3.68837 4.70246 3.66066 5.27854C3.64435 5.6259 3.7438 5.74065 4.12934 5.73832C7.01809 5.72282 9.90684 5.72979 12.7956 5.72902C12.9268 5.72902 13.0572 5.71816 13.1942 5.71196C13.1942 4.95678 13.1942 4.24191 13.1942 3.50843C10.0234 3.50843 6.88197 3.50843 3.66799 3.50843ZM7.18763 10.3043C7.18763 9.53673 7.18763 8.82187 7.18763 8.08839C6.01143 8.08839 4.85723 8.08839 3.66962 8.08839C3.66962 8.77302 3.65984 9.42896 3.68266 10.0834C3.68511 10.1601 3.86362 10.2896 3.96469 10.2942C4.47821 10.316 4.99417 10.3051 5.50932 10.3051C6.06034 10.3043 6.61216 10.3043 7.18763 10.3043Z" fill="#115C07"/>
<path d="M28.9378 12.9537C30.4922 14.7843 31.2486 17.0677 31.2616 18.3502C30.6951 18.3502 30.1278 18.3502 29.5605 18.3502C28.9907 18.3502 28.421 18.3502 27.8145 18.3502C27.8145 19.1084 27.8145 19.8481 27.8145 20.6366C28.9524 20.6366 30.0977 20.6366 31.3081 20.6366C31.0668 22.6556 30.286 24.3955 28.9924 26.002C28.1561 25.1778 27.341 24.3746 26.5462 23.5915C25.9406 24.1668 25.4051 24.6754 24.8508 25.2027C25.6684 25.9594 26.503 26.7316 27.3809 27.5434C25.6586 28.7871 23.8376 29.5523 21.7167 29.7811C21.7167 28.6522 21.7167 27.5613 21.7167 26.4479C20.9008 26.4479 20.133 26.4479 19.313 26.4479C19.313 27.5326 19.313 28.6212 19.313 29.7788C17.1806 29.5663 15.3678 28.7879 13.6732 27.5899C14.538 26.7937 15.3817 26.0175 16.2082 25.2562C15.5977 24.6754 15.0622 24.1668 14.5152 23.6465C13.7205 24.4196 12.907 25.212 12.0479 26.0478C10.7364 24.4103 9.93757 22.6774 9.69141 20.6622C10.8774 20.6622 12.0234 20.6622 13.1956 20.6622C13.1956 19.876 13.1956 19.1356 13.1956 18.3602C12.0422 18.3602 10.9067 18.3602 9.69874 18.3602C9.91556 16.3443 10.7388 14.6223 11.9892 13.015C12.8231 13.8353 13.6374 14.6378 14.4296 15.417C15.0499 14.8309 15.5855 14.3238 16.1626 13.7779C15.3515 13.0235 14.512 12.2428 13.6471 11.4379C15.3507 10.1943 17.1798 9.44996 19.2861 9.22046C19.2861 10.3548 19.2861 11.4364 19.2861 12.5475C20.0979 12.5475 20.8763 12.5475 21.7037 12.5475C21.7037 11.4527 21.7037 10.3618 21.7037 9.22123C23.8197 9.43833 25.6301 10.2106 27.2961 11.3868C26.4435 12.173 25.6032 12.9483 24.7954 13.6934C25.4214 14.2943 25.952 14.8045 26.503 15.3333C27.2766 14.5758 28.0949 13.7764 28.9378 12.9537ZM21.6866 14.9317C20.8731 14.9317 20.1061 14.9317 19.2918 14.9317C19.2918 15.096 19.2918 15.2348 19.2918 15.3736C19.2918 16.2001 19.2918 17.0259 19.2918 17.8524C19.2918 18.3494 19.2909 18.3502 18.7595 18.3502C18.1416 18.3502 17.5238 18.3502 16.8994 18.3502C16.8994 19.1457 16.8994 19.8753 16.8994 20.6273C18.5044 20.6273 20.084 20.6273 21.6866 20.6273C21.6866 18.7246 21.6866 16.846 21.6866 14.9317Z" fill="#115C07"/>
<path d="M18.0695 31.9215C18.0695 33.4761 18.0695 35.0493 18.0695 36.6573C12.8691 36.6573 7.67764 36.6573 2.45605 36.6573C2.45605 31.7192 2.45605 26.7895 2.45605 21.8281C4.11562 21.8281 5.77762 21.8281 7.44044 21.8281C8.83265 27.2222 12.3621 30.5926 18.0695 31.9215Z" fill="#115C07"/>
<path d="M33.745 18.3492C32.7213 12.3132 29.1242 8.58995 22.9326 7.0571C22.9326 6.28253 22.9326 5.45989 22.9326 4.61011C27.7418 4.61011 32.5403 4.61011 37.3666 4.61011C37.3731 4.74889 37.3853 4.8745 37.3853 5.00088C37.3861 9.30404 37.3813 13.6064 37.3951 17.9096C37.3959 18.2748 37.2818 18.3663 36.9142 18.357C35.9776 18.3337 35.0394 18.3492 34.1021 18.3492C33.97 18.3492 33.8372 18.3492 33.745 18.3492Z" fill="#115C07"/>
</svg>
