<svg width="38" height="35" viewBox="0 0 38 35" fill="none" xmlns="http://www.w3.org/2000/svg">
<path d="M9.22084 14.0224C6.10929 14.0224 3.07193 14.0224 0.00084301 14.0224C0.00084301 13.618 0.00084301 13.2654 0.00084301 12.8595C1.11193 12.8595 2.2247 12.8595 3.3653 12.8595C3.3653 11.0762 3.3653 9.34618 3.3653 7.57226C2.23903 7.57226 1.13553 7.57226 0 7.57226C0 7.1779 0 6.82671 0 6.43738C0.166916 6.43019 0.33046 6.41795 0.494004 6.41795C3.10733 6.41651 5.72067 6.42011 8.33315 6.41363C8.72262 6.41292 9.12811 6.41292 9.49735 6.32584C9.83287 6.24668 10.1726 6.0898 10.4339 5.89333C10.9802 5.48098 11.4599 5.00529 11.9969 4.58358C12.3906 4.27486 12.8416 4.04961 13.4232 4.08199C13.8979 4.10862 14.375 4.08703 14.9162 4.08703C14.7619 3.68547 14.6237 3.31773 14.4795 2.95215C14.2342 2.32894 13.9805 1.70861 13.7419 1.08396C13.6821 0.927799 13.6458 0.758683 13.6416 0.594605C13.6306 0.162819 13.8144 0.0016192 14.3118 0.0016192C18.4139 -0.000539732 22.5168 -0.000539732 26.6189 0.0016192C27.2174 0.00233884 27.456 0.356403 27.2351 0.945071C26.9063 1.82016 26.5531 2.68877 26.2126 3.56097C26.151 3.71785 26.0971 3.87689 26.0203 4.08775C26.2319 4.08775 26.4073 4.09854 26.5801 4.08631C28.2282 3.96901 29.1934 5.52056 28.3959 6.75834C28.2779 6.94185 28.2729 7.04836 28.3951 7.22971C28.8318 7.88099 28.7643 8.63085 28.2434 9.33035C28.7517 9.98306 28.8166 10.6674 28.4389 11.3921C28.3951 11.4763 28.4676 11.6685 28.5603 11.7304C29.1513 12.124 29.7675 12.4896 30.3661 12.876C31.349 13.51 31.9872 14.3664 32.4795 15.3127C32.9482 16.213 33.0241 17.1744 33.0915 18.1388C33.1708 19.2686 33.2576 20.3984 33.3503 21.5276C33.4009 22.1436 33.4734 22.7589 33.5324 23.3749C33.6445 24.5493 33.755 25.7238 33.862 26.8983C33.8991 27.3027 33.9236 27.7079 33.9548 28.1123C34.0112 28.8499 34.0424 29.5897 34.1436 30.3223C34.1697 30.5137 34.3805 30.7181 34.5685 30.8549C35.1695 31.2924 35.822 31.6796 36.4113 32.1279C36.9179 32.5129 37.052 33.406 36.708 34.0069C36.37 34.5984 35.8321 34.9986 35.0094 34.9986C25.3156 35.0007 15.621 35 5.9272 34.9993C4.93329 34.9993 4.13581 34.2681 4.06162 33.4254C3.98322 32.5338 4.52528 31.9969 5.2941 31.5364C5.69116 31.2989 6.09328 31.0643 6.46504 30.7994C6.61341 30.6937 6.75672 30.5173 6.78033 30.3597C6.87306 29.7596 6.9228 29.1536 6.97591 28.5498C7.09224 27.2315 7.20521 25.9131 7.30974 24.5947C7.37634 23.7498 7.41343 22.9035 7.48677 22.0587C7.56011 21.2059 7.66549 20.3553 7.74979 19.5032C7.78857 19.111 7.83409 18.7181 7.83746 18.3252C7.85095 16.8952 8.14769 15.5315 9.06657 14.3038C9.11041 14.2426 9.13738 14.1735 9.22084 14.0224ZM17.4554 10.2817C17.3517 10.3292 17.2522 10.3638 17.1662 10.4148C15.3917 11.4648 13.6037 12.4975 11.8519 13.5741C10.5621 14.3664 9.68871 15.4329 9.45014 16.7916C9.26468 17.8466 9.19218 18.916 9.08933 19.9811C8.9907 21.0022 8.9182 22.0248 8.83306 23.0467C8.75044 24.0449 8.66193 25.0423 8.58353 26.0404C8.48658 27.2646 8.39891 28.4894 8.30449 29.7135C8.28173 30.01 8.28004 30.313 8.20586 30.6015C8.11397 30.9599 7.98836 31.314 7.61069 31.5579C7.04419 31.9235 6.51141 32.3287 5.92973 32.6756C5.59927 32.8727 5.42055 33.0929 5.5175 33.4204C5.62372 33.7788 6.00729 33.8018 6.35208 33.8522C6.42036 33.8622 6.49202 33.8543 6.56283 33.8543C15.8334 33.8543 25.1048 33.855 34.3754 33.8514C34.5676 33.8514 34.7615 33.8126 34.952 33.7802C35.2285 33.7334 35.4469 33.5859 35.4182 33.3477C35.3938 33.1426 35.2943 32.8958 35.1257 32.7619C34.7716 32.4813 34.3459 32.2661 33.9556 32.0171C33.3562 31.6342 32.7872 31.2291 32.713 30.526C32.6481 29.9107 32.5781 29.2954 32.5242 28.6794C32.4331 27.646 32.3471 26.6126 32.2704 25.5792C32.2047 24.6983 32.1566 23.8168 32.0976 22.9359C32.0732 22.5667 32.0453 22.1983 32.0082 21.8298C31.9256 21.0015 31.8337 20.1732 31.7494 19.3449C31.6626 18.4921 31.6483 17.6293 31.4805 16.7887C31.1796 15.2796 30.1621 14.1613 28.6488 13.3114C28.6075 13.3978 28.5865 13.4503 28.5586 13.5C28.17 14.1966 27.5664 14.5931 26.6206 14.5816C25.2304 14.565 23.8378 14.5442 22.4494 14.5902C21.6578 14.6168 20.647 14.0102 20.5644 13.3726C20.5062 12.9214 20.2702 12.8494 19.804 12.771C18.4366 12.5414 17.6037 11.6231 17.4554 10.2817ZM9.5395 12.7717C10.1456 13.0962 10.6 12.907 11.0198 12.5637C11.0898 12.5068 11.1631 12.4514 11.2424 12.4054C12.9832 11.3813 14.7265 10.3609 16.4657 9.33538C16.7464 9.16987 17.0119 8.98492 17.2842 8.80933C17.2674 8.78198 17.2514 8.75535 17.2345 8.72801C16.2844 8.72801 15.3344 8.72801 14.3598 8.72801C14.3598 8.34516 14.3598 7.99253 14.3598 7.6176C14.5225 7.60968 14.6591 7.59817 14.7957 7.59817C15.7929 7.59817 16.7902 7.59457 17.7867 7.60896C17.9275 7.61112 18.0775 7.68596 18.2048 7.75289C19.09 8.21778 19.4246 8.95613 19.0309 9.80747C18.7376 10.4415 19.0891 11.0474 19.5477 11.3741C19.9397 11.6534 20.0704 11.6202 20.3115 11.2439C20.8316 10.4307 21.345 9.61317 21.9056 8.82012C22.7267 7.65934 22.4182 6.31001 21.1115 5.59036C20.5652 5.28955 19.9279 5.24062 19.3024 5.23486C17.6459 5.21831 15.9877 5.25285 14.3312 5.21831C13.6011 5.2032 13.0624 5.38886 12.5667 5.85303C11.7322 6.63385 10.8993 7.45064 9.5395 7.58809C9.5395 9.3397 9.5395 11.0625 9.5395 12.7717ZM15.3107 1.14873C15.6859 2.11233 16.034 3.0234 16.4075 3.92727C16.4404 4.00643 16.641 4.07768 16.7658 4.07983C17.5523 4.09351 18.3388 4.08271 19.1254 4.08847C19.8487 4.09351 20.5812 4.01794 21.2767 4.27918C21.3484 4.3058 21.4597 4.25687 21.5524 4.24247C21.877 4.19066 22.199 4.10862 22.5261 4.09423C23.0723 4.06976 23.6211 4.07911 24.1683 4.09135C24.4035 4.09639 24.513 4.02514 24.5796 3.83084C24.7213 3.4228 24.9 3.0234 25.0559 2.61896C25.2406 2.1404 25.4167 1.65896 25.6081 1.15017C22.156 1.14873 18.7747 1.14873 15.3107 1.14873ZM4.75205 12.8501C5.77883 12.8501 6.7719 12.8372 7.76412 12.8573C8.11397 12.8645 8.18563 12.7522 8.18394 12.4824C8.17214 10.9611 8.17888 9.43901 8.1772 7.91769C8.1772 7.81334 8.15865 7.70971 8.14769 7.59385C6.99951 7.59385 5.8859 7.59385 4.75205 7.59385C4.75205 9.34042 4.75205 11.0625 4.75205 12.8501ZM24.5965 13.4323C25.1858 13.4323 25.775 13.4417 26.3643 13.4294C26.9038 13.4186 27.2166 13.2085 27.2419 12.8717C27.2688 12.5162 26.9923 12.2485 26.4596 12.2384C25.1976 12.214 23.9339 12.2068 22.6719 12.2413C22.0279 12.2586 21.6831 12.7278 22.0135 13.1056C22.172 13.2869 22.5421 13.3956 22.8296 13.4186C23.4146 13.4661 24.0072 13.433 24.5965 13.4323ZM22.0658 11.0748C23.6136 11.0748 25.0711 11.0949 26.527 11.064C27.0328 11.0532 27.2613 10.7984 27.2419 10.4595C27.2225 10.1169 26.892 9.9075 26.3238 9.9039C25.2422 9.89742 24.1598 9.9003 23.0782 9.90534C22.9771 9.90606 22.822 9.92117 22.7823 9.9773C22.5412 10.317 22.3246 10.671 22.0658 11.0748ZM22.9147 5.2327C23.1406 5.60188 23.3295 5.93004 23.5427 6.24596C23.5942 6.32224 23.7231 6.40644 23.8176 6.40788C24.6993 6.41939 25.582 6.43307 26.4621 6.40644C27.005 6.38989 27.2697 6.14305 27.2419 5.77963C27.2191 5.4781 26.967 5.25213 26.484 5.24134C25.2996 5.21471 24.1143 5.2327 22.9147 5.2327ZM23.5748 8.75895C24.5451 8.75895 25.5002 8.77478 26.4537 8.75247C26.9519 8.74024 27.2208 8.51787 27.2427 8.19907C27.2646 7.86803 27.064 7.62191 26.5742 7.59817C25.657 7.55427 24.7348 7.58521 23.8412 7.58521C23.7467 7.99685 23.6633 8.36674 23.5748 8.75895Z" fill="#115C07"/>
<path d="M35.3724 13.0479C36.1463 14.0589 36.5274 15.1225 36.6091 16.2812C36.6892 17.4304 36.8258 18.5761 36.9345 19.7239C36.9657 20.0549 36.9927 20.3867 37.0129 20.7191C37.0525 21.3718 37.0854 22.0245 37.1234 22.7017C36.7229 22.7391 36.368 22.7751 36.0123 22.8039C35.783 22.8226 35.6945 22.7283 35.6843 22.529C35.638 21.6496 35.5866 20.7702 35.5166 19.8915C35.4137 18.612 35.3421 17.3282 35.16 16.0559C35.0748 15.4586 34.7714 14.8829 34.548 14.3029C34.4713 14.1035 34.3355 13.9208 34.2158 13.7121C34.6078 13.4868 34.9728 13.2774 35.3724 13.0479Z" fill="#115C07"/>
<path d="M3.98861 20.916C4.49526 20.957 4.93278 20.9923 5.39475 21.0297C5.36946 21.504 5.3585 21.9646 5.31804 22.4237C5.27926 22.8605 5.19243 23.2938 5.15787 23.7306C5.08874 24.6078 5.04996 25.4865 4.98168 26.3638C4.92435 27.1101 4.84342 27.8549 4.76671 28.6609C4.33509 28.6293 3.88492 28.5962 3.34961 28.5566C3.56289 26.0126 3.77364 23.4945 3.98861 20.916Z" fill="#115C07"/>
<path d="M5.48671 19.9188C4.99439 19.8749 4.55939 19.836 4.07129 19.7921C4.12524 19.2143 4.17835 18.6444 4.23652 18.0205C4.72884 18.0572 5.17563 18.0903 5.65446 18.1263C5.59883 18.7163 5.54572 19.2877 5.48671 19.9188Z" fill="#115C07"/>
<path d="M32.4779 10.7732C32.9559 11.0661 33.3976 11.3316 33.8318 11.6044C34.0535 11.744 34.0914 11.8915 33.8588 12.07C33.6632 12.2204 33.5098 12.409 33.3184 12.5644C33.2569 12.6148 33.0992 12.6558 33.0461 12.6256C32.5766 12.3543 32.1205 12.0664 31.6543 11.7793C31.9434 11.4252 32.2023 11.1093 32.4779 10.7732Z" fill="#115C07"/>
<path d="M11.6127 32.05C11.6127 31.6736 11.6127 31.3203 11.6127 30.9367C12.0494 30.9367 12.4658 30.9367 12.9151 30.9367C12.9151 29.3679 12.9151 27.83 12.9151 26.2374C12.6825 26.2374 12.4498 26.241 12.2171 26.2367C11.7796 26.2288 11.5992 26.0834 11.5925 25.7221C11.5849 25.3026 11.5554 24.8801 11.6068 24.4649C11.6287 24.2872 11.7863 24.0374 11.9609 23.9705C13.2473 23.479 14.5539 23.0263 15.853 22.56C16.2501 22.4175 16.6455 22.2714 17.0619 22.1203C17.0619 21.51 17.0804 20.8991 17.0577 20.2888C17.0122 19.0568 18.1098 17.9334 19.4223 17.6153C19.7216 17.5426 19.8017 17.4376 19.7941 17.1979C19.7798 16.733 19.7899 16.2674 19.7899 15.7766C20.246 15.7766 20.659 15.7766 21.1395 15.7766C21.1395 16.248 21.1497 16.7237 21.1353 17.1994C21.1277 17.4397 21.2104 17.5441 21.5088 17.6153C22.8121 17.9269 23.9248 19.069 23.8734 20.291C23.8481 20.9005 23.8692 21.5122 23.8692 22.1347C25.4591 22.6939 27.0305 23.2501 28.6061 23.7985C29.2855 24.0353 29.3412 24.0921 29.3412 24.7182C29.3412 25.0421 29.3446 25.3659 29.3403 25.689C29.3344 26.0805 29.1642 26.2266 28.7098 26.2352C28.4881 26.2388 28.2663 26.236 28.0134 26.236C28.0134 27.8055 28.0134 29.3441 28.0134 30.9252C28.4459 30.9252 28.8733 30.9252 29.3193 30.9252C29.3193 31.321 29.3193 31.6736 29.3193 32.0485C23.4182 32.05 17.5399 32.05 11.6127 32.05ZM12.9168 24.9737C12.9345 25.0054 12.9522 25.0363 12.9691 25.068C17.9715 25.068 22.9748 25.068 27.9772 25.068C27.919 24.9442 27.8305 24.8888 27.7319 24.8528C25.524 24.0533 23.3162 23.253 21.105 22.4593C20.761 22.3355 20.4373 22.2383 20.0259 22.3894C17.8872 23.176 15.7316 23.9281 13.5836 24.6952C13.356 24.7772 13.1385 24.8809 12.9168 24.9737ZM16.3437 30.9086C16.3437 29.3434 16.3437 27.7997 16.3437 26.259C15.6507 26.259 14.9974 26.259 14.3171 26.259C14.3171 27.817 14.3171 29.3535 14.3171 30.9086C15.0083 30.9086 15.6726 30.9086 16.3437 30.9086ZM26.6039 30.9144C26.6039 29.3542 26.6039 27.8084 26.6039 26.2676C25.9025 26.2676 25.2383 26.2676 24.5807 26.2676C24.5807 27.8343 24.5807 29.3707 24.5807 30.9144C25.2694 30.9144 25.9245 30.9144 26.6039 30.9144ZM19.7528 30.9122C19.7528 29.3398 19.7528 27.8019 19.7528 26.259C19.0624 26.259 18.4099 26.259 17.7397 26.259C17.7397 27.8192 17.7397 29.3578 17.7397 30.9122C18.4183 30.9122 19.0716 30.9122 19.7528 30.9122ZM23.1788 30.9101C23.1788 29.3384 23.1788 27.8019 23.1788 26.2597C22.4934 26.2597 21.8418 26.2597 21.1665 26.2597C21.1665 27.8185 21.1665 29.3549 21.1665 30.9101C21.8451 30.9101 22.4985 30.9101 23.1788 30.9101ZM22.5794 21.6518C22.5288 21.1034 22.5027 20.6551 22.4437 20.2104C22.3526 19.5202 21.8999 19.0352 21.1488 18.815C20.4921 18.6221 19.8253 18.6653 19.2487 19.0604C18.2725 19.7289 18.3913 20.6522 18.4073 21.6367C18.8845 21.4719 19.3043 21.3524 19.6963 21.184C20.2122 20.9631 20.6978 20.9566 21.2163 21.1754C21.6201 21.3452 22.0508 21.469 22.5794 21.6518Z" fill="#115C07"/>
</svg>
