<svg width="25" height="27" viewBox="0 0 25 27" fill="none" xmlns="http://www.w3.org/2000/svg">
<path d="M0 14.3781C0.250009 13.9378 0.624104 13.787 1.11493 13.8087C1.77212 13.8379 2.43116 13.8153 3.09019 13.8162C3.95327 13.8162 4.1417 13.9689 4.31266 14.8185C5.18401 14.9222 6.06272 15.0089 6.93684 15.1334C9.25677 15.4624 11.3956 16.3553 13.449 17.4575C14.8287 18.1986 15.1403 19.4168 14.3976 21.1083C15.0805 20.9452 15.7083 20.8858 16.2616 20.6454C17.8518 19.9552 19.4116 19.1924 20.9824 18.457C21.1635 18.3721 21.3491 18.292 21.5146 18.1817C21.635 18.1006 21.726 17.9714 21.8298 17.8639C21.6883 17.7423 21.5311 17.5047 21.408 17.5217C21.0541 17.5697 20.6965 17.6829 20.3721 17.8385C19.1395 18.4306 17.9198 19.0491 16.6955 19.6582C16.6403 19.6855 16.5842 19.7119 16.5273 19.7346C16.0043 19.942 15.5539 19.7826 15.371 19.3272C15.1954 18.8898 15.393 18.4711 15.8894 18.2307C16.8021 17.7894 17.7176 17.3538 18.6275 16.905C19.009 16.7174 19.3775 16.5034 19.7728 16.2903C19.5972 15.8839 19.3049 15.8273 18.997 15.9367C18.6376 16.063 18.2985 16.2507 17.9529 16.4176C17.0953 16.8315 16.2442 17.2614 15.3802 17.6612C14.8415 17.9101 14.3599 17.7376 14.1779 17.2765C13.9932 16.8079 14.222 16.4081 14.7809 16.1404C15.8057 15.6491 16.8241 15.1438 17.8398 14.6308C18.5558 14.2697 19.293 14.1264 20.0586 14.4074C20.6019 14.6063 20.9677 15.0136 21.2232 15.5482C21.2921 15.6925 21.4833 15.8405 21.6377 15.8669C22.6856 16.0432 23.3575 16.7777 23.443 17.8696C23.4531 17.9921 23.5018 18.1769 23.5863 18.2184C24.3437 18.5965 24.772 19.2301 25.0009 20.0344C25.0009 20.3173 25.0009 20.6001 25.0009 20.883C24.7564 21.5732 24.4145 22.1879 23.7775 22.5801C21.7407 23.8323 19.6597 24.9986 17.3977 25.7689C16.4592 26.0885 15.4822 26.2865 14.5226 26.5402C13.9095 26.5402 13.2974 26.5402 12.6843 26.5402C12.176 26.4393 11.6622 26.3572 11.1594 26.2337C9.25769 25.7661 7.35873 25.2852 5.45884 24.81C4.96985 24.6874 4.70422 24.315 4.77775 23.8539C4.85128 23.3919 5.26674 23.093 5.77779 23.2118C7.25302 23.5532 8.73286 23.8822 10.1897 24.2952C12.0289 24.8166 13.8507 25.1306 15.7478 24.5856C18.2939 23.8539 20.5936 22.5924 22.8575 21.2394C22.9494 21.1847 23.0339 21.113 23.1111 21.0376C23.5772 20.5803 23.4466 19.8552 22.8271 19.7063C22.533 19.6356 22.158 19.7185 21.8712 19.8505C20.3362 20.5539 18.8371 21.3421 17.2874 22.0078C16.1293 22.5056 14.8884 22.9346 13.6264 22.5698C11.5537 21.971 9.5123 21.2611 7.46259 20.5794C7.05632 20.4445 6.87893 19.9844 7.00853 19.5724C7.12618 19.1971 7.52969 18.9388 7.91849 19.0321C8.43873 19.1566 8.95621 19.3008 9.46726 19.464C10.3579 19.7487 11.2366 20.0693 12.13 20.3437C12.5878 20.4841 13.0667 20.2399 13.1972 19.8439C13.347 19.3885 13.0556 19.1462 12.7404 18.9256C12.6769 18.8813 12.6098 18.8426 12.5418 18.8077C10.7081 17.8903 8.83488 17.0813 6.79804 16.7711C5.97632 16.6457 5.14633 16.5788 4.27038 16.4798C4.27038 16.7834 4.27038 16.9691 4.27038 17.1558C4.27038 19.48 4.27313 21.8051 4.26854 24.1293C4.26762 24.9015 3.99095 25.1843 3.24644 25.19C2.54237 25.1956 1.83738 25.1721 1.13331 25.1975C0.64984 25.2173 0.266554 25.0806 0 24.6554C0 24.4668 0 24.2782 0 24.0897C0.261039 23.6625 0.634214 23.5041 1.1232 23.5334C1.62138 23.5635 2.12324 23.54 2.63429 23.54C2.63429 20.8236 2.63429 18.1656 2.63429 15.4945C2.28317 15.4945 1.96606 15.4945 1.59013 15.4945C1.59013 16.0489 1.59013 16.5779 1.59013 17.1077C1.59013 18.7398 1.58737 20.3729 1.59013 22.005C1.59105 22.4114 1.43296 22.7131 1.05059 22.8404C0.675576 22.9658 0.360307 22.846 0.124085 22.5151C0.090996 22.4679 0.0413618 22.433 0 22.3925C0 19.7214 0 17.0493 0 14.3781Z" fill="#444444"/>
<path d="M13.5116 0.89502C14.2643 1.13922 15.0548 1.3014 15.7635 1.64366C18.4584 2.94576 20.0191 5.89976 19.6671 8.90562C19.3096 11.9633 17.0797 14.4751 14.1632 15.1087C10.3175 15.9441 6.54071 13.3314 5.8302 9.34311C5.12705 5.39438 7.7641 1.605 11.6448 0.983649C11.7486 0.96762 11.8479 0.925191 11.949 0.89502C12.4702 0.89502 12.9904 0.89502 13.5116 0.89502ZM7.31647 8.08438C7.32474 11.1412 9.76233 13.6294 12.7349 13.6152C15.712 13.6011 18.1275 11.0997 18.1128 8.04384C18.099 5.01629 15.6734 2.53844 12.7183 2.53278C9.75038 2.52807 7.3082 5.03703 7.31647 8.08438Z" fill="#444444"/>
<path d="M15.8314 5.75475C15.655 6.05646 15.5676 6.29878 15.4068 6.46566C13.9986 7.9271 12.5804 9.37722 11.1594 10.8255C10.7458 11.2469 10.2936 11.2705 9.94795 10.9179C9.61522 10.5775 9.64095 10.0768 10.0362 9.66951C11.4489 8.21184 12.8681 6.76078 14.2845 5.30689C14.5575 5.02686 14.8893 4.86846 15.2321 5.08154C15.4647 5.22674 15.6182 5.50677 15.8314 5.75475Z" fill="#444444"/>
<path d="M14.5796 11.111C13.9858 11.1006 13.5079 10.5972 13.518 9.99287C13.5281 9.38572 14.0189 8.9049 14.6182 8.91621C15.2184 8.92752 15.6908 9.42437 15.678 10.0325C15.6642 10.6424 15.1761 11.1223 14.5796 11.111Z" fill="#444444"/>
<path d="M10.8239 7.2471C10.2329 7.24521 9.74945 6.74835 9.74945 6.14307C9.74945 5.53025 10.2228 5.05225 10.8285 5.05225C11.4333 5.05225 11.9113 5.53685 11.9067 6.14684C11.903 6.75118 11.414 7.24898 10.8239 7.2471Z" fill="#444444"/>
</svg>
