<svg width="333" height="324" viewBox="0 0 333 324" fill="none" xmlns="http://www.w3.org/2000/svg">
<path d="M290.358 263.145C286.578 263.145 283.348 263.145 279.968 263.145C279.828 260.525 279.788 258.415 279.578 256.315C278.908 249.74 273.848 242.734 267.498 243.352C256.078 244.471 251.428 238.553 247.688 229.839C246.558 227.209 244.458 224.845 242.368 222.784C237.608 218.074 232.578 213.628 227.538 208.957C227.868 208.594 228.248 208.074 228.718 207.652C242.458 195.317 248.588 179.921 248.428 161.747C248.228 139.354 248.418 116.961 248.368 94.5673C248.318 71.6736 240.318 51.9102 223.018 36.4155C200.458 16.2106 173.858 10.4307 145.038 19.5764C116.798 28.5455 98.4978 48.1126 92.7178 76.8647C90.0778 89.9944 90.9578 103.831 90.5778 117.353C90.4778 120.817 90.0978 123.31 86.9178 125.567C82.2278 128.903 80.0478 133.966 80.2378 139.687C80.3478 142.877 81.1478 146.046 81.6478 149.294C81.1978 149.412 80.7278 149.618 80.2478 149.648C60.7078 150.806 53.3978 157.155 50.2078 176.329C44.5778 210.184 39.1578 244.068 33.5378 277.913C31.6978 288.982 32.9078 299.345 39.4278 308.873C43.9578 315.487 50.5678 319.461 57.4078 323.21C66.4078 323.21 75.4078 323.21 84.4078 323.21C92.5578 319.206 99.7478 314.153 104.338 306.116C104.778 305.34 106.158 304.644 107.108 304.644C127.688 304.555 148.258 304.585 169.298 304.585C169.298 307.97 169.298 310.983 169.298 314.741C172.808 314.741 175.898 314.741 178.978 314.741C190.278 314.741 201.588 314.869 212.888 314.663C216.648 314.594 219.538 315.242 221.888 318.411C223.298 320.315 225.538 321.64 227.408 323.22C234.408 323.22 241.408 323.22 248.408 323.22C250.098 321.709 252.108 320.413 253.418 318.627C255.958 315.134 259.288 314.574 263.338 314.673C273.158 314.889 282.988 314.741 292.818 314.741C297.098 314.741 301.368 314.741 305.898 314.741C305.898 304.202 305.898 294.33 305.898 283.958C300.718 283.958 295.798 283.958 290.338 283.958C290.358 276.863 290.358 270.269 290.358 263.145ZM257.228 252.851C258.218 252.851 259.218 252.851 260.208 252.851C268.548 252.88 269.938 254.431 269.028 263.125C262.078 263.125 255.508 263.125 248.968 263.125C247.518 254.705 249.038 252.87 257.228 252.851ZM258.728 273.409C265.508 273.615 272.288 273.448 279.408 273.448C279.408 277.118 279.408 280.268 279.408 283.929C273.108 283.929 266.988 284.007 260.878 283.909C252.908 283.791 244.858 286.441 237.518 286.235C230.178 286.029 222.368 283.948 214.588 283.938C208.478 283.929 202.368 283.938 195.958 283.938C195.958 280.435 195.958 277.403 195.958 273.458C199.358 273.458 202.758 273.458 206.158 273.458C209.978 273.458 213.818 273.605 217.628 273.429C225.338 273.066 232.728 273.458 237.758 281.308C243.268 273.213 250.888 273.173 258.728 273.409ZM236.268 175.613C234.808 186.662 227.918 195.366 218.858 202.118C217.708 202.971 215.738 203.59 214.408 203.266C206.538 201.342 198.748 199.115 190.928 196.985C189.338 191.951 190.768 189.037 195.948 186.319C212.448 177.664 222.488 163.818 225.928 145.791C226.788 141.277 228.078 138.716 232.948 138.52C234.358 138.461 235.748 137.764 238.248 137.038C237.648 150.315 237.918 163.091 236.268 175.613ZM146.118 222.244C140.848 222.391 138.068 220.586 136.238 216.209C135.618 214.727 134.778 213.324 133.758 211.342C139.338 209.978 144.468 208.771 149.568 207.466C156.268 205.758 158.608 202.824 158.788 195.985C158.848 193.855 158.818 191.736 158.778 189.606C158.678 184.915 156.568 181.55 152.118 179.577C140.828 174.573 133.948 166.379 128.738 154.976C121.748 139.707 121.858 124.389 122.458 108.266C136.198 106.559 148.088 101.211 158.338 91.2996C173.118 111.632 195.038 108.374 216.488 108.256C216.428 129.04 220.438 150.217 203.958 167.036C199.318 171.766 193.498 175.593 187.688 178.949C180.778 182.943 178.778 186.809 180.088 197.79C180.778 203.599 183.278 205.964 190.608 207.75C194.798 208.771 198.988 209.801 204.268 211.087C202.268 214.629 200.868 217.76 198.818 220.419C197.978 221.508 195.728 221.989 194.118 221.999C178.118 222.117 162.108 221.783 146.118 222.244ZM190.308 233.814C183.918 239.378 177.558 244.981 171.088 250.447C170.448 250.986 168.678 251.153 168.108 250.682C161.298 245.167 154.618 239.495 147.908 233.863C148.208 233.411 148.508 232.97 148.808 232.518C162.298 232.518 175.778 232.518 189.268 232.518C189.608 232.96 189.958 233.382 190.308 233.814ZM96.3778 222.911C94.5478 214.256 92.7978 206.828 91.5378 199.311C91.3178 198.006 92.9678 196.249 94.0478 194.925C95.5878 193.031 97.3978 191.353 99.3478 189.312C105.258 194.228 111.838 197.623 119.778 195.651C127.048 193.845 134.458 191.893 137.148 183.718C148.788 188.654 148.788 188.654 148.118 197.398C128.798 200.626 110.278 206.298 96.3778 222.911ZM227.628 128.697C227.628 122.063 227.628 115.449 227.628 108.826C234.048 109.434 237.588 112.937 237.648 118.648C237.708 124.418 234.218 128 227.628 128.697ZM129.018 39.1239C152.508 22.4124 178.078 20.8129 203.228 34.8945C228.388 48.986 239.118 71.4872 237.578 100.259C233.948 99.3462 230.928 98.5906 227.548 97.7369C227.608 83.9693 222.488 73.1848 208.038 67.5031C206.838 70.8493 205.778 73.8325 204.658 76.953C213.778 81.2707 217.848 87.9632 216.288 97.9822C207.998 98.8261 200.018 97.5995 194.918 91.1524C190.358 85.3823 187.638 78.2189 183.798 71.1143C181.638 71.8012 178.688 72.7334 174.628 74.0287C177.748 81.624 180.728 88.9052 183.628 95.9804C176.758 96.4906 170.218 90.544 159.368 72.7236C146.798 95.7449 124.848 99.042 101.318 99.1303C99.6278 74.9021 108.148 53.971 129.018 39.1239ZM111.228 108.698C111.228 112.407 111.228 116.077 111.228 119.973C107.828 119.463 104.898 119.021 101.948 118.58C101.208 112.986 104.058 109.856 111.228 108.698ZM101.608 129.629C107.098 128.108 108.498 131.729 110.028 135.556C115.008 147.989 120.008 160.412 125.138 172.777C128.708 181.383 125.598 185.799 115.198 186.672C112.518 184.994 108.728 183.905 107.378 181.501C104.618 176.614 103.198 170.991 101.148 165.702C99.7078 161.983 98.2278 158.273 96.6478 154.613C94.7178 150.148 92.1178 145.899 90.7778 141.277C89.2778 136.155 93.8378 131.788 101.608 129.629ZM86.5878 309.982C76.9478 316.508 66.4978 316.449 56.3978 310.718C46.6278 305.183 41.6878 293.8 43.6078 281.927C49.4178 246.119 55.2878 210.311 61.1978 174.524C62.8378 164.632 68.3578 160.206 78.6778 160.108C90.4678 160 90.4678 160 90.4678 175.044C92.1778 181.137 89.1678 186.584 83.2978 190.744C79.9478 193.119 79.7878 196.004 80.5778 199.684C86.4078 226.68 92.0478 253.724 97.7978 280.739C100.388 292.858 96.9478 302.956 86.5878 309.982ZM169.558 283.664C169.558 287.275 169.558 290.435 169.558 293.83C149.038 293.83 129.148 293.83 109.308 293.83C109.238 275.254 102.888 258.022 100.188 240.182C99.8378 237.896 100.338 234.922 101.638 233.058C107.078 225.257 114.248 219.251 123.688 214.933C130.258 227.788 138.198 239.25 148.848 248.602C154.658 253.705 160.958 258.317 167.318 262.752C168.428 263.527 171.358 262.919 172.788 261.977C189.958 250.604 203.478 236.022 212.578 217.632C212.938 216.896 213.328 216.17 213.778 215.493C213.938 215.247 214.318 215.139 214.848 214.825C227.788 220.713 237.118 230.251 243.138 242.999C243.568 243.911 243.758 245.324 243.338 246.158C237.928 257.012 237.898 256.992 237.598 265.863C220.528 260.721 203.048 264.636 185.338 263.076C185.338 270.249 185.338 276.716 185.338 283.664C180.008 283.664 175.098 283.664 169.558 283.664ZM295.318 294.114C295.318 297.726 295.318 300.777 295.318 304.555C293.788 304.555 292.198 304.555 290.608 304.555C278.628 304.555 266.638 304.644 254.658 304.487C251.658 304.447 249.738 305.066 248.448 307.97C246.478 312.406 242.738 314.643 237.758 314.643C232.978 314.653 229.258 312.582 227.378 308.314C225.918 305.017 223.668 304.447 220.378 304.487C207.098 304.634 193.818 304.546 180.248 304.546C180.248 301.052 180.248 298.03 180.248 295.115C180.628 294.801 180.878 294.419 181.128 294.419C196.258 294.36 211.408 293.918 226.508 294.566C230.478 294.733 234.298 298.275 238.678 300.522C243.218 293.771 250.898 293.908 258.728 294.056C269.048 294.252 279.368 294.105 289.688 294.105C291.468 294.114 293.258 294.114 295.318 294.114Z" fill="#0E7139"/>
<path d="M258.998 190.725C283.658 190.725 308.048 190.725 332.428 190.725C332.428 187.457 332.428 184.18 332.428 180.912C308.038 180.912 283.658 180.912 258.998 180.912C258.998 184.337 258.998 187.339 258.998 190.725Z" fill="#0E7139"/>
<path d="M280.028 211.332C297.678 211.332 315.058 211.332 332.428 211.332C332.428 208.064 332.428 204.787 332.428 201.52C315.048 201.52 297.668 201.52 280.028 201.52C280.028 204.954 280.028 207.966 280.028 211.332Z" fill="#0E7139"/>
<path d="M269.248 201.744C265.538 201.744 262.318 201.744 259.078 201.744C259.078 205.149 259.078 208.162 259.078 211.185C262.668 211.185 265.888 211.185 269.248 211.185C269.248 207.897 269.248 205.002 269.248 201.744Z" fill="#0E7139"/>
<path d="M192.038 162.709C189.138 160.991 186.498 159.431 183.638 157.733C173.248 167.458 167.678 167.635 156.888 159.235C156.108 158.626 154.418 158.469 153.498 158.872C151.268 159.853 149.248 161.286 146.828 162.718C152.168 171.275 159.758 175.358 169.358 175.387C178.968 175.416 186.588 171.344 192.038 162.709Z" fill="#0E7139"/>
<path d="M166.658 148.98C168.828 147.959 170.668 147.214 172.398 146.262C176.898 143.779 178.978 139.314 177.748 134.712C176.388 129.619 174.908 124.555 173.378 119.119C170.938 119.119 167.858 119.119 163.548 119.119C164.508 125.468 165.398 131.395 166.338 137.626C165.448 138.146 163.908 139.049 162.068 140.129C162.848 141.777 163.498 143.239 164.238 144.662C164.968 146.085 165.788 147.459 166.658 148.98Z" fill="#0E7139"/>
<path d="M149.178 117.873C147.298 116.48 145.588 114.282 143.508 113.86C140.328 113.222 137.678 115.508 138.158 118.599C138.458 120.552 141.028 123.407 142.798 123.574C144.768 123.761 146.998 121.347 149.108 120.071C149.128 119.335 149.148 118.609 149.178 117.873Z" fill="#0E7139"/>
<path d="M195.578 123.849C198.928 123.937 201.138 121.69 200.738 118.677C200.458 116.627 198.228 114.831 195.838 111.475C193.338 114.733 191.098 116.42 190.688 118.471C190.078 121.563 192.278 123.761 195.578 123.849Z" fill="#0E7139"/>
<path d="M311.748 108.255C299.788 108.677 287.798 108.275 275.818 108.383C265.528 108.471 259.008 114.791 258.748 124.879C258.588 130.914 258.648 136.959 258.728 143.004C258.878 153.67 264.858 159.774 275.688 160.029C278.588 160.098 279.818 160.962 281.068 163.65C284.888 171.864 296.298 173.071 300.868 165.358C303.828 160.353 307.308 159.647 312.158 160.108C321.718 161.011 328.548 157.262 332.428 148.548C332.428 139.059 332.428 129.579 332.428 120.09C328.578 111.013 321.458 107.912 311.748 108.255ZM321.768 143.779C321.738 147.763 319.668 149.755 315.518 149.686C311.188 149.618 306.828 149.971 302.538 149.588C298.738 149.245 296.708 150.677 295.398 153.994C294.588 156.035 293.268 157.89 292.178 159.823C291.678 159.696 291.168 159.578 290.668 159.45C290.668 156.448 290.668 153.445 290.668 149.676C285.588 149.676 280.998 149.716 276.408 149.667C271.048 149.608 269.478 148.146 269.418 143.043C269.338 136.998 269.418 130.953 269.398 124.908C269.378 120.875 271.358 118.863 275.488 118.863C288.978 118.873 302.468 118.873 315.948 118.873C319.898 118.873 321.738 120.944 321.758 124.673C321.808 131.032 321.818 137.41 321.768 143.779Z" fill="#0E7139"/>
<path d="M280.248 139.197C290.828 139.197 300.898 139.197 311.078 139.197C311.078 135.742 311.078 132.592 311.078 129.452C300.548 129.452 290.358 129.452 280.248 129.452C280.248 132.995 280.248 136.115 280.248 139.197Z" fill="#0E7139"/>
<path d="M49.7777 69.4453C53.0077 63.9893 56.9577 61.6637 62.9777 61.6637C63.8977 61.6637 64.8877 61.7127 66.0177 61.8207C67.1177 61.9286 68.2077 61.9777 69.2477 61.9777C78.7777 61.9777 85.4177 57.6306 89.5177 48.7008V13.453C85.4777 4.27793 78.3477 -0.000488281 67.0777 -0.000488281C66.5177 -0.000488281 65.9477 0.0093246 65.3677 0.0289504C60.4977 0.205582 55.2177 0.284085 48.7577 0.284085C44.8677 0.284085 40.9777 0.254647 37.0877 0.225208C33.2077 0.195769 29.3277 0.166331 25.4477 0.166331C23.5577 0.166331 21.6677 0.176144 19.7777 0.185956C7.77769 0.303711 0.427684 7.39842 0.127683 19.1935C-0.0823166 27.1616 0.00768343 35.1885 0.107683 42.087C0.287684 54.6475 7.03768 61.438 19.6477 61.7324C24.0677 61.8305 26.3177 63.3319 28.2377 67.4631C30.3777 72.0555 34.9777 75.0288 39.9577 75.0288C44.0977 75.0288 47.6777 72.9975 49.7777 69.4453ZM32.6977 52.5475C30.8677 52.5573 29.0677 52.5573 27.2977 52.5573C24.9977 52.5573 22.7377 52.5475 20.4777 52.5181C12.5677 52.4199 9.73769 49.7214 9.63769 42.1851C9.57769 37.5927 9.59769 32.9315 9.60769 28.4176C9.61769 25.3364 9.62769 22.2551 9.60769 19.1837C9.59769 16.073 10.4377 13.659 12.1077 12.0203C13.7677 10.3815 16.1877 9.55726 19.3277 9.55726C30.7977 9.55726 42.2577 9.55726 53.7177 9.55726H70.6277C76.6277 9.55726 79.9577 12.8544 79.9977 18.8501C80.0577 28.398 80.0677 36.1011 80.0077 43.1173C79.9577 49.2013 76.5177 52.5573 70.3377 52.5573H70.0577C69.5577 52.5475 69.0477 52.5475 68.5477 52.5475C67.0777 52.5475 65.5977 52.5769 64.1277 52.6064C62.6277 52.6358 61.1277 52.6652 59.6277 52.6652C57.2377 52.6652 55.2777 52.5868 53.4577 52.4297C53.0577 52.3905 52.6777 52.3807 52.3177 52.3807C49.3177 52.3807 47.7277 53.568 46.4477 56.7769C45.6777 58.7198 44.5977 60.4861 43.5577 62.1936C43.1177 62.9295 42.6677 63.6557 42.2477 64.3916L41.5077 65.7066L36.5877 64.4996V52.5377C35.2577 52.5377 33.9677 52.5475 32.6977 52.5475Z" fill="#0E7139"/>
<path d="M63.4481 25.9248H26.3682V36.3076H63.4481V25.9248Z" fill="#0E7139"/>
</svg>
