<svg width="102" height="101" viewBox="0 0 102 101" fill="none" xmlns="http://www.w3.org/2000/svg">
<g filter="url(#filter0_d_1676_12227)">
<path d="M97.1035 0.669922H4V92.992H97.1035V0.669922Z" fill="#115C07"/>
<path d="M28.9462 56.3202H20.7497V47.3402H17.4609V65.1394H20.7497V59.5944H28.9462V65.1375H32.235V47.3384H28.9462V56.3202Z" fill="white"/>
<path d="M43.2562 47.1011C40.7515 47.1011 38.5841 48 36.8106 49.7717C35.0428 51.5396 34.14 53.7038 34.1268 56.2137C34.1268 58.7161 35.0258 60.884 36.7993 62.6557C38.5709 64.4274 40.7402 65.3263 43.2449 65.3263C45.4707 65.3263 47.4308 64.6161 49.0837 63.2145V65.1413H52.3611V56.2193C52.3725 53.7187 51.4772 51.549 49.7 49.7717C47.9284 48 45.7591 47.1011 43.2562 47.1011ZM47.378 60.3439C46.219 61.4914 44.8676 62.0483 43.2449 62.0483C41.6203 62.0483 40.2671 61.4895 39.1137 60.3458C37.964 59.1871 37.4043 57.834 37.4043 56.2118C37.4043 54.5896 37.964 53.2366 39.108 52.0835C40.2671 50.9341 41.6203 50.3753 43.2449 50.3753C44.8695 50.3753 46.2208 50.9341 47.3743 52.0779C48.5239 53.2366 49.0837 54.5896 49.0837 56.2118C49.0837 57.8359 48.5258 59.1871 47.378 60.3439Z" fill="white"/>
<path d="M54.6488 44.0024H57.9376V65.1393H54.6488V44.0024Z" fill="white"/>
<path d="M68.9617 47.1011C66.4569 47.1011 64.2896 48 62.5161 49.7717C60.7482 51.5396 59.8455 53.7038 59.8323 56.2137C59.8323 58.7161 60.7313 60.884 62.5048 62.6557C64.2764 64.4274 66.4456 65.3263 68.9504 65.3263C71.1762 65.3263 73.1362 64.6161 74.7891 63.2145V65.1413H78.0666V56.2193C78.0779 53.7187 77.1827 51.549 75.4054 49.7717C73.6338 48 71.4645 47.1011 68.9617 47.1011ZM73.0835 60.3439C71.9244 61.4914 70.5731 62.0483 68.9504 62.0483C67.3258 62.0483 65.9726 61.4895 64.8191 60.3458C63.6695 59.1871 63.1097 57.834 63.1097 56.2118C63.1097 54.5896 63.6695 53.2366 64.8135 52.0835C65.9726 50.9341 67.3258 50.3753 68.9504 50.3753C70.575 50.3753 71.9263 50.9341 73.0797 52.0779C74.2294 53.2366 74.7891 54.5896 74.7891 56.2118C74.7891 57.8359 74.2312 59.1871 73.0835 60.3439Z" fill="white"/>
<path d="M80.3538 44.0024H83.6425V65.1393H80.3538V44.0024Z" fill="white"/>
<path d="M49.2934 25.6525L37.9457 25.6451H37.9212L32.3444 31.9768L39.2801 31.9693C38.6958 32.5823 38.0324 33.0888 37.2691 33.4999L37.2314 33.5205C36.6491 33.8457 35.9988 34.1092 35.3015 34.3035C34.6343 34.4717 33.9276 34.5577 33.1982 34.5577C31.6452 34.5577 30.2845 34.2045 29.0368 33.4756L29.0236 33.4681C27.7326 32.7243 26.7469 31.7787 26.0138 30.5751L26.0006 30.5527C25.601 29.9117 25.2844 29.1959 25.0545 28.4203L25.0488 28.4016C24.8283 27.6728 24.7171 26.8897 24.7171 26.0786C24.7171 24.5499 25.0714 23.2006 25.7989 21.954L25.8065 21.9391C26.5547 20.6384 27.5102 19.6385 28.7221 18.8835C29.3478 18.4948 30.0489 18.1939 30.8028 17.9883L30.8744 17.9677C31.6075 17.7472 32.3878 17.6351 33.2001 17.6351C34.3742 17.6351 35.441 17.8537 36.4606 18.3023L36.4964 18.3172C37.5405 18.7601 38.4244 19.3507 39.1971 20.1225L41.1365 22.0587L46.2609 16.9361L44.3216 14.9981C42.9062 13.5852 41.2401 12.449 39.363 11.6229L39.3197 11.6042C37.3954 10.795 35.3354 10.3857 33.1982 10.3857C30.39 10.3857 27.7703 11.081 25.4163 12.4508C23.0925 13.7796 21.2097 15.5812 19.8226 17.7995C19.0668 19.005 18.4826 20.3225 18.0906 21.713C17.674 23.1109 17.463 24.5798 17.463 26.0786C17.463 28.8875 18.1565 31.504 19.5286 33.855C20.8592 36.178 22.6609 38.0618 24.8811 39.4467C26.0873 40.2035 27.4028 40.7848 28.7975 41.1772C30.1959 41.594 31.6773 41.8052 33.1982 41.8052C35.9856 41.8052 38.5903 41.11 40.9443 39.7419C41.9695 39.1551 42.9119 38.4748 43.7637 37.7067L43.8033 43.2648L49.3745 36.9405L49.3876 36.9237L49.2934 25.6525Z" fill="white"/>
<path d="M83.643 25.9472C83.643 26.336 83.6223 26.7209 83.5921 27.1003C83.5469 27.6498 83.4715 28.1974 83.3641 28.7281L77.1786 27.3638C77.1936 27.2872 77.2087 27.2087 77.22 27.1321C77.2822 26.7471 77.3143 26.3528 77.3143 25.9491C77.3143 25.5193 77.2766 25.0969 77.2068 24.6876L82.4594 20.35C82.7233 20.9517 82.9495 21.5722 83.1285 22.2151H83.1304C83.1323 22.2263 83.1379 22.2413 83.1398 22.2525C83.1417 22.2637 83.1474 22.2786 83.1492 22.2936C83.4564 23.4392 83.643 24.7119 83.643 25.9472ZM55.8722 25.9491C55.8722 33.6133 62.0879 39.8254 69.7567 39.8254C72.8004 39.8254 75.6162 38.8443 77.9042 37.1829L73.5562 32.4733C72.4386 33.1274 71.1419 33.5031 69.7548 33.5031C65.5877 33.5031 62.1991 30.1167 62.1991 25.951C62.2047 22.2824 64.832 19.2212 68.3017 18.539C68.7729 18.4456 69.261 18.397 69.7604 18.397C69.8321 18.397 69.9037 18.3989 69.9753 18.4026L70.8196 12.1176C70.4691 12.0914 70.1166 12.0728 69.7604 12.0728C69.5607 12.0728 69.3646 12.0802 69.1668 12.0877C61.7713 12.3942 55.8722 18.483 55.8722 25.9491ZM80.3166 34.9608C81.47 33.6115 82.3671 32.0397 82.94 30.3185L76.6961 28.9412C76.4944 29.4028 76.2475 29.8382 75.9629 30.2494C75.6482 30.7016 75.2882 31.1184 74.8849 31.4903L79.1782 36.1438C79.5815 35.77 79.9603 35.3757 80.3166 34.9608ZM79.3836 15.9563C77.499 14.1453 75.1111 12.8577 72.4442 12.3344L71.598 18.6269C72.6534 18.8904 73.6165 19.3782 74.4439 20.0341L79.3836 15.9563Z" fill="url(#paint0_linear_1676_12227)"/>
<path d="M69.7581 40.9445C61.4712 40.9445 54.7542 34.2297 54.7542 25.9487C54.7542 17.6659 61.4731 10.9529 69.7581 10.9529C71.5524 10.9529 73.2731 11.2688 74.8675 11.8462C72.7077 10.7735 70.3235 10.2334 67.7359 10.2334C63.3709 10.2334 59.6279 11.8126 56.6068 14.9261C53.5932 18.0303 52.0666 21.8148 52.0666 26.1749C52.0666 30.5032 53.6422 34.2315 56.75 37.2554C59.8522 40.2736 63.631 41.8023 67.9846 41.8023C71.0473 41.8023 73.8046 41.0249 76.2207 39.4831C74.2682 40.4194 72.0744 40.9445 69.7581 40.9445Z" fill="white"/>
<path d="M67.4626 21.8622V31.2102L82.1293 19.1L80.2163 16.79L70.4631 24.8449V21.864H67.4626V21.8622Z" fill="white"/>
</g>
<path d="M28.6339 77.3988C28.0158 77.2063 27.3674 77.1615 26.721 77.1634C26.5909 77.4717 26.4647 77.782 26.3497 78.0959C26.2197 78.451 26.1028 78.8098 26.001 79.1743C25.9539 79.3462 25.9012 79.52 25.871 79.6957C25.8616 79.7536 25.8691 79.8471 25.8522 79.9031C25.8522 79.9199 25.8522 79.9368 25.854 79.9536C25.9652 80.0246 26.0632 80.1311 26.0859 80.2526C26.1122 80.389 26.035 80.5161 25.8767 80.46C25.1906 80.2152 25.2019 79.5705 25.3527 78.978C25.5073 78.365 25.7146 77.7651 25.9502 77.1783C25.0794 77.2063 24.2087 77.2848 23.3493 77.4213C23.142 77.453 22.9347 77.4904 22.7292 77.5278C21.7567 78.8136 20.9199 80.1965 20.2301 81.6524C20.0944 81.9402 19.529 81.4674 19.644 81.2263C20.2169 80.0171 20.8898 78.8547 21.655 77.7577C20.5147 78.0324 19.3971 78.3968 18.3134 78.8491C18.0627 78.9537 17.5935 78.3875 17.8837 78.2679C19.2859 77.6829 20.7465 77.2437 22.2392 76.9597C22.5483 76.5541 22.8706 76.1579 23.2061 75.7729C23.9166 74.9581 24.6818 74.1919 25.4997 73.4817C26.3384 72.7528 27.2317 72.0034 28.2759 71.581C28.4474 71.5119 28.6943 71.7418 28.7508 71.8782C29.0335 72.5472 28.5397 73.2855 28.2608 73.8872C27.9404 74.5806 27.6011 75.2627 27.2751 75.9523C27.1752 76.1616 27.0772 76.3728 26.983 76.5821C27.4881 76.6083 27.9894 76.6737 28.4737 76.8251C28.6283 76.8737 28.8168 77.0288 28.8469 77.1951C28.8695 77.3334 28.7923 77.4474 28.6339 77.3988ZM27.2845 74.2741C27.4579 73.9134 27.6294 73.5508 27.7953 73.1845C27.8857 72.9846 27.9743 72.7827 28.061 72.579C28.0798 72.536 28.1025 72.4874 28.1251 72.4351C27.326 72.8706 26.6154 73.4835 25.9407 74.076C25.1548 74.7656 24.4179 75.5075 23.7319 76.2943C23.5924 76.4551 23.4567 76.6158 23.321 76.7802C24.1578 76.6644 24.9984 76.5934 25.8427 76.5728C25.9633 76.5709 26.0859 76.5672 26.2065 76.5672C26.5457 75.7916 26.9189 75.0347 27.2845 74.2741Z" fill="white"/>
<path d="M33.5262 77.417C33.0795 77.8748 32.6196 78.3588 32.0825 78.7139C31.83 78.8802 31.5605 79.0204 31.2702 78.8503C30.963 78.6672 30.8782 78.3476 30.9253 78.0169C30.9272 78.0019 30.931 77.9888 30.9329 77.9739C30.571 78.3009 30.1978 78.6111 29.7813 78.8596C29.4044 79.0839 28.9954 79.1792 28.6901 78.7812C28.2867 78.2523 28.805 77.3292 29.1688 76.9068C29.3516 76.6957 29.8869 77.2096 29.6965 77.4301C29.5344 77.6188 29.4176 77.8468 29.3177 78.0729C29.2762 78.1664 29.2385 78.2635 29.2084 78.3607C29.3968 78.2635 29.5702 78.1327 29.7361 78.0056C30.2902 77.5814 30.7858 77.0862 31.306 76.6209C31.519 76.4303 31.9317 76.8769 31.8639 77.0956C31.7602 77.4226 31.6641 77.7534 31.585 78.0879C31.5774 78.1196 31.5718 78.1533 31.5661 78.185C32.0411 78.0785 32.8062 77.4245 33.1719 77.0489C33.3716 76.847 33.7278 77.2133 33.5262 77.417Z" fill="white"/>
<path d="M39.1722 74.567C39.1571 74.7296 39.0026 74.739 38.8763 74.6736C38.2826 74.3633 37.6211 74.2998 36.9615 74.2568C36.3131 74.2157 35.6629 74.2008 35.0127 74.212C35.0014 74.212 34.9901 74.212 34.9788 74.212C33.9818 76.3929 33.145 78.6711 33.1845 81.0912C33.1902 81.4482 32.5833 81.0445 32.5796 80.7866C32.5419 78.4879 33.2712 76.3219 34.1872 74.24C33.0978 74.2979 32.0142 74.4306 30.9418 74.6362C30.6704 74.6885 30.2293 74.1073 30.5121 74.0531C31.8163 73.8027 33.1393 73.6532 34.468 73.6158C34.7074 73.0944 34.9561 72.5786 35.2049 72.0684C35.3444 71.7806 35.9079 72.2553 35.7911 72.4945C35.6139 72.8608 35.4349 73.2308 35.2596 73.6027C36.4639 73.5878 37.8001 73.599 38.8631 74.154C38.995 74.225 39.1892 74.4026 39.1722 74.567Z" fill="white"/>
<path d="M40.3424 77.4461C39.6545 77.8329 38.9458 78.3338 38.1882 78.5824C37.7622 78.7225 37.2703 78.5244 37.2232 78.0292C37.2025 77.8049 37.2892 77.5676 37.3646 77.3601C37.4192 77.2106 37.4814 77.0611 37.5248 76.9078C36.6107 77.4143 35.7796 78.074 35.0785 78.844C34.9936 78.9356 34.8165 78.8515 34.743 78.7935C34.2473 78.4085 34.3208 77.9264 34.5093 77.3956C34.7392 76.7434 34.9955 76.1024 35.2801 75.4726C35.8568 74.1942 36.5466 72.9701 37.3288 71.8058C37.4758 71.5872 38.0223 72.0824 37.8565 72.3291C37.1968 73.3103 36.6088 74.3363 36.0981 75.4015C35.8436 75.9342 35.6081 76.4743 35.3932 77.0237C35.299 77.2648 35.2085 77.5078 35.1218 77.7507C35.6891 77.2293 36.3167 76.777 36.9876 76.3883C37.3231 76.1939 37.619 76.05 37.9394 76.3491C38.192 76.5845 38.2052 76.9041 38.1373 77.2199C38.0845 77.4722 37.9658 77.7077 37.8885 77.9544C38.6273 77.732 39.4189 77.39 40.071 77.0218C40.3028 76.891 40.6251 77.2872 40.3424 77.4461Z" fill="white"/>
<path d="M43.3942 77.425C42.4952 78.006 41.5529 78.6747 40.5314 79.0352C40.1563 79.1678 39.7699 79.1921 39.5042 78.8409C39.0933 78.2955 39.6248 77.496 39.998 77.0907C40.3353 76.7227 40.9347 76.3117 41.3814 76.7768C42.024 77.4437 40.5106 78.0246 40.1016 78.217C40.0998 78.217 40.0998 78.217 40.0979 78.2189C40.0621 78.3011 40.0319 78.3852 40.0093 78.473C40.6859 78.3852 42.3293 77.5838 43.0022 77.0682C43.2396 76.8871 43.6147 77.2831 43.3942 77.425Z" fill="white"/>
<path d="M47.8353 77.4397C47.2454 77.7144 46.6932 78.0545 46.1391 78.3946C45.796 78.6058 45.4135 78.9066 45.0139 78.9982C44.62 79.0898 44.2506 78.716 44.3109 78.3292C44.3467 78.105 44.4353 77.8807 44.5484 77.6621C43.9001 78.0171 43.3252 78.4881 42.8428 79.0636C42.6524 79.2897 42.234 78.7908 42.2849 78.589C42.4319 78.0134 42.7089 77.4602 43.003 76.9426C43.1632 76.6604 43.7191 77.1426 43.5891 77.3687C43.5816 77.3818 43.574 77.3967 43.5665 77.4098C44.0772 77.0622 44.6389 76.7912 45.2344 76.6062C45.4851 76.5278 45.8564 76.9277 45.7131 77.1594C45.5152 77.4808 45.3437 77.8041 45.1798 78.133C45.9694 77.7406 46.8307 77.3892 47.611 77.0248C47.856 76.9108 48.1236 77.3051 47.8353 77.4397Z" fill="white"/>
<path d="M53.614 74.567C53.5989 74.7296 53.4444 74.739 53.3181 74.6736C52.7244 74.3633 52.0629 74.2998 51.4033 74.2568C50.7549 74.2157 50.1047 74.2008 49.4545 74.212C49.4432 74.212 49.4319 74.212 49.4206 74.212C48.4236 76.3929 47.5868 78.6711 47.6264 81.0912C47.632 81.4482 47.0251 81.0445 47.0214 80.7866C46.9837 78.4879 47.7131 76.3219 48.629 74.24C47.5397 74.2979 46.456 74.4306 45.3836 74.6362C45.1122 74.6885 44.6712 74.1073 44.9539 74.0531C46.2581 73.8027 47.5811 73.6532 48.9098 73.6158C49.1492 73.0944 49.398 72.5786 49.6467 72.0684C49.7862 71.7806 50.3497 72.2553 50.2329 72.4945C50.0557 72.8608 49.8767 73.2308 49.7014 73.6027C50.9057 73.5878 52.2419 73.599 53.3049 74.154C53.4368 74.225 53.6309 74.4026 53.614 74.567Z" fill="white"/>
<path d="M51.6653 77.4221C51.2959 77.7323 50.9115 78.0257 50.5119 78.2929C50.1896 78.5096 49.8221 78.7731 49.4339 78.8515C48.991 78.9394 48.5669 78.5302 48.5575 78.0948C48.5462 77.5959 48.925 77.0242 49.17 76.6056C49.334 76.3253 49.8881 76.8074 49.7562 77.0316C49.562 77.3624 49.3924 77.6893 49.2567 78.0481C49.2379 78.0967 49.2209 78.1453 49.2039 78.1938C49.6657 78.1116 50.7569 77.5324 51.2865 77.0877C51.5089 76.899 51.8783 77.2428 51.6653 77.4221ZM49.726 75.4827C49.8749 74.9987 50.0709 74.5372 50.3159 74.0944C50.4723 73.8122 51.0302 74.2906 50.9039 74.5204C50.6589 74.9632 50.4629 75.4247 50.314 75.9087C50.2254 76.1983 49.6468 75.7424 49.726 75.4827Z" fill="white"/>
<path d="M55.0577 77.4461C54.3792 77.7414 53.7026 78.0366 53.0241 78.3319C52.4983 78.5617 51.833 78.9429 51.2752 78.5954C50.2499 77.9581 51.311 75.9829 52.4116 76.6276C52.5398 76.7024 52.7358 76.8668 52.7188 77.0387C52.7038 77.1957 52.5473 77.2181 52.4229 77.1453C51.9913 76.893 51.6559 77.5078 51.5409 77.8217C51.4372 78.1076 51.539 78.1338 51.5805 78.1301C52.1138 78.0833 54.0174 77.4087 54.8335 77.0537C55.0822 76.9453 55.348 77.3209 55.0577 77.4461Z" fill="white"/>
<path d="M61.5017 78.9129C61.4131 78.997 61.3227 79.0811 61.2266 79.1633C61.2454 79.8473 61.6204 80.4958 62.3046 80.7313C62.4591 80.7855 62.6457 80.9294 62.6778 81.1013C62.7041 81.2396 62.6287 81.3629 62.4685 81.3088C61.6544 81.0266 60.9834 80.3482 60.729 79.5389C60.3766 79.7688 59.9883 79.9389 59.5718 79.9819C58.8349 80.0603 58.1847 79.595 57.9171 78.9297C57.6362 78.2363 57.7531 77.4365 57.8926 76.7244C58.1885 75.2312 58.9178 73.8408 59.9582 72.7269C60.173 72.4279 60.4237 72.1662 60.712 71.985C61.4508 71.5177 62.3705 72.0149 62.8116 72.6578C63.6559 73.8912 63.3732 75.7713 62.7965 77.0533C62.4855 77.7448 62.0464 78.3858 61.5017 78.9129ZM62.2499 76.5375C62.493 75.9713 62.6533 75.3639 62.6966 74.749C62.7418 74.1398 62.7362 73.4072 62.4214 72.8615C62.2537 72.5718 61.9522 72.3774 61.6073 72.3999C61.2774 72.4204 61.0305 72.6447 60.8213 72.8783C60.8157 72.9044 60.8025 72.9287 60.7799 72.9493C60.7422 72.9867 60.7064 73.0241 60.6687 73.0614C60.2635 73.5679 59.9657 74.1454 59.764 74.7602C59.715 74.9116 59.536 74.8593 59.3852 74.7397C59.0196 75.377 58.7407 76.0628 58.5616 76.7805C58.4108 77.386 58.2808 78.0644 58.3807 78.6886C58.4316 79.0044 58.5447 79.3016 58.8896 79.3782C59.1949 79.4455 59.5303 79.3408 59.8074 79.2212C60.0957 79.096 60.3671 78.9259 60.6197 78.726C60.6216 78.6755 60.6253 78.6232 60.631 78.5727C60.6498 78.4064 60.7818 78.4008 60.9175 78.4681C61.4979 77.9224 61.9559 77.2215 62.2499 76.5375Z" fill="white"/>
<path d="M68.0247 77.417C67.578 77.8748 67.1182 78.3588 66.581 78.7139C66.3285 78.8802 66.059 79.0204 65.7687 78.8503C65.4615 78.6672 65.3767 78.3476 65.4238 78.0169C65.4257 78.0019 65.4295 77.9888 65.4314 77.9739C65.0695 78.3009 64.6964 78.6111 64.2798 78.8596C63.9029 79.0839 63.4939 79.1792 63.1886 78.7812C62.7853 78.2523 63.3036 77.3292 63.6673 76.9068C63.8501 76.6957 64.3854 77.2096 64.195 77.4301C64.0329 77.6188 63.9161 77.8468 63.8162 78.0729C63.7747 78.1664 63.737 78.2635 63.7069 78.3607C63.8954 78.2635 64.0688 78.1327 64.2346 78.0056C64.7887 77.5814 65.2844 77.0862 65.8045 76.6209C66.0175 76.4303 66.4303 76.8769 66.3624 77.0956C66.2588 77.4226 66.1626 77.7534 66.0835 78.0879C66.0759 78.1196 66.0703 78.1533 66.0646 78.185C66.5396 78.0785 67.3048 77.4245 67.6704 77.0489C67.8702 76.847 68.2264 77.2133 68.0247 77.417Z" fill="white"/>
<path d="M72.3771 77.4153C71.8588 77.8806 71.3236 78.344 70.7205 78.6991C70.4416 78.8635 70.108 79.0429 69.7725 79.0037C69.4333 78.9644 69.1487 78.6897 69.0507 78.372C68.9866 78.1609 69.0167 77.9665 69.077 77.7759C68.4702 78.1739 67.967 78.7589 67.2772 79.0279C67.0359 79.1214 66.7193 78.742 66.7683 78.5234C66.9191 77.8525 67.2885 77.1574 67.8539 76.7388C68.3024 76.408 68.8848 76.4884 69.2033 76.907C69.2655 76.8845 69.3296 76.864 69.3937 76.849C69.471 76.8303 69.5614 76.8621 69.6481 76.9219C69.7819 77.0097 69.9044 77.1518 69.912 77.2695C69.9214 77.3087 69.9195 77.3442 69.9044 77.3723C69.8818 77.5498 69.8215 77.7161 69.7612 77.888C69.6971 78.0637 69.6688 78.2281 69.6349 78.4001C69.6443 78.3982 69.6519 78.3963 69.6613 78.3963C70.3436 78.316 71.5479 77.4227 71.9757 77.0378C72.1905 76.8453 72.5863 77.2284 72.3771 77.4153ZM68.768 77.1181C68.7642 77.1181 68.7623 77.1163 68.7585 77.1163C68.7152 77.1237 68.6718 77.1312 68.6285 77.1387C68.5022 77.1686 68.3929 77.2545 68.2949 77.3368C68.1422 77.4638 68.0066 77.6189 67.8859 77.7759C67.8803 77.7815 67.8765 77.7871 67.8727 77.7946C68.163 77.5573 68.4495 77.3087 68.768 77.1181Z" fill="white"/>
<path d="M74.9899 77.4164C74.4716 77.9715 73.7291 78.4518 72.9978 78.6742C72.651 78.7788 72.3137 78.8405 72.0555 78.5378C71.7878 78.2219 71.7539 77.8388 71.835 77.4463C71.9443 76.9193 72.161 76.3998 72.3363 75.8896C72.521 75.3532 72.7113 74.8206 72.9073 74.2898C73.3144 73.1872 73.7498 72.0939 74.2078 71.0099C74.3303 70.7203 74.8995 71.1893 74.7939 71.436C74.2926 72.6209 73.8214 73.8151 73.3804 75.0224C73.1637 75.6167 72.9545 76.211 72.7528 76.8109C72.6548 77.1043 72.3438 77.7267 72.3834 78.1397C73.2202 78.0201 74.3303 77.4351 74.645 77.0987C74.8391 76.8932 75.1859 77.2071 74.9899 77.4164Z" fill="white"/>
<path d="M77.1324 77.4221C76.763 77.7323 76.3785 78.0257 75.979 78.2929C75.6567 78.5096 75.2892 78.7731 74.9009 78.8515C74.458 78.9394 74.034 78.5302 74.0245 78.0948C74.0132 77.5959 74.3921 77.0242 74.6371 76.6056C74.801 76.3253 75.3551 76.8074 75.2232 77.0316C75.0291 77.3624 74.8595 77.6893 74.7238 78.0481C74.7049 78.0967 74.688 78.1453 74.671 78.1938C75.1327 78.1116 76.224 77.5324 76.7536 77.0877C76.976 76.899 77.3435 77.2428 77.1324 77.4221ZM75.1931 75.4827C75.3419 74.9987 75.538 74.5372 75.783 74.0944C75.9394 73.8122 76.4973 74.2906 76.371 74.5204C76.126 74.9632 75.93 75.4247 75.7811 75.9087C75.6906 76.1983 75.112 75.7424 75.1931 75.4827Z" fill="white"/>
<path d="M82.7882 74.567C82.7731 74.7296 82.6185 74.739 82.4923 74.6736C81.8986 74.3633 81.2371 74.2998 80.5774 74.2568C79.9291 74.2157 79.2789 74.2008 78.6287 74.212C78.6173 74.212 78.606 74.212 78.5947 74.212C77.5977 76.3929 76.7609 78.6711 76.8005 81.0912C76.8062 81.4482 76.2012 81.0445 76.1955 80.7866C76.1578 78.4879 76.8872 76.3219 77.8032 74.24C76.7138 74.2979 75.6301 74.4306 74.5577 74.6362C74.2863 74.6885 73.8453 74.1073 74.128 74.0531C75.4322 73.8027 76.7553 73.6532 78.084 73.6158C78.3233 73.0944 78.5721 72.5786 78.8209 72.0684C78.9604 71.7806 79.5239 72.2553 79.407 72.4945C79.2299 72.8608 79.0508 73.2308 78.8755 73.6027C80.0799 73.5878 81.4161 73.599 82.4791 74.154C82.611 74.225 82.8051 74.4026 82.7882 74.567Z" fill="white"/>
<path d="M83.5439 77.4677C82.4979 78.0844 81.5574 78.903 80.6886 79.7495C80.093 80.9699 79.3731 82.1305 78.5419 83.2144C78.3836 83.42 78.0255 83.007 77.9878 82.8724C77.7881 82.1567 78.1612 81.5063 78.5853 80.9494C78.9585 80.4597 79.3825 80.0056 79.8179 79.5683C79.9234 79.4617 80.0308 79.3552 80.1402 79.2506C80.4002 78.7142 80.6358 78.1666 80.845 77.6078C80.5981 77.8022 80.3437 77.9891 80.0817 78.161C79.5126 78.5385 78.8963 78.9553 78.2046 78.6488C78.0727 78.5908 77.8823 78.3984 77.8974 78.2395C77.9502 77.6415 78.1631 77.107 78.5419 76.6379C78.7153 76.423 79.2544 76.9332 79.0697 77.1612C78.8284 77.4583 78.6569 77.7947 78.5683 78.1573C78.7794 78.1105 78.9886 77.9891 79.1526 77.8938C79.4278 77.733 79.6916 77.5536 79.9479 77.3686C80.4455 77.0079 80.9091 76.6061 81.3445 76.1725C81.5499 75.967 81.9645 76.436 81.9023 76.6472C81.7572 77.1387 81.5914 77.6246 81.4086 78.1031C81.9495 77.6545 82.6468 77.3424 83.2292 77.0247C83.4553 76.8976 83.8247 77.3032 83.5439 77.4677Z" fill="white"/>
<defs>
<filter id="filter0_d_1676_12227" x="0" y="0.669922" width="101.103" height="100.322" filterUnits="userSpaceOnUse" color-interpolation-filters="sRGB">
<feFlood flood-opacity="0" result="BackgroundImageFix"/>
<feColorMatrix in="SourceAlpha" type="matrix" values="0 0 0 0 0 0 0 0 0 0 0 0 0 0 0 0 0 0 127 0" result="hardAlpha"/>
<feOffset dy="4"/>
<feGaussianBlur stdDeviation="2"/>
<feComposite in2="hardAlpha" operator="out"/>
<feColorMatrix type="matrix" values="0 0 0 0 0 0 0 0 0 0 0 0 0 0 0 0 0 0 0.25 0"/>
<feBlend mode="normal" in2="BackgroundImageFix" result="effect1_dropShadow_1676_12227"/>
<feBlend mode="normal" in="SourceGraphic" in2="effect1_dropShadow_1676_12227" result="shape"/>
</filter>
<linearGradient id="paint0_linear_1676_12227" x1="79.892" y1="16.8243" x2="52.1354" y2="41.8602" gradientUnits="userSpaceOnUse">
<stop stop-color="#A4D233"/>
<stop offset="0.1107" stop-color="#A4D233"/>
<stop offset="1" stop-color="#025F1D"/>
</linearGradient>
</defs>
</svg>
