<svg width="30" height="30" viewBox="0 0 30 30" fill="none" xmlns="http://www.w3.org/2000/svg">
<path d="M5.76045 4.07294V1.13806C5.76045 0.583128 6.16324 0.133301 6.65993 0.133301H15.8831C16.38 0.133301 16.7828 0.583128 16.7828 1.13806V4.07294L19.5457 7.72448V27.4748C19.5457 28.4373 18.8468 29.2178 17.9847 29.2178H4.55826C3.6962 29.2178 2.99756 28.4373 2.99756 27.4748V7.72448L5.76045 4.07294Z" fill="#E9E9EA"/>
<path d="M16.7826 4.07294V1.13806C16.7826 0.583128 16.3798 0.133301 15.8829 0.133301H14.269C14.766 0.133301 15.1687 0.583128 15.1687 1.13806V4.07294L17.9316 7.72448V27.4748C17.9316 28.4373 17.2328 29.2178 16.3709 29.2178H17.9846C18.8466 29.2178 19.5455 28.4373 19.5455 27.4748V7.72448L16.7826 4.07294Z" fill="#C5C4CC"/>
<path d="M17.9847 29.2179H4.55826C3.6962 29.2179 2.99756 28.4374 2.99756 27.4747V7.72461H19.5457V27.4747C19.5454 28.4374 18.8468 29.2179 17.9847 29.2179V29.2179Z" fill="#8CBAFA"/>
<path d="M19.5457 7.72461H17.9318V27.4747C17.9318 28.4374 17.2332 29.2179 16.3711 29.2179H17.9849C18.847 29.2179 19.5457 28.4374 19.5457 27.4747V7.72461Z" fill="#5692D8"/>
<path d="M15.8834 0.133301H6.66023C6.16354 0.133301 5.76074 0.582773 5.76074 1.13726V4.06982H16.7829V1.13726C16.7829 0.582773 16.3803 0.133301 15.8834 0.133301Z" fill="#8CBAFA"/>
<path d="M16.7829 4.06982V1.13726C16.7829 0.582773 16.3801 0.133301 15.8832 0.133301H14.2695C14.7662 0.133301 15.169 0.582773 15.169 1.13726V4.06982H16.7829Z" fill="#5692D8"/>
<path d="M20.7867 23.8661C20.7867 21.9766 19.6594 20.4448 18.2687 20.4448C16.8783 20.4448 15.751 21.9766 15.751 23.8661C15.751 25.756 16.8783 27.2877 18.2687 27.2877C19.6594 27.2877 20.7867 25.756 20.7867 23.8661V23.8661Z" fill="#FFD2C0"/>
<path d="M27.0382 23.8661C27.0382 21.9766 25.9109 20.4448 24.5202 20.4448C23.1298 20.4448 22.0024 21.9766 22.0024 23.8661C22.0024 25.756 23.1298 27.2877 24.5202 27.2877C25.9109 27.2877 27.0382 25.756 27.0382 23.8661V23.8661Z" fill="#FFD2C0"/>
<path d="M24.52 20.4448C24.3839 20.4448 24.2503 20.4602 24.1201 20.4883C24.9913 20.7487 25.6571 22.1618 25.6571 23.8664C25.6571 25.571 24.9913 26.984 24.1201 27.2444C24.2503 27.2728 24.3839 27.2879 24.52 27.2879C25.9107 27.2879 27.038 25.7559 27.038 23.8664C27.038 21.9768 25.9107 20.4448 24.52 20.4448V20.4448Z" fill="#EDAA9D"/>
<path d="M18.2686 20.4448C18.1324 20.4448 17.9989 20.4602 17.8687 20.4883C18.7398 20.7487 19.4057 22.1618 19.4057 23.8664C19.4057 25.571 18.7398 26.984 17.8687 27.2444C17.9989 27.2728 18.1324 27.2879 18.2686 27.2879C19.6592 27.2879 20.7866 25.7559 20.7866 23.8664C20.7866 21.9768 19.6592 20.4448 18.2686 20.4448V20.4448Z" fill="#EDAA9D"/>
<path d="M21.7347 24.2158H14.8027L15.9629 28.8675C16.0138 29.0718 16.1807 29.2134 16.3707 29.2134H20.1667C20.3569 29.2134 20.5236 29.0718 20.5745 28.8675L21.0799 26.8417C21.0985 26.7666 21.1598 26.7145 21.2298 26.7145H21.5593C21.6293 26.7145 21.6904 26.7666 21.7092 26.8417L22.2145 28.8675C22.2655 29.0718 22.4322 29.2134 22.6224 29.2134H26.4183C26.6083 29.2134 26.7753 29.0718 26.8262 28.8675L27.9863 24.2158H21.7347Z" fill="#F9AA4B"/>
<path d="M26.548 24.2158L25.3879 28.8675C25.3369 29.0718 25.1702 29.2134 24.98 29.2134H26.4182C26.6084 29.2134 26.7752 29.0718 26.8263 28.8675L27.9862 24.2158H26.548Z" fill="#C1762B"/>
<path d="M10.8726 25.9071C10.8726 25.1407 11.3972 24.5111 12.0675 24.4421C12.1366 24.4352 12.1897 24.3714 12.1897 24.294V22.7372C12.1897 22.6631 12.1423 22.5973 12.0765 22.5874C11.6689 22.5256 11.3546 22.1353 11.3546 21.6632C11.3546 21.1912 11.6689 20.8009 12.0765 20.7391C12.1423 20.7292 12.1897 20.6634 12.1897 20.5892V19.8484C12.1897 19.5118 11.9454 19.2388 11.6441 19.2388H2.0161C1.12437 19.2388 0.401367 20.0462 0.401367 21.042V27.4141C0.401367 28.4099 1.12437 29.2173 2.0161 29.2173H11.6441C11.9454 29.2173 12.1897 28.9446 12.1897 28.6078V27.5202C12.1897 27.4428 12.1366 27.379 12.0675 27.3718C11.3972 27.303 10.8726 26.6734 10.8726 25.9071V25.9071Z" fill="#FFEB96"/>
<path d="M2.27497 27.4141V21.042C2.27497 20.0462 2.99797 19.2388 3.88971 19.2388H2.01611C1.12437 19.2388 0.401367 20.0462 0.401367 21.042V27.4141C0.401367 28.4099 1.12437 29.2173 2.01611 29.2173H3.88971C2.99797 29.2173 2.27497 28.4099 2.27497 27.4141V27.4141Z" fill="#F9AA4B"/>
<path d="M5.65289 21.7184C5.65289 22.1755 5.32096 22.546 4.9113 22.546C4.50186 22.546 4.16992 22.1755 4.16992 21.7184C4.16992 21.2612 4.50186 20.8906 4.9113 20.8906C5.32096 20.8906 5.65289 21.2612 5.65289 21.7184V21.7184Z" fill="#FFCD34"/>
<path d="M9.05249 25.7937C9.05249 26.5442 8.50732 27.1524 7.83459 27.1524C7.16187 27.1524 6.6167 26.5442 6.6167 25.7937C6.6167 25.0433 7.16187 24.4351 7.83459 24.4351C8.50732 24.4351 9.05249 25.0433 9.05249 25.7937Z" fill="#FFCD34"/>
<path d="M7.11553 14.9044C9.88905 14.8359 12.6624 18.1205 15.4359 18.0332C15.6219 18.0272 15.7696 17.8551 15.7696 17.6474V14.2701C15.7696 14.0523 15.6077 13.8804 15.4126 13.8853C12.6391 13.9538 9.8658 10.6693 7.09228 10.7566C6.90627 10.7625 6.75879 10.9346 6.75879 11.1424V14.5194C6.75879 14.7375 6.92044 14.9094 7.11553 14.9044V14.9044Z" fill="#E9E9EA"/>
<path d="M28.9942 24.6964H13.7942C13.5559 24.6964 13.3628 24.481 13.3628 24.2153C13.3628 23.9493 13.5559 23.7339 13.7942 23.7339H28.9944C29.2327 23.7339 29.4258 23.9493 29.4258 24.2153C29.4258 24.481 29.2327 24.6964 28.9942 24.6964Z" fill="#C1762B"/>
</svg>
