<svg width="42" height="41" viewBox="0 0 42 41" fill="none" xmlns="http://www.w3.org/2000/svg">
<path d="M34.3177 41C34.3055 40.9741 34.2965 40.9274 34.281 40.9251C34.012 40.8865 33.8231 40.707 33.6177 40.5553C33.5178 40.4813 33.3972 40.4257 33.3194 40.3334C33.1866 40.1755 33.0806 39.9951 32.9614 39.8255C32.8794 39.7087 32.7984 39.5904 32.7084 39.4802C32.5873 39.3322 32.4493 39.1975 32.3348 39.0449C32.2147 38.8842 32.119 38.7052 32.0036 38.5408C31.916 38.4159 31.8147 38.3 31.7176 38.1822C31.5843 38.0211 31.4416 37.8675 31.3172 37.6998C31.2135 37.5608 31.1339 37.4039 31.0373 37.2593C30.9577 37.1406 30.8724 37.0252 30.7839 36.913C30.6576 36.7533 30.5196 36.6026 30.3976 36.4396C30.2812 36.2836 30.186 36.1121 30.0678 35.9571C29.9528 35.8064 29.8129 35.674 29.6984 35.5228C29.5764 35.3621 29.4728 35.1878 29.3578 35.0215C29.2768 34.9047 29.1929 34.7888 29.1048 34.6771C28.9781 34.5169 28.841 34.3648 28.7185 34.2013C28.605 34.0496 28.5079 33.8852 28.3972 33.7311C28.3147 33.6161 28.1993 33.5384 28.1357 33.3924C28.0636 33.2256 27.8926 33.1036 27.7758 32.9538C27.6349 32.7728 27.5105 32.5787 27.3706 32.3969C27.1643 32.1279 26.9504 31.865 26.7417 31.5979C26.6814 31.5211 26.6192 31.4433 26.5773 31.3562C26.5603 31.3209 26.5791 31.2459 26.6088 31.2139C26.7454 31.0655 26.891 30.9261 27.0677 30.7494C26.7304 30.4248 26.3916 30.1049 26.059 29.7779C25.5785 29.3049 25.1017 28.8286 24.6263 28.3509C24.493 28.2166 24.4219 28.1752 24.2278 28.341C24.0897 28.4593 23.923 28.5445 23.7666 28.6407C23.6507 28.7118 23.5315 28.7768 23.4132 28.8446C23.2059 28.9638 22.9977 29.0816 22.7909 29.2018C22.6783 29.2672 22.5704 29.3407 22.4545 29.4001C22.3598 29.4486 22.2557 29.4783 22.1582 29.5221C21.9645 29.6088 21.7747 29.7044 21.5796 29.7869C21.3902 29.867 21.1942 29.9306 21.0044 30.0097C20.84 30.078 20.6817 30.1624 20.5172 30.2307C20.4216 30.2707 20.3203 30.2995 20.2195 30.3235C19.9684 30.3824 19.7154 30.4333 19.4643 30.4912C19.2556 30.5397 19.0459 30.5854 18.8415 30.6476C18.5517 30.7357 18.2502 30.7626 17.9595 30.8271C17.7532 30.8728 17.544 30.8309 17.3574 30.894C17.006 31.0137 16.6376 30.8832 16.3036 30.9755C15.8612 31.0975 15.4183 31.0679 14.9882 31.0288C14.5962 30.993 14.1991 31.0104 13.8156 30.9468C13.6003 30.911 13.3873 30.9162 13.1767 30.8822C12.9949 30.853 12.8196 30.7838 12.6406 30.7343C12.6076 30.7254 12.5713 30.7235 12.537 30.7244C12.292 30.7305 12.0649 30.6613 11.8364 30.5788C11.6918 30.5265 11.5316 30.5195 11.3794 30.4865C11.2621 30.4611 11.1439 30.4333 11.0308 30.3942C10.9196 30.3555 10.8169 30.29 10.7048 30.2547C10.4212 30.1661 10.1258 30.1082 9.85016 29.9998C9.52745 29.8736 9.22028 29.7077 8.90745 29.5575C8.60782 29.4133 8.30489 29.2753 8.01138 29.1193C7.78242 28.9973 7.56618 28.8517 7.34334 28.7179C7.1662 28.6114 6.98811 28.5073 6.81097 28.4009C6.76904 28.3754 6.72947 28.3462 6.68942 28.3175C6.42418 28.1285 6.15847 27.9406 5.89559 27.7484C5.84141 27.7088 5.80089 27.6499 5.75095 27.6037C5.38725 27.2683 5.02449 26.9324 4.65843 26.5998C4.30744 26.2808 3.99415 25.9242 3.6573 25.5906C3.50654 25.4413 3.40808 25.2392 3.2837 25.062C3.25779 25.0253 3.22811 24.9895 3.19278 24.9622C3.01092 24.8199 2.91482 24.6173 2.79892 24.4256C2.6835 24.2352 2.53886 24.0623 2.41778 23.8748C2.30236 23.6967 2.22086 23.4932 2.08847 23.3302C1.9363 23.1427 1.85338 22.926 1.74785 22.7173C1.65269 22.5293 1.54621 22.3465 1.44822 22.1599C1.37284 22.0162 1.29322 21.874 1.23292 21.7237C1.16178 21.5465 1.11325 21.3604 1.0473 21.181C0.988879 21.0212 0.920096 20.8653 0.856024 20.7075C0.815508 20.6085 0.765569 20.512 0.736831 20.4097C0.67323 20.1836 0.619993 19.9542 0.56393 19.7257C0.511164 19.5118 0.482897 19.2885 0.402807 19.0859C0.300103 18.8263 0.250164 18.5662 0.243098 18.2892C0.239329 18.1342 0.232262 17.9613 0.163007 17.8304C0.0471119 17.6108 0.102233 17.3875 0.0767924 17.1665C0.0739657 17.1439 0.0268538 17.1265 0 17.1067C0 16.034 0 14.9612 0 13.8885C0.0268538 13.8673 0.0716101 13.8499 0.0763213 13.8244C0.0880993 13.7622 0.0758502 13.6963 0.0824459 13.6327C0.111184 13.3641 0.140865 13.0951 0.175256 12.8271C0.19363 12.6838 0.213888 12.5402 0.249693 12.4007C0.289267 12.2452 0.350513 12.0954 0.396682 11.9414C0.430132 11.8302 0.45887 11.7171 0.481955 11.6031C0.513049 11.45 0.533307 11.2945 0.564872 11.1414C0.587015 11.034 0.618109 10.928 0.651087 10.8234C0.72835 10.5779 0.794778 10.3273 0.892771 10.0903C1.0049 9.81897 1.15142 9.56268 1.27344 9.29508C1.34128 9.14621 1.3785 8.98367 1.44869 8.83621C1.56553 8.59123 1.69791 8.35332 1.8237 8.11257C1.94148 7.88644 2.05502 7.65794 2.17751 7.43416C2.22981 7.33899 2.29765 7.25231 2.36172 7.16468C2.58126 6.86364 2.81776 6.57343 3.01846 6.2606C3.20361 5.97181 3.44341 5.73059 3.64788 5.46206C4.11758 4.84442 4.72674 4.36576 5.24356 3.79618C5.43106 3.58936 5.69725 3.45509 5.92244 3.28172C6.0699 3.16818 6.20323 3.03532 6.35304 2.92555C6.48873 2.82661 6.63996 2.74982 6.78129 2.6589C6.87787 2.59718 6.97257 2.53122 7.06349 2.4615C7.29717 2.28153 7.55958 2.15291 7.81351 2.00781C8.01091 1.89521 8.20784 1.78214 8.41278 1.68132C8.68933 1.54517 8.93949 1.35908 9.25137 1.29265C9.37575 1.26627 9.48693 1.18099 9.60612 1.12634C9.71778 1.07499 9.83085 1.02647 9.94486 0.98124C10.1375 0.904918 10.3293 0.82577 10.5257 0.760285C10.6567 0.716471 10.7971 0.700924 10.9295 0.659936C11.0647 0.618478 11.1924 0.553934 11.3281 0.513418C11.4609 0.473373 11.599 0.452644 11.7342 0.420136C11.8256 0.398465 11.9141 0.364544 12.0065 0.348526C12.2091 0.312721 12.4135 0.289636 12.6156 0.251476C12.8385 0.209546 13.0594 0.157252 13.2813 0.109669C13.2926 0.107313 13.3039 0.104958 13.3157 0.104015C13.6601 0.0733927 14.004 0.0220407 14.3489 0.0163873C15.1884 0.00366703 16.0298 -0.0184756 16.8665 0.0291075C17.1549 0.0455966 17.4559 0.0578458 17.7409 0.11438C18.0194 0.169501 18.2917 0.239698 18.5781 0.259485C18.7251 0.269849 18.8664 0.34994 19.012 0.394225C19.1284 0.429559 19.2462 0.461595 19.3649 0.487035C19.5222 0.520956 19.6815 0.544041 19.8388 0.578904C19.9561 0.604815 20.0735 0.634967 20.187 0.675012C20.2986 0.714115 20.4042 0.770649 20.5144 0.814463C20.7118 0.89314 20.9092 0.971817 21.109 1.04343C21.2899 1.10797 21.4783 1.15226 21.6555 1.22575C21.8458 1.3049 22.0262 1.40713 22.2109 1.49947C22.4493 1.61866 22.6886 1.73597 22.9247 1.85941C23.0886 1.94515 23.2483 2.03984 23.409 2.13171C23.5772 2.22782 23.7444 2.32487 23.9112 2.42286C24.0049 2.47846 24.1011 2.53216 24.1887 2.59671C24.3131 2.68763 24.4271 2.79316 24.5524 2.88268C24.7192 3.00234 24.8925 3.11258 25.0631 3.22707C25.0767 3.23649 25.0909 3.24544 25.1027 3.25675C25.4028 3.53612 25.701 3.81785 26.0034 4.0944C26.2413 4.31205 26.4939 4.51511 26.7224 4.74171C26.9565 4.97398 27.1779 5.22131 27.3899 5.4743C27.5803 5.70186 27.7569 5.94166 27.9275 6.18475C28.1418 6.49004 28.3425 6.80427 28.5512 7.11333C28.67 7.28906 28.7972 7.45866 28.9116 7.63674C28.9814 7.74557 29.0356 7.86429 29.0959 7.97925C29.1873 8.15356 29.281 8.32599 29.3672 8.50266C29.4704 8.71325 29.567 8.92761 29.6659 9.14008C29.7724 9.36905 29.8906 9.5933 29.982 9.82792C30.0555 10.0159 30.096 10.2171 30.1516 10.4121C30.1818 10.5181 30.2072 10.6265 30.2463 10.7296C30.2868 10.8361 30.3533 10.9341 30.3863 11.0425C30.4268 11.1744 30.4385 11.3148 30.4744 11.4486C30.5153 11.6022 30.569 11.752 30.6176 11.9037C30.6228 11.9202 30.6317 11.9357 30.6341 11.9522C30.6614 12.1581 30.6783 12.3654 30.717 12.5689C30.758 12.7861 30.8187 13 30.8706 13.2153C30.8748 13.2322 30.8757 13.2497 30.8767 13.2671C30.9035 13.7354 30.9276 14.2041 30.9572 14.6724C30.9785 15.0018 31.0647 15.3386 31.019 15.6575C30.9507 16.1348 31.0048 16.6139 30.9393 17.0822C30.9097 17.2942 30.9068 17.5072 30.8729 17.7168C30.8385 17.9279 30.7679 18.1323 30.7203 18.342C30.6859 18.4942 30.6708 18.651 30.635 18.8027C30.5898 18.9945 30.5309 19.1829 30.4814 19.3737C30.4494 19.4962 30.4084 19.6192 30.3985 19.744C30.3768 20.0116 30.2647 20.2467 30.1634 20.4875C30.1253 20.5774 30.1069 20.6759 30.0777 20.7701C30.0518 20.8535 30.0263 20.9374 29.9966 21.0194C29.9147 21.2436 29.8412 21.4726 29.7436 21.6898C29.6362 21.9286 29.5015 22.1548 29.3847 22.3894C29.2631 22.6339 29.1519 22.8836 29.029 23.1276C28.9781 23.2289 28.9069 23.3198 28.8485 23.4174C28.6931 23.6769 28.5451 23.9412 28.3816 24.1961C28.3256 24.2833 28.2332 24.3473 28.1513 24.4279C29.0247 25.2981 29.8944 26.164 30.7716 27.0374C30.8819 26.9324 31.0044 26.8188 31.1231 26.7015C31.2804 26.5461 31.3459 26.5517 31.525 26.702C31.7907 26.9248 32.0625 27.1401 32.3367 27.3521C32.5388 27.5086 32.7508 27.6532 32.9553 27.8068C33.1814 27.9768 33.4028 28.1535 33.629 28.3236C33.8334 28.4776 34.0393 28.6298 34.2494 28.7768C34.5038 28.9549 34.7644 29.1245 35.0197 29.3012C35.1361 29.3817 35.2487 29.4689 35.3589 29.5579C35.5224 29.6898 35.6783 29.8316 35.8456 29.9584C35.9907 30.0686 36.1471 30.1638 36.2979 30.267C36.3158 30.2792 36.3266 30.3013 36.3436 30.315C36.6102 30.5275 36.8759 30.7404 37.1445 30.9501C37.356 31.115 37.5675 31.2808 37.7866 31.4358C37.9317 31.538 38.0971 31.6115 38.2403 31.7166C38.3934 31.8287 38.5253 31.9696 38.6761 32.085C38.8367 32.208 39.0096 32.3144 39.1755 32.4308C39.2923 32.5128 39.4077 32.5966 39.5194 32.6852C39.6748 32.8082 39.8251 32.9373 39.9787 33.0626C40.1059 33.1662 40.2378 33.2647 40.3622 33.3712C40.6147 33.5874 40.757 33.88 40.8941 34.1725C40.9445 34.2804 40.9549 34.4062 40.9921 34.5207C41.002 34.5518 41.043 34.5725 41.0694 34.5984C41.0694 35.0182 41.0694 35.438 41.0694 35.8577C40.921 35.8766 41.0279 36.0066 40.9803 36.0646C40.8427 36.2332 40.8526 36.4716 40.6717 36.6313C40.512 36.7722 40.4249 36.9927 40.2774 37.1514C39.9566 37.4977 39.6287 37.8388 39.2838 38.1606C38.3665 39.0171 37.5859 40.0191 36.5452 40.7432C36.4317 40.8224 36.2894 40.8596 36.1631 40.9218C36.1363 40.935 36.1221 40.9736 36.1023 41C35.5069 41 34.9123 41 34.3177 41ZM15.5168 29.2135C15.5173 29.2234 15.5177 29.2333 15.5182 29.2427C16.1674 29.2074 16.8161 29.1721 17.4653 29.1367C17.4884 29.1353 17.5124 29.1344 17.5341 29.1283C17.7117 29.0764 17.887 29.0105 18.0679 28.9742C18.2714 28.9337 18.4806 28.9252 18.686 28.8932C18.8127 28.8734 18.9385 28.8432 19.061 28.8051C19.2886 28.7344 19.5133 28.6548 19.739 28.5785C19.8266 28.5488 19.9137 28.5168 20.0018 28.4885C20.1738 28.4329 20.3505 28.3895 20.5168 28.3208C20.7406 28.2284 20.9573 28.1187 21.1745 28.0117C21.419 27.8916 21.6639 27.7714 21.9037 27.6424C22.1087 27.5321 22.3056 27.4068 22.5082 27.2923C22.6778 27.1967 22.8564 27.1152 23.0208 27.012C23.2059 26.8956 23.3812 26.7628 23.5597 26.6356C23.6516 26.5701 23.7416 26.5022 23.8316 26.4344C23.9588 26.3392 24.1039 26.2591 24.2094 26.1437C24.4242 25.9082 24.6928 25.7348 24.9166 25.5152C25.292 25.1473 25.635 24.7464 25.9931 24.3605C26.0383 24.3115 26.0995 24.2753 26.1368 24.2216C26.3148 23.9657 26.484 23.7038 26.6621 23.448C26.7963 23.2553 26.941 23.0697 27.0766 22.8779C27.1233 22.812 27.1534 22.7347 27.1968 22.6664C27.275 22.5434 27.3659 22.428 27.437 22.3013C27.5704 22.0629 27.6952 21.8203 27.8205 21.5772C27.9355 21.3543 28.0613 21.1348 28.1541 20.9025C28.2554 20.6495 28.3246 20.3833 28.4076 20.1228C28.4377 20.0286 28.4655 19.9334 28.4989 19.8401C28.5461 19.7082 28.6045 19.5796 28.6445 19.4458C28.6822 19.3191 28.6964 19.1848 28.7326 19.0576C28.8056 18.8009 28.906 18.5507 28.9592 18.2906C29.0177 18.0037 29.0374 17.7116 29.1109 17.4238C29.184 17.1364 29.2118 16.8273 29.2 16.5305C29.167 15.6901 29.3069 14.8449 29.127 14.0072C29.0935 13.8508 29.1317 13.6803 29.1086 13.5201C29.0742 13.2859 29.0096 13.0565 28.9668 12.8233C28.9319 12.6353 28.9404 12.4337 28.8744 12.2594C28.8061 12.0794 28.7331 11.9084 28.718 11.7129C28.71 11.6111 28.6624 11.5112 28.6257 11.4128C28.5809 11.2931 28.522 11.1781 28.4825 11.0571C28.4448 10.9426 28.4368 10.8177 28.3944 10.7051C28.295 10.4408 28.1923 10.177 28.0731 9.9212C27.9378 9.63052 27.7885 9.34643 27.6354 9.0647C27.4818 8.7825 27.283 8.51868 27.1445 8.23836C26.9923 7.93072 26.7502 7.69705 26.5961 7.39506C26.459 7.12652 26.231 6.90274 26.0331 6.66765C25.806 6.39817 25.5757 6.1301 25.3311 5.87664C25.1973 5.73766 25.0263 5.6359 24.8808 5.50728C24.5948 5.25523 24.3164 4.99518 24.0318 4.74171C23.8801 4.6065 23.7223 4.47836 23.5663 4.34786C23.5583 4.34126 23.5432 4.34315 23.5338 4.33749C23.3322 4.20935 23.1291 4.08309 22.9303 3.9507C22.8158 3.87438 22.7145 3.77639 22.5958 3.70902C22.3136 3.54837 22.0253 3.39855 21.7379 3.24732C21.5594 3.1531 21.3818 3.05605 21.1971 2.97549C20.9549 2.86996 20.7076 2.77479 20.4593 2.68386C20.1974 2.58776 19.9326 2.49824 19.6664 2.41344C19.5401 2.37293 19.4063 2.35691 19.2796 2.31733C19.0549 2.24761 18.8368 2.15291 18.6087 2.09732C18.4076 2.04832 18.1975 2.03843 17.9911 2.01158C17.9737 2.00922 17.9562 2.00875 17.9393 2.00451C17.7306 1.95363 17.5242 1.87166 17.3132 1.85658C16.7181 1.81418 16.1212 1.79628 15.5248 1.7746C15.2977 1.76612 15.0697 1.7633 14.8431 1.77602C14.6306 1.78827 14.4233 1.77131 14.2033 1.83255C13.9442 1.9051 13.653 1.84621 13.377 1.92254C13.1673 1.98048 12.9435 1.98614 12.7263 2.01582C12.7099 2.01817 12.6953 2.03089 12.6792 2.0356C12.5228 2.08083 12.3669 2.1303 12.2086 2.16799C12.0574 2.20379 11.8995 2.2151 11.7507 2.25844C11.5165 2.32629 11.2871 2.41109 11.0558 2.48929C10.9573 2.52274 10.8574 2.55195 10.7613 2.59153C10.5959 2.65984 10.4339 2.73616 10.269 2.80541C10.0584 2.89446 9.84215 2.97078 9.6358 3.06877C9.38281 3.18938 9.13689 3.32412 8.89002 3.45744C8.7322 3.54272 8.5772 3.63317 8.42456 3.72739C8.32421 3.78911 8.23941 3.89464 8.13246 3.92338C7.86816 3.99452 7.71646 4.22254 7.48985 4.34409C7.35182 4.41806 7.24158 4.54243 7.11626 4.64042C6.87834 4.82604 6.62818 4.99706 6.40251 5.19634C6.16695 5.40411 5.94977 5.6326 5.73352 5.86109C5.38537 6.22904 5.04475 6.60452 4.70083 6.97623C4.68952 6.98848 4.66926 6.99366 4.65984 7.00686C4.53264 7.18824 4.40732 7.3715 4.27965 7.55288C4.19108 7.6782 4.08979 7.79551 4.01017 7.92601C3.91359 8.08478 3.86553 8.28547 3.73927 8.41032C3.55036 8.59735 3.50042 8.84799 3.36615 9.05764C3.21727 9.29037 3.11127 9.5509 2.98878 9.80059C2.92377 9.93298 2.85781 10.0658 2.80128 10.202C2.72495 10.3871 2.65429 10.5751 2.58645 10.7636C2.5219 10.9421 2.45971 11.1221 2.40412 11.3035C2.36549 11.4297 2.34382 11.5607 2.30801 11.6879C2.26326 11.8443 2.2039 11.997 2.16479 12.1548C2.12616 12.3121 2.11156 12.4751 2.07387 12.6325C2.03052 12.8129 1.96598 12.9882 1.92358 13.1686C1.88778 13.3199 1.85904 13.4749 1.8482 13.6299C1.82794 13.9243 1.77942 14.2239 1.77753 14.5094C1.77188 15.2797 1.66541 16.0556 1.83784 16.824C1.87788 17.0021 1.82983 17.1981 1.8548 17.3814C1.88448 17.5981 1.95609 17.8087 1.9966 18.024C2.03476 18.2275 2.05644 18.4339 2.08612 18.6393C2.08753 18.6506 2.09177 18.6619 2.09554 18.6727C2.1695 18.896 2.24583 19.1189 2.31696 19.3431C2.39941 19.6041 2.47573 19.8665 2.55818 20.1275C2.57938 20.1949 2.61707 20.2571 2.64157 20.3235C2.69198 20.4587 2.73532 20.5968 2.78903 20.7306C2.84556 20.8719 2.91152 21.0095 2.97088 21.1494C3.01092 21.2441 3.03966 21.3449 3.08677 21.4358C3.20455 21.6629 3.3294 21.8857 3.45236 22.11C3.52209 22.2377 3.58993 22.3668 3.66531 22.4911C3.77555 22.6725 3.89145 22.8501 4.00593 23.0287C4.09167 23.1625 4.17035 23.3015 4.2674 23.4268C4.38282 23.5761 4.5218 23.7076 4.63629 23.8579C4.77055 24.034 4.8676 24.2423 5.01883 24.4006C5.48901 24.8929 5.96908 25.3772 6.46234 25.8464C6.70827 26.0806 6.99282 26.2738 7.25759 26.4881C7.31366 26.5333 7.35464 26.6002 7.414 26.6389C7.77394 26.8721 8.13623 27.1015 8.49899 27.3295C8.65211 27.4256 8.80522 27.5222 8.96446 27.6065C9.20944 27.7356 9.45772 27.8595 9.70883 27.9759C9.92083 28.0739 10.1375 28.1629 10.3557 28.2463C10.5328 28.3146 10.7166 28.3655 10.8951 28.431C11.0115 28.4734 11.1194 28.5408 11.2376 28.5742C11.4557 28.6359 11.6809 28.6736 11.8991 28.7344C12.1568 28.806 12.4065 28.9177 12.6679 28.9629C12.9633 29.0143 13.2578 29.0623 13.5517 29.1283C13.8321 29.1914 14.127 29.2003 14.4167 29.2107C14.7818 29.2234 15.1498 29.2135 15.5168 29.2135ZM35.21 39.3289C35.285 39.3228 35.3768 39.3426 35.4319 39.3068C35.6699 39.1513 35.9078 39.0001 36.1118 38.7919C36.9202 37.9693 37.7461 37.1637 38.5583 36.3449C38.7849 36.1159 38.9908 35.8657 39.1976 35.6184C39.2518 35.5534 39.2947 35.4639 39.3064 35.3805C39.3507 35.0611 39.2334 34.7892 39.0115 34.5659C38.8999 34.4533 38.7693 34.3567 38.6393 34.2649C38.3844 34.0849 38.122 33.9158 37.8662 33.7372C37.6523 33.5879 37.4413 33.4348 37.2335 33.2774C37.0125 33.1097 36.7991 32.9321 36.5782 32.7639C36.3699 32.6056 36.1565 32.4544 35.9455 32.2994C35.7335 32.1434 35.5182 31.9922 35.3113 31.8297C35.0357 31.6129 34.7667 31.3873 34.4949 31.1654C34.4822 31.155 34.4713 31.1432 34.4581 31.1338C34.2848 31.0132 34.1072 30.8978 33.9385 30.7711C33.7892 30.6589 33.6549 30.5275 33.5051 30.4163C33.2054 30.1939 32.8983 29.9819 32.5982 29.7605C32.471 29.6668 32.3579 29.5546 32.2316 29.4599C32.0361 29.3139 31.8269 29.1848 31.6385 29.0307C31.5151 28.9299 31.4227 28.9323 31.3158 29.0397C30.5695 29.7878 29.8219 30.535 29.0756 31.2827C28.93 31.4283 28.9343 31.5418 29.0751 31.701C29.2179 31.8626 29.3564 32.0285 29.4921 32.1962C29.5811 32.3064 29.664 32.4223 29.746 32.5378C29.9288 32.795 30.1045 33.0569 30.292 33.3104C30.4164 33.4781 30.5587 33.6331 30.6897 33.7961C30.7792 33.9073 30.8677 34.0199 30.9507 34.1367C31.1353 34.3968 31.3144 34.6611 31.4981 34.9216C31.6437 35.128 31.7911 35.3324 31.9414 35.5355C32.1826 35.861 32.4158 36.1927 32.6726 36.5055C32.8417 36.7114 33.0094 36.9126 33.1494 37.142C33.2907 37.3738 33.4792 37.5773 33.6478 37.7921C33.8579 38.0602 34.0685 38.3278 34.2791 38.5959C34.2928 38.6133 34.306 38.6312 34.3187 38.6491C34.4242 38.7994 34.5048 38.9803 34.6419 39.0929C34.7973 39.2215 34.9787 39.3516 35.21 39.3289ZM29.4657 28.3269C29.4294 28.2831 29.4016 28.243 29.3677 28.2086C29.1783 28.0169 28.9875 27.8261 28.7967 27.6353C28.2719 27.1109 27.7447 26.5889 27.2227 26.0613C27.1369 25.9746 27.0837 25.9751 26.9994 26.0617C26.6899 26.3807 26.3756 26.6959 26.0576 27.0068C25.9714 27.0911 25.9568 27.1425 26.0534 27.2372C26.7794 27.9538 27.5002 28.676 28.2191 29.3996C28.294 29.475 28.3425 29.4727 28.4137 29.4006C28.7387 29.0698 29.0671 28.7424 29.3941 28.4131C29.4162 28.3914 29.4341 28.3655 29.4657 28.3269Z" fill="#115C07"/>
<path d="M15.481 21.5031C15.382 21.5031 15.2826 21.5079 15.1837 21.5022C14.7267 21.4753 14.2655 21.4753 13.816 21.4037C13.6257 21.3731 13.4335 21.3708 13.2479 21.334C12.9581 21.2765 12.6764 21.1795 12.3895 21.106C12.25 21.0702 12.103 21.0594 11.9655 21.0184C11.7365 20.9501 11.5127 20.8648 11.2856 20.7903C11.1029 20.7305 10.9158 20.6839 10.7358 20.6184C10.6096 20.5722 10.4913 20.5034 10.3693 20.446C10.1545 20.3451 9.93683 20.2486 9.72436 20.143C9.6094 20.0855 9.50387 20.0097 9.39175 19.947C9.16467 19.8208 8.93099 19.7054 8.70862 19.5706C8.57812 19.4915 8.46835 19.3798 8.3435 19.2908C7.97556 19.0274 7.61798 18.7546 7.30657 18.4225C7.18267 18.2901 7.01777 18.1964 6.89057 18.0663C6.65878 17.8284 6.42275 17.5905 6.22253 17.3267C5.99874 17.0313 5.81171 16.7086 5.61195 16.3953C5.43481 16.1173 5.26003 15.8379 5.08995 15.5557C5.07111 15.5242 5.07205 15.4629 5.08995 15.4304C5.19737 15.2368 5.3062 15.0432 5.42633 14.8571C5.58746 14.6074 5.75706 14.3629 5.92713 14.1188C6.01806 13.9883 6.12171 13.8668 6.2131 13.7367C6.61308 13.169 7.16288 12.7446 7.63635 12.2471C7.7791 12.0968 7.9831 12.0054 8.15553 11.8819C8.27472 11.7967 8.38261 11.6949 8.50416 11.6129C8.69731 11.4829 8.89471 11.3595 9.09541 11.2412C9.35217 11.09 9.60846 10.9364 9.87417 10.8026C10.1371 10.6702 10.4117 10.5605 10.6821 10.4427C10.8409 10.3734 11.0001 10.3051 11.1613 10.242C11.2739 10.1977 11.3902 10.1628 11.5047 10.1233C11.7162 10.0502 11.9268 9.97438 12.1388 9.90372C12.2538 9.86556 12.3702 9.82692 12.4889 9.80525C12.6759 9.77133 12.8653 9.75107 13.0542 9.72705C13.2728 9.69925 13.5126 9.72045 13.7058 9.63565C13.9739 9.5174 14.2438 9.61775 14.4977 9.55367C15.0763 9.40716 15.6595 9.51127 16.2395 9.49102C16.549 9.48018 16.8693 9.49903 17.169 9.57016C17.4846 9.64507 17.7979 9.69642 18.1188 9.73694C18.3807 9.76992 18.6309 9.88817 18.8886 9.96025C19.0224 9.99747 19.1618 10.014 19.2975 10.0455C19.3983 10.0686 19.5024 10.0893 19.5967 10.1303C19.941 10.2797 20.2704 10.4742 20.627 10.5798C20.9059 10.6627 21.1415 10.8153 21.401 10.9265C21.5151 10.9755 21.6196 11.0495 21.7233 11.1197C22.0545 11.3458 22.4177 11.5168 22.7268 11.7863C22.952 11.9828 23.2021 12.1585 23.4415 12.3432C23.7293 12.5651 23.9837 12.8152 24.232 13.0748C24.4421 13.2944 24.6541 13.5148 24.8426 13.7528C25.0442 14.0081 25.2294 14.2776 25.4013 14.5541C25.5328 14.7657 25.6289 14.9989 25.7481 15.2184C25.7891 15.2943 25.8988 15.3616 25.8941 15.4266C25.8842 15.5571 25.8324 15.6914 25.7707 15.8101C25.6656 16.0122 25.5408 16.204 25.4221 16.3986C25.365 16.4923 25.3071 16.5856 25.2416 16.6732C25.1535 16.791 25.0541 16.8998 24.9665 17.0176C24.8162 17.2197 24.6824 17.4355 24.5208 17.6277C24.3696 17.8077 24.1915 17.9655 24.0238 18.1313C23.9074 18.2468 23.7915 18.3627 23.6704 18.4729C23.4754 18.651 23.2851 18.8366 23.0763 18.9982C22.8172 19.1989 22.5459 19.385 22.2707 19.5631C22.112 19.6658 21.9325 19.7364 21.7671 19.8297C21.5641 19.9447 21.3723 20.0808 21.1645 20.1854C20.9521 20.2924 20.7255 20.3701 20.5069 20.4653C20.3872 20.5176 20.2732 20.5816 20.1545 20.6363C20.0456 20.6862 19.9363 20.7357 19.8237 20.7767C19.5943 20.8601 19.3649 20.943 19.1321 21.0155C19.0063 21.0546 18.8725 21.0683 18.7439 21.1003C18.5475 21.1498 18.3529 21.2059 18.1579 21.2586C18.1522 21.26 18.1466 21.26 18.1404 21.261C17.9237 21.2878 17.707 21.3166 17.4898 21.3406C17.225 21.3698 16.9424 21.3458 16.6983 21.4315C16.2903 21.5743 15.8833 21.4443 15.481 21.5031ZM7.1299 15.5388C7.16476 15.5703 7.18973 15.5864 7.20622 15.6085C7.35039 15.8068 7.47947 16.0174 7.63871 16.2021C7.84365 16.44 8.11124 16.6214 8.26247 16.9097C8.28697 16.9564 8.38308 16.9601 8.43066 17.0016C8.67282 17.2127 8.90319 17.4374 9.15006 17.6423C9.36065 17.8171 9.58537 17.9759 9.80963 18.1328C9.90762 18.2015 10.0193 18.251 10.1267 18.3052C10.3029 18.3938 10.4805 18.48 10.6586 18.5662C10.9794 18.7217 11.2984 18.8818 11.623 19.0288C11.8208 19.1183 12.0244 19.1998 12.2317 19.263C12.5365 19.3558 12.8455 19.4382 13.1565 19.5084C13.4434 19.573 13.7336 19.6248 14.0247 19.6648C14.3112 19.7039 14.6004 19.7402 14.8888 19.7445C15.5328 19.7544 16.1782 19.7699 16.8189 19.67C17.0474 19.6342 17.2783 19.6154 17.5082 19.588C17.5247 19.5862 17.5398 19.5758 17.5562 19.5711C17.7235 19.5216 17.8898 19.4674 18.0594 19.4255C18.205 19.3897 18.3576 19.3803 18.5008 19.3384C18.7364 19.2691 18.9677 19.1862 19.1986 19.1023C19.3093 19.0623 19.4134 19.0048 19.5218 18.9577C19.6523 18.9007 19.7842 18.8465 19.9147 18.7895C20.1224 18.6981 20.3368 18.618 20.5351 18.5087C20.7208 18.4069 20.8861 18.2694 21.0651 18.1549C21.3403 17.9792 21.63 17.8242 21.8943 17.6338C22.1115 17.4779 22.3065 17.289 22.5021 17.1048C22.7287 16.8909 22.9557 16.6761 23.1621 16.4438C23.3604 16.2205 23.5418 15.9802 23.7128 15.7348C23.7727 15.6485 23.8113 15.5223 23.8005 15.4205C23.7915 15.3353 23.702 15.2547 23.6403 15.1784C23.4193 14.9037 23.2116 14.6154 22.9675 14.3624C22.6505 14.034 22.3061 13.7325 21.9683 13.4249C21.8632 13.3292 21.7468 13.244 21.6272 13.1672C21.4303 13.0404 21.2286 12.9212 21.026 12.8049C20.7589 12.6513 20.497 12.4845 20.2171 12.3587C19.9599 12.2428 19.7182 12.0982 19.4431 12.0077C19.1609 11.9149 18.89 11.7811 18.596 11.7138C18.4834 11.6878 18.3703 11.6615 18.2587 11.6313C17.9722 11.5545 17.6886 11.4655 17.3994 11.4019C17.2481 11.3684 17.0927 11.367 16.9367 11.334C16.6371 11.2704 16.3191 11.2709 16.0119 11.2492C15.5634 11.2172 15.1003 11.1522 14.6461 11.3077C14.4732 11.3665 14.2626 11.3048 14.0737 11.3298C13.8561 11.3585 13.6445 11.4301 13.4283 11.4702C13.2252 11.5079 13.0147 11.5112 12.8154 11.5611C12.5671 11.6228 12.3263 11.7161 12.0823 11.7971C11.9895 11.8278 11.8962 11.857 11.8062 11.8942C11.6366 11.9639 11.4699 12.0398 11.3012 12.1123C11.0925 12.2028 10.8772 12.2815 10.676 12.386C10.4612 12.4977 10.268 12.6527 10.049 12.7526C9.89961 12.8209 9.76063 12.8897 9.64803 13.0084C9.62542 13.0319 9.60422 13.0579 9.57737 13.0762C9.33709 13.2392 9.07939 13.382 8.85891 13.5686C8.59367 13.7928 8.35999 14.0538 8.11313 14.2997C7.95389 14.458 7.77863 14.6041 7.64201 14.7798C7.45733 15.0182 7.30233 15.2797 7.1299 15.5388Z" fill="#115C07"/>
<path d="M18.9403 15.7308C19.0001 16.2391 18.75 16.8893 18.3467 17.4659C17.5783 18.565 16.4834 19.0135 15.1605 18.9278C14.5151 18.8859 13.9196 18.6748 13.415 18.2739C12.4426 17.5017 11.9691 16.4803 12.045 15.2375C12.0874 14.5393 12.3272 13.8863 12.7823 13.3497C13.5714 12.4197 14.5805 11.9373 15.8163 12.0527C16.4174 12.1088 16.9903 12.2925 17.4897 12.6586C18.4522 13.3653 18.9346 14.3113 18.9403 15.7308ZM17.1788 15.3878C17.1302 15.0373 17.004 14.5963 16.6408 14.2802C16.3185 13.9994 15.9298 13.8143 15.4959 13.8067C14.9028 13.7959 14.4717 14.1285 14.1146 14.5619C13.8941 14.829 13.806 15.1805 13.8051 15.498C13.8041 15.9418 13.9723 16.3861 14.3139 16.689C14.6145 16.9557 14.972 17.1738 15.405 17.1813C16.4212 17.1988 17.158 16.4012 17.1788 15.3878Z" fill="#115C07"/>
</svg>
