<svg width="51" height="42" viewBox="0 0 51 42" fill="none" xmlns="http://www.w3.org/2000/svg">
<path d="M50.4543 36.4396C50.1906 36.7177 49.8844 36.8283 49.4823 36.8269C44.8517 36.8124 40.2209 36.8361 35.5906 36.7974C34.9191 36.7918 34.5077 37.0039 34.1324 37.5046C33.3169 38.5922 32.2408 39.3791 31.0762 40.0746C29.8401 40.8128 28.4991 41.2516 27.098 41.4824C25.6782 41.7162 24.242 41.6788 22.8265 41.3818C20.3973 40.8718 18.3385 39.7046 16.6398 37.9125C16.4514 37.7139 16.238 37.5194 16.1151 37.2825C15.8882 36.845 15.5379 36.8094 15.1015 36.8105C10.4709 36.8224 5.84035 36.8183 1.20951 36.8174C0.778731 36.8174 0.266974 36.9261 0.0693011 36.4117C-0.123592 35.9096 0.107261 35.5014 0.501483 35.1271C2.06347 33.6444 3.59902 32.1344 5.14723 30.6369C5.27629 30.5121 5.4256 30.4078 5.5766 30.285C5.06175 29.7349 4.60398 29.2308 4.1299 28.7423C3.0628 27.6431 1.98558 26.5535 0.917637 25.4551C0.647137 25.177 0.338114 24.9109 0.157312 24.5801C0.025155 24.3379 -0.0215217 23.964 0.072113 23.714C0.146627 23.5154 0.473645 23.3571 0.71912 23.2877C0.974718 23.2155 1.26715 23.2715 1.52809 23.2715C1.39987 21.6576 1.75248 20.2075 2.63202 18.8953C2.72847 18.7512 2.93823 18.6704 3.10919 18.5885C4.38325 17.9763 5.67642 17.4009 6.93022 16.7511C7.51846 16.4462 8.06705 16.5173 8.38423 17.1203C8.75455 17.8241 9.19545 18.4918 9.65462 19.2567C10.0921 18.5082 10.4942 17.8283 10.8882 17.1437C11.2743 16.4724 11.6471 16.3916 12.318 16.7633C13.2555 17.283 14.2155 17.7628 15.2106 18.2834C15.3869 17.6561 15.5162 17.1178 15.6925 16.595C15.8247 16.2029 15.9751 15.8045 16.1964 15.4584C16.348 15.2212 16.6058 14.978 16.867 14.8947C18.6781 14.3159 20.3295 13.4175 21.9736 12.4941C22.6369 12.1215 23.0697 12.3383 23.3582 12.8457C23.9506 13.8873 24.5678 14.9156 25.225 16.0344C25.5964 15.4157 25.933 14.8648 26.26 14.3081C26.5522 13.8107 26.828 13.3041 27.1216 12.8076C27.4202 12.3021 27.9741 12.1834 28.4901 12.4832C30.1204 13.4309 31.7774 14.3237 33.5959 14.8799C34.2831 15.09 34.4476 15.7228 34.663 16.2729C34.9048 16.8898 35.0471 17.5449 35.2568 18.2675C36.086 17.8473 36.8869 17.4463 37.6823 17.035C37.8817 16.9319 38.0515 16.7697 38.2551 16.6792C38.8478 16.4156 39.1886 16.5022 39.5157 17.0587C39.9282 17.7612 40.3421 18.4625 40.801 19.2414C41.0155 18.9076 41.2078 18.6256 41.3822 18.333C41.6279 17.9206 41.8599 17.5003 42.0992 17.084C42.4304 16.5083 42.8334 16.4139 43.4331 16.7201C44.5359 17.2833 45.603 17.9729 46.7714 18.3374C48.1728 18.7749 48.4306 19.8898 48.7425 20.988C48.9444 21.6991 48.9331 22.4699 49.0231 23.264C49.457 23.2715 50.0331 23.1843 50.4543 23.6488C50.4543 23.9417 50.4543 24.2346 50.4543 24.5277C50.1301 24.8593 49.8068 25.1917 49.4817 25.5228C48.2276 26.799 46.9696 28.0713 45.7217 29.3531C45.4461 29.6363 45.2057 29.9531 44.9349 30.2708C45.8314 31.1541 46.7109 32.0271 47.5975 32.8923C48.5462 33.818 49.5017 34.7367 50.4543 35.6585C50.4543 35.9188 50.4543 36.1793 50.4543 36.4396ZM25.189 39.9668C30.9027 39.9999 35.2875 35.4005 35.2585 30.0802C35.2279 24.4084 30.7978 20.2657 25.5154 20.1464C19.5299 20.0113 15.181 24.6623 15.2061 30.103C15.2311 35.5568 19.621 39.9453 25.189 39.9668ZM47.62 24.9334C43.6238 24.9334 39.7111 24.9334 35.7121 24.9334C36.5337 26.568 36.9082 28.2748 36.9192 30.0186C36.9302 31.7819 36.552 33.5042 35.7227 35.1452C39.6838 35.1452 43.5698 35.1452 47.5427 35.1452C46.3451 33.9601 45.2127 32.8335 44.0725 31.7153C43.7959 31.4439 43.4627 31.2246 43.2085 30.9356C42.9399 30.6302 42.7214 30.2657 43.0066 29.8475C43.1508 29.6357 43.3153 29.4334 43.4947 29.2498C44.7474 27.9677 46.0079 26.6934 47.2609 25.4116C47.3874 25.2823 47.4808 25.121 47.62 24.9334ZM14.7531 24.9412C10.7501 24.9412 6.83209 24.9412 2.83869 24.9412C2.97591 25.1246 3.05633 25.2614 3.16431 25.3717C4.40602 26.6416 5.65252 27.9069 6.8962 29.1748C6.99827 29.2787 7.09078 29.3916 7.18638 29.5017C7.72091 30.1164 7.80386 30.3892 7.02161 31.1758C6.6794 31.52 6.29109 31.819 5.94298 32.1578C5.12361 32.9559 4.31913 33.7684 3.50145 34.5679C3.32261 34.7426 3.11285 34.8864 2.91743 35.0444C2.9537 35.0817 2.99025 35.1193 3.02653 35.1567C6.90576 35.1567 10.785 35.1567 14.7565 35.1567C13.9118 33.5274 13.5474 31.8187 13.5448 30.0737C13.542 28.3113 13.9166 26.5883 14.7531 24.9412ZM7.30026 18.5793C6.31949 19.0232 5.38033 19.4378 4.45185 19.8745C4.17714 20.0038 3.77842 20.1442 3.70193 20.3685C3.45196 21.1006 3.2706 21.8666 3.1674 22.6334C3.08586 23.2403 3.17387 23.2704 3.77532 23.2704C7.33485 23.271 10.8944 23.2707 14.4539 23.2707C14.6274 23.2707 14.8006 23.2707 14.9732 23.2707C14.9732 22.9728 14.9797 22.7474 14.9718 22.5222C14.9597 22.1703 14.9198 21.8184 14.9249 21.467C14.9313 21.0167 14.9836 20.5669 14.9856 20.1169C14.9859 20.023 14.8737 19.8856 14.7784 19.8408C13.8792 19.4192 12.9726 19.0132 12.0385 18.589C11.98 18.6618 11.8867 18.7537 11.8223 18.8624C11.3409 19.6747 10.8643 20.4897 10.3877 21.3051C10.0216 21.9315 9.27896 21.8847 8.92326 21.3622C8.76158 21.1248 8.63955 20.8615 8.49445 20.6126C8.0918 19.9244 7.68661 19.2372 7.30026 18.5793ZM38.4415 18.5651C37.5001 19.0101 36.667 19.4334 35.8068 19.7931C35.5405 19.9046 35.4497 20.0183 35.4646 20.2769C35.502 20.9208 35.5495 21.5651 35.5571 22.2093C35.5611 22.5493 35.4905 22.8901 35.4548 23.2169C35.5681 23.2479 35.5987 23.2637 35.6294 23.2637C39.3857 23.2668 43.1421 23.2662 46.8985 23.2749C47.2075 23.2757 47.3126 23.1088 47.3065 22.8622C47.2969 22.4779 47.2755 22.0898 47.2089 21.7122C47.0441 20.7818 46.7978 19.8996 45.6435 19.7223C45.5364 19.7059 45.4383 19.6315 45.3362 19.5833C44.6273 19.2492 43.9185 18.9151 43.1995 18.5762C43.1576 18.62 43.1016 18.6601 43.0698 18.7144C42.5702 19.5713 42.0995 20.4466 41.5596 21.2781C41.4083 21.511 41.0602 21.7356 40.7953 21.7442C40.5583 21.7518 40.2481 21.5032 40.0828 21.2842C39.7862 20.891 39.5798 20.4318 39.3253 20.0063C39.0315 19.5136 38.7264 19.0282 38.4415 18.5651ZM16.5425 22.2728C17.7013 21.1092 18.9186 20.2027 20.3318 19.5535C21.7211 18.9154 23.2027 18.6322 24.7011 18.4648C23.8643 17.0305 23.0599 15.6512 22.3035 14.3552C20.7907 15.0195 19.3136 15.6537 17.8537 16.3247C17.6386 16.4236 17.4066 16.6716 17.3504 16.8923C17.0847 17.9403 16.8347 18.9962 16.6634 20.0626C16.5507 20.7687 16.5797 21.4971 16.5425 22.2728ZM25.7578 18.4628C29.4231 18.8036 31.8497 20.1556 33.9516 22.3191C33.8995 21.8108 33.8686 21.4043 33.8143 21.0008C33.6546 19.8137 33.4963 18.6264 33.3166 17.4424C33.2098 16.738 32.8403 16.2902 32.0901 16.0998C31.4895 15.9471 30.9224 15.647 30.3575 15.3773C29.6354 15.0323 28.9304 14.652 28.1982 14.2766C27.7888 14.9877 27.3929 15.6816 26.9908 16.3715C26.5896 17.0601 26.1813 17.7453 25.7578 18.4628Z" fill="#115C07"/>
<path d="M20.1215 5.06106C20.0964 2.49968 21.9407 0.411176 24.4978 0.0564505C25.9538 -0.145573 27.3229 0.187975 28.4985 1.16493C29.8733 2.30741 30.486 3.76978 30.3271 5.50134C30.1505 7.42599 29.7079 9.29743 28.4215 10.837C27.5138 11.9232 25.9954 12.6137 24.4143 12.1949C22.9541 11.8081 21.9843 10.8203 21.2606 9.57775C20.5154 8.29818 20.1069 6.59087 20.1215 5.06106ZM25.2196 1.66846C23.3894 1.62332 21.9281 3.079 21.7956 4.69268C21.6548 6.41114 22.1072 8.04433 23.1754 9.43174C23.911 10.3875 25.1884 11.1995 26.4442 10.2925C26.9267 9.9439 27.355 9.46295 27.6696 8.95775C28.2792 7.97884 28.3841 6.83525 28.6301 5.72704C29.0654 3.76449 27.324 1.55087 25.2196 1.66846Z" fill="#115C07"/>
<path d="M44.9304 10.5265C44.8565 12.204 44.4814 13.794 43.396 15.1351C42.6587 16.0463 41.0144 16.7148 39.6194 16.0268C38.0116 15.2338 37.2296 13.8703 36.8809 12.2154C36.71 11.4034 36.5809 10.5864 36.7569 9.73426C37.0696 8.22034 38.2692 6.92237 39.7968 6.57712C41.2759 6.24274 42.6258 6.54508 43.7101 7.58947C44.5162 8.36608 45.0137 9.34415 44.9304 10.5265ZM43.2473 10.9807C43.3367 9.57181 42.5941 8.4859 41.4032 8.16322C40.4528 7.90574 39.3486 8.32428 38.7421 9.21374C38.2627 9.91678 38.2579 10.6786 38.4187 11.4736C38.6187 12.4623 38.9246 13.4072 39.6914 14.1122C40.396 14.7598 41.2326 14.9894 42.055 14.0751C42.959 13.0706 43.1432 11.8256 43.2473 10.9807Z" fill="#115C07"/>
<path d="M5.5032 10.6231C5.42222 8.54403 6.88691 6.85289 8.8659 6.516C11.1615 6.12532 13.2892 7.37592 13.6624 9.7272C14.0023 11.8692 13.4456 13.8593 11.8507 15.4574C10.8466 16.4636 9.23453 16.5723 8.01812 15.813C6.53768 14.8884 5.95563 13.4612 5.64351 11.8664C5.56366 11.4579 5.54819 11.0377 5.5032 10.6231ZM7.1875 10.7147C7.11355 11.6067 7.60872 13.015 8.08842 13.6203C8.96768 14.7299 9.98923 15.1467 11.0181 13.9708C11.1854 13.7797 11.3617 13.5643 11.4342 13.3296C11.673 12.5578 11.8425 11.765 12.0832 10.994C12.3228 10.2271 11.8088 9.04059 11.1795 8.60673C10.2878 7.99202 9.35375 7.89839 8.40841 8.44288C7.55332 8.93554 7.14645 9.70072 7.1875 10.7147Z" fill="#115C07"/>
<path d="M29.1399 37.0135C29.1039 37.0034 28.9239 36.98 28.7687 36.9065C27.7629 36.4297 26.756 35.9538 25.7634 35.4511C25.4015 35.2677 25.1032 35.2457 24.7261 35.4416C23.7389 35.9538 22.7393 36.4489 21.7141 36.8789C21.4115 37.0057 20.9501 37.0032 20.6647 36.8591C20.3829 36.717 20.3124 36.3506 20.3903 35.9368C20.6172 34.7282 20.7488 33.5019 20.8981 32.2803C20.9121 32.1652 20.812 32.0091 20.7206 31.9133C19.8892 31.0422 19.0549 30.1737 18.2054 29.3201C17.9304 29.0437 17.7488 28.7419 17.8942 28.3716C18.0438 27.9907 18.3444 27.809 18.7897 27.7477C19.937 27.5897 21.0789 27.381 22.2118 27.1416C22.4305 27.0954 22.6605 26.8521 22.7809 26.6412C23.3374 25.6667 23.859 24.6725 24.389 23.6833C24.5743 23.3377 24.808 23.0694 25.2446 23.0758C25.6554 23.0819 25.8863 23.3305 26.0634 23.6612C26.5938 24.6505 27.1632 25.6207 27.6479 26.6314C27.9561 27.2743 28.5401 27.1636 29.0415 27.2656C30.0031 27.461 30.98 27.5838 31.9411 27.7811C32.6187 27.9202 32.8274 28.7196 32.3434 29.2273C31.6365 29.9688 30.9783 30.7705 30.1921 31.4192C29.5861 31.9191 29.5603 32.4642 29.6615 33.1121C29.8212 34.1367 29.9913 35.1599 30.1398 36.1859C30.2031 36.6242 29.7844 37.0107 29.1399 37.0135ZM20.3928 29.1309C20.958 29.7395 21.4261 30.3545 22.0059 30.838C22.6409 31.3674 22.6167 31.9704 22.4991 32.6651C22.3836 33.347 22.3279 34.0386 22.2374 34.7979C23.0936 34.4003 23.8612 34.0648 24.608 33.6886C25.0391 33.4715 25.4223 33.471 25.8537 33.6858C26.6123 34.0639 27.3906 34.4031 28.2426 34.7965C28.1394 34.018 28.0497 33.3208 27.9536 32.6244C27.8642 31.9774 27.8071 31.3866 28.4206 30.8747C29.0221 30.3732 29.5088 29.7362 30.0748 29.1276C29.2243 28.9813 28.435 28.8225 27.6384 28.7163C27.0203 28.6341 26.6028 28.3485 26.3916 27.7653C26.3483 27.6454 26.2853 27.5315 26.2229 27.4194C25.9139 26.8669 25.602 26.3163 25.2458 25.6843C25.1128 25.8799 25.0253 25.9872 24.9606 26.1067C24.6249 26.7275 24.3184 27.3654 23.9523 27.9676C23.7988 28.2203 23.555 28.5276 23.2977 28.5901C22.3622 28.8174 21.4036 28.9512 20.3928 29.1309Z" fill="#115C07"/>
</svg>
