<svg width="27" height="27" viewBox="0 0 27 27" fill="none" xmlns="http://www.w3.org/2000/svg">
<path d="M5.81879 26.4613C5.81879 24.022 5.81879 21.5844 5.81879 19.0725C5.37755 19.0725 4.96492 19.0725 4.35352 19.0725C4.93179 17.9031 5.43026 16.8635 5.96938 15.847C6.03113 15.7296 6.32478 15.6987 6.51001 15.6987C11.1709 15.691 15.8317 15.6894 20.4926 15.7033C20.7064 15.7033 21.0287 15.8115 21.1131 15.9721C21.6236 16.933 22.0784 17.9263 22.5934 18.9922C22.0768 19.0185 21.6657 19.0401 21.1778 19.0648C21.1778 21.5442 21.1778 24.0035 21.1778 26.4628C16.0591 26.4613 10.939 26.4613 5.81879 26.4613ZM13.9087 21.4515C13.609 21.4515 13.3786 21.4515 13.0367 21.4515C13.0367 20.3609 13.0367 19.3181 13.0367 18.2754C12.7446 18.9598 12.2883 19.0633 11.6633 19.0463C10.0173 19.003 8.36833 19.0308 6.69374 19.0308C6.69374 21.2615 6.69374 23.4088 6.69374 25.5885C8.83517 25.5885 10.9254 25.5885 13.0985 25.5885C13.0985 24.6245 13.0985 23.7084 13.0985 22.78C13.3997 22.78 13.618 22.78 13.9192 22.78C13.9192 23.7254 13.9192 24.6399 13.9192 25.5869C16.0923 25.5869 18.181 25.5869 20.3089 25.5869C20.3089 23.3856 20.3089 21.2399 20.3089 19.0308C18.7367 19.0308 17.2112 19.0339 15.6842 19.0293C15.0155 19.0277 14.2475 19.2579 13.9072 18.2862C13.9087 19.3305 13.9087 20.3748 13.9087 21.4515ZM21.2079 18.1781C20.6793 16.5422 20.6793 16.5422 19.2171 16.5422C18.7156 16.5422 18.2156 16.5422 17.7142 16.5422C16.5742 16.5422 15.4327 16.5422 14.1677 16.5422C14.3665 16.9608 14.4719 17.2775 14.6541 17.5385C14.8243 17.7826 15.0712 18.1441 15.2911 18.1503C17.2413 18.1982 19.19 18.1781 21.2079 18.1781ZM5.83686 18.1457C6.08986 18.158 6.33081 18.1781 6.57176 18.1796C7.99938 18.1827 9.4255 18.1812 10.8531 18.1812C12.1814 18.1812 12.4313 17.9634 12.6768 16.5931C12.6286 16.5792 12.5804 16.5545 12.5322 16.5545C10.9043 16.5499 9.27792 16.5453 7.65 16.5437C6.34135 16.5406 6.18774 16.6735 5.83686 18.1457Z" fill="#444444" stroke="#444444" stroke-width="0.3"/>
<path d="M1 14.4119C1.25149 14.415 1.50449 14.4181 1.75598 14.4212L1.73791 14.3965C1.73791 14.7145 1.73791 15.0341 1.73791 15.3521L1.75598 15.3274C1.50298 15.3321 1.25149 15.3352 1 15.3382C1 15.0295 1 14.7207 1 14.4119Z" fill="#444444" stroke="#444444" stroke-width="0.3"/>
<path d="M1.756 2.50569C1.503 2.51032 1.2515 2.51341 1 2.5165C1 2.20772 1 1.89893 1 1.59015C1.25451 1.59323 1.50902 1.59632 1.76202 1.59941L1.73793 1.57471C1.73793 1.89276 1.73793 2.21235 1.73793 2.5304L1.756 2.50569Z" fill="#444444" stroke="#444444" stroke-width="0.3"/>
<path d="M24.0408 0.817871C24.0378 1.07577 24.0348 1.33521 24.0332 1.59311L24.0573 1.57458C23.7456 1.57458 23.4354 1.57458 23.1237 1.57458L23.1478 1.59311C23.1433 1.33521 23.1403 1.07577 23.1372 0.817871C23.4384 0.817871 23.7396 0.817871 24.0408 0.817871Z" fill="#444444" stroke="#444444" stroke-width="0.3"/>
<path d="M2.65661 0.817871C2.6536 1.07577 2.65059 1.33368 2.64758 1.59158L2.67017 1.57459C2.35994 1.57459 2.0482 1.57459 1.73798 1.57459L1.76207 1.5993C1.75906 1.33986 1.75605 1.07886 1.75304 0.817871C2.05423 0.817871 2.35542 0.817871 2.65661 0.817871Z" fill="#444444" stroke="#444444" stroke-width="0.3"/>
<path d="M25.2426 12.8778C25.4941 12.8747 25.7456 12.8701 25.9985 12.867C25.9985 13.1249 25.9985 13.3813 25.9985 13.6392C25.7471 13.6361 25.4956 13.6315 25.2456 13.6284L25.2607 13.65C25.2592 13.3875 25.2577 13.1249 25.2562 12.8608L25.2426 12.8778Z" fill="#444444" stroke="#444444" stroke-width="0.3"/>
<path d="M15.4103 7.6225C14.073 7.0154 12.9059 7.03393 11.6138 7.59778C11.665 6.12405 11.3925 4.87896 10.4753 3.80533C11.1244 3.49328 11.7479 3.30945 12.2282 2.93098C12.7086 2.55405 13.0475 1.98248 13.4993 1.43408C13.9209 1.95159 14.2537 2.51852 14.7296 2.89545C15.21 3.27701 15.8319 3.46857 16.5021 3.79761C15.6618 4.87123 15.2913 6.08235 15.4103 7.6225ZM15.1738 4.21161C14.5956 3.75899 14.0143 3.30636 13.5083 2.90935C12.933 3.35116 12.3623 3.78679 11.8247 4.19925C12.0355 4.88514 12.2614 5.62663 12.4752 6.32179C13.1514 6.32179 13.8577 6.32179 14.5158 6.32179C14.7326 5.62509 14.957 4.90831 15.1738 4.21161Z" fill="#444444" stroke="#444444" stroke-width="0.3"/>
<path d="M20.1162 8.09375C20.4927 8.87078 20.8677 9.64318 21.1734 10.2735C19.8904 11.6669 18.6841 12.9784 17.5125 14.2528C17.4975 11.4815 18.0245 9.40991 20.1162 8.09375ZM19.7217 9.21064C19.2534 10.0819 18.8829 10.7709 18.5124 11.4614C18.5697 11.4985 18.6269 11.5355 18.6826 11.5711C19.1886 11.103 19.6946 10.6349 20.2171 10.1514C20.0861 9.90116 19.9702 9.6818 19.7217 9.21064Z" fill="#444444" stroke="#444444" stroke-width="0.3"/>
<path d="M5.82501 10.2719C6.12469 9.65397 6.49816 8.88004 6.88368 8.08447C9.2269 9.56283 9.39556 11.9294 9.57025 14.3409C8.32937 12.9938 7.12161 11.6807 5.82501 10.2719ZM8.31732 11.5711C8.37605 11.5309 8.43629 11.4907 8.49502 11.4506C8.1095 10.7616 7.72399 10.0726 7.23456 9.19826C7.01018 9.69877 6.90024 9.93976 6.79483 10.1761C7.33244 10.6689 7.82488 11.12 8.31732 11.5711Z" fill="#444444" stroke="#444444" stroke-width="0.3"/>
<path d="M3.22723 9.44539C3.01941 8.7799 2.80256 8.08508 2.59625 7.42113C3.1188 7.01042 3.68051 6.56882 4.22715 6.14111C4.73465 6.54566 5.29033 6.9888 5.85052 7.43657C5.65927 8.06191 5.44092 8.77218 5.2331 9.44693C4.60363 9.44539 3.90188 9.44539 3.22723 9.44539ZM4.77832 7.77627C4.57954 7.62032 4.40485 7.48444 4.22715 7.34547C4.04343 7.49216 3.86875 7.62958 3.54347 7.88898C3.85971 8.16845 4.12927 8.40469 4.48466 8.71659C4.6217 8.27654 4.68947 8.06346 4.77832 7.77627Z" fill="#444444" stroke="#444444" stroke-width="0.3"/>
<path d="M24.4022 7.42747C24.1974 8.08523 23.9791 8.7816 23.7712 9.44708C23.1463 9.44708 22.446 9.44708 21.7609 9.44708C21.5756 8.82637 21.3618 8.11302 21.1525 7.41511C21.6539 7.02138 22.2156 6.58133 22.7804 6.13818C23.2894 6.54272 23.8631 6.99822 24.4022 7.42747ZM22.7683 7.34409C22.5876 7.48768 22.4129 7.62665 22.2247 7.77796C22.303 8.0281 22.3753 8.26125 22.5228 8.73219C22.8813 8.40331 23.1448 8.15934 23.4505 7.87833C23.1252 7.62202 22.949 7.4846 22.7683 7.34409Z" fill="#444444" stroke="#444444" stroke-width="0.3"/>
<path d="M17.2355 7.23633C17.4072 7.36609 17.5834 7.49894 17.6722 7.56537C17.1632 8.76103 16.5368 9.86092 16.2311 11.0489C15.9223 12.2461 15.9299 13.5283 15.7928 14.8413C15.6483 14.849 15.4374 14.8583 15.2627 14.8676C14.4134 13.8094 15.6769 8.99121 17.2355 7.23633Z" fill="#444444" stroke="#444444" stroke-width="0.3"/>
<path d="M9.33527 7.55632C9.41056 7.50071 9.58525 7.36631 9.78856 7.21338C11.5972 9.44405 12.0656 11.9991 11.8186 14.8214C11.6183 14.8431 11.4075 14.8647 11.1996 14.8863C11.0716 13.6011 11.0867 12.322 10.784 11.1263C10.4828 9.9322 9.86536 8.8215 9.33527 7.55632Z" fill="#444444" stroke="#444444" stroke-width="0.3"/>
<path d="M13.1302 9.53027C13.3847 9.53027 13.6001 9.53027 13.8666 9.53027C13.8666 11.3021 13.8666 13.0555 13.8666 14.8428C13.6136 14.8428 13.3968 14.8428 13.1302 14.8428C13.1302 13.0725 13.1302 11.3207 13.1302 9.53027Z" fill="#444444" stroke="#444444" stroke-width="0.3"/>
<path d="M24.3495 12.8823C24.366 12.6074 24.3841 12.3325 24.4037 12.0128C24.6462 11.9958 24.857 11.9819 25.1236 11.9634C25.1672 12.2939 25.2049 12.5857 25.2441 12.8792L25.2561 12.8622C24.9489 12.8622 24.6401 12.8622 24.3329 12.8606C24.3314 12.8606 24.3495 12.8823 24.3495 12.8823Z" fill="#444444" stroke="#444444" stroke-width="0.3"/>
<path d="M7.07947 4.97284C7.07947 4.65315 7.07947 4.43694 7.07947 4.19756C7.7391 3.97671 7.965 4.19447 7.78879 4.92033C7.58398 4.93577 7.37464 4.95122 7.07947 4.97284Z" fill="#444444" stroke="#444444" stroke-width="0.3"/>
<path d="M20.0289 4.92999C19.66 4.92999 19.4491 4.92999 19.1178 4.92999C19.1841 4.63657 19.2006 4.37249 19.3136 4.16555C19.3527 4.09297 19.7202 4.08679 19.7804 4.17018C19.9069 4.34469 19.931 4.59951 20.0289 4.92999Z" fill="#444444" stroke="#444444" stroke-width="0.3"/>
<path d="M24.0333 2.51221C24.0107 2.73451 23.9881 2.95681 23.9595 3.25012C23.7276 3.26556 23.4987 3.27945 23.2261 3.29797C23.196 2.99849 23.1704 2.75458 23.1463 2.51221L23.1237 2.53073C23.4354 2.53073 23.7457 2.53073 24.0574 2.53073L24.0333 2.51221Z" fill="#444444" stroke="#444444" stroke-width="0.3"/>
<path d="M13.9886 8.63407C13.6303 8.65569 13.4194 8.66805 13.0791 8.68967C13.1318 8.38851 13.1348 8.1275 13.2372 7.92055C13.2764 7.84333 13.6393 7.81862 13.6995 7.89739C13.8396 8.07499 13.8802 8.33136 13.9886 8.63407Z" fill="#444444" stroke="#444444" stroke-width="0.3"/>
<path d="M1.75605 14.4209C1.77713 14.197 1.79972 13.973 1.82683 13.6843C2.06477 13.6688 2.29669 13.6518 2.58282 13.6333C2.60692 13.9267 2.628 14.1692 2.64758 14.4132L2.67017 14.3962C2.35994 14.3962 2.0482 14.3962 1.73798 14.3962L1.75605 14.4209Z" fill="#444444" stroke="#444444" stroke-width="0.3"/>
<path d="M2.64758 2.51252C2.63402 2.738 2.61896 2.96193 2.60089 3.2538C2.35542 3.2677 2.1235 3.2816 1.85394 3.2955C1.81629 2.9959 1.78617 2.7519 1.75605 2.50635L1.73798 2.53106C2.0482 2.53106 2.35994 2.53106 2.67017 2.53106L2.64758 2.51252Z" fill="#444444" stroke="#444444" stroke-width="0.3"/>
<path d="M24.0333 1.59323C24.2486 1.61794 24.4655 1.6411 24.7471 1.67197C24.7621 1.91283 24.7757 2.1475 24.7938 2.43158C24.5061 2.46246 24.2712 2.48717 24.0348 2.51187L24.0574 2.5304C24.0574 2.21235 24.0574 1.89276 24.0574 1.57471L24.0333 1.59323Z" fill="#444444" stroke="#444444" stroke-width="0.3"/>
<path d="M23.1462 2.51187C22.9249 2.49643 22.7035 2.48253 22.4173 2.46246C22.4023 2.20926 22.3887 1.96995 22.3737 1.6905C22.6658 1.65345 22.9068 1.62411 23.1462 1.59323L23.1221 1.57471C23.1221 1.89276 23.1221 2.21235 23.1221 2.5304L23.1462 2.51187Z" fill="#444444" stroke="#444444" stroke-width="0.3"/>
<path d="M2.64758 14.4135C2.86594 14.4366 3.08429 14.4598 3.37041 14.4907C3.38547 14.733 3.40053 14.9693 3.4201 15.2595C3.12796 15.2858 2.89003 15.3074 2.6521 15.329L2.67017 15.3521C2.67017 15.0341 2.67017 14.7145 2.67017 14.3965L2.64758 14.4135Z" fill="#444444" stroke="#444444" stroke-width="0.3"/>
<path d="M2.65209 15.3297C2.63703 15.5551 2.62198 15.7804 2.6024 16.0738C2.35693 16.0877 2.12501 16.1015 1.85394 16.1185C1.81629 15.819 1.78617 15.5736 1.75605 15.3281L1.73798 15.3528C2.0482 15.3528 2.35994 15.3528 2.67017 15.3528L2.65209 15.3297Z" fill="#444444" stroke="#444444" stroke-width="0.3"/>
<path d="M25.2455 13.6289C25.2154 13.8728 25.1853 14.1152 25.1491 14.3992C24.8961 14.3992 24.6687 14.3992 24.4022 14.3992C24.3841 14.1183 24.3675 13.8744 24.351 13.6305L24.3299 13.6505C24.6401 13.6505 24.9503 13.6505 25.2606 13.6505L25.2455 13.6289Z" fill="#444444" stroke="#444444" stroke-width="0.3"/>
<path d="M2.64758 1.59177C2.86593 1.61493 3.08579 1.63808 3.3719 1.66896C3.38696 1.91135 3.40201 2.14756 3.41858 2.43318C3.12494 2.46251 2.88551 2.48722 2.64758 2.51037L2.67017 2.5289C2.67017 2.21086 2.67017 1.89128 2.67017 1.57324L2.64758 1.59177Z" fill="#444444" stroke="#444444" stroke-width="0.3"/>
<path d="M17.8259 5.79688C18.2551 5.79688 18.4523 5.79688 18.7053 5.79688C18.7234 6.03162 18.74 6.24937 18.761 6.53507C18.5291 6.55515 18.2596 6.65708 18.1707 6.56905C18.0141 6.41307 17.9674 6.14126 17.8259 5.79688Z" fill="#444444" stroke="#444444" stroke-width="0.3"/>
<path d="M8.15173 5.80908C8.54627 5.80908 8.76161 5.80908 9.07935 5.80908C9.02664 6.08707 9.02965 6.34499 8.92123 6.5334C8.87304 6.6168 8.51465 6.63996 8.44538 6.55811C8.30684 6.39749 8.2722 6.14421 8.15173 5.80908Z" fill="#444444" stroke="#444444" stroke-width="0.3"/>
<path d="M24.3495 13.63C24.1297 13.63 23.9113 13.63 23.6372 13.63C23.6372 13.3782 23.6372 13.145 23.6372 12.8315C23.8857 12.8485 24.1161 12.8655 24.348 12.8825L24.3315 12.8609C24.33 13.1234 24.33 13.3875 24.3285 13.6501L24.3495 13.63Z" fill="#444444" stroke="#444444" stroke-width="0.3"/>
<path d="M7.45892 22.3555C8.27814 22.3555 9.03562 22.3555 9.83827 22.3555C9.84881 22.604 9.85935 22.8232 9.8714 23.1042C9.07778 23.1042 8.32482 23.1042 7.49958 23.1042C7.48603 22.8742 7.47398 22.638 7.45892 22.3555Z" fill="#444444" stroke="#444444" stroke-width="0.3"/>
<path d="M7.49652 24.7862C7.49652 24.4882 7.49652 24.2737 7.49652 24.0205C8.27058 24.0205 9.00851 24.0205 9.78709 24.0205C9.96479 24.5006 9.95576 24.8248 9.29464 24.7908C8.72539 24.763 8.15463 24.7862 7.49652 24.7862Z" fill="#444444" stroke="#444444" stroke-width="0.3"/>
<path d="M10.7148 24.022C10.9572 24.0097 11.1711 23.9988 11.4452 23.9834C11.4647 24.2382 11.4813 24.4513 11.5024 24.7417C11.2193 24.7556 10.9888 24.7664 10.7133 24.7787C10.7148 24.4961 10.7148 24.2815 10.7148 24.022Z" fill="#444444" stroke="#444444" stroke-width="0.3"/>
</svg>
