<svg width="56" height="39" viewBox="0 0 56 39" fill="none" xmlns="http://www.w3.org/2000/svg">
<path d="M55.8605 38.4357C55.5996 38.562 55.3482 38.7688 55.075 38.7992C54.4918 38.8646 54.247 38.613 54.246 38.0444C54.2422 36.1195 54.2772 34.1945 54.2337 32.2704C54.1997 30.7456 53.8906 30.2845 52.2676 29.8422C51.3886 29.6032 50.5095 29.3632 49.6219 29.1555C49.431 29.1107 49.138 29.1331 49.0056 29.245C48.4678 29.7016 47.9848 30.2156 47.4602 30.6874C47.1993 30.922 47.1076 31.1736 47.1095 31.512C47.1246 33.6456 47.1171 35.7792 47.1171 37.9128C47.1171 38.5861 46.9205 38.7679 46.3231 38.8243C45.702 38.8834 45.3967 38.4071 45.3939 37.8994C45.3816 36.2135 45.3892 34.5275 45.3892 32.8416C45.3892 32.6778 45.3618 32.5085 45.3939 32.3501C45.617 31.2595 45.1491 30.4573 44.2492 29.8252C44.149 29.7545 44.0432 29.6766 43.9761 29.5799C43.6235 29.074 43.1868 28.8967 42.5724 29.2961C42.6348 29.3901 42.7161 29.5208 42.8049 29.647C43.2586 30.2926 43.6282 30.9739 43.6329 31.7699C43.6443 33.7844 43.6367 35.798 43.6367 37.8126C43.6367 38.5637 43.4458 38.7974 42.8484 38.8171C42.2595 38.8368 41.9873 38.5682 41.9136 37.7884C41.8653 37.2852 41.9041 36.7749 41.9041 36.2672C41.9041 34.9242 41.8852 33.5812 41.9098 32.239C41.9343 30.8853 41.2519 30.1046 39.9947 29.6551C38.4134 29.0892 36.8244 28.5422 35.2279 28.0175C35.0965 27.9745 34.813 28.1187 34.7137 28.2521C34.0426 29.1555 33.3582 30.0553 32.7646 31.0053C32.2466 31.8335 30.8732 32.0474 30.1142 31.3052C29.7219 30.9211 29.3731 30.4985 29.0045 30.0929C28.9355 30.1305 28.8655 30.1672 28.7965 30.2048C28.7965 30.3579 28.7965 30.511 28.7965 30.665C28.7965 33.0825 28.7965 35.499 28.7965 37.9164C28.7965 38.5261 28.5139 38.818 27.925 38.8171C27.3645 38.8162 27.0649 38.4966 27.0649 37.8869C27.0639 35.4694 27.0649 33.0529 27.063 30.6355C27.063 30.494 27.0498 30.3517 27.0431 30.2102C26.9808 30.1645 26.9184 30.1198 26.856 30.0741C26.4486 30.5227 26.0705 30.9999 25.6262 31.4118C24.9239 32.0627 23.7849 31.8352 23.2792 31.1996C22.5325 30.2603 21.8661 29.2629 21.1817 28.2798C20.9842 27.996 20.8226 27.9351 20.4577 28.0784C19.485 28.4616 18.4812 28.7714 17.4925 29.117C16.793 29.3614 16.0784 29.5772 15.4064 29.8771C14.447 30.3051 13.9592 31.0599 13.9583 32.0752C13.9554 34.0002 13.9602 35.9252 13.9554 37.8493C13.9545 38.4241 13.6841 38.9076 12.9412 38.8207C12.5234 38.7724 12.2275 38.5073 12.2275 38.0946C12.2228 35.9458 12.2067 33.7969 12.2417 31.649C12.2483 31.2381 12.4657 30.8298 12.5924 30.4224C12.652 30.2308 12.9308 30.0276 12.599 29.8556C12.3117 29.7061 12.0479 29.5217 11.6821 29.8422C11.1736 30.2881 10.6169 30.717 10.0072 31.0205C8.9438 31.5496 7.40118 31.3115 6.46067 30.5227C6.15631 30.2675 5.86518 29.9953 5.54096 29.7661C5.43226 29.69 5.20918 29.6605 5.08914 29.7133C4.24126 30.0893 3.38583 30.4573 2.57576 30.8987C1.86306 31.2873 1.62297 31.9794 1.61351 32.7172C1.59177 34.4326 1.6069 36.149 1.60595 37.8645C1.60595 38.219 1.65983 38.596 1.1995 38.7661C0.771311 38.9246 0.356353 38.8127 0 38.4375C0 36.1392 0 33.8417 0 31.5434C0.274118 30.8602 0.617238 30.2004 1.26567 29.7822C1.84132 29.4116 2.48502 29.134 3.09942 28.817C3.3707 28.6774 3.64388 28.5422 3.86601 28.4303C3.1136 27.9119 2.33473 27.4454 1.65038 26.8777C1.23542 26.5339 0.783599 26.1212 0.881903 25.4819C0.891355 25.4228 0.869615 25.3539 0.894191 25.3046C1.46228 24.164 1.50859 22.9418 1.5379 21.7143C1.55396 21.0482 1.59461 20.382 1.64093 19.7168C1.76286 17.9413 2.1712 16.2769 3.37732 14.8219C4.38588 13.6052 5.69976 12.8495 7.21308 12.529C9.18673 12.1109 11.08 12.4636 12.737 13.6661C14.4224 14.8891 15.3827 16.4971 15.5775 18.4929C15.6928 19.672 15.671 20.8637 15.8119 22.0384C15.9347 23.069 16.1351 24.1004 16.4225 25.1005C16.5945 25.6968 16.4924 26.1615 16.0605 26.5321C15.2816 27.2001 14.4488 27.8116 13.5934 28.4822C13.7938 28.5064 14.0793 28.6263 14.29 28.5538C16.0841 27.936 17.8687 27.2896 19.6467 26.6297C19.831 26.5608 19.9671 26.3575 20.107 26.2018C20.2686 26.0218 20.3972 25.815 20.5617 25.6386C20.935 25.2393 21.3292 24.8569 21.6988 24.454C21.781 24.3645 21.8273 24.2204 21.8358 24.0986C21.8557 23.8013 21.7971 23.4942 21.851 23.205C22.0362 22.2085 21.5712 21.5361 20.8452 20.844C19.6174 19.6729 18.9113 18.1875 18.5691 16.5697C18.4387 15.9528 18.3508 15.3144 18.3593 14.6876C18.3744 13.598 18.2648 12.5567 17.8574 11.5146C17.5889 10.8269 17.518 10.0453 17.4953 9.30216C17.4622 8.20626 17.4717 7.09783 17.6106 6.01088C17.7572 4.85858 18.3073 3.82446 19.0474 2.88972C19.9718 1.7213 21.1676 0.889523 22.6128 0.413201C23.249 0.20369 23.9371 0.0273079 24.6035 0.0219359C28.9034 -0.0129825 33.2042 0.00402904 37.505 0.00492438C38.1856 0.00492438 38.3765 0.183993 38.3774 0.821477C38.3793 3.80565 38.3935 6.78983 38.3689 9.77401C38.3604 10.7687 38.039 11.7133 37.6496 12.6355C37.5711 12.8226 37.5296 13.0348 37.5258 13.2363C37.5116 13.9669 37.5513 14.7002 37.5135 15.429C37.4199 17.2635 36.7497 18.9056 35.5682 20.3561C35.2355 20.7643 34.8782 21.169 34.467 21.503C34.0842 21.8128 33.967 22.1557 34.0199 22.5971C34.036 22.7296 34.0483 22.8711 34.018 22.9991C33.7666 24.0879 34.4122 24.8023 35.1353 25.5034C35.3905 25.7505 35.5417 26.0943 35.796 26.3423C35.9784 26.5205 36.2403 26.6485 36.4907 26.7363C37.7848 27.1911 39.0845 27.6325 40.3889 28.0596C40.525 28.1044 40.7112 28.0309 40.8691 27.9924C41.3927 27.8626 41.9145 27.7256 42.4353 27.586C42.6896 27.5179 42.8456 27.3773 42.7964 27.1007C42.786 27.0425 42.7917 26.9816 42.7955 26.9216C42.8295 26.4668 42.734 26.1337 42.3106 25.7827C41.1016 24.7791 40.369 23.4969 40.2688 21.939C40.2651 21.8817 40.214 21.8235 40.2216 21.7707C40.4191 20.3426 39.4966 19.133 39.3444 17.7981C39.1922 16.4649 39.5854 15.1756 40.5779 14.111C41.3086 13.3276 42.2104 12.8316 43.2444 12.5361C43.5809 12.4403 43.9477 12.4 44.3012 12.3992C46.9791 12.3884 49.6569 12.3929 52.3348 12.3938C52.9321 12.3938 53.2129 12.6633 53.2138 13.2381C53.2157 14.5963 53.1996 15.9537 53.2195 17.311C53.2308 18.0998 53.0683 18.8394 52.6599 19.5216C52.4198 19.9227 52.3291 20.3328 52.3423 20.7948C52.3678 21.6946 52.4047 22.5962 52.0417 23.4674C51.6003 24.5257 50.9273 25.4174 49.9698 26.0916C49.5539 26.3844 49.741 26.7479 49.7552 27.0667C49.7628 27.2511 50.0038 27.5251 50.1985 27.586C51.3007 27.9271 52.4321 28.184 53.5314 28.5296C54.7035 28.8976 55.4673 29.6667 55.7678 30.8217C55.7773 30.8584 55.8293 30.8844 55.8605 30.9157C55.8605 33.4218 55.8605 35.9288 55.8605 38.4357ZM36.6788 1.64788C36.521 1.63713 36.4293 1.62639 36.3376 1.62639C32.4177 1.62549 28.4969 1.62549 24.577 1.62549C24.4825 1.62549 24.3851 1.61833 24.2944 1.63892C22.7348 1.98632 21.3755 2.63723 20.4218 3.91668C19.6486 4.95348 19.158 6.07535 19.176 7.36733C19.1854 8.03794 19.1041 8.7184 19.1958 9.37827C19.3111 10.202 19.5607 11.0096 19.7544 11.8234C19.849 12.221 20.0172 12.6149 20.0314 13.0151C20.072 14.1979 19.9397 15.3968 20.3093 16.5491C21.2366 19.4464 23.1374 21.4108 26.3276 22.1441C28.0224 22.5335 29.6369 22.3061 31.1965 21.6507C32.5255 21.0929 33.5974 20.2003 34.432 19.0892C35.1013 18.1974 35.5748 17.1874 35.692 16.088C35.7951 15.1156 35.7554 14.1307 35.8225 13.1539C35.8527 12.7197 35.9293 12.2702 36.0919 11.8655C36.4614 10.9451 36.7044 10.0202 36.6874 9.02371C36.6571 7.23482 36.6788 5.44503 36.6788 3.65524C36.6788 3.00074 36.6788 2.34714 36.6788 1.64788ZM51.5181 14.0143C51.2704 14.0143 51.0852 14.0143 50.8999 14.0143C48.8686 14.0143 46.8373 14.0278 44.8069 14.009C43.7558 13.9991 42.8758 14.3 42.0969 14.9921C41.1819 15.805 40.6365 17.4238 41.4088 18.6164C41.7907 19.2055 41.906 19.8403 41.8843 20.5289C41.8663 21.1028 41.8483 21.7098 42.0194 22.2488C42.562 23.9625 43.6339 25.1658 45.6123 25.5687C47.3345 25.9197 49.4253 24.7746 50.1711 23.4253C50.6863 22.4923 50.6986 21.4931 50.6485 20.4859C50.621 19.9344 50.7732 19.4464 51.0398 18.9602C51.2468 18.5842 51.4765 18.1687 51.4963 17.7623C51.5559 16.5428 51.5181 15.3198 51.5181 14.0143ZM13.9554 20.365C14.0698 18.8501 13.8297 17.8831 13.1784 16.6296C12.2559 14.856 9.84744 13.6705 7.74335 14.1093C6.35386 14.3985 5.26968 15.0843 4.48986 16.1524C3.52478 17.4757 3.29414 19.0041 3.3811 20.6121C4.1543 20.776 4.40101 21.2756 4.33862 21.9659C4.33201 22.0393 4.32917 22.1172 4.34618 22.1888C4.68363 23.6232 5.55608 24.6815 6.95598 25.2858C9.46179 26.3674 12.4109 24.9062 12.9743 22.3133C13.0055 22.1709 12.9488 21.982 12.8675 21.8504C12.151 20.6972 11.1103 19.8976 9.77561 19.4813C9.07519 19.2628 8.34074 19.1348 7.61386 19.0041C7.46829 18.9781 7.25561 19.0918 7.13084 19.1993C6.76976 19.5091 6.44366 19.8547 6.09203 20.1752C5.7716 20.4671 5.28291 20.5181 4.97571 20.3113C4.68174 20.1134 4.50593 19.5306 4.76398 19.2467C5.33112 18.6209 5.96064 18.0452 6.58733 17.4704C6.69131 17.3746 6.90871 17.3495 7.07035 17.3576C7.51933 17.379 7.97305 17.4032 8.41258 17.4838C9.06479 17.6029 9.72929 17.7157 10.3503 17.9297C11.7483 18.4114 12.9658 19.1679 13.9554 20.365ZM23.5458 22.9445C23.5458 23.4056 23.524 23.7476 23.5571 24.0852C23.5694 24.2096 23.6838 24.36 23.7981 24.4361C25.0459 25.259 26.3068 26.063 27.5517 26.8885C27.8248 27.0693 28.029 27.072 28.3031 26.8903C29.3722 26.183 30.4611 25.5025 31.5321 24.7979C31.8071 24.617 32.1682 24.4281 32.2684 24.1657C32.396 23.8327 32.2996 23.4226 32.2996 22.9821C29.3627 24.2526 26.4968 24.2732 23.5458 22.9445ZM33.0907 25.7648C31.8071 26.602 30.5745 27.4051 29.3987 28.1715C30.0641 28.8278 30.688 29.4438 31.3411 30.0884C32.1824 28.894 33.0028 27.7292 33.8053 26.5903C33.5539 26.3002 33.3384 26.0513 33.0907 25.7648ZM24.5657 30.1108C25.2557 29.4572 25.8767 28.8699 26.562 28.2207C25.2954 27.4006 24.0657 26.6047 22.8425 25.8132C22.662 25.9824 22.5382 26.1194 22.3926 26.2313C22.1071 26.4489 22.0769 26.6396 22.3217 26.935C22.7036 27.397 23.0231 27.9056 23.3671 28.3962C23.7518 28.9442 24.1347 29.4939 24.5657 30.1108ZM7.02687 27.0675C6.97299 27.4024 6.95125 27.7408 6.86051 28.0605C6.71872 28.5565 6.90777 28.8699 7.37377 29.0749C7.42859 29.0991 7.47113 29.1492 7.51839 29.1877C8.25756 29.7858 8.92206 29.8494 9.71606 29.3229C10.0507 29.1009 10.4628 28.8054 10.5507 28.4741C10.6641 28.0479 10.4874 27.5528 10.4297 27.0317C9.3011 27.3523 8.16776 27.3066 7.02687 27.0675ZM44.4695 27.0219C44.5215 27.3326 44.4751 27.6531 44.6226 27.8196C45.1302 28.3962 45.7049 28.92 46.342 29.5503C46.8685 29.0104 47.3014 28.5207 47.7872 28.0847C48.1568 27.7534 48.205 27.4427 47.9366 27.0595C46.7985 27.3388 45.6794 27.303 44.4695 27.0219ZM5.14491 27.0353C5.20257 27.004 5.25928 26.9735 5.31694 26.9422C5.22714 26.6655 5.19973 26.3468 5.03148 26.123C4.81975 25.84 4.45867 25.661 4.2233 25.3897C3.81685 24.9214 3.45672 24.4164 3.09942 23.9553C2.98599 24.3618 2.84988 24.7916 2.75441 25.2294C2.72416 25.3691 2.74874 25.5786 2.84232 25.6744C3.47562 26.3316 4.28002 26.7345 5.14491 27.0353ZM14.2825 24.0628C13.7825 24.6439 13.3297 25.3351 12.7077 25.8373C12.2644 26.1955 12.116 26.508 12.2342 27.0389C12.979 26.7551 13.6917 26.4578 14.2636 25.9126C14.4763 25.7093 14.7248 25.5338 14.6284 25.1999C14.5103 24.7916 14.3817 24.386 14.2825 24.0628Z" fill="#115C07"/>
<path d="M52.3505 35.6103C52.3505 36.4286 52.3533 37.2469 52.3495 38.0653C52.3476 38.5344 52.1586 38.7573 51.7351 38.8111C51.2086 38.8782 50.8901 38.7153 50.7634 38.2783C50.6982 38.0536 50.6585 37.8155 50.6566 37.5827C50.6472 36.2585 50.6472 34.9343 50.6557 33.6102C50.6566 33.3935 50.702 33.1741 50.7493 32.9602C50.8542 32.4901 51.1935 32.217 51.599 32.2582C52.083 32.3075 52.3467 32.6011 52.3486 33.1106C52.3533 33.9432 52.3505 34.7768 52.3505 35.6103Z" fill="#115C07"/>
<path d="M5.25621 36.1147C5.20328 36.8382 5.18815 37.5661 5.08418 38.2833C5.02085 38.7203 4.63992 38.8868 4.11532 38.8098C3.66728 38.7436 3.49525 38.4785 3.49808 38.0595C3.50753 36.7182 3.49997 35.377 3.50281 34.0357C3.50375 33.6543 3.82986 33.3257 4.25048 33.2701C4.58037 33.2263 5.01801 33.5477 5.10308 33.8933C5.13428 34.0223 5.19666 34.1503 5.19855 34.2792C5.20895 34.8899 5.20328 35.5014 5.20328 36.1121C5.22029 36.113 5.23825 36.1138 5.25621 36.1147Z" fill="#115C07"/>
<path d="M38.3737 36.4334C38.3737 36.985 38.369 37.5374 38.3756 38.089C38.3794 38.4829 38.2168 38.7462 37.782 38.8097C37.1922 38.8957 36.9115 38.7515 36.7678 38.2833C36.7253 38.1436 36.6846 37.9959 36.6837 37.8526C36.6761 36.8829 36.6761 35.9132 36.6818 34.9435C36.6846 34.5397 36.7971 34.1843 37.2281 33.9945C37.6837 33.7939 38.4191 34.1252 38.3822 34.6893C38.3444 35.2686 38.3737 35.8514 38.3737 36.4334Z" fill="#115C07"/>
<path d="M17.4747 36.3928C17.4747 35.8565 17.4718 35.3202 17.4756 34.7838C17.4784 34.3174 17.8688 33.9118 18.3169 33.901C18.711 33.8912 19.1704 34.3272 19.1742 34.7516C19.1846 35.8538 19.1874 36.9569 19.1733 38.059C19.1666 38.5703 18.8235 38.8308 18.2412 38.8147C17.78 38.8022 17.4794 38.5049 17.4756 38.0465C17.4718 37.495 17.4747 36.9434 17.4747 36.3928Z" fill="#115C07"/>
<path d="M22.6755 8.88508C22.6755 9.50286 22.6859 10.0947 22.6718 10.6874C22.6623 11.084 22.3107 11.503 21.9137 11.5263C21.545 11.5478 21.2067 11.4028 21.0441 11.0482C20.9911 10.9318 20.977 10.7921 20.9751 10.6632C20.9675 10.0974 20.9959 9.52972 20.9656 8.96477C20.9278 8.26014 21.5063 7.48658 22.3986 7.32363C24.3675 6.9646 26.3534 6.93953 28.3261 7.04966C30.2005 7.15441 32.0494 7.52687 33.661 8.55023C33.9569 8.73825 34.2414 8.94776 34.5014 9.17696C34.9494 9.5718 35.0127 10.1314 34.6762 10.4627C34.3936 10.7402 33.6828 10.7214 33.3141 10.3866C32.2394 9.40796 30.8877 9.09191 29.4803 8.84838C28.1437 8.61738 26.8024 8.61828 25.4602 8.65409C24.5481 8.67737 23.6378 8.80092 22.6755 8.88508Z" fill="#115C07"/>
<path d="M49.7255 18.1919C49.7198 18.764 49.2207 19.1195 48.6507 18.9126C47.5401 18.5097 46.3935 18.3029 45.2082 18.2563C44.7091 18.2366 44.2119 18.1883 43.7138 18.1552C43.1996 18.1203 42.7695 17.703 42.8026 17.2661C42.8319 16.8784 43.2828 16.5068 43.7488 16.5212C45.4625 16.574 47.1648 16.7065 48.802 17.2446C49.4939 17.472 49.7302 17.7111 49.7255 18.1919Z" fill="#115C07"/>
</svg>
