<svg width="25" height="22" viewBox="0 0 25 22" fill="none" xmlns="http://www.w3.org/2000/svg">
<path d="M0.00160088 21.3915C0.129671 21.1892 0.261263 20.9886 0.385171 20.7842C1.0633 19.666 1.74143 18.5475 2.41636 17.4276C3.09129 16.3074 3.76078 15.1845 4.43571 14.0643C4.89964 13.2943 5.37126 12.5278 5.83584 11.7581C6.44545 10.7485 7.05058 9.73706 7.65924 8.72682C8.13342 7.94005 8.6108 7.15473 9.08242 6.36652C9.11539 6.31123 9.12468 6.23857 9.12468 6.17402C9.12692 4.34141 9.13172 2.5088 9.12084 0.676193C9.11924 0.383253 9.17463 0.145891 9.47879 0C11.6134 0 13.7477 0 15.8823 0C15.9047 0.0182364 15.9249 0.0396569 15.9502 0.0538407C16.2627 0.229547 16.3133 0.569959 16.0562 0.803268C15.5368 1.27539 15.0146 1.7449 14.4937 2.21586C14.4684 2.23873 14.4457 2.26362 14.3976 2.31139C14.6784 2.55656 14.9548 2.79508 15.2272 3.03708C15.4859 3.26634 15.7357 3.5037 15.9988 3.7289C16.1887 3.89129 16.2736 4.07684 16.1769 4.29973C16.0779 4.52812 15.8605 4.59267 15.607 4.59267C13.8514 4.5918 12.0959 4.59209 10.3404 4.59238C10.1307 4.59238 10.1304 4.59267 10.1304 4.78082C10.1304 5.21502 10.1239 5.64922 10.1345 6.08342C10.1374 6.20355 10.1652 6.33525 10.2267 6.43975C10.651 7.15907 11.087 7.8729 11.5196 8.58846C12.0616 9.48522 12.6047 10.3817 13.1461 11.2788C13.6209 12.0652 14.0941 12.8526 14.5683 13.6396C14.9746 14.3135 15.3809 14.9871 15.7875 15.6607C15.8048 15.6891 15.8256 15.7157 15.8657 15.7733C15.9822 15.5597 16.0872 15.3698 16.1897 15.1787C16.6693 14.2866 17.1483 13.3945 17.6269 12.502C17.6756 12.4114 17.7249 12.3211 17.7675 12.2285C17.8533 12.0427 18.0092 11.9243 18.2247 11.9159C18.4392 11.9078 18.6137 12.0114 18.7191 12.1848C19.1849 12.9496 19.646 13.7166 20.1109 14.482C20.5527 15.2094 20.9968 15.9357 21.4393 16.6628C21.915 17.4447 22.3892 18.2274 22.8647 19.0092C23.271 19.6773 23.6779 20.3451 24.0862 21.0123C24.1649 21.1409 24.2507 21.2656 24.3333 21.3921C24.3333 21.4885 24.3333 21.5852 24.3333 21.6816C24.2158 21.7878 24.0986 21.8938 23.9811 22C16.1048 22 8.22851 22 0.352193 22C0.234689 21.8938 0.117504 21.7878 0 21.6816C0.00160088 21.5846 0.00160088 21.4879 0.00160088 21.3915ZM1.36299 21.0809C6.88601 21.0809 12.3719 21.0809 17.9023 21.0809C16.1733 18.2149 14.4598 15.3744 12.7465 12.5336C12.7241 12.5232 12.7017 12.513 12.6793 12.5026C12.646 12.5524 12.622 12.6109 12.5781 12.6508C12.2259 12.9718 11.8747 13.2937 11.5138 13.6066C11.2715 13.8168 10.9884 13.8101 10.7774 13.5791C10.5046 13.2798 10.2539 12.9643 9.99364 12.6557C9.87581 12.5162 9.75831 12.3764 9.63312 12.2279C9.5201 12.3614 9.4202 12.4783 9.32127 12.5964C9.04656 12.9252 8.78241 13.2622 8.49425 13.5812C8.2887 13.8084 7.97909 13.8087 7.75337 13.6092C7.5872 13.4625 7.42199 13.3146 7.25966 13.1646C7.02657 12.9496 6.79636 12.7322 6.54311 12.4951C4.80743 15.3721 3.09225 18.2149 1.36299 21.0809ZM18.282 13.3756C18.1645 13.5933 18.0643 13.7777 17.9654 13.9624C17.4909 14.8493 17.0183 15.7371 16.5399 16.6226C16.4826 16.7288 16.4785 16.8148 16.5428 16.9196C16.9187 17.5309 17.2892 18.1449 17.6606 18.7588C18.1082 19.499 18.5558 20.2389 18.9992 20.9811C19.0498 21.0656 19.1097 21.0937 19.2131 21.0937C20.4131 21.0908 21.6131 21.0919 22.8131 21.0914C22.8576 21.0914 22.9021 21.0841 22.9678 21.0783C21.4031 18.5061 19.8509 15.9548 18.282 13.3756ZM11.2202 12.6057C11.5474 12.3023 11.8571 12.0183 12.1599 11.7283C12.1875 11.702 12.1897 11.6302 12.1708 11.5928C12.103 11.4576 12.0232 11.3277 11.9445 11.1971C11.2586 10.0601 10.5728 8.92366 9.88574 7.78722C9.80665 7.65609 9.72149 7.52785 9.62864 7.38138C9.23482 8.03413 8.85701 8.66169 8.4776 9.28839C8.01687 10.05 7.55358 10.8101 7.09733 11.574C7.07332 11.6142 7.08196 11.702 7.11494 11.7338C7.41686 12.0236 7.72775 12.3055 8.03416 12.5883C8.07739 12.553 8.1094 12.5342 8.13086 12.5084C8.46736 12.1011 8.80899 11.697 9.13557 11.2834C9.45606 10.8773 9.88606 10.9676 10.1275 11.2825C10.4656 11.7225 10.8357 12.1428 11.2202 12.6057ZM14.4642 0.971448C14.4534 0.953791 14.4422 0.935844 14.4313 0.918186C14.3855 0.914713 14.34 0.908345 14.2942 0.908345C12.9665 0.907766 11.639 0.909502 10.3112 0.905739C10.171 0.90545 10.1271 0.946554 10.1278 1.07247C10.1326 1.87748 10.1345 2.68248 10.1265 3.48749C10.1249 3.63396 10.1809 3.66088 10.3282 3.66059C11.64 3.65596 12.9514 3.65798 14.2632 3.65769C14.3186 3.65769 14.3743 3.65277 14.453 3.6493C14.4239 3.61254 14.4117 3.59198 14.3941 3.57606C14.0573 3.27097 13.7202 2.96645 13.3824 2.66251C13.1169 2.4237 13.1112 2.17331 13.3708 1.93276C13.5268 1.78832 13.6846 1.64533 13.845 1.50493C14.0496 1.32547 14.2577 1.14918 14.4642 0.971448Z" fill="black"/>
</svg>
