<svg width="730" height="82" viewBox="0 0 730 82" fill="none" xmlns="http://www.w3.org/2000/svg">
<path d="M0.365 79V14.968H19.565V39.64H38.573V14.968H57.773V79H38.573V55H19.565V79H0.365ZM70.2088 79V14.968H115.617V29.368H89.5048V39.736H111.873V54.136H89.4088V64.6H115.617V79H70.2088ZM148.224 79V52.024L123.744 14.968H147.456L164.832 45.88L155.52 46.072L170.688 14.968H189.216L164.736 56.824L167.424 47.032V79H148.224ZM223.771 79V14.968H243.163L264.379 43.096H254.395L276.187 14.968H295.003V79H275.803V28.792L278.779 35.8L258.907 61.528L238.363 34.84L242.011 33.016V79H223.771ZM338.786 81.4C328.162 81.4 320.29 79.416 315.17 75.448C310.05 71.48 307.49 65.016 307.49 56.056V14.968H327.65V54.904C327.65 59 328.418 62.04 329.954 64.024C331.49 66.008 334.082 67 337.73 67C340.866 67 343.33 66.008 345.122 64.024C346.914 62.04 347.81 59 347.81 54.904V14.968H366.05V56.056C366.05 62.008 364.866 66.872 362.498 70.648C360.13 74.36 356.898 77.08 352.802 78.808C348.706 80.536 344.034 81.4 338.786 81.4ZM338.69 11.416V0.951998H353.09V11.416H338.69ZM319.586 11.416V0.951998H333.986V11.416H319.586ZM378.553 79V14.968H394.105L424.057 54.136L418.201 66.808V14.968H435.673V79H422.233L392.185 41.464L396.025 32.728V79H378.553ZM477.107 80.44C466.675 80.44 458.675 77.784 453.107 72.472C447.539 67.096 444.755 58.616 444.755 47.032C444.755 35.96 447.379 27.576 452.627 21.88C457.939 16.184 466.099 13.336 477.107 13.336C480.499 13.336 483.955 13.752 487.475 14.584C491.059 15.416 494.515 16.568 497.843 18.04V34.456C494.323 32.024 491.027 30.296 487.955 29.272C484.947 28.248 482.227 27.736 479.795 27.736C476.723 27.736 474.035 28.312 471.731 29.464C469.491 30.616 467.731 32.6 466.451 35.416C465.235 38.168 464.627 42.072 464.627 47.128C464.627 52.056 465.267 55.896 466.547 58.648C467.827 61.4 469.651 63.32 472.019 64.408C474.451 65.496 477.363 66.04 480.755 66.04C482.739 66.04 485.203 65.56 488.147 64.6C491.091 63.576 494.323 61.88 497.843 59.512V75.928C496.179 76.824 494.163 77.624 491.795 78.328C489.427 78.968 486.963 79.48 484.403 79.864C481.843 80.248 479.411 80.44 477.107 80.44ZM508.865 79V14.968H528.065V39.64H547.073V14.968H566.273V79H547.073V55H528.065V79H508.865ZM578.709 79V14.968H624.117V29.368H598.005V39.736H620.373V54.136H597.909V64.6H624.117V79H578.709ZM636.084 79V14.968H651.636L681.588 54.136L675.732 66.808V14.968H693.204V79H679.764L649.716 41.464L653.556 32.728V79H636.084ZM714.574 60.664L712.462 14.968H729.07L726.958 60.664H714.574ZM713.326 79V66.712H728.206V79H713.326Z" fill="#115C07"/>
</svg>
