<svg width="80" height="80" viewBox="0 0 80 80" fill="none" xmlns="http://www.w3.org/2000/svg">
<path d="M24.778 80C20.3957 74.085 17.9249 67.3841 17.0152 60.1451C15.27 46.269 19.0824 34.0035 28.2824 23.4832C29.578 22.0035 29.3125 20.4602 29.3408 18.8637C29.3869 16.2796 29.355 16.2796 31.978 15.7345C31.978 14.2549 31.9497 12.7292 31.9851 11.2106C32.0382 8.95929 32.8913 8.06372 35.093 8.03894C38.3355 8 41.5815 8.00354 44.824 8.0354C47.1178 8.06018 47.9674 8.95575 48.0169 11.3097C48.0488 12.7752 48.024 14.2442 48.024 15.6743C50.647 16.3788 50.7957 16.3894 50.601 19.1363C50.4523 21.2566 51.1568 22.5876 52.8913 23.8053C58.824 27.9717 63.7798 33.0655 66.5054 39.9221C71.6559 52.8637 69.8152 64.8531 61.3054 75.8442C60.2293 77.2354 59.1391 78.6124 58.0559 79.9965C46.9621 80 35.8683 80 24.778 80ZM31.8152 18.7823C33.0399 22.6938 30.3497 24.8248 28.4594 27.4195C17.4293 42.531 16.2435 58.446 24.7037 75.1327C25.5674 76.8354 26.6258 77.4053 28.5373 77.3735C36.2612 77.2531 43.9992 77.0938 51.7125 77.423C55.4222 77.5788 57.67 76.3929 59.8895 73.4619C68.0948 62.6301 68.8913 47.7982 61.6205 36.308C58.6824 31.6602 54.5267 28.3009 50.2081 25.1009C49.3904 24.4956 48.2187 24.1027 47.1957 24.0743C43.086 23.9611 38.9692 24.0283 34.7674 24.0283C34.7674 23.0584 34.7674 22.2726 34.7674 21.2743C39.1886 21.2743 43.5214 21.2743 47.8966 21.2743C47.8966 20.3327 47.8966 19.6 47.8966 18.7823C42.6187 18.7823 37.447 18.7823 31.8152 18.7823ZM34.7532 15.8372C38.3603 15.8372 41.7939 15.8372 45.2276 15.8372C45.2276 14.0743 45.2276 12.4496 45.2276 10.754C41.6984 10.754 38.2647 10.754 34.7532 10.754C34.7532 12.485 34.7532 14.1097 34.7532 15.8372Z" fill="#444444"/>
<path d="M79.9988 12.7432C78.7705 13.0406 77.5421 13.3379 76.1793 13.6707C76.1793 15.1008 75.974 16.7574 76.2182 18.3503C76.8483 22.4211 77.6944 26.4601 78.4129 30.5167C78.5758 31.437 78.6218 32.3928 78.6253 33.3309C78.6395 42.591 78.4483 51.8547 78.7032 61.1078C78.8625 66.9238 75.1988 69.7981 70.3882 69.3592C69.8713 69.3132 69.3439 69.3521 68.7209 69.3521C68.6643 68.8317 68.5899 68.4388 68.5864 68.0494C68.5828 67.6459 68.6536 67.2459 68.7103 66.6335C69.6873 66.6335 70.6147 66.6477 71.5421 66.63C74.5333 66.5733 76.0129 65.0618 76.02 61.9468C76.0412 54.1627 75.8253 46.368 76.0873 38.5946C76.3174 31.8335 74.6076 25.4123 73.5634 18.7008C71.7616 18.7008 70.0554 18.6158 68.3705 18.7609C67.9598 18.7963 67.4324 19.5185 67.2696 20.0247C66.2466 23.214 65.312 26.4317 64.2926 29.83C63.4501 29.6176 62.6926 29.4264 61.8855 29.2211C62.7032 23.837 65.8253 19.0795 65.2908 13.5751C63.7616 12.9839 61.5528 14.23 61.1917 11.791C59.8713 13.5645 58.5297 15.3592 56.9864 17.43C56.2643 16.3609 55.8182 15.7025 55.6696 15.4795C56.7244 13.3769 57.6696 11.6034 58.5085 9.78041C59.0466 8.61227 58.4236 7.88306 57.3404 7.46182C56.9581 7.31315 56.5474 7.21404 56.1828 7.03351C55.2483 6.56625 53.5988 6.12731 53.5492 5.56094C53.3828 3.73085 52.6218 1.68837 54.151 0.00341797C59.4607 0.00341797 64.7705 0.00341797 70.0802 0.00341797C71.7156 0.75386 73.4643 1.33085 74.9651 2.29722C77.8324 4.14147 79.2094 7.04767 79.9917 10.2689C79.9988 11.0901 79.9988 11.9185 79.9988 12.7432ZM56.1616 2.87067C55.6165 3.96448 56.2713 4.2866 57.1705 4.55563C59.6483 5.29545 61.6696 6.7574 62.8129 9.05475C63.4926 10.4211 64.3244 10.7716 65.6908 10.6654C66.9191 10.5733 68.1616 10.6441 69.4005 10.6441C71.9598 10.6441 74.5227 10.6441 77.1103 10.6441C76.5333 6.66536 73.6094 3.23528 69.9032 2.95209C65.351 2.60165 60.7528 2.87067 56.1616 2.87067ZM73.2165 13.522C71.3722 13.522 69.7085 13.522 68.1191 13.522C68.1191 14.4176 68.1191 15.1503 68.1191 15.8831C69.8784 15.8831 71.5032 15.8831 73.2165 15.8831C73.2165 15.0618 73.2165 14.3291 73.2165 13.522Z" fill="#444444"/>
<path d="M20.531 0C20.7894 1.15398 21.2814 2.31858 21.2496 3.46549C21.1965 5.23186 21.5717 6.60531 22.9522 7.82301C23.5575 8.35752 24.0212 9.46195 23.9575 10.2584C23.8053 12.1274 24.4212 13.4124 25.9717 14.3788C26.5628 14.7469 27.0513 15.2779 27.7168 15.8442C27.1611 16.5133 26.6478 17.1292 26.131 17.7522C25.8867 17.6319 25.692 17.5929 25.5929 17.4726C23.3204 14.7327 20.3044 14.2726 17.0124 14.6478C16.7788 14.6726 16.5345 14.6867 16.308 14.6478C11.6283 13.8549 7.90088 15.4726 4.68319 18.8779C3.05841 20.5982 2.35044 22.3434 2.94513 24.6088C2.95929 24.6655 2.98053 24.7221 3.00531 24.7752C5.48319 29.6389 5.38053 34.4991 3.30619 39.5044C2.72212 40.9133 2.72212 42.6265 2.70442 44.2018C2.63717 50.0354 2.66903 55.869 2.68319 61.7027C2.69027 65.2779 4.03894 66.6265 7.57522 66.6407C10.2796 66.6513 12.9805 66.6442 15.8265 66.6442C15.8265 67.5504 15.8265 68.3398 15.8265 69.1717C12.3504 69.1717 8.82478 69.3805 5.33805 69.108C2.4354 68.8708 1.00177 66.5841 0 64.0708C0 56.5204 0 48.9664 0 41.4159C0.8 38.5381 1.6177 35.6673 2.38584 32.7823C2.50265 32.3504 2.51327 31.823 2.37522 31.4018C1.6177 29.0655 0.8 26.7504 0 24.4248C0 23.4796 0 22.5381 0 21.5929C0.669027 19.4796 1.76991 17.6814 3.60708 16.3504C4.69381 15.5611 5.63894 14.5699 6.73274 13.7912C7.74867 13.069 8.21239 12.2124 8.03186 10.977C7.80885 9.47611 8.20885 8.18761 9.49027 7.28496C10.5204 6.55929 10.6513 5.56814 10.6903 4.38584C10.7363 2.92035 11.1009 1.46195 11.3274 0C14.3965 0 17.4619 0 20.531 0ZM21.108 11.9257C21.5221 9.40177 20.4283 8.04248 18.0283 8.02478C16.6796 8.01416 15.3274 8.01416 13.9788 8.02478C11.5788 8.04248 10.4602 9.39115 10.8177 11.9257C14.2442 11.9257 17.6814 11.9257 21.108 11.9257ZM18.5912 5.23186C18.5912 4.36106 18.5912 3.63186 18.5912 2.81062C16.8283 2.81062 15.1717 2.81062 13.4584 2.81062C13.4584 3.67788 13.4584 4.41062 13.4584 5.23186C15.1717 5.23186 16.7965 5.23186 18.5912 5.23186Z" fill="#444444"/>
<path d="M15.4091 41.7203C15.0905 42.6194 14.8392 43.3203 14.5312 44.1876C12.3932 43.4442 10.3719 42.7433 8.02504 41.9291C8.02504 43.5504 8.02504 44.9345 8.02504 46.315C8.02504 49.2637 8.01442 52.2088 8.02858 55.1575C8.04628 58.5911 9.38788 59.9185 12.864 59.9999C13.3843 60.0106 13.9082 60.053 14.5348 60.0884C14.5348 60.9238 14.5348 61.6672 14.5348 62.4176C9.29938 63.646 5.3454 60.5946 5.3277 55.2778C5.31354 50.5026 5.31708 45.7274 5.3277 40.9557C5.33478 38.7575 5.94363 38.3291 8.03566 39.0654C10.418 39.9044 12.7896 40.7752 15.4091 41.7203Z" fill="#444444"/>
<path d="M16.0353 28.5205C13.876 27.6921 11.7769 27.2178 10.0459 26.1452C7.32028 24.4567 7.37338 21.1753 9.8902 19.1966C13.069 16.7045 18.984 16.7187 22.1415 19.2284C24.6088 21.1895 24.7185 24.3576 22.0743 26.0603C20.3185 27.1895 18.1557 27.6851 16.0353 28.5205ZM15.8336 25.632C17.3097 25.147 18.8778 24.8355 20.2406 24.1275C21.692 23.3736 21.6318 22.1806 20.3398 21.2072C18.2654 19.6461 13.7238 19.6497 11.6495 21.2178C10.3433 22.2054 10.2973 23.3169 11.7521 24.1275C12.9486 24.7895 14.3398 25.0975 15.8336 25.632Z" fill="#444444"/>
<path d="M22.6661 53.9293C22.698 45.5895 29.5051 38.6833 37.8272 38.701C38.875 38.7045 40.206 39.1824 40.9281 39.9116C46.7405 45.7912 49.5015 53.1647 50.8821 61.1364C50.9989 61.816 50.5706 62.747 50.1139 63.3452C46.0856 68.6302 39.1546 70.6408 32.8537 68.4355C26.7688 66.3045 22.6413 60.4249 22.6661 53.9293ZM37.9652 66.6266C41.6856 66.6302 45.1865 65.101 47.4661 62.3399C47.859 61.8656 48.1741 61.0408 48.0608 60.4709C46.7298 53.7983 44.4006 47.5505 39.6856 42.4638C39.1369 41.8726 38.0998 41.4195 37.2962 41.4337C30.7192 41.5328 25.2927 47.3346 25.3529 54.0709C25.4166 61.0762 30.9812 66.6195 37.9652 66.6266Z" fill="#444444"/>
<path d="M62.9949 54.1984C62.4321 56.8922 61.9896 59.6214 61.271 62.2727C60.6126 64.7046 58.5489 65.8585 56.4568 65.2709C54.1913 64.6302 53.1011 62.6444 53.7099 60.1559C55.2639 53.8019 54.0781 48.0284 50.1382 42.8037C48.2905 40.3541 48.5028 37.8373 50.6197 36.2762C52.6586 34.7753 55.1223 35.2992 56.9347 37.6037C60.7471 42.4532 62.6409 47.9647 62.9949 54.1984ZM60.2515 54.0709C59.9542 48.4745 58.2161 43.5223 54.7825 39.1577C54.0745 38.2585 53.2356 37.7453 52.2267 38.4638C51.1825 39.2107 51.4657 40.1984 52.1524 41.0869C56.6409 46.9169 57.9967 53.3984 56.3754 60.57C56.2444 61.1435 56.8922 61.8975 57.179 62.5665C57.7418 62.0886 58.648 61.7028 58.8037 61.1187C59.4161 58.8037 59.7913 56.4284 60.2515 54.0709Z" fill="#444444"/>
</svg>
