<svg width="18" height="18" viewBox="0 0 18 18" fill="none" xmlns="http://www.w3.org/2000/svg">
<path d="M15.5326 4.13125C15.4111 3.95281 15.2831 3.77437 15.1485 3.60622C13.6779 1.76345 11.4686 0.589844 8.99999 0.589844C8.99671 0.589844 8.99343 0.589844 8.98686 0.589844C8.98358 0.589844 8.98358 0.589844 8.9803 0.589844C8.97045 0.589844 8.9606 0.589844 8.95403 0.589844C6.50512 0.607002 4.31555 1.77718 2.85474 3.60622C2.72015 3.77437 2.59212 3.94938 2.47066 4.13125C1.54493 5.49703 1 7.15792 1 8.95265C1 10.7474 1.54493 12.4117 2.47066 13.774C2.59212 13.9525 2.72015 14.1275 2.85474 14.2991C4.31555 16.1281 6.50512 17.3017 8.95403 17.3155C8.96388 17.3155 8.97373 17.3155 8.9803 17.3155C8.98358 17.3155 8.98358 17.3155 8.98686 17.3155C8.99014 17.3155 8.99343 17.3155 8.99999 17.3155C11.4686 17.3155 13.6779 16.1418 15.1452 14.2991C15.2798 14.1309 15.4079 13.9559 15.5293 13.774C16.4551 12.4117 17 10.7474 17 8.94922C17.0033 7.15792 16.4551 5.49703 15.5326 4.13125ZM6.66269 1.67766C5.92736 2.41889 5.31678 3.50327 4.89331 4.80385C4.32868 4.58422 3.81986 4.31999 3.38326 4.01801C4.24333 2.95422 5.37258 2.13063 6.66269 1.67766ZM2.99918 4.54305C3.49815 4.88964 4.07263 5.19505 4.70619 5.44556C4.43044 6.49219 4.27287 7.65551 4.26959 8.88402H1.65654C1.67296 7.26774 2.16865 5.77499 2.99918 4.54305ZM1.68281 9.57034H4.28272C4.3254 10.5964 4.47312 11.571 4.70619 12.4632C4.06934 12.7137 3.49487 13.0157 2.99918 13.3657C2.26385 12.2744 1.78785 10.9773 1.68281 9.57034ZM3.38654 13.8873C3.82314 13.5887 4.33196 13.3245 4.89331 13.1049C5.3135 14.4055 5.92736 15.4898 6.66269 16.2311C5.37258 15.7747 4.24661 14.9545 3.38654 13.8873ZM8.67172 16.6085C7.3258 16.4164 6.16044 14.9717 5.50389 12.8921C6.4526 12.5936 7.52933 12.4151 8.67172 12.3842V16.6085ZM8.67172 11.6979C7.46696 11.7288 6.33114 11.921 5.31678 12.247C5.10997 11.4234 4.97866 10.5243 4.93598 9.57034H8.66844V11.6979H8.67172ZM8.67172 8.88402H4.92613C4.9327 7.731 5.07386 6.64318 5.32334 5.66518C6.33442 5.98775 7.47024 6.18335 8.675 6.21423L8.67172 8.88402ZM8.67172 5.52448C7.52933 5.4936 6.4526 5.31516 5.50389 5.01661C6.16372 2.93706 7.3258 1.49235 8.67172 1.29675V5.52448ZM16.3434 8.88402H13.6943C13.6877 7.66237 13.5334 6.50249 13.261 5.45928C13.9109 5.20534 14.4986 4.8965 15.0041 4.54648C15.8313 5.77499 16.3303 7.26774 16.3434 8.88402ZM14.6167 4.01801C14.1703 4.32342 13.6516 4.59452 13.0738 4.81414C12.6504 3.49641 12.0299 2.3983 11.2815 1.65364C12.5946 2.10661 13.7468 2.93706 14.6167 4.01801ZM9.32826 1.30705C10.661 1.52324 11.81 2.96451 12.46 5.03033C11.5178 5.32202 10.4575 5.49703 9.32826 5.52791V1.30705ZM9.32826 6.2108C10.5199 6.17992 11.6393 5.99118 12.6438 5.67204C12.89 6.64662 13.0312 7.731 13.0377 8.88059H9.32826V6.2108ZM9.32826 9.57034H13.0213C12.9819 10.5175 12.8506 11.4165 12.6438 12.2367C11.6393 11.9176 10.5166 11.7288 9.32826 11.6979V9.57034ZM9.32826 16.6017V12.3808C10.4575 12.4083 11.5211 12.5867 12.4633 12.8784C11.81 14.9442 10.661 16.3855 9.32826 16.6017ZM11.2815 16.2517C12.0299 15.507 12.6504 14.4123 13.0738 13.0912C13.6516 13.3142 14.1703 13.5819 14.6134 13.8873C13.7435 14.9717 12.5946 15.8021 11.2815 16.2517ZM15.0041 13.3657C14.4986 13.0122 13.9109 12.7034 13.261 12.4494C13.4908 11.5607 13.6385 10.5895 13.6812 9.57034H16.3205C16.2121 10.9773 15.7394 12.2744 15.0041 13.3657Z" fill="white" stroke="white" stroke-width="0.3"/>
</svg>
