<svg width="31" height="42" viewBox="0 0 31 42" fill="none" xmlns="http://www.w3.org/2000/svg">
<path d="M26.7559 41.9339C19.0424 41.9339 11.3289 41.9339 3.61543 41.9339C3.57136 41.9034 3.53169 41.8582 3.4832 41.8457C1.24518 41.267 -0.00220094 39.6506 2.91533e-06 37.278C0.00992028 27.5071 0.0253473 17.7374 0.0473859 7.9666C0.0539974 5.14749 1.86777 3.30613 4.60827 3.29483C5.15262 3.29257 5.69808 3.29483 6.26888 3.29483C6.19835 2.04804 6.76585 1.30765 7.80276 0.901855C12.7614 0.901855 17.7201 0.901855 22.6788 0.901855C23.7642 1.2794 24.3185 2.04465 24.2413 3.29596C24.9102 3.29596 25.5295 3.28352 26.1488 3.29822C28.4155 3.35135 30.1124 4.89655 30.4309 7.19683C30.4717 7.49298 30.4816 7.79705 30.4816 8.0966C30.4683 17.7894 30.4441 27.4823 30.4441 37.174C30.4441 38.9079 29.8678 40.3118 28.4221 41.2421C27.9218 41.5632 27.3146 41.7078 26.7559 41.9339ZM6.24794 5.70701C5.68706 5.70701 5.19229 5.70588 4.69753 5.70701C3.10634 5.71041 2.38568 6.45192 2.38348 8.09547C2.37025 17.7589 2.35703 27.4235 2.34601 37.0869C2.34381 38.796 3.06667 39.5409 4.71957 39.5421C11.6981 39.5421 18.6755 39.5421 25.654 39.5421C27.3995 39.5421 28.097 38.8311 28.0992 37.0508C28.1113 28.0463 28.1223 19.0419 28.1334 10.0374C28.1345 9.26539 28.1499 8.49222 28.1301 7.72019C28.1069 6.82381 27.7069 6.08229 26.8595 5.87544C26.0298 5.67197 25.1405 5.72058 24.2876 5.65841C24.1058 7.36412 23.4832 8.10564 22.2391 8.11016C17.5747 8.12598 12.9102 8.12485 8.24574 8.10903C7.13059 8.10564 6.35483 7.29856 6.27439 6.16255C6.26447 6.03482 6.25896 5.90709 6.24794 5.70701ZM8.64904 5.65276C13.0854 5.65276 17.4722 5.65276 21.8524 5.65276C21.8524 4.84229 21.8524 4.08495 21.8524 3.331C17.4281 3.331 13.0546 3.331 8.64904 3.331C8.64904 4.11208 8.64904 4.85585 8.64904 5.65276Z" fill="#444444"/>
<path d="M19.848 30.5511C21.1504 30.5511 22.4518 30.5465 23.7543 30.5522C24.6391 30.5556 25.1713 31.0246 25.1592 31.7729C25.1482 32.4951 24.6171 32.9653 23.7763 32.9676C21.135 32.9732 18.4948 32.9732 15.8535 32.9676C15.0248 32.9653 14.4739 32.477 14.4662 31.7684C14.4574 31.0552 15.0017 30.5601 15.8315 30.5545C17.1703 30.5454 18.5091 30.5511 19.848 30.5511Z" fill="#444444"/>
<path d="M19.7587 24.9589C18.4375 24.9589 17.1174 24.9691 15.7962 24.9555C14.8728 24.9465 14.2888 24.2299 14.518 23.4206C14.6668 22.8962 15.0789 22.5379 15.6629 22.5345C18.4144 22.5198 21.1659 22.5176 23.9174 22.5334C24.6391 22.5379 25.1196 23.0533 25.124 23.7281C25.1295 24.4266 24.6369 24.9408 23.8865 24.9521C22.5102 24.9725 21.1339 24.9578 19.7587 24.9589Z" fill="#444444"/>
<path d="M19.816 16.9335C18.4958 16.9335 17.1768 16.9381 15.8567 16.9324C15.0214 16.929 14.476 16.4554 14.4661 15.7423C14.4562 15.0325 15.0049 14.5272 15.8281 14.525C18.4859 14.5182 21.1438 14.5182 23.8016 14.5261C24.6171 14.5284 25.1173 14.994 25.124 15.7129C25.1306 16.4521 24.616 16.9268 23.7752 16.9313C22.4551 16.9392 21.135 16.9335 19.816 16.9335Z" fill="#444444"/>
<path d="M7.96804 15.2235C8.84407 14.3192 9.69145 13.4353 10.5476 12.5627C11.157 11.9421 11.9669 11.9591 12.4121 12.5864C12.7559 13.0713 12.7427 13.6851 12.3096 14.1384C11.1416 15.3626 9.96143 16.5743 8.76473 17.7691C8.27548 18.2574 7.62645 18.2484 7.12948 17.7748C6.63251 17.3011 6.15317 16.806 5.68816 16.2996C5.20001 15.7695 5.20001 15.0506 5.65841 14.577C6.1124 14.1079 6.80772 14.1192 7.33664 14.6097C7.53939 14.7974 7.73333 14.9941 7.96804 15.2235Z" fill="#444444"/>
<path d="M7.87556 23.9782C8.85407 22.9574 9.67281 22.095 10.5015 21.2427C11.0954 20.6312 11.7984 20.5746 12.3009 21.0788C12.8078 21.5886 12.7593 22.3177 12.1676 22.9269C11.0932 24.0335 10.0166 25.1402 8.93451 26.2389C8.25682 26.9261 7.65407 26.9273 6.98079 26.2536C6.54773 25.8206 6.11357 25.3866 5.69704 24.9356C5.20888 24.4066 5.19897 23.6854 5.64855 23.2106C6.10806 22.7246 6.79456 22.7178 7.32239 23.2265C7.51963 23.4164 7.65627 23.6741 7.87556 23.9782Z" fill="#444444"/>
<path d="M7.85454 32.0298C8.84408 30.9922 9.66063 30.1286 10.486 29.2729C11.1075 28.6275 11.8149 28.5709 12.3207 29.1112C12.8122 29.6369 12.7494 30.3366 12.1466 30.9583C11.0854 32.0536 10.021 33.1466 8.95428 34.2352C8.25234 34.9507 7.65729 34.9507 6.96307 34.2453C6.54543 33.8214 6.12119 33.4043 5.71567 32.9692C5.20327 32.4187 5.19225 31.6805 5.67049 31.2035C6.14543 30.731 6.81871 30.7367 7.34434 31.2601C7.53828 31.4533 7.65729 31.7246 7.85454 32.0298Z" fill="#444444"/>
</svg>
