<svg width="38" height="43" viewBox="0 0 38 43" fill="none" xmlns="http://www.w3.org/2000/svg">
<path d="M31.0339 42.0262C31.3543 42.0262 31.6133 41.739 31.6133 41.3837V34.958V1.54442C31.6133 1.18908 31.3543 0.901855 31.0339 0.901855H6.70034C4.78321 0.901855 3.22412 2.63101 3.22412 4.75727V38.1708C3.22412 40.2971 4.78321 42.0262 6.70034 42.0262H31.0339ZM30.4545 34.3154H8.43846V2.18699H30.4545V34.3154ZM29.2958 35.6006H30.4545V40.7411H29.2958V35.6006ZM6.70034 2.18699H7.27972V34.3154H6.70034C5.80985 34.3154 4.99815 34.692 4.38286 35.305V4.75727C4.38286 3.33976 5.42225 2.18699 6.70034 2.18699ZM4.38286 38.1708C4.38286 36.7533 5.42225 35.6006 6.70034 35.6006H28.1371V37.5295H6.70034C6.37995 37.5295 6.12097 37.8168 6.12097 38.1721C6.12097 38.5275 6.37995 38.8147 6.70034 38.8147H28.1371V40.7411H6.70034C5.42225 40.7411 4.38286 39.5883 4.38286 38.1708Z" fill="#444444" stroke="#444444"/>
<path d="M9.67236 11.8222C9.67236 13.7287 10.9273 15.312 12.5686 15.6191V21.4601C12.5686 21.8154 12.8276 22.1026 13.148 22.1026H22.4185C22.7389 22.1026 22.9979 21.8154 22.9979 21.4601V15.6191C24.6386 15.3113 25.8936 13.7287 25.8936 11.8222C25.8936 9.69592 24.3345 7.96677 22.4173 7.96677H21.1062C20.3722 6.80308 19.1572 6.03906 17.783 6.03906C16.4087 6.03906 15.1932 6.80308 14.4597 7.96677H13.148C11.2309 7.96741 9.67236 9.69592 9.67236 11.8222ZM13.7274 20.1762H21.8391V20.8175H13.7274V20.1762ZM13.1486 9.2519H13.8983C13.7888 9.65993 13.7274 10.0905 13.7274 10.537C13.7274 10.8924 13.9864 11.1796 14.3067 11.1796C14.6271 11.1796 14.8861 10.8924 14.8861 10.537C14.8861 8.76548 16.1856 7.3242 17.783 7.3242C19.3803 7.3242 20.6798 8.76548 20.6798 10.537C20.6798 10.8924 20.9388 11.1796 21.2592 11.1796C21.5796 11.1796 21.8385 10.8924 21.8385 10.537C21.8385 10.0905 21.7777 9.65993 21.6676 9.2519H22.4173C23.6954 9.2519 24.7348 10.4047 24.7348 11.8222C24.7348 13.2378 23.6977 14.3892 22.422 14.3918C22.4208 14.3918 22.4197 14.3912 22.4185 14.3912C22.2586 14.3912 22.1132 14.4631 22.0083 14.5801C21.9029 14.6964 21.838 14.8577 21.838 15.035C21.838 15.0369 21.8391 15.0389 21.8391 15.0414V18.8911H13.7274V15.0382C13.7274 15.0369 13.728 15.0363 13.728 15.035C13.728 14.9457 13.7117 14.8609 13.6822 14.7838C13.5947 14.5531 13.3884 14.3912 13.148 14.3912C13.1468 14.3912 13.1457 14.3918 13.1445 14.3918C11.8682 14.3892 10.8311 13.2384 10.8311 11.8222C10.8311 10.4047 11.8705 9.2519 13.1486 9.2519Z" fill="#444444" stroke="#444444"/>
<path d="M24.6072 24.6763H11.8645C11.5441 24.6763 11.2852 24.9631 11.2852 25.3178C11.2852 25.6726 11.5441 25.9594 11.8645 25.9594H24.6072C24.9275 25.9594 25.1865 25.6726 25.1865 25.3178C25.1865 24.9631 24.9275 24.6763 24.6072 24.6763Z" fill="#444444"/>
<path d="M24.6072 26.6035H11.8645C11.5441 26.6035 11.2852 26.8903 11.2852 27.2451C11.2852 27.5999 11.5441 27.8867 11.8645 27.8867H24.6072C24.9275 27.8867 25.1865 27.5999 25.1865 27.2451C25.1865 26.8903 24.9275 26.6035 24.6072 26.6035Z" fill="#444444"/>
<path d="M20.4264 37.604H13.4763C13.1559 37.604 12.897 37.8908 12.897 38.2456C12.897 38.6004 13.1559 38.8871 13.4763 38.8871H20.4264C20.7468 38.8871 21.0057 38.6004 21.0057 38.2456C21.0057 37.8908 20.7468 37.604 20.4264 37.604Z" fill="#444444"/>
</svg>
