<svg width="77" height="80" viewBox="0 0 77 80" fill="none" xmlns="http://www.w3.org/2000/svg">
<path d="M31.3898 80C28.9898 79.52 26.5441 79.2021 24.1981 78.5351C11.1737 74.8239 1.31401 62.7616 0.185704 49.2842C0.106743 48.3533 0.0901194 47.4182 0.0153143 46.4873C-0.111439 44.8915 0.555573 43.6759 1.75869 42.6972C3.62466 41.1782 5.82933 40.3616 8.09219 39.6925C13.8688 37.9824 19.8158 37.3154 25.7981 36.9227C35.475 36.2868 45.1145 36.6401 54.648 38.479C57.5508 39.0401 60.381 40.0271 63.1903 40.9788C64.2729 41.3466 65.2578 42.0884 66.195 42.7845C67.4106 43.6863 67.8989 44.9476 67.8594 46.4998C67.4355 62.6141 56.6823 75.7382 40.9607 79.252C39.5186 79.574 38.0454 79.7548 36.5867 80C34.8516 80 33.1207 80 31.3898 80ZM3.19661 50.1112C4.76336 64.8457 18.5628 78.6514 36.782 77.0411C45.4802 76.2722 52.6282 72.3263 58.1347 65.5585C61.7545 61.1117 63.9882 56.0208 64.7404 50.1694C63.5124 50.6764 62.4797 51.1564 61.4095 51.5367C57.1103 53.0702 52.6366 53.7891 48.1275 54.3148C37.1955 55.5886 26.2865 55.4286 15.4127 53.7102C11.2091 53.0432 7.05738 52.131 3.19661 50.1112ZM46.1867 41.064C45.4511 41.6686 44.7654 42.2297 44.0651 42.8052C42.8433 41.652 41.6631 41.7621 40.5098 42.7865C39.7971 42.1943 39.1363 41.6458 38.4028 41.0369C38.8932 40.5736 39.3337 40.158 39.9093 39.6156C39.3649 39.5782 38.9638 39.5159 38.5628 39.5263C33.2703 39.651 27.9675 39.6427 22.6854 39.9606C17.5343 40.2723 12.4226 41.066 7.52907 42.8136C6.14518 43.3081 4.807 44.0084 3.56648 44.8021C2.55038 45.4525 2.59817 46.2401 3.57271 46.9736C4.33115 47.5429 5.19349 47.9751 5.90206 48.4032C6.77687 46.9819 7.96336 46.3876 9.37426 46.2317C11.1488 46.0343 12.5743 46.7221 13.7753 48.1206C13.0002 48.7439 12.3104 49.2967 11.6371 49.8369C10.7914 49.1824 10.0122 48.7169 8.92543 49.3715C9.2766 49.5003 9.51972 49.6229 9.77946 49.6769C12.0444 50.1632 14.2948 50.7533 16.5826 51.0941C27.1571 52.6712 37.7628 52.7086 48.3747 51.5034C52.7467 51.0068 57.0854 50.2712 61.208 48.6484C62.3217 48.2099 63.4023 47.6156 64.3768 46.9216C65.3243 46.2442 65.2932 45.5149 64.3539 44.8084C63.6163 44.2536 62.7851 43.7839 61.9353 43.4224C57.7212 41.6291 53.2454 40.9019 48.7446 40.3117C47.6142 40.1642 46.4776 40.0624 45.1166 39.9149C45.5862 40.4198 45.8605 40.7149 46.1867 41.064Z" fill="#444444"/>
<path d="M74.6101 0C74.6891 0.887272 74.768 1.77454 74.8595 2.78441C63.6221 4.48207 52.4263 6.17142 41.1452 7.87532C41.9182 8.89557 42.5728 9.81609 43.2959 10.6784C43.46 10.8738 43.8528 10.9215 44.1499 10.9506C54.4148 11.9564 64.6818 12.9517 74.9488 13.9491C75.3561 13.9886 75.7592 14.0571 76.2558 14.1236C76.1665 15.0337 76.0834 15.8795 75.9857 16.8686C74.8034 16.7709 73.6792 16.694 72.5592 16.5839C63.1566 15.6571 53.754 14.7179 44.3494 13.8161C44.0605 13.7891 43.6512 14.0592 43.4455 14.3106C42.8616 15.0254 42.4294 15.8753 41.7998 16.5382C40.5925 17.8098 40.5634 18.8821 41.8538 20.1163C44.3452 22.4997 44.3702 25.388 41.9203 27.7382C40.632 28.9745 40.5676 29.7787 41.725 31.3745C41.1889 32.0249 40.6299 32.7065 40.0709 33.3818C37.8102 31.894 37.4174 28.6981 39.1961 26.5101C39.4559 26.1901 39.7759 25.9179 40.0689 25.6228C41.1577 24.5278 41.1515 23.3683 40.0481 22.2649C37.3821 19.5989 37.3821 17.0369 40.0377 14.3418C40.2455 14.1299 40.4096 13.8743 40.7317 13.4608C39.7218 13.3673 38.9177 13.2925 38.5104 13.255C37.5213 14.6119 36.7442 15.7631 35.8798 16.8436C35.0154 17.92 35.0424 19.0192 36.1645 20.0436C37.2595 21.0452 37.9847 22.2067 38.0533 23.7195C38.1239 25.2737 37.5234 26.5475 36.4263 27.6176C34.9863 29.0223 34.9135 29.7122 36.0772 31.3517C35.8216 31.68 35.5577 32.0332 35.2793 32.3761C35.0008 32.721 34.7099 33.0555 34.4294 33.388C32.3307 31.8857 31.7987 29.0556 33.2096 27.0067C33.54 26.5267 33.9639 26.107 34.3774 25.6914C35.5535 24.5132 35.5535 23.36 34.3483 22.1859C34.2735 22.1132 34.1925 22.0488 34.1177 21.9761C31.8632 19.7797 31.8611 16.881 34.0907 14.6306C34.5291 14.188 34.8865 13.6686 35.46 12.9683C34.2715 12.8353 33.4341 12.7418 32.4554 12.6317C32.3826 14.4706 31.4289 15.761 30.1946 16.9434C29.3842 17.7184 29.4445 18.801 30.1613 19.6675C30.3359 19.8795 30.552 20.0582 30.7515 20.2514C32.9811 22.4062 32.9915 25.442 30.7806 27.6114C29.353 29.0119 29.2782 29.6872 30.4481 31.3891C29.9078 32.0394 29.3447 32.7148 28.7878 33.3859C26.793 31.9418 26.2382 29.3153 27.4455 27.2291C27.7032 26.7844 28.0315 26.3667 28.393 26.001C30.045 24.3283 30.0491 23.5615 28.3494 21.8576C27.1442 20.6483 26.473 19.1626 26.9302 17.5252C27.2398 16.4176 28.0065 15.4078 28.7026 14.4519C29.1577 13.8265 29.6834 13.3091 29.5276 12.3657C28.6507 12.2784 27.8029 12.1953 26.8076 12.0976C26.9551 14.188 25.9328 15.6634 24.5239 17.0057C23.7468 17.7475 23.832 18.7989 24.5219 19.6447C24.6964 19.8587 24.9084 20.0395 25.1078 20.2306C27.379 22.4228 27.3769 25.4607 25.1016 27.6613C23.7281 28.9911 23.6554 29.7163 24.8149 31.36C24.5697 31.6717 24.3058 32.0187 24.0294 32.3553C23.7468 32.7002 23.4517 33.0327 23.1691 33.3631C20.8502 31.9252 20.5052 28.5319 22.4045 26.3522C24.5177 23.9293 24.5177 23.9293 22.4252 21.5543C20.5593 19.4369 20.7941 16.5714 22.926 14.4873C23.3873 14.0363 23.7302 13.388 23.9317 12.7647C24.1312 12.1454 23.7842 11.7506 23.0549 11.6966C21.4777 11.5782 19.9047 11.4015 18.2715 11.2415C18.2715 10.2815 18.2715 9.4296 18.2715 8.47583C19.2024 8.31376 20.1749 8.14337 21.2034 7.96467C21.0351 6.04259 21.511 4.42805 23.1006 3.13974C23.7052 3.86493 24.2704 4.54441 24.738 5.10545C24.4138 5.92415 24.1458 6.59947 23.7489 7.60311C24.9063 7.43272 25.7125 7.35584 26.4917 7.16675C26.6621 7.12519 26.793 6.68675 26.8408 6.41246C27.0632 5.1387 27.6159 4.07064 28.7297 3.1522C29.3239 3.86493 29.885 4.54025 30.4315 5.1948C30.1593 5.68103 29.9307 6.0883 29.5816 6.71168C30.5728 6.58077 31.3561 6.5309 32.1021 6.34597C32.339 6.28779 32.5073 5.87428 32.6694 5.60207C33.1535 4.7896 33.619 3.96675 34.2465 2.88207C35.0361 3.96883 35.6242 4.77714 36.3057 5.71428C37.0455 5.64986 37.0455 5.64986 39.9317 3.26233C39.992 3.27688 40.0938 3.27272 40.1125 3.3122C40.9603 4.91636 42.2673 4.87064 43.8611 4.62129C53.673 3.08987 63.4995 1.6561 73.3197 0.184935C73.4797 0.16 73.6293 0.0644155 73.7831 0C74.0553 0 74.3317 0 74.6101 0ZM36.1977 8.61298C37.5193 10.4478 37.7561 10.5745 39.2502 10.2732C38.8865 9.62285 38.527 8.98077 38.1551 8.31376C37.5151 8.41142 36.9146 8.50285 36.1977 8.61298ZM31.3271 9.40466C31.3167 9.49609 31.3063 9.5896 31.298 9.68103C31.913 9.73921 32.5302 9.79739 33.3219 9.87012C32.659 8.70233 31.9587 9.32986 31.3271 9.40466Z" fill="#444444"/>
<path d="M39.1084 49.5355C38.4019 50.1173 37.7432 50.6618 37.0492 51.2332C35.8793 50.2669 34.724 50.1215 33.5001 51.2768C32.8123 50.7095 32.1287 50.1443 31.4492 49.5833C33.1157 46.9963 36.8892 46.9402 39.1084 49.5355Z" fill="#444444"/>
<path d="M20.1445 43.9043C22.1352 41.311 25.7882 41.3048 27.8058 43.8939C27.1409 44.457 26.4718 45.0243 25.7632 45.6227C24.5643 44.5359 23.384 44.5318 22.1934 45.6206C21.5056 45.045 20.8531 44.4965 20.1445 43.9043Z" fill="#444444"/>
<path d="M16.5578 43.8669C15.8575 44.4653 15.2092 45.0201 14.5089 45.6185C13.3453 44.6232 12.163 44.4175 10.9578 45.6476C10.2388 45.045 9.56557 44.4819 8.89648 43.9209C10.7043 41.3609 14.3032 41.3152 16.5578 43.8669Z" fill="#444444"/>
<path d="M30.0195 43.9022C31.9873 41.3214 35.6008 41.3172 37.6725 43.8793C37.0076 44.4507 36.3385 45.0242 35.6361 45.6268C34.4393 44.5463 33.259 44.5048 32.0684 45.631C31.3785 45.0513 30.7239 44.4985 30.0195 43.9022Z" fill="#444444"/>
<path d="M48.9874 45.6291C48.2871 45.041 47.6326 44.4904 46.9863 43.9459C48.5198 41.3569 52.5178 41.2966 54.604 43.8878C53.937 44.4509 53.2637 45.0181 52.5448 45.627C51.3583 44.5631 50.1739 44.4924 48.9874 45.6291Z" fill="#444444"/>
<path d="M57.4496 47.0358C56.7493 46.4581 56.0678 45.8991 55.3945 45.3443C57.2563 42.7241 61.2252 42.7345 63.0205 45.3464C62.3763 45.8846 61.7218 46.429 61.0091 47.0233C59.8454 46.0176 58.6589 45.9137 57.4496 47.0358Z" fill="#444444"/>
<path d="M40.5171 47.0461C39.7773 46.4269 39.1228 45.8804 38.4766 45.3401C40.2844 42.7573 44.0121 42.7199 46.1732 45.3131C45.502 45.87 44.8267 46.4269 44.1077 47.0212C42.9337 46.0258 41.7472 45.9115 40.5171 47.0461Z" fill="#444444"/>
<path d="M49.7227 48.1515C51.7881 45.552 55.4889 45.5645 57.3985 48.1474C56.7502 48.6918 56.0977 49.2403 55.3954 49.8305C54.2421 48.8892 53.066 48.6502 51.8338 49.8575C51.144 49.3006 50.4582 48.7479 49.7227 48.1515Z" fill="#444444"/>
<path d="M23.5897 48.1392C22.8811 48.7251 22.2183 49.2716 21.5699 49.8077C19.8577 48.7542 19.5523 48.7542 17.944 49.8119C17.6635 49.5854 17.3663 49.3527 17.0754 49.1116C16.7055 48.8041 16.3419 48.4903 15.9824 48.1869C17.5284 45.5771 21.4723 45.5231 23.5897 48.1392Z" fill="#444444"/>
<path d="M46.9576 51.2312C45.3534 50.1922 44.8984 50.1881 43.3025 51.2312C42.6625 50.6971 41.9893 50.1382 41.3223 49.5834C43.0075 46.9797 46.9617 46.9465 48.9275 49.5439C48.2916 50.0883 47.6495 50.6369 46.9576 51.2312Z" fill="#444444"/>
<path d="M28.5982 51.2499C27.4055 50.2192 26.2211 50.1631 25.0263 51.252C24.3385 50.6826 23.6798 50.1361 23.0273 49.5959C24.5359 47.0089 28.4466 46.9361 30.6367 49.5356C29.9697 50.0946 29.3027 50.6556 28.5982 51.2499Z" fill="#444444"/>
</svg>
