<svg width="76" height="80" viewBox="0 0 76 80" fill="none" xmlns="http://www.w3.org/2000/svg">
<path d="M42.7562 0C42.9287 0.0582633 43.099 0.15014 43.2761 0.170308C45.5483 0.441457 45.5775 0.470588 45.5775 2.79888C45.5775 7.54286 45.5954 12.2846 45.5595 17.0286C45.5528 17.7927 45.7567 18.1266 46.5254 18.3261C49.1114 18.9938 50.8839 20.6454 52.0066 23.0588C52.1522 23.3725 52.6004 23.7154 52.9343 23.7423C54.9601 23.9171 56.0962 24.6454 56.4256 26.1042C56.7842 27.6952 56.1993 28.7373 54.4312 29.7905C54.2116 29.9204 54.0144 30.2902 54.0122 30.5501C53.9875 35.6303 53.9808 40.7081 54.0234 45.7882C54.0256 46.1132 54.373 46.5636 54.68 46.7361C56.1097 47.5317 56.7461 48.7328 56.4346 50.2499C56.1433 51.6706 54.9556 52.6387 53.3354 52.6342C52.5668 52.6319 52.2038 52.8538 51.8542 53.5866C50.3461 56.7395 47.7601 58.4336 44.28 58.4134C40.8581 58.3933 38.2968 56.7373 36.7976 53.6179C36.4727 52.9412 36.1612 52.6073 35.341 52.6275C33.806 52.6655 32.6609 51.8073 32.2508 50.512C31.8161 49.1429 32.336 47.8723 33.5999 46.8975C33.9114 46.6577 34.1803 46.1423 34.1825 45.7524C34.2206 40.7104 34.2206 35.6683 34.1803 30.6263C34.178 30.2409 33.8822 29.7389 33.5663 29.4969C32.3494 28.5625 31.8385 27.33 32.2329 25.9765C32.6161 24.6633 33.7747 23.7535 35.2693 23.7983C36.1231 23.823 36.4794 23.5137 36.82 22.7653C37.8822 20.4168 39.7287 18.9244 42.2228 18.2812C42.8167 18.1289 43.0811 17.916 43.0766 17.2459C43.0452 12.6902 43.0587 8.13445 43.0564 3.57647C43.0564 3.43081 43.0206 3.28739 42.9578 2.79888C40.717 3.58992 38.5209 4.23529 36.4324 5.13165C32.0111 7.02521 28.2441 9.86443 25.0284 13.4431C24.7214 13.786 24.271 14.1714 23.8632 14.2028C23.4777 14.2319 22.8122 13.8958 22.7136 13.5821C22.5769 13.1406 22.6822 12.4303 22.9758 12.0784C25.4564 9.09356 28.4346 6.67787 31.7713 4.70588C32.7282 4.14118 33.7164 3.62801 34.7562 3.05434C30.7158 2.70476 21.2951 6.86611 16.0917 11.2C10.6822 15.7109 6.75617 21.2661 4.51527 27.9283C-1.12507 44.6835 5.34216 62.6824 20.4391 71.9776C35.2268 81.0801 52.8536 78.1602 63.6772 68.7709C63.359 68.8852 63.0408 68.995 62.7248 69.1137C42.5119 76.7193 20.2777 65.0106 15.1931 44.0179C14.6083 41.6045 14.4536 39.0835 14.1735 36.605C14.0436 35.4555 14.5298 34.7899 15.35 34.8101C16.4592 34.8347 16.6385 35.637 16.6677 36.5244C16.885 43.3591 18.9758 49.5619 22.987 55.1014C33.9181 70.1938 54.922 73.4454 69.9114 62.3731C70.0615 62.2633 70.2094 62.149 70.3573 62.0347C70.9265 61.5955 71.5248 61.4902 72.0783 62.0146C72.6699 62.5748 72.6385 63.2403 72.1254 63.814C70.3371 65.8151 68.6654 67.9507 66.6845 69.7389C60.1343 75.6504 52.4144 79.0095 43.6077 79.8185C43.3948 79.8387 43.1909 79.9373 42.9803 80C41.1136 80 39.2447 80 37.378 80C37.015 79.9328 36.6542 79.8387 36.2889 79.805C29.3399 79.1597 22.8682 77.0218 17.266 72.8717C3.34328 62.5569 -2.53683 48.6857 1.01051 31.693C4.30687 15.8969 14.4156 5.84426 29.9158 1.34454C32.2598 0.663305 34.7382 0.436975 37.1539 0C39.0228 0 40.8895 0 42.7562 0ZM40.3405 46.4067C40.3405 40.9165 40.3405 35.5003 40.3405 30.0235C39.1976 30.0235 38.0032 30.0235 36.7887 30.0235C36.7887 35.5361 36.7887 40.9524 36.7887 46.4067C38.0413 46.4067 39.2133 46.4067 40.3405 46.4067ZM48.3046 29.9989C48.3046 35.4891 48.3046 40.9076 48.3046 46.3888C49.322 46.3888 50.3707 46.3888 51.4307 46.3888C51.4307 40.8739 51.4307 35.451 51.4307 29.9989C50.3282 29.9989 49.3018 29.9989 48.3046 29.9989ZM45.9001 38.1782C45.9001 36.0896 45.9091 34.0011 45.8957 31.9126C45.8889 30.6824 45.3332 29.9966 44.3741 29.9653C43.3635 29.9339 42.745 30.6465 42.7427 31.9193C42.7338 36.0964 42.7338 40.2756 42.7427 44.4527C42.745 45.7569 43.3164 46.4583 44.3248 46.4538C45.331 46.4515 45.8912 45.7524 45.8979 44.4459C45.9069 42.3574 45.9001 40.2667 45.9001 38.1782ZM49.3713 23.7087C48.6677 21.7972 46.5859 20.4863 44.3226 20.4863C42.0727 20.4863 40.0133 21.777 39.2559 23.7087C42.6352 23.7087 45.9943 23.7087 49.3713 23.7087ZM39.2268 52.6992C40.1007 54.7406 42.3573 56.0762 44.5735 55.9417C46.7965 55.8073 48.8088 54.456 49.3534 52.6992C46.001 52.6992 42.6621 52.6992 39.2268 52.6992ZM44.2822 27.4129C46.4066 27.4129 48.531 27.4129 50.6553 27.4129C51.5494 27.4129 52.4458 27.4375 53.3377 27.3793C53.5595 27.3658 53.7635 27.0812 53.9763 26.9199C53.7724 26.7048 53.5954 26.4538 53.3556 26.2902C53.2256 26.2028 52.9926 26.2588 52.8066 26.2588C47.1416 26.2588 41.4744 26.2476 35.8094 26.2835C35.4217 26.2857 35.0363 26.6443 34.6508 26.837C35.0273 27.0275 35.4038 27.3793 35.7825 27.386C38.6172 27.4353 41.4497 27.4129 44.2822 27.4129ZM44.3741 49.0151C42.2497 49.0151 40.1254 49.0151 38.001 49.0151C37.1069 49.0151 36.2105 48.9882 35.3186 49.0443C35.0923 49.0577 34.8817 49.3401 34.662 49.4992C34.866 49.7188 35.0452 49.972 35.2828 50.1401C35.4105 50.2297 35.6458 50.1692 35.8318 50.1692C41.4968 50.1692 47.1618 50.1804 52.8268 50.1445C53.2122 50.1423 53.5976 49.786 53.9808 49.5955C53.6111 49.4028 53.2436 49.0465 52.8693 49.0398C50.0413 48.995 47.2066 49.0151 44.3741 49.0151Z" fill="#444444"/>
<path d="M14.7277 20.9279C15.7608 20.8719 17.0426 21.1632 17.7574 20.6568C18.4229 20.1839 18.4924 18.8618 18.8129 17.9117C19.0638 17.1699 19.1938 16.3655 19.5725 15.6977C19.8414 15.2226 20.4084 14.6758 20.8812 14.6377C21.2599 14.6086 21.8851 15.2204 22.0711 15.6797C22.6269 17.0579 23.0638 18.4898 23.456 19.9262C23.6622 20.6814 24.0274 20.9234 24.7938 20.8921C26.284 20.8316 27.7832 20.7935 29.2644 20.9122C29.7843 20.9548 30.4991 21.3806 30.6896 21.8198C30.8398 22.1649 30.4543 22.9627 30.0734 23.2786C28.8722 24.2758 27.5748 25.161 26.284 26.0461C25.7664 26.4024 25.6498 26.7363 25.8717 27.3436C26.3961 28.7778 26.9047 30.2254 27.2678 31.7044C27.3933 32.2176 27.2566 33.0915 26.907 33.3425C26.5529 33.5979 25.6812 33.4702 25.2308 33.1923C23.9669 32.4125 22.7792 31.496 21.6073 30.5772C21.0493 30.1402 20.6325 30.0977 20.0588 30.5526C18.9518 31.4332 17.7798 32.231 16.6459 33.0781C16.0543 33.5195 15.447 33.9206 14.721 33.4254C13.9837 32.9212 14.1585 32.2176 14.3916 31.5117C14.8487 30.1335 15.2476 28.733 15.7585 27.3727C16.0073 26.7139 15.8459 26.3711 15.2991 26.0013C14.0666 25.1632 12.8835 24.2534 11.6644 23.3951C11.0571 22.9671 10.5753 22.38 10.9832 21.7234C11.2498 21.2932 11.9423 21.0063 12.4935 20.901C13.2129 20.7621 13.9793 20.8674 14.7255 20.8674C14.7277 20.8876 14.7277 20.9077 14.7277 20.9279ZM23.5994 28.7935C23.3977 27.7559 22.8241 26.6041 23.0997 25.7145C23.3686 24.8495 24.5047 24.2534 25.4101 23.3974C24.7064 23.3974 24.1574 23.3548 23.6151 23.4063C22.4162 23.5184 21.7059 23.0433 21.4571 21.8377C21.3451 21.2954 21.1098 20.7778 20.9305 20.2467C20.8229 20.1839 20.7176 20.119 20.6101 20.0562C20.4846 22.938 18.9944 23.9778 16.7826 23.4355C17.3339 24.101 18.3468 24.8248 18.5731 25.7414C18.8017 26.6669 18.2482 27.7851 17.9613 29.1901C19.875 26.9335 21.7148 26.7565 23.5994 28.7935Z" fill="#444444"/>
<path d="M68.3914 12.7841C70.2625 12.7841 72.0149 12.7931 73.765 12.7796C74.4956 12.7729 75.2485 12.9208 75.3 13.7141C75.3337 14.225 74.9751 14.9197 74.5673 15.267C73.4916 16.1813 72.3308 17.0104 71.132 17.7589C70.3208 18.2631 70.267 18.7897 70.5785 19.6054C71.0715 20.8917 71.4412 22.2228 71.8961 23.5247C72.1381 24.2149 72.2524 24.9723 71.5196 25.2816C71.0535 25.4788 70.2737 25.3645 69.8233 25.0844C68.528 24.2799 67.3135 23.3432 66.1034 22.411C65.5992 22.0233 65.2339 22.039 64.7365 22.4244C63.5286 23.3589 62.314 24.2956 61.0188 25.1001C60.5684 25.378 59.6922 25.5146 59.3448 25.2614C58.9953 25.006 58.8586 24.132 58.9841 23.6166C59.3359 22.1735 59.8356 20.7617 60.3488 19.3634C60.5998 18.6822 60.472 18.2833 59.8692 17.8777C58.6322 17.0485 57.3953 16.2037 56.2591 15.2424C55.8558 14.9018 55.4591 14.1197 55.5869 13.7006C55.7124 13.2883 56.4899 12.867 57.0121 12.8244C58.4575 12.7057 59.9185 12.7438 61.3706 12.7998C62.146 12.8289 62.574 12.6609 62.7891 11.8183C63.1477 10.4132 63.6003 9.02164 64.1538 7.68383C64.3577 7.19307 64.909 6.64853 65.402 6.52304C66.1953 6.32136 66.5314 7.03397 66.7488 7.71296C67.2888 9.38019 67.8289 11.0407 68.3914 12.7841ZM62.6636 20.69C63.5936 20.1791 64.5236 19.2715 65.4491 19.276C66.3745 19.2805 67.2956 20.1992 68.3286 20.7774C68.1337 20.1387 68.0171 19.5516 67.7773 19.0228C67.2866 17.9427 67.5533 17.1718 68.5505 16.5645C69.0479 16.2597 69.4804 15.8474 69.9421 15.4844C69.9465 15.3723 69.9533 15.2581 69.9577 15.146C67.0872 16.0334 65.8726 14.6373 65.4154 11.9527C65.0659 14.7875 63.6227 15.9371 60.6199 15.1236C61.7336 16.1589 62.8855 16.7527 63.1701 17.6289C63.4524 18.5029 62.8675 19.6614 62.6636 20.69Z" fill="#444444"/>
</svg>
