<svg width="70" height="70" viewBox="0 0 70 70" fill="none" xmlns="http://www.w3.org/2000/svg">
<path d="M58.8176 34.951C58.8176 38.943 58.8168 42.935 58.8184 46.927C58.8184 47.7098 58.7188 48.4753 58.1418 49.0522C57.8011 49.3922 57.392 49.6869 56.9673 49.9157C54.819 51.0754 52.6576 52.2121 50.4953 53.348C46.7955 55.2921 43.0932 57.2289 39.3918 59.1689C38.2971 59.7426 37.2204 60.3533 36.1035 60.8801C35.301 61.2587 34.454 61.2052 33.6606 60.7863C31.2119 59.4948 28.7697 58.1911 26.3227 56.8972C23.7801 55.553 21.2376 54.2106 18.691 52.8747C16.6974 51.8285 14.6932 50.803 12.7038 49.7478C11.6716 49.2004 11.1835 48.3032 11.1712 47.141C11.1703 47.0447 11.1679 46.9492 11.1679 46.8529C11.1679 38.8961 11.1728 30.9401 11.1621 22.9832C11.1605 21.7387 11.5531 20.7378 12.6791 20.1098C13.0577 19.8983 13.4478 19.7081 13.8314 19.5073C15.6817 18.536 17.5329 17.5664 19.3807 16.5919C22.3809 15.0099 25.3786 13.4238 28.3788 11.8418C30.0694 10.9504 31.7732 10.0853 33.4499 9.16924C34.4771 8.60789 35.4763 8.59883 36.4928 9.13384C39.0749 10.4919 41.6528 11.8583 44.2332 13.2197C46.8844 14.6181 49.5372 16.0141 52.1892 17.4109C53.8815 18.3023 55.5787 19.1838 57.2644 20.0868C58.3773 20.6827 58.8267 21.6506 58.8217 22.8943C58.8086 26.9118 58.8176 30.9318 58.8176 34.951ZM35.9051 59.0364C36.1109 58.9368 36.2344 58.8808 36.3537 58.8183C39.8231 56.9959 43.2932 55.1761 46.7609 53.3504C49.9298 51.682 53.0905 49.9996 56.2652 48.3427C56.8611 48.0316 57.0949 47.5929 57.094 46.9369C57.085 39.0796 57.0883 31.2224 57.0866 23.3651C57.0866 23.2244 57.0628 23.0828 57.0463 22.9075C56.9113 22.9552 56.8331 22.9742 56.7632 23.0096C54.8421 23.9874 52.9251 24.9743 51.0007 25.9455C48.3734 27.2715 45.7386 28.5811 43.1105 29.9063C40.8231 31.0594 38.5456 32.234 36.2508 33.3731C35.92 33.5378 35.8426 33.7353 35.8426 34.0637C35.8483 42.209 35.8467 50.3544 35.8492 58.4997C35.8508 58.6553 35.8821 58.8117 35.9051 59.0364ZM12.9309 22.8499C12.9161 23.1717 12.898 23.3849 12.898 23.5981C12.8964 31.28 12.8964 38.9619 12.898 46.6439C12.898 46.8628 12.9178 47.0818 12.9268 47.3007C12.9449 47.7592 13.1968 48.0341 13.5927 48.2415C17.3386 50.2087 21.0796 52.1858 24.823 54.1587C27.368 55.5004 29.913 56.8404 32.4588 58.1812C32.9815 58.4569 33.5034 58.7335 34.0902 59.0438C34.1034 58.7574 34.1207 58.5565 34.1207 58.3557C34.1223 50.3173 34.1223 42.2782 34.1207 34.2398C34.1207 34.0621 34.1273 33.881 34.0952 33.7073C34.0795 33.6209 34.0013 33.5164 33.9223 33.476C32.035 32.5122 30.1443 31.5549 28.2537 30.5985C27.8487 30.3935 27.4396 30.1976 26.982 29.9729C26.982 30.219 26.982 30.3828 26.982 30.5466C26.982 33.5369 26.9828 36.5281 26.9812 39.5184C26.9803 40.3604 26.5762 41.0123 25.8486 41.2847C25.0864 41.5695 24.4016 41.4172 23.8279 40.8246C23.4419 40.4254 23.0254 40.0509 22.6772 39.6212C22.2056 39.0385 21.6911 38.72 20.938 39.0747C20.8425 39.12 20.7223 39.1085 20.6145 39.1299C19.4894 39.3471 18.4728 38.5636 18.4687 37.4211C18.4555 33.6489 18.458 29.8766 18.4786 26.1044C18.4802 25.7554 18.3757 25.59 18.0843 25.4467C17.0966 24.9628 16.1188 24.4599 15.1368 23.9635C14.4347 23.6088 13.7335 23.2557 12.9309 22.8499ZM47.3075 16.8298C47.1898 16.7524 47.1363 16.7104 47.0778 16.6791C45.6415 15.9178 44.2085 15.1523 42.764 14.4082C42.6364 14.3424 42.4142 14.3671 42.2751 14.4329C41.5911 14.7589 40.9211 15.1144 40.2445 15.4568C37.1785 17.0051 34.11 18.5467 31.0472 20.0999C27.6948 21.8004 24.3555 23.5256 20.994 25.2072C20.4063 25.5011 20.1783 25.8838 20.1808 26.5159C20.1947 29.9853 20.1865 33.4546 20.1882 36.9248C20.1882 37.0705 20.2022 37.217 20.212 37.4104C20.5092 37.3635 20.7717 37.3553 21.0129 37.2787C22.008 36.9602 22.8229 37.1898 23.5077 37.9882C23.9489 38.5027 24.4419 38.9735 24.9144 39.4607C24.9917 39.5406 25.0872 39.604 25.2535 39.7389C25.2535 39.4747 25.2535 39.315 25.2535 39.1562C25.2535 36.0572 25.2535 32.9575 25.2535 29.8585C25.2535 28.6445 25.7918 27.7448 26.8676 27.1909C28.266 26.4715 29.6784 25.7801 31.0818 25.0706C34.1676 23.5108 37.2517 21.9453 40.3375 20.3855C42.1977 19.4456 44.0604 18.5122 45.9205 17.5706C46.3724 17.3401 46.8169 17.0915 47.3075 16.8298ZM28.1195 28.5054C28.1829 28.5992 28.1969 28.6478 28.2281 28.6634C30.3122 29.7145 32.3971 30.7639 34.4828 31.8109C34.8376 31.9887 35.189 31.9722 35.5454 31.7928C38.0156 30.5483 40.4906 29.3145 42.9582 28.0658C46.6045 26.2213 50.2459 24.3677 53.8889 22.5182C54.5886 22.1634 55.289 21.8111 56.0569 21.4235C55.8322 21.3008 55.6816 21.216 55.5293 21.1354C53.5646 20.095 51.5966 19.0595 49.6368 18.0101C49.3537 17.8586 49.1174 17.8529 48.8343 18.0051C48.0919 18.4052 47.3396 18.7863 46.5856 19.1649C44.1624 20.3839 41.7343 21.593 39.3127 22.8161C36.7562 24.1076 34.2055 25.4097 31.6522 26.7077C30.4851 27.302 29.3171 27.8963 28.1195 28.5054ZM13.9927 21.3955C14.0932 21.4745 14.1417 21.5263 14.2018 21.5568C15.834 22.3922 17.4654 23.2301 19.105 24.0508C19.2293 24.1133 19.4424 24.1026 19.5692 24.0376C20.752 23.4351 21.9191 22.8013 23.1019 22.1988C25.7975 20.8251 28.4981 19.462 31.1987 18.0965C33.8342 16.7647 36.4714 15.4371 39.1062 14.1037C39.5942 13.8568 40.0749 13.5925 40.6412 13.2929C40.5301 13.2304 40.484 13.2024 40.4354 13.1769C38.7786 12.3036 37.1324 11.4089 35.4541 10.5784C35.1882 10.4467 34.7388 10.5092 34.4458 10.6409C33.6918 10.9776 32.9807 11.4089 32.2473 11.7933C28.9903 13.4987 25.7301 15.1984 22.4731 16.9047C20.5627 17.9056 18.6547 18.9114 16.7476 19.9197C15.8381 20.4004 14.9335 20.8909 13.9927 21.3955Z" fill="#115C07"/>
<path d="M34.5659 70C32.9189 69.828 30.8908 69.7127 28.8965 69.3868C25.7251 68.8682 22.6788 67.8978 19.7955 66.4525C19.2021 66.1553 18.6053 65.8648 18.0226 65.5479C17.476 65.2507 17.3336 64.7725 17.6119 64.2853C17.8267 63.9099 18.3757 63.8136 18.8465 64.0334C20.4071 64.7602 21.9421 65.5578 23.548 66.1685C24.9283 66.6936 26.3844 67.0319 27.8215 67.3949C30.1295 67.9777 32.4868 68.1727 34.8614 68.176C36.6714 68.1785 38.4789 68.0896 40.2609 67.7571C41.5211 67.5225 42.7944 67.3077 44.0159 66.9315C45.5707 66.4525 47.1025 65.8747 48.6013 65.24C50.8821 64.2746 52.9901 62.9905 54.9639 61.4933C58.6719 58.68 61.6754 55.2567 63.9553 51.189C65.1241 49.1033 66.088 46.932 66.7489 44.6438C67.209 43.0503 67.521 41.4098 67.8255 39.776C68.293 37.268 68.2552 34.728 68.0963 32.1969C68.0231 31.0282 67.8354 29.8569 67.5852 28.7111C67.2452 27.1563 66.874 25.5998 66.3703 24.0928C65.9069 22.7075 65.3011 21.3626 64.6681 20.0431C63.3849 17.3714 61.7091 14.9523 59.7287 12.7497C57.1072 9.83513 54.0749 7.43663 50.608 5.59455C48.5511 4.5023 46.4111 3.62406 44.1657 2.98863C42.1219 2.41 40.0576 1.95483 37.9349 1.85112C36.199 1.76634 34.4565 1.69061 32.7222 1.75235C31.4448 1.79844 30.1607 2.00421 28.9055 2.26431C27.3762 2.58038 25.8609 2.98452 24.3629 3.42981C22.5093 3.98046 20.7602 4.79615 19.0621 5.7213C17.0949 6.79297 15.2553 8.04572 13.5384 9.48531C11.372 11.3019 9.48051 13.3703 7.8409 15.6692C7.42113 16.2586 6.88694 16.2248 6.5363 15.9878C6.14533 15.7235 6.06714 15.1622 6.36345 14.7457C7.9191 12.5579 9.69287 10.5644 11.7004 8.78239C14.4364 6.35344 17.4711 4.37143 20.8269 2.92032C22.3199 2.27419 23.8814 1.77539 25.4354 1.28565C27.4445 0.65187 29.5072 0.216453 31.6151 0.119328C33.6638 0.0230262 35.7216 -0.0395289 37.7719 0.0287879C39.1168 0.074058 40.4675 0.305347 41.7886 0.581907C44.6595 1.18194 47.4367 2.08241 50.0887 3.35903C53.656 5.076 56.8496 7.3214 59.6522 10.1117C62.3379 12.7851 64.5364 15.8182 66.2378 19.2093C67.1539 21.0358 67.9136 22.9273 68.4914 24.8846C68.8182 25.9916 69.0445 27.1292 69.2997 28.2568C69.8133 30.5252 69.9861 32.834 69.9746 35.1486C69.9656 37.0227 69.7894 38.8912 69.4783 40.7472C69.1663 42.6083 68.7062 44.4289 68.098 46.2076C66.9925 49.4391 65.4575 52.4582 63.4672 55.2419C61.2869 58.2923 58.6958 60.9402 55.6709 63.1486C53.2856 64.8902 50.7274 66.3315 47.9692 67.4188C46.2423 68.0995 44.4834 68.6691 42.6767 69.0666C41.3589 69.3563 40.0132 69.5399 38.6715 69.6963C37.4369 69.8403 36.1899 69.8848 34.5659 70Z" fill="#115C07"/>
<path d="M6.78527 18.2189C5.27572 18.3333 4.29541 17.1373 4.16042 15.8583C4.05342 14.8426 3.81143 13.8425 3.67891 12.8293C3.61307 12.3305 3.36861 11.8416 3.56533 11.314C3.72089 10.8975 4.03202 10.7608 4.43122 10.7831C4.82795 10.8061 5.10863 11.0168 5.17941 11.4185C5.3786 12.5469 5.56215 13.6787 5.74817 14.8096C5.8099 15.1858 5.83707 15.5702 5.92761 15.9389C6.01897 16.3142 6.28236 16.5159 6.68732 16.4591C7.53923 16.3389 8.38948 16.2114 9.23974 16.0846C9.90068 15.9858 10.56 15.8714 11.2217 15.7842C11.6637 15.7257 12.0358 16.0155 12.1165 16.441C12.2086 16.9307 11.9798 17.353 11.5074 17.4402C10.3805 17.6493 9.24797 17.8254 8.11704 18.0123C7.67339 18.0847 7.22892 18.1497 6.78527 18.2189Z" fill="#115C07"/>
<path d="M5.387 50.4011C5.39853 50.8159 5.19358 51.0801 4.82648 51.2176C4.46843 51.3517 3.98445 51.2093 3.82066 50.8735C3.35725 49.9204 2.91278 48.9582 2.49383 47.9853C2.33086 47.6067 2.63376 47.1375 3.0881 46.9515C3.45109 46.8033 3.96141 47.0494 4.16059 47.4791C4.53757 48.2923 4.9129 49.1063 5.27671 49.9253C5.34256 50.0718 5.35161 50.2422 5.387 50.4011Z" fill="#115C07"/>
<path d="M7.57808 56.2892C7.29493 56.0801 7.02249 55.9608 6.87022 55.7526C6.30393 54.9805 5.76645 54.187 5.23884 53.387C4.9664 52.9738 5.0874 52.4766 5.47919 52.2132C5.87592 51.9466 6.37471 52.0297 6.65868 52.4371C7.20686 53.224 7.74023 54.0208 8.27935 54.8142C8.4843 55.1155 8.51476 55.4579 8.30981 55.7344C8.1493 55.9517 7.86781 56.0777 7.57808 56.2892Z" fill="#115C07"/>
<path d="M12.3244 59.602C12.3104 60.0284 12.0758 60.3107 11.7795 60.412C11.5342 60.4959 11.1169 60.4704 10.9457 60.3116C10.1531 59.5749 9.40404 58.7888 8.67313 57.9888C8.41221 57.7032 8.52662 57.1715 8.818 56.9138C9.14806 56.6216 9.63862 56.6043 9.97033 56.9221C10.4189 57.3525 10.8354 57.8176 11.2692 58.2645C11.5046 58.5073 11.7671 58.7271 11.982 58.9872C12.1277 59.165 12.2116 59.3946 12.3244 59.602Z" fill="#115C07"/>
<path d="M0.000944777 36.88C-0.0163402 36.2857 0.205072 35.8799 0.540071 35.7787C0.986188 35.6437 1.39774 35.7771 1.61092 36.1351C1.65783 36.2141 1.69816 36.3071 1.70804 36.3968C1.80928 37.3739 1.91299 38.35 1.9953 39.3287C2.03893 39.8456 1.6817 40.2506 1.19937 40.281C0.687405 40.3131 0.335944 40.0045 0.276681 39.4612C0.178733 38.5665 0.0849004 37.671 0.000944777 36.88Z" fill="#115C07"/>
<path d="M3.21398 45.0744C3.20904 45.4711 2.95553 45.8119 2.60324 45.8942C2.17194 45.9954 1.70936 45.8201 1.59001 45.4201C1.28629 44.4027 1.01385 43.3747 0.765273 42.3417C0.677202 41.9771 1.03936 41.5606 1.45338 41.4429C1.77603 41.3515 2.30611 41.5672 2.40488 41.9112C2.6979 42.9311 2.94565 43.964 3.20986 44.9921C3.21562 45.0184 3.21233 45.0472 3.21398 45.0744Z" fill="#115C07"/>
</svg>
