<svg width="91" height="80" viewBox="0 0 91 80" fill="none" xmlns="http://www.w3.org/2000/svg">
<path d="M90.7034 64.3273C89.2986 66.7607 87.1362 67.6401 84.4317 67.3138C82.142 67.0373 80.5603 67.6678 79.2606 69.8413C78.1157 71.7604 76.2298 73.2647 74.5485 74.8188C74.1724 75.1673 73.2654 74.9405 72.6073 74.9847C72.7179 74.2713 72.5962 73.3643 72.9889 72.872C74.5872 70.87 76.4455 69.0781 78.0162 67.0539C79.3767 65.3062 79.5095 63.3428 78.1545 61.4403C74.5596 61.8661 74.3107 61.6449 75.3062 58.863C72.8949 57.8122 70.7324 57.8841 68.7469 59.8807C60.2242 68.4476 51.5799 69.8026 40.9999 64.2941C40.7676 64.1724 40.5076 64.1005 40.2366 64.001C41.7078 70.0127 48.6044 75.9802 55.9325 76.8928C59.3117 77.3131 62.8347 76.5388 66.2968 76.3895C67.2426 76.3508 68.2049 76.6218 69.1617 76.7545C68.3929 77.4735 67.7459 78.563 66.8388 78.8562C56.9169 82.0639 46.1654 78.375 40.0154 69.6698C39.0476 68.3038 38.1958 67.4631 36.3265 67.4465C33.8709 67.4244 32.4993 65.8371 32.4993 63.2986C32.4938 52.89 32.433 42.4759 32.5823 32.0673C32.6044 30.5353 33.3566 28.8374 34.2359 27.5211C36.7026 23.8377 36.7745 16.5097 34.1419 12.9203C31.7969 9.72362 32.0016 5.22724 34.4848 2.14669C35.9228 0.365839 37.7423 -0.214874 39.8661 0.116962C40.5519 0.222043 41.1658 0.813818 41.8129 1.18437C41.1768 1.67659 40.5961 2.50065 39.8993 2.60573C35.9283 3.21963 33.9926 6.43844 35.5577 10.155C36.2823 11.875 37.4382 12.9535 39.5564 12.8982C44.1578 12.7876 48.7704 12.8871 53.3774 12.8539C56.1261 12.8318 57.8406 10.7966 57.824 7.69942C57.8074 4.79585 56.0818 2.75506 53.5156 2.67763C51.5799 2.62233 49.6387 2.76059 47.7195 2.58361C47.1001 2.52831 46.5471 1.75955 45.9608 1.3171C46.5581 0.902308 47.1388 0.166737 47.7638 0.128023C50.153 -0.0102419 52.5588 -0.0655479 54.9425 0.111431C58.7752 0.393492 61.5073 5.97387 60.0694 10.4205C59.8426 11.1118 59.5329 11.8087 59.1237 12.406C55.5066 17.6766 56.0486 22.8477 59.1347 28.1737C60.003 29.667 60.368 31.6414 60.3846 33.4057C60.5008 43.0676 60.4399 52.7351 60.4399 62.4745C62.5747 62.657 62.6079 61.2191 62.9785 59.8862C64.7649 53.5205 64.6543 47.199 62.9619 40.8277C62.1489 37.7748 62.6411 34.9929 65.4728 32.9632C65.9374 32.6314 66.2305 31.7244 66.2028 31.0994C66.1309 29.573 65.8323 28.052 65.5723 26.1716C62.6301 24.8443 61.806 22.809 62.7738 18.0472C63.4154 14.8892 65.4949 13.3075 69.2115 13.2743C73.9125 13.23 78.6135 13.4015 83.3034 13.2134C86.7324 13.0752 89.1825 14.2587 90.72 17.3171C90.72 19.7119 90.72 22.1122 90.72 24.5069C89.5862 25.1595 88.4524 25.8177 87.7998 26.1938C87.5786 28.1018 87.3297 29.6614 87.2523 31.2321C87.2246 31.7907 87.4901 32.471 87.8441 32.919C88.7345 34.0417 89.7521 35.0648 90.7145 36.1267C90.7145 37.7859 90.7145 39.4451 90.7145 41.1043C88.5354 47.1879 88.2091 53.2716 90.7145 59.3553C90.7034 61.0089 90.7034 62.6681 90.7034 64.3273ZM57.7521 37.8523C57.0552 37.7693 56.5962 37.6366 56.1592 37.6808C53.5101 37.9297 51.5523 37.4319 50.1088 34.6666C48.6542 31.8792 44.1744 31.9345 42.7365 34.7717C41.3593 37.4817 39.4568 37.8633 36.9293 37.6864C36.3431 37.6476 35.7403 37.8689 35.2259 37.9629C35.2259 44.2954 35.2259 50.4067 35.2259 56.4959C42.8471 56.4959 50.247 56.4959 57.7576 56.4959C57.7521 50.2187 57.7521 44.1682 57.7521 37.8523ZM65.7161 58.7358C68.2823 57.3808 69.0898 55.611 68.8299 53.1223C68.6197 51.1202 68.7635 49.0794 68.7911 47.0552C68.8354 43.9525 69.3884 43.4105 72.552 43.3995C77.4134 43.3773 82.2748 43.3939 87.2025 43.3939C87.468 42.2878 87.7556 41.4195 87.8828 40.5291C88.5299 36.088 87.4791 34.9045 82.955 34.9045C78.7241 34.8989 74.4877 34.8989 70.2568 34.9045C65.9208 34.91 64.5934 36.2152 65.5004 40.3798C66.8333 46.4247 67.8565 52.4199 65.7161 58.7358ZM88.0432 23.1132C88.0432 21.7029 88.0653 20.4419 88.0376 19.181C87.9879 17.0572 86.8209 15.9013 84.758 15.8792C79.3269 15.8183 73.8904 15.8183 68.4593 15.8958C66.5236 15.9234 65.4175 17.1014 65.3179 19.0593C65.2516 20.3922 65.3069 21.7306 65.3069 23.1132C73.0718 23.1132 80.3999 23.1132 88.0432 23.1132ZM57.553 34.7828C59.0739 30.5076 55.5509 28.1405 54.1185 25.1485C53.7258 24.3244 50.7669 24.6784 48.9805 24.5788C47.6034 24.5014 46.2152 24.6507 44.8436 24.5456C41.2985 24.2802 37.9027 24.1198 36.6307 28.5664C36.061 30.5574 35.237 32.4821 34.4295 34.6998C37.4658 35.1036 39.2301 35.3414 40.8284 32.8747C43.2951 29.0641 49.423 29.0199 51.9781 32.7862C53.5654 35.1091 55.2467 35.2639 57.553 34.7828ZM86.572 46.2422C81.5392 46.2422 76.6225 46.2422 71.573 46.2422C71.573 49.3559 71.573 52.3424 71.573 55.2792C72.9059 55.5391 74.1005 55.6719 75.2398 56.0037C78.442 56.9384 79.4984 56.236 79.5648 52.8181C79.5869 51.7451 79.067 50.6667 79.0283 49.5882C79.0006 48.8305 79.3712 48.0562 79.5592 47.2875C80.1953 47.8074 81.2903 48.2498 81.3954 48.8582C81.8212 51.3359 81.9374 53.8634 82.1863 56.5125C83.4362 56.5125 85.123 56.5125 86.572 56.5125C86.572 53.0006 86.572 49.7044 86.572 46.2422ZM35.2812 59.4437C34.695 63.7797 34.7779 64.0286 36.8408 64.7199C37.7313 60.6937 39.1471 60.0742 42.7144 62.209C46.1323 64.2554 49.8267 65.1126 53.7921 64.8582C57.9401 64.5927 58.5485 63.7023 57.4313 59.4382C50.1088 59.4437 42.7697 59.4437 35.2812 59.4437ZM38.6825 21.714C44.0583 21.714 49.0524 21.714 54.1074 21.714C54.1074 19.6179 54.1074 17.7319 54.1074 15.6967C48.9639 15.6967 43.9698 15.6967 38.7987 15.6967C38.7544 16.3548 38.6936 16.8802 38.6881 17.4112C38.6715 18.7772 38.6825 20.1433 38.6825 21.714ZM82.0148 64.5208C87.927 65.19 88.9613 64.2277 87.4459 59.5212C85.1507 59.5212 82.8444 59.5212 80.4994 59.5212C81.0193 61.2301 81.4894 62.7787 82.0148 64.5208ZM84.31 27.7313C84.4317 27.4216 84.5589 27.1118 84.6806 26.8021C84.1939 26.4813 83.7072 25.8951 83.215 25.884C78.8845 25.8121 74.554 25.8121 70.2236 25.8896C69.8088 25.8951 69.405 26.5809 68.9958 26.9514C69.4161 27.2114 69.8364 27.687 70.2623 27.6926C74.9412 27.7534 79.6256 27.7313 84.31 27.7313ZM69.0566 30.6901C69.6982 32.3272 79.5537 32.9743 84.3819 31.8184C83.7625 30.2422 76.4566 29.678 69.0566 30.6901Z" fill="#444444"/>
<path d="M0 57.6906C1.73108 56.861 2.51089 57.414 2.66575 59.3276C3.11373 64.8859 3.15244 64.8804 8.8379 64.8804C14.0864 64.8804 19.3405 64.8251 24.5891 64.908C26.4639 64.9357 27.2603 64.3384 27.2106 62.375C27.111 58.2326 27.2769 54.0791 27.1165 49.9422C27.0723 48.7697 26.5303 47.4037 25.7671 46.5077C20.2475 39.9871 20.148 38.3611 25.6067 31.0386C22.4764 31.0386 19.6945 31.0386 16.9126 31.0386C15.989 31.0386 15.0322 31.1713 14.1639 30.9612C13.5776 30.8174 13.1075 30.1814 12.5877 29.7666C13.1462 29.3075 13.6827 28.4724 14.2579 28.4503C17.3827 28.3175 20.5185 28.3839 23.6544 28.3784C24.7384 28.3784 25.8224 28.3784 26.8511 28.3784C27.5645 23.9816 27.3875 23.7548 23.4719 23.7493C17.7588 23.7437 12.0457 23.7437 6.33807 23.7493C2.44453 23.7548 2.22883 24.0369 3.02524 28.3839C4.24197 28.3839 5.53613 28.2235 6.76393 28.4447C7.47738 28.572 8.08574 29.3131 8.73835 29.7776C8.1134 30.1979 7.54374 30.7565 6.85795 30.9888C6.19428 31.2156 5.40893 31.0994 4.14795 31.1547C4.96648 32.1005 5.54166 32.7476 6.08919 33.4112C9.03148 36.984 9.0536 40.9882 5.90668 44.3895C3.98757 46.4635 2.25096 48.3826 2.57173 51.5627C2.7653 53.4707 1.43243 53.5869 0 52.7075C0 51.0483 0 49.3891 0 47.73C1.16143 46.2201 2.24543 44.6384 3.49534 43.2059C6.30489 39.9871 6.32701 37.6809 3.55065 34.5173C2.2952 33.0849 1.17802 31.5308 0 30.032C0 27.8198 0 25.6075 0 23.3953C1.81404 22.3998 3.62255 21.4043 6.07813 20.0493C6.21087 19.2363 5.9454 18.1191 4.72867 16.4655C3.44557 14.7178 3.44557 11.6594 3.69997 9.25355C3.93779 7.01919 6.25511 7.01919 8.15211 7.01919C12.6596 7.03025 17.1725 7.03025 21.68 7.01919C23.577 7.01366 25.7339 6.99707 26.1763 9.24802C26.652 11.687 27.5258 14.657 25.2472 16.5042C23.5936 17.8426 23.5936 19.087 23.9033 20.9397C24.6776 21.0061 25.6067 20.8402 26.2372 21.1997C27.4373 21.8744 29.1795 22.6763 29.4394 23.7327C30.2303 26.9515 30.4792 30.3252 27.7194 33.0075C27.1276 33.5827 26.569 34.2021 26.027 34.8215C23.6655 37.5315 23.4055 40.2692 25.9772 42.6473C29.2016 45.6283 30.2082 49.0684 29.8874 53.2772C29.6496 56.3909 29.8708 59.5323 29.8321 62.6626C29.7878 66.1082 28.4218 67.4908 24.932 67.5129C18.3948 67.5572 11.8631 67.4521 5.32597 67.5627C2.96993 67.6014 1.24439 66.8216 0 64.8693C0 62.4801 0 60.0853 0 57.6906ZM23.5604 14.5353C23.5604 12.7434 23.5604 11.322 23.5604 9.85086C17.6703 9.85086 12.0069 9.85086 6.2717 9.85086C6.2717 11.5266 6.2717 13.0199 6.2717 14.5353C12.1563 14.5353 17.8251 14.5353 23.5604 14.5353ZM8.99276 17.4886C8.99276 18.7773 8.99276 19.8281 8.99276 20.9397C13.0578 20.9397 16.9513 20.9397 20.8559 20.9397C20.8559 19.7119 20.8559 18.6611 20.8559 17.4886C16.8683 17.4886 13.0467 17.4886 8.99276 17.4886Z" fill="#444444"/>
<path d="M14.9329 55.5009C11.1389 55.5065 8.15789 52.9237 8.22979 49.6827C8.29616 46.5801 11.2882 44.0692 14.9108 44.0747C18.6605 44.0802 21.7079 46.7405 21.6304 49.9427C21.5475 53.0564 18.6052 55.4954 14.9329 55.5009ZM15.2094 46.7183C12.6543 46.7294 10.6411 48.2559 10.8734 49.9427C11.1942 52.2213 12.9308 52.7909 14.9108 52.8241C17.3 52.8684 19.1527 51.447 18.937 49.6717C18.655 47.3488 16.7967 46.9672 15.2094 46.7183Z" fill="#444444"/>
<path d="M14.8054 60.9374C12.7812 60.9374 10.7515 61.048 8.74388 60.8821C8.01384 60.8213 7.33911 60.0968 6.63672 59.6765C7.2838 59.2119 7.91429 58.3657 8.57243 58.3436C12.7978 58.2219 17.0232 58.2219 21.2486 58.3436C21.9178 58.3602 22.5649 59.1953 23.2175 59.6488C22.5261 60.0802 21.8569 60.8213 21.138 60.8821C19.0419 61.048 16.9181 60.9374 14.8054 60.9374Z" fill="#444444"/>
<path d="M46.457 45.5564C44.5323 45.5564 42.5966 45.6449 40.683 45.5011C40.1632 45.4624 39.6931 44.7268 39.1953 44.312C39.682 43.8751 40.1632 43.0732 40.6665 43.0566C44.5158 42.9515 48.3706 42.9515 52.2144 43.0566C52.7176 43.0677 53.2043 43.8641 53.6966 44.2954C53.1158 44.7213 52.5628 45.4513 51.9544 45.5067C50.1348 45.667 48.2932 45.5675 46.457 45.5675C46.457 45.5675 46.457 45.562 46.457 45.5564Z" fill="#444444"/>
<path d="M46.4902 51.0322C44.5655 51.0322 42.6353 51.1207 40.7162 50.9769C40.1798 50.9382 39.6986 50.2081 39.1953 49.7989C39.6765 49.3509 40.1521 48.5323 40.6499 48.5213C44.4992 48.4107 48.3485 48.4107 52.1978 48.5158C52.7121 48.5323 53.2099 49.3122 53.7187 49.738C53.1435 50.1749 52.596 50.9326 51.9876 50.9879C50.168 51.1539 48.3263 51.0488 46.4902 51.0488C46.4902 51.0377 46.4902 51.0377 46.4902 51.0322Z" fill="#444444"/>
</svg>
