<svg width="80" height="80" viewBox="0 0 80 80" fill="none" xmlns="http://www.w3.org/2000/svg">
<path d="M79.9937 14.1721C77.9498 18.3702 74.202 17.6679 70.5992 17.3089C72.262 28.1049 61.2834 33.7989 53.4226 28.3915C53.1927 29.2009 52.9974 29.9819 52.7455 30.744C51.9613 33.1187 50.8306 35.1846 48.1379 35.8649C47.8797 35.931 47.5931 36.1861 47.4703 36.4318C45.7759 39.8142 43.373 42.6203 40.3779 45.0862C41.3385 46.8089 42.2612 48.4938 43.2092 50.163C47.6403 57.9513 52.0809 65.7366 56.5184 73.5249C58.3765 76.7908 58.1277 77.9372 55.1138 80C54.4839 80 53.854 80 53.2242 80C52.3423 79.0017 51.2653 78.1167 50.6133 76.9861C46.0594 69.0969 41.5967 61.1574 37.0963 53.2368C36.1987 51.6589 35.2697 50.1 34.3626 48.5505C33.906 48.6922 33.6068 48.7804 33.3139 48.8812C19.885 53.4919 5.67199 46.4688 1.27234 33.0147C0.743249 31.3834 0.418865 29.689 0 28.0293C0 26.2436 0 24.4611 0 22.6754C0.103929 22.2786 0.233053 21.8849 0.305488 21.4818C2.06913 11.7345 7.48917 4.98228 16.805 1.4928C18.5907 0.825132 20.5055 0.488151 22.3604 0C24.1461 0 25.9287 0 27.7144 0C28.0104 0.0944808 28.3001 0.226754 28.6025 0.273994C36.3688 1.4739 42.3683 5.3917 46.4625 12.0872C47.6309 13.9989 48.4182 16.1436 49.3725 18.1623C52.6825 9.39768 57.627 7.41989 66.6373 11.3314C66.8672 10.5315 66.9522 9.65593 67.3553 8.96622C68.2057 7.50177 69.0371 5.94599 70.2212 4.78073C71.5408 3.48319 73.5438 3.71939 74.9988 4.80592C75.6035 5.25628 76.2932 5.62475 76.9955 5.9019C78.8158 6.6231 79.8079 8.32375 79.6221 10.2606C79.5591 10.9157 79.8583 11.6054 79.9937 12.2793C79.9937 12.9124 79.9937 13.5422 79.9937 14.1721ZM41.7133 40.4535C41.1086 40.8062 40.8566 40.9448 40.6173 41.0991C36.1861 43.9493 31.3519 45.1303 26.0924 44.7398C18.3923 44.1666 12.018 39.2158 9.66853 31.8621C8.62294 28.5867 8.52531 25.2768 9.39139 21.9384C9.60869 21.1007 10.0905 20.4803 10.9125 20.8771C11.3251 21.0755 11.4511 21.9164 11.6495 22.4896C11.7093 22.6596 11.5833 22.8958 11.5392 23.1005C9.86064 31.1881 14.3611 39.1528 22.2597 41.5558C29.9472 43.8926 36.7404 41.9998 42.5289 36.4664C43.184 35.8397 43.7257 35.0902 44.3745 34.3312C41.0172 33.2698 40.4472 32.4195 40.5826 29.0182C40.5921 28.7694 40.5133 28.5111 40.4441 28.2655C39.5622 25.1539 41.0172 22.8612 44.2264 22.3919C45.2909 22.2376 46.3806 22.2313 47.4514 22.1589C47.3097 13.1801 38.4505 4.07212 28.4954 2.57932C17.586 0.938509 6.99472 7.49547 3.49264 18.049C0.00944799 28.5584 4.6642 40.1764 14.4083 45.3413C23.4438 50.1283 35.0114 48.1505 41.7133 40.4535ZM60.1024 28.1395C64.7477 28.1049 68.3757 24.4138 68.319 19.7811C68.2623 15.1862 64.5178 11.5865 59.8599 11.6495C55.3153 11.7125 51.6904 15.4004 51.7062 19.9417C51.7219 24.5272 55.4602 28.1742 60.1024 28.1395ZM36.5452 47.5679C41.6786 56.5908 46.705 65.4216 51.7282 74.2524C52.1943 75.0713 52.5439 75.9846 53.1391 76.6932C53.4887 77.112 54.2131 77.2191 54.7705 77.4648C54.865 76.8821 55.0035 76.2995 55.0319 75.7137C55.0413 75.4933 54.7957 75.2602 54.6666 75.0335C50.4559 67.6073 46.2483 60.1811 42.0313 52.7581C40.8472 50.6763 39.6378 48.6072 38.3938 46.453C37.723 46.853 37.2034 47.1711 36.5452 47.5679ZM46.2105 24.4926C45.9145 24.5241 45.2248 24.5304 44.5697 24.6847C42.5289 25.1728 42.1951 25.9602 42.9919 27.9159C43.162 28.3316 43.1273 28.9646 42.9289 29.3709C42.3085 30.6464 42.8722 31.1944 44.0154 31.5723C44.7335 31.8117 45.546 32.0164 46.0877 32.4951C47.5175 33.7517 48.2167 33.8115 49.3662 32.2967C49.8921 31.6038 50.2984 30.7724 50.5724 29.9409C51.8857 25.9791 50.8243 24.5555 46.2105 24.4926ZM73.6572 15.3248C74.328 15.2429 74.961 15.224 75.572 15.0854C77.5152 14.6414 77.8836 13.7753 77.1152 11.9014C76.9294 11.4479 77.0144 10.8149 77.1467 10.3078C77.4963 8.95992 76.9924 8.25132 75.6066 8.01827C75.0177 7.92064 74.3564 7.6057 73.9532 7.17739C72.9612 6.11605 72.051 5.85151 71.2164 7.01677C70.2716 8.3332 69.5252 9.89528 69.1095 11.4637C68.423 14.0619 68.6434 14.2477 71.2196 14.8839C72.0321 15.0823 72.8636 15.1831 73.6572 15.3248Z" fill="#444444"/>
<path d="M0 58.5782C0.888119 57.668 1.77309 56.7547 2.66121 55.8446C2.94465 55.5548 3.25959 55.2934 3.51153 54.9785C4.92245 53.1991 6.95063 52.6102 8.76466 53.9424C10.185 54.9848 11.2306 56.5563 12.3833 57.9452C12.7297 58.3641 12.8714 58.953 13.1706 59.6049C16.7294 56.2414 20.7606 54.9565 25.3082 56.8335C29.7992 58.6853 31.8306 62.3385 31.9754 67.2358C32.936 66.9335 33.7989 66.4957 34.6965 66.4138C36.2334 66.2784 37.8427 66.1083 39.326 66.4201C41.3826 66.8484 42.3494 68.6184 42.1857 70.7032C42.1384 71.2922 42.2423 71.9126 42.3746 72.4984C42.7431 74.0951 42.5667 75.5658 41.2534 76.6524C39.8331 77.8271 38.3214 78.8853 36.8475 79.997C36.1137 79.997 35.3767 79.997 34.6429 79.997C32.051 78.6365 30.4291 76.4288 29.4182 73.6006C25.7995 77.109 21.7873 78.2743 17.29 76.4823C12.7297 74.6651 10.7645 70.9142 10.5692 66.0485C9.87009 66.2878 9.3473 66.5776 8.79616 66.6406C7.05141 66.839 5.26888 67.2201 3.55248 67.0342C1.38887 66.798 0.179513 64.688 0.409417 62.5055C0.478702 61.8504 0.14802 61.1512 0 60.4741C0 59.838 0 59.2081 0 58.5782ZM29.5788 66.6563C29.5977 62.1244 25.8247 58.3137 21.3149 58.3074C16.8239 58.3011 13.0037 62.1055 12.9691 66.6185C12.9344 71.1284 16.7231 74.936 21.255 74.9454C25.7901 74.958 29.5599 71.204 29.5788 66.6563ZM36.9451 67.9822C35.276 68.653 33.5816 69.2797 31.9502 70.0356C31.5849 70.2056 31.1535 70.9142 31.2353 71.2575C31.7518 73.4085 32.4541 75.5155 34.2934 76.961C35.6098 77.9972 36.6302 77.7137 37.4553 76.2587C37.6789 75.8619 38.1261 75.4682 38.5544 75.3265C40.3275 74.7502 40.5511 74.2085 39.6567 72.4826C39.4804 72.1425 39.3701 71.6827 39.4394 71.3174C39.874 69.0089 39.3859 68.3696 36.9451 67.9822ZM5.81686 65.2926C7.42304 64.6124 9.05441 63.9825 10.6228 63.2204C10.9881 63.044 11.407 62.3606 11.3345 62.0047C10.8716 59.7718 10.0433 57.6806 8.12849 56.2508C6.86875 55.3092 6.03732 55.5737 5.19014 56.9122C4.9004 57.3689 4.33982 57.7657 3.82017 57.9452C2.45335 58.4176 2.08173 59.2585 2.73049 60.5875C2.94465 61.0253 3.1714 61.5733 3.08952 62.0173C2.67381 64.2911 3.21549 64.9431 5.81686 65.2926Z" fill="#444444"/>
<path d="M72.7503 79.9937C72.1803 79.83 71.5882 79.4772 71.0434 79.5339C68.316 79.83 66.3508 78.4537 66.1839 75.7012C66.0926 74.1737 66.4957 72.6085 66.735 71.0716C66.8201 70.5205 67.0783 69.9945 67.2673 69.4308C57.0098 69.4497 52.27 57.923 59.4128 50.6606C58.1814 49.9111 56.8618 49.2717 55.7312 48.3836C52.5283 45.8673 52.4558 43.4045 55.3848 40.611C55.4603 40.5386 55.5769 40.4882 55.6115 40.4031C56.7264 37.5498 58.7262 36.794 61.5291 37.8679C61.7465 37.9498 62.0393 37.8333 62.2944 37.8081C65.0596 37.5687 66.9775 38.9796 67.0594 41.7542C67.1193 43.7887 66.6122 45.8389 66.3792 47.7128C68.0483 48.2262 69.96 48.7143 71.774 49.4355C72.237 49.6213 72.7818 50.6701 72.6369 51.1078C72.2653 52.2321 71.3835 51.807 70.5804 51.4007C67.3019 49.7504 64.1904 50.0559 61.315 52.3329C58.2633 54.7516 57.4413 59.2835 59.3844 62.7195C61.4473 66.3602 65.6643 67.9128 69.5254 66.4515C73.2164 65.0532 75.4903 61.0535 74.7439 57.2491C74.6336 56.6853 74.2967 56.1153 74.3565 55.5831C74.4195 55.013 74.832 54.4808 75.0934 53.9296C75.5721 54.2351 76.3154 54.4335 76.4918 54.865C77.5657 57.5073 77.5688 60.2158 76.3595 62.8045C75.7076 64.2028 74.7344 65.45 73.8022 66.9333C76.5295 67.7585 78.6522 69.4906 80.0001 72.114C80.0001 72.8478 80.0001 73.5848 80.0001 74.3186C78.3215 76.2082 76.6398 78.0978 74.9612 79.9874C74.2211 79.9937 73.4841 79.9937 72.7503 79.9937ZM64.8391 43.9084C64.9053 40.633 64.0959 39.9843 61.9197 40.4882C61.4977 40.5858 60.9308 40.3528 60.5088 40.126C59.1671 39.4016 58.3609 39.7323 57.9074 41.1621C57.7499 41.6534 57.4444 42.2329 57.0287 42.4817C55.4414 43.4297 55.1895 44.28 56.3075 45.6972C57.7562 47.5364 59.86 48.2136 62.0047 48.7521C62.2787 48.8214 62.8519 48.5096 62.981 48.2356C63.762 46.5475 64.4549 44.8185 64.8391 43.9084ZM68.3727 73.4935C68.3255 76.7719 69.0561 77.3514 71.3174 76.9137C71.752 76.8286 72.2968 77.068 72.7346 77.279C74.0762 77.9309 74.8509 77.5656 75.3202 76.1326C75.4777 75.6508 75.8398 75.1122 76.2618 74.8571C77.7798 73.9501 78.0255 72.9864 76.8791 71.6101C75.4367 69.8811 73.44 69.1064 71.3237 68.6308C70.9961 68.5584 70.3537 68.8576 70.2151 69.1536C69.4309 70.8385 68.7538 72.5707 68.3727 73.4935Z" fill="#444444"/>
<path d="M26.1305 24.754C26.5777 24.4044 27.3493 24.08 27.6485 23.51C28.1681 22.5211 27.7619 21.5637 26.858 20.8929C24.4991 19.1387 20.9813 20.8583 20.4617 24.0108C19.7027 28.6246 23.9102 32.0637 28.6468 30.7063C33.0402 29.4466 35.3172 24.7131 33.8433 19.9229C32.1552 14.4462 26.3478 11.6432 20.3577 13.3974C17.9138 14.1123 15.9738 15.5421 14.2133 17.3404C13.8575 17.7026 12.9851 17.5577 12.3489 17.6459C12.4024 17.0381 12.2229 16.2444 12.541 15.8539C18.3484 8.67654 30.9553 8.50962 35.3865 17.4192C38.835 24.3477 35.1125 32.177 27.7808 33.2541C21.6773 34.1517 16.6793 28.7033 18.2886 22.9116C19.5263 18.4301 24.7196 16.4019 28.2658 19.0096C30.5931 20.7197 30.9081 23.8879 28.9523 25.8846C27.5225 27.3428 25.3526 27.4247 23.8378 26.0799C22.7229 25.091 22.6316 23.3903 23.6425 22.4518C24.4739 21.6802 26.0896 21.5259 26.4328 22.3416C26.6753 22.9274 26.2785 23.7809 26.1305 24.754Z" fill="#444444"/>
</svg>
