<svg width="78" height="80" viewBox="0 0 78 80" fill="none" xmlns="http://www.w3.org/2000/svg">
<path d="M8.44412 79.9998C6.04412 79.3723 3.88603 78.3447 2.27166 76.3735C0.887232 74.6824 0.0968128 72.7663 0.00579485 70.5747C-0.0588758 68.9699 0.405795 68.4741 2.0034 68.4645C5.47406 68.4453 8.94711 68.4429 12.4202 68.4285C12.4513 68.4285 12.4824 68.3926 12.6142 68.3088C12.413 68.1244 12.2477 67.9375 12.0537 67.7938C6.26927 63.5423 3.16987 57.8657 3.12196 50.6561C3.06208 41.8753 3.1028 33.092 3.10759 24.3112C3.10759 22.6968 3.53633 22.2082 5.01178 22.2034C10.88 22.189 16.7459 22.2034 22.6142 22.1914C23.4597 22.189 24.2285 22.4333 24.3651 23.286C24.4489 23.8106 24.1902 24.5866 23.8022 24.9339C23.4285 25.2693 22.6908 25.2932 22.1136 25.2956C17.3639 25.322 12.6142 25.31 7.86448 25.31C7.38783 25.31 6.91118 25.31 6.28364 25.31C6.25969 25.7842 6.22376 26.2034 6.22376 26.6226C6.22136 34.5268 6.2046 42.4285 6.22615 50.3327C6.2549 60.6297 14.0537 68.4357 24.3531 68.4453C28.9399 68.4501 33.5531 68.6273 38.1112 68.2226C46.6285 67.4657 53.5651 59.8729 53.6848 51.3651C53.8046 42.8645 53.716 34.3615 53.716 25.8585C53.716 25.7435 53.6848 25.6262 53.6489 25.3675C53.2489 25.3483 52.8297 25.3124 52.413 25.3124C47.5842 25.3076 42.7531 25.3124 37.9244 25.3076C37.5268 25.3076 37.122 25.3124 36.7339 25.2357C35.8621 25.0657 35.4142 24.4956 35.4765 23.6166C35.5363 22.7974 36.0273 22.3112 36.8561 22.2226C37.213 22.1842 37.5747 22.1962 37.9315 22.1962C43.3208 22.1938 48.71 22.1938 54.0968 22.1962C56.5256 22.1962 56.6693 22.3232 56.8968 24.5052C59.2082 24.7064 61.5315 24.6872 63.7567 25.1447C71.5483 26.7447 77.4333 33.8968 77.7255 41.8896C78.0321 50.2513 72.8249 57.7291 65.0908 60.0573C61.886 61.0226 58.6621 61.1279 55.395 60.4022C55.0573 60.3279 54.4417 60.4357 54.3124 60.6609C52.5687 63.7339 50.2262 66.2393 47.0597 68.3567C47.6561 68.4046 47.9818 68.4525 48.3076 68.4525C52.4992 68.4573 56.6908 68.4525 60.88 68.4573C62.698 68.4597 63.1579 68.9531 63.0621 70.7495C62.8393 74.8932 59.716 78.5747 55.4501 79.7244C55.189 79.7938 54.9375 79.9016 54.6812 79.9902C39.2633 79.9998 23.8549 79.9998 8.44412 79.9998ZM3.44052 71.6429C3.82136 74.5842 6.72675 76.8764 10.1184 76.8788C24.3699 76.8932 38.6214 76.8932 52.8729 76.8645C53.7711 76.8621 54.7172 76.692 55.5579 76.3758C57.7303 75.5567 59.0836 73.9639 59.7543 71.6429C40.8585 71.6429 22.1543 71.6429 3.44052 71.6429ZM55.8597 57.1232C59.6441 58.6417 66.6573 57.6573 71.019 52.5363C75.292 47.5208 75.8405 40.2992 72.298 34.7136C68.9998 29.5136 62.1878 26.5723 56.8297 28.1124C56.8297 28.6345 56.8297 29.1878 56.8297 29.7411C56.8297 30.3279 56.8297 30.9172 56.8297 31.528C65.2944 30.0022 70.8585 35.9974 71.1291 42.2321C71.2705 45.5016 70.2046 48.3806 67.922 50.7208C64.8034 53.916 60.9591 54.8405 56.6238 53.9256C56.3507 55.0633 56.104 56.098 55.8597 57.1232ZM56.8297 50.589C62.2309 52.5124 67.7878 48.6944 68.0273 43.0178C68.2501 37.6884 63.0094 33.3244 57.8621 34.5675C57.3423 34.692 56.8058 34.7423 56.8106 35.5711C56.8465 40.5579 56.8297 45.5447 56.8297 50.589Z" fill="#444444"/>
<path d="M30.4784 0C31.6689 0.991617 31.7934 1.62874 31.0078 2.71377C29.4844 4.81437 29.5659 6.3976 31.2976 8.39521C33.688 11.1521 33.7215 15.0802 31.3168 17.6359C30.9479 18.0263 30.3203 18.3784 29.8078 18.3856C28.6054 18.4 28.0449 16.9725 28.7515 15.8994C30.4928 13.2527 30.4449 12.2659 28.4497 9.87066C26.0114 6.94371 26.3275 3.18084 29.2784 0C29.6808 0 30.0808 0 30.4784 0Z" fill="#444444"/>
<path d="M39.6471 18.4386C38.0831 18.4146 37.4124 17.1068 38.0663 16.0026C39.2184 14.0505 39.2112 13.9763 37.7837 12.1296C36.2723 10.1775 36.3178 7.33437 37.8891 5.48766C38.6364 4.60862 39.5777 4.38826 40.2843 4.99904C41.0915 5.69844 41.0196 6.47449 40.4256 7.32479C39.5034 8.63976 39.5753 9.32958 40.634 10.6469C42.3489 12.7763 42.4663 15.4924 40.8639 17.4613C40.4879 17.9188 39.9202 18.223 39.6471 18.4386Z" fill="#444444"/>
<path d="M23.2601 14.2328C23.205 15.6436 22.7451 16.8939 21.7391 17.8975C21.0948 18.5394 20.3427 18.6879 19.605 18.0484C18.896 17.4328 18.8385 16.7214 19.3607 15.9214C20.4625 14.2328 20.4265 13.8903 19.1211 12.2448C17.5786 10.3023 17.5451 7.50944 19.0421 5.58609C19.7822 4.63519 20.7499 4.39806 21.5235 4.9801C22.266 5.53818 22.2924 6.38369 21.6026 7.40405C20.8241 8.55136 20.8505 9.44477 21.7966 10.5346C22.7283 11.6076 23.2122 12.8244 23.2601 14.2328Z" fill="#444444"/>
<path d="M29.9697 25.2861C29.0284 25.2286 28.4919 24.7064 28.4009 23.7963C28.3147 22.9555 29.1194 22.1867 29.9913 22.225C30.9518 22.2681 31.438 22.8358 31.4787 23.7579C31.5147 24.6011 30.8057 25.2813 29.9697 25.2861Z" fill="#444444"/>
</svg>
