<svg width="529" height="319" viewBox="0 0 529 319" fill="none" xmlns="http://www.w3.org/2000/svg">
<path d="M13.976 55V14.674H0.95V2.974H42.914V14.674H29.576V55H13.976ZM49.5355 55V0.399996H63.8095V24.58L57.1015 21.382C59.2335 19.25 61.8595 17.508 64.9795 16.156C68.0995 14.752 71.3495 14.05 74.7295 14.05C77.4335 14.05 79.8515 14.466 81.9835 15.298C84.1675 16.078 85.8835 17.482 87.1315 19.51C88.4315 21.486 89.0815 24.294 89.0815 27.934V55H74.8855V31.366C74.8855 29.234 74.3135 27.752 73.1695 26.92C72.0775 26.036 70.4915 25.594 68.4115 25.594C67.4235 25.594 66.4355 25.75 65.4475 26.062C64.5115 26.322 63.9655 26.582 63.8095 26.842L63.5755 55H49.5355ZM117.08 56.17C112.972 56.17 109.332 55.338 106.16 53.674C102.988 52.01 100.518 49.67 98.7498 46.654C96.9818 43.586 96.0978 40.024 96.0978 35.968C96.0978 29 97.8658 23.566 101.402 19.666C104.99 15.714 110.164 13.738 116.924 13.738C121.344 13.738 124.932 14.674 127.688 16.546C130.444 18.418 132.472 21.252 133.772 25.048C135.124 28.792 135.774 33.472 135.722 39.088H106.16L104.288 30.742H123.554L122.072 35.578C122.02 31.262 121.552 28.298 120.668 26.686C119.836 25.022 118.354 24.19 116.222 24.19C115.234 24.19 114.272 24.528 113.336 25.204C112.4 25.828 111.646 26.868 111.074 28.324C110.502 29.728 110.216 31.626 110.216 34.018C110.216 37.398 111.022 39.998 112.634 41.818C114.246 43.638 117.002 44.548 120.902 44.548C122.202 44.548 123.528 44.366 124.88 44.002C126.232 43.638 127.506 43.248 128.702 42.832C129.898 42.364 130.886 42.026 131.666 41.818V53.596C129.846 54.272 127.766 54.87 125.426 55.39C123.086 55.91 120.304 56.17 117.08 56.17ZM164.183 55V2.974H179.783V23.02H195.227V2.974H210.827V55H195.227V35.5H179.783V55H164.183ZM236.531 56.17C233.827 56.17 231.357 55.936 229.121 55.468C226.885 55 224.935 54.246 223.271 53.206C221.659 52.114 220.411 50.658 219.527 48.838C218.643 46.966 218.201 44.678 218.201 41.974C218.201 39.842 218.669 37.918 219.605 36.202C220.541 34.434 222.023 33.03 224.051 31.99C226.131 30.898 228.835 30.352 232.163 30.352C233.775 30.352 235.413 30.56 237.077 30.976C238.793 31.392 240.327 31.938 241.679 32.614C243.083 33.29 244.123 34.018 244.799 34.798L245.033 40.648C244.045 40.128 242.979 39.738 241.835 39.478C240.743 39.218 239.599 39.088 238.403 39.088C236.167 39.088 234.581 39.374 233.645 39.946C232.709 40.466 232.241 41.376 232.241 42.676C232.241 43.3 232.423 43.924 232.787 44.548C233.203 45.12 233.723 45.614 234.347 46.03C235.023 46.394 235.751 46.576 236.531 46.576C238.871 46.576 240.431 46.446 241.211 46.186C241.991 45.874 242.381 45.302 242.381 44.47V31.444C242.381 29.312 241.653 27.778 240.197 26.842C238.793 25.906 236.791 25.438 234.191 25.438C231.799 25.438 229.433 25.906 227.093 26.842C224.753 27.726 222.933 28.714 221.633 29.806V17.482C222.829 16.702 224.883 15.922 227.795 15.142C230.707 14.362 234.139 13.972 238.091 13.972C239.079 13.972 240.327 14.05 241.835 14.206C243.395 14.362 245.007 14.7 246.671 15.22C248.335 15.688 249.895 16.442 251.351 17.482C252.859 18.522 254.055 19.926 254.939 21.694C255.875 23.41 256.343 25.62 256.343 28.324L256.265 46.81C256.265 48.838 255.537 50.554 254.081 51.958C252.625 53.362 250.441 54.402 247.529 55.078C244.617 55.806 240.951 56.17 236.531 56.17ZM279.751 55H265.711V0.399996H279.751V55ZM305.086 56.17C302.382 56.17 299.912 55.936 297.676 55.468C295.44 55 293.49 54.246 291.826 53.206C290.214 52.114 288.966 50.658 288.082 48.838C287.198 46.966 286.756 44.678 286.756 41.974C286.756 39.842 287.224 37.918 288.16 36.202C289.096 34.434 290.578 33.03 292.606 31.99C294.686 30.898 297.39 30.352 300.718 30.352C302.33 30.352 303.968 30.56 305.632 30.976C307.348 31.392 308.882 31.938 310.234 32.614C311.638 33.29 312.678 34.018 313.354 34.798L313.588 40.648C312.6 40.128 311.534 39.738 310.39 39.478C309.298 39.218 308.154 39.088 306.958 39.088C304.722 39.088 303.136 39.374 302.2 39.946C301.264 40.466 300.796 41.376 300.796 42.676C300.796 43.3 300.978 43.924 301.342 44.548C301.758 45.12 302.278 45.614 302.902 46.03C303.578 46.394 304.306 46.576 305.086 46.576C307.426 46.576 308.986 46.446 309.766 46.186C310.546 45.874 310.936 45.302 310.936 44.47V31.444C310.936 29.312 310.208 27.778 308.752 26.842C307.348 25.906 305.346 25.438 302.746 25.438C300.354 25.438 297.988 25.906 295.648 26.842C293.308 27.726 291.488 28.714 290.188 29.806V17.482C291.384 16.702 293.438 15.922 296.35 15.142C299.262 14.362 302.694 13.972 306.646 13.972C307.634 13.972 308.882 14.05 310.39 14.206C311.95 14.362 313.562 14.7 315.226 15.22C316.89 15.688 318.45 16.442 319.906 17.482C321.414 18.522 322.61 19.926 323.494 21.694C324.43 23.41 324.898 25.62 324.898 28.324L324.82 46.81C324.82 48.838 324.092 50.554 322.636 51.958C321.18 53.362 318.996 54.402 316.084 55.078C313.172 55.806 309.506 56.17 305.086 56.17ZM348.306 55H334.266V0.399996H348.306V55ZM395.834 55V33.082L375.944 2.974H395.21L409.328 28.09L401.762 28.246L414.086 2.974H429.14L409.25 36.982L411.434 29.026V55H395.834ZM445.836 56.17C438.92 56.17 433.694 54.402 430.158 50.866C426.674 47.33 424.932 42 424.932 34.876C424.932 27.128 426.674 21.668 430.158 18.496C433.694 15.324 438.92 13.738 445.836 13.738C450.36 13.738 454.182 14.44 457.302 15.844C460.474 17.196 462.866 19.432 464.478 22.552C466.142 25.62 466.974 29.728 466.974 34.876C466.974 42 465.154 47.33 461.514 50.866C457.874 54.402 452.648 56.17 445.836 56.17ZM445.836 45.094C447.24 45.094 448.462 44.756 449.502 44.08C450.594 43.352 451.426 42.234 451.998 40.726C452.622 39.218 452.934 37.268 452.934 34.876C452.934 32.016 452.622 29.858 451.998 28.402C451.426 26.946 450.594 25.958 449.502 25.438C448.462 24.918 447.24 24.658 445.836 24.658C444.38 24.658 443.132 24.918 442.092 25.438C441.052 25.958 440.272 26.946 439.752 28.402C439.232 29.858 438.972 32.016 438.972 34.876C438.972 38.568 439.544 41.194 440.688 42.754C441.884 44.314 443.6 45.094 445.836 45.094ZM493.543 56.17C489.747 56.17 486.367 55.624 483.403 54.532C480.491 53.388 478.177 51.62 476.461 49.228C474.797 46.784 473.965 43.586 473.965 39.634V15.298H488.161V38.776C488.161 40.648 488.577 42.078 489.409 43.066C490.293 44.002 491.697 44.47 493.621 44.47C495.597 44.47 497.001 44.002 497.833 43.066C498.665 42.078 499.081 40.648 499.081 38.776V15.298H512.263V39.634C512.263 45.51 510.573 49.748 507.193 52.348C503.813 54.896 499.263 56.17 493.543 56.17ZM3.68 145V96.976H18.152V134.128H37.376V145H3.68ZM61.3779 146.08C54.9939 146.08 50.1699 144.448 46.9059 141.184C43.6899 137.92 42.0819 133 42.0819 126.424C42.0819 119.272 43.6899 114.232 46.9059 111.304C50.1699 108.376 54.9939 106.912 61.3779 106.912C65.5539 106.912 69.0819 107.56 71.9619 108.856C74.8899 110.104 77.0979 112.168 78.5859 115.048C80.1219 117.88 80.8899 121.672 80.8899 126.424C80.8899 133 79.2099 137.92 75.8499 141.184C72.4899 144.448 67.6659 146.08 61.3779 146.08ZM61.3779 135.856C62.6739 135.856 63.8019 135.544 64.7619 134.92C65.7699 134.248 66.5379 133.216 67.0659 131.824C67.6419 130.432 67.9299 128.632 67.9299 126.424C67.9299 123.784 67.6419 121.792 67.0659 120.448C66.5379 119.104 65.7699 118.192 64.7619 117.712C63.8019 117.232 62.6739 116.992 61.3779 116.992C60.0339 116.992 58.8819 117.232 57.9219 117.712C56.9619 118.192 56.2419 119.104 55.7619 120.448C55.2819 121.792 55.0419 123.784 55.0419 126.424C55.0419 129.832 55.5699 132.256 56.6259 133.696C57.7299 135.136 59.3139 135.856 61.3779 135.856ZM97.4758 145L82.2838 108.352H96.4678L106.62 134.992H103.38L111.804 108.352H125.772L110.58 145H97.4758ZM146.528 146.08C142.736 146.08 139.376 145.312 136.448 143.776C133.52 142.24 131.24 140.08 129.608 137.296C127.976 134.464 127.16 131.176 127.16 127.432C127.16 121 128.792 115.984 132.056 112.384C135.368 108.736 140.144 106.912 146.384 106.912C150.464 106.912 153.776 107.776 156.32 109.504C158.864 111.232 160.736 113.848 161.936 117.352C163.184 120.808 163.784 125.128 163.736 130.312H136.448L134.72 122.608H152.504L151.136 127.072C151.088 123.088 150.656 120.352 149.84 118.864C149.072 117.328 147.704 116.56 145.736 116.56C144.824 116.56 143.936 116.872 143.072 117.496C142.208 118.072 141.512 119.032 140.984 120.376C140.456 121.672 140.192 123.424 140.192 125.632C140.192 128.752 140.936 131.152 142.424 132.832C143.912 134.512 146.456 135.352 150.056 135.352C151.256 135.352 152.48 135.184 153.728 134.848C154.976 134.512 156.152 134.152 157.256 133.768C158.36 133.336 159.272 133.024 159.992 132.832V143.704C158.312 144.328 156.392 144.88 154.232 145.36C152.072 145.84 149.504 146.08 146.528 146.08ZM204.408 146.08C201.912 146.08 199.632 145.864 197.568 145.432C195.504 145 193.704 144.304 192.168 143.344C190.68 142.336 189.528 140.992 188.712 139.312C187.896 137.584 187.488 135.472 187.488 132.976C187.488 131.008 187.92 129.232 188.784 127.648C189.648 126.016 191.016 124.72 192.888 123.76C194.808 122.752 197.304 122.248 200.376 122.248C201.864 122.248 203.376 122.44 204.912 122.824C206.496 123.208 207.912 123.712 209.16 124.336C210.456 124.96 211.416 125.632 212.04 126.352L212.256 131.752C211.344 131.272 210.36 130.912 209.304 130.672C208.296 130.432 207.24 130.312 206.136 130.312C204.072 130.312 202.608 130.576 201.744 131.104C200.88 131.584 200.448 132.424 200.448 133.624C200.448 134.2 200.616 134.776 200.952 135.352C201.336 135.88 201.816 136.336 202.392 136.72C203.016 137.056 203.688 137.224 204.408 137.224C206.568 137.224 208.008 137.104 208.728 136.864C209.448 136.576 209.808 136.048 209.808 135.28V123.256C209.808 121.288 209.136 119.872 207.792 119.008C206.496 118.144 204.648 117.712 202.248 117.712C200.04 117.712 197.856 118.144 195.696 119.008C193.536 119.824 191.856 120.736 190.656 121.744V110.368C191.76 109.648 193.656 108.928 196.344 108.208C199.032 107.488 202.2 107.128 205.848 107.128C206.76 107.128 207.912 107.2 209.304 107.344C210.744 107.488 212.232 107.8 213.768 108.28C215.304 108.712 216.744 109.408 218.088 110.368C219.48 111.328 220.584 112.624 221.4 114.256C222.264 115.84 222.696 117.88 222.696 120.376L222.624 137.44C222.624 139.312 221.952 140.896 220.608 142.192C219.264 143.488 217.248 144.448 214.56 145.072C211.872 145.744 208.488 146.08 204.408 146.08ZM231.343 111.52C232.159 111.088 233.359 110.632 234.943 110.152C236.527 109.624 238.303 109.144 240.271 108.712C242.287 108.28 244.303 107.92 246.319 107.632C248.335 107.344 250.159 107.2 251.791 107.2C254.959 107.2 257.743 107.584 260.143 108.352C262.543 109.072 264.415 110.368 265.759 112.24C267.103 114.064 267.775 116.656 267.775 120.016V145H254.671V123.184C254.671 122.224 254.527 121.408 254.239 120.736C253.999 120.016 253.615 119.464 253.087 119.08C252.607 118.648 251.983 118.336 251.215 118.144C250.495 117.952 249.655 117.856 248.695 117.856C247.783 117.856 246.871 118 245.959 118.288C245.095 118.528 244.591 118.768 244.447 119.008V145H231.343V111.52ZM294.918 146.08C291.606 146.08 288.654 145.744 286.062 145.072C283.518 144.4 281.358 143.32 279.582 141.832C277.854 140.296 276.534 138.28 275.622 135.784C274.71 133.24 274.254 130.12 274.254 126.424C274.254 120.376 275.742 115.624 278.718 112.168C281.694 108.664 286.158 106.912 292.11 106.912C292.734 106.912 293.622 106.96 294.774 107.056C295.926 107.104 297.174 107.392 298.518 107.92C299.862 108.4 301.086 109.336 302.19 110.728L299.886 114.76V93.448H312.846V134.128C312.846 136.048 312.366 137.752 311.406 139.24C310.446 140.728 309.126 141.976 307.446 142.984C305.814 143.992 303.918 144.76 301.758 145.288C299.598 145.816 297.318 146.08 294.918 146.08ZM295.494 135.28C296.886 135.28 297.966 135.088 298.734 134.704C299.502 134.272 299.886 133.6 299.886 132.688V118.36C299.262 118.024 298.614 117.76 297.942 117.568C297.27 117.376 296.598 117.28 295.926 117.28C294.15 117.28 292.614 117.52 291.318 118C290.022 118.48 289.038 119.416 288.366 120.808C287.694 122.2 287.358 124.24 287.358 126.928C287.358 128.848 287.646 130.432 288.222 131.68C288.798 132.88 289.686 133.792 290.886 134.416C292.086 134.992 293.622 135.28 295.494 135.28ZM350.394 145V107.776H338.37V96.976H377.106V107.776H364.794V145H350.394ZM379.562 145V112.6C380.282 111.88 381.506 111.112 383.234 110.296C385.01 109.432 387.002 108.688 389.21 108.064C391.418 107.44 393.578 107.128 395.69 107.128C398.762 107.128 401.138 107.344 402.818 107.776C404.498 108.208 405.746 108.76 406.562 109.432V118.72C405.89 118.528 404.906 118.36 403.61 118.216C402.362 118.024 401.018 117.904 399.578 117.856C398.138 117.76 396.794 117.712 395.546 117.712C394.298 117.712 393.338 117.76 392.666 117.856V145H379.562ZM430.048 146.08C426.544 146.08 423.424 145.576 420.688 144.568C418 143.512 415.864 141.88 414.28 139.672C412.744 137.416 411.976 134.464 411.976 130.816V108.352H425.08V130.024C425.08 131.752 425.464 133.072 426.232 133.984C427.048 134.848 428.344 135.28 430.12 135.28C431.944 135.28 433.24 134.848 434.008 133.984C434.776 133.072 435.16 131.752 435.16 130.024V108.352H447.328V130.816C447.328 136.24 445.768 140.152 442.648 142.552C439.528 144.904 435.328 146.08 430.048 146.08ZM467.08 146.08C464.488 146.08 462.232 145.792 460.312 145.216C458.44 144.64 456.76 144.088 455.272 143.56V132.472C456.04 133.096 457.072 133.768 458.368 134.488C459.664 135.208 461.128 135.832 462.76 136.36C464.392 136.84 466.096 137.08 467.872 137.08C469.264 137.08 470.128 136.888 470.464 136.504C470.848 136.072 471.04 135.616 471.04 135.136C471.04 134.56 470.68 134.08 469.96 133.696C469.24 133.264 468.304 132.904 467.152 132.616C466 132.328 464.776 132.088 463.48 131.896C462.424 131.704 461.368 131.368 460.312 130.888C459.304 130.36 458.392 129.64 457.576 128.728C456.76 127.816 456.112 126.688 455.632 125.344C455.152 124 454.912 122.44 454.912 120.664C454.912 118.12 455.392 116.008 456.352 114.328C457.36 112.648 458.656 111.304 460.24 110.296C461.872 109.288 463.6 108.568 465.424 108.136C467.296 107.704 469.072 107.512 470.752 107.56C474.112 107.704 476.704 108.064 478.528 108.64C480.352 109.168 481.936 109.912 483.28 110.872L483.352 120.592C481.816 119.728 480.184 118.864 478.456 118C476.776 117.136 474.88 116.704 472.768 116.704C470.992 116.704 469.84 116.944 469.312 117.424C468.832 117.904 468.592 118.48 468.592 119.152C468.592 119.872 468.808 120.448 469.24 120.88C469.72 121.264 470.32 121.576 471.04 121.816C471.808 122.056 472.648 122.296 473.56 122.536C474.76 122.824 475.984 123.16 477.232 123.544C478.528 123.88 479.728 124.432 480.832 125.2C481.984 125.968 482.896 127.048 483.568 128.44C484.288 129.784 484.648 131.608 484.648 133.912C484.552 136.984 483.688 139.408 482.056 141.184C480.472 142.96 478.36 144.232 475.72 145C473.08 145.72 470.2 146.08 467.08 146.08ZM507.988 146.8C503.044 146.8 499.444 145.72 497.188 143.56C494.98 141.4 493.876 138.352 493.876 134.416V118.072H488.98V108.352H493.876V98.416H507.7V108.352H515.188V118.072H507.7V133.192C507.7 134.104 507.94 134.776 508.42 135.208C508.948 135.64 509.692 135.856 510.652 135.856C511.324 135.856 512.092 135.688 512.956 135.352C513.82 135.016 514.564 134.584 515.188 134.056V145.072C513.988 145.744 512.764 146.2 511.516 146.44C510.316 146.68 509.14 146.8 507.988 146.8ZM2.38 317V282.316H18.448C20.7707 282.316 22.9027 282.593 24.844 283.148C26.7853 283.703 28.3453 284.691 29.524 286.112C30.7373 287.499 31.344 289.475 31.344 292.04C31.344 293.635 30.8933 294.987 29.992 296.096C29.0907 297.171 28.016 298.02 26.768 298.644C25.52 299.268 24.3587 299.719 23.284 299.996L22.088 297.656C24.4107 297.656 26.3693 298.02 27.964 298.748C29.5933 299.441 30.8413 300.429 31.708 301.712C32.5747 302.995 33.008 304.503 33.008 306.236C33.008 308.697 32.384 310.725 31.136 312.32C29.9227 313.915 28.328 315.093 26.352 315.856C24.376 316.619 22.2613 317 20.008 317H2.38ZM12.832 309.2H19.02C19.6093 309.2 20.1467 309.079 20.632 308.836C21.1173 308.593 21.4987 308.229 21.776 307.744C22.088 307.224 22.244 306.6 22.244 305.872C22.244 305.317 22.1573 304.849 21.984 304.468C21.8107 304.052 21.568 303.723 21.256 303.48C20.9787 303.203 20.632 302.995 20.216 302.856C19.8 302.717 19.3493 302.648 18.864 302.648H12.832V309.2ZM12.78 295.368H18.76C19.1067 295.368 19.4187 295.264 19.696 295.056C20.008 294.813 20.2507 294.519 20.424 294.172C20.632 293.791 20.736 293.375 20.736 292.924C20.736 291.919 20.4587 291.208 19.904 290.792C19.384 290.341 18.8293 290.116 18.24 290.116H12.78V295.368ZM50.3996 317.78C47.6609 317.78 45.2342 317.225 43.1196 316.116C41.0049 315.007 39.3582 313.447 38.1796 311.436C37.0009 309.391 36.4116 307.016 36.4116 304.312C36.4116 299.667 37.5902 296.044 39.9476 293.444C42.3396 290.809 45.7889 289.492 50.2956 289.492C53.2422 289.492 55.6342 290.116 57.4716 291.364C59.3089 292.612 60.6609 294.501 61.5276 297.032C62.4289 299.528 62.8622 302.648 62.8276 306.392H43.1196L41.8716 300.828H54.7156L53.7276 304.052C53.6929 301.175 53.3809 299.199 52.7916 298.124C52.2369 297.015 51.2489 296.46 49.8276 296.46C49.1689 296.46 48.5276 296.685 47.9036 297.136C47.2796 297.552 46.7769 298.245 46.3956 299.216C46.0142 300.152 45.8236 301.417 45.8236 303.012C45.8236 305.265 46.3609 306.999 47.4356 308.212C48.5102 309.425 50.3476 310.032 52.9476 310.032C53.8142 310.032 54.6982 309.911 55.5996 309.668C56.5009 309.425 57.3502 309.165 58.1476 308.888C58.9449 308.576 59.6036 308.351 60.1236 308.212V316.064C58.9102 316.515 57.5236 316.913 55.9636 317.26C54.4036 317.607 52.5489 317.78 50.3996 317.78ZM79.4343 318.3C75.8636 318.3 73.2636 317.52 71.6343 315.96C70.0396 314.4 69.2423 312.199 69.2423 309.356V297.552H65.7063V290.532H69.2423V283.356H79.2263V290.532H84.6343V297.552H79.2263V308.472C79.2263 309.131 79.3996 309.616 79.7463 309.928C80.1276 310.24 80.6649 310.396 81.3583 310.396C81.8436 310.396 82.3983 310.275 83.0223 310.032C83.6463 309.789 84.1836 309.477 84.6343 309.096V317.052C83.7676 317.537 82.8836 317.867 81.9823 318.04C81.1156 318.213 80.2663 318.3 79.4343 318.3ZM101.981 318.3C98.4105 318.3 95.8105 317.52 94.1811 315.96C92.5865 314.4 91.7891 312.199 91.7891 309.356V297.552H88.2531V290.532H91.7891V283.356H101.773V290.532H107.181V297.552H101.773V308.472C101.773 309.131 101.946 309.616 102.293 309.928C102.674 310.24 103.212 310.396 103.905 310.396C104.39 310.396 104.945 310.275 105.569 310.032C106.193 309.789 106.73 309.477 107.181 309.096V317.052C106.314 317.537 105.43 317.867 104.529 318.04C103.662 318.213 102.813 318.3 101.981 318.3ZM125.048 317.78C122.309 317.78 119.883 317.225 117.768 316.116C115.653 315.007 114.007 313.447 112.828 311.436C111.649 309.391 111.06 307.016 111.06 304.312C111.06 299.667 112.239 296.044 114.596 293.444C116.988 290.809 120.437 289.492 124.944 289.492C127.891 289.492 130.283 290.116 132.12 291.364C133.957 292.612 135.309 294.501 136.176 297.032C137.077 299.528 137.511 302.648 137.476 306.392H117.768L116.52 300.828H129.364L128.376 304.052C128.341 301.175 128.029 299.199 127.44 298.124C126.885 297.015 125.897 296.46 124.476 296.46C123.817 296.46 123.176 296.685 122.552 297.136C121.928 297.552 121.425 298.245 121.044 299.216C120.663 300.152 120.472 301.417 120.472 303.012C120.472 305.265 121.009 306.999 122.084 308.212C123.159 309.425 124.996 310.032 127.596 310.032C128.463 310.032 129.347 309.911 130.248 309.668C131.149 309.425 131.999 309.165 132.796 308.888C133.593 308.576 134.252 308.351 134.772 308.212V316.064C133.559 316.515 132.172 316.913 130.612 317.26C129.052 317.607 127.197 317.78 125.048 317.78ZM142.175 317V293.6C142.695 293.08 143.579 292.525 144.827 291.936C146.109 291.312 147.548 290.775 149.143 290.324C150.737 289.873 152.297 289.648 153.823 289.648C156.041 289.648 157.757 289.804 158.971 290.116C160.184 290.428 161.085 290.827 161.675 291.312V298.02C161.189 297.881 160.479 297.76 159.543 297.656C158.641 297.517 157.671 297.431 156.631 297.396C155.591 297.327 154.62 297.292 153.719 297.292C152.817 297.292 152.124 297.327 151.639 297.396V317H142.175ZM181.368 317V297.552H177.78V290.532H181.472V290.272C181.472 288.643 181.628 287.221 181.94 286.008C182.252 284.76 182.703 283.703 183.292 282.836C183.882 281.969 184.61 281.276 185.476 280.756C186.343 280.236 187.331 279.855 188.44 279.612C189.584 279.369 190.85 279.248 192.236 279.248C192.826 279.248 193.502 279.3 194.264 279.404C195.027 279.508 195.634 279.647 196.084 279.82V288.192C195.703 287.707 195.304 287.325 194.888 287.048C194.507 286.736 193.918 286.58 193.12 286.58C192.739 286.58 192.41 286.649 192.132 286.788C191.855 286.892 191.63 287.048 191.456 287.256C191.283 287.464 191.144 287.724 191.04 288.036C190.971 288.313 190.936 288.608 190.936 288.92V290.532H196.084V297.552H190.832V317H181.368ZM212.391 317.78C207.78 317.78 204.296 316.601 201.939 314.244C199.616 311.887 198.455 308.333 198.455 303.584C198.455 298.419 199.616 294.779 201.939 292.664C204.296 290.549 207.78 289.492 212.391 289.492C215.407 289.492 217.955 289.96 220.035 290.896C222.149 291.797 223.744 293.288 224.819 295.368C225.928 297.413 226.483 300.152 226.483 303.584C226.483 308.333 225.269 311.887 222.843 314.244C220.416 316.601 216.932 317.78 212.391 317.78ZM212.391 310.396C213.327 310.396 214.141 310.171 214.835 309.72C215.563 309.235 216.117 308.489 216.499 307.484C216.915 306.479 217.123 305.179 217.123 303.584C217.123 301.677 216.915 300.239 216.499 299.268C216.117 298.297 215.563 297.639 214.835 297.292C214.141 296.945 213.327 296.772 212.391 296.772C211.42 296.772 210.588 296.945 209.895 297.292C209.201 297.639 208.681 298.297 208.335 299.268C207.988 300.239 207.815 301.677 207.815 303.584C207.815 306.045 208.196 307.796 208.959 308.836C209.756 309.876 210.9 310.396 212.391 310.396ZM231.143 317V293.6C231.663 293.08 232.547 292.525 233.795 291.936C235.078 291.312 236.517 290.775 238.111 290.324C239.706 289.873 241.266 289.648 242.791 289.648C245.01 289.648 246.726 289.804 247.939 290.116C249.153 290.428 250.054 290.827 250.643 291.312V298.02C250.158 297.881 249.447 297.76 248.511 297.656C247.61 297.517 246.639 297.431 245.599 297.396C244.559 297.327 243.589 297.292 242.687 297.292C241.786 297.292 241.093 297.327 240.607 297.396V317H231.143ZM280.477 318.3C276.907 318.3 274.307 317.52 272.677 315.96C271.083 314.4 270.285 312.199 270.285 309.356V297.552H266.749V290.532H270.285V283.356H280.269V290.532H285.677V297.552H280.269V308.472C280.269 309.131 280.443 309.616 280.789 309.928C281.171 310.24 281.708 310.396 282.401 310.396C282.887 310.396 283.441 310.275 284.065 310.032C284.689 309.789 285.227 309.477 285.677 309.096V317.052C284.811 317.537 283.927 317.867 283.025 318.04C282.159 318.213 281.309 318.3 280.477 318.3ZM291.116 317V280.6H300.632V296.72L296.16 294.588C297.581 293.167 299.332 292.005 301.412 291.104C303.492 290.168 305.659 289.7 307.912 289.7C309.715 289.7 311.327 289.977 312.748 290.532C314.204 291.052 315.348 291.988 316.18 293.34C317.047 294.657 317.48 296.529 317.48 298.956V317H308.016V301.244C308.016 299.823 307.635 298.835 306.872 298.28C306.144 297.691 305.087 297.396 303.7 297.396C303.041 297.396 302.383 297.5 301.724 297.708C301.1 297.881 300.736 298.055 300.632 298.228L300.476 317H291.116ZM336.146 317.78C333.407 317.78 330.98 317.225 328.866 316.116C326.751 315.007 325.104 313.447 323.926 311.436C322.747 309.391 322.158 307.016 322.158 304.312C322.158 299.667 323.336 296.044 325.694 293.444C328.086 290.809 331.535 289.492 336.042 289.492C338.988 289.492 341.38 290.116 343.218 291.364C345.055 292.612 346.407 294.501 347.274 297.032C348.175 299.528 348.608 302.648 348.574 306.392H328.866L327.618 300.828H340.462L339.474 304.052C339.439 301.175 339.127 299.199 338.538 298.124C337.983 297.015 336.995 296.46 335.574 296.46C334.915 296.46 334.274 296.685 333.65 297.136C333.026 297.552 332.523 298.245 332.142 299.216C331.76 300.152 331.57 301.417 331.57 303.012C331.57 305.265 332.107 306.999 333.182 308.212C334.256 309.425 336.094 310.032 338.694 310.032C339.56 310.032 340.444 309.911 341.346 309.668C342.247 309.425 343.096 309.165 343.894 308.888C344.691 308.576 345.35 308.351 345.87 308.212V316.064C344.656 316.515 343.27 316.913 341.71 317.26C340.15 317.607 338.295 317.78 336.146 317.78ZM374.568 317L365.468 282.316H376.908L381.328 307.328H379.872L386.944 282.316H394.64L401.764 307.64H400.204L404.676 282.316H416.116L407.016 317H396.772L390.012 294.484H391.676L384.812 317H374.568ZM430.344 317.78C425.733 317.78 422.249 316.601 419.892 314.244C417.569 311.887 416.408 308.333 416.408 303.584C416.408 298.419 417.569 294.779 419.892 292.664C422.249 290.549 425.733 289.492 430.344 289.492C433.36 289.492 435.908 289.96 437.988 290.896C440.102 291.797 441.697 293.288 442.772 295.368C443.881 297.413 444.436 300.152 444.436 303.584C444.436 308.333 443.222 311.887 440.796 314.244C438.369 316.601 434.885 317.78 430.344 317.78ZM430.344 310.396C431.28 310.396 432.094 310.171 432.788 309.72C433.516 309.235 434.07 308.489 434.452 307.484C434.868 306.479 435.076 305.179 435.076 303.584C435.076 301.677 434.868 300.239 434.452 299.268C434.07 298.297 433.516 297.639 432.788 297.292C432.094 296.945 431.28 296.772 430.344 296.772C429.373 296.772 428.541 296.945 427.848 297.292C427.154 297.639 426.634 298.297 426.288 299.268C425.941 300.239 425.768 301.677 425.768 303.584C425.768 306.045 426.149 307.796 426.912 308.836C427.709 309.876 428.853 310.396 430.344 310.396ZM449.097 317V293.6C449.617 293.08 450.501 292.525 451.749 291.936C453.031 291.312 454.47 290.775 456.065 290.324C457.659 289.873 459.219 289.648 460.745 289.648C462.963 289.648 464.679 289.804 465.893 290.116C467.106 290.428 468.007 290.827 468.597 291.312V298.02C468.111 297.881 467.401 297.76 466.465 297.656C465.563 297.517 464.593 297.431 463.553 297.396C462.513 297.327 461.542 297.292 460.641 297.292C459.739 297.292 459.046 297.327 458.561 297.396V317H449.097ZM481.867 317H472.507V280.6H481.867V317ZM501.461 317.78C499.069 317.78 496.937 317.537 495.065 317.052C493.227 316.567 491.667 315.787 490.385 314.712C489.137 313.603 488.183 312.147 487.525 310.344C486.866 308.507 486.537 306.253 486.537 303.584C486.537 299.216 487.611 295.784 489.761 293.288C491.91 290.757 495.134 289.492 499.433 289.492C499.883 289.492 500.525 289.527 501.357 289.596C502.189 289.631 503.09 289.839 504.061 290.22C505.031 290.567 505.915 291.243 506.713 292.248L505.049 295.16V279.768H514.409V309.148C514.409 310.535 514.062 311.765 513.369 312.84C512.675 313.915 511.722 314.816 510.509 315.544C509.33 316.272 507.961 316.827 506.401 317.208C504.841 317.589 503.194 317.78 501.461 317.78ZM501.877 309.98C502.882 309.98 503.662 309.841 504.217 309.564C504.771 309.252 505.049 308.767 505.049 308.108V297.76C504.598 297.517 504.13 297.327 503.645 297.188C503.159 297.049 502.674 296.98 502.189 296.98C500.906 296.98 499.797 297.153 498.861 297.5C497.925 297.847 497.214 298.523 496.729 299.528C496.243 300.533 496.001 302.007 496.001 303.948C496.001 305.335 496.209 306.479 496.625 307.38C497.041 308.247 497.682 308.905 498.549 309.356C499.415 309.772 500.525 309.98 501.877 309.98Z" fill="#115C07"/>
<path d="M4.59 251V193.638H21.962L40.968 218.836H32.024L51.546 193.638H68.402V251H51.202V206.022L53.868 212.3L36.066 235.348L17.662 211.44L20.93 209.806V251H4.59ZM96.788 252.29C93.8067 252.29 91.0834 252.032 88.618 251.516C86.1527 251 84.0027 250.169 82.168 249.022C80.3907 247.818 79.0147 246.213 78.04 244.206C77.0654 242.142 76.578 239.619 76.578 236.638C76.578 234.287 77.094 232.166 78.126 230.274C79.158 228.325 80.792 226.777 83.028 225.63C85.3214 224.426 88.3027 223.824 91.972 223.824C93.7494 223.824 95.5554 224.053 97.39 224.512C99.282 224.971 100.973 225.573 102.464 226.318C104.012 227.063 105.159 227.866 105.904 228.726L106.162 235.176C105.073 234.603 103.897 234.173 102.636 233.886C101.432 233.599 100.171 233.456 98.852 233.456C96.3867 233.456 94.638 233.771 93.606 234.402C92.574 234.975 92.058 235.979 92.058 237.412C92.058 238.1 92.2587 238.788 92.66 239.476C93.1187 240.107 93.692 240.651 94.38 241.11C95.1254 241.511 95.928 241.712 96.788 241.712C99.368 241.712 101.088 241.569 101.948 241.282C102.808 240.938 103.238 240.307 103.238 239.39V225.028C103.238 222.677 102.435 220.986 100.83 219.954C99.282 218.922 97.0747 218.406 94.208 218.406C91.5707 218.406 88.962 218.922 86.382 219.954C83.802 220.929 81.7954 222.018 80.362 223.222V209.634C81.6807 208.774 83.9454 207.914 87.156 207.054C90.3667 206.194 94.1507 205.764 98.508 205.764C99.5974 205.764 100.973 205.85 102.636 206.022C104.356 206.194 106.133 206.567 107.968 207.14C109.803 207.656 111.523 208.487 113.128 209.634C114.791 210.781 116.109 212.329 117.084 214.278C118.116 216.17 118.632 218.607 118.632 221.588L118.546 241.97C118.546 244.206 117.743 246.098 116.138 247.646C114.533 249.194 112.125 250.341 108.914 251.086C105.703 251.889 101.661 252.29 96.788 252.29ZM151.063 252.29C147.107 252.29 143.581 251.889 140.485 251.086C137.446 250.283 134.866 248.993 132.745 247.216C130.681 245.381 129.104 242.973 128.015 239.992C126.925 236.953 126.381 233.227 126.381 228.812C126.381 221.588 128.158 215.912 131.713 211.784C135.267 207.599 140.599 205.506 147.709 205.506C148.454 205.506 149.515 205.563 150.891 205.678C152.267 205.735 153.757 206.079 155.363 206.71C156.968 207.283 158.43 208.401 159.749 210.064L156.997 214.88V189.424H172.477V238.014C172.477 240.307 171.903 242.343 170.757 244.12C169.61 245.897 168.033 247.388 166.027 248.592C164.077 249.796 161.813 250.713 159.233 251.344C156.653 251.975 153.929 252.29 151.063 252.29ZM151.751 239.39C153.413 239.39 154.703 239.161 155.621 238.702C156.538 238.186 156.997 237.383 156.997 236.294V219.18C156.251 218.779 155.477 218.463 154.675 218.234C153.872 218.005 153.069 217.89 152.267 217.89C150.145 217.89 148.311 218.177 146.763 218.75C145.215 219.323 144.039 220.441 143.237 222.104C142.434 223.767 142.033 226.203 142.033 229.414C142.033 231.707 142.377 233.599 143.065 235.09C143.753 236.523 144.813 237.613 146.247 238.358C147.68 239.046 149.515 239.39 151.751 239.39ZM203.349 252.29C198.819 252.29 194.806 251.373 191.309 249.538C187.811 247.703 185.088 245.123 183.139 241.798C181.189 238.415 180.215 234.488 180.215 230.016C180.215 222.333 182.164 216.342 186.063 212.042C190.019 207.685 195.723 205.506 203.177 205.506C208.05 205.506 212.006 206.538 215.045 208.602C218.083 210.666 220.319 213.791 221.753 217.976C223.243 222.104 223.96 227.264 223.903 233.456H191.309L189.245 224.254H210.487L208.853 229.586C208.795 224.827 208.279 221.559 207.305 219.782C206.387 217.947 204.753 217.03 202.403 217.03C201.313 217.03 200.253 217.403 199.221 218.148C198.189 218.836 197.357 219.983 196.727 221.588C196.096 223.136 195.781 225.229 195.781 227.866C195.781 231.593 196.669 234.459 198.447 236.466C200.224 238.473 203.263 239.476 207.563 239.476C208.996 239.476 210.458 239.275 211.949 238.874C213.439 238.473 214.844 238.043 216.163 237.584C217.481 237.068 218.571 236.695 219.431 236.466V249.452C217.424 250.197 215.131 250.857 212.551 251.43C209.971 252.003 206.903 252.29 203.349 252.29ZM255.283 251V193.638H281.857C285.699 193.638 289.225 194.097 292.435 195.014C295.646 195.931 298.226 197.565 300.175 199.916C302.182 202.209 303.185 205.477 303.185 209.72C303.185 212.357 302.44 214.593 300.949 216.428C299.459 218.205 297.681 219.61 295.617 220.642C293.553 221.674 291.633 222.419 289.855 222.878L287.877 219.008C291.719 219.008 294.958 219.61 297.595 220.814C300.29 221.961 302.354 223.595 303.787 225.716C305.221 227.837 305.937 230.331 305.937 233.198C305.937 237.269 304.905 240.623 302.841 243.26C300.835 245.897 298.197 247.847 294.929 249.108C291.661 250.369 288.164 251 284.437 251H255.283ZM272.569 238.1H282.803C283.778 238.1 284.667 237.899 285.469 237.498C286.272 237.097 286.903 236.495 287.361 235.692C287.877 234.832 288.135 233.8 288.135 232.596C288.135 231.679 287.992 230.905 287.705 230.274C287.419 229.586 287.017 229.041 286.501 228.64C286.043 228.181 285.469 227.837 284.781 227.608C284.093 227.379 283.348 227.264 282.545 227.264H272.569V238.1ZM272.483 215.224H282.373C282.947 215.224 283.463 215.052 283.921 214.708C284.437 214.307 284.839 213.819 285.125 213.246C285.469 212.615 285.641 211.927 285.641 211.182C285.641 209.519 285.183 208.344 284.265 207.656C283.405 206.911 282.488 206.538 281.513 206.538H272.483V215.224ZM334.7 252.29C330.171 252.29 326.158 251.373 322.66 249.538C319.163 247.703 316.44 245.123 314.49 241.798C312.541 238.415 311.566 234.488 311.566 230.016C311.566 222.333 313.516 216.342 317.414 212.042C321.37 207.685 327.075 205.506 334.528 205.506C339.402 205.506 343.358 206.538 346.396 208.602C349.435 210.666 351.671 213.791 353.104 217.976C354.595 222.104 355.312 227.264 355.254 233.456H322.66L320.596 224.254H341.838L340.204 229.586C340.147 224.827 339.631 221.559 338.656 219.782C337.739 217.947 336.105 217.03 333.754 217.03C332.665 217.03 331.604 217.403 330.572 218.148C329.54 218.836 328.709 219.983 328.078 221.588C327.448 223.136 327.132 225.229 327.132 227.866C327.132 231.593 328.021 234.459 329.798 236.466C331.576 238.473 334.614 239.476 338.914 239.476C340.348 239.476 341.81 239.275 343.3 238.874C344.791 238.473 346.196 238.043 347.514 237.584C348.833 237.068 349.922 236.695 350.782 236.466V249.452C348.776 250.197 346.482 250.857 343.902 251.43C341.322 252.003 338.255 252.29 334.7 252.29ZM382.719 253.15C376.814 253.15 372.514 251.86 369.819 249.28C367.182 246.7 365.863 243.059 365.863 238.358V218.836H360.015V207.226H365.863V195.358H382.375V207.226H391.319V218.836H382.375V236.896C382.375 237.985 382.662 238.788 383.235 239.304C383.866 239.82 384.755 240.078 385.901 240.078C386.704 240.078 387.621 239.877 388.653 239.476C389.685 239.075 390.574 238.559 391.319 237.928V251.086C389.886 251.889 388.424 252.433 386.933 252.72C385.5 253.007 384.095 253.15 382.719 253.15ZM420.008 253.15C414.103 253.15 409.803 251.86 407.108 249.28C404.471 246.7 403.152 243.059 403.152 238.358V218.836H397.304V207.226H403.152V195.358H419.664V207.226H428.608V218.836H419.664V236.896C419.664 237.985 419.951 238.788 420.524 239.304C421.155 239.82 422.044 240.078 423.19 240.078C423.993 240.078 424.91 239.877 425.942 239.476C426.974 239.075 427.863 238.559 428.608 237.928V251.086C427.175 251.889 425.713 252.433 424.222 252.72C422.789 253.007 421.384 253.15 420.008 253.15ZM458.157 252.29C453.628 252.29 449.615 251.373 446.117 249.538C442.62 247.703 439.897 245.123 437.947 241.798C435.998 238.415 435.023 234.488 435.023 230.016C435.023 222.333 436.973 216.342 440.871 212.042C444.827 207.685 450.532 205.506 457.985 205.506C462.859 205.506 466.815 206.538 469.853 208.602C472.892 210.666 475.128 213.791 476.561 217.976C478.052 222.104 478.769 227.264 478.711 233.456H446.117L444.053 224.254H465.295L463.661 229.586C463.604 224.827 463.088 221.559 462.113 219.782C461.196 217.947 459.562 217.03 457.211 217.03C456.122 217.03 455.061 217.403 454.029 218.148C452.997 218.836 452.166 219.983 451.535 221.588C450.905 223.136 450.589 225.229 450.589 227.866C450.589 231.593 451.478 234.459 453.255 236.466C455.033 238.473 458.071 239.476 462.371 239.476C463.805 239.476 465.267 239.275 466.757 238.874C468.248 238.473 469.653 238.043 470.971 237.584C472.29 237.068 473.379 236.695 474.239 236.466V249.452C472.233 250.197 469.939 250.857 467.359 251.43C464.779 252.003 461.712 252.29 458.157 252.29ZM486.482 251V212.3C487.342 211.44 488.804 210.523 490.868 209.548C492.99 208.516 495.369 207.627 498.006 206.882C500.644 206.137 503.224 205.764 505.746 205.764C509.416 205.764 512.254 206.022 514.26 206.538C516.267 207.054 517.758 207.713 518.732 208.516V219.61C517.93 219.381 516.754 219.18 515.206 219.008C513.716 218.779 512.11 218.635 510.39 218.578C508.67 218.463 507.065 218.406 505.574 218.406C504.084 218.406 502.937 218.463 502.134 218.578V251H486.482ZM514.009 251V237.412H528.113V251H514.009Z" fill="#A4D232"/>
</svg>
