<svg width="16" height="12" viewBox="0 0 16 12" fill="none" xmlns="http://www.w3.org/2000/svg">
<path d="M15.5775 1.42786C15.4788 1.46793 15.4164 1.49134 15.3902 1.49809C15.3181 1.53142 15.2557 1.55483 15.203 1.56832C15.1043 1.60165 15.0222 1.6318 14.9567 1.65877C14.858 1.679 14.7956 1.69567 14.7695 1.70877C14.5327 1.76234 14.388 1.79586 14.3354 1.80934C14.1712 1.84268 14.0167 1.86609 13.872 1.87957L13.8521 1.8998C14.0101 1.8129 14.1612 1.70915 14.3055 1.58854C14.3777 1.51513 14.4994 1.37804 14.6706 1.17728C14.8286 0.936437 14.9206 0.792606 14.9467 0.745787C15.0189 0.618812 15.0913 0.454943 15.1638 0.25418L15.1837 0.21429C15.0128 0.301187 14.8617 0.384713 14.7302 0.464869C14.6581 0.504946 14.5003 0.568434 14.2569 0.655331C14.1781 0.688667 14.0171 0.7456 13.7737 0.826129C13.7604 0.826129 13.7325 0.832872 13.6897 0.846356C13.647 0.85984 13.5846 0.876507 13.5025 0.896359C13.4204 0.916211 13.3366 0.936249 13.2512 0.956475C13.1132 0.816016 12.962 0.678928 12.7978 0.545211C12.7584 0.524985 12.7041 0.494833 12.6349 0.454756C12.5657 0.414678 12.5032 0.377971 12.4476 0.344636C12.3921 0.3113 12.3377 0.281148 12.2847 0.25418C12.0413 0.153798 11.8473 0.08694 11.7026 0.0536044C11.5384 0.0202687 11.3247 0.00360107 11.0614 0.00360107C10.6472 0.00360107 10.2626 0.0738306 9.90768 0.21429C9.54612 0.374975 9.21732 0.59896 8.9213 0.886246C8.61238 1.2005 8.38889 1.52824 8.25082 1.86946C8.09949 2.21742 8.02383 2.60209 8.02383 3.02347C8.02383 3.09052 8.03046 3.15063 8.04371 3.20382V3.28416C8.04371 3.33098 8.04703 3.36114 8.05365 3.37462C8.05365 3.40121 8.06028 3.46133 8.07354 3.55497C8.09342 3.59505 8.10649 3.64524 8.11275 3.70554C7.76444 3.70554 7.45866 3.67876 7.1954 3.6252C6.87323 3.57838 6.57408 3.51152 6.29793 3.42462C6.02179 3.35121 5.73258 3.25757 5.43029 3.1437C5.18692 3.05007 4.9174 2.92965 4.62174 2.78244C4.3062 2.62176 4.04644 2.47456 3.84247 2.34084C3.59246 2.1603 3.35572 1.98314 3.13223 1.80934C2.92199 1.64866 2.70494 1.45801 2.48108 1.23739C2.32313 1.09019 2.12596 0.866207 1.88958 0.565437L1.87964 0.545211C1.8535 0.605515 1.82717 0.660762 1.80066 0.710953C1.77415 0.761144 1.75114 0.802907 1.73163 0.836243C1.71211 0.869578 1.70217 0.889617 1.7018 0.896359C1.68192 0.949921 1.65891 1.02015 1.63277 1.10705C1.60663 1.19395 1.59024 1.24751 1.58361 1.26773C1.57036 1.31455 1.55232 1.38478 1.52949 1.47842C1.50666 1.57206 1.49193 1.63555 1.48531 1.66888C1.47205 1.77601 1.46542 1.9131 1.46542 2.08015C1.46542 2.35432 1.49506 2.61183 1.55434 2.85267C1.62025 3.107 1.71561 3.33435 1.84043 3.53474C1.95236 3.73551 2.09043 3.9329 2.25464 4.12692C2.43211 4.30746 2.61621 4.46121 2.80693 4.58819C2.72814 4.58819 2.60976 4.57489 2.45181 4.5483C2.37302 4.53481 2.29404 4.51983 2.21488 4.50335C2.13572 4.48687 2.09301 4.47844 2.08675 4.47807C2.05398 4.46458 1.99967 4.44454 1.92382 4.41795C1.84797 4.39136 1.79367 4.37132 1.7609 4.35783L1.42566 4.19715L1.44554 4.21737V4.25726C1.44554 4.65842 1.50464 5.00956 1.62283 5.31071C1.71487 5.59837 1.8859 5.8894 2.1359 6.1838C2.33988 6.43813 2.60608 6.66548 2.93451 6.86587C3.20402 7.03967 3.51956 7.15672 3.88113 7.21702C3.80896 7.2571 3.74655 7.27713 3.6939 7.27713L3.49673 7.30747H3.28963C3.22372 7.32096 3.15137 7.3277 3.07258 7.3277H2.93451C2.92125 7.3277 2.87523 7.32096 2.79643 7.30747C2.74378 7.30747 2.69113 7.30073 2.63848 7.28725C2.60571 7.28725 2.5827 7.28388 2.56944 7.27713H2.50041C2.58583 7.55805 2.73053 7.83897 2.93451 8.11989C3.12523 8.37421 3.34228 8.59502 3.58565 8.7823C3.8618 8.9898 4.13131 9.137 4.3942 9.2239C4.74251 9.33102 5.05474 9.38458 5.33088 9.38458C5.14678 9.5183 4.87395 9.69228 4.51239 9.90653C4.21011 10.0672 3.91426 10.2077 3.62486 10.3279C3.28282 10.435 2.95402 10.5186 2.63848 10.5785C2.32957 10.632 1.97776 10.6588 1.58306 10.6588H1.19867C1.13939 10.6521 1.07698 10.6487 1.01144 10.6487C1.00482 10.6487 0.942408 10.642 0.824219 10.6285H0.863431C1.25776 10.8693 1.59963 11.0566 1.88903 11.1903C2.19794 11.3375 2.57276 11.4847 3.01348 11.6319C3.38167 11.7391 3.78595 11.8259 4.22631 11.8926C4.62064 11.9529 5.03485 11.9831 5.46895 11.9831H5.47889C6.2219 11.9831 6.88593 11.9196 7.47099 11.7926C8.1087 11.6589 8.67737 11.4649 9.177 11.2106C9.70941 10.9562 10.2057 10.6553 10.666 10.3077C11.1328 9.95972 11.534 9.58853 11.8694 9.19412C12.2376 8.77274 12.5598 8.33133 12.8359 7.86987C13.0988 7.4219 13.3289 6.93704 13.5263 6.41528C13.7104 5.91375 13.8484 5.40547 13.9405 4.89045C14.0325 4.36195 14.0786 3.85705 14.0786 3.37574V2.99426C14.1047 2.98077 14.1671 2.93395 14.2658 2.8538C14.3711 2.77364 14.4532 2.70341 14.5121 2.64311C14.6502 2.52288 14.7816 2.39908 14.9064 2.27173C15.0051 2.17135 15.1202 2.03764 15.2516 1.87058C15.3963 1.67656 15.4983 1.5361 15.5576 1.44921L15.5775 1.42786Z" fill="#F7F7F7"/>
</svg>
