<svg width="32" height="34" viewBox="0 0 32 34" fill="none" xmlns="http://www.w3.org/2000/svg">
<path d="M27.7841 21.0162C26.139 21.2333 24.4816 21.1148 22.8681 20.6648C22.0762 20.434 21.1926 20.8582 20.8118 21.5246L18.1641 24.8629C14.354 22.9146 11.8423 20.4184 9.42798 16.1797L11.1597 12.095C11.6407 11.2788 11.7096 10.1703 11.3335 9.18825C10.5735 7.27202 10.051 5.22514 9.78145 3.10389C9.5868 1.57147 8.46114 0.452417 7.27228 0.60929L2.33774 1.26042C1.14889 1.41729 0.340057 2.79161 0.534769 4.32392C2.76668 21.8883 15.6689 34.7147 29.2963 32.9165C30.4851 32.7596 31.294 31.3853 31.0993 29.853L30.2933 23.5106C30.0986 21.9784 28.9729 20.8594 27.7841 21.0162Z" fill="#115C07"/>
</svg>
