<svg width="16" height="12" viewBox="0 0 16 12" fill="none" xmlns="http://www.w3.org/2000/svg">
<path d="M15.5774 1.42792C15.4788 1.468 15.4163 1.4914 15.3902 1.49815C15.318 1.53148 15.2556 1.55489 15.203 1.56838C15.1043 1.60171 15.0222 1.63186 14.9567 1.65883C14.858 1.67906 14.7956 1.69573 14.7694 1.70884C14.5327 1.7624 14.388 1.79592 14.3353 1.8094C14.1711 1.84274 14.0167 1.86615 13.872 1.87963L13.8521 1.89986C14.01 1.81296 14.1612 1.70921 14.3055 1.5886C14.3777 1.51519 14.4994 1.3781 14.6706 1.17734C14.8285 0.936498 14.9206 0.792668 14.9467 0.745848C15.0189 0.618873 15.0912 0.455004 15.1638 0.254241L15.1836 0.214351C15.0128 0.301248 14.8617 0.384774 14.7302 0.46493C14.6581 0.505007 14.5003 0.568495 14.2569 0.655392C14.1781 0.688728 14.017 0.745661 13.7737 0.82619C13.7604 0.82619 13.7324 0.832933 13.6897 0.846417C13.647 0.859901 13.5846 0.876568 13.5025 0.89642C13.4204 0.916272 13.3366 0.93631 13.2512 0.956536C13.1131 0.816077 12.962 0.678989 12.7978 0.545272C12.7584 0.525046 12.7041 0.494894 12.6348 0.454817C12.5656 0.414739 12.5032 0.378032 12.4476 0.344697C12.392 0.311361 12.3377 0.281209 12.2847 0.254241C12.0413 0.153859 11.8473 0.087001 11.7026 0.0536654C11.5384 0.0203298 11.3246 0.00366211 11.0614 0.00366211C10.6472 0.00366211 10.2626 0.0738917 9.90765 0.214351C9.54609 0.375036 9.21729 0.599021 8.92127 0.886307C8.61235 1.20056 8.38886 1.5283 8.25079 1.86952C8.09946 2.21748 8.0238 2.60216 8.0238 3.02353C8.0238 3.09058 8.03043 3.1507 8.04368 3.20388V3.28422C8.04368 3.33104 8.047 3.3612 8.05362 3.37468C8.05362 3.40127 8.06025 3.46139 8.07351 3.55503C8.09339 3.59511 8.10646 3.6453 8.11272 3.7056C7.76441 3.7056 7.45863 3.67882 7.19537 3.62526C6.8732 3.57844 6.57405 3.51158 6.2979 3.42468C6.02176 3.35127 5.73255 3.25763 5.43026 3.14377C5.18689 3.05013 4.91737 2.92971 4.62171 2.78251C4.30617 2.62182 4.04641 2.47462 3.84244 2.3409C3.59243 2.16036 3.35569 1.9832 3.13219 1.8094C2.92196 1.64872 2.70491 1.45807 2.48105 1.23745C2.32309 1.09025 2.12593 0.866268 1.88955 0.565499L1.87961 0.545272C1.85347 0.605576 1.82714 0.660823 1.80063 0.711014C1.77412 0.761205 1.75111 0.802968 1.7316 0.836304C1.71208 0.869639 1.70214 0.889678 1.70177 0.89642C1.68189 0.949982 1.65888 1.02021 1.63274 1.10711C1.60659 1.19401 1.59021 1.24757 1.58358 1.26779C1.57033 1.31461 1.55229 1.38484 1.52946 1.47848C1.50663 1.57212 1.4919 1.63561 1.48528 1.66895C1.47202 1.77607 1.46539 1.91316 1.46539 2.08021C1.46539 2.35439 1.49503 2.61189 1.55431 2.85273C1.62022 3.10706 1.71558 3.33442 1.8404 3.5348C1.95233 3.73557 2.0904 3.93296 2.25461 4.12698C2.43208 4.30752 2.61617 4.46127 2.8069 4.58825C2.72811 4.58825 2.60973 4.57495 2.45178 4.54836C2.37298 4.53487 2.29401 4.51989 2.21485 4.50341C2.13569 4.48693 2.09298 4.4785 2.08672 4.47813C2.05395 4.46464 1.99964 4.4446 1.92379 4.41801C1.84794 4.39142 1.79364 4.37138 1.76087 4.35789L1.42563 4.19721L1.44551 4.21744V4.25733C1.44551 4.65848 1.50461 5.00962 1.62279 5.31077C1.71484 5.59843 1.88587 5.88946 2.13587 6.18386C2.33985 6.43819 2.60605 6.66554 2.93448 6.86593C3.20399 7.03973 3.51953 7.15678 3.8811 7.21708C3.80893 7.25716 3.74652 7.2772 3.69387 7.2772L3.4967 7.30754H3.2896C3.22369 7.32102 3.15134 7.32776 3.07255 7.32776H2.93448C2.92122 7.32776 2.8752 7.32102 2.7964 7.30754C2.74375 7.30754 2.6911 7.30079 2.63845 7.28731C2.60568 7.28731 2.58267 7.28394 2.56941 7.2772H2.50038C2.5858 7.55811 2.7305 7.83903 2.93448 8.11995C3.1252 8.37428 3.34225 8.59508 3.58562 8.78236C3.86177 8.98986 4.13128 9.13706 4.39417 9.22396C4.74248 9.33108 5.05471 9.38465 5.33085 9.38465C5.14675 9.51836 4.87392 9.69234 4.51236 9.90659C4.21007 10.0673 3.91423 10.2077 3.62483 10.328C3.28278 10.4351 2.95399 10.5186 2.63845 10.5785C2.32954 10.6321 1.97773 10.6589 1.58303 10.6589H1.19864C1.13936 10.6521 1.07695 10.6488 1.01141 10.6488C1.00479 10.6488 0.942378 10.642 0.824188 10.6286H0.863401C1.25773 10.8694 1.5996 11.0567 1.889 11.1904C2.19791 11.3376 2.57273 11.4848 3.01345 11.632C3.38164 11.7391 3.78592 11.826 4.22628 11.8927C4.62061 11.953 5.03482 11.9831 5.46892 11.9831H5.47886C6.22187 11.9831 6.8859 11.9197 7.47096 11.7927C8.10867 11.659 8.67734 11.4649 9.17697 11.2106C9.70938 10.9563 10.2057 10.6553 10.6659 10.3077C11.1328 9.95978 11.5339 9.58859 11.8694 9.19418C12.2376 8.77281 12.5597 8.33139 12.8359 7.86993C13.0988 7.42196 13.3289 6.9371 13.5262 6.41534C13.7103 5.91381 13.8484 5.40553 13.9404 4.89052C14.0325 4.36201 14.0785 3.85711 14.0785 3.3758V2.99432C14.1047 2.98083 14.1671 2.93401 14.2657 2.85386C14.371 2.7737 14.4532 2.70347 14.5121 2.64317C14.6501 2.52294 14.7816 2.39915 14.9064 2.2718C15.0051 2.17141 15.1201 2.0377 15.2516 1.87064C15.3963 1.67662 15.4983 1.53616 15.5575 1.44927L15.5774 1.42792Z" fill="#F7F7F7"/>
</svg>
