<svg width="23" height="29" viewBox="0 0 23 29" fill="none" xmlns="http://www.w3.org/2000/svg">
<path d="M11.1816 -0.000488281C5.11616 -0.000488281 0.181641 4.84105 0.181641 10.7921C0.181641 14.1209 1.9284 18.1613 5.37356 22.8009C7.89474 26.1964 10.3791 28.618 10.4837 28.7195C10.6758 28.906 10.9287 28.9995 11.1818 28.9995C11.4275 28.9995 11.6735 28.9113 11.8641 28.7343C11.9689 28.637 14.4595 26.3134 16.9855 22.9648C20.4334 18.3939 22.1816 14.2984 22.1816 10.7921C22.1815 4.84105 17.2469 -0.000488281 11.1816 -0.000488281ZM11.1816 15.4514C8.21625 15.4514 5.80384 13.1262 5.80384 10.2682C5.80384 7.41016 8.21631 5.08494 11.1816 5.08494C14.1469 5.08494 16.5593 7.41016 16.5593 10.2682C16.5593 13.1262 14.1468 15.4514 11.1816 15.4514Z" fill="#115C07"/>
</svg>
