<svg width="25" height="25" viewBox="0 0 25 25" fill="none" xmlns="http://www.w3.org/2000/svg">
<path d="M12.4926 25C12.1369 25 11.794 24.8551 11.5267 24.5918C10.5174 23.5992 9.54424 22.6664 8.68568 21.8436L8.68129 21.8393C6.16413 19.4268 3.99048 17.3434 2.47808 15.2911C0.787458 12.9967 0 10.8214 0 8.44489C0 6.13595 0.703966 4.00581 1.98208 2.44657C3.27545 0.868907 5.05014 0 6.9798 0C8.42205 0 9.74287 0.512812 10.9055 1.52407C11.4922 2.03452 12.024 2.65925 12.4926 3.38794C12.9613 2.65925 13.493 2.03452 14.0799 1.52407C15.2425 0.512812 16.5633 0 18.0056 0C19.935 0 21.7099 0.868907 23.0033 2.44657C24.2814 4.00581 24.9852 6.13595 24.9852 8.44489C24.9852 10.8214 24.1979 12.9967 22.5073 15.2909C20.9949 17.3434 18.8214 19.4266 16.3046 21.8389C15.4446 22.663 14.4699 23.5973 13.4583 24.5922C13.1912 24.8551 12.8481 25 12.4926 25ZM6.9798 1.64606C5.46379 1.64606 4.07111 2.32652 3.05795 3.56224C2.02974 4.81661 1.4634 6.55057 1.4634 8.44489C1.4634 10.4436 2.12391 12.2312 3.60485 14.2408C5.03623 16.1834 7.16528 18.2239 9.6304 20.5866L9.63497 20.5909C10.4968 21.417 11.4737 22.3534 12.4905 23.3533C13.5134 22.3515 14.4918 21.4135 15.3553 20.5862C17.8203 18.2235 19.9491 16.1834 21.3805 14.2408C22.8613 12.2312 23.5218 10.4436 23.5218 8.44489C23.5218 6.55057 22.9554 4.81661 21.9272 3.56224C20.9143 2.32652 19.5214 1.64606 18.0056 1.64606C16.895 1.64606 15.8754 2.0431 14.9751 2.82604C14.1727 3.52408 13.6138 4.40649 13.2861 5.02393C13.1176 5.34143 12.821 5.53095 12.4926 5.53095C12.1641 5.53095 11.8675 5.34143 11.699 5.02393C11.3715 4.40649 10.8126 3.52408 10.0101 2.82604C9.10981 2.0431 8.09018 1.64606 6.9798 1.64606Z" fill="#444444"/>
</svg>
