<svg width="22" height="17" viewBox="0 0 22 17" fill="none" xmlns="http://www.w3.org/2000/svg">
<path d="M19.3333 0.984375H2C0.897083 0.984375 0 1.88146 0 2.98438V14.9844C0 16.0873 0.897083 16.9844 2 16.9844H19.3333C20.4363 16.9844 21.3333 16.0873 21.3333 14.9844V2.98438C21.3333 1.88146 20.4363 0.984375 19.3333 0.984375ZM19.3333 2.31771C19.4237 2.31771 19.51 2.33646 19.5888 2.36938L10.6667 10.1023L1.74458 2.36938C1.82333 2.33646 1.90958 2.31771 2 2.31771H19.3333ZM19.3333 15.651H2C1.63208 15.651 1.33333 15.3523 1.33333 14.9844V3.77813L10.23 11.4885C10.3558 11.5973 10.5113 11.6515 10.6667 11.6515C10.8221 11.6515 10.9779 11.5973 11.1033 11.4885L20 3.77813V14.9844C20 15.3523 19.7013 15.651 19.3333 15.651Z" fill="#AAAAAA"/>
</svg>
