<svg width="80" height="80" viewBox="0 0 80 80" fill="none" xmlns="http://www.w3.org/2000/svg">
<path d="M0 17.9603C0.0767754 17.771 0.158669 17.5867 0.230326 17.3973C0.465771 16.7831 0.895713 16.3122 1.34613 15.8567C2.25208 14.9456 3.12732 13.9987 4.04862 13.103C4.89315 12.2892 5.94242 11.9463 7.09917 12.064C8.00512 12.1612 8.7524 12.627 9.31542 13.3385C10.4466 14.7614 11.6187 16.1638 12.6577 17.6481C14.3161 20.0128 15.9437 22.4031 17.469 24.8497C18.7793 26.9533 20.0179 29.1081 21.1491 31.3141C22.5617 34.0627 23.8567 36.8727 25.1465 39.6775C25.8682 41.2438 26.5182 42.8458 27.1273 44.4581C27.8132 46.2802 28.4171 48.1331 29.0569 49.9706C29.1644 50.2777 29.277 50.5745 29.4101 50.9328C29.8708 49.858 30.2905 48.8496 30.7255 47.8516C31.5445 45.968 32.5528 44.1919 33.6123 42.4363C33.6891 42.3135 33.73 42.119 33.6942 41.9859C33.3461 40.6296 32.9469 39.2885 32.6244 37.9219C32.3634 36.8215 32.174 35.7057 31.9898 34.595C31.8516 33.771 31.7543 32.9367 31.6775 32.1024C31.5957 31.263 31.5598 30.4235 31.5086 29.5841C31.4728 28.9597 31.3858 28.3353 31.4165 27.7159C31.4882 26.2777 31.5496 24.8343 31.7287 23.4114C31.9642 21.5739 32.3634 19.7569 32.9674 18.0064C34.4415 13.7479 36.8113 10.0832 40.2508 7.12476C42.7179 5.01088 45.4255 3.35253 48.4504 2.24696C49.7556 1.77095 51.112 1.40243 52.4683 1.07997C53.6353 0.798464 54.8279 0.614203 56.0205 0.450416C57.1004 0.301983 58.1958 0.235445 59.2809 0.127959C59.4088 0.117722 59.5266 0.0460653 59.6494 0C61.5432 0 63.437 0 65.3308 0C65.4639 0.0460653 65.5969 0.117722 65.7351 0.127959C66.4415 0.189379 67.1529 0.22009 67.8592 0.286628C68.8727 0.378759 69.881 0.486244 70.8893 0.603967C71.785 0.706334 72.6807 0.808701 73.5662 0.962252C74.8765 1.19258 76.1817 1.46385 77.492 1.72489C78.398 1.90915 79.1555 2.32374 79.6264 3.15291C79.7646 3.39347 79.8669 3.65963 79.9846 3.91043C79.9846 4.3199 79.9846 4.72937 79.9846 5.13884C79.9079 5.30262 79.8567 5.48688 79.7543 5.63532C79.5035 6.00384 79.263 6.39283 78.961 6.71529C77.4408 8.31734 76.2585 10.1344 75.286 12.11C74.3135 14.096 73.5969 16.1689 72.9776 18.2828C72.6244 19.4754 72.3327 20.6833 72 21.881C71.7134 22.9098 71.4012 23.9283 71.1094 24.952C70.833 25.9296 70.5976 26.9226 70.3007 27.8951C69.4971 30.5617 68.6168 33.2079 67.1171 35.5777C65.9962 37.3538 64.5579 38.8586 62.8944 40.1382C61.3845 41.2949 59.7466 42.2367 57.991 42.9584C56.9213 43.3935 55.8362 43.8029 54.7409 44.1715C54.0909 44.3916 53.4101 44.5246 52.7345 44.6833C51.89 44.8829 51.0454 45.0928 50.1907 45.2617C49.469 45.405 48.737 45.5227 48 45.5944C46.6027 45.7274 45.2003 45.8196 43.8029 45.9475C43.6699 45.9578 43.4958 46.0806 43.4293 46.1983C42.7895 47.3039 42.1088 48.3941 41.5611 49.5457C40.7729 51.2041 40.0409 52.888 39.3756 54.5976C38.5361 56.7422 37.7684 58.9226 36.9955 61.0928C36.6065 62.183 36.2738 63.2937 35.9207 64.3941C35.5675 65.4997 35.2041 66.6053 34.8765 67.7211C34.4773 69.0825 34.1139 70.4543 33.7454 71.826C33.382 73.167 33.0237 74.508 32.6807 75.8541C32.4914 76.6014 32.3276 77.3487 31.8823 78.009C31.2169 78.9866 30.3365 79.6264 29.1695 79.8669C29.1132 79.8772 29.0672 79.9539 29.016 80C28.4786 80 27.9411 80 27.4037 80C27.1427 79.8976 26.8816 79.7953 26.6206 79.6929C25.2079 79.1504 24.2713 78.1318 23.9232 76.6833C23.652 75.547 23.5803 74.3647 23.4165 73.2079C23.3141 72.5016 23.2169 71.7953 23.0787 71.0992C22.9047 70.2188 22.6948 69.3487 22.5054 68.4735C22.3365 67.675 22.1983 66.8663 22.0038 66.0781C21.7326 65.0032 21.4255 63.9386 21.1184 62.8688C20.7345 61.5278 20.3711 60.1766 19.9309 58.8509C19.3065 56.9571 18.636 55.0838 17.9706 53.2054C17.556 52.0384 17.1414 50.8714 16.6756 49.7198C16.0358 48.1331 15.3704 46.5515 14.6692 44.9955C13.6814 42.8049 12.6782 40.6193 11.6238 38.4594C10.1651 35.4651 8.5579 32.5425 6.8279 29.6916C5.12348 26.8612 3.3167 24.1075 1.27959 21.5074C0.885477 21.0058 0.578375 20.4427 0.245681 19.9002C0.138196 19.7262 0.0818938 19.5266 0 19.3423C0 18.8816 0 18.421 0 17.9603ZM35.6494 39.2834C35.8183 39.0941 35.9309 38.9763 36.023 38.8484C37.492 36.9187 38.9405 34.9686 40.4402 33.0595C42.3852 30.5822 44.5349 28.2841 46.746 26.0473C49.3205 23.4472 52.0179 20.9802 54.8893 18.7076C56.087 17.7607 57.2898 16.8138 58.5285 15.9181C60.1152 14.7716 61.7326 13.6763 63.35 12.5707C63.7748 12.2841 64.2406 12.3045 64.6756 12.5809C65.5406 13.1286 65.5713 14.2239 64.7268 14.8279C63.913 15.4114 63.0787 15.9642 62.2546 16.5323C58.7946 18.897 55.5393 21.5125 52.4376 24.3276C49.7454 26.769 47.1555 29.318 44.8061 32.0973C43.0352 34.1958 41.2796 36.3097 39.6059 38.4901C38.0243 40.5528 36.5144 42.6769 35.2553 44.9597C34.4415 46.4287 33.6481 47.9079 32.952 49.4331C32.3941 50.6564 31.9642 51.9411 31.5291 53.2156C31.1862 54.2188 30.9149 55.2476 30.6232 56.2713C30.444 56.9059 30.0499 57.2386 29.4357 57.3205C28.8471 57.3973 28.2687 57.0339 28.1049 56.4709C27.8234 55.4882 27.5931 54.4901 27.3269 53.5022C27.1171 52.714 26.9175 51.9207 26.6718 51.1478C26.3493 50.1446 26.0064 49.1516 25.6379 48.1689C24.8394 46.0448 24.0717 43.9053 23.1862 41.817C22.2342 39.5701 21.2156 37.3436 20.1305 35.158C19.025 32.9315 17.8426 30.746 16.6244 28.5809C14.9507 25.6072 13.1081 22.7255 11.0761 19.9821C9.82726 18.2981 8.50672 16.6654 7.21177 15.0122C7.04287 14.7972 6.81254 14.5925 6.52591 14.7204C6.20857 14.8586 5.87076 15.0275 5.6302 15.2681C4.77031 16.1228 3.94626 17.0186 3.10173 17.8887C2.53359 18.4773 2.52335 18.7486 3.0096 19.3986C4.02303 20.7498 5.0723 22.0806 6.00384 23.4882C7.40627 25.6072 8.75752 27.7569 10.0525 29.9424C11.1785 31.8413 12.2226 33.7863 13.2412 35.7415C14.1472 37.492 14.9968 39.2732 15.8157 41.0697C16.8189 43.286 17.7914 45.5125 18.723 47.7594C19.4293 49.4587 20.0589 51.1836 20.7038 52.9085C21.1593 54.1369 21.5995 55.3704 22.009 56.6091C22.357 57.6686 22.659 58.7383 22.9763 59.8081C23.3858 61.1951 23.8311 62.572 24.1791 63.9693C24.6603 65.8938 25.0953 67.8337 25.4843 69.7838C25.7965 71.3653 26.0115 72.9623 26.2623 74.5592C26.3237 74.9482 26.3493 75.3423 26.4159 75.7313C26.4568 75.9514 26.5234 76.1715 26.6308 76.366C27.0301 77.0723 27.7825 77.4408 28.5093 77.2975C29.2617 77.1542 29.8349 76.5093 29.9936 75.6955C30.1369 74.9635 30.3109 74.2367 30.5003 73.515C30.7255 72.6449 30.9866 71.7799 31.222 70.9098C31.4472 70.0755 31.6366 69.2259 31.8823 68.3967C32.2815 67.025 32.7012 65.6532 33.1312 64.2866C33.5509 62.9405 33.9808 61.5995 34.4312 60.2585C34.8049 59.158 35.2092 58.0627 35.6033 56.9725C36.0282 55.8055 36.4069 54.618 36.8983 53.4818C37.8452 51.3116 38.8177 49.1465 39.8567 47.0224C40.3788 45.9578 41.0646 44.9802 41.6993 43.9718C41.9501 43.5726 42.3289 43.3218 42.8253 43.286C44.238 43.1887 45.6507 43.1017 47.0633 42.9738C47.9386 42.8919 48.8241 42.8049 49.6788 42.6104C51.3679 42.2316 53.0569 41.8477 54.7102 41.341C56.5528 40.7729 58.3084 39.9795 59.9463 38.9354C62.1881 37.5022 64.0205 35.6801 65.3205 33.3461C65.9655 32.1843 66.4875 30.9712 66.8816 29.7019C67.2758 28.4376 67.7057 27.1887 68.0845 25.9245C68.4069 24.8548 68.6833 23.7646 68.9904 22.6897C69.318 21.5278 69.6558 20.3711 69.9783 19.2041C70.2598 18.1702 70.4798 17.1209 70.8023 16.0972C71.1657 14.9456 71.5649 13.7991 72.0307 12.6884C72.9315 10.5387 74.1139 8.54255 75.5419 6.69994C76.0589 6.03967 76.6168 5.41011 77.1491 4.76008C77.2105 4.6833 77.2617 4.56558 77.2514 4.47345C77.2463 4.42738 77.0928 4.38644 77.0006 4.36596C76.7191 4.30454 76.4325 4.25336 76.151 4.19706C75.2092 4.00256 74.2777 3.76711 73.3308 3.61356C71.8874 3.37812 70.4338 3.16827 68.9802 3.01472C67.5573 2.86116 66.1292 2.7588 64.6961 2.69738C61.6251 2.56942 58.5592 2.68714 55.5189 3.14779C54.8893 3.24504 54.2598 3.33717 53.6404 3.4856C52.7498 3.70058 51.8592 3.93602 50.984 4.21241C50.0422 4.50928 49.0953 4.79591 48.1945 5.19002C46.6795 5.85541 45.2463 6.67434 43.9002 7.65195C41.4587 9.41779 39.4267 11.5624 37.8145 14.096C36.8113 15.6673 35.9565 17.3154 35.4344 19.1171C35.0659 20.3967 34.6667 21.6763 34.4108 22.9814C34.0781 24.7012 33.9245 26.4517 33.9962 28.2073C34.0627 29.7889 34.2111 31.3653 34.3544 32.9367C34.4312 33.7607 34.5438 34.5848 34.7127 35.3935C34.9942 36.6731 35.3269 37.9322 35.6494 39.2834Z" fill="#444444"/>
</svg>
