<svg width="80" height="74" viewBox="0 0 80 74" fill="none" xmlns="http://www.w3.org/2000/svg">
<path d="M3.59585 60.6594C3.38682 60.2704 3.18838 59.9741 3.05873 59.6539C2.62479 58.577 2.75973 57.561 3.54293 56.6984C4.3764 55.7776 5.46124 55.6162 6.57782 56.0131C7.98811 56.5132 9.37988 57.0768 10.7452 57.688C11.6607 58.0981 12.3486 58.1828 12.9307 57.1561C13.2456 56.6005 13.8145 56.1877 14.2881 55.6929C13.5499 54.2509 12.8513 52.793 12.0549 51.388C11.8671 51.0573 11.3802 50.8588 10.9913 50.6868C6.60693 48.7447 4.92676 45.6437 5.62264 40.9445C5.68879 40.5 5.2919 39.8332 4.91088 39.4998C1.05839 36.1394 -0.240762 29.2918 2.26494 25.0926C3.74138 22.6187 5.95074 21.2058 8.81894 20.9623C12.9572 20.6104 16.7065 21.5206 19.7811 24.8148C20.559 21.9678 22.337 20.15 24.8136 18.917C25.0809 18.7847 25.2211 18.1973 25.2449 17.811C25.5651 12.9531 28.3301 9.73826 32.3863 7.56594C35.8128 5.72966 39.9114 6.63457 42.4965 9.55304C45.4334 12.8684 46.9416 16.6151 45.7721 21.1079C45.7404 21.2269 45.7695 21.3645 45.7827 21.4915C45.7854 21.5259 45.8277 21.555 45.9812 21.7535C47.2036 19.1578 47.7936 16.5542 47.5476 13.7892C47.5184 13.4584 47.156 13.1304 46.8967 12.8499C44.3089 10.024 44.0311 6.34616 46.1981 3.41975C48.254 0.641517 52.2282 -0.287208 55.4695 1.41678C56.7263 2.07562 57.6656 2.02005 58.8854 1.32682C62.1082 -0.509467 65.3865 -0.496237 68.4558 1.72106C71.2075 3.70816 72.4405 7.44158 71.398 10.9607C70.8847 12.6964 71.1282 13.8448 72.4379 15.1783C76.42 19.2345 74.7584 25.4842 69.3236 27.2306C68.5722 27.474 68.2335 27.7492 68.2388 28.5747C68.2441 29.5325 68.0721 30.4877 67.9557 31.644C70.7604 31.3609 72.8692 32.6733 74.9886 34.2026C75.7586 34.7583 77.0789 34.5281 78.1399 34.708C78.7696 34.8138 79.3809 35.0229 80 35.1843C79.8121 35.8061 79.791 36.5734 79.402 37.0232C78.6347 37.9043 77.661 38.6108 76.7137 39.4389C78.2563 41.8573 79.3279 44.49 79.4602 47.4191C79.5158 48.6468 79.4867 49.8957 79.2962 51.1022C79.2274 51.5362 78.5791 51.8775 78.1955 52.2612C77.9468 51.7875 77.444 51.2848 77.4916 50.8403C77.8727 47.2974 77.2641 44.0005 75.3908 40.9418C74.9701 40.2512 74.552 40.0343 73.6974 40.1613C72.5437 40.3333 71.3451 40.2036 70.0327 40.2036C70.3212 40.8704 70.6413 41.6033 70.9535 42.3415C71.5647 43.7783 71.5912 45.178 70.6016 46.4639C69.8078 47.4958 68.6886 47.4455 67.7705 46.5274C66.7597 45.514 65.614 44.6329 64.5662 43.6513C63.6481 42.7887 62.7882 41.8653 62.0949 41.1641C60.2692 41.3043 58.5044 41.4075 56.7475 41.5927C55.8346 41.688 54.9324 41.8997 54.038 42.1034C52.5854 42.4341 51.4053 41.5821 51.7414 40.148C51.9927 39.0791 52.7124 38.0366 53.4586 37.1925C54.0433 36.531 54.9906 36.1897 55.8082 35.687C54.6122 34.7927 53.4586 33.8983 52.26 33.0675C52.0853 32.9458 51.6646 33.0437 51.4265 33.1707C50.4951 33.6655 49.5849 34.2026 48.6747 34.7397C47.1189 35.6579 46.2484 36.7956 46.251 38.8357C46.2563 42.1775 44.6767 45.0351 42.4462 47.4694C41.745 48.2367 41.4884 48.9696 41.6921 49.9618C42.0281 51.5997 42.3192 53.2454 42.6049 54.8939C42.8431 56.2539 43.6289 56.7936 45.0048 56.9868C51.9848 57.9658 58.9489 59.0718 65.9263 60.0773C67.6223 60.3233 68.9691 60.9319 69.6332 62.7338C71.4933 61.7389 72.8851 60.3789 74.1101 58.8178C74.3827 58.4712 74.5652 58.0028 74.9119 57.7806C75.322 57.5186 75.867 57.4657 76.3512 57.3202C76.3883 57.8282 76.6555 58.5241 76.42 58.8125C75.2347 60.2783 73.9911 61.7151 72.6258 63.0116C71.3054 64.2658 69.8396 65.3744 68.379 66.4725C67.871 66.8535 67.2175 67.1604 66.5957 67.2504C59.6183 68.2585 52.633 69.219 45.6504 70.19C37.837 71.2775 30.0103 72.2618 22.218 73.4869C18.1221 74.1298 15.0925 72.6693 12.592 69.6212C12.428 69.4201 12.2639 69.219 12.0364 68.9385C10.56 69.5365 9.09147 70.1133 7.63885 70.7219C6.24179 71.3066 4.82357 71.7564 3.5985 70.4679C2.39989 69.2057 2.68565 67.8219 3.46355 66.6762C2.45545 66.1841 1.39443 65.8348 0.563604 65.1892C0.148191 64.8664 1.88511e-05 64.0012 1.88511e-05 63.382C-0.00527303 61.7733 1.10338 60.9531 3.59585 60.6594ZM49.8866 26.0664C50.9979 25.5001 51.8631 25.7383 52.633 26.7411C52.9638 27.1697 53.5247 27.4528 54.0275 27.7068C54.2391 27.8153 54.6916 27.7915 54.8371 27.6407C56.5755 25.8097 58.6896 24.6058 61.1609 23.9178C61.0683 23.4442 60.9969 23.0711 60.9122 22.6293C59.7189 22.7139 58.5758 22.9124 57.454 22.8251C56.848 22.7774 55.9802 22.3726 55.7711 21.8911C55.533 21.346 55.7288 20.449 56.041 19.8669C56.4406 19.1208 57.1444 18.5413 57.7794 17.819C57.3455 17.4962 57.0121 17.2474 56.6258 16.959C55.8002 17.9857 55.0118 18.9276 54.2709 19.904C53.7364 20.6051 52.9903 21.1343 52.2547 20.6607C51.7176 20.3141 51.3286 19.4515 51.2386 18.7689C51.0772 17.5676 51.1937 16.3293 51.1937 15.0513C50.6751 14.919 50.175 14.7946 49.9712 14.7444C49.2251 17.3877 48.6456 19.9992 47.7222 22.4811C47.283 23.6612 47.3491 24.4867 48.1217 25.6192C48.725 24.2539 49.2515 23.0659 49.7993 21.8196C50.3681 21.9546 50.9 22.0789 51.7123 22.2694C51.0455 23.6585 50.4634 24.8677 49.8839 26.0796C47.8465 28.3895 47.5608 31.517 46.1267 34.1047C47.7037 33.1151 49.2806 32.1229 50.6195 31.2815C50.3602 29.4293 50.1247 27.7465 49.8866 26.0664ZM17.8628 39.5633C17.4791 39.0156 17.2383 38.6637 16.9896 38.3171C15.0766 35.6764 13.1609 33.0384 11.2426 30.403C10.8113 29.8104 10.3192 29.1277 11.0812 28.5641C11.9491 27.9212 12.3936 28.7282 12.8408 29.3447C14.7035 31.9112 16.5715 34.4751 18.4449 37.0338C18.6856 37.3619 18.9793 37.6556 19.4 38.1424C19.8895 36.0415 19.8684 34.2688 19.0878 32.4933C18.937 32.1494 19.2757 31.5884 19.3895 31.1254C19.834 31.2947 20.3499 31.3768 20.7018 31.6625C20.9744 31.8848 21.0617 32.3505 21.1966 32.7235C21.9772 34.8985 21.6359 37.0549 21.1755 39.2378C21.0617 39.7829 21.194 40.5661 21.53 40.9895C23.4695 43.4422 25.5016 45.8236 27.5099 48.2208C27.7162 48.4669 27.9782 48.6653 28.3751 49.0358C28.6635 46.9111 28.6767 45.0774 27.8935 43.257C27.7057 42.8231 27.7744 41.9261 28.0681 41.7065C28.7561 41.1958 29.3858 41.7171 29.5499 42.4262C29.9177 43.9952 30.6585 45.7045 30.341 47.1598C29.6345 50.4064 31.0051 52.3643 33.2648 54.3488C34.4793 55.4151 35.6593 55.4892 37.2998 55.648C37.2998 52.4331 37.4506 49.3506 37.2654 46.2866C36.9717 41.4393 35.2307 37.3354 30.4389 35.2451C29.4229 34.8006 28.8487 34.2555 28.4703 33.1945C27.0548 29.2203 24.3824 27.5084 20.3288 27.7254C19.9292 27.7465 19.3339 27.5005 19.1275 27.1829C16.7647 23.5739 13.2588 22.6266 9.24493 22.8304C6.25767 22.9838 3.66465 25.0556 3.17515 27.9979C2.46603 32.2631 3.28628 36.0892 7.13083 38.7245C7.73675 39.1399 8.05161 39.5421 7.84788 40.3544C6.69425 44.9716 7.96959 47.3688 12.3592 49.2104C12.9572 49.4618 13.4811 50.0968 13.8356 50.6789C14.5977 51.9304 15.23 53.264 15.9365 54.6028C18.5031 53.3222 20.9373 53.1317 23.496 53.6344C25.8535 54.0974 28.2507 54.3726 30.9416 54.7774C29.6054 53.2745 28.7429 52.0654 26.5335 52.6051C23.9696 53.2296 21.358 52.6845 19.1249 51.0414C18.5057 50.5863 17.7887 50.0756 18.4184 49.2289C19.0428 48.3901 19.6329 49.0596 20.2071 49.4644C22.2286 50.8906 24.4538 51.1155 26.9674 50.6418C24.6258 47.8107 22.39 45.1542 20.2176 42.4474C19.6726 41.7674 19.1857 41.471 18.2517 41.5186C15.2777 41.6721 12.5788 40.8942 10.4409 38.669C9.90377 38.1107 9.27404 37.4677 10.0175 36.7639C10.7002 36.1183 11.2532 36.7295 11.7718 37.2772C13.3435 38.9441 15.3121 39.648 17.8628 39.5633ZM21.5194 71.7247C21.9454 71.7247 22.21 71.7564 22.464 71.7194C27.912 70.9335 33.3627 70.1504 38.808 69.3486C41.5439 68.9465 41.5413 68.9332 41.7 66.1153C41.7027 66.0703 41.6842 66.0121 41.7053 65.9856C42.0175 65.5808 42.3351 65.1813 42.6526 64.7817C42.9754 65.1786 43.4966 65.5385 43.5734 65.9777C43.7215 66.8165 43.6157 67.7002 43.6157 68.6501C48.7594 67.9039 53.7073 67.1843 58.6552 66.4672C58.5732 66.3428 58.4885 66.2185 58.4065 66.0941C58.7981 65.6073 59.1897 65.1231 59.5813 64.6362C60.0364 65.0622 60.4915 65.4882 61.153 66.11C62.5738 65.9089 64.3572 65.6575 66.1379 65.4035C67.1381 65.2607 67.7837 64.7473 67.7811 63.681C67.7811 62.657 67.1063 62.2046 66.1908 62.0538C65.1034 61.8765 64.0132 61.7363 62.9231 61.5722C59.277 61.0219 55.6309 60.4662 51.7969 59.8841C51.7969 60.752 51.9054 61.5114 51.7546 62.2178C51.6673 62.6227 51.1646 62.9402 50.847 63.2947C50.5375 62.9402 50.0294 62.6174 49.9607 62.2205C49.8204 61.4135 49.9183 60.5641 49.9183 59.601C43.4014 58.6167 36.9929 57.6509 30.4416 56.6613C30.4416 58.2039 30.513 59.5269 30.4019 60.834C30.3648 61.2679 29.9071 61.94 29.5446 62.0114C28.7746 62.1623 28.5418 61.5325 28.5524 60.8181C28.5682 59.3708 28.5576 57.9261 28.5576 56.32C25.8138 55.9655 23.1679 55.4627 20.5008 55.3304C18.1432 55.214 16.1588 56.3729 14.6083 58.1351C14.3225 58.4606 14.1849 59.2041 14.3542 59.5904C15.5185 62.2575 15.5634 64.8717 14.3093 67.515C14.1664 67.8166 14.087 68.3485 14.251 68.5681C15.5581 70.3197 17.3098 71.3569 19.5985 71.7432C19.5985 70.1398 19.5165 68.6819 19.6435 67.2425C19.6885 66.7292 20.1965 65.8957 20.5748 65.8481C21.4189 65.7422 21.5221 66.5439 21.5194 67.2478C21.5142 68.7348 21.5194 70.2191 21.5194 71.7247ZM39.4378 47.8398C43.232 44.318 45.2482 40.3227 44.166 35.2372C43.9226 34.0941 44.0681 33.258 44.6741 32.2975C46.7591 29.0007 46.7802 25.217 44.0205 22.6134C43.7295 22.3382 43.5945 21.6106 43.7295 21.2084C45.1953 16.8796 43.576 13.4267 40.6337 10.4183C38.935 8.67988 36.7548 8.20626 34.4025 8.80953C30.5977 9.78588 27.1183 14.2152 27.2347 18.1365C27.2797 19.6129 26.8775 20.3035 25.4751 20.8486C23.3795 21.6609 21.9798 23.2299 21.6994 25.6853C26.1102 26.0558 28.6529 28.5906 30.2299 32.3716C30.4389 32.8744 30.9787 33.2421 31.4682 33.7898C32.3652 31.6837 32.6641 30.1358 31.103 28.4398C29.4811 26.6776 28.9281 24.3253 29.2509 21.8911C29.3567 21.0973 29.1953 19.8166 30.5024 19.9939C31.7513 20.1633 31.2009 21.3116 31.1401 22.0657C30.9628 24.2248 31.5396 26.0981 33.0954 27.9238C33.3971 26.8839 33.6326 26.0452 33.8839 25.2144C34.7227 22.4335 35.5562 19.6499 36.4134 16.8717C36.6516 16.1017 37.0511 15.3291 37.9745 16.0144C38.263 16.2287 38.2974 17.0543 38.1651 17.5226C37.2601 20.7427 36.2785 23.9417 35.3313 27.1512C35.2439 27.4502 35.236 27.7703 35.1646 28.2493C36.9903 27.3973 38.4217 26.4262 39.2816 24.7857C39.615 24.1507 40.0146 23.5659 40.8031 24.0422C41.5677 24.5052 41.2476 25.18 40.9221 25.7859C39.9405 27.6116 38.4296 28.9875 36.559 29.6595C34.6486 30.3475 33.8972 31.5858 33.6908 33.4115C33.6855 33.4538 33.6722 33.4988 33.6564 33.5385C33.3283 34.2979 33.5849 34.8006 34.2226 35.3218C36.6013 37.2587 38.0354 39.8067 38.6678 42.7808C39.0012 44.3551 39.1599 45.9718 39.4378 47.8398ZM68.3288 25.4604C71.3478 24.8413 73.1973 22.2853 72.4829 19.4277C72.1812 18.2158 71.4616 16.9802 70.6043 16.0647C69.2522 14.62 68.7362 13.1409 69.358 11.265C69.4824 10.8892 69.5856 10.5056 69.657 10.1166C70.1624 7.39396 69.5644 4.97027 67.3101 3.26364C65.0187 1.53055 62.4389 1.45117 59.9967 2.91703C58.1551 4.02303 56.5385 4.2347 54.5858 3.12605C52.6463 2.02534 50.5666 2.23173 48.7435 3.60232C47.0872 4.84856 46.4283 6.55784 46.7882 8.60579C47.4364 12.3048 51.0455 14.0062 54.2815 12.1619C55.0197 11.7412 55.787 11.8444 56.0675 12.617C57.0676 15.3715 59.068 16.7103 61.8647 17.1575C62.6585 17.2845 62.9258 17.9274 62.7776 18.7847C62.6665 19.425 62.7749 20.105 62.7882 20.7692C63.3623 20.7004 63.9577 20.7004 64.508 20.5496C66.3258 20.0468 67.1513 20.4437 67.6646 22.2668C67.9451 23.2775 68.0959 24.3253 68.3288 25.4604ZM76.7349 36.9226C75.7983 36.6131 75.0177 36.4517 74.335 36.1024C73.6392 35.7452 73.0756 35.1393 72.3903 34.753C71.6335 34.327 70.8398 33.8825 70.0036 33.6972C67.9874 33.2448 67.5773 33.5041 66.7597 35.4012C66.4766 36.0574 66.1009 36.7559 65.3521 36.285C65.0213 36.0759 64.8732 35.1181 65.0452 34.6445C66.2835 31.2127 66.683 27.7121 66.122 24.111C66.0241 23.4892 65.7913 22.8886 65.6008 22.2086C64.6509 22.534 63.8809 22.796 63.103 23.0632C64.1826 26.6352 63.8783 30.0935 63.4126 33.5517C63.32 34.245 63.0475 35.0017 62.1955 34.6762C61.8409 34.5413 61.7271 33.7449 61.534 33.2368C61.4943 33.1337 61.5657 32.9775 61.6028 32.8532C61.9732 31.5964 61.4467 30.829 60.2745 30.4242C59.8194 30.2681 59.3617 30.0485 58.8933 30.0062C56.7184 29.8209 54.5381 29.6886 52.1912 29.5246C52.7389 30.3051 53.1649 31.308 53.9163 31.8795C55.0461 32.7368 56.3797 33.3453 57.6762 33.9539C58.3853 34.2873 59.4358 34.3481 59.2638 35.3562C59.1685 35.9225 58.4726 36.4914 57.9143 36.8538C56.9592 37.473 55.869 37.8805 54.9006 38.4811C54.3873 38.7986 54.0036 39.3304 53.5935 39.7326C55.4907 39.7326 57.2343 39.8385 58.9568 39.6876C59.7771 39.6162 60.6582 39.1902 61.3276 38.6822C62.8728 37.518 63.1268 37.6132 63.7645 39.4971C64.045 40.3253 64.6033 41.1588 65.2595 41.7409C66.5216 42.8575 67.9425 43.7941 69.5089 44.9637C69.3501 44.1725 69.3263 43.4264 69.0458 42.7913C68.5325 41.6271 67.7996 40.5608 67.3021 39.3913C67.1169 38.9547 67.1619 38.2192 67.4265 37.854C67.6488 37.5497 68.3446 37.4756 68.8209 37.4995C69.2839 37.5206 69.7285 37.817 70.1915 37.9572C72.467 38.6451 74.6129 38.4573 76.7349 36.9226ZM7.73145 64.3875C7.73145 64.3346 7.73145 64.2817 7.73145 64.2261C9.27404 64.2261 10.8166 64.2605 12.3539 64.1996C12.6767 64.1864 12.9863 63.8292 13.3038 63.6308C12.9863 63.382 12.6741 62.9269 12.3486 62.9164C9.31108 62.8105 6.2709 62.747 3.23071 62.7655C2.8153 62.7682 2.39989 63.2815 1.98447 63.5593C2.40253 63.8345 2.80471 64.3213 3.23865 64.3505C4.73096 64.4484 6.23385 64.3875 7.73145 64.3875ZM11.2453 60.2731C11.1791 60.1328 11.113 59.9952 11.0442 59.855C9.41692 59.1935 7.80289 58.4923 6.14918 57.8997C5.79463 57.7726 5.26279 57.9843 4.88707 58.1854C4.79446 58.2357 4.91088 59.0956 5.09081 59.1644C6.79744 59.8074 8.52788 60.3948 10.2795 60.9001C10.5229 60.9716 10.9198 60.4953 11.2453 60.2731ZM11.0204 67.2689C11.0865 67.1155 11.1527 66.9593 11.2188 66.8059C10.8484 66.6074 10.4171 66.1761 10.1181 66.2529C8.56757 66.6471 7.02763 67.1207 5.53268 67.6923C5.194 67.8219 5.04583 68.4543 4.81034 68.8565C5.2575 68.9756 5.7761 69.301 6.1386 69.1766C7.78966 68.6104 9.3984 67.9172 11.0204 67.2689ZM39.6971 50.364C39.5039 50.3561 39.3107 50.3508 39.1149 50.3428C39.0805 51.7849 39.0594 53.2296 39.0065 54.669C38.9535 56.0687 39.6653 56.4047 40.8718 56.111C40.4776 54.1768 40.0887 52.2717 39.6971 50.364ZM61.825 25.5557C60.2348 26.3177 58.9542 26.9316 57.4063 27.6724C59.1553 28.1355 60.4915 28.4874 61.825 28.8419C61.825 27.8815 61.825 26.9316 61.825 25.5557ZM53.3078 17.9248C55.4325 15.5117 55.4325 15.5117 54.6598 14.4745C52.9664 15.0619 52.9241 15.1651 53.3078 17.9248ZM60.5576 20.6977C60.5576 20.2823 60.6132 19.9701 60.5418 19.6923C60.4571 19.3642 60.3354 18.962 60.0893 18.7927C59.9464 18.6948 59.4649 18.9276 59.2532 19.134C58.7425 19.6341 58.3007 20.2056 57.6736 20.9306C58.7822 20.8433 59.5998 20.7771 60.5576 20.6977Z" fill="#444444"/>
<path d="M36.5628 64.2629C36.5628 64.9191 36.6554 65.5965 36.5257 66.2262C36.4596 66.5517 35.9595 67.0491 35.7187 67.0147C35.3536 66.9618 34.7767 66.5385 34.7529 66.2342C34.6471 64.8847 34.6445 63.5168 34.7476 62.1674C34.7715 61.8578 35.3403 61.4212 35.7081 61.363C35.9436 61.3259 36.4596 61.8366 36.5231 62.1647C36.6527 62.8447 36.5628 63.5618 36.5628 64.2629Z" fill="#444444"/>
</svg>
