<svg width="307" height="316" xmlns="http://www.w3.org/2000/svg" xml:space="preserve" version="1.1">

 <g>
  <title>Layer 1</title>
  <g id="svg_1">
   <path id="svg_2" d="m4.6,197.29c3.47,-10.81 12.18,-17.55 19.7,-25.17c12.99,-13.16 26.18,-26.13 39.16,-39.32c3.11,-3.16 6.32,-5.14 10.94,-4.7c3.29,0.31 6.62,0.06 10.63,0.06c0,-4.09 -0.47,-7.93 0.15,-11.58c0.52,-3.07 1.56,-6.67 3.65,-8.78c31.65,-31.97 63.46,-63.8 95.36,-95.53c12.37,-12.31 28.29,-12.01 40.76,0.4c5.31,5.29 10.59,10.62 15.83,15.98c4.6,4.7 4.66,6.12 0.68,11.55c-4.58,6.25 -5.33,12.93 -1.48,19.64c3.76,6.55 9.85,9.51 17.28,8.31c3.28,-0.53 6.61,-2.25 9.37,-4.2c3.88,-2.75 7.03,-2.43 10.19,0.74c5.99,6.02 12.12,11.93 17.89,18.15c10.66,11.5 10.78,26.07 0,37.69c-8.16,8.79 -16.87,17.06 -25.37,25.53c-2.66,2.65 -5.73,3.7 -8.77,0.79c-3.33,-3.19 -1.98,-6.25 0.82,-9.08c7.86,-7.93 15.74,-15.83 23.54,-23.83c7.96,-8.16 7.82,-16.92 -0.15,-24.96c-4.45,-4.49 -8.76,-9.12 -13.09,-13.64c-12.24,6.5 -23.67,6.95 -34.53,-1.57c-11.03,-8.66 -14.4,-22.1 -8.44,-34.81c1.44,-3.06 1.4,-4.9 -1.18,-7.21c-3.97,-3.54 -7.5,-7.57 -11.33,-11.28c-7.38,-7.15 -16.29,-7.33 -23.48,-0.19c-31.45,31.23 -62.83,62.54 -94.14,93.9c-1.12,1.13 -1.82,3.12 -1.91,4.76c-0.25,4.48 -0.02,8.99 -0.08,13.49c-0.07,5.4 -1.68,7.16 -7.13,7.38c-4.16,0.17 -8.35,-0.29 -12.49,0.06c-2.11,0.17 -4.66,0.95 -6.11,2.38c-16.62,16.37 -33.13,32.85 -49.53,49.44c-6.49,6.57 -6.75,15.04 -0.65,21.99c4.82,5.49 10.09,10.58 14.94,15.6c16.16,-7.02 28.67,-5.53 37.59,4.02c9.32,9.98 10.72,22.77 3.34,37.17c5.24,4.93 10.56,10.42 16.39,15.29c6.54,5.47 15.16,5.1 21.32,-0.99c16.84,-16.62 33.47,-33.46 50.07,-50.32c1.1,-1.12 1.65,-3.18 1.72,-4.84c0.21,-4.49 -0.09,-9 0.04,-13.49c0.13,-4.54 2.35,-7.59 7.2,-6.73c12.52,2.22 21.38,-2.89 29.13,-12.37c5.87,-7.19 13.1,-13.27 19.64,-19.92c2.78,-2.83 5.72,-4.23 9.16,-1.42c2.88,2.36 2.46,6.01 -1.02,9.51c-10.69,10.75 -21.31,21.58 -32.27,32.06c-2.05,1.96 -5.42,3.02 -8.34,3.49c-3.7,0.59 -7.56,0.14 -11.81,0.14c0,3.89 -0.22,7.37 0.06,10.8c0.36,4.39 -1.42,7.5 -4.47,10.51c-16.6,16.39 -33.06,32.92 -49.55,49.42c-12.78,12.78 -28.05,13.03 -41.03,0.55c-5.52,-5.31 -10.84,-10.84 -16.33,-16.18c-3.52,-3.43 -4.06,-6.7 -0.95,-10.94c6.13,-8.34 5.54,-17.69 -1,-23.99c-6.59,-6.35 -15.54,-6.46 -23.98,-0.1c-3.56,2.68 -6.62,2.49 -9.7,-0.65c-6.42,-6.54 -13.19,-12.77 -19.19,-19.67c-3.04,-3.5 -4.72,-8.19 -7.01,-12.34c-0.04,-3.67 -0.04,-7.34 -0.04,-11z"/>
   <path id="svg_3" d="m206.28,154.21c-1.48,1.35 -3.08,3.82 -5.25,4.53c-3.35,1.1 -5.62,-1.16 -6.55,-4.46c-3.46,-12.3 -6.89,-24.61 -10.34,-36.91c-2.6,-9.26 -5.23,-18.5 -7.81,-27.77c-1.48,-5.33 -0.35,-8.51 3.26,-9.51c3.95,-1.09 6.44,0.76 7.92,6.05c5.79,20.77 11.55,41.54 17.32,62.32c0.4,1.43 0.73,2.88 1.45,5.75z"/>
   <path id="svg_4" d="m174.58,115.97c-0.01,9.68 -7.67,17.3 -17.39,17.3c-9.57,0 -17.5,-7.91 -17.45,-17.41c0.05,-9.47 8.1,-17.47 17.55,-17.43c9.56,0.04 17.29,7.88 17.29,17.54zm-18.38,6.53c0.78,-0.01 1.57,-0.02 2.35,-0.03c1.48,-2.15 3.9,-4.18 4.23,-6.49c0.51,-3.58 -2.13,-5.8 -5.83,-5.67c-3.49,0.12 -5.85,2.45 -5.16,5.78c0.49,2.34 2.88,4.28 4.41,6.41z"/>
   <path id="svg_5" d="m207.45,113.55c0.22,-9.7 8,-17.29 17.6,-17.17c9.2,0.11 17.08,8.14 17.03,17.34c-0.06,10.23 -8.01,17.88 -18.22,17.56c-9.27,-0.29 -16.62,-8.24 -16.41,-17.73zm16.04,6.77c0.78,0 1.56,0 2.33,-0.01c1.56,-2.12 4.05,-4.08 4.44,-6.39c0.55,-3.22 -1.8,-5.56 -5.33,-5.69c-3.84,-0.15 -6.25,2.37 -5.88,5.72c0.25,2.26 2.88,4.26 4.44,6.37z"/>
   <path id="svg_6" d="m107.86,240.11c-1.58,-1.24 -3.87,-2.18 -4.54,-3.8c-0.69,-1.67 -0.6,-4.72 0.51,-5.91c6.66,-7.15 13.62,-14.04 20.68,-20.79c2.37,-2.26 5.31,-1.84 7.57,0.51c2.46,2.56 2.39,5.58 0.03,8.03c-6.44,6.69 -13.05,13.23 -19.7,19.71c-0.97,0.96 -2.55,1.3 -4.55,2.25z"/>
   <path id="svg_7" d="m71.2,203.78c-1.3,-1.06 -3.54,-1.99 -3.99,-3.46c-0.59,-1.94 -0.6,-5.07 0.58,-6.36c6.52,-7.07 13.28,-13.95 20.45,-20.33c1.38,-1.23 5.64,-0.87 7.34,0.4c1.33,1 1.9,5.59 0.82,6.79c-6.78,7.47 -14.09,14.47 -21.32,21.52c-0.73,0.72 -2.08,0.81 -3.88,1.44z"/>
   <path id="svg_8" d="m110.5,189.67c1.51,1.19 3.79,2.1 4.26,3.59c0.6,1.91 0.59,5.05 -0.6,6.34c-6.51,7.06 -13.26,13.95 -20.42,20.33c-1.41,1.25 -5.6,0.99 -7.43,-0.21c-2.77,-1.82 -2.7,-5.37 -0.31,-7.86c6.54,-6.82 13.27,-13.46 20.04,-20.06c0.97,-0.95 2.57,-1.25 4.46,-2.13z"/>
   <path id="svg_9" d="m160.94,200.19c-1.33,0.93 -3.33,3.32 -5.71,3.78c-3.56,0.69 -9.99,-6.31 -9.57,-9.8c0.41,-3.4 2.44,-5.33 5.99,-5.28c3.63,0.04 9.44,6.06 9.29,11.3z"/>
   <path id="svg_10" d="m138.82,178.21c-1.33,0.92 -3.35,3.23 -5.76,3.77c-3.27,0.74 -9.17,-5.74 -8.96,-9.27c0.21,-3.47 2.1,-5.51 5.75,-5.5c3.74,0.01 9.13,5.56 8.97,11z"/>
   <path id="svg_11" d="m117.5,155.57c-2.2,1.42 -4.26,3.67 -6.63,4.06c-3.68,0.61 -8.67,-5.19 -8.27,-8.85c0.38,-3.54 2.65,-5.29 6.02,-5.26c3.38,0.03 8.23,5.57 8.88,10.05z"/>
   <path id="svg_12" d="m251.78,159.46c-0.39,5.35 -2.41,7.63 -6.07,7.58c-3.44,-0.05 -5.5,-2.27 -5.47,-5.79c0.03,-3.56 2.38,-5.99 5.58,-5.59c2.34,0.28 4.42,2.75 5.96,3.8z"/>
  </g>
 </g>
</svg>